v 0.6349184320130186 0.3890909203842326 -0.12721687396104886
v 0.4782871426478903 0.44739130036002583 -0.11410050054371429
v 0.5170512641071178 0.4387012467125915 -0.11797243701702091
v 0.5645015226126553 0.41855027728740046 -0.12113722325434162
v 0.46774133277087543 0.44733146179269917 -0.11410037690961435
v 0.4988028453507746 0.4426062867240184 -0.12074312168279304
v 0.5344646719497316 0.4290037859280755 -0.1173053115990743
v 0.7196230132293179 0.405866760620951 -0.12092036075747857
v 0.7290899630786984 0.43856589135507495 -0.11131566520036844
v 0.7402711241948642 0.47621178048289714 -0.09984752047367307
v 0.7497570689866769 0.5123840085648861 -0.08685346903921759
v 0.729462908858441 0.42556137492805934 -0.11358914633415715
v 0.7512706226572684 0.5042567148711158 -0.08840742662800086
v 0.736432163671287 0.4702817950000731 -0.10316042863561985
v 0.42148159337746516 0.5619714821956132 -0.09034099888066284
v 0.4261091703438279 0.5986981457565906 -0.08341608732001944
v 0.42125130668373284 0.5233959215172651 -0.10031710261548003
v 0.42045054443247565 0.5652108306510609 -0.09343223386026406
v 0.4219140615357403 0.6061643282222298 -0.07502859474309494
v 0.42197679693932716 0.5578791105185326 -0.08818666162713606
v 0.45692925961767 0.6416346050782342 -0.07046682140278904
v 0.4928646609162936 0.631764838522781 -0.06989299511379368
v 0.521598240039148 0.6305612449139317 -0.07325731098798921
v 0.566284546824626 0.6175464417064741 -0.0681357990108934
v 0.5637561557748116 0.6103205798993407 -0.07167369334492522
v 0.6113216638441934 0.5998238114146283 -0.07054255390596277
v 0.651325299088268 0.5959025659637552 -0.06842898573734578
v 0.691545322586712 0.5765128806399819 -0.06400723714174637
v 0.7398391070908542 0.5621715770836069 -0.0730849991735815
v 0.4517160051966232 0.6436511551203498 -0.0677918482185612
v 0.5118521088568015 0.626781858058369 -0.07191127772330344
v 0.5694960891409935 0.6151791366028034 -0.0711371177775988
v 0.6008695990193579 0.6012781823539796 -0.07320381145060337
v 0.6200144582138559 0.59869322632383 -0.06502675168671748
v 0.6779883533335476 0.5826184722676971 -0.06667765562516034
v 0.7230458493461379 0.5689003415134583 -0.06931892631342738
v 0.6716584211884256 0.37485264842028454 -0.1323413722003142
v 0.5920268575071355 0.6001092418046842 -0.06684656267966126
v 0.566316957977427 0.6157339429996554 -0.06454953137687591
v 0.42489228925613526 0.5912665906622455 -0.08078277534393952
v 0.4996906276998081 0.44173908359060327 -0.11907323796017177
v 0.5158162776271976 0.4317332741819305 -0.12466258287651505
v 0.6598541649184797 0.38805837848808017 -0.13495182753140839
v 0.4582709027232239 0.6450048634419232 -0.06985435731448986
v 0.651969509666501 0.5859337175684677 -0.07163302332314535
v 0.7489157701861447 0.509632820074192 -0.08818717902733644
v 0.7312893514056982 0.46297217942232394 -0.0984066651980388
v 0.5336853176718608 0.4330280141170242 -0.12435926119059124
v 0.6664032202532366 0.3808509592296763 -0.13003688227242427
v 0.7660056021555639 0.5413420797777954 -0.07575117932508503
v 0.5234709427081692 0.6300182630642763 -0.06868444930192831
v 0.6776470035883186 0.37499020445365905 -0.13495072099046393
v 0.6860351802239485 0.5857396092448133 -0.07246938220152599
v 0.6494955728901539 0.593054570345102 -0.07036770124989408
v 0.48409089240399267 0.6995074438180615 -0.13284102196191805
v 0.48918022281497453 0.6354134615406976 -0.06997618080057807
v 0.5199656706422983 0.7252003764913079 -0.1686995901864181
v 0.5623222211346717 0.7601586651369981 -0.208612830962369
v 0.584035442261 0.6049073004705342 -0.07014102079599414
v 0.623314823024907 0.7847857617142231 -0.24869943495162883
v 0.6967300729491056 0.7624665173247578 -0.2564462771825517
v 0.7797279369084015 0.6051666997747835 -0.11752599658954628
v 0.7913421493449131 0.6624687848472629 -0.18886048257945653
v 0.678827470015463 0.7683704271399621 -0.2575720878081589
v 0.7830349018615473 0.6211787336839676 -0.14743557066837967
v 0.8052390648908444 0.6972966363058876 -0.22875341830409693
v 0.7885889903271597 0.6440124457073856 -0.17064638920024205
v 0.7812786339430497 0.6184718933392409 -0.13729703167421964
v 0.5065877485340077 0.7140331654445753 -0.14564778798595168
v 0.7318660391734494 0.7487677164662613 -0.2626460022395105
v 0.7754353065989896 0.5938472928661235 -0.1152407682800476
v 0.6450624679374591 0.5922379865454057 -0.07084331483786098
v 0.6403739915631793 0.775744891540253 -0.2560849602608865
v 0.6820477734365922 0.7610367185199958 -0.2580188122294183
v 0.5459623023252916 0.7481861080002784 -0.19323892092147105
v 0.5666966751522574 0.7642606507067747 -0.2125206391180942
v 0.6780725660127296 0.767638626110603 -0.2526829596049526
v 0.7808242433592119 0.6129088851265077 -0.12492025107289456
v 0.4668201356509348 0.6890029505879619 -0.12157074901320306
v 0.7852305320331369 0.6278058484365548 -0.14148818506589034
v 0.5131375371435701 0.7224972008102041 -0.15354440562216098
v 0.5425530017913813 0.7465040441646835 -0.19090342586842593
v 0.5732936120018748 0.6156216896400907 -0.06925975140817207
v 0.6168533151959649 0.5949759831376332 -0.07185512874526473
v 0.7262108171665742 0.5704142841166453 -0.06715986673043876
v 0.7343020110414726 0.7527664918712806 -0.25595103121233825
v 0.620749007590366 0.6023906551790644 -0.0671098343751927
v 0.6006879773762406 0.609887343719007 -0.06538375139086855
v 0.5448519756395104 0.7420573297877738 -0.19775788685115758
v 0.5896697352296847 0.7799825058533315 -0.23703165701790235
v 0.7247962941628556 0.5702370344782255 -0.07504624939813921
v 0.6702410304460835 0.7728499988002362 -0.2534846947692427
v 0.5898933826338805 0.6117525819888318 -0.07173485519965184
v 0.6760788261383915 0.580135154144387 -0.07309478041875207
v 0.6292493433820239 0.7829987574561195 -0.24841279450069365
v 0.6244533978119476 0.5996789703138347 -0.07033956557445385
v 0.6122101340013807 0.6020765915540696 -0.07564660927017079
v 0.7750341509547587 0.6147576310789423 -0.1275530689809319
v 0.6841313005468452 0.7634851713295631 -0.25766019091155745
v 0.5585329317191722 0.7578641972292068 -0.2039337991365733
v 0.7832469777696256 0.6217041666831683 -0.14071494324335362
v 0.47731040092884847 0.6927998133895505 -0.12460077448863575
v 0.6242899801440036 0.5926308765038079 -0.07223703043965138
v 0.5326201961568681 0.742464352963582 -0.18669653367147124
v 0.7959812194132133 0.7020349291788851 -0.2279512356828335
v 0.5040962144476286 0.714696260175978 -0.15771298475739112
v 0.52780400182639 0.6267952561385173 -0.06750080657651829
v 0.5452737056204014 0.7466411980620457 -0.1963845611696094
v 0.45166887074671286 0.6737233761040001 -0.10144031186106929
v 0.5158518253650891 0.7212528353898371 -0.16603496339762422
v 0.7143177497024907 0.5730227335629878 -0.06676542257326046
v 0.5030317832490877 0.6320308134774152 -0.06792353809636847
v 0.7796494804683557 0.6152341639507075 -0.13033633609620654
v 0.7872387675180654 0.6416671746142976 -0.16048395476760918
v 0.625965431669161 0.5960541650254925 -0.06706202329921324
v 0.7831712873532772 0.6482762517600285 -0.17577324005203193
v 0.4574143130278388 0.6822311668298804 -0.0999296512446529
v 0.6855482016829358 0.7631874985284874 -0.2539734801089753
v 0.5790558982393692 0.7687223079061436 -0.22506644309847942
v 0.0022893164687657766 0.0737314123100974 0.23513213491912688
v -0.016626371893459856 0.07157780460434107 0.25686382256907425
v -0.012745394926853202 0.120814422856317 0.262444885435521
v -0.005870640250619017 0.1270731668196661 0.2578472505480296
v 0.0038935214898384576 0.17050141584194708 0.25612204295837254
v 0.045899552080259566 0.12662042218135733 0.1946130661314884
v 0.005026586742886692 0.15287019198871615 0.25853689848093303
v 0.25773027645154667 0.3162551731442653 0.018915096855463658
v 0.33901249772325937 0.38359948735240934 -0.042506241141189255
v 0.37483894997532535 0.4234034852511887 -0.07463952810840087
v 0.47807987679370223 0.7023787127292511 -0.1312412459503654
v 0.4910823324869252 0.796749488270681 -0.1171204579990565
v 0.5093381617306424 0.7215668530349245 -0.16198935118950572
v 0.4443749300487024 0.6683236255599259 -0.09105848580170642
v 0.4688386116393678 0.7979324288226396 -0.0903009910844053
v 0.4915866997134189 0.7938910382168827 -0.096277857598888
v 0.48668288723185044 0.7019417725632735 -0.1390072309676686
v 0.5162085659743824 0.801669570729882 -0.14445933872092442
v 0.22757955980556605 0.67628063896297 0.16026976384560193
v 0.4220120654408664 0.6020851747334748 -0.08654318806880362
v 0.42619432224380066 0.6399182670284094 -0.07783530593888903
v 0.15588857801176279 0.6450665599963705 0.23073204926725221
v 0.19337106323569303 0.6598244078537199 0.19869455129866667
v 0.4205719892501336 0.5175216999929296 -0.10018328673083783
v 0.42503201207469565 0.6316247644669216 -0.07117661193328834
v 0.4273678218121274 0.5942967702040904 -0.08513161447522581
v 0.09898631593071132 0.5358594672862814 0.2580514742001744
v 0.11425945973533753 0.5788319840891816 0.2625903066231745
v 0.13102657772324178 0.6242363002854616 0.25323563635689245
v 0.11101074033627235 0.17559217180155792 0.14162072307216014
v 0.1329920742008239 0.20023182848351234 0.12461807296139663
v 0.187841162460895 0.25032194839016064 0.07521807056109653
v 0.21076185498696667 0.27031304113931587 0.0637162102281813
v 0.2449259785609902 0.2964037719764923 0.03469027077906795
v 0.2575924665753667 0.30915769577065016 0.02936607594897502
v 0.2870230776962919 0.3357328410083631 -0.005242960488095607
v 0.3580696938517455 0.41268526108284975 -0.06177487762213116
v 0.09562352794299414 0.15711835118380493 0.15689057087687208
v 0.1222385901795461 0.19009463147531147 0.13233317623437982
v 0.07206661867952417 0.43378121940016257 0.262903485375949
v 0.153347020753369 0.21135743552210964 0.10983867788404245
v 0.11238810769832423 0.5556680050130112 0.26308354627563896
v 0.09901260294453493 0.5272968898288213 0.2626520303825626
v 0.1934547050262846 0.2473637549597579 0.07691359429015308
v 0.2340397107576462 0.29162906900096053 0.04151294586848175
v 0.29588527481804133 0.35356756528209066 -0.00889109331343622
v 0.012070139582629178 0.21379389770945928 0.2623183888857731
v 0.030968467964649065 0.254826891557034 0.2604198582330739
v 0.03946928972630967 0.2956240066806634 0.2586265690377445
v 0.04814132691919241 0.33226395696100713 0.2585205170845165
v 0.058139395953278106 0.3727321942257669 0.26323834347812214
v 0.07309577768349902 0.41839454160693423 0.26581879441260353
v 0.07907626175937477 0.455110521082838 0.2611418816665514
v 0.08445900128787165 0.4986382848781033 0.26055242987242916
v 0.022035872225667903 0.2410337842366151 0.25692993387527147
v 0.014397045551891849 0.20179227459600954 0.2587393404422892
v 0.06399637040485948 0.13039676587687007 0.18285284910321487
v 0.05427389456039245 0.12079759883811546 0.19064595242300209
v 0.04229722708641694 0.32682299679509386 0.2592221155822798
v 0.03633357946188396 0.2916435107627271 0.25925435073589254
v 0.06899500141142262 0.41860125730130243 0.25571793662403003
v 0.06600991877761672 0.387107726646721 0.26163576433206914
v 0.08236544373814825 0.4651610382755553 0.25618319234783776
v 0.17615267062321704 0.6537555458417239 0.2127055330450583
v 0.236948549331265 0.6853525376405031 0.14898049903466454
v 0.2828833562489645 0.7076495670384721 0.10357932902898721
v 0.3329315652465306 0.7305125268415615 0.04888414562465753
v 0.36957277855916004 0.7614749785910665 0.01013286571035881
v 0.42168957826890163 0.6447501128466501 -0.07477870767333294
v 0.43029250618738324 0.791966836156528 -0.04466469243210611
v 0.22473220706999592 0.6740160920863868 0.16819611514733512
v 0.2622580580175574 0.6985137307717867 0.12673004180573988
v 0.2656385576023574 0.6957466321074639 0.12646740215878044
v 0.30653298549502683 0.7225988446267944 0.08294743543861849
v 0.34079620525742627 0.7267835327648213 0.04760389778910852
v 0.37432377015063256 0.7586437906472561 0.009958722014507402
v 0.4170230193206388 0.7787029333032185 -0.0250440502083595
v 0.47001784473354363 0.6865915061808135 -0.11683603741328225
v 0.24952997134199215 0.30636958601572517 0.03487485860603782
v 0.07883974482222485 0.4406934453745859 0.2635616311689532
v 0.031016353422619904 0.09757032413031372 0.19807470654141784
v 0.06733410707637986 0.1305687789817688 0.18163295917925198
v 0.422625284380174 0.5274246349383511 -0.09916439894728257
v 0.1128092927725617 0.566575891266745 0.26401746142994437
v 0.4165758208751055 0.774728096857419 -0.024763330728117587
v 0.16428005610899551 0.6407191763916695 0.21909136176376628
v 0.21700021818688625 0.2766648277872958 0.05510222047740375
v 0.07461902388796014 0.13907857779525576 0.17478379745274397
v 0.1764093191913099 0.24048571753438092 0.08454615344075059
v 0.1585414746209235 0.21915866914344506 0.10999608603148596
v 0.5546110935449399 0.7604893639979021 -0.20790116104687034
v 0.2697877327007727 0.32653968816945217 0.012975368646975492
v 0.1655397216100997 0.2233553315712215 0.1013569447249542
v 0.43277909144220905 0.6193159895601764 -0.07852235264347575
v 0.03783016329903762 0.27154411722887234 0.2556557563925488
v 0.4845642547040338 0.6959726414139943 -0.13395817896418433
v 0.06735423074859835 0.4048382389086235 0.2628506964811465
v 0.10013903097368806 0.5235874712412466 0.26620908330010185
v -0.029387859414985226 0.06082985794707474 0.2596608179456034
v 0.4722842113137995 0.6905836732393472 -0.11828919117065118
v 0.29924684608324736 0.3578449457619488 -0.008918338369759953
v 0.4409856862698908 0.7945338040880082 -0.052809409705561035
v 0.5817454650252034 0.7793585650509156 -0.2326370639407747
v 0.22502866496872137 0.6749582281840489 0.16537549000678883
v 0.027181323151375007 0.2610731642662957 0.2571648180680724
v 0.23545925553470798 0.682246827190915 0.15725239938403177
v 0.20096055761836606 0.6645739668418531 0.1888581040041754
v 0.20156751907017745 0.25449617750901266 0.07048230640922427
v 0.18356744767022054 0.2434222942771661 0.09113194355846384
v 0.42219211013496266 0.5059842566676936 -0.10387920775543724
v 0.055720173312735696 0.355791784731852 0.26330966836649966
v 0.4460172366437699 0.6676430123762915 -0.08965295936519989
v 0.07310411956467834 0.42859034916544736 0.2616443447489041
v 0.14030682360491947 0.6306522901936947 0.2474114988714828
v 0.4211768168667238 0.5484188908208923 -0.09295087460517021
v 0.33194790972349536 0.3914200545473349 -0.04141410547261961
v 0.07259682429386831 0.1413092649117451 0.16964201290557684
v 0.48930377536461567 0.7952420870616803 -0.11433000974854368
v 0.43162330368106405 0.6619337651280657 -0.07956126953348945
v 0.4211536389556476 0.570442386847874 -0.08843548623890415
v 0.5441493490449926 0.7507080669482353 -0.2025986804230528
v -0.009760963738708479 0.12133612134786853 0.26071594513913393
v 0.32382619245479805 0.3786379677648928 -0.02908808668739903
v 0.16550303085498236 0.22848465915016403 0.09659728874745242
v 0.1068051954288946 0.16734082935963193 0.14768379692052425
v 0.08461622835581065 0.1467516057037489 0.1653463966473455
v 0.3127882125357792 0.7239723609371583 0.07212899365356304
v 0.5908806853165254 0.779567952297457 -0.23653219620392066
v 0.4778457074656499 0.700342157396423 -0.12138516460393806
v 0.29424278543505966 0.7114169207034656 0.10123127197977366
v 0.06650435756755191 0.1322914498656226 0.1786621443698592
v 0.07865661491445011 0.4594051490970444 0.2603434733237756
v 0.42289801524056575 0.5679354964897447 -0.09294711051397085
v 0.0005329256897921826 0.16363383970461998 0.2583253603203628
v 0.06271171445267612 0.39196293445776775 0.26432134031569926
v 0.3006859321686188 0.7173939907409119 0.08701859964802698
v 0.279848115641625 0.7077602618038394 0.10494270680187996
v 0.4361441377252643 0.7897840459614857 -0.04812647722766645
v 0.19803631942314073 0.25211350752154993 0.07551076722127642
v 0.545159122238939 0.7856032251823472 -0.17596502237092482
v 0.29400766578455806 0.7142678090727904 0.09176761451204078
v 0.16588041773091566 0.6453110289339451 0.22302969214907273
v 0.4385474146396471 0.7920229481538492 -0.060279643832733855
v 0.018822847288996164 0.09030812891970154 0.21306114477267593
v 0.2120370525425201 0.26041282701066126 0.06400972143121714
v 0.30610901770093557 0.36591026977907787 -0.022027650641428136
v 0.443125451970838 0.7943378433806374 -0.05599957917495727
v 0.03530715264770197 0.2706880235463079 0.25909981852325054
v 0.030727288935314227 0.26194023441588077 0.25632563967431155
v 0.08301825276588053 0.4634936021961198 0.2612289784423509
v -0.23444193358261786 -0.6895287843719727 0.2342947270047173
v -0.19595523897644745 -0.6373058566670665 0.25532000859481013
v -0.187726152047141 -0.5874291393096991 0.25576759959856216
v -0.1797223985789824 -0.5548286633296693 0.25667154144364906
v -0.16199268923817656 -0.5162569834278431 0.25266082686452807
v -0.15793615306807063 -0.4734334402439945 0.26060930189250964
v -0.14641132244670743 -0.4328704700371857 0.25829567671293635
v -0.1344972449900719 -0.386423526676883 0.25391423014424774
v -0.11471926187384919 -0.30321089705340565 0.26106258487655204
v -0.09359722541523134 -0.22516083120266864 0.25858791946108334
v -0.08696324078262346 -0.18499470648195232 0.26263491065159
v -0.2415052243460645 -0.6957616227478804 0.22954575353087425
v -0.17622294089927043 -0.5443055720138732 0.25878105717170596
v -0.14817856000684143 -0.4369074832411274 0.25739758372640237
v -0.11927436604601215 -0.30882280978162147 0.25621099310530526
v -0.13176413523333835 -0.3540787255069925 0.2544409517038207
v -0.09892878654358433 -0.24182890136863167 0.2610288275837101
v -0.07405916421476942 -0.14257629263511423 0.2579473481707679
v -0.06638110062782483 -0.10160919496692275 0.260981338458489
v -0.07189903613499685 -0.1320797651788251 0.2563854000625508
v -0.08355482023659912 -0.18044640656497032 0.2615139128475005
v 0.005574404203546813 0.14798535649771227 0.25666131520327884
v 0.015080228581870846 0.199948921028062 0.25989060318655927
v 0.06941535721266501 0.40295404731276535 0.2590257186802031
v 0.054224647472724735 0.3578302001955962 0.2615931427932291
v 0.08443470640755453 0.4547764940061631 0.26106347501837107
v 0.09163143616847906 0.49967645439085306 0.25577136383226595
v 0.12054343225297637 0.5954250562621441 0.25915367298007386
v -0.39746632488618444 0.8427462068915798 -0.3982164740302571
v -0.3917000896493534 0.8871529262944428 -0.4013126716655616
v -0.3752216910792488 0.9261665859600748 -0.392376237594325
v -0.3631302825365955 0.9677021534199184 -0.39758143181920763
v -0.35204787892529066 1.0084387555332266 -0.3939665011083665
v -0.23979611327985953 1.0190942111368249 -0.26909982186178943
v -0.21593741922050413 1.0025537335041992 -0.23893523817136988
v -0.1718637312619497 0.9840129153096626 -0.18267895945473364
v -0.12326587763278993 0.9636794905526792 -0.12752138479797462
v -0.3780163188995317 0.9261020114664502 -0.39819263626280393
v -0.3899483075135095 0.8816826501227415 -0.40105360568281956
v -0.3576774596758151 0.9849028587570038 -0.39811612389495327
v -0.2740896916854653 1.0257982219088875 -0.31268315595994667
v -0.23286081838388575 1.0142123852962603 -0.2663953662151826
v -0.19837748268190677 0.9976869249514156 -0.21178138149013398
v -0.15968396639792798 0.9823426594919206 -0.172953661722314
v -0.11147273496221084 0.9581583596225929 -0.10360459179776882
v -0.1258163499102507 0.7181582533297328 -0.0554083869195138
v -0.1318786832354867 0.7188917508174074 -0.0542178935895782
v -0.05933205647673688 0.9229205162957486 -0.044462544843799995
v -0.023544185468841815 0.8651137971571183 0.01965674947795665
v -0.03187239518677069 0.8798910196636146 0.004890918975900865
v 0.03173895922310113 0.7798776734174504 0.10069446368247603
v 0.0899928159246626 0.6811175733806025 0.20202470198987152
v 0.08056697515588575 0.6933622784413155 0.19070218546475784
v 0.11203798263506215 0.6417587419617825 0.24252720359750385
v -0.04778889396652595 0.9063947503963833 -0.020123859082878972
v -0.021933169195134543 0.8741334679731609 0.014688581987774414
v -0.027876104258605282 0.8601357411694296 0.02355555616442591
v 0.009588860336913602 0.8164154378897892 0.06215541331706838
v 0.027603259766596437 0.7942208827352795 0.09850298827175638
v 0.04587382111337218 0.7500493124294957 0.13969754921971406
v 0.07190256334214024 0.7140706356600868 0.17974698346458462
v 0.111350331424318 0.6446130312036125 0.2467024444293276
v -0.7777422370545599 -0.5889432368093299 -0.421524620365432
v -0.7727169278828372 -0.5505663731383719 -0.4192290639202163
v -0.759059053448894 -0.5080072745797379 -0.4135395072021059
v -0.7501207280696895 -0.4791051845045059 -0.4172121633349423
v -0.7430465191818997 -0.42864059730623755 -0.41491182395319465
v -0.7305545750145179 -0.3874733727403631 -0.4166146951595884
v -0.7192818966632802 -0.3496411088585619 -0.41500406287869995
v -0.7048622235081989 -0.3034698122544762 -0.41376528386354466
v -0.6980886536576141 -0.2693382441563951 -0.4152797609058096
v -0.6859834579557708 -0.2262473288675032 -0.40870741514548525
v -0.6825467360565924 -0.1879735552326203 -0.4108190540500153
v -0.6607866672254269 -0.137744481519455 -0.4115416315064029
v -0.6235601080700419 -0.09387746104087191 -0.3862158318203486
v -0.582980053565782 -0.10795385795446609 -0.3247690538880319
v -0.5819130340139469 -0.10646031160017236 -0.32824171584559303
v -0.5554895300701745 -0.11616491456399611 -0.293491507733034
v -0.5224980157345455 -0.11831668121759506 -0.25354038665034956
v -0.47510981535240004 -0.13310241931957012 -0.2005259983278581
v -0.42662753461965697 -0.1471692455250336 -0.13954117356793935
v -0.3888728071939706 -0.15882996835029278 -0.09692868953792266
v -0.7796827762257754 -0.5337927517503968 -0.4147039454993012
v -0.7432430897059241 -0.441376342811824 -0.41513281595379764
v -0.7561112334727205 -0.48794844120899206 -0.41375815794587845
v -0.7159175446031458 -0.349881319305717 -0.4136315069413234
v -0.6969056821526808 -0.24642445655867704 -0.40825748426902586
v -0.6639974563787585 -0.13993891448049378 -0.41340292344992113
v -0.6755157680200764 -0.1764268680651398 -0.41585613822513
v -0.6303004083995148 -0.09363381793520498 -0.3798295738419201
v -0.5755014872068545 -0.10809298302849528 -0.3187561887295321
v -0.5272265342958179 -0.12267969552445648 -0.26148340128238107
v -0.49870687720924184 -0.13078215559544337 -0.22256875825865502
v -0.46455827591178306 -0.13458530466765145 -0.1809492179560562
v -0.4044674474602379 -0.15139834259331378 -0.10892511684927443
v -0.13397056274238553 0.6857319413075292 -0.05362523949486173
v 0.10597959484407506 0.5458440690772934 0.2649075933092598
v -0.7762460104592585 -0.6686128561211835 -0.3882073452646801
v -0.7265298565922981 -0.6772332970678587 -0.32817655970283
v -0.7033448958697294 -0.6875965073862672 -0.3019454251371055
v -0.6756856820768319 -0.697404683641343 -0.2593768565361079
v -0.6272644156436684 -0.7134950852002269 -0.2091919375581234
v -0.5810631239771112 -0.7186001271778589 -0.147515478107751
v -0.5510099988915639 -0.7257958035463571 -0.1091035684217795
v -0.514359929735599 -0.7382214952690379 -0.06780527560629286
v -0.35601830678651064 -0.16471710993446076 -0.055715904512842945
v -0.46111749187919576 -0.7575834840049519 -0.013486952660152263
v -0.4274723518661923 -0.7620705433478596 0.04149733168177095
v -0.39272012881502966 -0.7704616642699246 0.07232893069407477
v -0.37698978733923366 -0.7618251492458092 0.09227531264476718
v -0.3481939489524196 -0.7461536007194204 0.12084006212712894
v -0.3332159219002539 -0.7417323648452547 0.13163223719297357
v -0.29190369774930985 -0.7131585332503506 0.17729351360504436
v -0.7969183711699604 -0.6253179270891959 -0.41942824682100704
v -0.7489845622927338 -0.6762873194057296 -0.34944738023866173
v -0.7193709980175566 -0.6824416573218755 -0.3253337351853332
v -0.689316054321051 -0.6889984941039645 -0.2866222731381797
v -0.6454201945461749 -0.7085006290121751 -0.22376820938684
v -0.596465993848737 -0.7197214342996043 -0.16930957178891803
v -0.535070086018227 -0.7304693601120182 -0.10027899179008126
v -0.5166430537313041 -0.7368145796822672 -0.06808160926469754
v -0.46083213795259725 -0.7546755298162683 -0.008621885014173804
v -0.42178053986631775 -0.7674617881022675 0.04790188150923805
v -0.37636616555332264 -0.7603943291592593 0.09650564247223957
v -0.3338821479637438 -0.7387568661311704 0.1270510591589816
v -0.29514663860108015 -0.7163129709563081 0.17457933276385257
v -0.10104918340917901 -0.2636554506388346 0.25666302865912055
v -0.35931123661052405 -0.16159568393861842 -0.053439881294937444
v -0.34417469095311787 -0.10494148863674299 -0.059203321536129366
v -0.3200465034326355 -0.015693238074496605 -0.05415563252929446
v -0.33083168048418726 -0.05564326016757822 -0.05820512320507325
v -0.2895404526722851 0.09779171404079878 -0.051714593453942026
v -0.3005656530978989 0.06389502289277674 -0.05399760827880866
v -0.2774389212905687 0.13953913040969404 -0.05991569035253672
v -0.22220810780047764 0.3375988028064395 -0.05491031852561265
v -0.21425889296476772 0.3777215695430715 -0.05267414318951809
v -0.19719797864150063 0.4168322218550031 -0.05096491099874064
v -0.1976645088275825 0.4580890711139965 -0.05089409255247973
v -0.1833211832417122 0.4935975770839278 -0.0548243679757785
v -0.17219568671432514 0.5447890316693615 -0.056015509417496556
v -0.16557435797526393 0.5843483301634071 -0.050541624470381484
v -0.15142338175838352 0.6212655780472197 -0.05119348302710091
v -0.13967703154046257 0.6647504854603293 -0.055480982604772716
v -0.1323605878627029 0.7069677419015151 -0.04998361522069523
v -0.26361326458971296 0.18117729040888103 -0.05317856576413436
v -0.23266776242308135 0.2912442543752966 -0.04843754381074465
v -0.24850293067163648 0.2511157104629652 -0.05241275766213344
v -0.22145067364989818 0.35187437667725235 -0.057493395517203685
v -0.20042091483477809 0.45977232399014195 -0.051860231277309855
v -0.16545614273356604 0.5715144986957242 -0.05709154012861983
v -0.14476147087271776 0.6502188617806558 -0.04757933712288194
v -0.15894582730566037 0.6100505473780471 -0.053559434090184745
v -0.0006845583822077411 0.14695564072571296 0.2639223958339622
v -0.19017732229284082 0.7392016858694708 -0.12450796162444483
v -0.15591530534316506 0.731712591856793 -0.09005369932843814
v -0.08797871826780627 0.9470283794959475 -0.08386350780383088
v -0.07136082471694642 0.941999969731171 -0.060541310166273864
v -0.03408568852240681 0.02884864274379079 0.25603461314840087
v -0.02348032037929849 0.07007600012394902 0.2634943700392247
v -0.01416341883704274 0.10845100614360444 0.25859566104613396
v -0.016411694332183657 0.07597607427719165 0.25715407086537106
v -0.026103609555608993 0.0343204124812873 0.2586037019015033
v -0.009192591478968105 0.1089899040692721 0.2540207286681091
v -0.050184156354206616 -0.01931462305880952 0.25525350243431905
v -0.046571604831290456 -0.03541489254048312 0.2538302441387695
v -0.06322745274937949 -0.07133934884691598 0.25481781429558115
v -0.6966389716841918 -0.699233886105663 -0.2807925666842799
v -0.32799091323161284 0.7718145392064 -0.29470137227341864
v -0.14818059580161427 0.9735562614972817 -0.1601378223294335
v -0.051274615462411105 0.9196245596295912 -0.03371132999904955
v -0.3735271032618366 0.7803850632827646 -0.35195762801392144
v -0.17210012840606018 0.7270919670912647 -0.10294770989343646
v -0.8090671898019199 -0.6459889476906057 -0.4179875116750757
v -0.24062915343972005 0.3008857517675774 -0.050354851466679465
v -0.13718880168838227 0.7184893840096492 -0.0604530723521367
v -0.223854774744729 0.3354027604877554 -0.050935082827927095
v -0.7497217786459545 -0.4645758098478458 -0.41146843722849774
v -0.641856285882445 -0.09269850696264022 -0.40138280907025675
v -0.024327210044059775 0.053515533393718166 0.26007111040228625
v -0.2940338359703615 0.05588484091362871 -0.05238383591460313
v -0.44416981843553444 -0.7624866373717677 0.020074044714503875
v -0.13477476469994545 0.7193273863271361 -0.0565801221442987
v -0.14517656435723164 -0.41498799816966575 0.251691584890882
v -0.13898393999036954 0.977152719946404 -0.1412050594936247
v -0.31955068118343866 -0.026522247065056247 -0.05408147810267494
v -0.3373110668620133 -0.097194761328241 -0.05786509744226696
v -0.39748853781527815 0.8416605059265283 -0.39620952101081885
v 0.09150689996275457 0.6849520623485441 0.20804471606196953
v -0.36263549213195106 -0.15652230298699826 -0.05543090132088866
v -0.30152407579599577 -0.7233424567639296 0.1689860851990126
v -0.6567177518884884 -0.11807467083041713 -0.41580282055514034
v -0.17844707018357095 0.7341820279251968 -0.10306018807135643
v -0.027828003540081775 0.8745048420363268 0.0060431405458830755
v -0.4187840575350235 -0.7646824567300753 0.046377885167618926
v -0.15556331535319273 -0.46258914810308704 0.26210124270007984
v -0.30601266768566265 0.03970134042142728 -0.053882245129540124
v -0.35526543318141424 -0.16867388216700618 -0.05804241356359855
v -0.6858084470209479 -0.6956049309830261 -0.27506628015797946
v -0.7735073133638725 -0.5360156666002684 -0.41256416919913363
v -0.2923191457723526 0.097070661309126 -0.057544566716168206
v -0.4901569215291081 -0.7543692973417838 -0.03852387909136466
v -0.009951218232220628 0.837864295814338 0.04545732528246082
v -0.02303635531784676 0.8696979194034715 0.014116162616507083
v -0.44235565936324894 -0.14227761210341325 -0.1558782613810076
v -0.7702347055597324 -0.5417249792257008 -0.42149224814997527
v 0.01635847254806357 0.2251449919767615 0.2582234833836034
v -0.1843562637554287 -0.5959553427076911 0.261823417116594
v -0.12963954305189715 0.6970167190838614 -0.05382344184792121
v -0.44102425346189944 -0.7561632218162755 0.018943347039255046
v -0.3926191186971117 0.7869206034577586 -0.38577632507083137
v -0.3279399388836582 -0.062485328727506756 -0.053714882722798875
v -0.1260826091768009 -0.34808213217847267 0.2531150422130138
v -0.5119471499377773 -0.12803620428382675 -0.24601448257508887
v -0.29980038557148286 0.05168933240927722 -0.05573333625067619
v -0.0061791408944063 0.12466996488087938 0.2613993290018474
v 0.10468209779578429 0.6687691990385104 0.21917262775230004
v 0.018909873170315766 0.2235803828060005 0.252423757536139
v -0.14559906364010913 0.6563384227398358 -0.056127474602290894
v -0.5949283383338116 -0.7167889313029964 -0.1628768362206096
v -0.2681329057197463 0.16971469117974083 -0.05540353674146253
v -0.1657159082851241 -0.5261283120834688 0.2612640496328638
v -0.6246929880364006 -0.7100210785793025 -0.2057823923001653
v -0.33341644836106304 -0.0913216179500867 -0.05357913054609988
v -0.3914641541531623 0.7887481580575078 -0.37480088287023633
v -0.01537093485473568 0.09419193130544307 0.2594195814048865
v -0.02783972691839387 0.8664564471287258 0.013711346327888828
v -0.25677542357460503 0.752644324197741 -0.20502638949087013
v -0.3827987697367274 0.7844062713548834 -0.36887913492229457
v -0.020446512307643657 0.0480706241778093 0.25047120296426295
v -0.2579678583541421 0.22676134721107563 -0.053606646577807116
v -0.4592117339142926 -0.1400369365639454 -0.17703208377237659
v 0.08654770014351112 0.465507287382955 0.26313538461972436
v -0.06337557493712857 0.9326591998258248 -0.048553447872756776
v -0.1176627804985908 0.9521488354104916 -0.10897807102513418
v -0.157035148012706 -0.47463768128346207 0.26204180937420396
v -0.7803090839307888 -0.558741308116842 -0.4216497879557578
v -0.09762375545365122 -0.20835059429171995 0.2592091964936003
v -0.13265260529858713 0.9683580610570577 -0.13919211952196167
v -0.12368836694631641 -0.3316150177459239 0.25825647206123575
v -0.33294478654825915 0.7734519783359411 -0.31062871991041957
v -0.0198159552518565 0.04949096237489321 0.24792992618876217
v -0.16603522896693415 0.5614292367303135 -0.04471908845092629
v -0.2871294379586753 -0.7113568432136615 0.18534647556498515
v -0.257846144754656 0.2091674575875108 -0.05297548742672652
v -0.3935864980532912 0.8706565219279238 -0.4000946065849511
v -0.4304511503313557 -0.1446567969396288 -0.1443453698504679
v -0.09023320540395133 -0.21105213289977653 0.25961860000750275
v -0.2932558582133086 0.0701240031115041 -0.055552430154082975
v -0.006331498507101952 0.14254852864236994 0.263867474453588
v -0.690264202204769 -0.24470814692248463 -0.4090756855813873
v -0.03242992854287815 0.8664739779108358 0.01595988983266357
v -0.5477747020832685 -0.7309175911242067 -0.1075204866442502
v -0.04809604338165281 -0.03582305628564274 0.25871404906329537
v -0.21060373281996494 0.40056714780764796 -0.05626063712202377
v -0.6951590950495254 -0.26182617137401426 -0.414347675161675
v -0.36052657260043075 0.98166197987484 -0.4008022347101613
v -0.3624137413412455 0.779047593067716 -0.3339407274888008
v -0.40886653786837684 -0.7713970226711596 0.053090608260493284
v 0.02299089456617627 0.7966490583362048 0.0916483026151809
v -0.14956028486130263 0.6166413497822973 -0.0472396178627445
v -0.4311822090758667 -0.7642228929698912 0.027068943924951294
v -0.7553123445881357 -0.6765055347036286 -0.35899042061030007
v -0.47766694658464287 -0.13295242762541684 -0.19613125188079053
v -0.3062957559025632 0.040662737661634286 -0.04894023411543816
v -0.6218149284856473 -0.1004976514122157 -0.37181796389657756
v -0.49614420666461495 -0.1386409050751788 -0.20516444126775096
v -0.17707151225244777 -0.5357653542560508 0.25647888928176993
v -0.34295817378931837 1.045974160025202 -0.39705192749998264
v -0.44625044925215807 -0.7554898727260387 0.01177552892784165
v 0.03307177266804499 0.2757400846210538 0.26220436403561526
v -0.13359897475580282 -0.3867079995192524 0.26063623941160247
v -0.7511228245444018 -0.4738954135119397 -0.41029231296722785
v -0.4581550241764772 -0.14048352501034572 -0.17180598351162094
v 0.06158106581644429 0.3803261298894517 0.2645331303191229
v -0.1439992245219521 0.6459756650962077 -0.053368275986875394
v -0.2808226660801758 0.12861213613688866 -0.05221639387502583
v -0.0078098316408888 0.12666239916950478 0.25969772392886314
v -0.1866970771442863 0.4979580514865152 -0.044572291300921524
v -0.33746523170978543 0.7712962726110618 -0.30499910530028934
v -0.6002864428576397 -0.719555109745594 -0.16712143368912594
v -0.2097150270034561 1.0023372615622648 -0.23800595566158667
v -0.44709986240065946 -0.1426786146943435 -0.1528854855542205
v -0.26521972370573965 -0.7024659528442595 0.20617514880632923
v -0.3414721317710411 -0.09763595048218178 -0.05635764741968738
v -0.35483616705835036 -0.1647382491759374 -0.053421041779717
v -0.06427975496531939 -0.09598085040144037 0.2602857094420495
v -0.2404116211627699 0.7471435516746331 -0.19018514223059083
v -0.4772059493363268 -0.13801555708053562 -0.1957884427605445
v -0.5344174700931311 -0.7328548568470498 -0.08936819874933441
v -0.2943620721842387 0.758111813992209 -0.25804286023674394
v -0.6554408615169856 -0.7046678951774117 -0.23470714937844783
v -0.06836321499300281 0.933974718661355 -0.05372604282195381
v -0.044356115935856935 -0.03516363799219552 0.2571071222622504
v -0.21083692983093244 1.0004204383772988 -0.23362970189937923
v -0.25817081095986993 -0.701989470085927 0.20724037944660453
v -0.48772154897093034 -0.7420296930718661 -0.044870044513547314
v -0.7973989156236698 -0.6349342235402905 -0.416295161306726
v -0.5478819601158862 -0.7262795773552279 -0.10885512871324454
v -0.6805888328521945 -0.20529988791343637 -0.41157959143563344
v 0.04771125434975011 0.7538607876634064 0.13396783980740723
v -0.16171880162262772 0.7204376509693778 -0.09158581318281094
v -0.5989001671430597 -0.713664252475617 -0.17322677176886303
v -0.34115832332372314 0.7732274668337437 -0.3077815033675493
v -0.7668969150292169 -0.534075968246255 -0.4165590392615558
v -0.37282552394323454 0.9467545526198387 -0.39686676726322967
v -0.33007011650822526 -0.05101550673466251 -0.05217037287160028
v -0.2712911862693769 0.7555985823941022 -0.22258593977247146
v 0.07611980873299226 0.7070713886132798 0.18895623392611596
v -0.34249277055962873 -0.7442551560950684 0.13149209288088493
v -0.14182760100709546 -0.4355664136781273 0.25836232966544187
v -0.3792348861919498 -0.16289498759849622 -0.0791359288390109
v -0.749355201098523 -0.6755947009064361 -0.346285720608943
v -0.3603976578213232 0.9618973175585002 -0.3987794502016818
v -0.11391744152820547 -0.3243329463473821 0.26365114001811063
v -0.23758252012891315 0.7450566346019265 -0.17985865181750865
v -0.5503833349523796 -0.11443774382351214 -0.285964422322283
v -0.47612526036581704 -0.7506055899173114 -0.02435045235341859
v -0.7195743817520198 -0.3523203019844482 -0.41367092786162146
v -0.5978938862890324 -0.7173446082752675 -0.16992947119948434
v -0.2236944870733235 0.35241677117451575 -0.047585512784762245
v 0.08630962642135566 0.4823113216763337 0.26748253100528063
v -0.2569812926637815 0.20221157704434384 -0.05539803981777913
v 0.003918900480949219 0.1522248575610601 0.2583323229719362
v -0.3591537994732489 0.9764483886175858 -0.3921066714829505
v -0.1690544580811524 0.5688935508061232 -0.05419842555201254
v -0.7090218282911604 -0.6867608557141955 -0.30173286246768743
v -0.39829889644042715 -0.15569690822946886 -0.10015605673060825
v -0.12337423099227234 0.7212939786252144 -0.05344986419976681
v -0.5242673898675312 -0.7362006967054031 -0.0740568018473852
v -0.696871572556257 -0.690922736580435 -0.29136076093195395
v -0.3966653876169753 0.7872092053404072 -0.3740840657818104
v -0.26781015198431757 0.75258863806369 -0.22336062789552788
v -0.46190133391439514 -0.7554889782638988 0.0014060949421443262
v -0.05986995398241297 -0.0680430424602411 0.2568040065267078
v 0.05096548882883913 0.7401843691998606 0.14036508070541764
v -0.15581296917832682 -0.47110547241769973 0.2557339816576173
v -0.21682660726416558 0.35520553619909184 -0.04641692989774099
v -0.6278430087449056 -0.09354501906838344 -0.3753246281795912
v -0.13690923512543662 0.7246034770680841 -0.06649611176191085
v -0.12407658131828353 -0.34326177637847183 0.250380232179054
v -0.5932557173043574 -0.7160518165905807 -0.165026314794043
v -0.1345371985985883 0.7197268648651196 -0.05648069042374682
v 0.009627006512825 0.8068635912497926 0.0725448934658438
v -0.1300621356797422 -0.36787918071009384 0.2534834419769927
v 0.10140631913756687 0.6643904321644272 0.2255523285533783
v -0.13891766088076293 0.9734985266658018 -0.1415752153277418
v -0.6247462833302186 -0.7103884202130912 -0.2025956093133378
v -0.24254641667065832 -0.6931120906973761 0.21729469779162722
v -0.0770488642852604 -0.14673166626740528 0.2610895335420678
v 0.11503561050530862 0.6387317091149158 0.24962001300360565
v -0.7769955146291847 -0.5443027851387194 -0.4174454264980041
v -0.21758447400825998 0.37635689203125217 -0.05957573730445262
v -0.25522991754018015 0.2421136558292604 -0.0491809327970494
v -0.4111768367173302 -0.7711303665421169 0.05878025012009152
v -0.34857499879126413 1.0220671985731047 -0.39582826976442526
v -0.008508991044740748 0.11405461725483057 0.25820706605568633
v -0.20023686612010524 -0.6371368070142006 0.26160078415858107
v -0.19547184486501656 -0.6216121034834081 0.260117714514811
v -0.14857642930733073 0.7237398587670213 -0.08277686590292044
v -0.16364981717949717 0.5838807970146068 -0.050915376284228014
v -0.254862082539633 0.7533337540497885 -0.2047398177231862
v 0.040925778270965635 0.7566053817332934 0.12376970665992446
v 0.03645980088287166 0.2873570371733078 0.2612476071923038
v -0.3593246627507305 -0.14657459885913424 -0.057751815502899255
v -0.32014099665430995 -0.024498892194547914 -0.05257923598595282
v 0.035903787023614846 0.7708564286097099 0.11649048199765899
v -0.29804599340505367 -0.7151298469328967 0.16194008776463006
v -0.13900439081506014 0.6771432668670924 -0.053109419706151725
v -0.3381995767252968 -0.7409353155848513 0.12750344440113803
v -0.017949851012825174 0.08775023633520934 0.2605505430602696
v -0.4072017755258123 -0.7662628972698055 0.05968761950847814
v -0.3745173755257566 -0.7606145961565625 0.09771603922689183
v -0.3195959801349838 0.7678922084081431 -0.2806140874697223
v -0.04213983857497945 0.003974671295251471 0.25779711932967686
v -0.1479987709607799 0.6500388723114017 -0.05507282140717804
v -0.2191757203499383 0.38239685244397703 -0.05137482019668346
v -0.7678663068583318 -0.6732703321361506 -0.37329474747499425
v -0.7916798209098702 -0.6069463541533705 -0.4168701596075992
v -0.3051452244379203 0.03561686077190372 -0.05094417539898695
v -0.7677716754088625 -0.527052758426694 -0.41483184974800236
v -0.13520652881841128 -0.39206698942258894 0.26154436572962875
v -0.015224290642089487 0.11763120812916815 0.2584512324862286
v -0.5496670303385143 -0.7294304932945829 -0.1099449878910188
v -0.0351139179057291 0.002965719299092065 0.2632188184243145
v -0.2496185488261542 0.25353782388809387 -0.0453748039174862
v -0.1401907553048624 0.7241206864856505 -0.07055107077188322
v -0.16464906050455602 0.5735373389960443 -0.04875688586530575
v -0.01890792555842057 0.8636994776542222 0.02157942092982721
v -0.7849602955416862 -0.5848607699975907 -0.41035128756078815
v -0.5279652617182001 -0.12215594791346772 -0.2605035372360311
v -0.35624675705617076 0.9933834440821511 -0.3933151535859324
v 0.07756315695218076 0.4293661112010577 0.25927510673972615
v -0.6114127793163595 -0.7198886492787415 -0.18568099905093968
v -0.1262416150343121 0.7178025040703487 -0.05138195731601927
v -0.1592442275031091 -0.4752124908715896 0.24904009402220642
v -0.5727233458680823 -0.10998838811135045 -0.3113374611064668
v 0.0940503593678921 0.4981897272117651 0.26411543637935286
v -0.705395339346881 -0.2987906517344771 -0.41571385557544355
v -0.08238639940345473 -0.17415070912255837 0.25874940831731214
v -0.5898191131462168 -0.7222189964121841 -0.1531803784650072
v -0.5356833197263537 -0.7373237290436829 -0.09548831097265885
v 0.026227416489047452 0.7787933633522067 0.10590801284464828
v -0.08673984008391979 -0.19624998555096168 0.2530880751342465
v -0.21477203082261112 0.3887082143622493 -0.05594162624578654
v -0.09593806857465746 -0.23883464961717335 0.2634310831459614
v -0.23788170891025737 1.012909080924164 -0.264961496155887
v -0.22512846114444696 1.00437502454008 -0.25114993241310646
v -0.12864615880062477 0.7182248399358138 -0.05477226167418193
v -0.5305686148498895 -0.7337326746753764 -0.08640786388727442
v -0.2792086575554468 1.0302175560705218 -0.3189206509450439
v -0.1596485453807701 -0.7475065231115966 0.18000098213791987
v -0.16022658767477496 -0.8345128037585133 0.06477309727424418
v -0.09776870991543538 -0.8394429326664442 0.08338267485860909
v -0.16533542050951391 -0.7486847520080335 0.1881770056393816
v -0.14723598856279224 -0.7745087172378728 0.15201233404626016
v -0.18286929013390116 -0.8346102800242426 0.06553595557975832
v -0.12587962137227449 -0.7958261426695146 0.12449170137189754
v -0.13393418276849212 -0.8435052765076845 0.06831943252331467
v -0.18350541510061563 -0.7193027542667518 0.20986466410166613
v -0.19938798789023868 -0.6886280594039986 0.2392474652013009
v -0.17401989923555788 -0.7181444542367884 0.20985535624988882
v -0.25251297926043487 -0.702345512077657 0.21349128266148562
v -0.1840116001545224 -0.7121201343847188 0.2208435615812167
v -0.3737724893520445 -0.7587130260915456 0.09771059942362677
v -0.3385107415766909 -0.7397808535516436 0.13190402004506366
v -0.30179420785837735 -0.7211733254326738 0.16234119710759373
v -0.2811754418938127 -0.7133511561247415 0.18409252903743623
v -0.3708436185301186 -0.7544756895415264 0.10350233287415092
v -0.3406095517901951 -0.7468190515805938 0.12447763670157969
v -0.24351232114131158 -0.6989533773489212 0.2136096051140239
v -0.1477674650622329 -0.7601974621985136 0.1606529303837729
v -0.29748089545099987 -0.7225172352814143 0.1635531989375886
v -0.342557590699264 -0.7894439380975671 0.07131464329094486
v -0.11369959740259591 -0.8138545146941671 0.10984226879182303
v -0.1471873192731625 -0.7719308809693262 0.15970129137997907
v -0.2505350461727692 -0.6974544858122724 0.21313414823400734
v -0.3397216893370026 -0.7414244736851948 0.13374555304822747
v -0.11658609458537593 -0.7988478517232599 0.12478117892242639
v -0.2903457492092436 -0.7138295545131386 0.17760870795695355
v -0.3275958489361249 -0.7317245508124803 0.14174122865056518
v -0.2878276807887135 -0.7133544921948433 0.18131167846287843
v -0.22342620549172737 -0.6751278863996953 0.24901298266198046
v -0.19040570192151254 -0.698598371057412 0.23011596154565186
v -0.18009974897718595 -0.8228069911771647 0.06513814507980555
v -0.24769593146625848 -0.816186117371857 0.06665268661350313
v -0.11702780889628572 -0.8420115696588077 0.06343386560965089
v -0.14760406349308078 -0.7617184782796464 0.16584857272796888
v -0.2590826319009539 -0.8095557274553112 0.06703572168546261
v -0.1070973864059629 -0.8298541233346945 0.09975910583187164
v -0.19699294735790182 -0.8281918079419561 0.06859118303070019
v -0.2722648977221352 -0.8028201063148791 0.07436823081550892
v -0.30177746767611824 -0.7312379514446472 0.16802368120990635
v -0.3226328673350949 -0.7313081867718606 0.1453525115180431
v -0.25346956759584216 -0.6998353851731512 0.210898609260521
v -0.2835234240433762 -0.8040742098277575 0.07181740372431097
v -0.24497492084216227 -0.8162286934711974 0.07234894708812933
v -0.2777724370110702 -0.7108230477922933 0.18694274887408777
v -0.22463234813168254 -0.8226663258992392 0.06517339826389788
v -0.3177935134607529 -0.016109947492100637 -0.0578349989224666
v -0.30195600960723024 0.022348715460706395 -0.04832531164750054
v -0.2978748845695446 0.06185241087854439 -0.04980410910573839
v -0.2900100050161076 0.10768361873935316 -0.05109493621653611
v -0.3512684957249718 -0.15382431809516062 -0.05353866621722432
v -0.33936885504116615 -0.10926344868495443 -0.05173435645632365
v -0.3378138149382709 -0.07093768286479289 -0.05531247484895274
v -0.3175866785579638 -0.03627517504525445 -0.055631136479123315
v -0.31215685246104546 0.015224956022798785 -0.0465886068084617
v -0.29547109620341916 0.05878314609829912 -0.054363179650571365
v -0.2900470343774715 0.08924439230913798 -0.05391722943604362
v -0.31893370779595887 -0.020011354709660218 -0.05713820960568381
v -0.3268685612982675 -0.059974113282654395 -0.05030340028517122
v -0.29810500386301697 0.06545476817230668 -0.051679321792372786
v -0.3049635833658338 0.018463804399291066 -0.055602994373823794
v -0.4192862078588132 0.7490177245259211 -0.1783636048130974
v -0.34238146976756756 0.7804232827458468 -0.14851425256470843
v -0.3231230208481154 0.7656148564233243 -0.13809652826742494
v -0.2861778156025749 0.7624717464377767 -0.1238482282963029
v -0.24562112179279674 0.7496005948920504 -0.09989089214902161
v -0.24672627760906787 0.7511089789638902 -0.10350359227815531
v -0.19464165395498842 0.735458290125214 -0.07867583286292756
v -0.19246632118378182 0.7359445571097448 -0.08069171037205074
v -0.2775034005928936 0.14793871339506254 -0.05201317146022901
v -0.2643559749630719 0.19547702623450566 -0.055321843829576105
v -0.25560055118928526 0.23407110823467575 -0.05093005311383934
v -0.23492164553528075 0.2753849091599701 -0.05720592640665284
v -0.2328656264324676 0.31370438897600983 -0.055005669936710404
v -0.22141835644035912 0.35171763449409543 -0.04934734416722441
v -0.2095069127153834 0.4007930378929706 -0.05576041710513187
v -0.201320830138727 0.4357233563752324 -0.05152884816966907
v -0.1886196582512803 0.4773655392054182 -0.04918037677109127
v -0.17974734621890429 0.522043852244372 -0.05240459606637527
v -0.17475346264614286 0.5591669138530677 -0.05543145970036109
v -0.15903613570208172 0.5976138991140836 -0.054874295996870014
v -0.15086109327134664 0.6345747501298729 -0.057993583686493384
v -0.13026250828868863 0.6803958934453694 -0.05738454277157241
v -0.2714295308373238 0.17481363622033758 -0.04894414178865856
v -0.2538762329148114 0.21350443627424803 -0.05263168252847539
v -0.24640443540601306 0.26622000818815816 -0.05278524596736022
v -0.2389020326217483 0.30404021263109815 -0.048152900632838606
v -0.261153239803445 0.18209550023592044 -0.05614465126801204
v -0.2751221323352205 0.13641136943414608 -0.05741897954331981
v -0.3644966028637281 0.7802823202268149 -0.1605464977750059
v -0.230737243549867 0.30053551440265375 -0.05522231627932304
v -0.24533246187477012 0.2577796539319954 -0.056800508836704865
v -0.255013910950975 0.22217982377687653 -0.05338575120064134
v -0.3426763637048185 0.7754971098719399 -0.14661663757994028
v -0.3228844110095051 0.7688117244205993 -0.13609649963089976
v -0.2203169856125722 0.3655615307822215 -0.05220876976188335
v -0.22884671425229702 0.3192834196731636 -0.04769614649245001
v -0.28911479573391247 0.763693044852946 -0.1171793810037203
v -0.20213267513923838 0.43264814244195005 -0.05305951890888338
v -0.2084198918212212 0.3990764499225085 -0.04775638774405226
v -0.22738655878279307 0.744655178161643 -0.09225053248652543
v -0.16450310587718378 0.578616847003561 -0.04856639496167767
v -0.17632201485063292 0.5271010317468214 -0.05511485083191796
v -0.1827458473941017 0.4992469107293353 -0.053809050563214174
v -0.16816403936561256 0.7374234604778019 -0.07538341775453912
v -0.14643094691278455 0.6492775916551201 -0.05107225614075608
v -0.15846304262024702 0.6077663488839112 -0.05702014001344208
v -0.13049219689525549 0.6931316220156921 -0.052205358532956665
v -0.6232404849401528 -0.09078432288987934 -0.16882653768142034
v -0.6341153352080353 -0.022443209837045255 -0.18249911838522023
v -0.6205428441099522 -0.0005509181852365237 -0.17488243586523503
v -0.6105606230496496 0.05915597369871086 -0.17872956999380432
v -0.5948469592531195 0.10237984827075548 -0.17534969962257593
v -0.5514789969575218 -0.11437585711110435 -0.1377923468218325
v -0.5196806981156099 -0.12160208807897083 -0.12179325250210729
v -0.47576790756579573 -0.13051482107460247 -0.10226576682459426
v -0.4743208991297969 -0.13122647238248164 -0.10683624506499168
v -0.43118531954128064 -0.1505552367384357 -0.08030199945476141
v -0.3917511583532565 -0.15583315121988053 -0.07125316751618693
v -0.34222950735580804 -0.10293902687061657 -0.0544569948929938
v -0.3312125592547001 -0.057488797047455825 -0.057764700528900106
v -0.6104243793577333 0.08172179126858928 -0.17974208884262016
v -0.6135506155804343 0.03781452100889338 -0.17852059843896131
v -0.5484210083560361 -0.11606182771875397 -0.13013560104655533
v -0.526355861705076 -0.12267744953247997 -0.12467660107250628
v -0.4841945223968152 -0.1288510381179886 -0.10622553482555463
v -0.4660420789941205 -0.13493316020861815 -0.09587803850297198
v -0.4272583047872571 -0.14433250323407343 -0.0824235578563678
v -0.34386391603723204 -0.10996379620431986 -0.049030602162656964
v -0.34983706021290684 -0.1507844936001527 -0.049237022539042094
v -0.6231732714032 0.016515077145692107 -0.18196676651602642
v -0.5844754005409534 -0.10513522299372613 -0.1519000293994101
v -0.5768559312466205 -0.09907011487819703 -0.15599853879704542
v -0.6360509885737439 -0.04290616069459185 -0.18119930942333326
v -0.5947208995585593 -0.09900806147873178 -0.15916206079544865
v -0.5891019529107437 0.13602115193975323 -0.1789297231039043
v -0.5612876679060976 0.2227999192830917 -0.17457936851968425
v -0.5565288300246106 0.2669639770461399 -0.17677754892859437
v -0.5399010970079953 0.3053076270095714 -0.17614454545049438
v -0.5311183600125203 0.3481262908135779 -0.18038098667832686
v -0.5200674293702677 0.38472891246167357 -0.1767041667360973
v -0.5104549688629777 0.42890919590459103 -0.1795266730697503
v -0.49510754932358364 0.47423452426437207 -0.1753005372946236
v -0.48822182725696506 0.509860070707427 -0.1764233253495647
v -0.47648859965721374 0.5411685867757877 -0.17833159052581316
v -0.4686090301874975 0.5913249823921031 -0.17590118009663613
v -0.4553403314628731 0.6319344023328839 -0.17539050725238528
v -0.4455339768076501 0.6724564918092112 -0.17543437143139426
v -0.4335700572612694 0.7116920180046176 -0.17598419299637036
v -0.589431402647947 0.13704522802661412 -0.180941596782685
v -0.5609158516481413 0.22995469317514136 -0.17674858798291243
v -0.5782926796437263 0.18781983485636758 -0.17497405611802705
v -0.5406786417491831 0.30750361385158953 -0.18203373030451997
v -0.5061780127074443 0.4683898464363132 -0.17652777566659422
v -0.5152757008411522 0.4217747902393014 -0.17382835582602676
v -0.477631727854562 0.5471558689335715 -0.1752335517477113
v -0.4865789180754717 0.5092821006397233 -0.1849204793569884
v -0.4608420873003231 0.6084355937391539 -0.17900242962527477
v -0.4702788447746983 0.5644822579954233 -0.17746253320157984
v -0.4330258059261136 0.7184782077943189 -0.17625495302487407
v -0.4421014362100754 0.6789238616407924 -0.1746233039662612
v -0.5752787317558046 0.18044172391043792 -0.17909295137395456
v -0.19777102241200353 0.4525976414156005 -0.05065217500193376
v -0.4468845504634007 0.6605708984346368 -0.17383553982143257
v -0.560383017394443 0.22624817496930635 -0.17374163717410077
v -0.6444996341237431 -0.062274448797972656 -0.17821284902905632
v -0.3385083018106815 -0.08952641788691063 -0.051704292917488286
v -0.27998027252403707 0.14894327598296117 -0.05775326992343409
v -0.41900241244406317 0.7701044113431723 -0.17311816254246917
v -0.22027537603648392 0.3593629204749476 -0.04874536270722313
v -0.4570054146804586 0.6271329521149018 -0.17988220995876292
v -0.5815834832189773 0.17406788907482834 -0.17635328386528232
v -0.14424287622199197 0.6644016771322242 -0.0570695006309035
v -0.4426333946761649 0.6893469920800147 -0.18088697381236676
v -0.5569979209676887 0.2693696059043313 -0.18012634791757307
v -0.29124608923252154 0.10877737499586383 -0.05446490436448409
v -0.3489987469605894 -0.1574884534094153 -0.05308062609073994
v -0.34417080846452786 0.775801537272229 -0.1513542981697288
v -0.6477341415838825 -0.05991128678547063 -0.17549639744385886
v -0.1846394536139917 0.5011466696684401 -0.05349060180508563
v -0.16006633825497477 0.5883691096107778 -0.055209172936564514
v -0.143309713722273 0.6507249305142906 -0.05528463461202674
v -0.573231439913727 0.20432010423392746 -0.17337276164568585
v -0.5191336629057453 0.40631282373448735 -0.17187032150772924
v -0.6059106621947112 -0.0961944552578271 -0.1596646662397369
v -0.3221341450639516 -0.030732042227396235 -0.05092351548483389
v -0.20364804561796446 0.4240130359424145 -0.05359792090744913
v -0.5422122046743849 0.3189790731765688 -0.17883285965053694
v -0.5506213640173012 -0.11546592348184749 -0.1340519020217934
v -0.30029410293041303 0.040234235377993505 -0.052966727419810095
v -0.33532922539570975 -0.0813687601751 -0.053838084807110366
v -0.6179538846843382 -0.0936199617941401 -0.16685790907209735
v -0.30430789125152213 0.7589783010351778 -0.12768061990288881
v -0.5063665137904471 0.4351546633970567 -0.17952420204699274
v -0.6450034051686279 -0.040231741069396754 -0.1801069756918944
v -0.23126682554862568 0.30281747432627326 -0.055440849817660696
v -0.5719253856359714 0.18709895635925425 -0.18371286861299416
v 0.6051569395396822 0.37418127875611845 -0.06922255049689148
v 0.6351943622028758 0.3456795484600345 -0.06331380250504529
v 0.6712450899356062 0.2487490497525081 -0.0034131065958849386
v 0.6910081152930362 0.2979730199544769 -0.036463410625161945
v 0.6491473328860935 0.3319594797227674 -0.054346126770240206
v 0.5131226953675827 -0.09555589988718985 0.25703642962325907
v 0.5853750728144078 -0.0942228101365492 0.24166398400279004
v 0.595854096720179 -0.05384083434939042 0.21094722923626014
v 0.6079427702411028 0.004033608988422418 0.1768844673897072
v 0.6244797638904265 0.04855830104317605 0.1394959406402118
v 0.632804636030048 0.09430072689103308 0.1094813333103569
v 0.4104664801773923 -0.07711218222677385 0.2613305422316599
v 0.4665720378175144 -0.08863306516670759 0.25464140767177434
v 0.5079010097000289 -0.09904635337326193 0.2544473278675736
v 0.5862738929643448 -0.08356025824345197 0.23324438657831786
v 0.6208668885965131 0.02406349708114581 0.1567401394040598
v 0.6005341884060311 -0.013176148217642542 0.18726566459422564
v 0.6411313078944788 0.0987351644314571 0.1074021639159352
v 0.6456909655997825 0.14688528895555636 0.07253136260475201
v 0.6481793697949653 0.14643673628317536 0.0729384221935381
v 0.6564593131910355 0.1706373505738057 0.0573933490657988
v -0.015531836993162301 0.03433962703493009 0.2572958170811815
v 0.017614210934333872 0.03108188741862907 0.2569572726219596
v 0.032381075653086885 0.09689585859735782 0.20807964942813703
v 0.06476319411832587 0.014264887818548164 0.26255592773972514
v 0.11046248240239184 0.0027908557221824667 0.2555158874710512
v 0.15110015811712296 -0.002854037843521968 0.2565276574090366
v 0.18138766607191883 -0.015005717139256938 0.2634409924006713
v 0.22886117404298414 -0.02203091374936674 0.2607913672736709
v 0.27647259974692373 -0.03393932296306202 0.26212130032802244
v 0.3097345226212463 -0.047401737694789225 0.25917106652887806
v 0.3441744596215342 -0.05467919723127671 0.26234113362707534
v 0.388010360633677 -0.0614207115366839 0.2625682391978511
v 0.47482693665204406 -0.0895585966784096 0.25908273456688874
v 0.010370058049017729 0.08466942523227707 0.2196449053893208
v 0.027344587120838655 0.027604942206051242 0.26186001575510093
v 0.03722106396172808 0.10517984714277316 0.20376106874220073
v 0.07562753625323639 0.01590890903762392 0.2594051034699105
v 0.15626018007288425 -0.008779799892012033 0.26236888773554234
v 0.18844029077120977 -0.015771502738570725 0.25663022478971204
v 0.2511314016548943 -0.030254921395480684 0.25513837275772683
v 0.2999876499288524 -0.03986778992829836 0.2612126904164341
v 0.32898374370209804 -0.04668287345462429 0.2596237278303232
v 0.36582543119043975 -0.06258833387812705 0.2608794750451528
v 0.5173918143427548 0.4137832896758193 -0.09456590964733338
v 0.16844066895896828 0.22677201882932527 0.09540626842803522
v 0.1724188276121673 0.23676362675927531 0.0830464931990048
v 0.20675162590195967 0.27180546721438936 0.05986444255787558
v 0.23103802809348914 0.2846989482073188 0.04439681568365474
v 0.2626454757829699 0.3167678715435523 0.016183556307884473
v 0.2951265015221683 0.3489739845755484 -0.004982214475834412
v 0.3359277232710018 0.3843330914073642 -0.03960644861289372
v 0.3524868998721738 0.40492081090152404 -0.05442655847522772
v 0.3869779273388725 0.43843630279148305 -0.08339750526358354
v 0.4522421421246059 0.4541820750542289 -0.10415261046696074
v 0.4830596791703421 0.4363370986355766 -0.09596940183443092
v 0.14011777430543554 0.21063414151170637 0.11794516288201788
v 0.1723190308903883 0.23625138449595087 0.09323635707899532
v 0.21914272613534921 0.2704624844125801 0.052997513337297505
v 0.24442257270440199 0.3012820706482743 0.033167871559992804
v 0.2952993056803754 0.3469441857741814 -0.0021722460255892712
v 0.31194994334360027 0.3625607595010733 -0.025570980193955418
v 0.350177354766434 0.40022149920745864 -0.050152679109976325
v 0.47120821244521666 0.44344088594419545 -0.10401807156907633
v 0.5221779017833967 0.4108400326382293 -0.09055751055974744
v 0.07755630495475294 0.14650366142449645 0.16541515644346902
v 0.12968240012062673 0.19155528349973283 0.1288346776888065
v 0.576356367946709 0.38559776234785825 -0.07791751103889309
v 0.6657163076822068 0.2010147631754931 0.040656042095622236
v 0.07919225112813842 0.13952820971409696 0.1703100452313503
v 0.11042135384382769 0.16944781558407648 0.14381655073583072
v 0.6647985948143055 0.21483992911425806 0.023148203974451022
v 0.30413728846499993 0.35575756162386146 -0.01216900553581558
v 0.17185645594621635 0.2276720482102896 0.10062815238235755
v 0.02175818477786298 0.09664602870683275 0.2101457740058199
v 0.24708344555363607 0.300646739685485 0.03209177406652573
v 0.16691806043513874 -0.007665339231856676 0.2588638631844767
v 0.23853442480027534 0.30572787317639566 0.035946445962978586
v 0.5280431195411152 0.41082699984527277 -0.08690172265642165
v 0.03384742244252 0.0907927523246818 0.21011233062320994
v 0.28136587084418785 -0.042017911163021206 0.2600453138514619
v 0.08433520844132124 0.014698912887509354 0.257354636835218
v 0.6556361844936593 0.16422823330332578 0.06218466611492385
v 0.2696198952845902 -0.0380242413734785 0.26115029340552615
v 0.6502655687831161 0.14419205790226094 0.07268258587649215
v 0.44807852779974056 -0.0807223672540452 0.26351374000680455
v 0.5987678311667188 -0.03912113604601814 0.20933996445510175
v 0.5149455380720704 -0.09834500789738708 0.25634616955581163
v 0.4345934257027288 0.4699708480019296 -0.11244489425411852
v 0.3341738594871323 -0.05365707175305624 0.25880276265285873
v 0.5899967302708781 -0.08361583646232562 0.2388172759113884
v 0.5868705951346372 -0.07509885687587357 0.22694826321037162
v 0.6156195556069273 0.014452266820658515 0.16828028958062807
v 0.012786062387970532 0.033647723789110774 0.25958752794382994
v 0.28734487635332545 0.3450574637827898 -0.006069565702209364
v 0.2755681061514578 0.32714691835695364 0.011528679187633013
v 0.6664167457074719 0.2028686551497389 0.03167847160265639
v 0.11715429378130932 0.18609103024771584 0.13388687949877615
v 0.2204427721121047 -0.020886867253745663 0.2609135587112012
v 0.12660516460768662 -0.0002696982194046538 0.2615838391971809
v 0.27541864231437235 -0.03890659968338218 0.2564206063713123
v 0.38778034222911134 0.44327818328548135 -0.08525060345133728
v 0.3928460370714037 0.444772814490044 -0.09082090712308033
v 0.461904690435884 -0.09356768650269663 0.2559479884030793
v 0.13871064533249702 0.19234649874395543 0.12439364890930323
v 0.652247742297685 0.15992867884477177 0.056888131346525206
v 0.6064360220535068 0.36572472564668745 -0.06813949091191189
v 0.586939166483325 0.37689121099198225 -0.07303421287535618
v 0.5724339700977622 0.38723076650552063 -0.07498317174220866
v 0.16061475384822865 0.22210696256458665 0.09963979864767476
v 0.48377616949599966 0.44005772006519833 -0.09801417027425909
v 0.5569108952601057 0.39165898283465894 -0.08073166233191971
v 0.12296120580216054 0.18870842618949932 0.1295162687667697
v 0.3027830569443686 0.3496423905244891 -0.014236278188748341
v 0.49738808574262017 0.4296113480439115 -0.09329996601576104
v 0.5983504880398195 0.3726265180160087 -0.06929622259447987
v 0.675963934988185 0.2540412608521608 -0.0007156754628097769
v 0.6034156633605505 -0.00975416191313777 0.1816741730622721
v 0.6593684392741491 0.185295395668168 0.04152764915594322
v 0.18270754873158435 0.25094529994580916 0.08039887961968599
v 0.06700525032975248 0.13358111525202104 0.17944263555915355
v 0.21111297535532247 0.26936108560333044 0.060410687958968375
v 0.39996744221631303 -0.07353027849812376 0.261791610805954
v 0.346883612957506 0.3981923869838178 -0.0460340524407111
v 0.6782717769140576 0.2623872601755879 -0.013106735523105843
v 0.041540916990914195 0.10804323832517462 0.20306514125118483
v 0.5100230233890444 0.4259366973266477 -0.08939160042070572
v 0.09244119387819692 0.16558806703093074 0.15705699008318427
v 0.06276996819908626 0.1279368097676653 0.18533136206471118
v 0.5976079923377882 -0.035064102185998966 0.20832434927781054
v 0.5752370021886986 0.382809139806557 -0.07525844566232996
v 0.2841260511027162 0.3362452619967783 0.006087558705994948
v 0.3398291598471107 -0.055110394617432605 0.26282054842835906
v 0.633870624474105 0.10606917228063031 0.10220983280683366
v 0.6756975205592586 0.27826691943089366 -0.022665668010599063
v -0.0012160949351605367 0.03548460432296068 0.2599256384603923
v 0.06301992675233056 -0.2614828144260282 0.07427261042427714
v 0.06929666017654294 -0.29805939338135606 0.05949585590494171
v 0.03651366680180157 -0.20009433098714258 0.1124674229822541
v 0.025531094186600357 -0.1658948677589129 0.13124403479325447
v 0.06995316177171797 -0.277032573221093 0.06396342360620993
v 0.05658779998808244 -0.2376723146183206 0.08200360237987893
v 0.08316052554455206 -0.3436261439928058 0.02933301176428315
v 0.07334514013469151 -0.3100498171590891 0.044688473928869765
v 0.060967442206534286 -0.2795080329137402 0.06478894748567518
v 0.10730308401247396 -0.4332624389408185 -0.030783855452635213
v 0.10424906536985744 -0.40478571484839754 -0.01011792315475255
v 0.08845601002648266 -0.3772390654606056 0.009823055546943571
v 0.4364533799180006 -0.08047177024599732 0.2641541725545681
v 0.47243440940898096 -0.08818522441103888 0.2583100255851578
v 0.5696294391739698 -0.1361096218936655 0.24904207524014185
v 0.025720474574025848 -0.15259952242914507 0.13579436961825245
v 0.03454439090593171 -0.1914927136418972 0.11716924552952328
v 0.05227566342675288 -0.22630907065638237 0.10361751175882788
v 0.019792249617096223 -0.12203530841479482 0.15656219422772957
v 0.030550408621858496 -0.16231740949192852 0.13514588328298568
v 0.04189292333465398 -0.20142886547870428 0.11380013409593162
v 0.043152612486126146 -0.23626597869975335 0.09041275643204714
v 0.056591043836648106 -0.26098111430233945 0.0755573295888204
v 0.06872569894339975 -0.3072059174730647 0.0486239166625537
v 0.08157729220079399 -0.33857799699641156 0.026200178742902362
v 0.08975834775279198 -0.3726129373786398 0.006801004934537196
v 0.10387152735878136 -0.40668754006307856 -0.014082306419443108
v 0.11444686175096884 -0.4448760305779191 -0.04003715009797941
v 0.11638246408042008 -0.4793754349660476 -0.055955702494358724
v 0.4552291375480998 -0.08165451492502947 0.2548875253935847
v 0.5674220610431894 -0.1536361587779388 0.2291831333166417
v 0.5651949264185138 -0.11175093564464823 0.2587094718905114
v 0.15428168608848664 -0.5090209281723054 -0.06641291415276297
v 0.18737038817404797 -0.516328044662123 -0.07045353506502068
v 0.18065765949899845 -0.5133735595563337 -0.06647620783489241
v 0.22505550806936422 -0.5245229755617108 -0.07042731211662591
v 0.2653998758176227 -0.532286159544996 -0.06547158161913927
v 0.30264054948967206 -0.5471494323433859 -0.06811850656298704
v 0.34734754774923465 -0.5529028053056698 -0.06608074542315119
v 0.3852129123178696 -0.5667960901124133 -0.06733970752759567
v 0.45884433389583495 -0.5516921460436579 -0.04921871598984842
v 0.47174818501212434 -0.5248207688538898 -0.022348745015669233
v 0.47268004433138044 -0.48161372595384067 0.00033256042336611644
v 0.4908272923365731 -0.45054287119632197 0.027433794443940004
v 0.49419979401819913 -0.4137562291675401 0.05120489342265109
v 0.512508215245846 -0.38134252630341725 0.07488508745990965
v 0.5150650570617611 -0.3385687646870496 0.10132209489439216
v 0.5278908211233494 -0.3088174832683755 0.1208632404621782
v 0.5332191247195631 -0.27776899123680626 0.14934254244305087
v 0.5466051167615427 -0.23857724415684411 0.16968202219182668
v 0.5513624405719486 -0.2084728733973534 0.19643611153758586
v 0.5649070899565807 -0.17503429348123972 0.2183200814521891
v 0.18138993147754562 -0.5104074880934283 -0.0686204726484878
v 0.2413232405901357 -0.5260553389414158 -0.06534127751046412
v 0.2658714809813411 -0.5320533790527172 -0.06614691325677598
v 0.29790979950088303 -0.5422842738793756 -0.06597108614612908
v 0.36144548860247316 -0.5591205839756712 -0.06982015376837271
v 0.40135376726655736 -0.568120824612017 -0.06832398029521959
v 0.41769606416797456 -0.5806418765684146 -0.07012075312936797
v 0.4705026229358006 -0.5015728044455686 -0.009489452242835358
v 0.4644989796069169 -0.5363260166520082 -0.03012303144882526
v 0.4514896442890495 -0.5600401397544807 -0.06259231243203739
v 0.49694217170625216 -0.4268680779625273 0.043909775672850725
v 0.48516276133803815 -0.4584527783056625 0.02049050467158967
v 0.47422482489844436 -0.4855429105212621 -0.0021476807312482797
v 0.521931590992201 -0.31420288926572604 0.12047071954311067
v 0.5141501215015295 -0.34647632436917314 0.10127689209086932
v 0.510563645145115 -0.3746566412086285 0.08065419081620528
v 0.5456359251749121 -0.21894663569519873 0.18504709312605905
v 0.5398560172380124 -0.25080491362553653 0.16526265313759889
v 0.5249679152531869 -0.2852421539426764 0.1351171129894864
v 0.5575607133023096 -0.18588404134320177 0.2074935704948534
v -0.008349872877203547 -0.029767573654104814 0.21206347388928354
v 0.017938315999037585 0.02760704411335991 0.26084059552054256
v 0.018201663638166284 -0.11518546188686585 0.1651899480989029
v 0.008270198130758116 -0.08724621082616074 0.1822000153424658
v 0.062239545907874505 0.015395318237097921 0.2527726821837397
v 0.11269849328829906 0.006074748575583941 0.2567660719008128
v 0.14536084786816625 -0.005988558894037037 0.2627304700793736
v 0.1844912810032317 -0.015099015327226307 0.25634235645936915
v 0.22813556907584973 -0.02749847513630809 0.2533622914243153
v 0.27408603439715823 -0.03829613762536876 0.25331702141111845
v 0.306595462651008 -0.04216993394743137 0.2637403868212293
v 0.3477120025246792 -0.051434490043763874 0.2607312461249562
v 0.3867485317728276 -0.06486480228928838 0.2572929139974785
v 0.43420047906254966 -0.07877032353466482 0.25552939795001156
v 0.5111804932322808 -0.09856390690077503 0.26428940795363487
v -0.016738690250483856 -0.0002239866487115166 0.22831388293725666
v -0.0005634585641122562 -0.0405661744235467 0.209927323024435
v 0.0035584898274347862 -0.07440216519080547 0.1854948208991728
v 0.01964163873503678 -0.12026840080209836 0.16320850116612623
v 0.047523698759675465 0.022680996524421102 0.26087038129740137
v 0.09482835039550849 0.006098467936644073 0.2580724069380957
v 0.13205630776893526 -0.0007580684936744245 0.2579577456879967
v 0.17929256964099002 -0.009567062159913141 0.26018056825794766
v 0.21696669487469838 -0.0168918617686077 0.2600702730632437
v 0.27142444958700607 -0.03160541023335503 0.2566205232242693
v 0.3174519226180027 -0.043301495406868624 0.2599022638713844
v 0.3449246164723125 -0.051676221148753844 0.2629580187306787
v 0.3637214354051724 -0.06241461031932344 0.2570131783035897
v 0.3927039592461251 -0.06985043354597609 0.25939167157165843
v 0.43815053473706667 -0.08047289364178098 0.25826179795171533
v 0.4900497593528397 -0.0932249182070663 0.2608908529018703
v 0.526253167881178 -0.1038541522781049 0.2587583520129808
v 0.04111466519390902 -0.1852468537099874 0.1222659349680863
v 0.13027205355053187 -0.49385454662678535 -0.07048560505212681
v 0.5630276247963144 -0.1613996729357492 0.22641960074510198
v 0.5288136074340435 -0.2712807646726583 0.15591667734442055
v 0.06476086836853824 -0.3001590192818567 0.05327979537944947
v 0.31993948218740986 -0.5494025274544238 -0.06938348121964295
v 0.4729360940262443 -0.5027315412253529 -0.009888830823099867
v 0.23685459522504893 -0.525975952619155 -0.06987624222794991
v 0.10957278450972992 -0.4268628049469831 -0.028208507486037933
v 0.5431061305279435 -0.2284507712282299 0.1842945267237636
v 0.48193767098347945 -0.09191611730799931 0.25616158833903657
v 0.4931072413694395 -0.4371622627584797 0.026346449743195405
v 0.5443395960524496 -0.23330645044694276 0.17419753838399757
v 0.1034695340315934 -0.4032790462714295 -0.014801664870741938
v 0.057976222816850095 -0.26624281123449917 0.07028962299040287
v 0.17201198744003932 -0.009063037841255842 0.25682791259262505
v 0.5605170682744395 -0.18461375852085052 0.20825967920553126
v -0.14739579463217092 -0.7708379294809151 0.15558304172543896
v -0.15440868178889036 -0.7584578880244212 0.1723594672320351
v 0.243124940667731 -0.9442803768501501 -0.3277018374247143
v 0.2808654922720219 -0.9591873169979938 -0.37631420866573145
v 0.2858212909715461 -0.9576631974549299 -0.3721131462749514
v 0.3379608506777644 -0.968175444135077 -0.4400168544454682
v 0.23186218852283355 -0.9432415952680875 -0.30892521746121016
v 0.26897595834056526 -0.9532696199278577 -0.3558767175799521
v 0.286940873645681 -0.9581475632525538 -0.3851493957198071
v -0.104896949421487 -0.8220717666065849 0.10612799101362631
v -0.080291708171224 -0.855033627734355 0.06069197408412868
v -0.04888231968027308 -0.866491199135115 0.01927915086810674
v 0.0018359290342624083 -0.8772444029386824 -0.040013291517719686
v 0.04600710964940002 -0.8938432715630739 -0.0973948963371362
v 0.15359376499508243 -0.5062270157479599 -0.10068569241850109
v 0.07898317103206443 -0.9026967033652448 -0.13678095996528775
v 0.11386551908213294 -0.9129683450035929 -0.17679343638611422
v 0.15329985767730134 -0.9205369371938189 -0.2233523892038068
v 0.153831228342921 -0.9193883498980481 -0.22386304004216154
v 0.21033922033988423 -0.934176584279796 -0.2856028264170323
v -0.12492471088171288 -0.8023491888657333 0.1261976432750974
v -0.10772398980170927 -0.8311399493017301 0.1011222994770417
v -0.09385167956964652 -0.849729533100748 0.07384789334549231
v -0.036048697482175165 -0.8721762387067792 0.00738492630054061
v -0.006119375559519276 -0.8798336355914915 -0.027173804563927068
v 0.008328861445183217 -0.8795027451268845 -0.05384398286999715
v 0.03566348390780851 -0.8940520902281301 -0.07958872690975467
v 0.04911251808450062 -0.8943798666523691 -0.1004377793942871
v 0.10593619724508084 -0.9083786208225456 -0.16484117832788825
v 0.15232494324106877 -0.915360576770085 -0.22288715385329902
v 0.1287822052311865 -0.49059421336751574 -0.07177353761200106
v 0.1820060546194295 -0.9314996848624298 -0.2576180457891134
v 0.2028393452378713 -0.9294817546969797 -0.2808372028072598
v -0.20274262529723158 -0.6566153684998467 0.25746527409560377
v -0.1932099119935965 -0.6161747536683724 0.2628667336597398
v -0.17788560541676704 -0.5728789542526831 0.2557513272530823
v -0.1733115815105081 -0.5234739508913128 0.2558374639426395
v -0.16291978231597792 -0.4872726362583044 0.26312840502486834
v -0.1550305747230941 -0.4507222159769706 0.2522605156827212
v -0.14030416233575305 -0.4057134689408168 0.25803878928846663
v -0.13697888331665495 -0.36895682307818156 0.2619377080370678
v -0.11687590210114052 -0.3296205952881448 0.26046086898437554
v -0.19160579315722884 -0.7048329003076097 0.2296625820300108
v -0.18698972696948335 -0.5871124137421313 0.2618029953471387
v -0.1925617351465775 -0.6167714186555071 0.25742240174170233
v -0.19387736680394127 -0.6918427495058709 0.23588160061876376
v -0.17731482658926495 -0.720935856757613 0.21339868150764382
v -0.16518546461125283 -0.744464045391945 0.18510361165659825
v -0.1477917153516355 -0.42608482047792007 0.26111223143772966
v -0.10707715759876224 -0.2831038899968352 0.25468545452194874
v -0.09590993474224972 -0.24360141964365606 0.26090703255149705
v -0.09267877835844332 -0.19786721140217045 0.25769162104793003
v -0.0726584253018636 -0.1575645443041278 0.2550120468131437
v -0.06791485963798913 -0.11554641871828306 0.26271828849750073
v 0.0803859047470861 -0.34013636582665574 0.029259280766456272
v 0.09704393107029556 -0.40148979203890744 -0.009645637795163028
v 0.1234447158379233 -0.4936313569051852 -0.06957233851236815
v 0.11513878139161655 -0.4693269719574865 -0.04740631791485872
v -0.11865670004292969 -0.31390530176530484 0.2623780363971308
v -0.09207433167616094 -0.21660786588549338 0.2623643490327027
v -0.10559104999732137 -0.2476493675627939 0.2579262417510046
v -0.07608349466993045 -0.1380330288843574 0.25470441135829436
v 0.06453267451964158 -0.2739892902092882 0.06723423645978402
v 0.1060163812230038 -0.43255664891267354 -0.02863726468306283
v 0.1193296485517844 -0.46844098140309015 -0.045070969315453256
v 0.3529235809572097 -0.5530298755780978 -0.33840276794420593
v 0.3922601487114542 -0.5697878389300002 -0.37616647848998286
v 0.3603810524030813 -0.9141553935107576 -0.45356949091312165
v 0.37280231221714283 -0.8810421966259939 -0.4465628160975458
v 0.3820086703677623 -0.8367270692257504 -0.45097879302131055
v 0.390224601469719 -0.794837292093046 -0.4517792242583053
v 0.40003783223395734 -0.7501978449523636 -0.45278224648093635
v 0.41478364434201986 -0.7119430252799159 -0.4496014872073517
v 0.4264869687028318 -0.6768564568101832 -0.45095919494123626
v 0.4398427879567026 -0.6252661440815159 -0.4577201150132609
v 0.4385234432386548 -0.5765773356470447 -0.43822691011385023
v 0.3207926888330173 -0.9699714348567037 -0.4247462306122194
v 0.3747188597446291 -0.8742206861801448 -0.4492590644404544
v 0.39392605234304484 -0.8039296203572387 -0.45443908026253765
v 0.38350124657040635 -0.8343025773311459 -0.45301440506999474
v 0.3729987457116322 -0.5669535644894405 -0.36719213319940774
v 0.4214586260744404 -0.7039375582061499 -0.45463497265995967
v 0.41005103966322687 -0.7413858960156122 -0.4562028774570799
v 0.44021433061507587 -0.6150482149921476 -0.4586561140885169
v 0.18326384345950067 -0.515494286410192 -0.1385550071764261
v 0.25746757538007675 -0.540715245876215 -0.2300720133130497
v 0.31372788275544916 -0.545829962048314 -0.28703103323685764
v 0.16176906153207424 -0.5120864320202263 -0.10993066748876228
v 0.21098086066311414 -0.51968524920158 -0.17067587600205403
v 0.2601193636616763 -0.5329189507095523 -0.22584244114143626
v 0.2804717601424961 -0.537983763717571 -0.255239712450805
v 0.2991380951779309 -0.5446695223406258 -0.27049386855680707
v 0.3252630592617384 -0.5519495838897571 -0.3047442608346339
v 0.009621847689822272 -0.09188743263017582 0.17889494842876272
v 0.03215606913619796 -0.1731410984400294 0.12680617218175014
v 0.021529701023501283 -0.14491982160676892 0.1426067532164313
v 0.05704110938710735 -0.2577679220722172 0.07850002887848956
v 0.04648574109341551 -0.2332309984621094 0.09539290774503174
v 0.07746106605577276 -0.3126186854642738 0.04347949413749574
v 0.0905076791320672 -0.37378964723898306 0.011142201585329787
v 0.009318143657207909 -0.1018033990386368 0.1732342934865064
v 0.020246226370524673 -0.13244281178822187 0.15038854724671916
v 0.03350257880801322 -0.17082313079693603 0.12773615287958617
v 0.041647017726937 -0.20842814211666738 0.11363664447198434
v 0.05076430830984444 -0.24262933610880946 0.08169239641299111
v 0.08254648191111624 -0.33220404844415863 0.033709523186057
v 0.08900426281588251 -0.36541636661054977 0.013377227665554513
v 0.0961653995142121 -0.4036121611665865 -0.011999676771087903
v -0.060261376364859856 -0.07344753628632811 0.26087160300457823
v -0.044218290071666604 -0.031060970541736392 0.2523920515442642
v -0.02163115914686392 0.01392615292960435 0.23781509097202522
v 0.0032727183273264797 -0.061433406878960144 0.19036527369719777
v -0.03656317409824808 -0.004077659128198081 0.25931199185363685
v -0.0084556655599576 -0.03227384377308309 0.21802316401988628
v 0.0010397663447716064 -0.05815694867035733 0.19560128147757724
v 0.021173758547217335 -0.13622443076967594 0.1483364707834088
v -0.010733710236311676 -0.02549109371624371 0.21933106327041424
v 0.07544360225511283 -0.31748211699976187 0.04110794737106344
v 0.08641660192034849 -0.3649437919586771 0.013854535888933447
v 0.2143894410858178 -0.9375989361076464 -0.2970911652606508
v -0.10948920292586001 -0.8134197553549313 0.10587235562502442
v -0.19566215400444115 -0.6222908339239142 0.26211523142565113
v -0.05682498936147044 -0.04989325642109753 0.25386679923724687
v 0.3766374444799554 -0.566178219755264 -0.37232951829471944
v 0.05840690730336351 -0.8990153733386773 -0.10649164603821626
v 0.2742516960033575 -0.9524416583750117 -0.36407254749289597
v 0.21700634367261457 -0.9379142719573037 -0.3010028624402448
v -0.055475411375618046 -0.06617358755233493 0.26115160206357513
v 0.15291681311234584 -0.5031541397863639 -0.09300305757121449
v -0.19943030850511373 -0.6230458623079084 0.2529605987488286
v 0.12562943443853541 -0.9114211801066798 -0.19335157650433418
v 0.1154292154540929 -0.4444213646628457 -0.037275117506344935
v -0.17571622028404238 -0.5039393980762626 0.2563565988675833
v 0.3047864359090444 -0.9602766151229547 -0.3969672566793968
v 0.3653519159351454 -0.560455714547005 -0.3578917832607636
v -0.1681016217228738 -0.7371217507209153 0.19508774736368398
v 0.2065933589242968 -0.933674138528545 -0.2821801153058181
v -0.07910539346530207 -0.1566703962856068 0.26270401517170794
v -0.1582994101425627 -0.7469288941018289 0.17791568881991573
v 0.15278000836080477 -0.5091310178484989 -0.09919224295185516
v 0.31205759927297094 -0.9628129548411459 -0.4042453466555817
v 0.026407611509744917 -0.15241930812060142 0.13573587056009997
v -0.08158319927234944 -0.1504841356672851 0.25945601506764954
v -0.09075517391388467 -0.20339411633662785 0.26353472984062865
v -0.1261761041159687 -0.3670495524543882 0.2541282626128843
v -0.12831882305354844 -0.3595329952917503 0.26015601266258875
v -0.004333830680814335 -0.052895858333120556 0.20034761785365496
v -0.06298957718004335 -0.09889533669348341 0.25801332810578276
v -0.13011818702827144 -0.3720826131200867 0.2592241993881428
v 0.13690835480414285 -0.9170925080627601 -0.19253802819783172
v -0.12197625578095549 -0.324281991836483 0.2579870020003713
v 0.4022458260729574 -0.7747920121847898 -0.4544774648110555
v 0.09390859135672552 -0.3787223621139706 0.0062764799756119104
v 0.03421212860003013 -0.1833408369683561 0.12466333127059416
v 0.15172053712762062 -0.5082819077170422 -0.09799489678587933
v -0.06418381318752574 -0.0956921160265229 0.2582487439887523
v -0.08514106600197764 -0.15486862075368554 0.26276816753992216
v 0.2515558411108392 -0.5300776464165533 -0.20641638019077033
v -0.1567283809817637 -0.45906492566038104 0.2562948437783694
v 0.3815414073321021 -0.849477417499868 -0.4541409683486058
v 0.43924014354721186 -0.6385431577816776 -0.4538757147444148
v 0.051619302524163545 -0.8902601697951769 -0.09576904835389939
v 0.37618767637128814 -0.8709092713404302 -0.4532316171550438
v -0.05225521218228547 -0.0587182757217778 0.2665439190921319
v 0.06307627853327495 -0.8976118272809371 -0.11296475921723678
v -0.13135256628258785 -0.7772644131337536 0.1488470845022257
v -0.0383757318891896 0.006740271918404343 0.2559413603823965
v 0.01886415697732755 -0.11395464446839951 0.1593012518157527
v 0.39092592818407906 -0.5664587641065123 -0.3824604012399854
v 0.25046853210269987 -0.5330866129786536 -0.21260574637426768
v 0.2759970754559496 -0.954363255986322 -0.37324666340373464
v -0.07985498669953749 -0.14360672644571765 0.2558670554126837
v -0.11944374204128616 -0.3158971167156613 0.2586934391444307
v 0.13359002387531518 -0.5036571741716378 -0.07660592276426859
v 0.05404153135595175 -0.2513270378100844 0.086075383552331
v 0.0764688969970492 -0.3119081249560853 0.040656836610612694
v -0.07598737302716287 -0.8597118324128245 0.04561239142174065
v 0.4200575056534545 -0.6857745356363224 -0.44892728815385535
v -0.092298501622756 -0.23562223830687049 0.26083029132007796
v -0.10637308141356318 -0.2421566228652942 0.25789185180172375
v -0.1024112836573058 -0.24712174846890433 0.26037408801164486
v -0.020538414013759464 -0.8714764227488795 -0.0037737490648414277
v 0.3808851817587085 -0.8398231309115877 -0.4545891114211429
v 0.2416074426749772 -0.9465014179943088 -0.325972198129945
v -0.02182827769424724 -0.8756237210614979 -0.01533598765103402
v 0.2091767927566117 -0.9361487510699324 -0.29645725123674194
v -0.17793300220603656 -0.7226907347513324 0.20457915013589273
v 0.35524296820124346 -0.9403473269712193 -0.44213445279792585
v -0.10975588949972648 -0.27479856716490797 0.2603008002445838
v 0.3882776552735798 -0.7991288018220993 -0.4563923562986878
v -0.16452783949179103 -0.5084216758530113 0.2578063560634082
v -0.104105992170598 -0.8288750072944316 0.09051540510020382
v 0.3827301124216983 -0.8341694154003989 -0.45013157749664745
v 0.10130497033543484 -0.9018955907528635 -0.1605288975557482
v 0.318157672323632 -0.5444041902879182 -0.28971262832507466
v 0.13714051358496857 -0.9164169305711708 -0.1926106041316608
v 0.4266840013499787 -0.575265441339381 -0.4279963632615379
v -0.10357660165992812 -0.26457454254921114 0.25796438120750725
v -0.13417844413696486 -0.3758482704466502 0.26249230355577946
v 0.30661620908950965 -0.958974835878097 -0.3960030911557817
v 0.004760883293777681 -0.07195755343133271 0.19242099208497013
v 0.439779151941591 -0.645932897478596 -0.46124387737471945
v -0.17501679533170522 -0.7223864805829007 0.21730573853680163
v -0.1522948337885679 -0.4530600082573286 0.25683171591440285
v 0.09679631727863314 -0.39443604558317485 -0.004975843014749232
v 0.12447113525338131 -0.49863227234585766 -0.06908252319958214
v 0.35799437145219026 -0.9116820206192283 -0.4469591921022505
v 0.04124504649383526 -0.1959741770348569 0.11675683010030445
v 0.04852579152690651 -0.24808766114025918 0.07945280335852588
v 0.4175459141893651 -0.565592868350849 -0.41355848705915915
v 0.36876094314440816 -0.8581384314142878 -0.4526242620614458
v 0.3743581489967363 -0.8423924773129338 -0.4468659645017752
v 0.12171860967659065 -0.4617787842484243 -0.03880450108159296
v 0.09915112515077729 -0.38433026667291814 -0.000175842376828128
v 0.34979514254396626 -0.5579298732328506 -0.3308390544785012
v 0.021196741007257953 0.9198379597911516 -0.057491069744424125
v 0.02246564635356193 0.7887520348287469 0.09936302028939244
v 0.07257674886535981 0.9053114915610453 -0.06688314437518174
v 0.048233683589292656 0.7495036419581175 0.13384994221662966
v 0.12625574055943334 0.8967878552962463 -0.06280603521169575
v 0.16743784390275254 0.8826217125044843 -0.0630964497447643
v 0.176031170953397 0.6527892299998578 0.21040718318437396
v 0.20716448770722176 0.865718699925373 -0.06766289281589705
v 0.23866328636498738 0.8615362052736418 -0.06460661306247006
v 0.28944384315766986 0.8501653311406794 -0.05853463615731388
v 0.009139917484369068 0.9218291370734414 -0.06106272846410969
v -0.007922806964873198 0.8455347464268579 0.04069902763878174
v 0.042668700044394346 0.753295613879833 0.130076323528263
v 0.08114318090008193 0.7001269427126998 0.18053228881920344
v 0.1035647398396654 0.8881343114571912 -0.0617648019113592
v 0.15433334885363012 0.8770840391026994 -0.059794375000617773
v 0.19047658838384457 0.8685776119656646 -0.06262617527432962
v 0.2792660384751759 0.8456752223008526 -0.06462356157853129
v 0.21392769705480993 0.666668149149668 0.17065905373152876
v 0.2867586802925587 0.7098761142366599 0.09885387913438244
v 0.32814917042661457 0.8316209634823741 -0.0654148768823501
v 0.3676546439095149 0.7560379087056444 0.01597708201583197
v 0.36454031665648123 0.8263761426969012 -0.0700844739372765
v 0.20074593713800395 0.6611305980597804 0.19597677922553852
v 0.23223123561177095 0.6768802302848486 0.15386227469638628
v 0.3137765066804703 0.8364618850305361 -0.0641416322910198
v 0.3853204509758777 0.7672497307256706 -0.001051435678193315
v 0.3015723999106385 0.7181531466322182 0.08538430464975805
v 0.39432567980786465 0.7710246694200396 -0.011715837804890975
v 0.30927324747883117 0.7228091543937325 0.07332066058152756
v 0.4157537266916703 0.806915388130088 -0.06340987892523213
v -0.011840067491204795 0.8440044759896509 0.04169330156258119
v 0.012906821774255853 0.8059898926982673 0.07439541551406435
v -0.028640569396930493 0.9373709814212663 -0.06137774325206066
v 0.027245918000247595 0.7843362626863427 0.09759604783223542
v 0.19538142346914739 0.8664302975383696 -0.06215110561245672
v 0.04669153025962453 0.750595118464923 0.13259164684809294
v 0.2246756110651604 0.6772147912994103 0.1619612922711391
v 0.16985502745272482 0.8804270594275055 -0.0635116914924547
v 0.15240785876575155 0.883912451683656 -0.0574221366374965
v 0.31235928961692494 0.7215665039386728 0.07873888449841007
v 0.04175876082232088 0.7601816196476914 0.1253870975836754
v 0.018672967015018672 0.7887733898258872 0.09666038820477857
v 0.10879371716629627 0.641710005114673 0.23797082725692392
v 0.38724047955218255 0.7635510941670125 0.0008422562890805329
v 0.40914443756372676 0.7794906128659823 -0.02798288319957898
v 0.2859274416407488 0.7066484624611068 0.10290733648830074
v 0.2919094139888747 0.7157348596805779 0.09922212907417415
v -0.027849572126420648 0.8802730978846344 0.004509668306465072
v 0.3105121307696235 0.7223222884655777 0.07865830243178294
v -0.031224972056144662 0.9297804692489627 -0.05861097407544288
v 0.24942404875672472 0.8536815725741278 -0.06308291550341959
v 0.03861886536884802 0.7728960326153398 0.11103090044740764
v 0.047333955687556196 0.9118410220864717 -0.06249879555471635
v 0.13542725777272244 0.6312894216150061 0.24582907237760998
v 0.3978334100212887 0.8164237034090858 -0.06308183941211233
v -0.00038541029269135063 0.8330551574154423 0.06029431667538893
v 0.07943633698325059 0.9066149497658818 -0.06091198196183811
v 0.2995373708702641 0.7173840189449914 0.08073924422320923
v 0.07014987721017593 0.902015022729495 -0.057998334955184555
v 0.06658825910130338 0.718444808379338 0.1683698408312929
v 0.3052900448237815 0.7236162708474553 0.08658366784742876
v 0.42047679884584427 0.8106055332179268 -0.06056571705345584
v 0.2093326958913699 0.8683844963624472 -0.06290055726826761
v 0.053148128598435235 0.7341321925887792 0.15710775809352323
v 0.33908042026565693 0.8297945882623214 -0.06346739317381345
v 0.4288406108056773 0.7856646825394719 -0.042269154599782546
v 0.09115665533267171 0.6786848240417516 0.20660624853144302
v 0.18480564549484263 0.870456204582133 -0.06250797827245867
v -0.0008178444812826499 0.9196699782347374 -0.06106903562923261
v -0.03539428074538926 0.8769677268838826 0.005564192159055839
v 0.3357486919182953 0.8257238964784003 -0.06230343456107401
v 0.04250656003162373 0.7565370066949492 0.13154131456202614
v -0.007177781277535706 0.8428491507419298 0.041309859813570965
v 0.279442481652592 0.7035171724084358 0.11082478588942621
v 0.0042322249082438045 0.9201961864261969 -0.06164138220368785
v 0.29316212261536373 0.7134174142336484 0.09266303721240618
v 0.24286806262422952 0.6831950256002284 0.14801429375120684
v 0.10890821078636888 0.6445485293668857 0.24466434214564345
v -0.0401216063963411 0.9040203224414545 -0.013655262445168365
v 0.08242798498162147 0.7074676443688214 0.1841169314278767
v -0.057295036286350055 0.9228291623295178 -0.04130313476697238
v 0.0291290696307285 0.7780081199960645 0.0990363697729306
v 0.11958942895691753 0.8854462075223031 -0.05759926890358215
v -0.021000133482893167 0.9347127273295757 -0.059882399155570254
v 0.2508200792703884 0.8572898501069107 -0.06462201523979691
v 0.12501157974901067 0.894680535610719 -0.05672169718869739
v 0.11808511231873497 0.8940679039606662 -0.06115176472194738
v 0.20915359066806072 0.6671955430499904 0.17524462596657112
v 0.34803678574650704 0.7392823682378807 0.03839683259016743
v -0.003005890288648211 0.8341929372198053 0.04489497190535716
v 0.2757867336370177 0.7026712457664807 0.11773132639493028
v 0.16280663332389606 0.6416167643156218 0.22513987970471774
v 0.282536190210226 0.8458288704943082 -0.061606805763616004
v 0.21889534483945483 0.6735566606291282 0.17077565832511388
v 0.3700028882614455 0.7590523561106304 0.018153331201164087
v -4.917338391458514e-05 0.9246288021884386 -0.05829269173212322
v 0.08865795753232149 0.9023100546524334 -0.06311950148703131
v 0.3374956029221434 0.8311262505744945 -0.06227965843577796
v 0.05911140052964197 0.9025081758299838 -0.06092080019256791
v 0.3814128441455871 0.7640503483439953 0.016407466337118683
v 0.22463568244846022 0.6771274130726506 0.16435475280006218
