v 0.7649042010307312 0.5577818155288696 -0.07101527601480484
v 0.5981054306030273 0.7885056138038635 -0.2491372525691986
v 0.4247184097766876 0.6538673639297485 -0.07101527601480484
v 0.8096757531166077 0.7309297919273376 -0.26366180181503296
v 0.42110276222229004 0.4701916575431824 -0.11346566677093506
v 0.7080655694007874 0.36636513471603394 -0.13718560338020325
v -0.20751707255840302 -0.6746922135353088 0.2576292157173157
v -0.39702269434928894 -0.7712599039077759 0.07269883155822754
v -0.08569852262735367 -0.8565145134925842 0.06503929197788239
v 0.4502878785133362 -0.5830215215682983 -0.4545057713985443
v 0.12728337943553925 -0.4992296099662781 -0.06854663789272308
v 0.34468042850494385 -0.9723113775253296 -0.4493333697319031
v -0.029532309621572495 0.041886381804943085 0.25887006521224976
v 0.12515044212341309 0.6223376393318176 0.2635591924190521
v 0.4545278549194336 0.799584686756134 -0.06696620583534241
v -0.06929599493741989 0.9417712688446045 -0.05890717729926109
v 0.5771218538284302 -0.11548835784196854 0.25887006521224976
v 0.6939597725868225 0.3154250979423523 -0.04519236460328102
v 0.4502878785133362 -0.5830215215682983 -0.06854663789272308
v -0.41092902421951294 0.792140543460846 -0.1759788542985916
v -0.35635218024253845 -0.16533689200878143 -0.05262445658445358
v -0.1270703375339508 0.7185028791427612 -0.05262445658445358
v -0.6497184634208679 -0.08923313766717911 -0.1801193654537201
v -0.41092902421951294 0.792140543460846 -0.39823612570762634
v -0.3397507965564728 1.0548590421676636 -0.39478781819343567
v -0.8047460317611694 -0.6614437699317932 -0.417332261800766
v -0.6497184634208679 -0.08923313766717911 -0.4098218083381653
f 1 2 3
f 4 2 1
f 3 5 1
f 5 6 1
f 7 8 9
f 10 11 12
f 11 9 12
f 7 11 13
f 11 7 9
f 14 15 16
f 17 5 13
f 5 17 18
f 13 11 17
f 11 19 17
f 5 14 13
f 5 3 14
f 3 15 14
f 15 3 2
f 20 21 22
f 21 20 23
f 16 22 14
f 24 16 25
f 16 24 22
f 22 13 14
f 13 7 14
f 21 13 22
f 13 21 7
f 7 21 8
f 21 26 8
f 26 21 27
