v 0.13669811189174652 -0.7605920433998108 0.021017247810959816
v -0.11399833858013153 -0.9892616868019104 -0.12912943959236145
v 0.39830589294433594 -1.0003801584243774 -0.1300797313451767
v -0.3573652505874634 0.22273196280002594 0.16459739208221436
v -0.8655871152877808 0.7636534571647644 -0.14257611334323883
v -0.8821222186088562 -0.30628442764282227 -0.13521131873130798
v -0.47577589750289917 -0.28936898708343506 -0.13303515315055847
v 0.0633828267455101 0.2184651494026184 0.16459739208221436
v -0.10962702333927155 -0.7550138235092163 -0.12018715590238571
v 0.14396017789840698 -0.5327507257461548 0.0217814352363348
v 0.146352156996727 0.13389642536640167 0.2131194919347763
v 0.7285336256027222 -0.7806717753410339 -0.12095687538385391
v 0.7562822103500366 0.7321987152099609 -0.1356009542942047
v 0.14277972280979156 -0.20764677226543427 0.21191266179084778
v 0.400776743888855 -0.7661322951316833 -0.13135312497615814
v -0.40327519178390503 -0.7508485913276672 -0.10136179625988007
v -0.4829030930995941 -0.7470313310623169 -0.14813533425331116
f 1 2 3
f 4 5 6
f 4 7 8
f 7 4 6
f 1 9 2
f 9 1 10
f 11 12 13
f 11 14 12
f 1 15 10
f 15 1 3
f 14 7 16
f 7 14 8
f 14 11 8
f 7 17 16
f 8 13 5
f 8 11 13
f 4 8 5
f 14 10 12
f 10 14 16
f 10 15 12
f 9 10 16
