v 0.14277972280979156 -0.20764677226543427 0.21191266179084778
v 0.146352156996727 0.13389642536640167 0.2131194919347763
v 0.7562822103500366 0.7321987152099609 -0.1356009542942047
v 0.7285336256027222 -0.7806717753410339 -0.12095687538385391
v -0.8655871152877808 0.7636534571647644 -0.14257611334323883
v -0.3573652505874634 0.22273196280002594 0.16459739208221436
v -0.8821222186088562 -0.30628442764282227 -0.13521131873130798
v -0.10962702333927155 -0.7550138235092163 -0.12018715590238571
v -0.40327519178390503 -0.7508485913276672 -0.10136179625988007
v 0.400776743888855 -0.7661322951316833 -0.13135312497615814
v -0.11399833858013153 -0.9892616868019104 -0.12912943959236145
v 0.39830589294433594 -1.0003801584243774 -0.1300797313451767
v 0.13669811189174652 -0.7605920433998108 0.021017247810959816
v 0.0633828267455101 0.2184651494026184 0.16459739208221436
v -0.47577589750289917 -0.28936898708343506 -0.13303515315055847
v -0.4829030930995941 -0.7470313310623169 -0.14813533425331116
v 0.14396017789840698 -0.5327507257461548 0.0217814352363348
l 11 12
l 6 7
l 6 14
l 8 17
l 13 17
l 1 4
l 7 15
l 2 3
l 11 13
l 10 12
l 8 11
l 9 16
l 5 6
l 2 14
l 10 17
l 4 10
l 3 4
l 15 16
l 1 9
l 12 13
l 1 2
l 5 7
l 14 15
l 8 9
l 3 5
