v -0.48010651350207345 -0.7414574138994796 -0.14528217920208697
v -0.48145588297899 -0.42498710745768414 -0.1400032050766939
v -0.0390181061401073 -0.38554810185444865 0.10516832351693285
v 0.14584405932275296 -0.06316127294648312 0.2103495906321307
v -0.4794938490262012 -0.571340142769156 -0.14297818719393976
v -0.28940430759543556 -0.11209728360943136 -0.038637822076452936
v -0.46326621518933114 -0.27809340444532193 -0.1292715838812223
v -0.10360712189135388 -0.45324620543172656 0.07286327783538188
v 0.037185019175374714 -0.3130289739104781 0.14862201590374183
v 0.09809298744501803 -0.24845402028518707 0.18312018026272447
v -0.2286898637292243 -0.055337221137851354 0.0029634124246505455
v -0.39259618669370083 -0.7505036403740125 -0.10007345254472934
v -0.09693429207007881 0.061450994647139476 0.07574611615135303
v -0.419026147864547 -0.23771530807127614 -0.10286779826636967
v -0.4831639864041223 -0.6622050750436478 -0.1432249469234269
v 0.01950874831167748 0.17565414249817668 0.14355333305351767
v -0.1849675741840748 -0.5379552959510757 0.029069919206242578
v -0.4801976280514509 -0.3586535399882218 -0.1381757255098297
v -0.33812599738505694 -0.6892797301361119 -0.0675972614966878
v -0.24735974688731316 -0.5904705049568872 -0.008526244824259347
v -0.32877035118191544 -0.15750592076839837 -0.060130724324370985
v 0.1470232789090024 0.01789053143330882 0.21709365437389783
v -0.4771212768383763 -0.49579834052647914 -0.13945784817031479
v 0.14520241627106667 -0.1377177264447612 0.210884057029672
v -0.06659176945476497 0.0967249181352317 0.09228926898000225
v -0.48199840267345523 -0.6903968656142706 -0.1474287297151918
v -0.27528828702091074 -0.6180396850385086 -0.025914591476712073
v -0.0028777463453093467 -0.35474022539864536 0.12660832787805434
v -0.06814548477221097 -0.41834770794792075 0.09041069465678864
v 0.09972922384376122 0.18034737721144908 0.18336540948752522
v -0.20912282773857505 -0.565618850898339 0.00898739911129414
v 0.14224957440877908 -0.18180493940496764 0.20942787460677037
v -0.26541718321729246 -0.08675523153763214 -0.016474846196449826
v -0.29978775493785303 -0.6509166510062198 -0.03972348934115891
v -0.1355533785269738 -0.47739634155739813 0.05471429457741822
v -0.43367834543756845 -0.7529951355990664 -0.12176805740768691
v 0.1440138423592081 0.1399857306993679 0.21011852647700807
v -0.38113648533811645 -0.2048769968125169 -0.07878451460559169
v -0.4847940926153039 -0.617118080848144 -0.14302084727889852
v 0.1457875743668229 -0.012563305714109893 0.21365738981009322
v -0.36529703962182103 -0.7144461110369208 -0.08176813999772767
v -0.20102794991809056 -0.029218737045616623 0.02361619264343405
v -0.32214040370961056 -0.14263564107801763 -0.04229708723616726
v 0.13990531903649941 -0.10215117654674519 0.2106823595673499
v -0.1635225789133456 0.00840104172816717 0.040583028188260484
v -0.4827407744220434 -0.38875061386846455 -0.13901760195394725
v -0.4787869685734826 -0.48432268942974716 -0.1396556151898406
v -0.44711724565459204 -0.26162961459125944 -0.12284565497862386
v 0.12594085214427786 0.16246407883790492 0.20310447376795046
v 0.14534550240217217 0.07051612738145895 0.21178445170445323
v -0.477431422059035 -0.5544360352747868 -0.14417748363243849
v -0.4733915327464035 -0.3249592544307864 -0.1356944597762462
v -0.47448905010679693 -0.4658881312807183 -0.1323089996743568
v -0.39917090325992266 -0.21794980731900862 -0.08995807170067428
v 0.07872085929651654 0.1974540705129164 0.1723694437896746
v -0.27228958412233467 -0.6267149359272502 -0.031132125170014985
v 0.07785263096335827 -0.269706006647355 0.17602086664445188
v -0.1333909235944896 0.03180308123094605 0.060254844143324285
v -0.4860108723748863 -0.711820466932249 -0.1431318595300232
v 0.0009179976441077327 -0.349120488712876 0.12938602106627722
v -0.3578819412561515 -0.17803707743972133 -0.06919371587024878
v -0.47891266926911563 -0.41718242175066744 -0.13910443942144105
v 0.0024063634404443745 0.1667187108273202 0.1292843445191469
v -0.2712592267992717 -0.09043155013954346 -0.018485259555221775
v -0.1131748235386147 0.04930959942258744 0.06451769639899751
v -0.23632349087894683 -0.5882443957957496 -0.0043493321627217744
v -0.4812201068452267 -0.647736303729851 -0.1417065274340762
v -0.0991289136814532 0.07304827393396482 0.07296524220312911
v 0.14883080209377944 0.10371152407889547 0.20771779017346367
v -0.19256213275787543 -0.5468101024201211 0.018730386201692484
v -0.04009905943579694 0.11269193646724379 0.10399296922247737
v -0.030444511318439466 -0.38422279153918276 0.11298871097054201
v -0.17139351685329385 -0.522450964566793 0.02955768426038571
v -0.20873357972568152 -0.03700371125706059 0.015302276540413495
v -0.4721242105809826 -0.5179071060683621 -0.14210355217855347
v 0.14828702366435328 -0.07720506623700811 0.20783823553788083
v 0.14224955288940175 0.04094987715187197 0.21318359291746275
v 0.02739414943025996 0.18348878074570737 0.14233050457468152
v -0.2968773861844199 -0.12719389337064035 -0.03600956835802842
v -0.31605516781994625 -0.6623401978420741 -0.04999167952692015
v -0.08655546186855488 -0.43700449244848555 0.08276007937020377
v -0.2509909957983513 -0.07180148263920176 -0.0034618202232028156
v 0.14838454212455945 0.021927954318636995 0.21223490790737026
v -0.05721527528690279 0.10191163321125929 0.09703435389655737
v 0.10383443937716585 0.17003020872250604 0.18974855551477407
v -0.0242021693484863 0.13574753896684486 0.11564724658327082
v -0.05415689905094788 -0.4025726418446342 0.10306728249020457
v -0.21716191117430117 -0.5671715389174574 -0.0007739954650590845
v 0.14001067846085452 -0.039752649347643255 0.2112624034920909
v 0.017870535762921465 -0.3348531908854925 0.13854434816075234
v -0.40104574399297144 -0.21744080467168056 -0.09063972512409928
v 0.06336018525648048 0.2161756058449352 0.167127823481659
v -0.48313831259650514 -0.6731941480129712 -0.1447661494216209
v 0.14562688679196995 0.04909144001441277 0.21528040948896324
v -0.43546308998384925 -0.25023816614169325 -0.10961014084425535
v -0.2918149198492375 -0.6303489993328261 -0.04069101640263397
v -0.47415522275162414 -0.31210613943676513 -0.13270665931278128
v -0.3228041584787463 -0.6636151423211586 -0.04854615653782712
v -0.011106252091082559 -0.3665136879475753 0.12100950166030275
v 0.12049421144007265 -0.23131033824614164 0.194892456138089
v 0.06329373536476825 -0.28110208524825264 0.1658074383032845
v -0.17633105384516862 -0.0013828662557112447 0.03275632694904339
v -0.3785393938373695 -0.19428476988723786 -0.07998336003744
v -0.15353287296511467 0.01820267467889162 0.04815955929439456
v -0.3407266489629343 -0.1642375706458348 -0.059029288927015415
v 0.10497536844469366 -0.24290557072269642 0.19678530561883661
v 0.14363274055326342 -0.18664924303066985 0.21290235697172627
v -0.1498991033829148 -0.4974599406291869 0.03493862020114225
v -0.11420310017191501 0.046332550552386005 0.06087407770064536
v 0.11897545850785682 0.16307310369633607 0.19970366773020276
v -0.43596010136902075 -0.7466403605435962 -0.11423999221291634
v 0.14781811257031954 -0.12760075034901613 0.21172676506813728
v -0.24397780771405908 -0.0603335914409463 -0.001490828758602698
v -0.021348190440747768 -0.3660962998520313 0.12100559049276866
v 0.020789395009590293 -0.3263699364710588 0.13984572249380808
v -0.48416047392071887 -0.43973881844172813 -0.13155940502601987
v 0.1494181730401759 -0.03763503084776697 0.214774888258776
v -0.19379178741619432 -0.021375062806349425 0.01984932195958628
v 0.1465793081202736 -0.09097353371300658 0.2118904637635504
v -0.2508718961999216 -0.5998219371907548 -0.02209508757704043
v -0.48332083732252495 -0.6219125912637141 -0.1423348525729718
v -0.47744832212860866 -0.35336324231744193 -0.1367187923601262
v 0.0914997467900726 0.1928297426042371 0.1792521785764711
v -0.18071447782222866 -0.01121068306830833 0.030900583552139694
v 0.14630753633087507 -0.15997008298310159 0.2100847240659348
v -0.12515514108034392 0.04409762102864869 0.06291336711599961
v -0.39021941624806283 -0.7342099905839496 -0.09742846963445355
v 0.14397369858270911 -0.0035645066355930915 0.2116128233275121
v -0.38144645582902187 -0.7264452154878903 -0.08624179140508012
v -0.4002812910578985 -0.7466541499677298 -0.09873893659597077
v -0.07730781656364763 0.08449624177754778 0.0852262789366354
v -0.054952700526418735 0.10452124892700276 0.10407014261522612
v -0.48330968055829027 -0.5513770804212602 -0.14172013466119204
v -0.09258048963379936 -0.43582907068974963 0.07844822600413305
v -0.09781555248657575 -0.45262911005068346 0.07549698676577796
v -0.24654074175908572 -0.5982920248952268 -0.009142959534529187
v -0.21088983721080032 -0.559313421270782 0.008283932372747155
v -0.35268348996847865 -0.17229537477741771 -0.06646850030992732
v 0.1481989960461319 0.04686103501725504 0.2119193615118781
v -0.03769429509072383 -0.3885719798895386 0.10863596803401446
v -0.476263944062702 -0.32990076681542496 -0.1363011879407292
v -0.22883980837818635 -0.579986815151499 -0.0013604899025848845
v -0.47904526980833445 -0.6944049203810801 -0.1395774187100167
v 0.03703833130136499 0.1914716579697012 0.15226762765196353
v -0.4583861589592941 -0.7509567477795975 -0.13598246963555966
v 0.11755690979607787 -0.23015552942129394 0.19987424869408613
v -0.45503114006019324 -0.2713139602981568 -0.12200569924319021
v -0.3609794168556081 -0.1788717575146389 -0.06801797655381328
v -0.1439961685608623 0.026428240737639833 0.046047690993048174
v -0.4770051422303373 -0.39726031734587436 -0.1372433083654127
v -0.36965472312177844 -0.1925471628156709 -0.07354923980369193
v -0.18596604835884517 -0.016344476340414874 0.02631196217610077
v -0.2582042604070291 -0.09108743722779 -0.01803261797960902
v -0.48327328850134654 -0.6084726101756004 -0.13877465660730917
v -0.308477365986568 -0.13047079513518642 -0.04364386161812162
v -0.47446686388326975 -0.588998440339761 -0.1414544769728389
v -0.291540144880989 -0.11019108753498946 -0.031104644449948777
v -0.03347948817124933 0.11929038025025447 0.11153455054857618
v -0.09158165996090485 -0.4240844101368604 0.08310110913334931
v -0.09750221071441689 0.06244954313711623 0.07067933971532393
v -0.2281106326212751 -0.5722485172144531 0.00233463959219313
v -0.015458901647468009 0.14691706145886244 0.11539440652510985
v 0.1467020072003833 0.11671676355798438 0.2121919450017427
v 0.14199468180315386 0.06025721991024833 0.20759836034651832
v 0.043292478030351265 -0.3094045052603034 0.15637025530814608
v -0.4717410864261677 -0.30140869217454913 -0.1362399952924248
v 0.14201561855357692 0.1000296679136093 0.2164412039172194
v -0.480953134624257 -0.39407915502571234 -0.13676292414642038
v 0.07588043785909074 -0.2720766241306853 0.17410085748791138
v 0.0347083921669119 0.19369468656343192 0.14166500224450085
v -0.26679445026087817 -0.6135991874182565 -0.02365452554908317
v -0.4213851939113138 -0.2414286171745773 -0.10437567763923279
v 0.14302765861046174 -0.13617119194004432 0.21647237612113218
v 0.14759227403059547 -0.05273246940576369 0.21556675863203595
v -0.34204554574735513 -0.6969239830532504 -0.06929470736813197
v 0.14623238449880657 0.11369308771514955 0.21456080020586848
v -0.11948762039015952 -0.4730258669283832 0.06031511755888624
v -0.047521222356721106 -0.39783928278416986 0.10046173957682619
v -0.2916646280191553 -0.6467643265385976 -0.037059383992464404
v -0.2770215484074836 -0.10142051070075937 -0.017274092259951804
v -0.2956652375138711 -0.6479389804213851 -0.04026017444003313
v -0.015429088150875823 0.14749060738461173 0.11766004945221155
v 0.09432198775701098 -0.26120698382690627 0.18343651752541362
v -0.47952302688132636 -0.5570033680770925 -0.14251491614385461
v -0.21957816438413566 -0.04591498058013218 0.012353386829783111
v -0.4735373890627989 -0.4655974104775683 -0.13627112079734424
v -0.10822641194356335 0.7542024528682888 -0.1437182100502215
v -0.27771903094327827 0.22373748162578816 0.1732297384026759
v 0.14800932503709335 0.7441168306679076 -0.139296487136694
v 0.4947893265624001 0.7408221240634275 -0.13158038351168952
v -0.5690824866155068 0.4536107411297778 0.03558272264335943
v -0.6509605281772018 0.7547340808537595 -0.14231421912136544
v -0.302410152821491 0.7485233676244275 -0.14040481310654937
v 0.44094003862179604 0.4279308413410093 0.03893821555262018
v -0.6846827965907781 0.5722119338346732 -0.04562201088347904
v 0.32774247105259674 0.7353172319594721 -0.1394914767525242
v 0.6478762717695838 0.6289137160547537 -0.07432618371661473
v -0.4824461002969567 0.7567535110915196 -0.14384550640532098
v -0.4959523469100292 0.367201198392244 0.08507605994794858
v 0.6068327606957137 0.7408423349640403 -0.12867247670431076
v 0.08072207214960654 0.2037924214112388 0.16942739205817547
v 0.5066846091726662 0.4885176973148914 0.005969031048062415
v 0.3850327664308501 0.37241010676167496 0.0772447338092635
v -0.3990616248871632 0.75258017461167 -0.14127689128664658
v 0.26446093927627073 0.2563636373117804 0.14356378657765262
v 0.23106783216961918 0.7413572591175187 -0.13902626262719545
v 0.4091301957890294 0.742381990907035 -0.1355569796839029
v -0.7311052401465894 0.7590776533327286 -0.14235006669275155
v 0.5951598438420562 0.5727736781072351 -0.04671427180336353
v 0.6796582863855891 0.7322571902338637 -0.13512196081905864
v -0.03880531424509795 0.7470458311565167 -0.13676732351027954
v -0.1846638237125852 0.7536701993607459 -0.13808253007960417
v 0.5515692919839268 0.5310663597117004 -0.018705715178384544
v 0.08035868209239481 0.7407651423820051 -0.13625396103492293
v -0.6353467124473955 0.5262217029015324 -0.002626908802799861
v -0.3696103832885541 0.23426095018879906 0.1601652723241347
v -0.5632544725627977 0.7531631327158897 -0.14594910826494778
v 0.12185490956099455 0.15982395822300358 0.20241143055692853
v 0.5512921397681609 0.7342704163275775 -0.13679968658717145
v -0.5386732479209834 0.4124214987175821 0.05725487495216078
v -0.8076449275824269 0.706302765685689 -0.10678488700270396
v 0.03321835259224542 0.2256578581911246 0.16298068404680824
v -0.20361233912113602 0.2212982446471635 0.1680771982182081
v 0.018702597901917594 0.742025590029557 -0.14297302370990006
v -0.01696221036438362 0.2194293986881349 0.161021334794808
v 0.48137904290016154 0.46374169494828604 0.023574011855837324
v -0.255597047963395 0.7476236630592332 -0.1377359589485225
v 0.19178391830616948 0.17957816880116304 0.18830630767317713
v -0.4653771527170869 0.3361677897387538 0.09986320185305828
v -0.15354462274730382 0.21873823309039347 0.1648210655446808
v 0.275571969755018 0.7404226971773604 -0.13524524529926332
v -0.6116490253310256 0.4942287570637017 0.007634506546981119
v 0.3083260826092245 0.2991942854161598 0.12266799188494691
v 0.4016109174392399 0.3868454120450161 0.06326983593325777
v -0.10003519454755898 0.21907319002777878 0.16794383334395702
v -0.3544950508497199 0.7531966682144401 -0.141375430507764
v -0.4413396657684246 0.753897101613956 -0.1399737680126398
v 0.3556509565824279 0.3388844927852653 0.09374496036558087
v 0.4508496480054931 0.7329202185104082 -0.13698264843242547
v -0.5274163097801565 0.7595435742683716 -0.14031021673951882
v -0.32209391750060873 0.2233112518584656 0.1629433477381314
v 0.18900547527718647 0.7434342866222788 -0.13811444630375105
v 0.20829842483415578 0.20339280955737407 0.17265039491703296
v 0.5719109480076303 0.5530962499729999 -0.03144866425802625
v -0.6570503562564011 0.5511210951641812 -0.018482726196266338
v -0.4323385917910386 0.29826490718157583 0.11913590460751569
v 0.3748389583674027 0.3624488258056334 0.08379528543535619
v -0.06864080968502462 0.21715994382515533 0.16002114442364437
v 0.24322723411960728 0.22894569376823617 0.15791603135026386
v 0.13544948333583295 0.7419528109015772 -0.14417059108396543
v 0.04420013073153137 0.744256648306001 -0.13608197063860822
v -0.5254900347475353 0.3960690332714231 0.0660252408339559
v -0.7490655398034718 0.6395438647670764 -0.07389397417555443
v -0.21342826426398676 0.750640579740508 -0.13790983204391036
v -0.5797768218245246 0.7542387247221635 -0.14334700288138888
v -0.14854824359213425 0.749957637989261 -0.14028181293460779
v 0.6160713524746737 0.586169858443994 -0.05642394980400535
v -0.2412802610502881 0.22039332404706677 0.1603883796684782
v 0.6701023816571158 0.6487856731812818 -0.08769767041397239
v 0.08549201505580892 0.7411885191878487 -0.1401969402974398
v -0.812023303747493 0.755902689248225 -0.1384026474633721
v -0.050951993603718236 0.7477896955784569 -0.14050062517152123
v -0.6129512730170573 0.7600972039540673 -0.145421776119459
v -0.553049148989594 0.4376435384028695 0.03764094048108944
v -0.01950800827749256 0.7458878152136474 -0.14100976764846607
v -0.07126153943902433 0.7464011912453653 -0.135056591613052
v 0.16371605901352715 0.7464507335558063 -0.14044958429536042
v -0.7155588827551476 0.7615871840889697 -0.1418797203148592
v 0.37168471355056587 0.740983065948942 -0.13782668657086813
v 0.7085429156166292 0.6873239283223535 -0.1115590343078303
v -0.490819441581327 0.7548967484492467 -0.1382119736980707
v -0.11694974592612707 0.7456738069791905 -0.13897981664084955
v -0.2907367122247921 0.2222952217440182 0.16095538755471261
v -0.7549331075800757 0.6489051074766767 -0.07742307240596621
v -0.4081477011751186 0.2691377789808736 0.13942594775598652
v -0.7134175159350088 0.5963678133812349 -0.049349010885800584
v 0.10400850908518984 0.17917136241293766 0.1877057532405328
v 0.4376274580498161 0.4127975798694892 0.053434592649957195
v 0.4736346300682833 0.4538394492702447 0.02938235656938127
v 0.2535687589293052 0.7453124247951453 -0.1408571220918246
v -0.18879817966546628 0.2212855528496209 0.16514707653022093
v -0.599333044793285 0.48905820773049874 0.014890823764414182
v 0.5628709707481137 0.5428524793381829 -0.030165787999018277
v 0.0563789515022154 0.2251358539007923 0.16503719088171936
v -0.12884832588335715 0.22170074790100155 0.1665580258135358
v 0.3081070774511274 0.7447026462258693 -0.13733956352704874
v 0.6937601956605648 0.6653470640128436 -0.0940665215138002
v -0.6409835962208982 0.5141165287782395 -0.004547964239460921
v 0.7123075151379649 0.7320774038411333 -0.12741308859223224
v 0.17781240299487192 0.1658473517926634 0.19310163563138003
v -0.2915956499278968 0.7575410223742495 -0.13793859561115912
v 0.6535051813426765 0.63220934063109 -0.07465566284520203
v 0.618268209285812 0.5934707375569677 -0.051442078981313866
v 0.5770953924034156 0.7348032503578041 -0.13809952270283204
v -0.3812312394579894 0.2517639576970657 0.15115885014512578
v -0.6811418598164936 0.5724520811646919 -0.03400084053340707
v 0.5269290475759297 0.7363779063968039 -0.1326961518210782
v 0.40041189364510776 0.7376966856599917 -0.1328191839944169
v -0.41088411854438467 0.7539036275071388 -0.14356045196564618
v -0.7820342594031532 0.7539681154803132 -0.14272294292288207
v -0.675074399404735 0.5571669878522354 -0.023675596163147836
v 0.007519137037310967 0.21785641292911437 0.16215788974082593
v -0.7903111708281054 0.6847306155733688 -0.09834281460241419
v 0.2876202209613609 0.2662923502695216 0.12475132844014983
v -0.7330386653696219 0.6276552060513654 -0.06228778562427048
v 0.6497333543855448 0.7338730098694527 -0.1336549754367521
v 0.36871521350883835 0.34851018893457736 0.08513517323538934
v -0.6783103613594015 0.7639979011438467 -0.13884039643874985
v -0.012720363366802892 0.7507425005049282 -0.13959307263091728
v 0.5246887928635692 0.5064856217740733 -0.00712382694304389
v 0.21862996182210354 0.20602771374881443 0.17373401251016957
v 0.06575904142493001 0.2203022256679681 0.15943243889408576
v -0.556934902116775 0.4337767354125742 0.04830814299460886
v -0.32596576862782656 0.753621992809448 -0.14500661970303236
v -0.7581927145188023 0.7647024596300248 -0.14052455869078465
v 0.40876037433979645 0.39089191019146274 0.06361964868639682
v -0.3888456209250804 0.2551720886126114 0.146350234269592
v -0.518015838979587 0.3892914370151544 0.0676133301227482
v -0.6293796233052803 0.7605703675038945 -0.1371613977322818
v -0.4430446089914461 0.32115782109879587 0.11507834501744663
v -0.06860980614406081 0.2228702125554653 0.16311332174832385
v 0.05009256550036307 0.7477159598972827 -0.14165731897195985
v 0.49999356003414863 0.48286916034057004 0.015056316267397417
v -0.33859091925274104 0.22864779537920465 0.16280245257603196
v 0.42263539365960623 0.739097819700782 -0.13768164125480511
v -0.27064803824282324 0.22136257100403098 0.16307777052048528
v 0.634552242116503 0.6106156660576478 -0.06244964207751734
v 0.4553549641267889 0.7394899447193091 -0.14141296428117242
v 0.11692038814105261 0.7431234807391626 -0.14252828524355265
v -0.1793625805958672 0.7505399907522492 -0.14446788488150308
v -0.48394210739995375 0.35403256825115054 0.0878185911495581
v -0.6955358493747258 0.7636171514490107 -0.14375746345864374
v 0.2614165676901408 0.24771289552656325 0.1483514402463478
v 0.24472515589007496 0.22735837529428032 0.15571885783691267
v 0.2119264886768806 0.7377217262725163 -0.1415930472725451
v 0.3503293474089647 0.7394855642509518 -0.13986665469513107
v 0.10858918814790931 0.74466647131099 -0.13731224175878384
v 0.28125341665015396 0.7434918118463198 -0.13312032663600767
v 0.5519877209759825 0.7353961767050452 -0.14315887800195293
v -0.04107588563404405 0.21744507251825707 0.16901451259825398
v -0.37398954431293924 0.7575320733300861 -0.14145776654719153
v -0.573477383222496 0.4529260822619794 0.036137406072412295
v -0.2259552305537295 0.7490886496188821 -0.14076871429744278
v -0.42360606287874136 0.2925942395127632 0.118388213311272
v -0.5541671422302532 0.7542351318748131 -0.14048685348926443
v 0.311116275763809 0.3056629191377996 0.11552130672971245
v -0.49625647514206805 0.7540830470179153 -0.1402391748215485
v -0.7683334093736569 0.6629148309811215 -0.08612802701257191
v -0.42301620122918016 0.7582694933643396 -0.1423452338084052
v -0.2156121238122038 0.21961560208782963 0.16351630379770665
v 0.09001438447635103 0.1804123173691143 0.18700244671236865
v -0.7196225350034967 0.6093268164451161 -0.057985884082293285
v 0.3400087071383216 0.738520774709438 -0.1370168548994795
v -0.14028408432509462 0.2199756114426721 0.1643610772063717
v 0.1868606748111571 0.18015827335775803 0.18593545171735082
v 0.33910250166548983 0.3274976178603932 0.10435652037139227
v -0.5985769573001135 0.47472316834049405 0.024817525079883638
v -0.3624966616815764 0.7533641780440831 -0.14265962484002676
v 0.3879096110171794 0.3775723214675422 0.06936545156372936
v -0.14938154830300063 0.7518848157260811 -0.13753431278221315
v -0.04849730090211242 0.22041661849137506 0.1640574434614085
v -0.2821939476033177 0.7482201207391428 -0.13766146868155874
v -0.46113693857548443 0.33628456323688083 0.10478944858395382
v -0.38736284287604716 0.7526995492246398 -0.14452485859944036
v 0.6744689942769663 0.6536251056224905 -0.0904485099215536
v 0.006258273297136404 0.7476259050072178 -0.1383575399055864
v 0.06826481896557819 0.7421890046109955 -0.140511886026689
v 0.30558830591233954 0.7418561944382736 -0.13917219651754642
v 0.19745435545168452 0.1890432913900453 0.18151774137890211
v 0.27518453365896056 0.25568391208942387 0.1367220178209656
v 0.6061075527502292 0.7383971031482124 -0.13736265504799222
v -0.6542695107258533 0.5431572646852819 -0.02209192678951066
v -0.5974734202634923 0.7522695636940957 -0.13862679505492598
v -0.6151589940049054 0.5019338970254162 0.010943916329353636
v 0.06723258453244375 0.21037503919683775 0.16505906174003604
v -0.09436562745924873 0.21882028767063952 0.16323689096182015
v -0.19582807084179715 0.7451913886140927 -0.14029684045121107
v -0.633256540735248 0.7604221691735497 -0.14621389108162172
v 0.2306978097191648 0.7404140824171537 -0.1382556428104517
v 0.20796468101374874 0.7435613631298912 -0.13989340119384353
v -0.09318149235052264 0.748280255229805 -0.13644283435727053
v 0.225094183400421 0.21129932699246992 0.17028983479310122
v -0.31829577511555035 0.22131139396310526 0.16251776745955646
v 0.024846490582014408 0.7456311374174782 -0.14072775459091036
v -0.5684682300671662 0.441105721112262 0.03449092374260608
v 0.5351430432023261 0.5175909684176965 -0.011933980947025778
v 0.321591773617633 0.310547199096465 0.11059596154433834
v -0.11507999316884616 0.2134923646083833 0.16956973251990232
v 0.43734075672403283 0.4143155499376748 0.049760237960066234
v -0.6698831342672293 0.5572788965053778 -0.02437615163887938
v 0.02918297641210918 0.21566963845230266 0.16834038259985493
v 0.28738374341473477 0.27288090077566685 0.13562501232191757
v 0.3651211886451559 0.7438202384033081 -0.1386552000604409
v -0.08242161650146754 0.7496034029752608 -0.13775396006121107
v -0.24274389162582435 0.2210540372372084 0.16325464965990646
v 0.3055399823387095 0.28580612892344637 0.12209583839148934
v -0.4010254537500626 0.7524936552104011 -0.1383427340590205
v 0.6267936069935367 0.7362430926765222 -0.134884334401133
v 0.24364314518401856 0.7407459965014456 -0.13832867359898313
v -0.8347065678162368 0.7386244181783143 -0.12316468052062347
v 0.5729069824481536 0.5530845354508357 -0.0325851932695806
v 0.33712222094414573 0.3259094268481005 0.09531451644304616
v -0.2408869907416984 0.7538106294319159 -0.14186453392068646
v -0.7042017618965863 0.5887962145367371 -0.044597437617083895
v 0.6715560316043737 0.733774556519575 -0.13994447171659513
v 0.38921360162380186 0.7406630329085556 -0.13869917061408063
v -0.5082810942658473 0.7552420316736604 -0.13568144509777802
v -0.4726318418947733 0.757170787376075 -0.1389567151580927
v -0.2992040512515873 0.21976618183134095 0.16631326962473178
v 0.5987552859632088 0.5847540605643027 -0.047667076441527914
v 0.596617497575148 0.571286150236046 -0.04367293615304893
v 0.5086561125897945 0.48611149583403007 0.007947836200280512
v 0.47112422472364407 0.7352612357777016 -0.12952665318627749
v 0.3627868196211955 0.7381721177897722 -0.1402459238336901
v -0.7849687635873733 0.6776951160591027 -0.09577066159836427
v -0.059752121832497555 0.7516075893318721 -0.13961355437837045
v 0.5603757862996768 0.5423402519591228 -0.022147745564569866
v -0.1500796492218759 0.7493076204816662 -0.13913453502314502
v 0.3923660023691169 0.7421475117859037 -0.13429496007059985
v 0.3023473326975923 0.28270100424395367 0.12471296406932506
v -0.1778262035778754 0.22458172528412956 0.164137035797025
v -0.6749553552394768 0.5550664845083579 -0.023538288398649042
v 0.16115332033333052 0.7461129772134599 -0.13848764337234776
v 0.2609385521859569 0.7417488775759078 -0.13454289085383858
v -0.14048097470131254 0.22253652826878295 0.1646426196338077
v 0.17600976103578117 0.7433667541574316 -0.13877770038479204
v 0.6934117565418262 0.7312947841328559 -0.1371702942736786
v -0.36031062163645095 0.754577963907975 -0.13508779209824592
v 0.5428267414847792 0.5190094248280709 -0.018553049377449084
v 0.2239044715705034 0.20692131886455814 0.16457835105739202
v -0.6550293331444835 0.7613504549024257 -0.14031835226229458
v 0.17375386072674381 0.16514739506698792 0.19242195255956424
v -0.505268525197033 0.3824983810016596 0.07793710293628522
v 0.6469653966371264 0.6317857363797409 -0.07902630583649231
v -0.7221597807763448 0.6077735499047074 -0.05711714379136882
v -0.5347051716436988 0.7611757933650803 -0.14212047543506592
v -0.4678901931333535 0.337490875464677 0.09631537135304286
v 0.42660092865854415 0.40546624819295274 0.050226261938119805
v 0.5379326299678663 0.7350242860232505 -0.13981243996791115
v 0.2582495516175594 0.2428159460986772 0.1543406730158188
v -0.7124700201900016 0.7555609513853536 -0.1431820192348729
v 0.20621108203845553 0.19054316971582505 0.17769214014640325
v 0.11115629042559629 0.17279886805950537 0.18952357520204396
v -0.6512677199391447 0.5415899209897738 -0.013996186502942948
v 0.08851824905334642 0.7450658878620354 -0.13723825660550676
v -0.3389411747753662 0.7486183648649256 -0.13407877961056586
v -0.2091021124827248 0.22584446533034194 0.16737384346266979
v 0.21235043186964317 0.7375869694540468 -0.14091635248844542
v 0.3740350334868031 0.3610711794978503 0.08404110664726779
v -0.48814355999821774 0.36195238846676986 0.0907413097177435
v -0.8277928323006681 0.7255381748287774 -0.11976018948898944
v 0.18806586371246647 0.7395501379607393 -0.1415839469158727
v -0.12225560905085614 -0.9759773715984265 -0.1275805763493293
v -0.014120096090155455 -0.6732699069045853 -0.07099697293403166
v -0.10854971215542182 -0.8213329868416259 -0.12356807752256514
v 0.015343261397786457 -0.8715328871676392 -0.050703935348083
v 0.05034278472111562 -0.6145554735371447 -0.028932124970394962
v -0.05089398470835569 -0.929315566892054 -0.08954009514673114
v 0.14334739981242492 -0.6267937884630286 0.02187854570065804
v -0.1116495756157005 -0.8919356909081225 -0.12224259464063028
v 0.08951226474029896 -0.5806852771344985 -0.00909119737560796
v -0.08742460981801554 -0.7399776258396396 -0.1156429965333871
v 0.13365469923553247 -0.6838786599420283 0.020648415819258803
v 0.061399007111079824 -0.8293945764582317 -0.020757781565093253
v -0.05233528469124575 -0.6992256470401622 -0.09210358719055287
v 0.09068126330473458 -0.802971681123895 -0.006236849168650651
v -0.1154051165997195 -0.936738454658623 -0.12883564724676022
v -0.10638622611331322 -0.8583994158068199 -0.12041382987092683
v 0.13209341876528877 -0.7374480473838178 0.02520792467480633
v 0.14052085544980872 -0.6306838236960578 0.0231479778990176
v -0.029921720720206595 -0.6885468108708841 -0.07833372089570642
v -0.012716984494706807 -0.8924924572649369 -0.056004466911877396
v 0.024826602754081366 -0.6400324696644206 -0.04061396064059321
v -0.074917649634721 -0.7204449027145837 -0.10227465671905486
v 0.127503762463907 -0.7638000570979558 0.015440798042095194
v 0.09061124925593457 -0.806681548403139 -0.01090272399057164
v 0.11313383568668903 -0.7784831080095707 0.00963305878415514
v -0.11128553098017879 -0.790316922147339 -0.11749547986704736
v -0.039228980177001396 -0.9228190606377313 -0.0860162830353404
v 0.04767942308499648 -0.8416549095400803 -0.0327079406437265
v -0.0690455008479384 -0.721847282323828 -0.0971058269135025
v 0.13465977796392936 -0.6585006719168618 0.01921077027774633
v -0.10238505486071345 -0.8586959226837376 -0.1211369266481537
v 0.07006262736789898 -0.8207778090129261 -0.01974577581616655
v -0.009618652769607484 -0.6633954277111582 -0.05669210183368776
v -0.03570061455223149 -0.9123555927610925 -0.0825377893915022
v 0.029977037037373817 -0.6326634234611157 -0.0419308710246091
v 0.0036271627345151984 -0.6616622429844958 -0.0539100893998246
v 0.11815338110249934 -0.5612456521430826 -0.0010810747038261775
v 0.13994141012786168 -0.6132127212820018 0.01920015109464136
v 0.12789807260196276 -0.5479283823732165 0.012788914471544477
v -0.11023483151709446 -0.8379526315502083 -0.1258257126269703
v 0.07764173835913266 -0.5941481405469555 -0.010836932703622805
v -0.04254874045901021 -0.6956611462414315 -0.07925988459681162
v -0.002702582128678473 -0.8862909747016771 -0.05971257260985404
v -0.11346276194433498 -0.9031367601925512 -0.12845553319198896
v -0.08204128783345738 -0.7336505957030259 -0.10773056915235037
v 0.09788109796983613 -0.5741097147198645 -0.004892925774489525
v -0.06945917943209919 -0.9394880886073786 -0.10301019077936638
v 0.140288581988588 -0.7346951857782515 0.02347089337028478
v -0.07317298592958438 -0.7186445047832799 -0.09656045990739262
v -0.026399263247359014 -0.6755545036319229 -0.07492764119659537
v 0.03066239803804294 -0.8508185230204124 -0.043938318955370786
v -0.03570159408289673 -0.9107117246061273 -0.08271490695619772
v 0.051942476645971944 -0.606481609871293 -0.02580448972678321
v -0.10822157855905282 -0.7900326613395952 -0.12257568854237205
v 0.07393725786514369 -0.5969274472707262 -0.02404251106425712
v 0.04071216093508381 -0.6231458719737974 -0.037074611346754244
v 0.08432410141117723 -0.8054647695709042 -0.009290821006827937
v -0.11324508624312878 -0.8791449660244741 -0.12711782949761202
v 0.01688835340401095 -0.8699730435123528 -0.0498050490448495
v -0.108900989155085 -0.9077758774893971 -0.12394741418841083
v -0.10701635020669945 -0.8354674281247366 -0.12325907721775844
v -0.01807877701526062 -0.9070100498940741 -0.07883210222456231
v 0.1388597320887366 -0.6671262592398929 0.019289560454473487
v -0.03296482451514165 -0.6830504388336 -0.07824195850182361
v 0.09720893032999559 -0.7935288845956887 -0.004245642224542243
v 0.11904092010718167 -0.5541434684547099 0.006422344062250775
v 0.39930953997704116 -0.7884744464320366 -0.1356920114023381
v 0.3063480738702678 -0.6796002767015015 -0.0779517861473803
v 0.396972949120552 -0.889484114313287 -0.13205695354332825
v 0.18745720858162368 -0.802734830919458 -0.009279437364061121
v 0.16756918877525834 -0.5525776432530128 0.01343231022533184
v 0.13625021613043842 -0.7426917020907655 0.022828718050195314
v 0.23619181806899214 -0.8521773784959448 -0.03511681224145782
v 0.4027828510000392 -0.8516213536098526 -0.13142845071893736
v 0.3979844584932965 -0.935161129722142 -0.1299780794538358
v 0.35690763759106525 -0.7265173958230089 -0.1078576116374563
v 0.29305775683304186 -0.9051429635745072 -0.07053093544715382
v 0.2348108369717714 -0.6097099525700718 -0.02386889971409585
v 0.20938098473931188 -0.8319644670667862 -0.026417381397584365
v 0.27698702028660876 -0.6500097763844591 -0.056010356739030154
v 0.4014480516187806 -0.8262150722687859 -0.13043967589747718
v 0.1369111617164598 -0.6920003198789249 0.018618570260446665
v 0.26437508656732234 -0.8776423159261234 -0.048493514748071606
v 0.19314278821369776 -0.5787433453705829 -0.0047682090746979326
v 0.3016906406246813 -0.6733947302386184 -0.07649328311201326
v 0.14214666599740405 -0.6280503821693317 0.016944039259644286
v 0.24630465643465588 -0.626372785824312 -0.043680799999189425
v 0.16144000679841622 -0.7765437787396571 0.006526201496192227
v 0.40225749028061797 -0.9061082326388538 -0.1263895182453207
v 0.211822232663725 -0.8261467170791504 -0.020869296289749477
v 0.3609632037921703 -0.7334276289797236 -0.10829846543938172
v 0.39691936909711056 -0.9658858248826152 -0.13194181018376505
v 0.1435093646111672 -0.5937630530141613 0.017083906592096014
v 0.24045954221330865 -0.8608525929073523 -0.03707812849557723
v 0.34883070030477337 -0.7144351749317495 -0.10143002274353656
v 0.40863707728755716 -0.817140915953148 -0.13354784790405938
v 0.14284018282128152 -0.6655269405669257 0.023549445540753
v 0.24913265553346195 -0.6315962015214093 -0.045938890067498975
v 0.4007967652598978 -0.8706887756421314 -0.12989627611825175
v 0.40248072567358795 -0.8782329883758815 -0.1316543291157612
v 0.19278362412087524 -0.8130724600626273 -0.008760932421058142
v 0.16258521396087816 -0.7873850995522694 0.005011150665965213
v 0.2707476900418193 -0.8857980015342166 -0.06114655963826376
v 0.3258013368292126 -0.7001178485221174 -0.08343498124188055
v 0.14308123445134824 -0.615186960879994 0.018357769240831802
v 0.28418745318012045 -0.6589267923321644 -0.06193660361885296
v 0.37371687414576493 -0.73927477964957 -0.11898866712639196
v 0.3268235422113677 -0.9313593561711654 -0.07969957322946854
v 0.1371311376268429 -0.7167960492290283 0.02637495425927055
v 0.17702588451288934 -0.7947457807203152 0.0023062636673894382
v 0.22037835591144228 -0.8466078125271844 -0.02584300066350135
v 0.3505033369486478 -0.9468467575661229 -0.10523447054152046
v 0.15959582931158506 -0.5460319075984383 0.015607161608415483
v 0.33810196067018217 -0.7030428324555029 -0.08979391864276501
v 0.1378368012216178 -0.6768112425766662 0.0221771434838501
v 0.13797755567623937 -0.6785092216543873 0.020955422122743973
v 0.30691159893930153 -0.917979088505644 -0.0744464717848502
v 0.20084484229397465 -0.8220060910506539 -0.021940817769983707
v 0.3998808068735854 -0.8422410351724847 -0.1305492163659231
v 0.34420700521013164 -0.719995111288168 -0.09921702057703252
v 0.20490473655361788 -0.8246518086385177 -0.017215078336464795
v 0.30830435537666595 -0.6863089919658245 -0.0749870808989914
v 0.3634439765827248 -0.9667986468878943 -0.11223666241674071
v 0.21445401640463363 -0.59588030513612 -0.02017251319391759
v 0.30939279977051665 -0.9246374122561724 -0.08378307849902784
v 0.2892187491094884 -0.8998533885117868 -0.0652622296222761
v 0.3969690283886808 -0.9122859492606263 -0.13210533635788
v 0.2536369880693302 -0.6354411036715939 -0.0385060061168607
v 0.4033613626459233 -0.9285495960824163 -0.13624338417549886
v 0.2529935866949989 -0.8665703297354479 -0.044517646950826724
v 0.37467307510793446 -0.7435219414028009 -0.12240485784936522
v 0.36315432345477017 -0.7282156891238076 -0.10839103143017555
v 0.39386953324817836 -0.8998537390723141 -0.12681544342194254
v 0.2478976843604824 -0.6305916117125566 -0.040382462434604735
v 0.20127867589955767 -0.5853288678161476 -0.01546700008935909
v 0.4022075565869887 -0.7867381815418832 -0.13085605054390653
v 0.21780127699995017 -0.8366377700544314 -0.024643549876210702
v 0.28886256230080704 -0.35182031576157097 0.1270364412310617
v 0.5902844248762926 -0.767397051297655 -0.12532965727752424
v 0.10326972108059823 -0.5680098799519845 -0.0028483267140217354
v -0.3332584029978667 -0.7506150884642281 -0.1084329425106228
v 0.3953612132314564 -0.4555682554172414 0.06332545491221978
v -0.24305155109519522 -0.5881394643849684 -0.005780914135172892
v 0.472688784046216 -0.526844971798482 0.02281100880681034
v 0.22334479349971254 -0.6020616101567409 -0.021058850353095643
v -0.2995182247740235 -0.6513986103936527 -0.040117529032036296
v 0.3496656346613688 -0.7190354538216647 -0.09627949415550724
v 0.13915329844761692 -0.5261344232926829 0.02294521481451725
v 0.2356133198570676 -0.297041703606203 0.16109821326221083
v -0.06451260815628122 -0.7167319278101737 -0.1005707931518846
v -0.22869546118278164 -0.7517103029988176 -0.11604503614268824
v 0.49868298806217803 -0.7686482252799811 -0.12628463417574615
v 0.014729570727022169 -0.33849851216669813 0.13492122542984444
v 0.2653957554106906 -0.6475804766990867 -0.0540030762824803
v 0.18990835964316577 -0.24461392077997016 0.18803813075532802
v 0.6590050308011592 -0.7094686133825401 -0.07959131677172684
v -0.15794686492454058 -0.7488052951423738 -0.11476230232272924
v -0.11537744171735333 -0.46908593342189836 0.06515853815373708
v -0.020940412005962673 -0.6816812564320478 -0.06950266235681392
v 0.4442000777432997 -0.7677468321833248 -0.12931919996499433
v 0.048887037576088206 -0.6139670375382985 -0.02822317728665851
v 0.16361862739981617 -0.5530567463283951 0.008559079612507915
v 0.05656848797635531 -0.2910720757312809 0.16185066195719816
v 0.5725031959944065 -0.6309526622504218 -0.0370273701847456
v 0.3681815753660094 -0.4184790223316093 0.08524097636909035
v -0.08881225538138757 -0.4345067824689901 0.07809542403380014
v 0.016310338561926794 -0.6424453943853649 -0.05165021982383206
v 0.30733787391880163 -0.6779842012182591 -0.07325966597260836
v -0.27832159241428966 -0.7494969058830713 -0.10752767253070727
v 0.5026144766115936 -0.5663122365673904 0.004746389830619299
v 0.6220825606422852 -0.6767306926018047 -0.055385067248329034
v 0.4410231121474329 -0.5023095360858042 0.042061989810383546
v 0.08870354915463016 -0.25872528247835774 0.17973043450536455
v 0.38128028602437547 -0.7475066031567468 -0.12881944105963242
v 0.14266846328835575 -0.5337441011197973 0.019365378662683876
v 0.657160863419334 -0.7776033314544182 -0.12586549389612703
v 0.30236113242230067 -0.36344496443057567 0.12025246029152854
v -0.33091881244183574 -0.6779652790085207 -0.059790911896642776
v 0.12119938277185556 -0.21848277039208647 0.2086239781816408
v 0.1857127470853978 -0.5836562426650933 -0.011453327971464223
v 0.32830447997572426 -0.699677674832729 -0.0858559956277141
v -0.1440400816217351 -0.4948372955204423 0.04514908769151424
v 0.030545922387732054 -0.3213099410871239 0.14628622687759668
v -0.06210481660173346 -0.4116020576473682 0.09261901892752256
v 0.07881058010943082 -0.5897544191559672 -0.013725888054918306
v -0.19480624407165525 -0.5455841685928795 0.015073958434297855
v -0.3689599261023724 -0.747292388224355 -0.10102756552163873
v -0.2076856420331063 -0.7517412127372909 -0.11513551817140501
v 0.2050316016370397 -0.26873088238548504 0.1762243539657687
v 0.24500238357422344 -0.6270841928048639 -0.03701927527529868
v 0.04993655077874555 -0.6216235933583376 -0.032217836242057235
v -0.3530072721512323 -0.7002656832838389 -0.07569983001746047
v 0.26472532722254616 -0.3188098622193888 0.1505782567808053
v 0.4162689142775346 -0.47909892509689767 0.04943487137639494
v 0.012267357190595086 -0.6483109272122686 -0.051960080851628024
v -0.13640331023653157 -0.75412139788995 -0.12128763496122001
v -0.023087622556665823 -0.36812807105292567 0.11550000036847585
v 0.11017528949566434 -0.5598211180373105 0.00776466308450287
v 0.22528791595432485 -0.2911990675795292 0.16401679122025037
v 0.4663205903458399 -0.7710384064811718 -0.1351270713975258
v 0.14297229790113097 -0.5317095566649901 0.022401586818438377
v 0.6431388431367734 -0.6963852381439946 -0.07352866741204596
v -0.11251127024065505 -0.46248464314905874 0.0696380702813256
v 0.3198141310424907 -0.38512842559452864 0.10798215591427096
v -0.2220100996723265 -0.5690135925328262 -0.002166823078552405
v 0.09996393421398718 -0.24930630706319185 0.18855982884485484
v -0.0997603450420278 -0.45307332970732517 0.06914255158687183
v 0.5965899260647956 -0.6515715478321652 -0.048849285381480104
v 0.34392783570522567 -0.4100686494029259 0.09614260995066727
v 0.20904455567517896 -0.5915304005542387 -0.01371349010985131
v 0.561099703853427 -0.6156586833876759 -0.030737074442500907
v 0.5417947550354411 -0.7777488238799162 -0.1270726726647884
v -0.037669706731321015 -0.38910536674998436 0.11100426877479044
v -0.17105595935239995 -0.517030814554106 0.031056881057178125
v 0.6304337725261643 -0.7738593444828762 -0.12657845000375154
v 0.2364796975621907 -0.6164159890171448 -0.031982346292067164
v 0.12113803350798927 -0.5517043641498569 0.005786254281354488
v 0.19682248833263277 -0.2639208879211872 0.18488929767611634
v -0.07055146367853925 -0.4222913623628523 0.09465924421924769
v 0.5313301863157363 -0.5889647806515506 -0.014286616901023341
v -0.2767213206804068 -0.6224858249283419 -0.02911906778705558
v 0.46371307675088064 -0.5168842036931609 0.030940578844214587
v 0.5524008092525942 -0.6102032476692459 -0.018556042948149675
v -0.10628269379056883 -0.7484577824978406 -0.11741099426953903
v -0.15755972582385372 -0.5095097069511828 0.040615256158619134
v -0.1723536487534739 -0.7522737696881342 -0.11693247439606716
v 0.2883917422628218 -0.3455912803550375 0.13349467841834237
v -0.04400138466496474 -0.6970026818467145 -0.08517370523095827
v 0.015388296069318137 -0.33659014669982235 0.1362341066918704
v -0.29424448046974855 -0.6498986811615339 -0.03822230164939024
v -0.2565728291982579 -0.7580012426352426 -0.1144221995585139
v 0.03429374600995342 -0.6338518257069647 -0.04292579099800257
v 0.4021497311130171 -0.4595144147550865 0.06655668798756983
v -0.08031719787281194 -0.4239932449144968 0.0890300065689518
v 0.3731006102153261 -0.43310130506865213 0.0786397605390914
v 0.34106146313214974 -0.39995465208116815 0.10277850043087118
v 0.027473608303445092 -0.3205209021048845 0.14681757855491204
v 0.37448255206954434 -0.7413408647937334 -0.12212823180215605
v -0.2588663922736511 -0.6118163137390432 -0.016601081143249718
v 0.06350045358144427 -0.6088209276517256 -0.020003204988115496
v 0.06591709587780557 -0.28062174959488057 0.16771370528461985
v 0.16297145438334412 -0.230946111611293 0.19606330193506366
v 0.21596373421980994 -0.27612238644448983 0.16983463371478758
v -0.18959535726553164 -0.7528166075429154 -0.10692082413466722
v -0.21405535268996717 -0.5540335559274123 0.008256385007108315
v -0.0818298949130104 -0.7381040728835043 -0.10709383754538195
v 0.28126450930541586 -0.6581541236850027 -0.06267213348211903
v 0.2710362681171248 -0.33642365993969503 0.13683347904351226
v -0.2999742032386962 -0.7511402665850428 -0.11049667587573041
v -0.2928286419427885 -0.7465426279581454 -0.10926236789904617
v 0.11427508367505422 -0.23368087998501397 0.19526608814134866
v 0.1784285281980452 -0.5670486726377545 -0.0020288834853747733
v 0.26162500423871493 -0.32288938891723784 0.14464515962749702
v 0.32447184482675484 -0.6850185388504135 -0.08073878592714052
v -0.0120825849069187 -0.6684043637575365 -0.06620983447291644
v 0.2406815912999786 -0.3122676798532796 0.1591948787826315
v 0.5092825849291537 -0.5655330827983396 0.000233495381166651
v -0.13595879832775257 -0.4878421323769383 0.050105126561643294
v 0.17436889296210598 -0.5633110450373876 0.0010794544899165486
v 0.5551506465359924 -0.774480566690819 -0.12932117074445393
v -0.03435212614492374 -0.6930475897902849 -0.07602052267053923
v 0.4156442766844158 -0.7680083763008665 -0.1300644192664
v -0.3175913271474018 -0.7516850153001973 -0.10760184475424607
v 0.31463938429230565 -0.6928483720229545 -0.08317996989800089
v 0.3326590589690652 -0.7052688891232827 -0.09406447360793614
v 0.0927662695241527 -0.24669550103152185 0.18851670052052788
v 0.03877336685324751 -0.3079406594615744 0.15022196864475512
v -0.0034190165978457083 -0.3597430701626589 0.11972598145670543
v 0.3322335692987354 -0.39368062914044816 0.10277894089678374
v 0.297984491144368 -0.3649483753373227 0.12119521642606478
v 0.4026275823480806 -0.4655388871966516 0.0647448687993203
v 0.023178765476738816 -0.6402741426676012 -0.04634676022956789
v -0.38315368997681243 -0.7329500896556049 -0.0944844687930323
v 0.5766412002013778 -0.6269965917116229 -0.03404609196622618
v -0.2256239608347733 -0.7540978447365998 -0.11428397858049737
v -0.28967955013723445 -0.6379154665233798 -0.03583014982818645
v -0.1885234764461291 -0.5372914983947032 0.022229434905989658
v -0.32599081936943863 -0.6788581614935857 -0.05684926506824255
v 0.25709091130801026 -0.6362572173989921 -0.04969771694888533
v 0.3543713729304562 -0.7276625372558773 -0.10792627690902012
v -0.2301019762141772 -0.7532285275951158 -0.11193773813072429
v -0.02515281945669801 -0.37560991431002017 0.11287256405589854
v 0.4298181122494572 -0.49680749742813063 0.04750043565132419
v 0.5028299042439084 -0.550785108589134 0.008688425849614394
v -0.15956390657932307 -0.5089483392625056 0.035960050774231506
v -0.18246149321251603 -0.7531797922205533 -0.11909007726761214
v 0.09835219872943395 -0.5737030280317744 -0.006214282838263226
v -0.1755424087654066 -0.5267001510479731 0.030311814374910245
v 0.12230462446810801 -0.5552855878494822 0.007192836385501329
v -0.08673243893349267 -0.4394699157893277 0.07839809217498098
v 0.4590172053285606 -0.5130291495540361 0.033596823891965395
v -0.3049898487518531 -0.7506311664669935 -0.11233594765659638
v -0.25583343857156254 -0.7546117025010968 -0.11170349870160863
v 0.5105756885251896 -0.7736458097227702 -0.13060382945162521
v -0.13229264257272752 -0.48568081880381925 0.05498432229699744
v 0.5220467348519969 -0.5748907693434997 -0.0027409482949761928
v 0.19273332410297106 -0.2631049756529982 0.18827981369914798
v 0.047547095974032755 -0.6174207829728356 -0.029492338953625588
v 0.06313000487704166 -0.6061991207057673 -0.024956036175773542
v -0.34962687924563207 -0.7521134764856268 -0.10682491301580005
v -0.018305652765737798 -0.6788394939402609 -0.07084036426675422
v 0.49990977366745015 -0.5578925291610297 0.012517347195676437
v 0.41145256197431895 -0.4692857879180939 0.06516299949049502
v -0.04735622429019853 -0.7074569764539639 -0.09160796234567369
v 0.18335104227076807 -0.24822022773417066 0.1864026069543779
v 0.42540936165138005 -0.7662676236910564 -0.13426041519635556
v 0.24123005214915044 -0.30669555605673476 0.1500181883317693
v -0.08670899146691453 -0.43385468732830784 0.07804845796831059
v -0.25507425410332435 -0.597435194504568 -0.017083802577069204
v 0.14809559606151876 -0.5305242953782758 0.014366321619860928
v 0.5174656778816652 -0.7705472359910325 -0.1283611789728341
v 0.08147827282332772 -0.26295000846257965 0.1757289797834205
v 0.4812559063807894 -0.5343512623482061 0.019569221484902265
v 0.002369543687393968 -0.657314736990717 -0.06034417404237558
v -0.11033317019949868 -0.4611098896072786 0.06783337447325512
v 0.2665549452851807 -0.6377444860353818 -0.05031232473168092
v -0.3186699453164246 -0.6668131267971946 -0.047850935074776696
v -0.10026733390756654 -0.44869533319870974 0.07581644835375312
v 0.16897302031618636 -0.5531400969083553 0.005510029291022913
v -0.3150330981084478 -0.6625435628994338 -0.04888864085347819
v -0.17777845854172042 -0.5308926241149338 0.02430150800354629
v -0.05885430607265138 -0.4102178930155734 0.0958800094819396
v 0.22404378899189772 -0.28557561820239397 0.16385283326492198
v -0.32738189117697847 -0.6740614082116114 -0.05803311873296586
v -0.22923744857645123 -0.5763062611624833 0.0004765615408224345
v 0.44139779304600274 -0.49919106071195607 0.045200846994083735
v 0.37061002664012066 -0.7275839038346988 -0.11384017469444188
v 0.5454424332351772 -0.5973720450103273 -0.011796113448975656
v 0.42311846616356935 -0.48921385002756285 0.04967242009608594
v 0.10988398290957622 -0.24487789922640651 0.19308676683407786
v 0.23028671474049622 -0.6059530329793411 -0.030493858913413423
v 0.4827453296289429 -0.5430724898518167 0.01657782968482565
v 0.5259430332040095 -0.7671573367056237 -0.12652648934255056
v 0.5742608438795135 -0.6279306438961769 -0.029858697294206284
v 0.10532734216538121 -0.24238405959073886 0.19103326360116407
v 0.07123766024968628 -0.6019520499048678 -0.014465691301321212
v 0.14178309308445827 -0.5312765372177536 0.021284688660459926
v -0.2711889986931998 -0.6200560159480558 -0.02553561840654922
v -0.1709326981620913 -0.5212508970503835 0.03621229659189545
v 0.49579283819020564 -0.5526913643190423 0.011248995421503512
v -0.23009551630611194 -0.5801572662027386 -0.0029783646625874197
v 0.7527922510293691 0.7300474084326406 -0.13016799460089956
v 0.7377264760216053 -0.3060218847314861 -0.1281968624513189
v 0.3224422205217995 0.31577629686187114 0.1136053019140039
v 0.5627915318884921 0.5399987401413637 -0.02588083162117668
v 0.7419991673549173 -0.02847892786628773 -0.1303326327492258
v 0.731523929651822 -0.555401532426671 -0.12369360698326694
v 0.7505138370485568 0.38177310316961965 -0.13260009351074512
v 0.5410637817689451 -0.5998552964084893 -0.01685984346395343
v 0.7457566212633929 0.1644700910329722 -0.1321387867846842
v 0.7560268498650434 0.5589984604851005 -0.1338408695803454
v 0.7297687418169346 -0.6955800479997446 -0.1294034127928321
v 0.1440600110915846 -0.19439102068763248 0.2106325647499131
v 0.7422018259954479 -0.16981330387967813 -0.125406484814997
v 0.6134603761354981 -0.6660286087208239 -0.051630313858139626
v 0.7413043862575384 -0.42323256150445027 -0.12626950963755024
v 0.18195443194788846 0.17280614750257944 0.19276504532652197
v 0.14185750099920155 0.016687412164123654 0.20870321678380635
v 0.68734308727888 0.6678730851042772 -0.10341052972485823
v 0.14500479885459808 -0.11224769314176514 0.21030154134167997
v 0.43465068652205074 -0.493611751741617 0.04077932069092747
v 0.4795738924932783 0.44584767355442756 0.02809492807006308
v 0.7464442330154873 0.07519497037520596 -0.13134364504019486
v 0.7496325606101791 0.27765004840559593 -0.1343376109523119
v 0.14423399286919925 0.08131612201204094 0.21620363830546988
v 0.7312273453793595 -0.48617976896746357 -0.12295824224995366
v 0.7304051514842992 -0.6211163154101464 -0.12165655505910616
v 0.7538162697343367 0.4626135335166097 -0.1349717236348371
v 0.42642284441705636 0.4039827571431083 0.05136396429584297
v 0.4967124990147512 -0.5558042732944366 0.014882667873285668
v 0.32868477082413805 -0.3843288114317603 0.10915436908637749
v 0.2604905016300115 -0.3220136444312734 0.14498163431871508
v 0.1372509841869405 -0.0480132228762572 0.21601255768182476
v 0.7387822032624273 -0.09288735995686553 -0.13446364522429333
v 0.7345299305151647 -0.36590861786034534 -0.125478532751741
v 0.7274504216874357 -0.7609552110096265 -0.12273317127107289
v 0.2924840354238039 0.27452407936658646 0.12761210778488224
v 0.7388404391315683 -0.22899922459350838 -0.1299426464020651
v 0.2358301388433334 0.22438402035437266 0.1646663263521052
v 0.5796803844421894 -0.6285665398680629 -0.029262640410320194
v 0.7472423673745795 0.21465859255649034 -0.13458321544210608
v 0.38540763606512635 -0.44454941623865435 0.07679254996240681
v 0.745310210487069 0.12398512179754989 -0.13002049095055127
v 0.20968302067059713 -0.27142852879945517 0.17674633393342085
v 0.35515695075035686 0.33642830822486475 0.08748200487107458
v 0.7452291097028128 0.5263550940795957 -0.1369209324587595
v 0.5993256419816018 0.5727930878722852 -0.04901852587252474
v 0.7469355691716845 0.33431233785551384 -0.13619512797220112
v 0.7627622686837114 0.62952315235183 -0.12804913713631016
v 0.7486874203424059 0.023751038854993523 -0.12215709863257969
v 0.14641129179703274 0.11212152200163304 0.21707301501013887
v 0.17074423673312406 -0.2344057095928607 0.19383669727772665
v 0.14765710398014656 -0.15660636582213852 0.21576651704883848
v 0.6259030528192364 0.605476620700249 -0.0598973368105102
v 0.6596446830783917 -0.7215541301143783 -0.08154045242234854
v 0.7412989958818038 0.2889381344798116 -0.1285049903111761
v 0.5498070410186645 0.5267253090038401 -0.015553262388007411
v 0.749360946153677 0.6870451838232977 -0.13583621312531216
v 0.7502291882993122 0.49768145910517475 -0.1326137581343984
v 0.7375345488275431 -0.26976584366950823 -0.12765475785582842
v 0.4194454966288805 -0.4684441498257493 0.05644922124650132
v 0.7339923891431482 -0.33383303735314723 -0.12201053119265479
v 0.7490951114051377 0.41871424599987883 -0.12769419056326994
v 0.746761374071633 0.16578424670711936 -0.13202682867874801
v 0.298310923808731 -0.353367324136882 0.1230172745356479
v 0.7336115825290418 -0.50252891599668 -0.1190329999809947
v 0.4598472962696506 -0.5129778958666338 0.032774862859669456
v 0.45459460430321 0.4392128817091736 0.03709162695721285
v 0.6396929009439056 -0.6867100063234395 -0.0691679343772213
v 0.7401957438764828 -0.11837070900401667 -0.12791105383052248
v 0.6772309030133411 0.6520448114617262 -0.08771644155384783
v 0.6821390374216472 -0.7367734578053172 -0.08513348287615699
v 0.23336482302620104 -0.2996295463729305 0.15923233065475695
v 0.5199863824357935 -0.5825933975549358 -0.0045718547311244945
v 0.7365484114845682 -0.19883622838802661 -0.12366212694522351
v 0.2575630843397196 0.24540395503091833 0.1486652080707825
v 0.7329102575268309 -0.5968229635279556 -0.12619851398330473
v 0.743657818600689 -0.06888328610939361 -0.12867677224900193
v 0.7463071258586839 0.1183827155855119 -0.13006555221618515
v 0.7524009766459587 0.6064450508993969 -0.13832105378110027
v 0.15339374242142734 0.04499389155130568 0.21572092524139413
v 0.35184900124767243 -0.408125455828294 0.08940026553594431
v 0.7278848848699973 -0.4672824973738847 -0.1159830573251166
v 0.7384336998754045 -0.39630496361365025 -0.1241002808402805
v 0.2912870373148448 0.2756355974817657 0.12711045929870052
v 0.7334906004670808 -0.6648988255624163 -0.11881763403020364
v 0.5021261732001753 0.4773856059442988 0.0167100507948665
v 0.6384668362713269 0.6152157464287016 -0.0704317483551008
v 0.5794753755956902 0.5578380670861763 -0.03476606622073087
v 0.5493106420497184 -0.6065649003226806 -0.01905888881548988
v 0.7386150781502915 -0.05792247887023212 -0.13186810485390116
v 0.3930486418568378 0.3779197213773406 0.07155355622938118
v 0.4874590220388749 -0.5394547966128478 0.020456197896361786
v 0.7469035162983847 0.33262731790662253 -0.1309374527171519
v 0.7515270280795835 0.5664733414919526 -0.13046619288017544
v 0.5871843369101987 -0.6520239464741704 -0.042535275858855165
v 0.14416536610729738 -0.18398400100061965 0.21114780250022247
v 0.5239943692889732 0.5038360106132931 -0.00953715502680761
v 0.7428289928195827 0.0008167917682098931 -0.129603717652418
v 0.7309374439231117 -0.22666834894806734 -0.11897899175327367
v 0.7458615553971131 0.24044511645333938 -0.131600807374758
v 0.44455217291370974 0.43080953441339315 0.04287771143980993
v 0.7386682049797341 -0.3341904836844948 -0.12238714842732236
v 0.2761511339098413 -0.3426722385001885 0.13522711088040723
v 0.7438850015289015 -0.2580251646013603 -0.1253259308804214
v 0.19950390767804366 0.18568613592495564 0.1822679974627653
v 0.7387335072949385 -0.44316570270958916 -0.11958715959165697
v 0.6864315809317822 0.6651382213288032 -0.08969229818271322
v 0.7321649376241557 -0.5221858889890479 -0.12808511115101254
v 0.7515379333198849 0.5323666849870845 -0.126986205995728
v 0.7293270294176882 -0.7260641997271906 -0.12133928089459546
v 0.1600325665769123 0.14959252590705863 0.20606919850096278
v 0.6286279102341019 -0.6814920649689585 -0.060582134391721804
v 0.23603399495656166 0.21429720451330633 0.16779533462448243
v 0.7467958341177269 0.18993962158894873 -0.13391170614905587
v 0.4848170907440359 -0.5448845638409734 0.0186582417528458
v 0.14111635989176827 -0.08423912614269179 0.2117801046770569
v 0.3871017349866071 -0.43737993615211845 0.07736370562295725
v 0.37758462906801477 0.3565012234679144 0.08223644792190851
v 0.3247696761573676 0.30390711849561414 0.11050454472155531
v 0.5598944159559158 -0.6091720208176861 -0.022349751530113832
v 0.7284579319470614 -0.5953845717491525 -0.1228099229309579
v 0.7497344386240055 0.40088157970783284 -0.13259146290460663
v 0.30907576104655193 0.29353486112706023 0.12213016528291394
v 0.14703416357329044 -0.00922808260146671 0.21196816617105158
v 0.39912431493770234 -0.4653896606398015 0.06256483540981318
v 0.3400723018346243 0.3230814179588601 0.10771281659261649
v 0.7543544390603059 0.6607064572172533 -0.14004701292139954
v 0.728814001311894 -0.5741564680026019 -0.12362306680521783
v 0.14510825488570217 0.11176987447640863 0.21589244729309398
v 0.14715459635009978 0.033047992434198085 0.20854265597036456
v 0.14176112042854472 -0.05073054126350391 0.21342452787183433
v 0.7527600035840909 0.48822128420354766 -0.1344270911119389
v 0.7391424325019957 -0.11805970423214579 -0.13186031137085139
v 0.6503484532028542 0.6251113972920019 -0.0709624238033781
v 0.47465645747332696 0.45124128986693146 0.0318571031120166
v 0.7316263394908301 -0.6399377393041064 -0.12195932249562426
v 0.7287900568629557 -0.680018958962081 -0.12101359732196225
v 0.7499677839665442 0.16030634925804613 -0.1295687385841884
v 0.1394314631974468 -0.019535841898537507 0.21668542362496276
v 0.3400819748348792 0.32196477211495383 0.10301993854680856
v 0.7477436882536962 0.31484457756830736 -0.1277577815729694
v 0.7523202503756311 0.6397142336673366 -0.1333670346962157
v 0.7568163330383126 0.4361031010018538 -0.13163326472229805
v 0.739903438152957 -0.14310350920088066 -0.12538958678822515
v 0.22002636245351678 0.20912972500783156 0.17280008222577917
v 0.748856803993737 0.04692466642339805 -0.12384024124437606
v 0.7516386731586199 0.5824542992948178 -0.13520399020514032
v 0.7449474029798143 0.09861844715988129 -0.12807420287939067
v 0.7455223878733239 -0.15019512918315045 -0.12814821297181522
v 0.7354157237319493 -0.20451566139236624 -0.13174473195934397
v 0.622668215865763 0.6017452209451996 -0.059369489733439196
v 0.43953948876340915 0.42518645795619237 0.04914886583237471
v 0.7561130339764417 0.37341351697876046 -0.12854234997771577
v 0.7553338109945766 0.3486379596258722 -0.1302420500548819
v 0.7438442988268604 0.07858633788120822 -0.1307335101827036
v 0.5449315094068611 0.5252473041351411 -0.016931419250498257
v 0.18460270633537587 -0.2538993060183258 0.19089998537740677
v 0.14648120650034632 0.0640039616333119 0.20759660225334164
v 0.1440369114140994 0.08237577427616195 0.21525414520055025
v 0.596875932287689 0.5705677730890522 -0.0481326040771954
v 0.7316435873644516 -0.6234291068693748 -0.12388601835747466
v 0.5649280442592644 0.5495235482484911 -0.02360083477202424
v 0.4162180767412774 -0.4731984763473551 0.06082553154792055
v 0.6891440905103757 -0.7322809739992018 -0.08933697323442247
v 0.7403072041487474 -0.21170212282208706 -0.12652911730267352
v 0.7492702918912388 0.2681473230910351 -0.13065694312848933
v 0.3724386597454758 -0.43530873310055207 0.08492798667853892
v 0.3982580623960303 -0.4519623477592968 0.06894006809029136
v 0.5893167077335155 -0.6457729570098754 -0.045294156168267055
v 0.15005799135346834 -0.08484509471020897 0.20790967039909147
v 0.7417344029513026 0.06225625778147061 -0.12856802742563178
v 0.7500627298334365 0.31204136866630233 -0.1322286926206957
v 0.42961484893607077 -0.48103040877304487 0.053246901401531425
v 0.5168163290225886 -0.5715422795119481 -0.00037885186891554806
v 0.1477550958897376 -0.13434953934988592 0.21142097751663266
v 0.5104288468635534 0.4881763952250441 0.010165888843947058
v 0.3602295719676622 -0.4220115268054323 0.08936107161906624
v 0.7427197278429452 0.09767580662752136 -0.13031901962936968
v 0.48280479371294843 0.46443083684903735 0.0246348586640456
v 0.21661632129945327 -0.2866376349149444 0.1662848916599693
v 0.4109714972791552 0.38504111574775696 0.06432124092703577
v 0.7499063633703695 0.44074464622057663 -0.130292619107154
v 0.5723407007573301 0.5625298575871183 -0.03338997754069246
v 0.18052549303523716 0.16103323343217402 0.19617434295069164
v 0.7386199311361259 0.030553966868604135 -0.13022485260096062
v 0.7342435241649077 -0.4664705013192736 -0.12451779126502617
v 0.642621801976096 -0.6948022411666908 -0.07664916962965157
v 0.23789601055047752 -0.29887059359025253 0.15993315496214822
v 0.7384793421106371 -0.5241210860935475 -0.12320643730896459
v 0.6523878826670437 0.6381866566153861 -0.07461172837107369
v 0.21791095435587826 0.20420264111780337 0.1690157451330583
v 0.7363225589188623 -0.2853835367726368 -0.12843744446979563
v 0.736650515268099 -0.45095954984917297 -0.1228286143480743
v 0.27754663765396764 -0.3377299077065121 0.13485474786995932
v 0.14530475167076012 -0.1502803537503805 0.21575012112721936
v 0.6979030455145053 0.6748858408238989 -0.10888941785260484
v 0.3191158288509541 -0.38205248583405543 0.10641956193918532
v 0.2631973371770551 0.2503100402110015 0.14237414218603262
v 0.7348519552176633 -0.3589083289605007 -0.12546669197142254
v 0.536216755448438 -0.5874261799914543 -0.01105074206261899
v 0.7577960341438764 0.5435819626075401 -0.12918353586858677
v 0.7343071645334567 -0.43143814987282814 -0.12725237510497375
v 0.565407261727517 -0.6171726610327547 -0.02425002274332179
v 0.7292859351560146 -0.6670856919819814 -0.12439368206480465
v 0.747913280030793 0.3890310124056977 -0.13260940791028117
v 0.6128731285820332 -0.6649198624283341 -0.05809918496744222
v 0.7403967396336489 -0.03385766454813583 -0.13194074635120095
v 0.7429785465404639 -0.0006860060442587732 -0.12264935614716742
v 0.748856058333166 0.2874464958130016 -0.13339830269220168
v 0.7467915384343039 0.19291017605091232 -0.1302893568107294
v 0.7515986530294474 0.4586369567418472 -0.1304030431614652
v 0.7535395244949823 0.22263251863053285 -0.1304738900308746
v 0.14880137788869116 -0.1102385201838716 0.2093173874355036
v 0.739044485265992 -0.024844893785279702 -0.1258714349989123
v 0.7454359803782391 -0.07390250344795404 -0.12612282195062785
v 0.7383360656845193 -0.322211022565531 -0.1230960602995492
v 0.31876017085627983 -0.3733925044294016 0.11454734218584675
v 0.7437453998676568 -0.17793881665121022 -0.12573257292867138
v 0.30809026947072526 0.2879816473662692 0.1257529084239504
v 0.1943388951991807 -0.257648571645781 0.17885524103350106
v 0.658733406379921 0.637425485107482 -0.08215348903822126
v 0.631447784668845 0.6158920685552649 -0.06635031909238367
v 0.6076998135073164 0.5972764626892181 -0.056471229802544334
v 0.7151695915574707 0.6927882013633597 -0.11203928997462026
v 0.324543622870253 -0.3856021918690004 0.10966600743888881
v 0.44769926810097355 -0.5083163850272826 0.037778047358186885
v 0.15059723371138486 0.005772827818204872 0.21579375407859352
v 0.7467775172166353 0.11673322347398071 -0.1294458107577424
v 0.7419672313186642 -0.1366638136539207 -0.12762197402987485
v 0.6136058192748299 -0.6636581114130942 -0.054451897911246314
v 0.14812509100043017 0.09820357282158312 0.21219778575713819
v 0.736532955485636 -0.39427365938278935 -0.12391961486826536
v 0.7300289027114091 -0.7139619419403607 -0.12648316172715016
v 0.731590067699481 -0.6326225868263647 -0.12058516640800995
v 0.5310920248057627 0.5084797883909162 -0.0067872336232654585
v 0.7395605496743203 -0.17818962027026347 -0.12824375057218676
v 0.7422198585885036 -0.10602139164469779 -0.11978547446756001
v 0.21136074215383865 0.19812250292420427 0.17718614543278716
v 0.34128152808598117 -0.40789022863513597 0.10109780453255347
v 0.611916182786044 0.5962658459059518 -0.05315874977344643
v 0.2794026313250628 -0.34142328912390285 0.13289963694899828
v 0.7516332349600832 0.5648686109501687 -0.13451151159934024
v 0.5195822342012255 -0.5746882375501151 -0.0012102544857398516
v 0.5781594571099236 0.5538119742527255 -0.02916872692916103
v 0.6392684976895275 -0.6879326861821438 -0.06899835292934624
v 0.36881783460856077 -0.4298888043033992 0.08648479255863394
v 0.7384964301529041 -0.26983486567433823 -0.12655979966646266
v 0.17795839768319938 -0.2423606795294082 0.19334561000669814
v 0.4135131382555257 0.39091476762842914 0.06507651463487071
v 0.470069754643485 -0.5192329465221303 0.024809387124983404
v 0.30249631196692245 -0.36144445473899023 0.12232222073930304
v 0.19043210834194552 0.18341211185719922 0.18349756244408
v 0.2826099275489924 0.26847717062130794 0.1319323965802211
v 0.38462476972742626 0.3675207200393096 0.07347611167763123
v 0.1436002928582617 0.029100214449129424 0.2169702792714057
v 0.7423341512011604 0.09176600155566099 -0.1294614375684626
v 0.4729605848498225 0.4486880449312037 0.021719026232091397
v 0.7385485507248636 -0.0879848567832478 -0.1274701581816482
v 0.7535880689555535 0.542115479923981 -0.13398378926897897
v 0.5838197451910391 -0.6335399243448013 -0.041310876597187574
v 0.5320873400719294 -0.5949807565808933 -0.010613504924870162
v 0.7497591412834534 0.6937569369473507 -0.136161277776339
v 0.7463692662923531 0.3161565664340549 -0.12944025614288157
v 0.22868486214041756 0.21264179515268894 0.16344263290959235
v 0.148021081224311 -0.00903452401988584 0.21370510605013257
v 0.24950053310921244 -0.3039628857280739 0.15200143811441
v 0.6984563821758462 -0.7451024254542855 -0.10279657535070294
v 0.1497439864576522 0.09708466939906037 0.21193176027242833
v 0.7327515588608075 -0.49021029258066284 -0.1275544570198621
v 0.18765014865179083 -0.25811072332080504 0.18722649470496786
v 0.1658553884920998 0.15420474771341966 0.20303092486270302
v 0.07896283742467154 -0.8085097372905201 -0.009065433616329662
v 0.390855224197421 -0.9947414320933188 -0.12021194840057854
v 0.16986027065198359 -0.9920233446981298 -0.12488097071852373
v 0.2603573840423638 -0.8794868318973142 -0.05479766193646833
v 0.2779705651895928 -0.9948767031330841 -0.13100293397075
v 0.2239659756168753 -0.8338645872549509 -0.028444968838120886
v -0.025599281638858544 -0.9901258032467876 -0.13483359927837074
v 0.09011278307136052 -0.9943757961795817 -0.13433654082630003
v 0.037410418996924114 -0.8520038455012302 -0.039996481147182454
v 0.3310222317851406 -0.9322506345395862 -0.08779020743385488
v 0.16063268561956265 -0.785750292705507 0.003453059714466627
v 0.03301082225511504 -0.9960728681792268 -0.1331709178050957
v 0.332186549012504 -1.000458897576017 -0.1293453417500388
v -0.014777649020904136 -0.901316408384883 -0.07723139749633294
v 0.24744524413804692 -0.9943853534607634 -0.13136609321137313
v 0.2916556370881578 -0.9002443647137671 -0.06918943589002234
v 0.13655855731077718 -0.9970148754565831 -0.1338435841014859
v -0.06682506572200013 -0.9853073637131728 -0.13282239735557647
v 0.19742527686994976 -0.8148311808260356 -0.01020508458548442
v 0.23515519997315507 -0.8523907714279744 -0.03830769553790992
v 0.001054112791535053 -0.8782913911579024 -0.06539255541688727
v -0.0035751282333327536 -0.9900322969870832 -0.12965840847822085
v 0.21620867618518147 -0.9975224546973338 -0.12507641412979492
v -0.07595233039095269 -0.9474571899764833 -0.10422661097836594
v 0.04220009419728615 -0.8501275131281085 -0.03331384455091095
v 0.05512694765783152 -0.9907709185042847 -0.12796014952429857
v 0.10955019051652604 -0.7852128754920673 -0.0005575778610161031
v 0.1823357767181216 -0.8003943431353323 0.0008285098235908048
v -0.01255937648654208 -0.898356913122143 -0.06738280327593943
v -0.04366691881666991 -0.9307852383215506 -0.08813664148940155
v 0.37071788283324286 -0.9730424139634726 -0.11651026382880876
v 0.27510563918702347 -0.9947500629153762 -0.12970169894661443
v 0.3083909304702338 -0.9142730850965116 -0.0784608948462357
v 0.05285085174996064 -0.8338734219990879 -0.02778038227007871
v 0.14906999751821268 -0.9907666206494151 -0.1270389045658285
v 0.2873392631099918 -0.907207025020495 -0.07210287945879865
v 0.07242422615955621 -0.817891611957144 -0.0167925861667544
v 0.0002927401447161616 -0.9925187408176371 -0.12349801375580904
v 0.027084449773451487 -0.8590946067600759 -0.041431506400908855
v 0.11101841927223383 -0.9974489556669031 -0.13400431203735733
v 0.006612544149805934 -0.8752125294932761 -0.0565020055306
v 0.18189917970340672 -0.8044476259519839 -0.007226203585617572
v 0.08538914685867129 -0.9914392457219434 -0.12543886380927086
v 0.26941346265022414 -0.8898013350449208 -0.055573777845327285
v 0.3087996496010788 -0.9965678783440522 -0.12956083424169731
v 0.3197497277581698 -0.924376541840044 -0.08789491029897399
v 0.015019239230763806 -0.8657746451175155 -0.0507737655151321
v 0.33938564235343055 -0.9509883757556995 -0.09623431394921099
v -0.058961353579031345 -0.9873770469965831 -0.13624544441526368
v 0.20506809418253963 -0.8259902649852118 -0.024645681999459854
v 0.25796204946334106 -0.8725606573329913 -0.04544245595224933
v 0.22850471043232903 -0.8482684633858946 -0.034951003559809284
v 0.006946884208833835 -0.9911626126271716 -0.12778411964158706
v 0.27923380158280897 -0.8954095805586926 -0.06861329351641149
v 0.09384590616370658 -0.8016398406500612 -0.0018714620843850193
v 0.04048592775067161 -0.8481423323310247 -0.035946226243899405
v 0.3367470843253133 -0.9427525550269643 -0.09386082649131479
v 0.11656995003416594 -0.996238765686665 -0.12810151776379844
v 0.21594508954903927 -1.003872386435352 -0.12892670107854476
v 0.2376032772092499 -0.9935648773010194 -0.1251789912726224
v 0.07070478312804453 -0.9959428942297058 -0.12734846411784506
v 0.17020294666161992 -0.7941936895857755 0.002855450989222839
v 0.06595689476048813 -0.8279273890306782 -0.02612581867250428
v 0.30257717093039777 -0.992839506208763 -0.1301395946816901
v 0.031593740594169015 -0.9941790103829491 -0.12988782481297295
v 0.25335147586300294 -0.8662404994240117 -0.04910535087595583
v 0.28371756268257853 -0.8966815008701869 -0.06323159298883951
v -0.036404199228417464 -0.9203649649182101 -0.07971012919404878
v -0.758331277052858 -0.2981442652768073 -0.132535444145961
v -0.6053755447778588 -0.026976532894161236 0.028670086474975508
v -0.37471433033390317 -0.20098431883857334 -0.07544135742729571
v -0.06400310378147123 0.0947100764731822 0.09473687806507466
v -0.5679976049371743 -0.29166666414992554 -0.13067186398623507
v -0.7148665662714229 -0.13313233636328048 -0.03906760544947708
v -0.03985469449113859 0.21717886463267816 0.16190690262920435
v -0.13815918369187938 0.02740915946897778 0.046039616769303585
v -0.5494444128402093 0.03261917724117721 0.06278813823364279
v -0.1769191223710621 0.2172795712213539 0.16470810308922346
v -0.3313145968099186 -0.1517822672005943 -0.056430610717074794
v -0.7678542001717252 -0.1964636391215265 -0.0707284336643579
v -0.6818448619212807 -0.30022995214059894 -0.13718756487330724
v -0.10842593345469438 0.21613456911642748 0.16382077039349335
v -0.37327381989893615 0.20293172538425552 0.1581712967347737
v -0.4329447858124394 0.14158842446137226 0.12291102350501411
v -0.1881711971983336 -0.010901896837641135 0.02813081101126919
v -0.6543660720756737 -0.07577959814286718 -0.010611830333947388
v -0.0279393118132348 0.13476224451504354 0.11889303622771753
v -0.24700998507052563 -0.07446740457346972 -0.013002717397262727
v -0.7957541242344802 -0.22089283050507133 -0.08792095742624782
v -0.8388511149541555 -0.26187086439862706 -0.11306143387981413
v -0.1032564543852912 0.06798420679670786 0.07105234599667035
v -0.6332608939453591 -0.2964433331286672 -0.13244638867415637
v -0.5223627481132317 -0.29333561690197546 -0.13438164200353925
v -0.4172002153533461 -0.23740997800323563 -0.10529994062054208
v -0.6863427587566658 -0.10414204184208091 -0.023417038785033515
v -0.2972397544964866 -0.11835576443276878 -0.031569802308794206
v -0.4604994203094217 -0.27921616411717004 -0.12479742280654949
v -0.16555836510940997 0.004677515046215983 0.038306252999764916
v -0.3317584767774174 0.2175170969021361 0.16781584601611227
v -0.21896704868843006 -0.050775056691165 0.011559226166734897
v -0.34678987318165755 -0.1707585161164909 -0.06192207191252864
v -0.46245755201969396 0.11307839120086921 0.10134403904911138
v -0.4152323263003783 0.17084893892319755 0.13108589588737288
v -0.7948714750926577 -0.300552591046709 -0.13463340574781862
v 0.0027582734737093407 0.22139598114458647 0.16668092994148695
v -0.5186309349423422 0.06517258065814384 0.07450921948410737
v -0.288531675588948 0.22464279044695076 0.16545374279180516
v -0.7545461263038544 -0.1653940987507065 -0.05871192911274523
v -0.3886095791143543 0.19197113319744527 0.15447418023654225
v -0.5226575274465471 -0.2904943565206359 -0.13745079905550894
v -0.7131874271417072 -0.13238228190921406 -0.04330206753206297
v -0.6662761854645582 -0.2928166252969103 -0.13540162329780578
v -0.05582488327767279 0.11250710558285472 0.09724464480513896
v -0.5786571930700994 0.004416565298042729 0.03670382726290332
v -0.2707287048928842 -0.09932627913350113 -0.02210161306683257
v 0.001443623168058896 0.16009888222184654 0.13671747687624825
v -0.24531330667878443 0.22565728497706092 0.16174164714175013
v -0.08317677969141195 0.08619132805168186 0.08562229192990393
v -0.6356592370266582 -0.05860251034721929 -0.0016182362129174314
v -0.207193773928989 0.2239411854492072 0.16707015596797276
v -0.44552121310498993 -0.26052799765041995 -0.11749813457261134
v -0.13130781370401914 0.22330326323848343 0.1676238828615326
v -0.2020986009648813 -0.03001419578273452 0.021289128550205712
v -0.49631724652148435 0.08436395622316135 0.08182687425795312
v -0.5906032448282765 -0.29854657146881397 -0.13939193491686067
v -0.8035556076912427 -0.22409335843731948 -0.0837887267340377
v -0.6361709219298544 -0.05497054047704852 0.007779973454761108
v -0.4876776223973567 -0.28815425081973 -0.13344068312862367
v -0.4821972066421059 0.09465022386935651 0.0933172509795896
v -0.4104412997981501 0.16121922403582856 0.13072105253346322
v -0.14408605090765234 0.021367931530374987 0.04579362177616223
v -0.07924948256514736 0.21712728180222607 0.16123282886723347
v -0.010825830462230323 0.15206503700617227 0.11911944630824312
v -0.1854227404930464 0.2169932694973748 0.17012617752931333
v -0.023120424761326027 0.2179196315310958 0.16300675825369831
v -0.1576458308776044 0.007758256521426575 0.04779952031363828
v -0.5882345829383222 -0.010652351122279444 0.027516199213038724
v -0.30926163632648895 -0.13729693941300955 -0.0442265986366725
v -0.0408322821707911 0.12296551306573142 0.11061414423260492
v -0.4544005365402852 0.1206821118187518 0.11121608449230051
v -0.11963244050349495 0.04483703859597638 0.06666137570661548
v 0.03696296318487741 0.1949612824899366 0.1526435119206863
v -0.1540416077334035 0.21873504592508644 0.16279864435530034
v -0.30566205223058 0.22116418400492924 0.1603221894598268
v -0.4045315515083907 0.1769525047918129 0.14554805695510437
v -0.39172067315774883 -0.2118407227792439 -0.08108124190521004
v -0.2704749168866701 0.22269093439410578 0.16923371156051045
v -0.3320159817324661 -0.15032972258240307 -0.05055092331777588
v -0.2602415215327935 -0.08550289437288414 -0.014565337448791597
v -0.5904880294814648 -0.007911216230515054 0.03324658625848024
v -0.5270821459369809 0.04916796011278163 0.06991928396886958
v -0.7321499650016059 -0.15110211925139186 -0.048463615263838654
v -0.7268203355067 -0.3000122112360086 -0.13588951007651243
v -0.6442176363284629 -0.29799968599243665 -0.1361844117063532
v -0.7523360763189477 -0.30096923835537914 -0.13051043996146908
v -0.5691248801534043 0.017507451618439536 0.05228847041219309
v -0.4293195704539251 -0.24752075790353448 -0.10625783401819988
v -0.6258839806642228 -0.0483132704247373 0.01797777168759753
v -0.36627860674530677 -0.18309655018331975 -0.07304938480027989
v -0.8232848061433625 -0.245414424336428 -0.10521214428103817
v -0.10170581362292595 0.21952623638830557 0.16178229712957082
v -0.7049742041035879 -0.1283931637256732 -0.03619704534229823
v -0.7475249617142689 -0.17131118532456585 -0.05614373267490967
v -0.34838542112940535 -0.16817481460796094 -0.06261540488648402
v -0.2094074121352397 -0.04062982380220891 0.012118276164992947
v -0.4320430338260333 0.15309444527149296 0.12247434232632214
v 0.015389869083095933 0.1677158412459307 0.13317688947269532
v -0.2723639351000734 -0.09760146379152723 -0.022891361394176968
v -0.30698180409429754 -0.1357635619576855 -0.034861349007130386
v -0.03227879720634287 0.12657813735441106 0.10849046050466232
v -0.34309383179741576 0.21882291711145535 0.16609689494357743
v -0.7804527968835482 -0.19861248797161138 -0.07593140582001384
v -0.1562468803337363 0.012655569568779931 0.04161469921540884
v -0.2475843496548097 0.2200619884536684 0.1694328529416539
v -0.06838841102644672 0.09328614630551965 0.09270216677805496
v -0.6687626989512618 -0.08557826891994662 -0.013849940871412805
v 0.01617286902367518 0.17253945395781406 0.13909839615522976
v -0.06346151357146089 0.218925227024456 0.1668093013671135
v -0.17505551833598523 -0.00660175235795798 0.02889208783416544
v -0.7345263285813339 -0.15956230877225247 -0.049642361305248794
v -0.2169891112586999 0.22403636025926252 0.16379366328044564
v -0.2831620561726659 0.22266509705970078 0.16362413936189754
v -0.4107608188127478 -0.22639551149653803 -0.09754161199787649
v -0.18004020939939996 -0.010258345586213734 0.025671401201207422
v -0.7788768332801967 -0.3054808988704583 -0.13941187672261673
v -0.3572552477671768 -0.17377783539096217 -0.06906427125365357
v -0.09580314126186257 0.07594663586378113 0.08645388098400661
v -0.2836598721085352 -0.11309392687233011 -0.03293540795665684
v -0.40687692918193186 -0.22906390554184652 -0.09315262458189336
v -0.5624994597698058 0.011223796187080269 0.04528171583719889
v -0.5319770175131688 -0.2935329995598422 -0.13146246816110593
v -0.8297697231608494 -0.25041855618339853 -0.10299098093256707
v -0.4461887406539546 0.13541509853443712 0.10968366588922832
v -0.45322400658461004 -0.2692766170318172 -0.12401245193631358
v -0.20872846004100137 -0.04065131672412094 0.014878445760458277
v -0.691577480613588 -0.2950193114605314 -0.13555856181999873
v -0.23411019678848324 -0.06641777730761247 -0.0008391424304344989
v -0.4692080799074528 0.10539421791897487 0.10014449984823284
v -0.4052699756299194 0.17959660480294073 0.14398768316038413
v -0.001604438992080404 0.15335700516613845 0.12679811354541412
v -0.22492589053334616 -0.05325390565643 0.008382833657131257
v -0.07462813701464838 0.08520980057663571 0.08816639712829805
v -0.4440747274798895 -0.2544388364982054 -0.11321129063373751
v -0.746235746934625 -0.29781289811356965 -0.13252922109497428
v -0.458971863352039 0.1169050055941372 0.10241103203474215
v -0.5493855550373864 -0.2931948896242454 -0.13547248123614739
v -0.8066819899048705 -0.21612967625630689 -0.09379953828860732
v -0.6529267929080047 -0.29559810604911546 -0.13700137304394747
v -0.11641577232873337 0.21772235146096747 0.1653694922185954
v -0.23105848986311778 -0.05641524678979529 0.002060871771081129
v -0.524275565145313 0.05157958655735243 0.06047077886453595
v -0.15062889932919402 0.01690668408765778 0.047732516282563725
v -0.7549547757050878 -0.1840197380175024 -0.06490269383038912
v -0.12126161068289765 0.21495625784440545 0.16200918664187017
v -0.17045133209047098 0.22211775695585734 0.16629223863338996
v -0.4890325191557781 -0.2889980532952576 -0.13288193008521554
v 8.86473766956524e-05 0.21409471335567656 0.16942769376003447
v -0.43882424237006035 0.13404929791973902 0.1150917703695109
v -0.7071397496810793 -0.3038684682953271 -0.13418632088181623
v -0.8508617518830305 0.7541736418954398 -0.13225919324990626
v -0.8769023101393558 0.14418730129970153 -0.1437447436164556
v -0.8676266268991688 -0.07526237228608122 -0.1425423787089931
v -0.8697952393375374 0.5667051825314016 -0.14152018945019523
v -0.8740004513852765 0.30646500923555414 -0.14284348058344715
v -0.4002912015994715 0.17741805863582352 0.14293101130941296
v -0.8854696957005966 -0.2409746506619856 -0.13714024922397683
v -0.7771587020332336 0.6680315764488368 -0.086882693080927
v -0.8686099047816533 0.4267489204717854 -0.13572529040801998
v -0.7817506160655904 -0.1972026808537733 -0.07997188060480004
v -0.4386047011170754 0.3127918456533879 0.11104091585003728
v -0.8689407078588106 0.6574916682776354 -0.14147926783691384
v -0.8745004806100891 0.22100051376774552 -0.13903725091193536
v -0.6604874205312904 -0.08336688097102037 -0.010047369520933637
v -0.8813501975017068 -0.14000180003843143 -0.13667227513364796
v -0.5034290122851115 0.07973440407225794 0.08569248499550021
v -0.5669200687954923 0.0068305456965504574 0.044249186703497576
v -0.876376963532911 -0.018640915946828724 -0.1383701979170236
v -0.8783723593353346 0.07577500890351856 -0.13989056565791969
v -0.8715099711956066 0.36320261835656215 -0.1438751251147445
v -0.7256247889669136 0.6078399115748044 -0.0550387744238224
v -0.7495018272875676 -0.16686548712067079 -0.05415788251133935
v -0.8681810425173355 0.5100111928718624 -0.14058999259111182
v -0.4062153867697313 0.2735613263613642 0.12922471463834814
v -0.6005359250893839 0.4807853415290702 0.008653083437525444
v -0.8793810420610405 -0.19897784273217328 -0.13264807688106092
v -0.5384773682636081 0.03682869903237422 0.06129734180372634
v -0.7011534005583017 -0.1244302680128552 -0.03225540746870313
v -0.4581478672395683 0.3325880617665316 0.09900910348917072
v -0.8712575492288253 0.19181306376985213 -0.1352996601056741
v -0.5561740470490798 0.43339263388541177 0.04433753537374477
v -0.8796615755795368 0.042760008098952224 -0.13852949237920567
v -0.8687635947712165 0.6091186294736146 -0.14303927236751035
v -0.8712103939441019 0.27019579685667233 -0.13803513465917777
v -0.8745925695190853 0.22627484522109895 -0.13848275370921947
v -0.7320490884132475 0.6311920672234586 -0.06302341959178742
v -0.6162622878339645 0.5005030325370554 0.005118695159485022
v -0.6522928758837316 0.5457109040126594 -0.013122736848735227
v -0.6367085168391742 -0.05810139096516994 0.005645600442686724
v -0.4024709623750255 0.2688473607065028 0.14475003150975432
v -0.5966203864452496 -0.012660966680438432 0.028284915047903272
v -0.8693880734417603 0.40058630445139143 -0.14130278972076027
v -0.42828373590625307 0.14834117894285545 0.12472526264882985
v -0.8774931571470216 -0.060051245952699894 -0.13989362152530455
v -0.7751587324384291 -0.1928296500402048 -0.07154484254712758
v -0.86929131070052 0.6839886977310681 -0.14458009229382374
v -0.5082789888784264 0.3807917025188269 0.07506346415769802
v -0.3859333556883346 0.24586493287797917 0.14835016284243893
v -0.8701110287809578 0.4668433552327116 -0.1445184714263607
v -0.8193209649034371 -0.24583813731034526 -0.09638645134991558
v -0.4494357816373093 0.12563640186435382 0.11152484029012562
v -0.6873615875025058 0.5824546862846192 -0.03209362190803244
v -0.7932640853130338 0.6948133236351213 -0.0996476498129327
v -0.5773563774835805 0.452679967738512 0.03272902569525723
v -0.71298214601795 0.6059319922019966 -0.05038377501049585
v -0.8772962832706862 -0.10755130911636364 -0.13437019798054362
v -0.86421161194029 0.5676763390752133 -0.14744208676564236
v -0.42603639219168205 0.28965489873097855 0.1266219161401777
v -0.4654999788597154 0.3358904198591295 0.09904908201686109
v -0.8735882942610751 0.14806595826749833 -0.1406083480251677
v -0.8750614344129438 0.3919129529673463 -0.135401102211434
v -0.36918793275472 0.21435342857960482 0.15591013464802075
v -0.47153263769823206 0.10166845968352627 0.10192815946071632
v -0.8814498494317379 -0.27682564331874154 -0.1343476940721465
v -0.8765588696376571 0.07903841146671856 -0.13781049576293797
v -0.6368544006964 0.5230029605348009 -0.0031791412458047246
v -0.5241977328341739 0.056426980433790776 0.07536712520568117
v -0.8149812467099949 0.7125187230081846 -0.11486261810825649
v -0.6609824923865697 -0.08706347039341111 -0.013617218990332256
v -0.6714207479255637 -0.1049369178149296 -0.022155541422543702
v -0.5455030257246392 0.0352032183668802 0.05422786831817241
v -0.5342125432334834 0.4125369986754966 0.06138734738068793
v -0.8742759556518932 0.2779040942775401 -0.13435472764188608
v -0.5621430984501561 0.016612991366261067 0.048627745560849304
v -0.8704940165968473 0.5353345041171439 -0.14258256633111288
v -0.6144382034153886 -0.03213820601345599 0.017186142841086157
v -0.4823989503197002 0.3565489471108256 0.08938813931809156
v -0.8365479474056351 -0.25509521195232 -0.10683323319828925
v -0.8809737425176593 -0.17840787122786145 -0.1391741395455326
v -0.7264085516666077 -0.1558806349483599 -0.046141869308568874
v -0.8742579706498247 0.11272312714682314 -0.13733939763244812
v -0.8686367608808933 0.31686816229127335 -0.1385340464262034
v -0.8744183059947763 0.3395739622750813 -0.13946252682836063
v -0.88235395304304 -0.16327441092439923 -0.14104805229886946
v -0.8753043555196337 0.06477158941702199 -0.140606833476188
v -0.8684393962742303 0.7186439880676533 -0.14078394399038355
v -0.8801106848331085 0.015175240833711641 -0.13956839127623435
v -0.8747211837761167 0.17622411505775534 -0.14455069006462107
v -0.6165177016194751 0.4974013243556478 0.0030653401315185874
v -0.8749259709058904 -0.04166331161068006 -0.13350816544793295
v -0.783429668412027 0.6802075726655843 -0.08945099579994062
v -0.8651634185352689 0.5118126235528105 -0.14201421840063072
v -0.4451087250325372 0.13556119226441166 0.11646355309566897
v -0.4809843349657925 0.35814867422519125 0.08932345162968013
v -0.7620716189907437 -0.1813081777684914 -0.06970928587533662
v -0.8678749248631923 0.6662756457557296 -0.1464930843937472
v -0.7917592492660941 -0.2123140708611929 -0.0818436894765892
v -0.8735729829705664 0.024253022977128013 -0.13949722843901594
v -0.670194493967262 0.5611997186619023 -0.022913860815419924
v -0.5526324059166723 0.42886039736144127 0.03999334623667575
v -0.7251302185922883 -0.14058308856657223 -0.04428760483086084
v -0.6500890648032545 -0.07349424846742753 -0.005131651184868339
v -0.8779191063677952 0.24782461598769667 -0.13481806795945453
v -0.8719161309346328 0.4303736045135414 -0.1409629134673528
v -0.8667229196582056 0.6325748681244453 -0.14187425957353722
v -0.8491346438885536 -0.27320887168042207 -0.11670994055558953
v -0.6976582944385877 0.5870203135477602 -0.04190574425433353
v -0.8803030213412106 0.20887390212232004 -0.13642805662586185
v -0.4162579614623897 0.28040212026897077 0.12708457213159835
v -0.758355139270878 0.6480296914426612 -0.07684984161727099
v -0.49192087433378756 0.08579997866338385 0.09563664279794193
v -0.8783011055601077 -0.11855160027715016 -0.1286669126622863
v -0.4479762598171317 0.3227383759133804 0.11205374693430202
v -0.522373532606599 0.4064316461793361 0.062288848972339037
v -0.5771498231294473 -0.00178296662848931 0.04092326854653619
v -0.4887898636944988 0.08453688967389109 0.0888939769907206
v -0.8803930360263246 0.13120951750127935 -0.13738680266737807
v -0.5688482683605086 0.45988859595349985 0.03429618716746829
v -0.8732083284749715 0.39361478065558264 -0.13801012236432236
v -0.4592432418910801 0.13164978853094045 0.10671325810125908
v -0.7105704320701204 -0.13379466288585065 -0.035801037682120715
v -0.8779103153588081 0.0914279179302437 -0.1404611346536577
v -0.8764572490904851 0.1699687589365322 -0.13545246460757918
v -0.8730492062634021 0.48245841859050254 -0.14220037505769195
v -0.8660168160485775 0.5248640369521073 -0.137450930044378
v -0.8786598959985797 0.3042381073163535 -0.13914188022119292
v -0.4086655007819459 0.16872445674750086 0.13202492342007313
v -0.43027897842005175 0.2986436224033825 0.11697985600146864
v -0.874662496743002 0.34087495374776966 -0.14344366697633723
v -0.5630046012829143 0.019081472000076764 0.04936923567090588
v -0.5176672541804891 0.05920616936295863 0.07453256645840392
v -0.4415822370424367 0.1364893738926766 0.11183711842184325
v -0.5248081732395227 0.05308606565636938 0.07027685160559038
v -0.60714463158977 -0.03537425365828013 0.01786192791831638
v -0.5007650835003984 0.07860150084498972 0.08329248486189722
v -0.8067339173859118 -0.22875441792513074 -0.09226820318479048
v -0.7361210062963408 -0.1621821993037407 -0.05503776981290288
v -0.5784272218034854 0.4623168723686567 0.027895424003171677
v -0.8704352581764602 0.4145969825800461 -0.14285776579117804
v -0.6897468321752313 -0.11365982311187936 -0.02842551338622515
v -0.7476578593583376 -0.1721664888767061 -0.062106004244825846
v -0.8681758771076619 0.3007505258381413 -0.14004766804394966
v -0.8663863333073052 0.5915565267755973 -0.13966547723661804
v -0.8738042202202373 0.34423569978288704 -0.13917967136275777
v -0.679632609826759 0.5554606802504843 -0.022250193560922865
v -0.3798739696837494 0.1996883143220926 0.15185838465572685
v -0.8710674819554548 0.239809456293556 -0.14260856625713803
v -0.8678291259061564 0.6270784357363541 -0.1408276618422101
v -0.8083014917436836 0.6974744403789339 -0.11600264601665618
v -0.8729822313636713 0.41273013470502157 -0.14034674405967215
v -0.5992707828702616 0.4759057844470122 0.02106201842577269
v -0.39832468066389526 0.17821892046982551 0.1417726933944498
v -0.8737720589798841 0.45615620324401623 -0.14320379850427647
v -0.5827928443941549 -0.013302774416398974 0.036465843149450915
v -0.5431416937552683 0.41867431969033436 0.0494804064386531
v -0.885925982191977 -0.17515683876821403 -0.13583467876095423
v -0.870484953655233 0.5939167875056788 -0.14205139811066345
v -0.6070156614269201 0.4810450487184118 0.01837193196504797
v -0.5495745235558152 0.02593240241710395 0.05118193229361888
v -0.3920360336541166 0.2590374491179615 0.14995377696339499
v -0.3916861988396649 0.18454523306567466 0.1421617586546253
v -0.871617079245189 0.38096487445291366 -0.1366532380659341
v -0.8744415573199634 0.20627049016741025 -0.1364785924993592
v -0.8635925017785914 0.5157108118194387 -0.14030302986863713
