v -0.9618535041809082 -0.10986464470624924 0.028888113796710968
v 0.416298508644104 -0.4933943450450897 -0.1359422653913498
v 0.882390558719635 -0.37996530532836914 0.030238041654229164
v -0.9908437132835388 -0.28739237785339355 -0.13580597937107086
v 0.8525475859642029 -0.5517030954360962 -0.13459253311157227
v -0.8755812048912048 0.4184408485889435 0.0618775449693203
v 0.9157940149307251 -0.1177138164639473 0.11204639822244644
v 0.959208607673645 0.14829474687576294 0.0627082958817482
v -0.9197025299072266 0.14825452864170074 0.11188417673110962
v 1.0074037313461304 0.44858911633491516 -0.2489747554063797
v -0.822169840335846 0.745513379573822 -0.2951456904411316
v -0.8417551517486572 0.6255785822868347 -0.09437284618616104
v 0.9933044910430908 0.3572082221508026 -0.09437284618616104
v -0.00441982364282012 -0.5428356528282166 -0.14350329339504242
v 0.4096284508705139 -0.6104798913002014 -0.14395110309123993
v 0.011431091465055943 -0.43549373745918274 -0.13602663576602936
v -1.0058411359786987 -0.37922996282577515 -0.3334830105304718
v 0.0004477776528801769 -0.530569314956665 -0.36654382944107056
v 0.8385310769081116 -0.6107985973358154 -0.2386549860239029
v 0.41702800989151 -0.5520685911178589 -0.2539718449115753
f 1 2 3
f 2 1 4
f 2 5 3
f 6 7 8
f 7 6 9
f 10 11 12
f 13 10 12
f 14 15 2
f 16 14 2
f 4 16 2
f 16 4 17
f 18 16 17
f 2 19 5
f 20 19 2
f 1 3 7
f 9 1 7
f 8 12 6
f 12 8 13
