v -0.736473560333252 0.7662023305892944 -0.16198131442070007
v -0.8279290199279785 0.2965783476829529 0.11612428724765778
v -0.1140274628996849 0.6448391675949097 -0.15959082543849945
v -0.9203572273254395 -0.17804014682769775 -0.16500619053840637
v -0.3153800070285797 -0.29664504528045654 -0.1620548665523529
v 0.05009060725569725 -0.9204702973365784 0.11577492207288742
v 0.5194517374038696 -1.0119524002075195 -0.15955404937267303
v 0.6280708312988281 -0.4538187086582184 -0.14910945296287537
v 0.25248289108276367 0.07827060669660568 0.11636335402727127
v 0.7121821045875549 -0.02175739035010338 0.11560941487550735
v -0.4192742705345154 -0.8289881944656372 -0.15909434854984283
v 0.3692095875740051 0.6550043821334839 0.11636335402727127
v -0.09380023181438446 0.7459751963615417 -0.15486502647399902
v 0.8265373706817627 0.5657693147659302 -0.15135283768177032
v 0.7881609797477722 0.43054983019828796 -0.15218031406402588
l 2 4
l 5 9
l 6 7
l 3 9
l 9 10
l 3 13
l 6 9
l 9 15
l 7 8
l 4 5
l 12 14
l 5 11
l 10 15
l 9 12
l 12 13
l 8 10
l 1 2
l 6 11
l 14 15
l 2 9
l 8 9
l 1 3
