v -0.09379137392687145 0.7408790481718497 -0.15784304962214962
v 0.3477392778328034 0.6616794801007815 0.10647338028526822
v 0.3112782354097546 0.34920557094057825 0.11723763774768385
v 0.09043919863572596 0.7084444673202228 -0.0516408415079526
v 0.09605521223422189 0.3160254035088394 0.003901100264415364
v 0.21593452496621612 0.6856029230233925 0.030665633346194494
v 0.342418245845387 0.5389631664323385 0.11593007489229097
v 0.0003068017233898712 0.735556419640547 -0.10312640480583796
v 0.3231432145469304 0.44080309628784015 0.11517013015352545
v 0.039822847411091995 0.40214789193497963 -0.04080743737487631
v 0.21880357200043488 0.13792404242312017 0.09289334592537833
v -0.11016056451185391 0.6616166367223263 -0.15472958480111587
v 0.14889223214983255 0.7015138726109865 -0.010570058434564412
v 0.3516247984746359 0.5962836345146232 0.12083028262060051
v 0.13765408053053782 0.2436446401367431 0.03309915637559376
v 0.04010078605154188 0.7202751826542023 -0.07345327844363093
v 0.27792070113645506 0.22815967053712452 0.12040207463611995
v 0.33721692008679405 0.49593735417495965 0.11700553494220776
v -0.05314936875312848 0.7425636407326597 -0.13079705495903204
v 0.2824989745351924 0.6652233562811908 0.06471124958831838
v -0.07729817251088532 0.5861183592732288 -0.1343109538873717
v -0.10302582941856364 0.7020212249255758 -0.16279396563756313
v -0.03299429652311841 0.5278843850601201 -0.09452002774463424
v 0.1909847649004685 0.1819999086245759 0.07170433276705587
v 0.020605085345203254 0.43542819788666737 -0.05854333544155739
v 0.27146914755289603 0.18291929508905375 0.1196433239638367
v 0.07934210190781692 0.3461550302907723 -0.017780410713116084
v 0.3061629498241776 0.3164677698701828 0.11809871412081664
v 0.23880760036489498 0.09242289350826843 0.10714533179814659
v 0.24917828908693426 0.6809244612814958 0.04133190669265371
v 0.12027941407468819 0.2877797028006287 0.016132043534087797
v 0.3154123236973751 0.6636393572337019 0.0851927458338007
v 0.1623073040824837 0.21825685118897292 0.0497101069476473
v -0.01555614202135979 0.49195880433339123 -0.084090764130136
v 0.31464941038440664 0.3846080454005144 0.1198507878572998
v 0.3604610102160842 0.5980030252558739 0.11619347519939921
v 0.08934176087844886 0.7106147138825037 -0.04841106981401917
v 0.184783331336369 0.6873176694715862 0.008126680158237304
v 0.1266331487300302 0.271032633549871 0.030904938189146372
v -0.06361351017417821 0.5691805692584416 -0.12662549096241812
v 0.2518383263867971 0.6734248836633198 0.0533218868703495
v 0.009113291515508284 0.7268013482326433 -0.09503108649918109
v 0.27235966394565453 0.19101849814929073 0.11828133734943855
v 0.34935097721595404 0.5387872290742747 0.12018137551349488
v -0.023593489243452292 0.5059979095864657 -0.09146215484155072
v 0.004022695293390612 0.4646567715584913 -0.07513329292019688
v 0.33228022014255965 0.4891273782849246 0.11432570592649545
v 0.11146425596141912 0.7037533683252784 -0.035099486140909755
v 0.04696564516098335 0.7177309827932854 -0.07293337499325636
v 0.06500112182405204 0.37025982504642246 -0.023880745437483725
v -0.10996763606533112 0.6691299250920685 -0.16064492660792823
v 0.17835108955190723 0.6916110700986279 0.00702769357618031
v 0.11452859177460865 0.29573687728203873 0.012901567661572303
v -0.018500705604608078 0.734595747049089 -0.11087301082208087
v 0.21327428576314325 0.6808555387751004 0.025296942245795765
v 0.3000665005148783 0.30431801959680316 0.11690726815492039
v -0.08085060293527715 0.6003031826187064 -0.13692816894276405
v 0.28529995981091444 0.253822717240325 0.11869219184156368
v 0.08637770059694165 0.3311155072712122 -0.012065014188873718
v -0.02581440484192111 0.727013271232743 -0.11880615466462671
v -0.0436689692196446 0.5437745162071945 -0.10514736393243472
v 0.035518593123583415 0.42828152053610946 -0.05150958711138697
v 0.15888062963326102 0.23025364545307125 0.04266142390256717
v 0.35595349830003375 0.5657943926686788 0.12032155968817101
v 0.2688936153679011 0.14902179079440928 0.11521765650298495
v 0.06163966515886918 0.7152922777357926 -0.0651825815198779
v 0.007894565318910893 0.4622608431053941 -0.07219931559813
v 0.3279479250769716 0.6676738128871976 0.0938102566467914
v -0.10146514846380082 0.7073745590774113 -0.1555366990494744
v 0.07221722497081937 0.711979030182536 -0.056407956109731705
v 0.2990981371307766 0.6688327823041598 0.07955210145858839
v -0.11253260730432212 0.6314007492988384 -0.1535172842167427
v 0.2739364675714616 0.670407872818982 0.06549259545188921
v 0.34249794121832733 0.5176517390421679 0.11743841141550652
v 0.22331732418132838 0.12056118886140502 0.09552663289341753
v -0.025619038518100795 0.5068450203272475 -0.08713800258478402
v -0.01486468943024716 0.4893581727627778 -0.08506527014991415
v 0.19243103796262354 0.16962026909040623 0.07871226737817635
v 0.35823307515304303 0.6334966918547067 0.1183755781187338
v 0.3346998621220268 0.4772800672981806 0.11179869405054861
v 0.31841833903600897 0.4069521488961644 0.11947090885929751
v -0.1079100856299881 0.6801286829317035 -0.1592721657279454
v 0.21022225335530922 0.1486882678287726 0.08575537811284023
v 0.3416682743383471 0.5130676054088819 0.11331150754489391
v -0.05378731118357617 0.5585031347605731 -0.11239328619398148
v -0.07163442250560804 0.5760800686539176 -0.1238107418157338
v 0.10690720170414134 0.7074421795310734 -0.041813009575910005
v 0.2859518868240819 0.2422614232129895 0.12173959115995708
v 0.1714281850200419 0.2016599509292326 0.057783349282543806
v 0.31039538468799277 0.3658447248858551 0.11393596958788993
v 0.29921185208696216 0.2823158252110357 0.12030504598232643
v 0.27600060916664604 0.16910245953476083 0.11290411614392033
v 0.19265111932725137 0.6937870456890421 0.014689500516473167
v 0.1227668993432066 0.27489428158570983 0.016815691682136927
v 0.23341783408591507 0.682483841096091 0.03989161436394747
v -0.0733487988517193 0.584095269171246 -0.13133179219674657
v 0.06034317658110102 0.3795953256972619 -0.027797834693099335
v 0.025319880825289767 0.7187902024900784 -0.08270030138692536
v -0.06786376718818919 0.7354191525754195 -0.13671113278566824
v 0.03872725606754849 0.410990168607885 -0.044569498129763546
v 0.27679142379482136 0.20358797768984924 0.1139576077801368
v 0.1498575393793603 0.2299938589536465 0.04908204985114702
v 0.339151362273524 0.48362828302979366 0.1181939104144275
v 0.1676732616857662 0.6952984907693899 0.004898738638287903
v 0.13444214794143397 0.6995539301584766 -0.019512825647535
v 0.30613111257804415 0.3386824545150528 0.11638810143509183
v 0.3294605379441376 0.46306137156278326 0.11745978175066486
v 0.28649348541575714 0.2540287578339917 0.12119626625300187
v 0.2697171258991703 0.6769458589018522 0.059811478139748846
v -0.09849099139402587 0.7327685272932948 -0.15479195223050968
v 0.269151001603261 0.16861162347906564 0.11430725629694796
v 0.14696775439096207 0.2476188315663502 0.03731390395738175
v 0.20373006885775247 0.15759601870074097 0.07706510621294925
v 0.26684296577082645 0.13098775744776667 0.11706236618029894
v 0.04649627389723309 0.7200277210153537 -0.06903740428154476
v 0.02596982101631674 0.7241083724329835 -0.08981593693103054
v 0.32165046664209845 0.4214439574574411 0.11136890437862838
v 0.2591053722642169 0.12241824527254075 0.11327854625836153
v 0.12456503374723578 0.6987083876479351 -0.029468016100049937
v 0.2849829768343545 0.22389226740808868 0.11900863455135528
v -0.05837853072339898 0.7319035098214639 -0.1298255221300111
v 0.10560753982358849 0.3089371043642589 0.0029492806962622582
v 0.3238116631463322 0.425298448585469 0.11889311957992506
v 0.07242716286205755 0.36514648809452854 -0.016872539252290167
v 0.30109939893489573 0.32154918469583704 0.1148306781580185
v -0.07875902668831629 0.7427380353208349 -0.15075171468484344
v 0.2958169272445209 0.6680707369659664 0.06751187144869292
v 0.09033183457709687 0.3254368040368477 -0.004740619248456743
v 0.10222268981269489 0.31122955690919935 0.005544826361255765
v 0.34590873601651145 0.5459163817001462 0.11889793169572196
v 0.052458219564402185 0.38647334791478866 -0.02858048025649087
v 0.17477986018324948 0.6953971739192196 0.0021205925439761047
v -0.036231051589045694 0.5321934309604911 -0.10275478297209209
v 0.27816420750779564 0.2179351222512592 0.1120248188646879
v 0.3241418683568572 0.4385997243886842 0.11646731145121111
v -0.04272432977954789 0.5305304115104097 -0.10153636663639262
v 0.04017104765972783 0.4147308724765248 -0.04941448412923524
v 0.3573114064329062 0.6176869204579339 0.11061077240467027
v 0.3272526605010017 0.4518845057193991 0.11748941343194774
v 0.15928700449611535 0.20982525008865954 0.05173545105649263
v 0.1664494089969305 0.20308305349492126 0.05788233043007158
v 0.2872583762318622 0.6694697829416142 0.06584670558093021
v 0.3129076507383037 0.664771533297485 0.08378071449154645
v 0.12114797280123402 0.6985410737272325 -0.03126663041057957
v -0.09445740471116147 0.6227461871716162 -0.14747310359585822
v -0.02495909442747506 0.5076255280596036 -0.09316194505919977
v 0.27209462947629864 0.1647662241460382 0.11067673102360971
v 0.2772366086068386 0.6743433384604164 0.05955069767701119
v 0.2900470180056932 0.26620810470501816 0.11347687432492967
v 0.3524901135832884 0.5526985133737894 0.11235020415173556
v 0.3127586453933946 0.6670396466560146 0.07977435002307527
v 0.06536140806559045 0.363469241805846 -0.02356908848750628
v 0.043437557667338214 0.7215540052549921 -0.0765230451701339
v 0.35959429106378543 0.5901155945954225 0.11564288538558912
v 0.22300337691745598 0.6805469774275154 0.02920892629120237
v 0.08448977420391438 0.7084758611193751 -0.04743905267470987
v 0.8096494902426982 0.574376553458387 -0.1407820251440129
v 0.5050523161084303 0.24459131891476438 -0.016657887751719582
v 0.48063223278783146 0.6363345277755832 0.052668052868102166
v 0.6953267249042636 0.592164152142877 -0.07327462280709074
v 0.27994340504787235 0.19339361777323366 0.11406302705611865
v 0.7955219915271045 0.45907307703235767 -0.15172767099454285
v 0.6921044988413724 0.36828498609493143 -0.10252128176211364
v 0.2917866074929411 0.2699372686873178 0.11340211743006075
v 0.6015341720415427 0.6041528812397591 -0.02434078204059943
v 0.7417481463135281 0.5806624735836684 -0.09999361355470845
v 0.544781602793483 0.6206356604138431 0.011591626604491319
v 0.4531237926710416 0.21081276585105893 0.01384361240422002
v 0.3676488897646689 0.14666161949643683 0.06380335425831926
v 0.4230814302557226 0.6458589231704245 0.0809000117382519
v 0.3034093012944219 0.3331002704703819 0.11792577579092592
v 0.2670439951111612 0.147364362121985 0.1193618906512965
v 0.6512409419263048 0.6010854815434138 -0.05190269981496429
v 0.3571043562062448 0.5901995480686552 0.12288718918088168
v 0.3318207546619015 0.48229808732353435 0.11771387474252219
v 0.3283511456806682 0.1303582872787243 0.07863730182737183
v 0.8070844570189211 0.5034548795283209 -0.15238605321369908
v 0.4013914197950191 0.17068541928589917 0.04214778818204169
v 0.3120557462128249 0.37491179787405055 0.11485801253689082
v 0.7369397473276315 0.3931717100445379 -0.12504012834248238
v 0.650023483262235 0.33052846825219917 -0.07785381463340413
v 0.5339954461715967 0.26212850081287115 -0.027453831050849288
v 0.5514226982994617 0.2757368561203447 -0.03568526055035722
v 0.6048397618009032 0.3055472229808299 -0.056209094801619834
v 0.4495292034749085 0.6413422261408271 0.06645934319309668
v 0.707250569498807 0.37523515612577196 -0.11107706015229202
v 0.5130216633623886 0.6251638589735184 0.029403370586847194
v 0.6419185412174804 0.5988726399023523 -0.0417467720668788
v 0.7730138046604161 0.5758715922062677 -0.10910183904880047
v 0.5910723946471026 0.6114210318373176 -0.01646784126279705
v 0.2948667613288587 0.28997466805021765 0.11590610778501664
v 0.3827417666515747 0.652072888891541 0.10387791228382871
v 0.5480009257569807 0.6134465336314585 0.013154770451598732
v 0.49349511077884467 0.2345659546722587 -0.006686464192641632
v 0.7760253916280158 0.4210320502225619 -0.14528625306773058
v 0.33064556822171903 0.4567544857545804 0.11559230198246372
v 0.28530939845347253 0.23224720769267782 0.11993590737771158
v 0.680052467862519 0.3575348364111417 -0.09704367222989024
v 0.57960585230669 0.6122983321755382 -0.00742818922287054
v 0.3419508810327083 0.1387945086415143 0.06813856047282167
v 0.32623491830564244 0.4176094819774024 0.11642422923179502
v 0.7061104047068689 0.5880300807952666 -0.0818349534690186
v 0.8151677812393131 0.5222380453078098 -0.15357774791556414
v 0.3094089132505919 0.36388358842719914 0.11628260987189172
v 0.34428880821404373 0.5548148154762195 0.11590716156018342
v 0.26139143657784986 0.11294712483422668 0.11604494714402512
v 0.3724776375517688 0.15465332883771904 0.05558680870988657
v 0.35504867309102345 0.5702625512750525 0.1167741884822905
v 0.5705351871809683 0.2909638284865333 -0.04228740547799574
v 0.42829128198696914 0.19522904468734756 0.022606367002209964
v 0.6169693538301084 0.32550582953745455 -0.07218017389957024
v 0.5078238334842701 0.6245125052148728 0.02747460107600862
v 0.2704075820479678 0.1705282519568834 0.12076811405978337
v 0.7552434606402647 0.4120333262363821 -0.1383461181341607
v 0.44435555867110654 0.6354753416966075 0.06681569904000674
v 0.3025123230890667 0.1110407057270922 0.09226290312797242
v 0.4161414964791148 0.6497731861449301 0.0866058404149324
v 0.5292209482016057 0.25996757100048123 -0.02228823746967208
v 0.6342032759586771 0.6008128104090061 -0.03759340589216419
v 0.5116762927770957 0.2466916345277618 -0.014121789077809407
v 0.6186957340099616 0.3162310234651241 -0.06958222439686314
v 0.3047646526068538 0.33818936563587837 0.11908281024798052
v 0.40852203390852715 0.18514504429565115 0.04162455735477478
v 0.3316449279764652 0.5089903914427262 0.11030082601493639
v 0.2856119501897875 0.2145741646803942 0.1149911606865208
v 0.3155989385242777 0.39679579574092494 0.11821479591534802
v 0.7961175781800911 0.478411125403086 -0.15339879528095038
v 0.7348976618811349 0.5834750611270465 -0.09909174350087131
v 0.6765445577926426 0.5964305089285851 -0.06330848662587847
v 0.45767461083117905 0.21366154548913166 0.013805973005024022
v 0.4869794684599616 0.6290158452352111 0.04100697092031411
v 0.7721737653582386 0.5741137309695861 -0.1217901501716297
v 0.7098128229559032 0.58535699759643 -0.08937807040968701
v 0.6461822797862297 0.3355398521900956 -0.0774517770568445
v 0.35435730335393867 0.616221214611496 0.11439765745118802
v 0.31611774759253364 0.3816927898309506 0.12335437521024681
v 0.7855593105620182 0.5754741571685262 -0.12279443741095157
v 0.730221616416178 0.3967945900642824 -0.12467348995251873
v 0.28251666180698604 0.2491183342474269 0.11739664819351561
v 0.3165937266512602 0.40054442424411 0.1124765670379858
v 0.5864326845552339 0.28813380316328385 -0.050845431342607196
v 0.32044301846707074 0.42686020290603677 0.11816134019636206
v 0.6053300651860286 0.6073937412884499 -0.029187412803552033
v 0.38610724808778746 0.16255345679048117 0.04832091108771598
v 0.42721406913918114 0.1994854060587555 0.028565906580612147
v 0.6682091781471555 0.5924836541304754 -0.0592430858656083
v 0.5567777990825628 0.2716904272696749 -0.03187061157399649
v 0.47757772619783617 0.23286968968181163 0.007220463959215447
v 0.30093362515889976 0.3158081331828993 0.116258301737623
v 0.2951550069624742 0.2674459921900397 0.11723252861842298
v 0.7986661469983493 0.47598007439982115 -0.1485636016467735
v 0.32702811828172884 0.43579071153081933 0.11011236582984242
v 0.4856899466966927 0.22815727768631736 -0.004943782926544673
v 0.5677359474447468 0.6182364092585282 0.0014226409572444402
v 0.6921096088287856 0.37693348629793 -0.11183777962660738
v 0.6651459570305756 0.35021124146474353 -0.09375327592341333
v 0.7525876967071616 0.41436434036088443 -0.1405410444263485
v 0.5300271125576342 0.6256470200476186 0.026101980211372465
v 0.3090497657999209 0.3538394296152287 0.12191633865390442
v 0.6010859805164783 0.31301680859582465 -0.05898362282048214
v 0.4462924655805043 0.2090784394771736 0.01778616717891092
v 0.30973844023819685 0.11962041408968609 0.08589558414449261
v 0.7625402465874797 0.5762822018554963 -0.11051138499016135
v 0.7881896275340998 0.4408002159793912 -0.14775045209010543
v 0.3361951542115791 0.5184605067636905 0.11850211525393867
v 0.8083028678219948 0.5051162371990743 -0.1491603242373504
v 0.294589627265808 0.2850542514246666 0.11593537220376328
v 0.4479750190105183 0.20281136899355592 0.025943416937834047
v 0.6156234442531344 0.31544475724659216 -0.06500453201570681
v 0.7230095039783194 0.38935167111859464 -0.12322295997409595
v 0.36376919099186616 0.6181623511777113 0.11569454139284022
v 0.45994235602386185 0.6324226558803947 0.06677037823619875
v 0.27804568810407254 0.1784127529315868 0.11497129396888399
v 0.7454108179519048 0.5831325310334677 -0.10338527194698326
v 0.36794244790439745 0.14869454409830724 0.05742552117460118
v 0.34392091905824673 0.5425434067229095 0.11389713275695278
v 0.8221021744823624 0.5400874539587617 -0.1546554687662943
v 0.3418653066970634 0.5370225485250972 0.11930627040574884
v 0.2813742230134584 0.20771273184407543 0.11906519800799444
v 0.7972160827365975 0.5690430929179112 -0.13811818464842027
v 0.3352865031477186 0.4776459300598319 0.12089443305297966
v 0.8083941105830013 0.4885166795632367 -0.1505009742550496
v 0.2724603637777088 0.18380727317106327 0.11787963813856377
v 0.3391563705243547 0.1364841328164042 0.0746880305782878
v 0.4814677863352999 0.6327140811777857 0.05382260058808311
v 0.395294774600062 0.17463770146911511 0.04006064685261013
v 0.35114481046340523 0.5712248720731373 0.11352142458627455
v 0.6778823175826866 0.596374792076638 -0.07094909834249732
v 0.6917733249673461 0.5961364867925284 -0.0731734123928702
v 0.5881407958779425 0.3025010876063404 -0.04970719282396562
v 0.6177988632432598 0.3145167219694586 -0.06417469856968797
v 0.4333971530945744 0.20090404871756806 0.02500029373861862
v 0.526608624206659 0.25192687963310195 -0.015814186285347556
v 0.6588690520647501 0.5961983365353423 -0.04687298503475989
v 0.32416728115336657 0.4022098011820924 0.11646650344503709
v 0.3234959668282778 0.41140412378922825 0.1204953109022967
v 0.5999380945610199 0.6055108866013771 -0.021825062719540832
v 0.7902172195321535 0.5794853615837221 -0.13018112197018353
v 0.7205438068783582 0.5824091929167428 -0.08421492917187906
v 0.3301635975969044 0.46768021003170596 0.1214021427256942
v 0.5960233518700998 0.3083408717891232 -0.05233692051465309
v 0.7947898432441842 0.46860074126745166 -0.1512688176029292
v 0.46602512778203564 0.21954935730674865 0.004910268096792904
v 0.6226407969570082 0.31636722276554025 -0.07254826938360709
v 0.7472343022675333 0.4032942575812788 -0.12910844273637373
v 0.477333577404568 0.6360803640324367 0.05013133972805427
v 0.6251944449457767 0.3234177942752054 -0.06781864608257437
v 0.651855620067438 0.34207123486202673 -0.08608921711079384
v 0.407153344691494 0.6504317111997907 0.09465644852415075
v 0.6864667012032968 -0.16709624930866496 0.026468836886411207
v 0.5151494657976061 0.015488753629653632 0.11736262522032806
v 0.6461506054235002 -0.3684126030707309 -0.09586993362157531
v 0.6691608437777703 -0.011734015296846034 0.11441157871430624
v 0.4885273065546523 -0.24730505890034793 -0.04456001013890413
v 0.695995646087141 -0.09569710102885083 0.06796557132205422
v 0.37151165220691285 -0.0812206401386834 0.03548578278865221
v 0.663181661949305 -0.30803947436388446 -0.05850433271383023
v 0.5520492204674269 -0.3361184535963983 -0.09207854144816796
v 0.6702150706741296 -0.21713122053399375 -0.011658126759380289
v 0.41543519073480945 -0.15659404535097346 -0.0004328173892975034
v 0.5118480663813092 -0.28843255323273437 -0.06609524238380572
v 0.4433529963406847 -0.1931088865865844 -0.021529234420438765
v 0.30269836539122025 0.0063394877845427125 0.08239284649566254
v 0.6738273103625222 -0.25611305060827416 -0.033973492675798724
v 0.5457657640610352 0.015047545802275497 0.11501334255102033
v 0.4083458792903543 0.044635062014724454 0.11780130512508209
v 0.3274482571004287 0.06203260919481008 0.11800164608500746
v 0.606284053468867 0.001015420121967832 0.11934881740637633
v 0.3219898821482952 -0.022568768576439517 0.06712228829941512
v 0.3842021767133043 -0.10993749348293319 0.028509826977518474
v 0.7079286469776304 -0.05777273311199056 0.10366842041910221
v 0.2858629021043159 0.03410411649444837 0.09805380496561797
v 0.6985303447811421 -0.11035388334373555 0.05887137066539989
v 0.6364819668809939 -0.3945173713878388 -0.11500217716190424
v 0.6895595867275036 -0.1295150569994187 0.04629450231083248
v 0.6512697328187165 -0.3339156634888539 -0.07073358785184013
v 0.33913324207136714 -0.04605509941266803 0.05648031600807287
v 0.45759831092378134 0.03520175526781473 0.11046154670110958
v 0.546722799801241 -0.33803974073529053 -0.09429792539134067
v 0.6679516912941653 -0.28125710595361186 -0.050460797401517654
v 0.6456549544461058 -0.006908760254270757 0.11629532941406127
v 0.458571027527318 -0.22447251333822893 -0.033580935336546026
v 0.5787466209695514 -0.3765344600087736 -0.11364399630134288
v 0.4012525679014008 -0.13285757599894835 0.012075566477211983
v 0.37037086361435073 0.05164840807435172 0.1138572303743603
v 0.5149532279008774 -0.29420187912423273 -0.07050385100829562
v 0.7032961097242724 -0.06098551149456852 0.09254819654126686
v 0.6407357310871508 -0.008552957942486662 0.11173586743443434
v 0.43134858406336796 -0.17372226980692382 -0.010507085994289461
v 0.5588144964471388 0.016845774841184068 0.1133817894791945
v 0.4866446424248648 0.034001817661350874 0.11620855510655123
v 0.5269370876783916 0.019800824554000146 0.11519123099572597
v 0.36193094308209767 -0.0694659722772273 0.03952691690689821
v 0.5741861355996744 0.011513116211567188 0.11803424540165386
v 0.6070703712776232 -0.42169403012785706 -0.1311104552108632
v 0.4491848925929329 -0.205870727443959 -0.028021544514151845
v 0.5248015250066506 -0.30632964896119436 -0.0734640771139904
v 0.4034329710651706 0.0438716816046835 0.11350561902662112
v 0.6795478626469202 -0.20529537203762835 0.005259849925341735
v 0.614554045719073 0.00029892327612657656 0.11781744628514054
v 0.34982361424409913 0.05942964710737903 0.11627304401077725
v 0.4345482926118721 -0.17712951520527778 -0.010812446142885773
v 0.39905296738458734 -0.12793985793546822 0.01392375004332092
v 0.48602673304679045 -0.24717151986093902 -0.05363737497806623
v 0.5021168186539786 -0.27915125000957136 -0.06532258606822905
v 0.42935058081961264 0.038586700755908886 0.11664153738476069
v 0.49289263111202025 -0.27066887416760965 -0.049352583627213176
v 0.3807564065184814 -0.1044137704826757 0.031406876369748024
v 0.30395873562624875 0.005376236606762123 0.08093172073780389
v 0.6783019935745959 -0.20586884946674106 0.0055425166283034465
v 0.6847943629654771 -0.17666481479833546 0.027929700835782015
v 0.6522240681237417 -0.3199111054125892 -0.06482387932847133
v 0.5382847585596567 -0.3276562307472252 -0.0862307294533528
v 0.6759361780441648 -0.2444746024237813 -0.016647957266922024
v 0.32083689935178994 -0.012318936732895238 0.07689055420952776
v 0.46968422285020833 -0.23066019194329185 -0.0316276728954378
v 0.40999056598539574 -0.14843069751816698 -0.0013910030781572064
v 0.6889476675932154 -0.135599295911666 0.04881026282839586
v 0.3528942636636243 -0.06290184947320655 0.05028838684935221
v 0.7065609441621704 -0.029694257016232777 0.11155064190209063
v 0.6957833496384052 -0.08116081938500166 0.08201173562702285
v 0.3066614358099217 0.0643303132165433 0.1119683570243701
v 0.5310774860587496 0.015263546166999944 0.1217456307716848
v 0.5677413189622044 -0.3664796028046364 -0.10518233826869257
v 0.49604863873908284 0.023846855543292803 0.1157220256824018
v 0.38318325337708814 0.051637042638566936 0.11315367460593008
v 0.3714908729840719 -0.08978282705848453 0.02866673086547828
v 0.2902725168076867 0.02394202735343261 0.08868733752332988
v 0.5777325376177763 0.004925612591493766 0.11842547499048517
v 0.33925088689889243 0.06322568032530976 0.1144257457124668
v 0.7007485010568569 -0.08945988602931228 0.07265969280644861
v 0.36948091529119426 0.05051056930721706 0.11572744641190524
v 0.4966099213298542 -0.27065198109054267 -0.05414960973034918
v 0.5340271334601987 -0.3247583264369484 -0.08281194487623238
v 0.4200720228833103 0.04149755876201981 0.11540257814474164
v 0.6875332600680654 -0.13752691199442935 0.0401334405560036
v 0.6361050268612077 -0.3866738091224627 -0.10476426060881648
v 0.6709861984805954 -0.2293712662817699 -0.01364593312230235
v 0.3691394915286895 -0.08518738360625745 0.03709888455114415
v 0.34400236673317297 -0.05165919986431624 0.05525356306431518
v 0.3558554147719758 0.05464202084976278 0.11035130157363011
v 0.6486495120850977 -0.35336696153010416 -0.08378735270614045
v 0.3245866090248825 -0.026404760142117033 0.06326941545125263
v 0.45071904246505834 -0.21211080289608317 -0.026304210527871182
v 0.4466254186685706 0.04039254815730184 0.11616625496895266
v 0.5566734338746548 -0.3546050645612516 -0.09820734944762247
v 0.6933416602514193 -0.11416999581931181 0.056409977615734325
v 0.4054563872316232 -0.1371529789733397 0.007526530802626989
v 0.3262018324153004 -0.032002073214779776 0.05972883960073092
v 0.6806754029925716 -0.1803687652905315 0.021692718160465356
v 0.6726134844133571 -0.2524889446838956 -0.028750853147919423
v 0.6574187536441927 -0.29264996579730473 -0.04801584871699228
v 0.4900361534992629 0.021412335837557125 0.11913390023421894
v 0.4786147039825738 -0.24602067492442467 -0.03955225406473847
v 0.43441404599299743 0.039148815825288404 0.11119588556646287
v 0.6574814367896908 -0.3076186396760689 -0.06080313918141113
v 0.46450120066279077 0.03791056700695268 0.11945628814663188
v 0.39072517615164887 -0.11368428107528387 0.02162694926039536
v 0.4756608473416153 -0.23740721291989605 -0.03877401772208139
v 0.5476145635605525 0.012385436258024076 0.11756051702530926
v 0.6800239850686272 -0.0166777988685063 0.11092040741598887
v 0.4933964870095133 -0.2655027342315207 -0.051672115575891346
v 0.27814902334451236 0.09354050547715137 0.10364968799791047
v 0.7334473940745421 0.09287093711318857 0.048356784400601704
v 0.7677212767575895 0.3058820314983367 -0.08446509875829293
v 0.5888943551133962 0.29552132157946626 -0.0539528629747051
v 0.7450254062356756 0.18921695871565214 -0.008779393103146894
v 0.5878473115188313 0.006408053054476667 0.1172924736850729
v 0.4433364520111523 0.03187677693876245 0.11523255276500018
v 0.7799799115350236 0.38133568440544297 -0.1262232373875736
v 0.36228266966734546 0.05429254086667495 0.11489065426909523
v 0.7164553711960385 0.014870156964579901 0.09783910286174315
v 0.6352060555045363 0.33160090083822785 -0.07421137155481317
v 0.7329987452866594 0.14300886897939638 0.012447878540328437
v 0.5156415547999148 0.024165482254979016 0.12343420997062667
v 0.42381373878184136 0.18559760720488197 0.025709834875259033
v 0.6665393351990729 0.35894002801043895 -0.09690483069133117
v 0.4046206628145484 0.04735751782538004 0.11828397035843476
v 0.756748950523888 0.2554736438689142 -0.05125402592744036
v 0.519630919186492 0.24616482500439216 -0.012271249177659491
v 0.349345170441901 0.14010198661083048 0.06912441786905471
v 0.642949716739329 -0.005850283144694054 0.11698212193326597
v 0.7698394764593965 0.3453991265181908 -0.10621779430951102
v 0.728320503721208 0.08141575145025491 0.061541027847173815
v 0.48552821776880445 0.2312852408823458 0.003196413440714572
v 0.7315947173846507 0.05880062400060034 0.07497003617054734
v 0.7547083552099337 0.22531070770208886 -0.03401377470122882
v 0.7627129330767781 0.2849304057320388 -0.05671919246763338
v 0.3925961546687727 0.16934707760123674 0.04652490222221725
v 0.4930114281396988 0.02817505926234656 0.11789664338237268
v 0.3205189332914858 0.11942227608584255 0.07886866378714812
v 0.6740047156843565 -0.014316480402181617 0.11892589653872603
v 0.7134121365317321 -0.011647036059944629 0.10859723406649252
v 0.4528490279658619 0.20882815209482603 0.015639000968069847
v 0.7445750501295071 0.17188549785048063 0.0008142702525634885
v 0.4576044589085893 0.03850766554353409 0.11844921825266405
v 0.6685274761775248 0.35241827516434465 -0.09499006843496033
v 0.576284380811026 0.28888750475260194 -0.03912269699494785
v 0.7213807867442481 0.38802117385023416 -0.11895306540267668
v 0.722818590791287 0.04171781709265774 0.08014012832576457
v 0.7743362542003661 0.3306576318362968 -0.09035877374282959
v 0.5363336144795838 0.26739201611972485 -0.030536042818752204
v 0.6150200795951407 0.31554570673595533 -0.06282248325204555
v 0.7345936525970385 0.11783957594913848 0.030086010140851386
v 0.25999154294898863 0.07264572292565645 0.11952197892608367
v 0.6830159639428551 0.36385273216554803 -0.10222202023787143
v 0.782807795155887 0.408329208273731 -0.1326966867058481
v 0.5912190440460445 0.2975190170690345 -0.05554094263400111
v 0.37054244656883356 0.15889000671891007 0.060141096081863105
v 0.7711075637486398 0.32279545186618264 -0.08763341178786653
v 0.4657312354080972 0.03167519949293005 0.12019514671344793
v 0.776195959722412 0.35310818273594385 -0.11056643347321918
v 0.4423035953989435 0.19684159954005778 0.022713147114537893
v 0.5260704257864168 0.020462454027644284 0.11494739072991458
v 0.4307650532355877 0.03889268205225068 0.11682516672424272
v 0.7595541023513935 0.26825170306056795 -0.05646941190151907
v 0.618537922900878 -0.001046864828044359 0.11444985855706455
v 0.40385248085228415 0.05003757900560117 0.11859149872672332
v 0.34620597030616385 0.14023530831186776 0.07133974903734855
v 0.3286051162990454 0.12805731204654683 0.07785460784217571
v 0.6556826810380462 0.3383330465546274 -0.08326442794324591
v 0.3767466202126693 0.045927820804552696 0.11269490602353895
v 0.7656348205968239 0.30789151333991266 -0.07230826011142147
v 0.65330267647334 -0.007180975572902905 0.11380824436528064
v 0.3434651765873474 0.062341162499956616 0.11286696610495568
v 0.3042708600208889 0.10221501305961092 0.09648445651706575
v 0.7577000807710597 0.22594465048298615 -0.03002904750988054
v 0.731629880167405 0.08988374134557445 0.04408675531832078
v 0.7340326225778443 0.11214543687640305 0.029642063384516647
v 0.5004216462431722 0.24532072444699887 -0.010616040715921583
v 0.5605778793888729 0.010446937804324971 0.11535995065423314
v 0.37832052899831425 0.1595266597127919 0.056545398865018616
v 0.3164482135998109 0.11674924953080007 0.08594918053791738
v 0.7266149351023871 0.06045203074246391 0.059479355519803115
v 0.48142794288745966 0.02556501107417264 0.11714662808256374
v 0.7244802281414345 0.04077445206429168 0.084868175446311
v 0.5769150520438111 0.005551666823183553 0.11421954920840541
v 0.7536490669176426 0.21485336166572805 -0.02342455885822419
v 0.5508064995911679 0.27797109847029605 -0.031167190489337537
v 0.6050683688864595 0.31583429301224203 -0.055997850087467826
v 0.6077787998785089 0.001240269928010715 0.11575991464204573
v 0.7467476994709158 0.19292824230183572 -0.009633177068058777
v 0.7078737393489384 0.3781189836025107 -0.11694454668274494
v 0.7549021916606462 0.24065929634888555 -0.04071237465023556
v 0.5306927844242209 0.016833983427641315 0.11556733121573454
v 0.5391897554420275 0.2676540500535396 -0.0272983837254586
v 0.5210324974917329 0.2587585202833249 -0.018617957187999173
v 0.761068716485422 0.263535839585931 -0.0526810206149901
v 0.6689292147823527 -0.01267219829470967 0.11545419106640041
v 0.478093852539351 0.22698755437080614 0.004705635674087696
v 0.3990087952008942 0.17782950346046428 0.03902823692276763
v 0.417427593840132 0.18333572513868235 0.033423837774543545
v 0.3069563280210747 0.07210303085184369 0.1154078056163751
v 0.7314113040422096 0.38855161003713695 -0.12030012869710559
v 0.29569097949855616 0.09959153682847954 0.0930273031479296
v 0.4072295865789128 0.18064525758613534 0.033566252941927235
v 0.6249751636198645 -0.009248707234986879 0.11452705521780106
v 0.4957927052179061 0.026620401018794308 0.10668636756995534
v 0.7423104213767142 0.15459479479066754 0.01343850793745523
v 0.7259870058691473 0.02930022339979435 0.08015369632180334
v 0.6817641169141434 -0.014377061145672363 0.117045032807558
v 0.38626591673366656 0.05515475583089891 0.11415213040167199
v 0.3287961654996737 0.056077916863185105 0.12070595147747941
v 0.5715267399963632 0.29033874056391396 -0.04448197225073951
v 0.359707516235598 0.14471117085182486 0.06669076630235636
v 0.71873324376555 0.0006854226426661085 0.09893553778760739
v 0.7287487678480227 0.07007320259369326 0.06398661908186049
v 0.43501000291396835 0.038295054763910194 0.11523063256047533
v 0.7380417644659667 0.13379444851831704 0.023050523188500805
v 0.5193894094187306 0.25571972234398405 -0.010908600265905592
v 0.7552353044555408 0.2424324422347527 -0.042819284220842524
v 0.6864069072171535 0.3594775640270674 -0.09721781322030916
v 0.5151502004153329 0.022062935875586363 0.11856610499594307
v 0.5507939766062135 0.27626422336853285 -0.03400098019506964
v 0.7512023977742666 0.20798841242647573 -0.015690234871634224
v 0.5683988334556136 0.00960035377785153 0.12048641205700046
v 0.3230473677114413 0.06598772756559665 0.11027753679098401
v 0.721744518337478 0.02491736073873462 0.09410772618497103
v 0.35554856829592324 0.1505542359128595 0.05751100260189186
v 0.7174656122230496 0.38343383928637176 -0.12361770257769496
v 0.10404250129542549 -0.6635761159902415 0.11724240438842447
v -0.4114578137771732 -0.8117108799151473 -0.159928379819174
v -0.20358955170455326 -0.21526313345555778 -0.11037281892989644
v -0.0988537143670885 -0.8968054169832504 0.029680594555160842
v -0.3541735012919157 -0.4761440898683671 -0.15760017081193067
v 0.228248037448374 -0.043134304082560124 0.11925236545998472
v 0.12655197587977288 -0.5148143416939214 0.12076210810151117
v -0.32085126156949706 -0.3410073383648501 -0.16276311707219393
v 0.08304522964520039 -0.763406588247352 0.11927440887533829
v -0.3296837725471381 -0.8458233769869783 -0.10575410221761326
v -0.11526933911626946 -0.16889611329065451 -0.06398711679205767
v 0.1518752764825969 -0.42846959853726174 0.1144261035765309
v -0.2177989422349892 -0.8720784591922857 -0.04093119767655443
v -0.018425430424552944 -0.9049628073225748 0.0741705635182602
v -0.3647576300709702 -0.5588206994140981 -0.16437042455671083
v 0.11476145172217299 -0.5878960140190823 0.11398534505468917
v 0.010253101056123055 -0.0821079396835776 -0.005209385596096714
v -0.27378571730686285 -0.26786149440154955 -0.13770100225977966
v 0.18259167973727 -0.27033638042692526 0.11262952439889366
v 0.12623783298511315 -0.004695766152995998 0.05516624423859362
v -0.3340164346226012 -0.41466601381537205 -0.16050670713617377
v -0.15762420062592972 -0.8824408907973967 -0.006298896135888785
v 0.04344010383047443 -0.9150736653194962 0.11018301604403477
v -0.2679941837013801 -0.8588868265720525 -0.06653891366372458
v 0.06622526936384975 -0.8248506172513812 0.11679218182748935
v 0.06583325331126552 -0.04374372024865274 0.023851728462776178
v 0.21760168672533944 -0.11151613942798622 0.11903687086565766
v -0.3967651668746871 -0.7004592609219848 -0.15925612444920553
v 0.20591984442056754 -0.16852650736715202 0.11964621993160843
v 0.245715169794229 0.05439190317722365 0.12569641479284083
v 0.15106061674486915 -0.4533735811613619 0.11586490892155657
v 0.006099028005702929 -0.9114330910037851 0.09161210402499184
v 0.09482854503156624 -0.7167397868122037 0.12168061210997523
v 0.23891070621809582 0.002825515821019746 0.12140230168505142
v 0.15829595857614434 0.021459427211630945 0.06870702385019109
v -0.03978297557625457 -0.11160975456952935 -0.02962174416976923
v -0.1518897167833769 -0.1937863744904916 -0.08536244658414364
v 0.1660234238174506 -0.3267311514573595 0.11474359140642222
v 0.16242755895248195 -0.38542701358136583 0.11303228738836125
v -0.4060605784184737 -0.7496974969522223 -0.1585206488521336
v -0.374127904544799 -0.6073598161853413 -0.16151591610509675
v 0.10903814321853701 -0.6503139154260541 0.11521323736420085
v -0.07521953869110395 -0.8951225778822193 0.04299420206688814
v -0.3279129511540064 -0.35532897158685867 -0.16698898256203049
v 0.19256650036194195 -0.22734215679141134 0.11907776971282434
v -0.10078499089612585 -0.15641785064522057 -0.058822177266499825
v -0.3035310323408423 -0.8521231523865315 -0.09072881716700358
v 0.04228925880608658 -0.060019196894681305 0.008789676727727248
v -0.06169648457575634 -0.9003610098211249 0.054661822818591936
v 0.12129906043053576 -0.5573149254785503 0.11664407783324723
v 0.17774108963780738 0.020835822378171862 0.08069253720493627
v -0.22858072745618685 -0.8731191805272345 -0.04413648461072192
v -0.1286607713080234 -0.17915250424581816 -0.07442611336397016
v 0.10869271927418209 -0.6201253427041139 0.12454745203639439
v 0.0974292450790874 -0.02611155314789207 0.04698378873312822
v -0.30425136601193226 -0.28650534158995394 -0.1619218789496032
v -0.03831655123717946 -0.9026033636045153 0.05928046446863359
v -0.3872852317377873 -0.6504919293289512 -0.1612604941224002
v -0.23316465614173823 -0.24264692056423495 -0.12613581051847106
v -0.3424141815274613 -0.41810864888537425 -0.1593934567001849
v -0.3598796811632943 -0.5113977588417976 -0.16501468853983667
v -0.34949179905238653 -0.4690269903989503 -0.15660461361980094
v 0.07005145939726151 -0.04393184187957949 0.03298525878326539
v 0.07615798599015934 -0.790508263504607 0.11776668019547698
v 0.05586012828581511 -0.8859957907139342 0.11489523428959737
v -0.01651495406570789 -0.09929205286745582 -0.014568896149350424
v 0.13141179999734118 0.0003508956776118472 0.05604726077219236
v -0.12544982410043606 -0.8830799140338648 0.013933407505524301
v 0.05642536821425106 -0.8523499401191006 0.1101748824763872
v -0.388634814563525 -0.8332265978600645 -0.13364264772092968
v -0.1920285461374285 -0.872996289232925 -0.022311257143817403
v -0.36795790700136577 -0.5563083397466217 -0.1566441500069825
v 0.2173955915796746 -0.10509009763024255 0.11596607486411947
v 0.11402254538792875 -0.5890722120445785 0.11943462700054103
v 0.21841969122989213 -0.07915277368364562 0.11677491261700662
v 0.19346817275494327 -0.18957667638889725 0.11069538772131732
v -0.35489094025222545 -0.8391875877419842 -0.12562539899986025
v -0.3979874915084582 -0.6995745130666783 -0.16055268931574562
v -0.1744615993241294 -0.20366640768563285 -0.09657108418456127
v 0.15002344964985492 0.00948085831257047 0.06805520066486008
v -0.3345532630286871 -0.8476700714087712 -0.10732014294270546
v -0.3350024317874581 -0.3845674956045098 -0.16140494414502976
v 0.08584320721609794 -0.7507542416053142 0.11816518926838841
v 0.14418814709045144 -0.4557170191812661 0.11714981940732941
v -0.25023257109067726 -0.8673929894851107 -0.05882413498180059
v -0.3424320081171957 -0.4406753254390098 -0.16709494385133572
v -0.012237251330674385 -0.09959116254211786 -0.012072101033638451
v -0.3683686914083252 -0.5398449621452698 -0.1590066898181433
v 0.100275106331412 -0.6888341645110014 0.11538498145818403
v -0.27913692034040627 -0.2659350480593723 -0.14579869347181454
v -0.3977368223278669 -0.726321534402559 -0.16043886557081213
v -0.09555269850655022 -0.8883994690283065 0.02277491084794105
v 0.21526024754460818 0.05638601795983798 0.09907605780864845
v 0.1912911095490115 -0.247483018009353 0.11688404154615038
v 0.20962681056174726 -0.13703802563467488 0.11759924757511457
v -0.061606171001028276 -0.12265442005790882 -0.036670032729752396
v 0.011956091927319843 -0.9139805420277048 0.0958527757025253
v 0.16839529753715227 -0.3252651687838791 0.11948883570799605
v 0.1495214124261256 -0.4254369006194275 0.11567160562244044
v -0.07737903398438951 -0.13897026983767172 -0.04161488992675015
v -0.24821172824387153 -0.25818948698466127 -0.12850018309137917
v 0.12826905283257542 -0.5172959121775941 0.1173685761005693
v -0.30093465467560176 -0.8507562423043867 -0.08995495254615302
v 0.14028882393232256 -0.4867651841620678 0.12210671244792179
v 0.1720371387383998 -0.303058295112413 0.11588656905648101
v -0.4073889469440069 -0.7744748979423965 -0.16094176304055688
v 0.19829305539342457 -0.1977275606584541 0.11612970640883595
v -0.0970424759183394 -0.1515590423508983 -0.05116342564284071
v 0.08952702689575472 -0.7299073625383223 0.11636262593463347
v 0.11292869399989865 -0.633749922769951 0.11201634059520214
v 0.21047498363854233 -0.1397086922511281 0.11547362677592517
v 0.06503542705761094 -0.8304235062483704 0.10693108451312487
v -0.4009257301105102 -0.7229776334669981 -0.15960830486430735
v -0.007147880590679812 -0.9069216299211417 0.07982516712536993
v -0.3730909992966258 -0.5827586440939584 -0.16272884562807763
v -0.40544682884629085 -0.750952555119278 -0.15885838945194997
v -0.3861143283444319 -0.6778132804777725 -0.16304702785221714
v 0.02582307677934979 -0.06758898632864395 0.0031926912932267537
v 0.16608632006290155 -0.3668285426138209 0.11629274494916078
v -0.4091518880630983 -0.778131656278266 -0.15803346999540693
v -0.053448021597142355 -0.12989247059375097 -0.03209552097325899
v 0.15375473281037577 -0.400487048924376 0.11486644864743753
v -0.3289686849016427 -0.37138436631926564 -0.16880363390088848
v -0.044479747042336565 -0.9054289772695201 0.06367191982510806
v 0.07272903543397428 -0.7864198694024227 0.11668497140875705
v 0.19642899455673596 -0.17624301924073107 0.11300440744871293
v 0.10232645158470695 -0.6798975305746542 0.11618901611020606
v 0.019966776453637997 -0.9163194980231101 0.10038092349575739
v -0.14778324672471033 -0.18570775926454391 -0.08063644232783049
v 0.11044459074579564 -0.012766704111685298 0.0446820319583728
v 0.23259797453182457 -0.008413757417855858 0.11590361770018916
v -0.28432350009758456 -0.8557375551957971 -0.08278471107298073
v -0.2181761945329381 -0.2305759238321229 -0.11408732621365802
v 0.05505177004814844 -0.0542902309548413 0.019594828923425123
v 0.16886111903834927 -0.3446908915889365 0.1192362360397949
v 0.021369050378935956 -0.07554719636861222 0.0008745096851449848
v -0.2630066696859617 -0.2582605827464666 -0.1346328815941898
v 0.06018237704624123 -0.862758918619632 0.1145332826453291
v 0.09936076999490967 -0.6779586100756115 0.12080453802441439
v -0.18794850434524796 -0.2126865795053555 -0.09558458388425303
v 0.15370449882630877 -0.3992440229175093 0.11775835779007604
v -0.13008416427234215 -0.1717764620075724 -0.06914705583385171
v -0.24479559846485902 -0.8615340931430017 -0.055319680277943914
v -0.011119149758618888 -0.9080844876361388 0.07903230290971199
v 0.08116638969617947 -0.034608775761075794 0.03323343214786632
v 0.07689417663521436 -0.7653390012041701 0.11191348807033807
v 0.07498486511965281 -0.8127815739727434 0.11842389132735058
v 0.2285301310854566 -0.033282750237067615 0.11855508411159078
v -0.3821758021697928 -0.6109332388237514 -0.1565788027601682
v 0.1583148494344404 -0.37424583232095326 0.11244837759849315
v 0.23057825684772792 -0.06541159232944439 0.1192148913804724
v 0.2084636440525578 -0.12959358539733667 0.11609055790146916
v 0.20759727433361647 -0.1542766680071935 0.11590923450089356
v 0.08938324535910816 -0.7249895069765987 0.11262223684643134
v 0.20974700514786618 0.0507803443892607 0.09472085766898601
v 0.1130718896605799 -0.6055350420373358 0.11525017929560326
v 0.12249974610795199 -0.5675332172714883 0.10905096207758036
v 0.22042559360228578 -0.06853230324046529 0.11709125683777122
v 0.01649205318072535 -0.08228781814130148 -0.005401212982636687
v -0.3879201654780969 -0.8351711158840046 -0.13819875827306966
v -0.027549734467520286 -0.9055108647409384 0.06620240908934681
v -0.11548085956483786 -0.15832563513438908 -0.06571473657302423
v 0.052626065550444204 -0.05268433841429119 0.015364690042376814
v -0.3362985556475011 -0.3995016905038303 -0.16576149184233585
v -0.29672629971478576 -0.8546637581678996 -0.09005481064310823
v 0.15525085778349246 -0.4169069099342414 0.11169605277217502
v 0.23238806919146146 0.06026278705492637 0.10865650251344415
v -0.1100597856131756 -0.8906108334439508 0.02139242650784195
v -0.38895536041267087 -0.6766173072714879 -0.16630112837388894
v 0.13346486326453957 -0.5321664645878501 0.11678600401149919
v 0.13981101303409105 -0.4824353049721697 0.1171878061339685
v 0.17783930809589202 -0.27022729599777234 0.11710249809196357
v -0.14969621537428054 -0.8841971941466066 0.0013751170182907386
v -0.23365445869579873 -0.2433470703607233 -0.12384072586866865
v 0.010251723487439478 -0.09131504778258667 -0.0051066115640822345
v -0.06073595519556906 -0.1282156682717896 -0.0359984707979325
v 0.1519769291381213 0.01110783085125472 0.06514122045932734
v -0.18676949905000015 -0.21060434148154714 -0.09824282009350353
v 0.10811972455125417 -0.646015832094326 0.11388225967012075
v 0.13888989353389616 -0.4967760562603374 0.1169866568879609
v -0.3230762511032088 -0.31959742057543267 -0.16163939671685892
v 0.08224949758265386 -0.7713480452557484 0.11459861338938972
v 0.08702436919289862 -0.03452834284762356 0.03445857362976506
v 0.2105612252876827 -0.11411549521806176 0.11141200117320646
v -0.027093898541347607 -0.10893597059459145 -0.018990895361765996
v 0.06084543811282155 -0.8489712483394966 0.11016899176012615
v -0.37456693067572444 -0.8403011075489467 -0.12956162930646917
v -0.22447414834885698 -0.8656411696604015 -0.04273751289743835
v 0.10253123865967856 -0.6431556721474828 0.11465229820806161
v 0.12904887083269279 -0.5266008503333997 0.11544789173507142
v -0.2948026271013056 -0.27896716498233476 -0.14993972803545036
v -0.1724262240079409 -0.8761108785637838 -0.010094980968481883
v -0.31946602629818155 -0.3302991771989343 -0.16682611320159943
v 0.16677980189384523 -0.3094628833615756 0.11874376199386304
v 0.12410986105148869 -0.5533919076215198 0.11640470285252609
v 0.13626809066399445 -0.4967410559899578 0.11203731880100987
v 0.20985126826489464 -0.15301545433150734 0.11691994908844726
v -0.07431595849442917 -0.8999566143136931 0.04391835898541519
v -0.1716360660811336 -0.19827581811567468 -0.08825424176306035
v 0.21451645852068046 -0.09568352150070963 0.12024405339612569
v -0.2553821527091475 -0.8570836280204799 -0.06253436923511983
v -0.11451887759439636 -0.16519203692398324 -0.07143424331319222
v 0.171625017891272 -0.3120740575529959 0.11405623016753144
v 0.0202135156091754 -0.9129362702308542 0.10116905720944781
v 0.20340883759723302 -0.1814061880910906 0.10611335255161333
v 0.17515399629914763 -0.3417181948958236 0.11671032529492692
v 0.4955563647755683 -1.0097910539080606 -0.14387147018498292
v 0.20325836196990385 -0.19940533328937038 0.1194560490937297
v 0.21068997912218657 -0.9553732823306463 0.01918543148116064
v 0.5806551927466089 -0.7211226349503329 -0.1547904972167631
v 0.057398760610226536 -0.8606618171218428 0.11669135266938074
v 0.38513605797399786 -0.1053670410161524 0.026507093626682618
v 0.3541371815328148 -0.9831754611207294 -0.05757623823462278
v 0.16507707883779185 -0.35217004739738944 0.11892447822777638
v 0.6147510335953078 -0.5288074353968624 -0.1522250714414983
v 0.5485362331329511 -0.8584518327411794 -0.16139038640474845
v 0.43826841168088726 -0.18165781818791166 -0.014825004423784687
v 0.5300787931964109 -0.3176296673796181 -0.07904326769754497
v 0.6123705253697643 -0.43041578802180536 -0.1387358064541325
v 0.5967526894952042 -0.6192341426548473 -0.15294587439846166
v 0.08247429285078318 -0.7797782093187473 0.11791125935909903
v 0.30504634781529594 0.008492732094986674 0.07823784615102301
v 0.1469251638702795 -0.4205802016828124 0.11590796849097555
v 0.11040822230911562 -0.9335116598319353 0.08450448441959164
v 0.2870718327545448 -0.9702141307869581 -0.022194306931230284
v 0.34427474431291355 -0.04837559960212517 0.053638723199263806
v 0.560455335575495 -0.7946059839459715 -0.15224238760175732
v 0.40648126801288703 -0.9902732280952607 -0.09460892840837848
v 0.5328910297694408 -0.9344107513549176 -0.1545221847109081
v 0.5776370615768334 -0.38136820760360096 -0.1160283340926053
v 0.16064998648808443 -0.9405150595019126 0.04902035999651288
v 0.11342936156364303 -0.5911511730973943 0.11722117698011421
v 0.6044867427212797 -0.5646475103876382 -0.1522070674559056
v 0.47460922807875866 -0.2301782116246549 -0.030908534941114736
v 0.465415460565055 -0.9982106755384427 -0.12381296750145357
v 0.583796758059887 -0.6796275591252905 -0.15326604676540914
v 0.18206336123905165 -0.26120535900281694 0.11615320217196959
v 0.07617775825812832 -0.8049550328806668 0.1199011505055669
v 0.5548750249056238 -0.34532365097697143 -0.09998133218144115
v 0.12448336500435082 -0.5474015741246898 0.11745335698532285
v 0.13229890420261045 -0.4897312291113995 0.12331351910123214
v 0.49058971966659576 -0.26028292779388923 -0.05217120927197141
v 0.6185006814742118 -0.5072384869346228 -0.14701718175160458
v 0.5853644322462869 -0.673830544455767 -0.15267627179266133
v 0.5603713645259059 -0.8148090802029097 -0.15687053322199743
v 0.17214363308968128 -0.3065744723148972 0.11296077176176657
v 0.08536516272551206 -0.7648935784324122 0.11912151538770374
v 0.1892013302094082 -0.9490607668219179 0.03460832091662129
v 0.40258755340756613 -0.13480445796334972 0.011994864711239802
v 0.15238139936168021 -0.405344363210203 0.1171149008033132
v 0.5431158885429279 -0.899908393992337 -0.15751032958075728
v 0.08149794864001873 -0.930405416839495 0.09502352654225531
v 0.22388478777119034 -0.07942547955497353 0.11481579659805066
v 0.1192843459267946 -0.9326284752691777 0.07241244814697831
v 0.5660920403372254 -0.7719656816924504 -0.16010402154949202
v 0.3223039381217248 -0.9679082845119444 -0.04100455490370039
v 0.2457791617674457 -0.959717019339458 0.0017997673105021458
v 0.5493111765549239 -0.8440041643906122 -0.15381236480476562
v 0.10280112878021973 -0.6324536212765206 0.11477312829678933
v 0.2269566361419786 -0.02699166647401468 0.11448165589750606
v 0.5241186532181302 -0.9713285221793745 -0.15703455485593273
v 0.3625152828979186 -0.08523079266315906 0.039769339708755354
v 0.18931507883381896 -0.2264393085815647 0.11614902259657067
v 0.5789779023243505 -0.3858403632351835 -0.1152389400627853
v 0.6264234091201529 -0.463390309787867 -0.15116313318184715
v 0.21383143257469572 -0.12247674124185584 0.12444226607324291
v 0.38968685921532076 -0.9870806063866449 -0.0865947121737589
v 0.20445897927272666 -0.16541060861275436 0.11567857047185759
v 0.08946714339140074 -0.6870270561938678 0.11596500633171591
v 0.1909124807149708 -0.22321723583274727 0.11473858938293185
v 0.5371695807775342 -0.3238778267229923 -0.08250215662647656
v 0.44065806246130046 -0.9931520088192439 -0.11204047067408067
v 0.5023234477696051 -0.2836164946699399 -0.06745348272292755
v 0.5923721631725022 -0.6508874321727072 -0.1511228959403736
v 0.13575501595897427 -0.45877046705526625 0.1186136385539403
v 0.35361320094386106 -0.07230527636794691 0.04275213812291678
v 0.6120628300718705 -0.5362691637497659 -0.15018795430959392
v 0.15859218288270474 -0.379196980005148 0.11798118945247041
v 0.4507345900487916 -0.20840017891572274 -0.025874914088524117
v 0.13849301262915256 -0.9368700856857939 0.05836410152836618
v 0.23237621504106662 0.0012391872374398938 0.11333085049384728
v 0.22653235379964182 -0.9519893528386778 0.012646578369812882
v 0.06774516579592701 -0.8280216250513805 0.11647528208098579
v 0.4224008122783224 -0.16211218631117963 -0.0031347514063610254
v 0.2981395216130756 -0.9684084100207367 -0.02804110369151593
v 0.27419204389075175 -0.9596806342449656 -0.01178950099706647
v 0.6039237415963495 -0.5667046128543382 -0.15012307000352387
v 0.17934270656288256 -0.9448114588659864 0.04188795833025892
v 0.2455186572741371 0.0247790720872834 0.11697478257815352
v 0.08224888152645636 -0.7542014441334286 0.11475973412868429
v 0.1792299350931967 -0.2776859825147373 0.11417276489332251
v 0.1416581460103072 -0.4362193502554532 0.11333600336909816
v 0.45844176704665507 -1.0057798595103558 -0.12056342250758309
v 0.17122542526309437 -0.34745787267666634 0.11758312165995143
v 0.5896768776714622 -0.6420213825415866 -0.14818010074101343
v 0.08265724893608566 -0.9280726440644985 0.09873858168813418
v 0.06655603523984817 -0.8531134760457066 0.12171411470149446
v 0.1731173343845285 -0.30916160185768976 0.11850975539216535
v 0.5457426540196469 -0.8927992906010804 -0.15870283511491326
v 0.6221192888683967 -0.5006119643646977 -0.1555967194754248
v 0.31027546660565286 -0.009094894565708537 0.07780054520504244
v 0.6175253168963404 -0.47458716692633396 -0.1467301212289224
v 0.5886058650199418 -0.6324661407101468 -0.15593455412050744
v 0.3684042730593038 -0.9808579985707123 -0.07600653133343223
v 0.44159321269794194 -0.9970578547162635 -0.11372326422991823
v 0.33482987877115084 -0.037063906210820945 0.056013639042819696
v 0.5938958282812689 -0.4009962766396287 -0.12261194621259575
v 0.47505170303284744 -1.0056378482004253 -0.1385416006009856
v 0.12814591449958831 -0.5410097485325608 0.11737888453182803
v 0.6017250344623113 -0.6034717352336085 -0.15037293598770646
v 0.318570268216016 -0.012429015452416821 0.0699673521430008
v 0.07075986305403907 -0.8018749540017768 0.11431723503716686
v 0.14134743945924563 -0.4856237068836201 0.11779164805996149
v 0.5720063266720093 -0.3708374137827338 -0.1078817969885689
v 0.4743555324489492 -1.0053417085656051 -0.13292522942966772
v 0.526418782814254 -0.3092194512642746 -0.0769040375781367
v 0.11544700622094542 -0.6161581322820563 0.11328915673602931
v 0.6096745342920292 -0.5549730302258533 -0.15220872176131875
v 0.0575607287261017 -0.9232500991334769 0.11476949194394373
v 0.08194584999208264 -0.7788940132069281 0.12236844961242552
v 0.08926946044653257 -0.7277545846543404 0.11845373074112413
v 0.26632297287971346 -0.9595709124079554 -0.0037812053816095054
v 0.5701827151798655 -0.7616012215996402 -0.16101362180548576
v 0.129975673010187 -0.5157959916191883 0.11900684956141254
v 0.4791946555363572 -0.25051521593107035 -0.043460425464917816
v 0.6024580739932288 -0.42548685093857375 -0.13649197807143595
v 0.5616852731420627 -0.8068871915042735 -0.15495367551623762
v 0.1836925866489822 -0.2513027481696678 0.11400932886431228
v 0.4021503065759632 -0.13724653396978204 0.01150937717715362
v 0.31140279761628753 0.0013160895618112888 0.0721683557862192
v 0.2776362539463507 0.039492437486195575 0.09941931421845455
v 0.21117608332337853 -0.09218945511436594 0.11660186292584489
v 0.22950646120897378 -0.046007462244999346 0.11068408774272594
v 0.4209837967201158 -0.16453014115970238 0.0015028935610000866
v 0.10346058571391159 -0.6527368474615922 0.10904824193499055
v 0.17448841604396903 -0.2798601953552138 0.11726713547131776
v 0.459706957173544 -0.21762679347396943 -0.03367167844938896
v 0.5916956448906154 -0.6899908975403277 -0.15608154994859305
v 0.5792447795744912 -0.72311948843105 -0.1502866991301851
v 0.12214040313154946 -0.5713104244164213 0.1159099944642815
v 0.15966412546724817 -0.3680546592152511 0.11604907272225196
v 0.4254148225273568 -0.9915074498327923 -0.10035706443405128
v 0.552208856715227 -0.8339299149874958 -0.1565894019930526
v 0.055113588879665394 -0.8838044036394713 0.1165719557269301
v 0.3506180082382877 -0.9771893212936791 -0.05238040476630314
v 0.527727432677806 -0.9445803640036974 -0.15850846020563505
v 0.1664310880458433 -0.3292433478818778 0.11178104537548136
v 0.10122693088232605 -0.657069233483917 0.12129574546598837
v 0.3344909909072431 -0.0345456579674972 0.05994022195194245
v 0.19719570007122791 -0.9456041490329702 0.026556085418122842
v 0.5834051649081594 -0.7034381230141868 -0.1503113372033015
v 0.5977629805785224 -0.4082497273464357 -0.12871560541616917
v 0.3612867115852734 -0.07431985116134156 0.038946597958690536
v 0.2077313575394141 -0.14168128719248912 0.11854149029543658
v 0.43686408687959644 -0.18743360658548827 -0.013833368360234216
v 0.5509734146856414 -0.3378711996958422 -0.09163709208341107
v 0.6167007572078089 -0.5163641784343855 -0.15185272922001955
v 0.1637803551272876 -0.3751779044016234 0.11913117993505508
v 0.3413732040415118 -0.9736185645790537 -0.04965131431644068
v 0.4873615640621397 -0.26257766023621787 -0.05227284067339991
v 0.594981606404084 -0.64955365232495 -0.14845274816583304
v 0.5465412765362622 -0.34270857443456365 -0.09220191820543251
v 0.38434239182589947 -0.10911431548512271 0.02286227375168036
v 0.0903830606033206 -0.7241151283475477 0.11889881001686785
v 0.44413571786774597 -0.18468449380048865 -0.016486782503503366
v 0.22540119125094094 -0.05703997759253078 0.11637152984724379
v 0.278192667309323 -0.9592583277026289 -0.01585011738527259
v 0.20219926020760398 -0.16055050277635302 0.1159464400155364
v 0.3977886448704894 -0.9873877691502506 -0.08570495142562823
v 0.14328552223498733 -0.47487131709915187 0.11289079194193959
v 0.5732301365279594 -0.7468783385890266 -0.15595187790207582
v 0.1785780346643408 -0.9456127007303379 0.04328507387690487
v 0.53798226397599 -0.32697610036834435 -0.08842802503150922
v 0.4231062867666382 -0.16517495636497034 0.0029771242752041913
v 0.13157321637004116 -0.5086023210137266 0.11746747563939118
v 0.11125601477380127 -0.9412827700182305 0.07756422459649305
v 0.0877808450684454 -0.7305090946085362 0.11361703915250376
v 0.10919339771921549 -0.9355588830610723 0.08164969103798621
v 0.5655042138869542 -0.7535809916551921 -0.15462041674125582
v 0.5803928940577076 -0.6600492318886292 -0.1473086805645796
v 0.620763112287031 -0.44027574457156377 -0.13976784262629421
v 0.3512543609105046 -0.06704895328941737 0.04305982563593167
v 0.2190749100778245 -0.9502731221374258 0.015223166712812727
v 0.18591148486072354 -0.23946511688782415 0.11257853879555539
v 0.18147580683100506 -0.2803783506765426 0.11397675244389455
v 0.16760057280276852 -0.29393580660862645 0.11671546527108986
v 0.08427426650311226 -0.7513269312763993 0.11442943158418471
v 0.5373006126580389 -0.909151995713675 -0.15970968780705697
v 0.3333845101062358 -0.04644519291532802 0.05271707471292699
v 0.4727639129064289 -0.22398062125646717 -0.038795524370604774
v 0.42781759235155037 -0.9896742374778399 -0.10800668018456544
v 0.31946908674887714 -0.9719352222057673 -0.04286571855378647
v 0.2860471788712404 0.030970643368346894 0.09003118594928099
v 0.22754785071404504 -0.04316524215714643 0.11905508224011199
v 0.403785014172 -0.12954818191981235 0.011812568324996785
v 0.5427433972325619 -0.8807541575414177 -0.15964757974729107
v 0.1541655511512476 -0.42337272992295577 0.11896050114587528
v 0.22915879195759675 0.00279551639285186 0.11445461712488136
v 0.1571209735275742 -0.38240049215160327 0.11334580518603875
v 0.11947165326357223 -0.5999099541169123 0.11816856816084324
v 0.19574175249996018 -0.2133281946707412 0.11760140149534311
v 0.07054931632611641 -0.8148067877443618 0.11081430637128298
v 0.07818392348924097 -0.7929625007713975 0.1136846064237349
v 0.1754989249027799 -0.32628544001388016 0.11487268979222998
v 0.15241575585778083 -0.3948363774357331 0.11461380972553815
v 0.6150906455722855 -0.5253144059691894 -0.15283964265235875
v 0.23306893659706857 -0.01872671103308806 0.11514945284374116
v 0.5968551501203344 -0.6341181760549651 -0.14769828864939352
v 0.19267773737851984 -0.18994874961273595 0.115807420607657
v 0.19791871143609302 -0.18682465956863298 0.11893228757036607
v 0.11170633199800054 -0.6237763077087128 0.11791907700701239
v 0.5873356172487222 -0.3905327244888894 -0.12121853696531286
v 0.5854735449771367 -0.3983261291813583 -0.12424971982535589
v 0.24276026614448068 -0.9593704747421041 -0.0018781590426455723
v 0.14563513159571645 -0.9381834165139359 0.06116939755911608
v 0.21712760069054612 -0.08087247398213689 0.11588312044426702
v 0.21793534963196207 -0.9544829060361277 0.018452284450939428
v 0.15117792100874786 -0.44110359172414404 0.11709269913319985
v 0.16905385001833423 -0.3171184858803772 0.1208578800766868
v 0.09668960876552357 -0.6830401210642923 0.11866472965312277
v 0.14275464813309693 -0.9364362296531438 0.06550612616044368
v 0.20289008954935123 -0.1793264053793964 0.11686807749659356
v 0.5619802634476959 -0.7760807557401117 -0.14994232442000774
v 0.6042895826373724 -0.5844366652500171 -0.1550451896353824
v 0.5630613435645929 -0.792449135189117 -0.15932366609838433
v 0.2345818905502562 -0.026386255503279037 0.11480747762217892
v -0.7236250153770558 0.7642084328564557 -0.16549856387432235
v -0.5794739047922217 0.23641262954158335 0.12069472945911702
v -0.7957813392782594 0.4927936505869936 0.0008601850261228065
v -0.8204304911663736 0.29474133809952063 0.12048962024585896
v -0.17735738805668377 0.16970729174667404 0.1122318150868376
v -0.27142567343084534 0.6810106487696934 -0.16179479930130253
v -0.4898716476211825 0.7145570960291501 -0.15882969187769283
v 0.13043862564375536 0.10747542332870655 0.10976708883114772
v -0.7644103336649002 0.6225018954574271 -0.0760716374247316
v -0.004497601256990622 0.46968405924290874 -0.08001694762846678
v -0.14219555312502313 0.6516626024964105 -0.1614494962745991
v -0.6082011166772886 0.7437551482362992 -0.15974432010596615
v -0.7020241311058639 0.2714905673156766 0.11545864396556449
v -0.8089297338913803 0.4002305298672625 0.05735917736844603
v -0.38561045855980075 0.7024431221615329 -0.16309914830695488
v 0.14041751799692515 0.25425104687944233 0.029868988875664894
v -0.089890389752862 0.15002652350073922 0.11633603084951835
v -0.7558983047204704 0.6910355062167748 -0.11586922159577366
v -0.07752683604135346 0.5871478036125615 -0.13372603060510146
v -0.3744157151180449 0.20899751888711957 0.1169667772087694
v 0.06575293872151627 0.12006099660938312 0.11490274749612989
v 0.181124659412537 0.19668321918004825 0.058901241027207916
v -0.7713994355589143 0.5649834189434092 -0.04777343772362492
v -0.046565599261350864 0.5297964279787765 -0.10066318845833046
v -0.5437775330982569 0.7251787316425317 -0.15837609748214584
v -0.44646647877851825 0.7034174556458126 -0.1588737970114586
v -0.641156309095304 0.25844348166759834 0.12118063494705425
v 0.0696774211019774 0.3586471285760762 -0.015349837083179885
v -0.819086712935825 0.3571560210343325 0.07506306941631928
v -0.8021660791142794 0.4434178601287324 0.027172737851939178
v -0.23687132083684956 0.1736216006281444 0.11268626949211691
v -0.3240816672140608 0.6873096435847823 -0.15824672489692782
v -0.5289190424205785 0.23662124031407686 0.1154153976747515
v -0.6672152827797917 0.7497480630951255 -0.15962703822993732
v 0.20493021480649298 0.0907264222440163 0.11808055435657239
v -0.049422271371239716 0.14795656847624966 0.11903094881147633
v 0.11072890301012703 0.2973098479424051 0.010022099747921055
v -0.12816897144452938 0.15191946280356766 0.12258765520525572
v -0.4469024416395988 0.22018890926395063 0.113729107504166
v -0.7803446220563306 0.5323042800486799 -0.025235104253661152
v -0.7463465018033125 0.7299569102264379 -0.1459741257821678
v 0.19741647101350623 0.161277621665343 0.07873943610058594
v -0.18610168064465352 0.6562881219909836 -0.1588979624346901
v -0.002081704283186843 0.12584213776275616 0.11849387641378865
v -0.026498892193300327 0.5017205516560678 -0.08995381726251164
v -0.4260802306314541 0.7085744714307034 -0.15964143013434903
v -0.762262499685319 0.6577179653085937 -0.09388410147875692
v -0.7963195725526058 0.4631320627744785 0.016314030964108762
v -0.09929343927744728 0.6265514901915257 -0.14589571807230434
v -0.5907301185565881 0.7342627301635 -0.1597794804073326
v -0.5017564176465797 0.7190691048143253 -0.15652405262152175
v -0.3183026442350307 0.1925964125717518 0.11459532590906212
v 0.056106406491744795 0.3858452986524803 -0.029068622837864114
v -0.7868555179092099 0.2890726526959032 0.11875900763932577
v -0.8110664863553941 0.3913272134694583 0.061900166987697465
v 0.043713476779131955 0.118546538180575 0.11360755262272554
v -0.2274052354017451 0.6640144285633697 -0.16087231019279236
v -0.26618537888705834 0.18933189866014294 0.11405120574642762
v -0.7714570048953562 0.6024751395695539 -0.06835402369007017
v -0.41693806575912584 0.2096756780914079 0.11295131950933707
v -0.7465366894212929 0.2790407244263613 0.1158538219134995
v -0.7538991869599795 0.6964919665977453 -0.11530935629872796
v -0.4876248460349641 0.22253781507381837 0.11614296150367154
v -0.7778011913880488 0.5698690948916169 -0.04754318121954951
v 0.09419207525401863 0.10650662337123251 0.12085901188159462
v 0.16464557070493577 0.0964788180170588 0.11201712918982656
v -0.6940694713936915 0.7571950278614545 -0.1612429840696635
v -0.5559769671697221 0.733449916138812 -0.16078352036850374
v 0.15746249282224273 0.2235532369947644 0.046606803202183626
v -0.8222961573164634 0.34544029193644094 0.08763477928770072
v -0.7532944665491856 0.6611448224698865 -0.09486515031637723
v -0.6161507927226876 0.25430464873928815 0.1162195892040928
v 0.09474171372497643 0.3286286684253393 -0.004657474343275055
v -0.29654880214223917 0.6798353906453404 -0.16500399636912527
v 0.09359433993263176 0.31560828111644923 -0.0033436302692364944
v 0.03658503430909414 0.4169159341422599 -0.04860485900024448
v -0.6727267581345838 0.2673559860937044 0.11787196380470982
v 0.001268742542640409 0.4613983438185024 -0.06843207480955908
v -0.3046571903266495 0.1921558110365314 0.11682668675333595
v -0.14390409248813443 0.15978919341686887 0.11477698633382807
v 0.03499271960027543 0.4088452432275027 -0.047109561037576436
v -0.25983096462595073 0.673347379801418 -0.1586018696121386
v -0.7620899850948866 0.6255602046071091 -0.08250076242195149
v -0.7240074665521241 0.27837906115783945 0.1116121673901505
v -0.566773227795499 0.24972461621573644 0.11540038136415384
v -0.17972305689789242 0.6560212284531527 -0.15756046945318428
v -0.4606639137722642 0.7157252992189053 -0.15580539553199238
v -0.0594524030889965 0.5554604465891373 -0.11945162601398135
v -0.5429114786244689 0.23756609561090622 0.11863786844860286
v -0.39261256510293824 0.6989458713598653 -0.16328153017888283
v 0.21851922149610417 0.12951975429570764 0.09152475909506946
v -0.34826005218712347 0.6900193202393834 -0.16482056555417396
v -0.6367467089185131 0.7499267175437564 -0.16148116823797312
v -0.7977794493936263 0.4710363310723021 0.015032048892001746
v -0.3026470648115247 0.6801555923210979 -0.1579133692490679
v -0.5129890200353916 0.7226076463817033 -0.16183683452131092
v -0.26604249924311735 0.17799345835863434 0.12053877208243181
v -0.20318307172567016 0.1723760307437546 0.11709636334772258
v -0.019357305718586695 0.13451486106130983 0.1160220589397769
v 0.021064085433290525 0.12338011969960438 0.11174486209011601
v -0.3500381646374457 0.6872605212838008 -0.1640904803636259
v -0.5803783386545183 0.7342636465129668 -0.1603514447380277
v -0.1235268042707702 0.6486188322185568 -0.15852051020431365
v -0.7797082483973805 0.5171590814803567 -0.016509776960090535
v -0.802796492975612 0.41534464996283527 0.04476475436277519
v -0.6654621142918657 0.26389246594020094 0.11981845463512389
v 0.07550473845785989 0.34409263321259576 -0.010572193749728351
v -0.8061102946204183 0.3822697359162463 0.05867174036260932
v 0.20204472639538779 0.16026436391980375 0.07163853856421071
v -0.3648165467534383 0.19868485394520077 0.11563712020216331
v -0.34753371512673553 0.19468537635815936 0.1150059035543978
v -0.4835805711521807 0.7151013586312145 -0.15985726163918348
v 0.023537896104824214 0.42958745803939064 -0.05607046829639981
v -0.46820313876688574 0.22305709059613993 0.11634763787906166
v 0.14707132157087743 0.2526929326006115 0.034362160551790304
v -0.7780780592642693 0.2793127614837347 0.11632116693142776
v -0.03614664647767772 0.5208738349421899 -0.09827677602830241
v -0.0798180724650584 0.5948147377452885 -0.12569782243111474
v -0.10308046855726033 0.6224389208127021 -0.14069092064651192
v -0.2026850447235006 0.664307686470454 -0.16266734067479877
v -0.047285190763236354 0.5496732341141554 -0.11193260925314448
v 0.1849947964079088 0.1822531306872332 0.06813428856261824
v -0.4392033232509646 0.2140660803417586 0.1163278489789291
v -0.7269167484466894 0.2767316813198381 0.11868742116859857
v -0.8050229186703477 0.42537382121070066 0.032241317073426465
v -0.06441929212730552 0.14323199661021488 0.11554801440295882
v 0.10989205077138281 0.11166072858122442 0.11767798390449925
v -0.23445526657556207 0.666190747882322 -0.15918511218113918
v -0.7773580165786191 0.5392586250981507 -0.025928186408451327
v -0.7889172442211857 0.4880803229124567 0.007463980872829821
v 0.2269791889905318 0.11262177298390827 0.10031895359127947
v -0.39896886751410277 0.21485634366719153 0.11322285832627182
v -0.3687775142504487 0.6954261303152405 -0.16162792906147153
v -0.5005640557362689 0.22942084785043118 0.11268657041355667
v -0.4128251696116726 0.7002088835299487 -0.15696387997803582
v -0.8148031672708629 0.36276083134647025 0.0801911692541462
v -0.10224423103196517 0.144071689752839 0.1123192839042236
v -0.6086966581152504 0.24615491124238584 0.10830837840220418
v -0.7711603036322995 0.5966905252171824 -0.05967782842007989
v -0.1572248608745251 0.15935809765062423 0.11804446688077903
v -0.7519823152462848 0.7002269565977132 -0.12684772774476025
v -0.7961711504684504 0.45770320753474314 0.02242783596083817
v -0.7036101053324891 0.2731408574910532 0.11450081047989027
v -0.7688276564030662 0.5810064599489599 -0.05286099113867593
v -0.8143601762180133 0.3383299183674138 0.09593351089961646
v -0.3454364861471881 0.19969244129143618 0.11103141454403277
v -0.6933204218504764 0.7587822250709302 -0.1600093713753833
v 0.12349689248221077 0.2748686669904804 0.021271153685838515
v 0.1437377522622221 0.1049626825059376 0.11752528658058975
v -0.7639172125750412 0.6362324380809974 -0.08224390674162468
v -0.7526597260047191 0.6801181164170733 -0.11111813475531986
v 0.07684246876924937 0.10930708125861484 0.1202119916462299
v 0.1717354798741893 0.20467298819811353 0.05453889996426362
v -0.2513276370144877 0.671060555820501 -0.16047458657601643
v -0.1640978453313544 0.6554145558643881 -0.16604481080495267
v -0.3056079807841079 0.1934847804761942 0.11876600537193333
v -0.7448474191219002 0.7299466861959949 -0.1451542851327078
v -0.7666340576531274 0.2839388757469249 0.11362624027983484
v -0.5347394845382443 0.7257521393338687 -0.1602676027195168
v -0.19759701523765968 0.1705416582695053 0.119830767387367
v 0.06842370450464302 0.3638409463377395 -0.02461513485842847
v -0.1158685485298375 0.1471488369928556 0.12133737725519254
v -0.16068485571600818 0.6531637095662857 -0.16039063222244548
v 0.034301196454757904 0.12101296180752205 0.12056054428270953
v 0.20448007593643694 0.146459301190788 0.08732758973315634
v -0.7840834013795476 0.4934083346515233 -0.004070624510404591
v -0.0637529441362649 0.5720764423302289 -0.12406473472938113
v -0.6136056182599727 0.7454386963170859 -0.16848900649432913
v 0.006145957249942253 0.4613535129778975 -0.061607243864460835
v -0.3491260841159849 0.6913180388315656 -0.15859284027728993
v -0.7880291699350261 0.5055136174970793 -0.003025541268141854
v -0.800830167136068 0.40759971184145827 0.0499576282343204
v 0.051005779468943774 0.3853390610937328 -0.03308107973970436
v 0.07179814754899912 0.11817016082072472 0.11622173523310078
v -0.6296440925510547 0.25573324266131825 0.11208102752131612
v -0.7730689042292854 0.2920817742727123 0.11771841429194507
v -0.6382012946426492 0.7454898466620924 -0.16444448773242637
v -0.7512011325442706 0.7061187594696571 -0.1272362129303994
v -0.33526114562704695 0.1935008420643787 0.11108783854669342
v -0.5603005171419351 0.7267505248759847 -0.1621498768714603
v -0.016665532555825376 0.49319981380569244 -0.08805854655808687
v -0.40997604574121604 0.7021285072052382 -0.15891310372836176
v -0.5433511216679521 0.23904638030708356 0.11968759323225521
v -0.04281063902926912 0.1351343311683447 0.11417013204080166
v 0.07973775285757365 0.34227394696259356 -0.01807948405333237
v 0.05953054544111451 0.37200936709287585 -0.02817138438537539
v -0.7809290804598877 0.5455710725842087 -0.03321598214464119
v -0.2773313335282599 0.18586394017645602 0.11089394661451142
v -0.2424164357528492 0.1832444932193354 0.11635316110735909
v 0.15050413631295134 0.2323806666940251 0.04572011368486567
v -0.7400241156217899 0.7350765774605054 -0.14545975683815116
v -0.2145548332436356 0.17354616340326046 0.12018502786553274
v -0.8191145278691913 0.3633934188202719 0.07191868686305018
v -0.25831680454599126 0.1842364478553266 0.11531918973344195
v 0.012826724829853474 0.45259930413314176 -0.06935196994251569
v -0.43244155485604197 0.7023138715287582 -0.16753526317297174
v -0.7847817735956945 0.5554834095539831 -0.041410056431160074
v 0.12415841731863042 0.27532309437261837 0.022751044472861807
v -0.21820498826833745 0.17719728680352254 0.1143468533439875
v 0.15012739641986272 0.23638953259214826 0.03993083533549165
v -0.8173857657215216 0.371506115501083 0.06811699442699473
v -0.007605805056907826 0.4750109890984162 -0.07354372865966644
v -0.0926650659752068 0.6086953610883598 -0.1448826663025124
v -0.8024166881163428 0.2910841863458365 0.11634871271199611
v -0.5277297962874103 0.7296110172922278 -0.16401439683416652
v -0.6896674137431705 0.2689363715993596 0.11806478060494943
v 0.14883554322350181 0.09986164660669551 0.11697573576780784
v -0.5953902268472308 0.25573067715047654 0.1102876828982681
v -0.6369812763450551 0.25941621873472703 0.11787104948837934
v -0.6538041327420293 0.7499671641656966 -0.1609591238274039
v -0.6891209385843378 0.7538433356863764 -0.1600899336207497
v -0.8110052047345592 0.2923740375039959 0.12035232655621016
v -0.29016109906458354 0.6804537989201768 -0.15524989896788566
v -0.7744320838360331 0.5682513459045476 -0.04375845436753782
v -0.7850196884725129 0.5374295658939581 -0.02769443969681161
v 0.18979013568967307 0.17413095617599933 0.07170393984879235
v -0.47889311199144446 0.7139395525585974 -0.16071972438480692
v 0.11334897154983686 0.29420864523036777 0.0062836536514285805
v -0.3271553258129881 0.6847352676269628 -0.1609270042756205
v -0.5238183573351157 0.2270109318779998 0.11586338433114085
v -0.45660829790280744 0.707276363857374 -0.15760905820201374
v -0.6195706954200951 0.2532627830657519 0.11536721731498346
v -0.1500143238482341 0.6503957966739302 -0.16315012296810033
v -0.0029623659144986238 0.12777497445103003 0.11836316502606746
v 0.010580160919643339 0.1308329243971104 0.11724291715208485
v 0.2156700121163564 0.1348003304674068 0.09185021585230353
v 0.08755257101225988 0.33725072897421066 -0.010764888528290767
v -0.37766242236728453 0.20185303146844114 0.11384432882232523
v -0.12259319520613536 0.15456506370963452 0.11838564904429301
v -0.5939707544524616 0.7372381573447682 -0.16607545072404206
v 0.20532016047121063 0.15229669307353247 0.0796163401322475
v 0.08137240593186125 0.11298189927202573 0.11413866363220163
v 0.047740549445408065 0.3960930611772314 -0.0469439975910686
v 0.1857699357739651 0.1843804364538651 0.06562511084313988
v -0.7608758279543172 0.6238942782907451 -0.07491410629106132
v -0.379211203205633 0.2085775477779856 0.11958020543764021
v 0.12992967642814063 0.10082179579958479 0.11616538444158785
v -0.6901024561561359 0.2670250544266328 0.11218060547884869
v -0.12108677433941345 0.6439423130405166 -0.15766824898943058
v -0.7191192009798734 0.27279265164146344 0.12054883385680343
v -0.5581964002490009 0.23913064513680857 0.11588946665013768
v -0.7434478821588614 0.27427775082303446 0.11265632707458574
v -0.29195467734639236 0.19435310164248473 0.1206922930950271
v -0.792072853657889 0.4734729515067014 0.014021037120988488
v -0.7906535818287973 0.5192846257743241 -0.01936203451984221
v -0.09722411747175115 0.6119693383321659 -0.15420290637252027
v -0.7661867412159555 0.6148336824241426 -0.07104399243628047
v -0.1848260034893343 0.16515457312275503 0.11794971603122616
v 0.09908831613928809 0.314205813073734 4.4656472963105435e-05
v -0.4572028795626412 0.716039245005764 -0.16382032198127236
v -0.24057333123358635 0.17760573103044855 0.11501274329218296
v -0.7480887400328848 0.701697452935479 -0.12057515992459107
v -0.013436761205753532 0.47942072466169433 -0.08336980686820801
v -0.26704931321631026 0.18324557092762742 0.11807038007148127
v -0.7115681975722863 0.7616380354579253 -0.16147465646150197
v 0.12279743775757761 0.10394023943793336 0.12089587326693406
v 0.03274850306217869 0.11532846488780872 0.11176152091492593
v 0.11772824732291132 0.1055088613549421 0.11520425779001077
v -0.7241758082727077 -0.21964284781998206 -0.15909960548637506
v -0.8674957473075735 0.08580594621379788 -0.004872125530727648
v -0.46215282652003087 -0.2666928572667684 -0.1607475397022349
v 0.09615270823700486 -0.026189858833602225 0.03805236249047055
v -0.9053198875556014 -0.08964474296274705 -0.11029814545670637
v -0.8452274746899996 0.19864851847951634 0.056051971764449496
v -0.35447895357113945 -0.2816663175340132 -0.16024166296358522
v -0.8408085275502947 -0.19450899324990495 -0.16805738901544123
v -0.4801231504344134 0.22504872230015507 0.11828753916754528
v -0.5769680629596536 -0.24390264323814195 -0.16134537726230846
v -0.6442228449478956 0.2564748028691574 0.11908218109423432
v 0.19691981015010557 0.04130804952392289 0.08823331712221302
v -0.8899416851671454 -0.013562651047602486 -0.06736231990423058
v -0.9199499091763724 -0.16625306045259114 -0.1568452950183386
v 0.0054475228828333565 0.12981171866409283 0.11378047185241968
v -0.0681257670160286 -0.13280174791752328 -0.04082208478624297
v -0.28521298241052856 0.1863313088862135 0.11830089791467424
v -0.16087090428349024 -0.19573322583246114 -0.08557165906812464
v -0.7528593691975731 0.2811726402784307 0.11628709776468135
v -0.10093246699545191 0.14970697578307937 0.11626196940729495
v -0.836718078547878 0.24410598017210414 0.087161060476961
v -0.21765547043867858 0.17311239388082336 0.11578530315560194
v -0.4204436810557082 0.20841236356827025 0.11907758702891415
v -0.5269332797224926 -0.2609522406815965 -0.16442689553954884
v 0.08390437766052339 0.11128199156774678 0.1109497130879466
v -0.40195194786062904 -0.284885780448321 -0.16111358995136893
v 0.04649653118296601 -0.056882331526074734 0.015046074886045872
v -0.3276151103596491 -0.2919961227902915 -0.16357249037700106
v -0.8697389961897275 0.040287864137283136 -0.03458815421712429
v -0.8632091523398092 0.13527646081635572 0.01922397023738522
v -0.7762372654778689 -0.202229174441656 -0.16446151839845186
v -0.7061384437120637 0.2691188209556397 0.10981619008063283
v -0.3391409844548631 0.2024051651863128 0.11933071162337419
v -0.5941583209435103 0.24951713535609163 0.11727160874993682
v -0.18540760484902216 -0.207307651483225 -0.1006664656893783
v -0.22691737231930528 -0.23916102560135782 -0.11983778135876577
v -0.677190082331023 -0.22193006666372106 -0.1598710481261588
v -0.48681644123185275 -0.2611427727209915 -0.16564477897611635
v -0.6241911316127433 -0.23928557835005965 -0.1648161282525134
v -0.8835177296963073 0.008766542090556287 -0.055706848959704194
v -0.25559978473078027 -0.25934753075880984 -0.13587754390599407
v -0.8982717744177428 -0.05832793372670759 -0.09575354970430583
v -0.5534377978084778 0.2384540872139648 0.1184917625736381
v -0.0331081260814156 -0.11828020440811622 -0.028164846269918536
v 0.17780069705309035 0.08922624177583295 0.11637216385222453
v -0.6068085529998557 -0.238740735219494 -0.16402042529809485
v -0.8788138262857927 -0.18370612775251705 -0.1677592675749838
v -0.38183096647659953 0.20294636521313436 0.1161997597038532
v -0.054336350197375934 0.14226319504818563 0.11828863247423177
v -0.19665537968525434 -0.21736573713959642 -0.09810344826334341
v 0.016728373966053887 -0.08058485605857219 -0.0031749852063972504
v -0.09071916000950603 0.15109970985103843 0.12111826090273446
v -0.7852170268516483 0.2818570526674719 0.10814001094635733
v -0.7169315576186291 -0.2181027860433366 -0.1621541342344341
v -0.43147288588666927 -0.26841942942535685 -0.16169315511482826
v 0.043270372823468545 0.1217603778661896 0.1159613745180444
v -0.8521694091151513 0.17112670894102877 0.04220184033530585
v -0.7949317277864636 -0.20279540074530883 -0.16554276814279187
v 0.11707516490676431 -0.00928971485566363 0.052549339659818194
v -0.1144010632842808 -0.16239514417415496 -0.0638994966729011
v 0.1714765462247067 0.027367905120210465 0.07966881308571964
v -0.8684044620152755 0.1163828991016047 0.007007929204220078
v -0.6265969664500832 0.255142189585724 0.12006925781145161
v -0.759139448341084 0.280080156676983 0.11230407974313701
v -0.9074262149057911 -0.1254332053262899 -0.1326360437330974
v -0.13450967105262945 0.15559914607933775 0.12047983832949842
v 0.06807736552166546 -0.040108670213992496 0.02523741908286952
v -0.216687917745004 0.17613037267993184 0.11591918447857336
v -0.2935163307128353 -0.2729596542266982 -0.14363316004636129
v -0.8947225295551012 -0.06961331818695321 -0.09420321934780988
v -0.2934977966018939 -0.28183569077682313 -0.15125452499054157
v -0.3219294572669999 0.1923699042813069 0.11595411247754059
v -0.880571152530817 0.015549975452090898 -0.05005584658436149
v 0.130037869428748 0.10042314815463499 0.11265319717241357
v -0.018574492734007353 0.13141037852641482 0.11702496272634026
v -0.8305086343293443 0.2767614100307846 0.09876601514474138
v -0.16248023861228714 0.15924046914238227 0.11139140364966169
v -0.8919030762063048 -0.021170447929781767 -0.08034913995655682
v -0.5112929192024916 0.234461787514898 0.11471131108529699
v -0.5200182002252782 -0.25424964504775344 -0.15955492938359014
v -0.03468869431965927 -0.11044345037077168 -0.028019525858588416
v -0.8650497881568213 -0.18800807556538285 -0.16496713180086428
v -0.24728615974239815 0.17614180693118767 0.11190775674668405
v -0.24142177441748597 -0.2485600766301912 -0.13058577891449447
v -0.49184358798688566 -0.26326170055094605 -0.16507195654426401
v -0.5782184595289279 0.25275427963780206 0.11430655379570785
v -0.7454715312179993 -0.2086263428128221 -0.1711471478868544
v -0.8141506093551738 -0.19754618733676052 -0.17125615551704218
v -0.8727819246410874 0.06608958451196971 -0.020324575239481713
v -0.842996158323708 -0.19599428864947058 -0.16469718824450658
v -0.3567191618532497 -0.28966851921906706 -0.16482020745892614
v -0.5507600043798565 -0.2477545901296823 -0.16052656714988653
v -0.9075739456833728 -0.11617864748669095 -0.1300732529807204
v 0.21996954471680272 0.05446969987678386 0.10429990049748032
v -0.44945369405720764 0.22082038298999052 0.11252526224795294
v -0.19141606029487504 0.16386297427390994 0.11588869019150029
v -0.8420290838577722 0.22483761358866436 0.07934557529679864
v -0.08516170574830613 -0.14033210306673402 -0.049329208593440095
v 0.14202748293618533 0.0077413873219294785 0.06255198946292843
v -0.46067256002484624 -0.2658007666681804 -0.16020018819990234
v -0.26552358108907426 0.1811734470022626 0.117540277299553
v -0.44276161963860944 0.22072399072942503 0.10871278137346463
v -0.21950805127363796 -0.22504476457977865 -0.1104652178910724
v 0.014625515611084834 -0.07386668910590814 0.0038936051339909447
v -0.5054128558828149 0.22627134984053066 0.11653623761866412
v -0.024911556306974354 0.13533258599920586 0.11547703450552423
v -0.9105271252435464 -0.09444844694589243 -0.11108333016081037
v -0.059657148714755005 -0.12915726252937512 -0.037044136234395855
v -0.14626582609104838 -0.18471759134458832 -0.07164339925730097
v -0.3762872568209075 -0.28770363104070484 -0.16219425375231503
v -0.8562987794930292 0.13662058246998848 0.022442540421997
v -0.5647258123197936 -0.252830844427973 -0.16443678756802016
v -0.6711123950041946 0.2660860491985346 0.11640013502147312
v 0.06834230240221982 0.12073944531953466 0.11761233717747166
v 0.14813554939725923 0.1002805427830794 0.12004636894218662
v -0.6525210587251825 -0.23495751475807966 -0.1613209387616529
v -0.16918636420789546 -0.19824125863144923 -0.08746706392360697
v -0.7252766293968381 0.2751420350836079 0.11471841201743789
v -0.5290705232011177 0.23479713884449596 0.11204580769126672
v -0.006865586709650659 -0.08812844120440516 -0.011078584270224368
v -0.8949249936848922 -0.1856703457201644 -0.1658194025262341
v -0.1422462495590933 0.16075883914814654 0.11158022576443767
v -0.25164834765008637 -0.2537112598844409 -0.13401883710424803
v 0.0014579190828290668 0.12776112474122733 0.11862009231085598
v -0.1074596777707763 0.15685690814889422 0.10849743963216087
v -0.30463093034898714 0.18473013340062489 0.11380750718229617
v -0.6221943566259497 0.25625863214627265 0.1167180404605136
v 0.06595461626379495 0.1149066494835277 0.11334495690722537
v -0.8543149027811622 0.16072028098496635 0.03679853275567048
v -0.17937796687568072 -0.20519346239722538 -0.09612844073348684
v -0.875035159770052 0.05842696125229106 -0.026548222249254225
v -0.6519740153354896 0.26309327273232674 0.11737452244145245
v -0.7683161492511208 -0.20919538420594644 -0.162471221020089
v -0.034520624211394846 0.13478807571160428 0.11799939380863222
v -0.3785852120817991 -0.2798702420505547 -0.1602498388162898
v -0.32968772256902656 -0.29540946600932283 -0.1601478312494017
v -0.8934728336515495 -0.040846364926496105 -0.07910107152996436
v -0.8439388545435867 0.20831801418224785 0.0652676445935881
v -0.8692507408540845 0.0922057658082647 -0.004434428876697355
v -0.07012891724858678 0.1450740996698895 0.12008123592280345
v -0.3617640083152044 0.20310240878683417 0.11834777126898215
v -0.2435598160029329 0.17305055913800468 0.11438250731755746
v 0.022661628684530272 0.12906927899398446 0.11534002671010812
v 0.04079585379417675 -0.0648919543586892 0.003515999865821921
v -0.9158261968937167 -0.15299191382991426 -0.14825609443023152
v -0.8829303815827598 0.04917844204520151 -0.033604514909878966
v -0.8592206118582452 0.11696633640159226 0.0040479657353776465
v 0.10619220651225737 -0.018834404760652703 0.042604991126041096
v -0.4588344363761115 0.22233438060732053 0.11460143727572246
v -0.6322464264151647 -0.23427136663154102 -0.16041205285835058
v -0.7598344686737634 -0.2061212263598012 -0.16691343095412614
v -0.7040096019032792 -0.2194968205532654 -0.17016952197314458
v -0.4774074908179898 -0.26411493089207777 -0.1628570854406942
v -0.13280519590691037 -0.1704280411774264 -0.07361243669688655
v 0.1454192915885199 0.09918287336314971 0.11881131605427508
v -0.7373215291630242 0.2819562528156106 0.11855443334493913
v -0.816854126058802 -0.20044899347786854 -0.1610537581793028
v -0.768517570991407 0.28783245955513626 0.11584892298262253
v -0.5963443129648047 -0.2395341710248805 -0.16347031997748493
v -0.30956940533764143 0.1970386829916383 0.114747770780992
v 0.19484380974441834 0.09010160365461586 0.1190590199336099
v -0.5157917911479611 -0.25832142510893263 -0.16713310419341038
v -0.8999969277647089 -0.07401426212564766 -0.10307682406450827
v -0.686185274061536 -0.2255100186639527 -0.16508495262042283
v -0.5933036965073709 0.24962891314359578 0.11355595332124636
v 0.1528611301691927 0.008188554626855062 0.06948755742865843
v 0.06509104229817989 -0.04673748964426451 0.02142902991757772
v -0.162423576660063 0.16363019506311624 0.11243186434368306
v -0.7406038511275526 -0.21802570024380163 -0.16078854075731677
v 0.12138579006234117 0.10369961480377597 0.12023444486592949
v -0.2781518529241532 0.18777375260480064 0.11376516495763515
v -0.9080973173956761 -0.11444674942897626 -0.12601057663108894
v -0.8929264178584565 -0.18130808835372844 -0.16469422071746423
v -0.3231521029372625 0.1942528621206206 0.11344186115830782
v 0.1145929201022005 -0.012519986254863067 0.0483061540237395
v -0.10183177654558172 -0.15851991042034907 -0.058082487989676086
v 0.1788493471617797 0.0926627506198073 0.12061896512645164
v -0.5604895413617647 0.2408747644855389 0.11555271525308942
v -0.40229744333271744 -0.27835815507343487 -0.1632974626530544
v -0.34723574008000707 0.20118932858161417 0.11590604269558709
v -0.8571934700639487 0.1586944127754971 0.03538505360818678
v -0.4055550979686019 0.2116183889969421 0.12488795576823009
v -0.17672632059260168 0.1618088661692039 0.11966258251247364
v -0.6754359588950418 0.27066986598791415 0.11342671485590662
v -0.1810489055519149 -0.2120198333458153 -0.09903392079202453
v 0.08511773869862511 -0.030936828674139695 0.03193826922028536
v -0.5578083155981675 0.24324545551211352 0.11351852743522442
v -0.23742339960222023 -0.24844007158780151 -0.1172173318147086
v -0.8315259729488087 0.2572902977085991 0.09607914866418012
v -0.6434274586755673 0.26151311329459603 0.11403349137970992
v -0.8831375699613653 -0.0010221582381889807 -0.05486391540789286
v -0.112473365657858 -0.16180826960525663 -0.06161808375466328
v -0.5396210043238291 -0.2583373258977589 -0.1631056192076293
v -0.8562992070981782 -0.19221097929386763 -0.16258502093826102
v -0.8924188504301985 -0.013799108192825234 -0.06750727752179253
v -0.2759369381981044 -0.26526380280841233 -0.14327620241862643
v 0.11598080600517602 0.10439809706218973 0.11621206504003989
v 0.13973291222430992 0.006456724814870236 0.05288292648938227
v -0.874432706330859 0.049576943412703085 -0.028719008746311506
v -0.8805835932519898 0.02607232872878308 -0.03952745804478163
v -0.6476757400823929 -0.22690701208300554 -0.16768860327093926
v 0.18970129333344632 0.03278177623500361 0.08450504537550585
v -0.8663758541728566 -0.19138336861663552 -0.16522719495306532
v -0.8411482470162606 0.2008129523704496 0.06101673074965608
v -0.13786762057585505 -0.17790291156124613 -0.0732260983627465
v -0.8690548632603399 0.07580170711625678 -0.01630335662207726
v -0.5249819585700892 0.2363465583603978 0.1167376855747643
v -0.5443494713196464 0.241175252911393 0.11513779894039845
v -0.41917585656836165 -0.28107007061512357 -0.17002579229952805
v -0.57393616300627 0.2468412131691625 0.11736551102927115
v -0.45241221325829145 -0.27761873250363056 -0.16598911571808964
v 0.12208922859152753 -0.0016175512739163714 0.053368629071251165
v -0.4861482192226488 0.22826370372192456 0.11824220352094628
v -0.5875575729762059 -0.24261357504548806 -0.1666129698346601
v -0.38613103006259236 0.208141744118335 0.11625652581576804
v -0.8506211242238582 0.19126171154574123 0.04881342008761252
v -0.15747735851306893 0.16387058751662376 0.11687237678509746
v -0.29049084205564185 -0.28353757953123515 -0.1490111960347326
v -0.8894362908097033 -0.03853006530855757 -0.07973893527802767
v -0.5127443082231645 -0.25644428585012746 -0.16324861928416026
v -0.8717491531731166 0.10521094854225006 0.0005896307596760076
v -0.3837422546768641 -0.2803926742818203 -0.16762383940299017
v -0.6070268791522861 0.25623632627995757 0.11683923527718508
v -0.9027881951586563 -0.09360951233522952 -0.11618239178691393
v -0.789412808819029 -0.20197627799963547 -0.16306270038179416
v -0.23666587369952974 0.17866617096195306 0.11417058716415858
v 0.10118784132000791 0.10771818306742545 0.11824042259177368
v -0.013270527991422906 0.13041773675393054 0.12027773419240917
v 0.03145549580014877 -0.0710966317362808 0.0011421973769190647
v -0.8870732406075122 -0.019147509866770558 -0.0699214687870597
v -0.44206440467148606 0.2220246150727919 0.11613791458300092
v -0.4284785495045032 -0.2786379116599534 -0.16609605172602843
v -0.09774217423571568 -0.15184588016518163 -0.057835919072107604
v -0.8511699440252277 -0.1883578673084559 -0.1652588781054715
v -0.42844862765586594 0.2151969208798154 0.11734288566089977
v -0.8730065055646368 0.051079311695393384 -0.03704155061125545
v -0.017570319452166448 -0.09890942491386033 -0.008925848964941408
v -0.6189810316922262 -0.23429392141332853 -0.16692360924892258
