v -0.04459943131930643 -0.010261401227407006 0.2784180043352013
v -0.19771201796040055 0.05182376797892736 0.2779701588988925
v -0.2381473437647329 0.06858520213358053 0.2799552909287829
v -0.34581239466408525 0.11895769329995966 0.2808011382873093
v -0.3955197071282762 0.13914385302496923 0.27903604641990426
v -0.43873929253507815 0.15835914454243918 0.2796146872157508
v -0.48898882222406875 0.18280873028597908 0.27988536065896463
v -0.6291024679724653 0.24647551901903877 0.27324892071430484
v 0.010305054808649567 -0.0031731200332615213 0.24362303853280876
v -0.08805243166082646 7.977787640769008e-05 0.2787360223670303
v -0.17068319040052224 0.03614788597825258 0.2823814109994787
v -0.3003633910508625 0.09490366697639627 0.2791425390236019
v -0.4368182226635812 0.16031499911794644 0.28801962145578147
v -0.629140574705167 0.24928295036522552 0.2846721213739284
v -0.69772082939181 0.2739504796401587 0.2809544519322578
v -0.6249883049987242 0.23963440296763666 0.28325644076117734
v -0.5565995339466461 0.21505332439342945 0.28397140669478005
v -0.4948187375673521 0.17902423800099412 0.2786001988455381
v -0.4368200839211257 0.15935512459884943 0.2748333634192912
v -0.2615293368323741 0.07827371390266996 0.28170661397425717
v -0.26511917834434 0.6936771468458518 -0.29424376030800525
v -0.4617420335780879 0.879020433311208 -0.38120496166557516
v -0.5706277411465888 0.7951436006080242 -0.2540233833667066
v -0.5909064528580894 0.746660189539447 -0.20873666109143346
v -0.6028897712493735 0.7056025266767973 -0.15805702117380416
v -0.627502723601906 0.6682304579284922 -0.11942370783999841
v -0.7160623150697951 0.4624287452591726 0.10870681865394898
v -0.7309532906861346 0.4219444290531971 0.1548616065540248
v -0.254757318277442 0.6662946350658147 -0.2644960995191243
v -0.2728877055100282 0.7113679243499316 -0.3106130124003848
v -0.5388203600125178 0.861949238037296 -0.33728317914218586
v -0.5194573920259379 0.907107827397944 -0.3846035217832226
v -0.5929765691500761 0.7477485686410924 -0.2030220360750936
v -0.5789279630842991 0.7886553550793888 -0.24448157857208494
v -0.617721676848845 0.6915409676223506 -0.13735954139953654
v -0.6628531242165365 0.5843833905755644 -0.018973624280025046
v -0.6474758318156351 0.6206307249129362 -0.058673824252397054
v -0.7003750719208647 0.49869869250817556 0.07097237554660644
v -0.7516122165647383 0.3895447569664367 0.20450069785727884
v -0.7386128513456388 0.42094391703943307 0.16328831574449731
v -0.7169932377646491 0.4681447302515893 0.11210568971586783
v -0.6399712104600286 0.6309143922373975 -0.07302122940085572
v -0.5786593690567229 0.7745177370868828 -0.23018892648844128
v -0.7149460111220083 0.46373283369368906 0.11219744906728485
v -0.7049240416244176 0.4980960132191382 0.07348239021095766
v -0.655212505631558 0.6022813366930251 -0.04329425341597014
v -0.5736360396651036 0.7930995739429806 -0.245215859526267
v -0.5536124852253455 0.8264416710676606 -0.28331999253570767
v -0.4678565282242962 0.8828933244585953 -0.3797297997456328
v -0.30668270046396096 0.7985372133462654 -0.379652770578771
v -0.29367846849367235 0.7522589875938244 -0.34710619312114693
v -0.41164167887152514 0.8618439096467447 -0.3868779000128763
v -0.2906296937778497 0.7509733871358096 -0.3420767915608055
v -0.30879346551723197 0.7962389476169442 -0.3744398176525424
v -0.44046008543293674 0.8683784659422727 -0.376840120121152
v -0.28355224677450114 0.738295294596765 -0.32750218386555474
v -0.010832120350226893 0.041854489184444565 0.20509189425291574
v -0.03964688689415626 0.11355835271782228 0.1501217611146585
v -0.08092218104831574 0.2091798213213503 0.07729883621261623
v -0.10738982281250861 0.2886967315616949 0.015365070093162049
v -0.1267340327135248 0.35796503316757644 -0.03526300420322755
v -0.17068045726253697 0.4591598016663114 -0.11475125623816007
v -0.21715090025396114 0.5615162762390191 -0.19263831762364217
v -0.19625654101467066 0.5242462175596624 -0.16383602763346986
v -0.2477341712424488 0.6485135177895437 -0.2600530051810427
v -0.23351280725573786 0.60225356075499 -0.22147554694452776
v -0.5516706398491175 0.21207603445600068 0.2715383341004916
v -0.5971949039455344 0.23387485021459228 0.27784440435533503
v -0.6939113690175597 0.2731287530694297 0.2824034347785138
v -0.7688321215925025 0.3384791971195057 0.24586687919638459
v -0.00814261396063768 0.04560402136354436 0.20644915963487828
v -0.026567988509256943 0.08893058480402873 0.17361099302401325
v -0.10237357248017305 0.2808337459546213 0.026569976043227545
v -0.11856128390660436 0.3222768371731414 -0.008825961954291433
v -0.1631124731574671 0.4230411013457268 -0.07983372085567227
v -0.18236201602015437 0.46819676911552444 -0.12140825200276197
v -0.19631125671388885 0.5137389555938443 -0.1570953685919856
v -0.49751124337762964 0.18894140563421485 0.28385908914629676
v -0.5615000420819455 0.21861460549826883 0.281872512132369
v -0.14520239342371913 0.3786097859261821 -0.05114422504971962
v -0.11676143599839042 0.299346956920005 0.010360961669046886
v -0.23528225795445518 0.5949302164524032 -0.20967360095052495
v -0.17623178175020573 0.4549578964477127 -0.11330517206337742
v -0.12094787712279276 0.333348235023094 -0.011180878101092645
v -0.04546367485923759 0.13678427836856485 0.1330175026366037
v 0.19643649388743697 -0.1288619290651751 0.28227525690538885
v 0.16407701839708555 -0.11145799697293117 0.2786239025660555
v -6.498535408002641e-05 -0.036546569919601035 0.2840764392226276
v 0.07591047610959278 -0.07261245780381363 0.2807608757174481
v 0.025586858933078865 -0.0075007872705182155 0.24812164234368242
v 0.4508232806360612 -0.2430041544276347 0.28004131372377417
v 0.324021340893918 -0.18733986314797113 0.28410850392348475
v 0.27288939506081233 -0.16389291014569865 0.2777158770955858
v 0.24703041354578753 -0.15568547019542486 0.2796065766565551
v 0.29929148403961375 -0.1743265086347614 0.27885464621874106
v 0.4413246109052717 -0.23688489045424768 0.2829233009244385
v 0.8743857422301426 0.2815134677187166 -0.3899417706316084
v 0.9336187359539234 0.27145686248067646 -0.42101054023960216
v 0.8613034837356645 0.28050254950102776 -0.3808251597706946
v 0.875533120327067 0.27857262581694064 -0.3885072049691937
v 0.9387542892077654 0.2711293583670222 -0.4163889407302407
v 0.9734569559375417 0.23100388734557922 -0.3977032454414441
v 0.9521487545834905 0.19220256002127423 -0.3499578399225696
v 0.9498687603738503 0.16241622843040823 -0.3147590155780606
v 0.9309146155416776 0.11864907968611624 -0.26940514942534244
v 0.8965792090774 0.04103585744178036 -0.1778048054211688
v 0.8432267802644063 -0.08153897467116575 -0.04035358941954284
v 0.8199179350299327 -0.13272321729875025 0.010174775631679327
v 0.839196090686484 0.26169866408021875 -0.3639628822335613
v 0.7872190667368703 -0.21471854519375672 0.10961327155393688
v 0.9659864926601684 0.2035905837634706 -0.3663974022247377
v 0.8891331705032995 0.02857321833004704 -0.16010295137500943
v 0.9059997762520352 0.06213031434580999 -0.2042697374654862
v 0.867657279955436 -0.04375586373289696 -0.08655621020452059
v 0.8759121562176789 -0.005028165563686378 -0.12428902793245654
v 0.8127241636975627 -0.1478932175902168 0.04128370728527415
v 0.8253770010949719 -0.11943795307594361 0.004027596210717493
v 0.7815897400019791 -0.22538943743106862 0.12679893493236336
v 0.9048400951251272 0.0607585836736558 -0.2022893337506501
v 0.9744299898070886 0.22372720411982638 -0.3810726709567625
v 0.8684648111483568 -0.02766823508258409 -0.08890585288731978
v 0.8977591710986685 0.039501431428158894 -0.17579081328849422
v 0.9466680154736362 0.15355666732639442 -0.30928286230016516
v 0.18510595081742087 0.04117883971676476 0.12859822390751866
v 0.1038133619397386 0.012712469247338105 0.18295794706799623
v 0.04228546152781257 -0.006718667169914119 0.22884400289809967
v 0.18665635241487782 0.042112745782496935 0.11725090471515776
v 0.13069765428312816 0.02454298954337795 0.16374914006739097
v 0.06278672425609465 0.0022758416497265198 0.21314318952766506
v 0.03584689331352982 -0.0023449506207759685 0.228796231555563
v 0.1543206984845502 -0.10782515817437535 0.2791000470671269
v 0.17191478290485476 0.03761273997574261 0.12987654912381366
v 0.1937842280378299 0.046108386998336984 0.11245663286584251
v 0.7716218753874264 -0.2587482045437444 0.15598715091405185
v 0.7354040218423274 -0.34064350713093794 0.2539292005818683
v 0.7799384141229019 0.2504059295157946 -0.3235011310614462
v 0.7317304570640173 0.22870890521304693 -0.2886048117580999
v 0.6921991997809102 0.21955150937192278 -0.2551841400694198
v 0.5625297229589867 -0.2932285193008796 0.27577235335225264
v 0.6157465067842145 0.1913725795074475 -0.20059737237015662
v 0.5462402383586339 0.17007649031125865 -0.14950859036189695
v 0.5090705426546147 0.15746271796505276 -0.11747623939365087
v 0.47481431948122865 0.13911259825010852 -0.09433893287076466
v 0.4074194341578279 -0.21637835051620188 0.279793192918925
v 0.4434443660378743 0.138285700350667 -0.07196872401539765
v 0.3610445692899347 -0.1988133557735577 0.27987405199267296
v 0.3586015412540639 0.10222875897761487 -0.005525318127287607
v 0.265701714336486 0.07206128946817841 0.06106593904629819
v 0.2359355695433916 0.061373233408498006 0.08159621781153838
v 0.7855108009593071 0.24769186711740143 -0.3259234543447185
v 0.7290172938320537 0.2243467472019192 -0.27601175779078224
v 0.6609394867256432 0.20661634705242996 -0.23175686662840006
v 0.7586060882104118 -0.28726872845361895 0.19104209522273538
v 0.6142872028664204 0.18613194473905303 -0.19681078294706128
v 0.6252921374502296 0.19127990914873125 -0.2064132121223114
v 0.5136021242829825 0.154912463296732 -0.12840161178261153
v 0.5454515905671821 -0.2851303404939138 0.2756963889577037
v 0.44811983976796166 0.13849707719714166 -0.07070773345452183
v 0.4897059334503151 -0.255883211327524 0.28366298608531887
v 0.4098668598366595 0.11758471082624726 -0.044918698643897706
v 0.44776392813116234 -0.23838818570936263 0.2800902877945944
v 0.37579025630329954 0.10695860935640991 -0.026067639448591945
v 0.37003958153042166 -0.21077737332865232 0.28470686341976414
v 0.31146691543380706 0.08101601520778647 0.03141598292003712
v 0.2616236252737622 0.06774799088789982 0.06587559950112278
v 0.2219712439875545 0.05797697918063362 0.09580030562632313
v 0.21116125168216593 -0.13359257017167356 0.2826334895980678
v 0.6040660815477358 0.18189297595783838 -0.1830291008674803
v 0.6571177265325977 0.20798027542013453 -0.2367493381429073
v 0.7770804654519127 0.2425011820276855 -0.3224180267401778
v 0.7164729867766655 -0.3641871986281393 0.2736880189814081
v 0.331656482870307 0.09980656876856445 0.013246901544523973
v 0.4890475057704154 0.15007697841720044 -0.10198855190223348
v 0.5584059299980723 0.16808255390929494 -0.1557979553837258
v 0.7133064039890813 0.22100249001827205 -0.26723657010829943
v 0.7747748188869568 0.24160483155028342 -0.3173233353111351
v -0.1232091660820811 0.019436128863219715 0.28086078621140614
v 0.43363733618574707 0.129591742437819 -0.05941333554937242
v -0.08271614192050149 -0.007115559772927006 0.2830393129558274
v 0.9799158405820453 0.2224886573391411 -0.39434686113865597
v -0.03723943921906356 0.11512145817291165 0.15420958628131995
v -0.7150271991830921 0.45725609150852375 0.12468222523157287
v -0.04426475423648773 0.13444308583031978 0.13793927048769933
v -0.18147237325017387 0.04365924437980233 0.27964508937121685
v -0.22005864137496076 0.570291525599182 -0.20103918793077435
v -0.15507755111048518 0.40680458554270343 -0.07465961111945932
v 0.41060590133343994 0.12297009608907927 -0.04225129355173052
v 0.5874189218777891 -0.3071625320354808 0.2812154014616604
v 0.04329141209105439 -0.05530188097698006 0.2807910277564292
v -0.21984255475278353 0.5781466254388578 -0.20242056944479098
v -0.41318120286253246 0.8558031523024183 -0.3804053916324821
v -0.7687285930447715 0.338372684853901 0.25980260813462636
v -0.08456818334364609 0.22739063497239323 0.07186268322246664
v -0.29103240612300496 0.7565945537868416 -0.3432831963495161
v -0.5665379646557053 0.22029040094927616 0.2786179748999082
v 0.8716522861154218 0.27440979223981493 -0.3860461816779244
v 0.582031308370104 0.1792228760967891 -0.16831943711508807
v 0.07700817417457231 -0.06986414091341954 0.2766639632434188
v 0.2844281185632913 -0.1720026274116737 0.2803537098357423
v -0.6665538261812018 0.5750927868126121 -0.018215858719747836
v -0.5534897167766473 0.21721929168865217 0.2794706895623046
v 0.8456449320004022 -0.08317102706926516 -0.03712490443393577
v 0.6631014891643947 0.20492257973624203 -0.2342884217837189
v 0.8282617592330398 0.2562035053551826 -0.36077890545471963
v -0.6922941665788426 0.2761817520554559 0.27614044777643204
v -0.08281685927274988 0.22623481412756158 0.06186400978521828
v 0.5935850439012627 -0.3058661495682765 0.27690279433004755
v 0.8762055868072185 -0.018107736022218768 -0.11237173375558576
v -0.7552348323738568 0.36554627499075976 0.22340844387492448
v -0.20306908793425504 0.5389061268910863 -0.17937140927992623
v 0.11266844553375012 0.019922502844633854 0.17957152045909397
v -0.2569815602192484 0.6572855319886087 -0.2670579739946559
v -0.5456780549084804 0.20595799364153974 0.27312497520034573
v 0.7481220239409698 -0.28550335498510543 0.19686148774612577
v 0.8978126949397505 0.03388785244217903 -0.16940641286893074
v -0.3089000891433155 0.7906926949447038 -0.37005523442965443
v -0.6950164384206843 0.2812749888324581 0.2780424517591403
v 0.14884048633917782 0.03939366500983399 0.15035522856082623
v 0.13848484801789016 0.0323497375843724 0.15735055569584466
v -0.396324200789091 0.13826573970411504 0.27371998305257944
v 0.6972318995704688 0.21630497600399665 -0.2591291110961968
v 0.8826368258550811 0.014829294189689006 -0.150508745831229
v 0.3741331098878691 -0.20599976695725328 0.27909519166855906
v -0.08157186177278751 0.2241879331544765 0.07194408996025287
v 0.8335948142934594 -0.11442352320412737 -0.006122530802751874
v 0.2753596738376156 0.07266681295237162 0.05948766689271809
v 0.20602929767000686 0.05334713949697374 0.10846938995312412
v -0.054130398981230364 0.15486165907646604 0.12120936549184859
v 0.05916733484210494 -0.0017833399911385116 0.2174119757123063
v 0.5322893006083905 0.1616176882277909 -0.13757919855560577
v -0.22109315254990214 0.5760825817127629 -0.2099083576835321
v -0.03315374735447284 0.09731378051760281 0.17022915937259178
v -0.7052266914939279 0.2784668333410115 0.2806368282417582
v 0.8607409447160849 -0.04375812746890793 -0.08717415684115776
v 0.03877843719433606 -0.005158576749350592 0.23226784364933636
v 0.5135406754260552 -0.2734301341032406 0.2792464535286904
v 0.3227985331128509 0.08903337860497115 0.018025155755007904
v 0.8968999748409064 0.033237471552677776 -0.1659325268627814
v -0.011146445761704074 -0.03675852610550166 0.2823681724042847
v 0.33370446663271214 0.09408981179437916 0.011968484278792582
v 0.6553300347248978 0.2056040376888068 -0.2320626065713368
v -0.2668675983108384 0.6982273800500591 -0.2940607471062375
v -0.26884027073749156 0.7100609742884774 -0.3047078221889776
v 0.7696743867705401 0.24156844793599258 -0.3112356991442802
v 0.8120181480290849 -0.1537398194802966 0.042727417870196314
v -0.15548171283150405 0.03265886091695866 0.2788415016139833
v -0.6745097325656398 0.5568878011600519 0.00506864874829419
v -0.7209550532420329 0.446667179059738 0.13653115181147343
v -0.6426717931004161 0.24939390837001799 0.27715100982156804
v 0.5429525117479773 -0.28641792951661177 0.2875046723597248
v -0.5686351407338986 0.800013385241175 -0.25481398246848386
v -0.5629013294437722 0.21386816889454036 0.2770216898476733
v 0.16318169882735853 0.03964439530497556 0.14415330271693155
v 0.7362453265519616 -0.3332880371152961 0.24348415149507524
v -0.703672451169185 0.27658490214654535 0.2853811607359502
v 0.8231006974980357 -0.13443728102626926 0.01884437293637178
v -0.2057836653945108 0.5430528372816315 -0.1784845089545062
v 0.38006313591923374 0.11350091659378193 -0.02225427247312129
v -0.16614391079594432 0.43465188777861286 -0.09747396177782874
v -0.41456920619775933 0.14659882503575322 0.27943161838858477
v 0.02985525946331925 -0.048948717919074645 0.28124929166366897
v 0.7796497815866911 -0.23892253261949772 0.1392289683368068
v 0.10723491219453252 -0.08618987230450113 0.2814145282528359
v -0.5515896114667261 0.8351999991126877 -0.29753009377890327
v -0.6472112985765461 0.24969707073529135 0.27799527737378943
v 0.7597509626746255 -0.27782603054679317 0.18445016641525214
v -0.04589782025156445 0.1374327083930674 0.1368953899606817
v -0.12786536527546918 0.015497767505388135 0.2789613667361936
v -0.02402278653929235 0.07482026857296925 0.18686485585019136
v -0.23528413563984418 0.5920284155910335 -0.21604419021928814
v 0.1900818321540257 -0.12623637355025438 0.28142146984954103
v -0.6373786903859351 0.25028049882494197 0.28096054671622445
v 0.448928431543812 0.13259335479632028 -0.07369998553223064
v -0.7586052534585261 0.3522621275273396 0.233843604375648
v -0.6872589405827718 0.5228116248321676 0.0486985095786642
v -0.7460373709732631 0.4054453055218289 0.1828126408048269
v 0.9061019960876132 0.062470208764987836 -0.19695700387470175
v 0.609556914600308 0.18597907033678027 -0.19418757618703086
v -0.5470038970252241 0.8566022503124449 -0.3274450302937607
v -0.6157058082396532 0.23628481634442344 0.2800625569863021
v -0.04633520263211616 0.14265694368058765 0.13126443079685865
v 0.3966561778984931 -0.21744685262246177 0.2810096132982907
v -0.676782334032193 0.5570665374433318 0.010592652679244632
v 0.8092745495919749 -0.15686353846982504 0.04644782595542337
v 0.3869500024994159 0.11707662773401932 -0.039986592275991176
v -0.11865077146621199 0.016577767870076223 0.27029933582425947
v 0.2210786513624337 -0.13858901899965922 0.27501509152215636
v -0.445149869981493 0.15806766927663168 0.28397084948266027
v -0.6522225197619572 0.6061167495432608 -0.05733347072826987
v 0.0026879963850773188 0.009637995191582972 0.2303041034915768
v 0.9187430646962718 0.09626149484397441 -0.2444429401374016
v -0.2878843096514459 0.0869861114380174 0.2816005625162779
v -0.6193175227345284 0.6928387121852688 -0.1314881577807281
v -0.5556719468154558 0.8261223285712812 -0.29483357778834546
v 0.11610052616840229 -0.09059375295851073 0.28013808549257196
v -0.2196295134761517 0.5838409721610254 -0.20973067231911094
v -0.13917560836662665 0.02534857456453733 0.28433535531472504
v 0.8558362791155045 -0.0648727691799594 -0.05748494321596414
v -0.04527960276918192 0.13457162560268748 0.1429861594539096
v -0.48683785131504953 0.18689437242629525 0.28734734970534503
v 0.17251000817013643 -0.11785342803153921 0.27927910141692314
v -0.20501486196655563 0.527167281665281 -0.15853480345456109
v -0.2985704430862385 0.09712697240454361 0.28254978672693576
v -0.4233547734429869 0.8584876737333506 -0.38404688352544203
v 0.2555000867035791 0.07232363059812122 0.07685828419463439
v -0.5833289350292546 0.769659418010635 -0.2262595802560447
v -0.28541822807061495 0.7632054832098191 -0.34430999903485215
v 0.011300802336226606 0.0038798962586576785 0.23948643953182377
v -0.37693837437141303 0.131408588250469 0.2826783034543132
v -0.38966891282259236 0.14167633333999244 0.2770687807563918
v -0.05477967288367351 0.1493674459426961 0.12863207248008152
v 0.9772446733896749 0.22773259457793574 -0.3945454552038198
v 0.8650074464523361 -0.03943951166909486 -0.08944218257113816
v 0.03997834547370859 -0.06069163949260746 0.274985978508176
v 0.9732409045277305 0.2182925732350882 -0.3801861854752472
v -0.40699922955272666 0.14474192835352917 0.2798558757470676
v -0.271980191994654 0.08389093794671054 0.2782710642054599
v -0.2888504609239189 0.7648847164372508 -0.35349101293026763
v -0.1255897775202925 0.34066686048867273 -0.020326806752810962
v 0.619513492464658 0.19696856064167892 -0.2087542633191111
v 0.5996539245939222 -0.3136523532962812 0.2803959634700968
v 0.3200935380284541 0.08587724555077447 0.021667782905756713
v 0.13879805589160304 0.03110932582378332 0.16010919463645804
v -0.006294374165891068 -0.03663320372270984 0.2780775404255075
v 0.7345288525011959 0.24118047724906794 -0.2932569477400662
v -0.5297641017214516 0.8855339002020933 -0.3557023931858643
v -0.1904943011242616 0.49891840436259827 -0.14650444378463987
v 0.3910038851725399 0.11232745242551644 -0.02793854383605175
v 0.46992903168758543 -0.2519865780391509 0.2751815145733322
v 0.5299141183166433 0.1604995036591075 -0.1369487268087382
v -0.5942572082450474 0.7379429773552354 -0.19767141486635348
v -0.6382289516395405 0.2450574151547819 0.2813808239402741
v 0.8314575722747815 -0.1107961899055824 -0.01140125016928998
v 0.6675239758342485 0.20987729454236156 -0.24326073653301825
v -0.21261209885957225 0.5627490451852459 -0.19386737605410764
v -0.7062653470174767 0.27655725757913635 0.2843642603439188
v 0.5146930957927704 -0.2650738564373154 0.28524495888605295
v 0.1399006103355222 0.028194616485564563 0.14996428137788675
v 0.6376538463942737 -0.32350240793461305 0.2792885529975389
v -0.5932746888539744 0.724706001175351 -0.17633523625340036
v 0.6919484497616943 -0.3483750754806186 0.2819640763867753
v -0.5332606791329261 0.2010601549699196 0.28098370620469754
v 0.4356946244755875 0.13242275108831628 -0.0652993205214881
v -0.2441563935580906 0.6407920686334696 -0.2538121601635563
v -0.035345824292857604 0.10506269917565705 0.15726757797206786
v 0.17582990958915057 -0.11965655529463269 0.279919909628142
v 0.42239074192373005 0.1265731761757812 -0.056991818352760286
v 0.11370314111962902 0.017868200723478757 0.17441202744032777
v 0.7719399974671219 -0.2393784094000953 0.14251786428780913
v -0.23234800833979652 0.0689173850949869 0.27652145602233424
v 0.5315356455332384 0.15845921687134915 -0.13986778925888912
v 0.3022917965094555 0.08913826896041953 0.02966375860715731
v 0.8496381261427011 -0.06880779587814796 -0.05931706182114169
v -0.7171331902816034 0.4692745423103493 0.10698819802180318
v -0.38226116128674215 0.8422062081474756 -0.38181230930808796
v 0.402137540121745 0.11692424658196908 -0.03604953818994445
v -0.7068119288746127 0.48844788095137753 0.09032065065584413
v -0.6460554263733076 0.612452730937651 -0.05456405468896806
v -0.0487431803969565 0.15057034172612196 0.1268620930891656
v -0.6637673327779533 0.5917241375602879 -0.034287580446850104
v -0.6737296594837484 0.5649775757622506 -0.00767561715772205
v -0.12248496998961307 0.3338585163509797 -0.021105892458252014
v -0.5772329374424298 0.7736806850503957 -0.23146189057211214
v 0.3602711769515494 -0.21035908985333956 0.27432094736572893
v -0.16253278892789744 0.4150546929880626 -0.07900090451310626
v -0.5899538250383137 0.7606749459654472 -0.2133744945856795
v 0.7617119425532105 0.24156082610628557 -0.3112307268651649
v 0.787771158785618 -0.2153610494134419 0.115486453119396
v -0.46475161589355285 0.1731539745786483 0.2791011502898947
v -0.35621039363364204 0.12614265535396493 0.28128942108900173
v 0.7443495358660271 -0.30955485436614927 0.21787334040854098
v -0.12194498476113198 0.32889454402979357 -0.015803566054667977
v -0.5639917307503576 0.8054202317104407 -0.2727171971128498
v -0.054896642497210164 0.15571284773754004 0.12469624022336248
v -0.06028877872550349 -0.009185930844254923 0.2793548722224946
v 0.947439414948893 0.27475978434155995 -0.42007738602879424
v 0.09322222279763555 0.015166161355193013 0.1976196742002405
v -0.6088598546731364 0.7175063500416041 -0.1669616758312401
v 0.5688799792307607 0.17024091324518995 -0.16065137909225746
v -0.5452302234655042 0.20946396248099078 0.28027002478430074
v -0.762836000094782 0.34526340709028974 0.23662103865411951
v -0.03755278724103006 0.11564300383002 0.14831530990663003
v -0.19581371829901478 0.04698218556986925 0.2792610516203786
v 0.8159115491141015 -0.14793036980411065 0.023506668414849843
v 0.08703826776487796 0.00912778568265147 0.19139790525412845
v -0.6233845094463565 0.2451816514137438 0.2756569779319153
v 0.8733260193124681 -0.012640198673331618 -0.12059983285530915
v 0.666604818319434 0.20676648343705822 -0.24042275054252676
v 0.3314942957680412 -0.184557310230596 0.2812678530821638
v 0.9227525118581213 0.2758630625286542 -0.4143264108625956
v 0.9007400847046593 0.0600092329580049 -0.1920194970128642
v -0.6177400231123301 0.6695659873934933 -0.1208305054757405
v -0.41584639071174107 0.15328435608060695 0.2778081805099937
v 0.8344633159753447 -0.10715216721048376 -0.019830696447655866
v 0.8395284925165815 -0.07959809309214139 -0.045816210775361244
v -0.025083053167470386 0.08929310317159755 0.17592815310296342
v -0.288859475475597 0.7585892618097586 -0.34589159838688466
v -0.6454752400925213 0.6149097321141517 -0.05422598079590665
v -0.5629670495673001 0.8243444713790402 -0.2782306838283813
v 0.4962521562573542 0.1472952897004143 -0.10401174438203298
v 0.18019459725238193 0.04389428900700432 0.12152984954458276
v -0.21803248926201768 0.5675640134511879 -0.19203238007007428
v 0.9106737711412327 0.07773754850142076 -0.2205681035525946
v -0.44273679936958094 0.15970053015168845 0.27801886513751234
v 0.7175850871804021 0.22576534186849553 -0.27356295824123256
v 0.12148259874741518 0.023820258960831023 0.1703200138524112
v -0.4497953775924174 0.16667684968844496 0.27954551439307473
v -0.7414343585285246 0.40521955035887913 0.17791936914527515
v 0.7794119412889267 0.2399589843219912 -0.3242604844683242
v 0.029666990918490867 -0.05527748507534403 0.2734154558701953
v -0.7072285146661275 0.48236248084887806 0.09565710657948694
v 0.7754064515963882 -0.24782675033450133 0.14408387638693917
v 0.04350120011154064 -0.055888426791702375 0.28389061687781714
v -0.055379833640901356 -0.014742897213408154 0.28215978674051734
v -0.5594816960593594 0.813956259253547 -0.27577704646848256
v -0.2496976688265383 0.6454415753803064 -0.25383003867965803
v -0.15109748010837726 0.39158285345870014 -0.06417222894143738
v 0.5589902984009288 0.1648802390635088 -0.15599716576092565
v 0.416556213899339 -0.22532044055964634 0.2770532525844362
v -0.11398137853751988 0.305925157134949 0.0040783433585672895
v 0.8164109380928972 -0.14882389887921466 0.03165651101976416
v 0.9072423204018173 0.06883974947751936 -0.21496422574015478
v 0.7444558014682933 -0.3207907909184531 0.2295545867751888
v 0.1021734187141089 -0.08450374433015789 0.2811539772590641
v 0.9671315612826793 0.26880954056081247 -0.4326337275236152
v 0.4394100403287192 0.1320172825460468 -0.06465245291245138
v 0.5320632517936787 -0.28064398487943754 0.27917338803969016
v -0.3784490990111981 0.8408543078842462 -0.38655372955733536
v 0.029594821668954788 -0.04859751336450876 0.28264563501351325
v -0.12659690951373265 0.3432392262383115 -0.026991362278044606
v 0.7605067864214785 -0.27719793742556104 0.1861957173215908
v -0.5833889997948905 0.7724723682762769 -0.22135846190239047
v 0.4002232134835767 0.11789439755693339 -0.03427201945499353
v -0.6115132667153402 0.23720058672098954 0.2747751879562673
v -0.07551890564092265 -0.001025350732626779 0.27263486653088476
v -0.719539909910062 0.45045530948778745 0.1279752900229253
v -0.06808200962779111 -0.0017872737884830686 0.2807636279590346
v 0.7572652393599972 -0.292365175353258 0.1897673806770543
v -0.10089115780526074 0.25526216911364646 0.046352123258225415
v 0.8786851577863732 0.003192430612317825 -0.13796846230380067
v -0.5924130916755374 0.7434727721111164 -0.19682996994029844
v 0.7597350144991171 -0.2804270951162624 0.18298189247439228
v -0.7254867323213031 0.4321455328297046 0.1516382548614833
v -0.7054150982457674 0.28293330570560526 0.2782243177296218
v 0.7671284757907787 -0.2670945688409813 0.15941846566698867
v 0.7718926326446885 -0.26477080325382873 0.15979450088210287
v -0.5706647852110955 0.7875355193261956 -0.2490105125234196
v 0.1527430694345721 -0.10998146748797928 0.2768962373121848
v 0.7876515191989686 -0.2028331003632546 0.10391768622243239
v 0.8128240951386535 -0.16191429237111565 0.048969088762554756
v -0.10710916311189304 0.2903439994210573 0.011303790555525942
v 0.7848661706901412 -0.2206210944969375 0.1271728630146373
v -0.3328946895689761 0.8085367456986964 -0.3818559041730828
v -0.5655800661724472 0.8103785988988911 -0.27502785536996216
v 0.21636878166239895 0.059106292879971274 0.09122916482356978
v -0.21322146272567044 0.5687764150721435 -0.20255382431022573
v -0.6385317461267643 0.6343706340124338 -0.08071154126087164
v 0.24590389280751113 0.06715367878630267 0.08128969727074806
v 0.0056989519584906695 -0.0057409632361674805 0.2448949279482264
v -0.2119880204670654 0.0632738318322103 0.2829107207896825
v -0.41879575776831607 0.8569524920198353 -0.38328134649597395
v -0.7442992736577139 0.3916682502899249 0.19420055492940885
v -0.2628536556464118 0.6924108407818642 -0.2971079201103127
v 0.9067178252369942 0.27941063671768174 -0.4086879940422862
v -0.003700162981402015 0.0278170104655366 0.21802276587863006
v 0.2127508549139322 -0.13645729665671147 0.2815511501331
v -0.274933439893707 0.0870900761641855 0.2774636598293036
v -0.25704526373093173 0.6754249125456806 -0.2824449066307332
v 0.7798145567159643 -0.24606092688172526 0.14562928003770373
v -0.6768015688831471 0.540763385558166 0.022642109255635083
v 0.7937251121570982 -0.20134323974441876 0.09018075883870341
v -0.7220352834647749 0.2860360392024689 0.275457128253368
v -0.5604018295513733 0.82021778600469 -0.2785143408043466
v -0.2375308133894836 0.6255472264917565 -0.2385745898135415
v 0.7580713262244025 -0.2788150474625223 0.1902733345556621
v 0.11557766917429407 0.021451287130983626 0.17878200358061863
v 0.645594967412524 0.20535866591336663 -0.2204631006342118
v 0.3666861753283607 0.10913749350865211 -0.016968208921224966
v -0.5672411101889316 0.21391874417829046 0.27741647427972865
v -0.7021306347073668 0.5053974429368248 0.06655378129613361
v 0.8279532728442004 -0.12476987646897744 0.011858425018149793
v -0.695758417020316 0.505158599454258 0.07221807147458527
v 0.09815545490367689 -0.08194865928166631 0.27605521751537254
v 0.8909255629421687 0.2804514286819887 -0.40881798730965613
v -0.1272535361516325 0.33333610362948896 -0.018000600435274912
v -0.6246673854591978 0.6683652631896215 -0.11399639858675235
v 0.26343778302343074 -0.15412802302937784 0.27669719452000696
v 0.23635205166420653 0.061937930846981064 0.08956132424440273
v 0.21111634899923948 0.05280355858111891 0.10363677054017156
v -0.007931425796832743 -0.03762930864937276 0.27877369145561476
v -0.22204357281316253 0.06186091317409246 0.27843042536530466
v 0.5106312341256718 -0.27004088814797533 0.2815294537959209
v 0.47639036644405997 -0.256256648366252 0.2812251946632166
v -0.6336193547052459 0.6534881977052993 -0.09876763920096762
v -0.581201225214049 0.7693972449908744 -0.21908657754587355
v 0.869631051312881 -0.03050551070596323 -0.09573805990864231
v 0.947001909383581 0.17935464401646478 -0.33296516956000105
v 0.2601395980798934 0.07109928500209005 0.07520435896713504
v -0.6775520073664619 0.5444967906543733 0.017812635790098622
v 0.25641454227246835 0.06875716645241323 0.06933531620339999
v -0.35519723253512847 0.8272999523468568 -0.38366634584583414
v -0.46508932421135996 0.8822802352982865 -0.378927089312181
v 0.9579257457831503 0.18082393291590193 -0.3361893465334185
v 0.5345835891620562 -0.2797982119127561 0.28097412873126487
v -0.5946160783134735 0.7407127226757286 -0.19175400303955434
v -0.5444842206690332 0.2168184590349715 0.27098165986599454
v -0.6162528495391058 0.6841324966693509 -0.13511481507102566
v -0.28278983685772674 0.743747762347075 -0.3308834292932515
v -0.23744469323740147 0.7809981341393387 -0.30494224583818375
v -0.28159719422780516 0.7362718729740412 -0.3245994584100858
v -0.24735250555744692 0.7820636213053528 -0.3164835963016597
v -0.09414049399696227 0.25141527033987543 0.042727198239032475
v -0.044722484563444485 0.13427361099743015 0.13682386320085177
v -0.05660794006150777 0.1719800768662723 0.10201084406432612
v -0.21479619827035987 0.5598192387774057 -0.19225106875302145
v -0.06576774722113979 0.18502423830907477 0.09870507039863134
v -0.018010426900799095 0.06421547024999007 0.19756310825413131
v 0.1274479536691486 0.2490565864082607 0.25015189645849745
v 0.045858748210244826 0.07377255403182481 0.25511071130366225
v 0.027040110315018143 0.020128350921245697 0.25346794636221504
v 0.2032791113677099 0.409453435398698 0.25400678925001263
v 0.17766169883102567 0.345098861082201 0.2548127462237972
v 0.1509992034155932 0.28946474118527904 0.25615829302292853
v 0.10739582931687562 0.20371910265385945 0.2530460118131133
v 0.06412665618388176 0.0998666308763406 0.2540103671719737
v 0.03135273916812984 0.021803739424381588 0.2494430173772169
v 0.032424379917337175 0.03149782602572241 0.24345365654926412
v 0.13034579357833093 0.2462624004868899 0.2569511260361236
v 0.23655910106250788 0.4917140762775275 0.25669702952697665
v 0.2842943572268438 0.5848530146838135 0.25897307919697954
v 0.2308734799310412 0.4586908493815191 0.25651253666529006
v 0.22623562910962378 0.7433976813046558 0.12811395615481216
v 0.18290461638289443 0.759888306185472 0.0838376790951592
v 0.12960403224762426 0.7867612004804075 0.0241937319536636
v 0.0639475948104021 0.8172136555111864 -0.04235072069812695
v 0.022660694151425208 0.8313377991817954 -0.09374759022873609
v -0.0285463178443702 0.8349208456379354 -0.1479323582007872
v -0.05386891564355684 0.7807523181398901 -0.14514837820064463
v -0.07520176948316504 0.7300912746241014 -0.14095974233219657
v 0.20013958779590635 0.7633329019332339 0.10442546941804158
v 0.13338742577006832 0.786902347531231 0.03270739815990993
v 0.04456841301244719 0.8250166787624098 -0.07231733282587127
v 0.021482723191928392 0.8263656882974098 -0.09698940015434895
v -0.045656901650499224 0.796397790427629 -0.14038793766818666
v -0.049822417265133485 0.7853311658127926 -0.14637631487625155
v 0.16942813837407 0.7644006310447033 0.06668703049988747
v 0.2127361625336144 0.745206659113413 0.12369299593478951
v 0.26068522919332143 0.729113551427044 0.1762603619599949
v 0.2890842237263577 0.7211981625326825 0.21428678696009834
v 0.25921224061059883 0.7305857412319702 0.17717125901018424
v 0.3180010580628649 0.7064260897522556 0.23492781055233522
v -0.07287837329561223 0.19274487369563997 0.0898177614814729
v -0.0626086186923373 0.1650612980292873 0.11640336001747639
v -0.1097510343897718 0.29203807805773935 0.020252766288740048
v -0.11978617018371833 0.3284816668266916 -0.014689202697860785
v -0.1480505674390011 0.3978988757285596 -0.06659725627725153
v -0.19269432162638536 0.501416205508857 -0.1471765890420733
v -0.22945740992613714 0.5988476135491948 -0.22814232227535053
v -0.11777368537459393 0.7407546909337928 -0.18113998917076654
v -0.07813327814103573 0.21821337407282415 0.06978169940592607
v -0.09454202411638452 0.2578147727513933 0.03803721847980616
v -0.11709748081350324 0.2993685804038617 0.009292980055567812
v -0.13368180750969577 0.3513240251032821 -0.030092317774239218
v -0.23169205650280641 0.6038342973289456 -0.21891648528244512
v -0.24807853794451232 0.6369759542319928 -0.24997210097278494
v -0.25371996566991123 0.6600044955298108 -0.26891085471259724
v -0.2213851202348938 0.5683719745637821 -0.1973406854554672
v -0.1770744296510877 0.4727302640819115 -0.12273799593104799
v -0.22056481808242584 0.5716573802493791 -0.2049799723336098
v -0.13131140390978313 0.3516685638957594 -0.02979571223267599
v -0.10964001427695269 0.7293677591060697 -0.17302829885257207
v -0.1677871353544578 0.7581378697304444 -0.2365268518371687
v -0.21795433711814274 0.7703626959525717 -0.2840976414693061
v -0.26655837260037607 0.6853430561493089 -0.28543476113859634
v -0.15942937744973906 0.751744903652334 -0.22003686073321993
v -0.2621849274203003 0.6911735690861787 -0.2879723031898156
v -0.21548864128254086 0.7645422006023251 -0.28066481916572855
v 0.20010362359010125 0.3933251270440157 0.2507013133168591
v 0.17570234159903161 0.3467231192019868 0.25440397813589805
v 0.15054468024698647 0.2933431964900061 0.25182236694142435
v 0.07625667481852401 0.11639062692372358 0.2545533878209225
v -0.024210083193326303 0.07591033923752505 0.17729927521885563
v 0.1951945148556676 0.3856871754143665 0.2543462789187982
v -0.0820748625718037 0.7132103658034755 -0.13651809357423747
v -0.01870423905025637 0.05492543987843525 0.2010741227446936
v -0.03614368914629504 0.09804079117646175 0.1703264340759555
v 0.18967463137638632 0.3728992520823602 0.24950847529713466
v -0.011681105224379899 0.0454827746905702 0.20521001536977235
v 0.08967288898110715 0.1498146144117618 0.2511190997174109
v 0.3171299205806986 0.6583256615944517 0.2513373887605198
v 0.3158528048633271 0.6601650053601643 0.26036781232198947
v 0.28668744559498344 0.6081886131336564 0.2537304604642447
v 0.2597938128081236 0.5280661789597797 0.2563607416118961
v 0.3095715192242334 0.6479031649341003 0.25981213537134795
v 0.2875567691852882 0.5839717429133607 0.2518749179104753
v 0.29262306924863846 0.7215841165174858 0.2069883009317832
v -0.2966233975189636 0.7812954946665112 -0.35402728011811335
v -0.16474712142329898 0.7481847157039047 -0.22757470311540567
v -0.2297439180373289 0.5947917913286613 -0.21725215521194574
v 0.19118233557774666 0.3790570195269718 0.25242441455628073
v 0.14010240750412073 0.7787314999361646 0.03979719492643447
v 0.13563982818050418 0.25958004811584245 0.2470398936544958
v 0.30186748778666644 0.6336856619540966 0.256226171490812
v 0.11096408251386068 0.20183490539465374 0.2541301820443389
v -0.08060682923940944 0.21190411909984913 0.0816054510220625
v -0.024347808186269564 0.8390181903911831 -0.14239751170228396
v 0.2902570294631687 0.7136684685184911 0.20883681315251712
v -0.24450166294443243 0.6383322252391344 -0.2537833690138447
v -0.2292527909888002 0.5928201172169456 -0.21742971067176067
v -0.09447322194728194 0.2450834483642908 0.05286391317807029
v 0.15695819361333474 0.29752179488333363 0.25562837681775874
v -0.03670551924817002 0.09652254259425827 0.160775558390706
v -0.2831948449561744 0.7308128739282492 -0.32507520844332394
v 0.27836389534087186 0.5806302276591467 0.25805173220215327
v -0.06357619164109803 0.1701493607716616 0.10726348846039914
v -0.1535743022258149 0.7465860980847216 -0.21901074391577063
v 0.06578320879287296 0.8162386409735731 -0.05080273059076264
v -0.0397412946646724 0.12292993831472906 0.14696680376106389
v -0.14397907489096148 0.38582804821322964 -0.0560003367201796
v -0.03487452683373219 0.8226041327984699 -0.14221720388062745
v -0.2443677009641855 0.7790043813139734 -0.30677099335393476
v 0.10038486189073141 0.7973421401030043 -0.002815915838330654
v -0.08305657164756798 0.20920745062889373 0.07714259004833399
v -0.006624284507521032 0.05312312675846492 0.20156604284605326
v 0.05198526564076097 0.8213930441707951 -0.06716468798509063
v 0.28892671615856036 0.5899186247854683 0.25974678242153765
v -0.23344142653263264 0.6145725323151252 -0.22933187488145904
v 0.24705160126478473 0.5124240488308773 0.25646258595711685
v 0.17312937997722236 0.34201853279915906 0.25388118559233536
v 0.24014759535457286 0.4947306288855181 0.25573026404637944
v -0.18872078029002776 0.49009120303556686 -0.13725874886347245
v -0.24449450497230227 0.6371123863437798 -0.2534304414281172
v 0.04754967320820521 0.07004565504944192 0.2523044241353
v -0.2499203386752038 0.7859280108943987 -0.3187244684812409
v -0.20818129885246547 0.5580898060918752 -0.18921908414165717
v 0.21911583063111031 0.740538280687562 0.1377874605004717
v -0.06736146540583586 0.7477114330899516 -0.14095678376376672
v -0.07875225071129321 0.21834702782887708 0.07381082656347385
v 0.1397837856217182 0.2793156846998371 0.25371353609367747
v 0.13961508718768736 0.26051720477043916 0.2549465724300893
v 0.3339006266025257 0.7018808368757593 0.25047667704114074
v 0.24757457770698357 0.517282593699545 0.2550277549844298
v 0.3261687981538828 0.6770314330823917 0.2578650525212384
v 0.007231023204490663 0.840599143394731 -0.10640432107764147
v 0.25918659972351693 0.5458486327772236 0.25416295903496544
v -0.15389362247645724 0.4073964354078605 -0.07238514224094078
v 0.004736736388789789 0.005231892289711509 0.23829264976939424
v -0.2653426684314194 0.6801436040664751 -0.28652892994665285
v 0.25605817799105635 0.5194141205494773 0.25961877750113693
v 0.26574170778124756 0.7260506933674624 0.1808010130976005
v -0.17201866592425988 0.45272458685986233 -0.11193105045222992
v 0.05970576935963011 0.8179890128960968 -0.05091099188588907
v -0.25014840137059197 0.6415177345913128 -0.25029043587525407
v 0.1311190855264712 0.24928641467436852 0.25379251410917764
v 0.011276799565357994 -0.00417912498703808 0.24239939982361652
v 0.10220552415695132 0.1783745755923097 0.2525102313675971
v -0.011616814788575631 0.8441859476297349 -0.1320552730015517
v -0.020777578225019383 0.06014080862543012 0.1925220724879069
v 0.06314335013802885 0.08803198899108051 0.25138934366015425
v 0.2573827039883637 0.5244520709948582 0.2542595114237823
v -0.12865287390038987 0.3507822704291727 -0.028326492845042038
v -0.10861021519855868 0.29236136370746046 0.01859096068963757
v 0.22659250852090385 0.744522343324166 0.14484516688354798
v -0.08247141302939796 0.23131226020838827 0.06955899225284097
v 0.2972674708902934 0.609207254511595 0.25901045944918344
v 0.19036934027830152 0.38965820281541136 0.2548306512974189
v -0.21323965958575378 0.5637131846328006 -0.19510022614310685
v -0.2571833984739464 0.6522206773268164 -0.264176480272801
v -0.013124154913648305 0.05242351857013118 0.19466783699485637
v -0.05203599411953898 0.7896686183738357 -0.14540442496208802
v -0.014891567706093642 0.05325556158584591 0.19952774100545284
v 0.3236285996845745 0.6689941038067291 0.25526310514682826
v 0.27476719158676377 0.5593095425919407 0.25870521628699944
v -0.030037061471516517 0.09914353100636185 0.16960424625960432
v -0.08420041660362433 0.716436818964054 -0.14248752265620943
v 0.2500619096628996 0.7320802487716794 0.15797911331339248
v -0.09467179269541251 0.724895239334736 -0.16000938409214135
v -0.15080991755694778 0.4013464386976608 -0.06346796696120156
v -0.17355422907133108 0.45822311640524077 -0.1087817025301881
v -0.06221420300879904 0.17334591278330566 0.1101530854097223
v -0.0641254237863885 0.19037302311820978 0.09705117489872737
v -0.056677816602337686 0.17990824023039478 0.09821879950294306
v -0.004908218672630661 0.022249599328931346 0.22613567505295942
v -0.10336585860062686 0.7274646839668316 -0.16591873203157323
v -0.18195363713585594 0.4686882579322158 -0.11810815482900809
v -0.19751126340465 0.5132830731841743 -0.15364487362330567
v 0.27758189763583035 0.5559816611627719 0.2529638025103849
v -0.23948477253618172 0.6327960179858071 -0.24920743256615344
v 0.11292761573841832 0.20991472211218212 0.25490100428472456
v -0.050516994917060076 0.15040526681451688 0.1247865691825572
v 0.1839074930975222 0.3697288098994358 0.25175290217559415
v -0.1438611504220672 0.372476161633178 -0.048793477618949754
v -0.09347668509749184 0.2604461652819111 0.03899393915217881
v 0.05054458372812829 0.061868291065336 0.24826728182265978
v 0.26932955301796574 0.5506739542284145 0.24957674077606756
v -0.05132794644013105 0.7970729579902123 -0.1404934713106005
v 0.16432074249606005 0.33012190073502035 0.25641714831185625
v -0.05857126900338012 0.7660119741005444 -0.1424783061116115
v 0.20955615873826244 0.42703279540056455 0.2509721480357121
v -0.14040438515442188 0.378018351583789 -0.053229243054692676
v 0.20201292227040904 0.3953764017468777 0.25410347016709156
v -0.08143143527424025 0.7201051770826035 -0.14223138042066213
v 0.009742441789245404 0.8326326311059333 -0.10480680220192543
v 0.1788914000909616 0.7663125994833884 0.09099837599871902
v -0.190827056334319 0.7578676905303713 -0.25909707931152137
v -0.20104739903417732 0.5279373030729082 -0.16439213635002273
v -0.1976005256822703 0.7596560531177436 -0.2681938494775265
v -0.27060963476492667 0.7135403583958595 -0.30268055899696816
v 0.14879963508009691 0.775402987297369 0.046419414556505036
v 0.1411654082494195 0.2656214622013398 0.25603326507632546
v -0.21642794267093443 0.5714362162251849 -0.20019517381867355
v -0.03535030387824559 0.10049675821562774 0.1675298633411945
v -0.11794386461089758 0.3215894889776771 -0.009814419080330587
v -0.15074170359092237 0.39974122728830236 -0.07002122461539557
v -0.04573162848052339 0.12520622552406413 0.1501488201968526
v 0.15100270088195292 0.7752410488836557 0.046581157452388555
v 0.2643663869908762 0.7249585930082961 0.18590196307803009
v 0.28168536753806295 0.7262845502923613 0.19286090207507708
v 0.06344766371355609 0.10201571690119551 0.2562279985714441
v -0.24369531453365612 0.6320405626735328 -0.2431167907321574
v -0.07862859207246353 0.7384643696858849 -0.13873541848506055
v 0.17478005608946337 0.34252825801727316 0.25041478171108655
v -0.2864565920298354 0.7366468040117338 -0.3340625923970934
v -0.11193913637833568 0.2935504290842907 0.008381469781864197
v 0.05915345046043854 0.08932142522782283 0.25213543150825035
v 0.8387816840952919 0.26677158621863484 -0.37092669635442466
v 0.8300718246491757 0.264685935618784 -0.3584047071335778
v 0.14057105816499907 0.03164527628294678 0.16212198431550306
v 0.8127831664022229 0.25685245455845257 -0.3412262112073413
v 0.7632820242072521 0.24156374982709924 -0.30791716515284484
v 0.2980635846559464 0.08818572835370712 0.03486760653807112
v 0.5868078112656362 0.17641952790323692 -0.17740584483426713
v 0.4713350556889635 0.1399636953024424 -0.0877194171145872
v 0.3230793994273069 0.08157467428477407 0.016423107177609066
v 0.37461928562986124 0.11773378873539461 -0.020471555572653715
v 0.37549614346084154 0.11174663407820429 -0.0277953942257571
v 0.6257815303643866 0.19338054548036127 -0.20595209076348128
v 0.0790315758613857 0.14894693267689993 0.2507787788463614
v 0.1550038598624646 0.3006325956928307 0.25751215741097344
v 0.07100643515625159 0.005819304118479778 0.20969754310772643
v 0.0789315596599698 0.007778030632103843 0.19137713454884822
v 0.12319130162514517 0.23882328890692256 0.2530937244777761
v 0.08990498461991824 0.014207644022299406 0.19230423821126522
v 0.10728348699450797 0.20362538632240226 0.25513073541186176
v 0.13637948208928466 0.26733127166690734 0.25496178778326906
v 0.29192812531926804 0.6143615873876046 0.2541097600369204
v 0.22150981313383564 0.46748153756864913 0.2567937288421922
v 0.2496917650907823 0.5067826252191369 0.26337037098381344
v 0.14130788964778537 0.02912198293264458 0.15966361128095127
v 0.06708462931733968 0.0016551074496758233 0.2148815484489479
v 0.6917223143688084 0.3695213561669998 -0.19969731340245808
v 0.6514584157616553 0.2041666943727835 -0.22572005485287872
v 0.5849158848122393 0.17770768695552885 -0.17229854146940582
v 0.5883836046217262 0.41406821610917566 -0.08934760802315
v 0.5364958985652513 0.16607280989750803 -0.1435525519853874
v 0.5402887589197918 0.4401495331352889 -0.044941165210156016
v 0.4687325617652722 0.14421100427180347 -0.09205466822108567
v 0.39095481993965125 0.10914260717802991 -0.03141432663007747
v 0.26034023055291405 0.06974426663266908 0.06796362627947207
v 0.2098385287681035 0.05903974674734041 0.10205636376867838
v 0.5921610393207112 0.4163870447597259 -0.10117300113671084
v 0.42033839815284213 0.12619971844357997 -0.05582794814425066
v 0.37880372914467975 0.10813848685119995 -0.021515967999145395
v 0.2709173794644102 0.06752119697008589 0.057524322625546756
v 0.22546626724385255 0.058704589327670954 0.08976188267282117
v 0.2698687754820653 0.0726246242532951 0.0627888194258384
v 0.3242441546232871 0.09685593355288526 0.0257042676659353
v 0.46364662448900956 0.13859936325968017 -0.08197158373763747
v 0.5278230130863205 0.44462714493300837 -0.03589421081061771
v 0.5088135305764474 0.15756562891965775 -0.1206840831527381
v 0.6417169591185924 0.2009965490783684 -0.21933168026712688
v 0.7630605675407801 0.2421779402772892 -0.3134456256446618
v 0.24156033970731924 0.06954029390787438 0.0755558957888497
v 0.29763492039363154 0.08549543245884524 0.03485429237208529
v 0.3309247145921992 0.09535649022477323 0.012023310629163723
v 0.43356306720263377 0.12578561314561795 -0.06735297767369018
v 0.5220077845738842 0.15606088126082815 -0.13065172492136298
v 0.525409706459864 0.44264780350856064 -0.031595141146741335
v 0.5611454558657866 0.171347571861533 -0.1604464571064151
v 0.5725898780032096 0.418728034079855 -0.08346354650841842
v 0.6742227549219829 0.37516419719504845 -0.18180402101881368
v 0.723511113776935 0.35533632305873236 -0.22901995901915193
v 0.7272404267492033 0.2334206073848926 -0.2854832230269657
v 0.10791058807576948 0.2059363155803569 0.2535713748679483
v 0.06033471743778035 0.09582263608362329 0.24842498982149905
v 0.13184371206612708 0.24672938124929553 0.25578098865250354
v 0.09973752101930652 0.17413976359390781 0.2542321434727066
v 0.02889383992235153 0.018000089482921332 0.25001037990273467
v 0.06413775442834185 0.09682169576649952 0.2549195118325832
v 0.1008690483654807 0.19815721307049905 0.2539826245644249
v 0.18224309638247102 0.35577209335322885 0.2513173086391538
v 0.27695981904452155 0.5629594969653022 0.25444483621928765
v 0.24217596394238258 0.4987236588406654 0.25231720180439704
v 0.22092827256060438 0.44812145492929256 0.2569756100997427
v 0.5222741574197373 0.4516540694833379 -0.030780797886327975
v 0.2823906730340917 0.5674251232487091 0.2573841932223742
v 0.18438708449379254 0.37832840041236754 0.2550382805395546
v 0.2008937113148717 0.4036973783719066 0.25478492227561184
v 0.25795533481920363 0.5276095166666759 0.25101753219937584
v 0.5297074276281932 0.46020635523928904 -0.02698474744537671
v 0.7959726190362609 0.3353737214273496 -0.29999995376298216
v 0.7815397449056123 0.3234658162669136 -0.29616969580386043
v 0.7137459388224664 0.3562686353275402 -0.22672141460953274
v 0.6295493751121971 0.3950921536062901 -0.14069935054060376
v 0.6695568670043621 0.3717467008569426 -0.1838981567568896
v 0.7824386676555983 0.3272129256861362 -0.2936542865331422
v 0.5778822867568412 0.5745367659794467 -0.023178977439463358
v 0.5255837179169813 0.614403910030884 0.042949084671557336
v 0.4243134933991749 0.6593594392313584 0.16053957164671592
v 0.5607976623148173 0.5226691429584647 -0.02540898739824991
v 0.544899278806192 0.6026523265942793 0.022440583006596702
v 0.5037653800322547 0.625643063680114 0.06222845774625886
v 0.4547377186330091 0.64414647718045 0.12604873085127663
v 0.5323176536814594 0.4753575046558884 -0.02756755977476203
v 0.38250363271261895 0.6739925611530809 0.19546195989193785
v 0.42732294836947016 0.6606024269138625 0.15329083964824963
v 0.4728081540971504 0.6351567959425473 0.10311674810622466
v 0.5552626599558239 0.6063939570427889 0.0089152831176413
v 0.09409904460843357 0.17303354324788683 0.25757511827450613
v 0.5421403017466112 0.4854745466170783 -0.025270086713030965
v 0.5353181720368282 0.16076966717440136 -0.14023023729624579
v 0.5401817684746318 0.6055304991242355 0.02336725636581012
v 0.2908314747140897 0.5976553263854796 0.255681135151009
v 0.6715464380433339 0.20851132132402855 -0.245638898896189
v 0.7254041009804352 0.36148892878702776 -0.23556822004968386
v 0.36415683073719396 0.6844648226935431 0.21760314120731666
v 0.5534260971917078 0.43175257477791684 -0.0577396863695026
v 0.668141502118226 0.38530291803146083 -0.17738335378869527
v 0.527655219174445 0.16489919247977025 -0.13553402607300657
v 0.4657383675542439 0.6404221199953563 0.1154096534071725
v 0.7696424168078064 0.23961181869293316 -0.3185797922791006
v 0.24624940275722507 0.5136877968604264 0.25827662779255534
v 0.7846666827006031 0.3338575671695131 -0.28840988982016924
v 0.4691492524769656 0.140333792659444 -0.09563820242142815
v 0.5270089061436684 0.6093329886264969 0.030562393607959086
v 0.18047479387983928 0.3473831372521963 0.25437022981459384
v 0.592424018037218 0.17739415911373071 -0.17949631367442506
v 0.5156726649963149 0.623616026282521 0.058484417807116024
v 0.45239937012702863 0.6433580979504905 0.12796516197076022
v 0.7127408459898626 0.35430399140341756 -0.22883359440031428
v 0.05145985701007724 0.07161923863712978 0.252688835419645
v 0.687420110738653 0.2162745772090803 -0.2555264336109225
v 0.6178165373820274 0.4004903469934655 -0.12447566235314095
v 0.8322316578001138 0.2603002167302405 -0.36120099126426547
v 0.3687484134933173 0.6818853596299934 0.21357331203528096
v 0.519949852870551 0.6230373575534305 0.0563446561714755
v 0.30673619402424407 0.6326841701161253 0.25058596331004296
v 0.2436683215939561 0.48728465938419335 0.2534931505942179
v 0.4027283553202036 0.11546421166545358 -0.03808393253714468
v 0.49343939331287906 0.15219454009198813 -0.10453889641570323
v 0.29921097923416395 0.6138586516848684 0.2580277429759446
v 0.07802863433973461 0.1295156465200988 0.2524118950332618
v 0.5965955787521894 0.1882721564812855 -0.18729228317211796
v 0.7135273642452351 0.22188477377082486 -0.2702388819193024
v 0.14890527450852042 0.2946208637867903 0.25343236623499293
v 0.313112245239314 0.6598037143655319 0.2558099180745588
v 0.7078660602346357 0.36334888479388755 -0.21374353173862468
v 0.42072188871335275 0.12855987231646082 -0.054687616593871315
v 0.29707662532565 0.07736407413681903 0.03941217067455379
v 0.6326943296268749 0.3973775368071632 -0.1385643739921396
v 0.1637380467616988 0.033297266494602865 0.14263665577462573
v 0.3785979516256613 0.6809924786828266 0.201062493012345
v 0.42456193991366464 0.6572531747546861 0.157469013898806
v 0.17438910799930357 0.3448312634112518 0.2512276862251887
v 0.14801375840556294 0.2810881670566152 0.252549605383093
v 0.4798118491264041 0.14178311191765797 -0.08870609425586268
v 0.028886755061323103 0.02312229310198821 0.25181038276514217
v 0.48949852567152086 0.6250314725887874 0.0854055579113568
v 0.6651012145800107 0.2089559982364536 -0.23877089893842696
v 0.4794101277586827 0.14526483412788574 -0.10009430222582837
v 0.14191281772435463 0.2787169463740493 0.24944193884927612
v 0.0785791629374679 0.14126880872907918 0.2550238900998313
v 0.46110496120601174 0.13627726569162615 -0.08162967482886178
v 0.22215025908976954 0.06191598911678244 0.0981820301603414
v 0.5511457299692674 0.6006153894795622 0.013113942465824641
v -0.3479976689693234 0.1225415576709984 0.2774173313010278
v -0.7968659225102511 0.2739362393980506 0.228558695443066
v -0.6012346779796767 0.23276256042860433 0.27994879879838186
v -0.4668186196366221 0.16996760452498325 0.274856241924425
v -0.42209491352703976 0.154512008929594 0.27708715981897764
v -0.2564272710094598 0.08060107721475845 0.284432485890079
v -0.09909066003848174 0.01134338196937048 0.2803043665055669
v -0.6531255434635385 0.2578931043991138 0.2803820090719958
v -0.3198571167640549 0.11023670516601794 0.2794755442530178
v -0.7557544259983946 0.3006857947839793 0.27702168511295255
v -0.7862952472598058 0.2968358845508985 0.2583085417967805
v 0.107973117677487 -0.0864812254313597 0.27757375796145445
v 0.045730314181269265 -0.060903829175731054 0.2844115198043754
v 0.1696040445638134 -0.11367927849314369 0.282141838514016
v 0.006605247039012387 -0.04346951465315608 0.28473843741875166
v 0.008307662201024017 -0.03924819227118642 0.27136234519309205
v 0.11246364077624045 -0.08181957111653661 0.28358097311879427
v 0.2101818021084671 -0.1313474109937763 0.28159344477829423
v 0.0004552751848800494 -0.03700009226714198 0.28040355107532927
v 0.1393635628322259 -0.10037743600920966 0.2754375150762217
v 0.192341120383857 -0.12525535416929828 0.2773475348579571
v 0.3630782360055799 -0.20939302128050388 0.2825213002625262
v 0.2993335167378494 -0.17215883091907563 0.2861666105683538
v 0.6460350433396324 -0.3329261013416065 0.27772251115846436
v 0.480279321290012 -0.25838522412633613 0.2778731565047014
v 0.3980274250353961 -0.22050835506825384 0.2852575681590472
v 0.24175833631985966 -0.14347209782390402 0.2839866707061875
v 0.36812683705057675 -0.19877252717675994 0.2830284645285229
v 0.4049444839115789 -0.22512161218167182 0.281226366352147
v 0.5040926967747444 -0.2650486255076187 0.27350208269279563
v 0.6092223789548791 -0.31335001871149204 0.27909842463783147
v 0.4567208002404936 -0.23935675973180778 0.2829740448595027
v 0.5256263212776332 -0.27574161404246955 0.27951654965306066
v 0.6020092389833559 -0.3156669112799512 0.2773595587498517
v 0.7023369634557337 -0.40506099290413367 0.2387632729000848
v 0.646050618708821 -0.330494584894761 0.2803785752663577
v 0.6767819186327249 -0.3439105188537363 0.2882858490886964
v 0.05342451563339828 -0.06173699719377663 0.2755457369721756
v 0.034825046450275114 -0.05197588536169246 0.2846491322767796
v 0.05977207252450688 -0.06233177787335191 0.27298854046492477
v 0.5400303403259336 -0.7994420377388245 -0.20059684209327913
v 0.5126324717870029 -0.8740520743825889 -0.2850833385771921
v 0.5360638420759268 -0.8158318082578447 -0.21474415569628538
v 0.5131663444071151 -0.8585917146866651 -0.2649127351201167
v 0.510167227172234 -0.8664689551126545 -0.26661358743111085
v 0.5218213238922303 -0.8213332101094362 -0.22175904622291914
v 0.5407994969202877 -0.7934314664805133 -0.1939609254269831
v 0.5528222271469893 -0.7550825446275775 -0.15170782523032503
v 0.5213468307649785 -0.8489711467447919 -0.25410677995639064
v 0.5549245755100193 -0.7556619778991498 -0.14730197733782405
v 0.542184395116687 -0.7871014781447478 -0.18928646058044712
v 0.7147947550099113 -0.38643050588846395 0.2647582798248328
v 0.5966583637567443 -0.661148826615314 -0.05266244891016807
v 0.5663040260878398 -0.7332696475718495 -0.12622599425583722
v 0.6029208733536622 -0.310899352316857 0.2775580679249876
v 0.41049197951334415 -0.22736821877760702 0.2793496971332684
v 0.7119659559494192 -0.3611274237414992 0.282681881776604
v 0.6852673580557851 -0.44819637521491157 0.1892505210761066
v 0.6393150690125615 -0.5554696865076811 0.06339339171202844
v 0.59889638759022 -0.6521616116637979 -0.045665629003410896
v 0.5182363753193695 -0.2667297669731751 0.2766616745930996
v 0.5754378549855511 -0.7217850644191057 -0.11772922193284666
v 0.5784933387124166 -0.7113224545637422 -0.10037898308904754
v 0.5965293873029249 -0.6658476354346582 -0.05093071679152911
v 0.6119270977244023 -0.6259121241740254 -0.006827470702058059
v 0.6315317811533043 -0.5800710119198457 0.03966617914127104
v 0.6474199933619164 -0.5423714960706776 0.08026225337353762
v 0.2321525839248914 -0.13807248948658585 0.2803467406143862
v 0.2531022703200183 -0.15083492896631237 0.2816225683839734
v 0.311349009330305 -0.18013334884203624 0.28735648955059584
v 0.42636976316446396 -0.2348037552898966 0.2792648375147999
v 0.5872050757141567 -0.6923268995854946 -0.08433992972330319
v 0.5686804702450263 -0.7287362858518963 -0.12294139652630087
v 0.6296855180200838 -0.5881077319232676 0.03746988855428329
v 0.6099687348880755 -0.6231478118456656 -0.004414905316456303
v 0.6515031735578743 -0.5286918162202324 0.09786712051859288
v 0.6802118104388719 -0.465782502102346 0.17294241111865286
v 0.6666841384409102 -0.4968462640251563 0.13673109727316207
v 0.7039711128060784 -0.405421003842621 0.23048848384669968
v 0.15398198829878343 -0.7508260537573568 -0.3224438087468159
v -0.9578581336522932 -0.2763235042357989 -0.34094442862390867
v -1.0001443272809634 -0.2475641008340762 -0.34240083546658134
v -0.8818252953430361 -0.30326536327763876 -0.343689790107243
v -0.9971825140180361 -0.24918499922136256 -0.33882707421326047
v -0.9069722885679364 -0.29112193282691423 -0.34017814187011974
v 0.13022871635910185 -0.7490133149162383 -0.3119375353799935
v -0.11564860996452668 -0.6327565569101564 -0.32941823275905235
v -0.19818595673777617 -0.5968602936249555 -0.32345956277427873
v -0.25651709633925895 -0.5762860634868853 -0.32821364734309405
v -0.3555948512198181 -0.5342181334618393 -0.33540803433042354
v -0.461485542121485 -0.4881035412457684 -0.3333107916297229
v -0.5610457863127639 -0.44561202787253135 -0.3336458902521768
v -0.5917843578485676 -0.43110604629254695 -0.33540572543869146
v -0.712984177267618 -0.3777997631259965 -0.3372349893034596
v -0.7523531068436471 -0.3600028704247067 -0.33566959071595964
v -0.8557187863985836 -0.3134619861224849 -0.33974118157034955
v 0.12231487184416526 -0.7452033120368445 -0.3196918984851997
v 0.06669883556495819 -0.7170218454733883 -0.3223372876348362
v -0.01869993811353076 -0.6781617217165372 -0.32677379407068824
v -0.07419055279212507 -0.6534301997551003 -0.3223773450754444
v -0.19889694053352772 -0.5998970508402185 -0.3295239466500873
v -0.48059894597060276 -0.4785715000848415 -0.330280201936251
v -0.5462303015358483 -0.4462199490965383 -0.33586984155458066
v -0.6092378411594962 -0.42418142475850973 -0.3370257263884865
v -0.6526174145783099 -0.4076722968151453 -0.3330745966311569
v -0.7326617040813244 -0.3625396302842108 -0.34029051579440184
v -0.8006120374080761 -0.34439418531621596 -0.3426049029366166
v -0.8424246363117903 -0.3220172319871147 -0.33841598276723595
v -0.8023868444241868 -0.33646992278233323 -0.33819156333999734
v -0.7489379422799557 -0.35600113666186883 -0.3342927680780392
v -0.6836574674260497 -0.39179020930034403 -0.3394738122306416
v -0.6246111175461375 -0.41802908958842416 -0.3387772708541815
v -0.580578426113451 -0.4357180083690533 -0.33215574528224034
v -0.4746602524555078 -0.47728258347898894 -0.32983045429277813
v -0.4056142982781592 -0.5099855981312968 -0.33440153476653967
v -0.35688894751042416 -0.531017305739188 -0.3273060708529757
v -0.3158693538860008 -0.5491961415419039 -0.3271359315903762
v -0.2560009870198154 -0.5721486966917138 -0.32988676724772203
v -0.18530948213427753 -0.604099769228647 -0.32535810189563535
v -0.15058877600364354 -0.6220308892625691 -0.3283766252157637
v -0.09807020884855697 -0.6370960880862159 -0.3214891729082062
v -0.048295024003587386 -0.6683073007938194 -0.32288146997526
v 0.014368808962253954 -0.6928315616221676 -0.3214971486051836
v 0.09929155685499585 -0.7355867938823273 -0.32342674528485077
v -0.7218846018937172 -0.37315550508895673 -0.33498955446979195
v -0.6923799608325709 -0.387802007807987 -0.3383920890014727
v -0.6048639536278284 -0.41922025535450813 -0.33816823735408214
v -0.5539180208732367 -0.4496139982658102 -0.3384237152730103
v -0.4741750218067064 -0.47875889626108614 -0.33105533906550505
v -0.41078532938063717 -0.5065807596781007 -0.3316883892882809
v -0.3520189017579655 -0.5380148162300152 -0.33095490107240183
v -0.2971548956122372 -0.5616982213112937 -0.3301701942325619
v -0.25876093945701517 -0.577690623884132 -0.3304274521684436
v -0.10062415854759102 -0.6423937080453307 -0.3200447222674856
v -0.058368421990725665 -0.6627791934957207 -0.3276214466363289
v -0.008034818941243829 -0.6818439310414046 -0.3220781029417514
v 0.04963366133440909 -0.7067718161095652 -0.3226845825208118
v 0.11113614134385699 -0.736681020634404 -0.31713141324471206
v 0.19166699658834965 -0.7688701131565244 -0.32176435365103284
v 0.2511006774467585 -0.7965639608020005 -0.3183426312514104
v 0.4262133824492601 -0.8706099915889411 -0.3164888688328408
v 0.36185889720009756 -0.8406846321819278 -0.31983805805867344
v 0.3240763382992105 -0.822369652704411 -0.31947199311157626
v 0.358758123345908 -0.8400887283285199 -0.31306062858686357
v 0.43635836512350584 -0.8736610532074438 -0.3132283899314538
v -0.9256299622541363 -0.03408223622821256 -0.10257401019821179
v -0.9242320373998997 -0.027651479885469225 -0.09950378628823156
v -0.9522154662058966 -0.07885697160619884 -0.15713707902491653
v -0.9808984789182524 -0.15118804278158704 -0.2344873763078195
v -1.0118204458011935 -0.23703441204913808 -0.32704472803690343
v -0.9739348890918106 -0.12484665313221946 -0.22281958458201326
v -0.9624039134652115 -0.08780830725849939 -0.17044421046876002
v -0.9388000404509256 -0.04980307759358909 -0.12239296348337575
v -0.9102075243280779 -0.007591590870500525 -0.08304035023390423
v -0.9023954785935849 0.02716840902451712 -0.04398821487915311
v -0.8822686776825561 0.06647400829189735 0.003306688180244377
v -0.999253117467539 -0.19440170683046196 -0.28838115572108297
v -0.9756316099449901 -0.13455827756107294 -0.21638435139836473
v -0.9856260609531508 -0.16547608308917497 -0.2522189676201102
v -0.9643391029256971 -0.11560738401287012 -0.20267336156921753
v -0.9137120444623413 0.008591965263805823 -0.06139908552884101
v -0.924199932943567 -0.02963697328834856 -0.10115873264753629
v -0.09231094938602126 0.0019582982777604173 0.2816360416665954
v -0.1902521445503869 0.048008493098373274 0.2824630025458338
v -0.388313612916509 0.13486606779739796 0.2777133527200114
v -0.5369939302094016 0.20741742468695215 0.28097374527572183
v -0.7519439366387753 0.2979275051241343 0.27850177320061453
v -0.8219647906865205 0.21147650702524748 0.17007897928212742
v -0.836732679871507 0.17860643467804513 0.12675659778011034
v -0.8700287587346558 0.1062796899716185 0.04553327631591583
v -0.8971529911261367 0.054411558180174326 -0.012186765772034052
v -0.1997600619616545 0.04592391469379983 0.2779297761032994
v -0.4077156979059917 0.148786430859612 0.27664603262310433
v -0.4762796503044682 0.17720523273555192 0.28520419563072086
v -0.5250604871263039 0.19838928665254846 0.28149484850920103
v -0.8170611033253722 0.23451734010305642 0.1914152454051175
v -0.8498619801593692 0.1487494694455993 0.09938294678162839
v -0.8142486461333817 0.23288987400566405 0.1769715184900062
v -0.7600532680435136 0.3053616720548584 0.2792717406919048
v -0.5316929475144938 0.20106520569085146 0.2752973146370158
v -0.37526086914769013 0.13288667351417235 0.2752494386223906
v -0.3058793349820019 0.0979738112669989 0.27698487573131403
v -0.03716273147561268 -0.017805335059236503 0.2802025510844018
v -0.8802000778701862 0.082815516487686 0.017244237959146914
v -0.8366309687547625 0.17078384256789095 0.12154015147601717
v -0.8607477443630278 0.1407308806411106 0.08321225795579053
v -0.8166219528038239 0.21196034547148102 0.1710908442832499
v -0.6954577488780657 0.2778713390028572 0.2782254982959844
v -0.06883285775563573 -0.0035486002531785426 0.2835723118466279
v 0.5912794025990673 -0.6754002168805588 -0.06363926507453999
v 0.5141334577371892 -0.8497729614139993 -0.257727991586102
v 0.06507509807853275 -0.0708262581554042 0.2823635371011638
v 0.7058722350952803 -0.41186333057954055 0.23070477488706614
v -0.1104741604356992 -0.6403797604154131 -0.32769858613937647
v -0.38437825701634676 0.1323169822267426 0.28349531755490365
v -0.08458394147038452 -0.653817466706513 -0.3237790520591367
v 0.7148453055739998 -0.38828080572981977 0.25609700251431905
v -0.8311062264567777 -0.3270161804302403 -0.3425475560899483
v -0.9802131022155617 -0.26079931443792365 -0.3394280421765129
v 0.059636527472698604 -0.06449070793988809 0.27801093473253474
v -0.9181124299169242 -0.007653968364213381 -0.0837805654165349
v -0.8089694611113287 0.2554742984624721 0.21285485064859305
v 0.690222166666596 -0.4516494850270601 0.18399600270470132
v 0.6098202120581189 -0.6335159185819711 -0.02585929494067923
v -0.9514282105006105 -0.09206858092959615 -0.16726249776565844
v -0.9543903683989821 -0.27217178150105464 -0.3462231660675186
v -0.6931077695635475 0.27615593899912316 0.2797167451814572
v 0.5985037154146765 -0.30514202921460587 0.2834535049958505
v 0.708885057613611 -0.4088869876997895 0.22935596291799976
v -0.7928276169632733 0.2811338056349562 0.2449240624680925
v -0.3415815961675669 0.11574867561904283 0.28035322921371236
v 0.1259222725374403 -0.7432533878205076 -0.32236709792701795
v -0.8011014165660663 0.26219125962677386 0.21851491707262105
v -0.9562099673927551 -0.10685490260693048 -0.17940917669133782
v -0.9233427280084032 -0.014470194035333634 -0.07772289524067509
v 0.5785257441643333 -0.6920213104057309 -0.07992470418434726
v -0.03887811209526713 -0.019334732866337 0.27891056618048826
v -0.1720307400459061 0.03722750346416512 0.2772512014358261
v -0.5093777070639366 0.19742394274515457 0.2797314379411846
v -0.22742757699991806 -0.5833569378860924 -0.3318399676414961
v -0.8057657487027302 0.23263480634161826 0.2021589586365794
v -0.6575252668597994 -0.401370038786611 -0.3387450416587249
v -0.3902504803633931 -0.5150838137442962 -0.32202825691054693
v 0.5356955665570123 -0.7859036140424671 -0.18488746537927717
v -0.19802301593637273 0.04745662540104589 0.2816299227122153
v -0.9875970778854697 -0.16073925107852063 -0.24103211598300764
v 0.25470274445954727 -0.795489251843861 -0.31440666727351935
v -0.7971385657855647 0.2767997795176689 0.23819935394470956
v -0.06789734018282877 -0.6571856174950986 -0.3256784779061011
v -0.899501416600073 0.04742271708886099 -0.018898053171823036
v -0.3267859347262272 -0.5467490862901496 -0.3264468911273742
v 0.42088310626696873 -0.2263235757209915 0.283310709449267
v 0.10843458965541765 -0.7359898355188838 -0.32071494793377814
v -0.14807932213760278 0.026475275242495013 0.27547844782679604
v -0.07433939542107032 -0.006589587610870237 0.2833468441767921
v 0.4153566866456006 -0.22186607102854083 0.28240818038152804
v 0.22552047066110584 -0.13773771905580978 0.28143256950012385
v -0.9831605866538454 -0.1446931364038125 -0.23381686178594138
v 0.6750535761681381 -0.4865974058175474 0.14595031844019385
v -0.9545627633640393 -0.2739030055295245 -0.3415442680149977
v 0.7074339883144581 -0.4053341332174284 0.2391583194399913
v -0.3453333102086749 -0.5385827944425813 -0.3278565302856006
v -0.8902400243751716 0.06447616879112723 0.008961440049604344
v 0.6120772259400262 -0.6282790744189487 -0.00997312553795564
v -0.9715165078873126 -0.26557280619505474 -0.34672783688911224
v 0.5927924716278842 -0.6797427059365359 -0.060356538569923485
v 0.3240695261129322 -0.18635107298417417 0.27395270610657274
v 0.10002933822256527 -0.08013714110024611 0.27873447294112214
v 0.4677809402864789 -0.8860628567918367 -0.3168737246482871
v -0.8400082358102898 0.1565574295987611 0.10954090260593735
v 0.5945824319891483 -0.6690287955345171 -0.049170792995184294
v -0.936547021855217 -0.056724567220803976 -0.1273168397318653
v 0.07559542244719643 -0.07729224619287087 0.2824768521780811
v 0.6834687181787857 -0.45111807363332146 0.1932832245057906
v 0.1546979515376591 -0.749964139992831 -0.32995031790435625
v -0.3798805859116257 0.13338212388221168 0.2747115470664331
v -0.8799206372272622 0.0799089028525701 0.012386612474103444
v -0.6317643769703651 0.2465523837017464 0.2797193420394999
v 0.26085240650073366 -0.7991581174281077 -0.3170059244306695
v -0.9994824362547109 -0.25199968300034575 -0.3435861355599881
v 0.362966105554196 -0.8398360190917916 -0.319017948466345
v 0.22884470535941714 -0.14248174728612917 0.27992439310123685
v -0.09489801850054137 0.007516659338559415 0.2821480105559382
v -0.8068090681258482 0.25421551225358563 0.20700977099818726
v 0.6723202173408336 -0.49895163479291804 0.13567839665338893
v -0.8619602524984635 -0.3140840685307958 -0.34332956715460394
v -0.9659184052372296 -0.10834386234062315 -0.1953725579648638
v -0.5647311989397664 0.21059688605273094 0.2817680263205779
v -0.9704682480757253 -0.12066717833794685 -0.20857213589153475
