v -0.7793245911598206 0.3136124908924103 0.27966612577438354
v -0.521856963634491 0.9078333377838135 -0.38046908378601074
v -0.31148216128349304 0.80817049741745 -0.38270261883735657
v 0.01123776938766241 -0.01406443864107132 0.25158965587615967
v 0.7231709361076355 -0.3652263879776001 0.2804933786392212
v 0.9931439757347107 0.26821422576904297 -0.43754842877388
v 0.33419114351272583 0.6968797445297241 0.25655311346054077
v -0.023860258981585503 0.851581335067749 -0.14483888447284698
v -0.08176683634519577 0.7192233800888062 -0.14278730750083923
v 0.5237706899642944 0.444580614566803 -0.02761940471827984
v 0.5849862098693848 0.5885199308395386 -0.02379750832915306
v 0.49564459919929504 -0.9005067944526672 -0.3122220039367676
v -1.0215082168579102 -0.24533507227897644 -0.3439217507839203
v 0.8870832324028015 0.28194355964660645 -0.401335209608078
l 1 2
l 2 3
l 10 14
l 7 8
l 4 14
l 5 6
l 3 9
l 7 11
l 12 13
l 6 14
l 1 13
l 10 11
l 3 4
l 4 7
l 1 5
l 8 9
l 5 12
