v -0.21973998844623566 -0.3260701596736908 0.014898822642862797
v -0.2984873354434967 -0.7682898640632629 -0.09385078400373459
v 0.16091684997081757 -0.8209178447723389 0.02417955920100212
v -0.08575930446386337 -1.017798662185669 -0.09887253493070602
v 0.2028326839208603 -0.3554355204105377 -0.0899096429347992
v 0.40370285511016846 -0.6287715435028076 -0.0874432772397995
v 0.27148452401161194 0.9311506748199463 -0.06162256374955177
v -0.46592268347740173 -0.23671361804008484 0.10638374835252762
v 0.41219523549079895 0.48152703046798706 0.10638374835252762
v -0.8955967426300049 -0.0007343554752878845 -0.0685131624341011
v 0.8728237152099609 0.21666307747364044 -0.09538909047842026
f 1 2 3
f 2 4 3
f 5 3 6
f 3 5 1
f 7 8 9
f 8 7 10
f 8 10 2
f 9 11 7
f 2 1 10
f 1 7 10
f 7 5 11
f 1 5 7
