v -0.15106495331021783 -0.4054984664478262 0.01573860697041217
v -0.17104641446541846 -0.3908807061431497 0.014443467686774703
v -0.1408708966610721 -0.4330178169905817 0.017359582899555834
v -0.15859749578407173 -0.4116115520488606 0.013418729158704023
v -0.1349758538803689 -0.4391234497646074 0.011855396982654365
v -0.12113348539579465 -0.45759415553182564 0.015205651671292795
v -0.0681148693076981 -0.5225972730423918 0.01911931738196186
v 0.0344353456080071 -0.6605297655710518 0.019655638604327202
v -0.03456846850650418 -0.5580504518075122 0.02148841068329728
v -0.2385235577991238 -0.43426573022064896 -0.01095206520974827
v -0.22914362319187484 -0.40331034665173476 -0.006151912537812008
v -0.12363606157263157 -0.4518517606011829 0.016201000253602597
v -0.23405799989136694 -0.4343404370208591 -0.009585461815864657
v -0.10660701943334742 -0.47623888340606507 0.018118861199178226
v -0.133541027040528 -0.4398862823088556 0.014783647908845251
v -0.15658863852139693 -0.40665134334046504 0.021321637599214155
v -0.242827541506244 -0.46155004379111236 -0.013811670951486464
v -0.24003186434032492 -0.42020431176090056 -0.011679077783022466
v -0.11974091235049916 -0.4588675715364884 0.01614745994224902
v -0.15412184001942442 -0.41913980383720906 0.019662567876792974
v -0.23572415141711686 -0.41713560824825846 -0.008351900872557015
v -0.23776618198177835 -0.4414167844777864 -0.02128644739484705
v -0.0891586876582771 -0.49382793493372523 0.02136558381309063
v -0.05540392984198078 -0.539260041871634 0.02045284660832841
v -0.04190411401999694 -0.5572556018180985 0.01697922377223216
v -0.023667953309945165 -0.5773949393277903 0.016927341085842075
v 0.005041939283867876 -0.61849742598445 0.013637399311038596
v 0.05431977791940112 -0.6777538169579133 0.024424290678532315
v -0.09954983086083574 -0.483965195537855 0.01990114019355538
v -0.038627959258053235 -0.5555169462125604 0.021729672413744187
v -0.020953778918764814 -0.5890585498221319 0.019526963005425963
v 0.023147449732294396 -0.6468908383887522 0.014885968730789626
v 0.11950744547503266 -0.7733279747925108 0.02831850310264638
v 0.07116879212412794 -0.7052188648561319 0.02217834151832243
v 0.017468582907722668 -0.6387591149868357 0.02254913072294355
v 0.00500075311737016 -0.6179944447602252 0.02091839010641325
v -0.018755203995711824 -0.5898820483189904 0.022293997677579332
v -0.05167251224803292 -0.5369450686860837 0.02009841781156449
v -0.08313523916997377 -0.5146639529945372 0.01989045017744267
v 0.11145241650624547 -0.7535153463646235 0.021401157008245277
v 0.09277605643935406 -0.7290450196649911 0.01888467182100696
v 0.052190397828940985 -0.6800439357316701 0.024582179135156833
v 0.035673696373374586 -0.6491526753937387 0.024283240785451906
v 0.008883389151291644 -0.6238720672702717 0.025027928794854028
v -0.022014111431633104 -0.5711966860582675 0.021440199194975997
v -0.06190390980184116 -0.5370755858050021 0.014957357900856482
v -0.09404691674687901 -0.49462012260359467 0.015327880223574904
v -0.2911806192867791 -0.7799533259315364 -0.0915230065427607
v -0.2680321035122352 -0.5967738472261586 -0.052263987108098355
v -0.2752936658022104 -0.6443370270253503 -0.0651234627411619
v -0.2869252618777106 -0.6932804139016842 -0.07190504058571205
v -0.25748626905086425 -0.5268759920565547 -0.03578520603143993
v -0.26458954890009534 -0.5762806216085113 -0.04917273203051252
v -0.24804852288761176 -0.4871932192028498 -0.020220438800669274
v -0.2589504247641568 -0.5451688723935928 -0.037406145929833386
v -0.2451270056039607 -0.49502417642626567 -0.02382385072125199
v -0.2895474931514327 -0.7245256981782497 -0.09137448231003976
v -0.28626695206267483 -0.6679160987060652 -0.06769538506048138
v -0.2705570242145597 -0.6142025495057499 -0.05197528669835073
v -0.2627804322339827 -0.5583726987622483 -0.050113028067859694
v -0.2507122556398071 -0.49888454932778786 -0.02880403144362801
v -0.2584778728193013 -0.5493342728669547 -0.04048433048061387
v -0.25180622497590455 -0.5177338886904642 -0.029040185817697253
v -0.24676999759827462 -0.4741864722479352 -0.02020741567720384
v -0.27472381455949624 -0.6644501206944625 -0.06880587469830578
v -0.26996844987690954 -0.6264552580731445 -0.06567882440962304
v -0.2673064196244128 -0.593334256689026 -0.05526451512986373
v -0.27527971278754193 -0.7970422777020173 -0.09584363574488851
v -0.28771334431593665 -0.7237903180869472 -0.08813469306545756
v -0.2780294245008089 -0.6905475130049135 -0.07503989055000863
v -0.2818493002579948 -0.784675561362103 -0.09322917529694465
v -0.2842510299449112 -0.652150981946941 -0.06577132319271399
v -0.2862179843645892 -0.6918739303632141 -0.07881692016984657
v -0.29812138289551565 -0.7330201723442596 -0.08631234474387216
v -0.2764888838466551 -0.7878870369199099 -0.09471157627102884
v -0.2505271446193845 -0.48729064374306374 -0.023518477326485633
v -0.256482627744077 -0.5304978895508197 -0.03529066276736208
v -0.26188970697509567 -0.5643771425830278 -0.049128755696396145
v -0.26799621914732874 -0.6032823967413792 -0.047207150658442394
v -0.27005070515957 -0.6465452880918673 -0.062329446353303966
v 0.07531411747565511 -0.715792823140337 0.017683444279803423
v 0.1514197546236711 -0.8086340522854121 0.02621995852670409
v 0.0824004824827178 -0.7191765043659806 0.025044981302974285
v 0.1201501484545465 -0.7613861241668946 0.021579143129144936
v 0.139740571259828 -0.8051310405509771 0.02714332891358167
v 0.09326607632181154 -0.7361692671193598 0.020667484216640507
v 0.03835748531467639 -0.6657384592623766 0.02057936380714236
v 0.14263166742141523 -0.7945586648811254 0.02505905150531662
v 0.12205471220947851 -0.7843182645041855 0.01993722454770134
v 0.0620210480931476 -0.6950532157901639 0.02066724148670493
v -0.21157557970522672 -0.8749854236594364 -0.09567342393685029
v -0.16502845957038256 -0.9244913801404147 -0.09520514333194961
v -0.13335768135858886 -0.9629351916189732 -0.09770496391869854
v -0.21551042088394487 -0.85959931588056 -0.09452851489254942
v -0.1993122311851961 -0.8813669647902326 -0.09336440460228534
v -0.16302602016806794 -0.9214106233666876 -0.0921429704289472
v -0.14010864553981828 -0.9413731683082903 -0.09332421376617868
v -0.17446882902327215 -0.9154866879503345 -0.09919294692724454
v -0.21821901075913805 -0.8614852001792542 -0.0940911787575692
v -0.14525840844120788 -0.9457432693935279 -0.09579124542264172
v -0.19300767736884664 -0.8872072699160638 -0.0914178287463272
v -0.17862879191970257 -0.9069609494102149 -0.09784567509185184
v -0.23352349637983655 -0.8463874399453356 -0.09928281577221752
v -0.24261843465764943 -0.8427844368043294 -0.09062087127503854
v -0.25382595689494497 -0.8237247143350221 -0.08753276727442566
v -0.24421763973227317 -0.8279767903276961 -0.09642000121437473
v -0.2522589908115276 -0.8199758405022758 -0.0976559570114868
v -0.260240460762256 -0.8176105287766695 -0.09553723973468514
v -0.13639229473206912 -0.9510550059964171 -0.1000927970644643
v -0.10834030229283133 -0.987334613099853 -0.10378718082370789
v -0.04148012093138458 -0.9849419765098769 -0.07778089795363832
v -0.021857023075103024 -0.9684927369079658 -0.062989176217756
v 0.015096385307322113 -0.9362456185801825 -0.047026523267758566
v 0.03257567000928262 -0.9223459101422437 -0.035322708003767474
v 0.06654451277840337 -0.9010181333564785 -0.0254342530210998
v 0.048631128432886146 -0.9099273705567025 -0.032420151060861435
v 0.10427714192926005 -0.8738423004820878 -0.005304559617827534
v 0.13500072203732194 -0.8383407687613766 0.010395768717290326
v -0.13330752274283011 -0.9558182362698682 -0.09566301439260615
v -0.07090379475873484 -1.0077653408894267 -0.09249783281680686
v -0.03797857893778432 -0.978868585849667 -0.0828565563681536
v -0.027311102479050033 -0.9720639020983631 -0.0666064013751731
v 0.016016447829177938 -0.9319290007273152 -0.052853371303780795
v 0.09640072561745876 -0.8710710913845908 -0.002198279861860414
v 0.10459263515212719 -0.8726284623338262 -0.004098207186232128
v -0.02084177716885442 -0.9677460351524068 -0.06619761670884368
v 0.11691257203739772 -0.8558113788391265 0.00294407122107424
v -0.05025346976645042 -0.9861609308938086 -0.07874242630978086
v -0.12817651128549498 -0.9689618175883793 -0.09967406674771032
v -0.11167580342256092 -0.993856798522967 -0.09863550843376359
v 0.14292269299428656 -0.835481344735055 0.009802561557810324
v -0.2922855702207873 -0.7006193703814921 -0.08578863864601007
v -0.278112091381866 -0.6521121264529767 -0.06761727460971204
v -0.2998903356518007 -0.7343860011812369 -0.08587156026487582
v -0.28108981128037264 -0.6830630070785937 -0.07429571728746397
v -0.22564214469463623 -0.3602673723186422 0.012728532171910233
v -0.18357792057653857 -0.37344037987592654 0.01594474232799811
v -0.19105910000162157 -0.3700271532287112 0.012860474630172581
v -0.19215983722634156 -0.3709981423873824 0.011315938099957179
v -0.22843229254229325 -0.3806958411534879 0.0013999833310953925
v -0.24799880220375828 -0.46797991328983174 -0.021516313556648733
v 0.07929371316684616 -0.7168216719321812 0.021841481851647755
v -0.09500099538232935 -0.48575677367466014 0.019969896183264994
v -0.10458112716726548 -0.9956618325248602 -0.09649088721517506
v -0.05093080761086121 -0.5415905180664288 0.01847474043363013
v -0.030422030743499445 -0.5686375830114003 0.01971409650808937
v -0.15311644883417763 -0.4107573729200696 0.01824071851201786
v 0.04077631767864999 -0.6760909258776115 0.018181389082194865
v 0.030925505799153607 -0.6500213480140723 0.02372540334846227
v 0.13781642777096412 -0.7981808914903934 0.021941989540928946
v -0.25600319548538947 -0.5358593928441476 -0.0346185179209191
v -0.1712485207000113 -0.38757419856031444 0.017594522604662464
v -0.2553014134140287 -0.5290311403790108 -0.036004424744506276
v -0.11819784938061993 -0.981768152621056 -0.09706846727758434
v -0.24728276095428536 -0.48167442859286985 -0.022556904768733524
v 0.08582368696039908 -0.8745620228403209 -0.006335365432723354
v -0.2470684779332609 -0.5012011546094893 -0.027763495849850314
v -0.1937602054325652 -0.8940848602238503 -0.09821229020503247
v -0.27493706549456526 -0.6536251543510584 -0.0634222060820905
v -0.07120682976740267 -0.5125106044286354 0.018182935013203436
v 0.0021592465924860004 -0.9553107959906456 -0.05810098986814797
v -0.0943818778245441 -0.4854075162632643 0.018814586585935787
v -0.1328384740533748 -0.9622650463931274 -0.09688483382670034
v -0.18313672986052396 -0.37971164350666614 0.013983801573249244
v -0.16516978644351468 -0.38954630364303955 0.01561634217848067
v -0.14492578224857483 -0.422188812795402 0.015477325868933458
v -0.1576416580633948 -0.406587568928088 0.015613084536409786
v -0.1325335676051792 -0.329962839400138 -0.0023799408525468956
v -0.18121614683621567 -0.3721408458494969 0.012121188728557022
v -0.17381542575999082 -0.3897163656467692 0.016636113850833065
v -0.11873578124573617 -0.4580829605315716 0.01750651819101832
v -0.10153036656669247 -0.4930740673906938 0.019022108966161324
v -0.0822264550132489 -0.5063852931336152 0.02212299067407663
v -0.04999984552655679 -0.5451571903741734 0.01743308881731868
v -0.004637460030744913 -0.6071422415309242 0.01879218071250084
v 0.02353852760795315 -0.6425203886703066 0.029144635992397326
v 0.0866648922717971 -0.7218611276849342 0.015392712926892586
v -0.11682947065011332 -0.458387936521846 0.013671655442546171
v -0.08066193323389426 -0.49827886332449456 0.018133072232923916
v -0.09724282603997289 -0.4778675201741206 0.013614896451122564
v -0.0652699905636796 -0.5333536701273636 0.022014045525275527
v -0.07643761660699111 -0.5087569767879248 0.014827830980949225
v -0.04102312290383406 -0.5643468534710369 0.016996428632768713
v -0.003126406438272051 -0.6112165596783703 0.014614737493909593
v 0.05981224231994739 -0.683386268177617 0.022847337040463937
v 0.09430804220237572 -0.7391285001394681 0.022738648400251783
v 0.10057751727558739 -0.7426412238082188 0.01892443412434894
v 0.046095945233898664 -0.6772003225054491 0.020516568166459342
v 0.024816961254828733 -0.6408087041978343 0.024342545916239085
v -0.012140380724809496 -0.5999976104124348 0.017157137083288986
v -0.031184435030361547 -0.5672668739206272 0.021071428620808835
v -0.0707298033288682 -0.5267082082366409 0.014587516744230207
v -0.09237414457197868 -0.4906743643791726 0.02372445255344033
v -0.10439570171320699 -0.4769728429778011 0.014944204406718656
v 0.12553808501433428 -0.7783193336080638 0.026010385853696985
v 0.01443783464777617 -0.6252434938407696 0.023184969471593472
v -0.01593785554676906 -0.5954249458632693 0.02539009945452836
v -0.04481032106754153 -0.5511291378537313 0.02274590294695989
v -0.11037210519102005 -0.46690325408019756 0.018128051005253727
v -0.1500700690195416 -0.41824950126776994 0.020552144577915432
v -0.11636780086098872 -0.3322991336787449 -0.013074123073173962
v -0.09255081368103019 -0.33816485697325266 -0.016971124725456695
v -0.036759797492484904 -0.3330752458213585 -0.0285688716410985
v -0.031012769529421634 -0.5769324510062209 0.017456390843826025
v -0.0023325978190694083 -0.34061953877641615 -0.0404253291486392
v 0.034762114838907406 -0.6596649522921308 0.020259277723867875
v 0.06157221243328306 -0.6880914657200012 0.025071335419646384
v 0.03448189124712615 -0.3388793481098992 -0.049305570629634574
v 0.09175602155177146 -0.7398231950040988 0.022025139980237134
v 0.12800566560619403 -0.7722973252118294 0.026469255690983587
v 0.06134268998477215 -0.3481177651434039 -0.05359953857835577
v 0.07533680814536457 -0.3452448836275885 -0.06021317180762535
v 0.1289430497689553 -0.7811165288953865 0.028041804777703495
v 0.11204917345382484 -0.34769820933108453 -0.06705075533553653
v 0.15721057294913965 -0.3512154056063078 -0.08129320450885505
v 0.18614305723228905 -0.3579285840626933 -0.08510709222587932
v 0.22432650934815135 -0.38353792206181303 -0.09028132699116333
v -0.11990307897854065 -0.3313930157989344 -0.007988170153796891
v -0.0780155618175944 -0.33652314816632983 -0.018224019790768833
v -0.0465418097202101 -0.3383764823898804 -0.023280133018412058
v -0.016161593456086438 -0.3436786167457097 -0.036928799095924336
v 0.021496795353864 -0.3474956944069019 -0.0446619513817984
v 0.07816659203908634 -0.35278127837457446 -0.060223453915959846
v 0.016408963894523548 -0.6419553531645521 0.023378457607768164
v 0.10712545025114432 -0.349825134962785 -0.07110176547747159
v 0.04082326903986904 -0.6670626428465949 0.022640680892451772
v 0.13519007253417872 -0.3500077608645716 -0.07965369098223066
v 0.14807843818699196 -0.349335957517428 -0.07226489076983873
v 0.07321932592839804 -0.7160892175948529 0.017806171543839396
v 0.2128436266027509 -0.36954962478573034 -0.09498845232779535
v 0.1279877906103393 -0.7757684133489664 0.02130938191629624
v 0.21229171474741224 -0.3720157312031149 -0.08490705077824225
v 0.1473586503004349 -0.3537764325575607 -0.0771625151356324
v 0.11606879092895171 -0.34743972009102014 -0.07175160432618945
v 0.18803162494194353 -0.7959922901014622 0.009872551554807225
v 0.08537126389039724 -0.34529736824317137 -0.0629303469370799
v 0.07269629667253676 -0.705374750172173 0.01827221185661039
v 0.025227183287560257 -0.34409878206197314 -0.049206735915408584
v -0.0004979605293173326 -0.6053047509593038 0.024153459364633954
v -0.009502325095317272 -0.3398754522881104 -0.033648067446078046
v -0.026021971939942077 -0.33671288331758303 -0.03231145999999816
v -0.05226279664230351 -0.33568991099443024 -0.026537694047868706
v -0.08437380890621782 -0.3371652169456122 -0.01166090332329395
v 0.09233816928969431 -0.7284252708784752 0.02533064710991413
v 0.17409694059575773 -0.3560490125811655 -0.07831575071430144
v 0.06934118838161778 -0.7044888874989907 0.01828452621413482
v 0.13488341526683797 -0.34748519419289065 -0.07217493870755816
v 0.03495879778078564 -0.6531254066127201 0.018057051221573344
v 0.09582309422177791 -0.3499912316104034 -0.06182976777047229
v 0.06116579976082127 -0.341347085508816 -0.05307886799203644
v 0.023553683082605237 -0.3461961456297651 -0.03954192271316773
v 0.010489864526807908 -0.34100075319500905 -0.04395101072005949
v -0.028062279735451234 -0.33891694617320905 -0.031188831815132236
v -0.08506080129631981 -0.3370848909175016 -0.017241267410190688
v -0.1094841830356907 -0.3332717233070536 -0.012833629734258629
v 0.1829434852114707 -0.8069937921826063 0.012544335915552624
v 0.22504660786165104 -0.7672771528697344 -0.0048120696712317754
v 0.25273740160472147 -0.7431796976886972 -0.015965895002018213
v 0.28861165527717186 -0.7186892310629701 -0.04024697446325434
v 0.278967243313373 -0.7295993855535214 -0.03712425135971937
v 0.21988765271690516 -0.38426324214414065 -0.08596661054741601
v 0.24141275723585506 -0.41252442798022093 -0.08783867490979251
v 0.2716572657392526 -0.4489592415862503 -0.08975768284867888
v 0.3075516033226005 -0.706485306759948 -0.0400789487864023
v 0.2917228380617225 -0.4841692226306497 -0.08498672981293987
v 0.3179284120400824 -0.5125963393970603 -0.08551259160427797
v 0.335546253234716 -0.548886969046174 -0.08376469509965227
v 0.34347269683200543 -0.6756293907843673 -0.06251878753483346
v 0.34981326622116476 -0.567523305986275 -0.08606954251420881
v 0.38190808772011786 -0.5952610485884754 -0.09001852482197692
v 0.2457897984154849 -0.411300970022636 -0.08652388375678371
v 0.18163632292835002 -0.8040288480743727 0.015337193765047732
v 0.20531117730460008 -0.7861217069004898 0.008930675618677553
v 0.2912999240690936 -0.47895243398631876 -0.08884054109313162
v 0.2724444570942464 -0.45640778125806064 -0.08983480463962275
v 0.2192541782731452 -0.7802142561227675 -0.0027079232592358074
v 0.24371962457412705 -0.7554720160563706 -0.007265142190557817
v 0.31270364650371485 -0.5069545281159925 -0.09055817215691846
v 0.2937016778951331 -0.47874271343708524 -0.08448547362733677
v 0.2812043709390591 -0.7262621820071737 -0.029569798401968907
v 0.3074578333374879 -0.7080558080776094 -0.03822851853173541
v 0.3430438655173033 -0.5399144327500045 -0.09144002806050387
v 0.34282687180062915 -0.6744313210221832 -0.06117328817278952
v 0.367530494728289 -0.6575387543470407 -0.07458197057794741
v 0.36578083934940603 -0.5744893977082911 -0.08259225681423168
v 0.3903671337696488 -0.6108616356927483 -0.09171756329746156
v 0.3840346071683437 -0.6026245967296257 -0.0809238642468451
v 0.3602196359776954 -0.5705722448729856 -0.08326574077846434
v 0.3405812294883693 -0.5503764638232155 -0.0864533480265168
v 0.31368797667379855 -0.5093192637922733 -0.0899067229838222
v 0.30442557609560794 -0.6972204640160832 -0.04639513991499161
v 0.3258769493385803 -0.6924006289282302 -0.05205296493933588
v 0.3037116675995797 -0.48999149496725714 -0.09258740910888497
v 0.27713379244193953 -0.45459640916353006 -0.09213448535941987
v 0.24840541921835713 -0.4146373656584058 -0.08364523425241047
v 0.2370565343846956 -0.4018418175167865 -0.08767181147086042
v 0.2435021907304439 -0.7588665086698909 -0.014196613264663822
v 0.215190122157537 -0.7764999899898049 -0.007302810803212064
v 0.3734700263103682 -0.5831153741173166 -0.09176101455444617
v 0.3445441683322899 -0.6750769149539962 -0.07104893441033697
v 0.3455980493512296 -0.5482414934745616 -0.08862467372928012
v 0.316552935775237 -0.6959020053445463 -0.04560243162735551
v 0.29187343667107835 -0.7198275526189777 -0.031151318142945576
v 0.3071616354477695 -0.4977834047678502 -0.09156469148248043
v 0.27287864168106224 -0.7230948173495253 -0.03312358972434862
v 0.24352819399869746 -0.7569405046127168 -0.011682236886149128
v 0.2779401968666987 -0.4584466095609692 -0.08533228343560227
v 0.2067935335630999 -0.7856282388125692 0.0027430787882505203
v 0.17524149084329718 -0.8113487651456192 0.016832154102622898
v 0.2421829691438521 -0.41114592441649217 -0.09340280664397003
v 0.22967042280202996 -0.3876628734300135 -0.09307805910139068
v -0.19383255493920828 -0.32596958324373687 0.008465230978295546
v -0.168248843950171 -0.32565870022356697 0.002651049062767997
v -0.21092736477091326 -0.3362464078210871 0.013441537114239167
v 0.17132312163380606 -0.3551590347380994 -0.0790696329463571
v 0.0998330060141644 -0.7504998279018891 0.021404412998039038
v 0.1385923523767127 -0.7936044707684032 0.01929534307328775
v 0.33245158495649246 -0.6900985430707768 -0.053382298453671484
v 0.3470732146125183 -0.676862187882835 -0.06161445891985821
v -0.11115536479791548 -0.4661861943772042 0.018255490196109024
v 0.25795462613230186 -0.4410917466505399 -0.09032350761479065
v -0.05755727525718478 -0.5419848234966428 0.023097919830548555
v -0.04747301430302452 -0.33592211168013997 -0.02785755725749898
v -0.09474828114129465 -0.33811053550956083 -0.012675252264763277
v 0.1480441327668294 -0.3494453983372461 -0.07281256978444461
v -0.06258074669739008 -0.532561037287221 0.023917623542907378
v 0.3206273082424873 -0.5151200328090404 -0.08430796830915445
v 0.19860000748962367 -0.7957142836744616 0.0067430686622291765
v 0.052743224137568545 -0.6816481132052149 0.021316999310938025
v 0.3457699939531263 -0.5440473980780586 -0.08704583646100485
v 0.035586567667283985 -0.34096260050249266 -0.043083028717625954
v 0.019786490703503183 -0.6383333026418644 0.023750571266169543
v -0.14137876752225867 -0.42681315216227744 0.017653938499456706
v 0.2897504305978321 0.9047845904953641 -0.07242989285921016
v 0.29599571356717114 0.8693810437778451 -0.03862381900868238
v 0.3081943577422155 0.8234168012370908 -0.022057330042197877
v 0.3465791912846518 0.8415292383096682 -0.06596285811712639
v 0.29611642759692935 0.8606874978024409 -0.04032612748707814
v 0.3061724195359001 0.8925396358163151 -0.06536594787641861
v 0.2998761473519238 0.8278222014531068 -0.019392222070506376
v 0.34167424387992335 0.8415304123857931 -0.06739018366269908
v 0.2964063803029619 0.8687695356003857 -0.039915399533525804
v 0.2898355110050927 0.8789265171498205 -0.037295349217114686
v 0.5009982287674832 0.43614682692923856 0.06579821408133586
v 0.5443305736420492 0.40158194291303206 0.04421961317467238
v 0.566835439516472 0.38015026842164096 0.028990111328082845
v 0.6071106795728879 0.3683108989158892 0.023742421567543078
v 0.6217773210894529 0.3623754428849462 0.01826992216644678
v 0.6726227525075271 0.33719226204558017 -0.0009420860915925165
v 0.7398754063043473 0.3782386581637102 -0.08932994720983319
v 0.484556429950835 0.4349746709028979 0.07069220353255536
v 0.5599955381634919 0.39831586690189097 0.04090215861037789
v 0.5960653831241645 0.3821382297291495 0.024678656044793846
v 0.6219308348451645 0.3610890997452727 0.01548013373664733
v 0.6519690381219797 0.3486166525087495 0.004113503448176673
v 0.7191571484293179 0.2978264098434454 -0.03338433770281291
v 0.7454185511264273 0.3757524952688631 -0.08784537091219956
v 0.6816242521289346 0.32586833996073855 -0.015343325476068686
v 0.6406276845248081 0.3462244274263934 0.011262953212717156
v 0.5257083833274377 0.42636161752010376 0.05373276062513799
v 0.699809845052495 0.31956011145437774 -0.01643881004792961
v 0.6569127961688344 0.3418675840458202 0.006827953722947069
v 0.5757681871666755 0.38222380693470176 0.02982648810087793
v 0.5024051988618911 0.4233701775421166 0.0681621700081302
v 0.6738255145567549 0.4451157918951184 -0.08339191170495829
v 0.7167818710664768 0.40068928602637605 -0.08759256024292436
v 0.7508548718999637 0.36047334260430086 -0.08621914539910235
v 0.6909282025309538 0.4391771312261521 -0.08674225862018933
v 0.7258892638234319 0.39933075394909273 -0.08762244546677174
v 0.7333740667444126 0.38444072904569565 -0.08419817968549045
v 0.6885600113002889 0.43684137149593255 -0.08663165384711774
v 0.7279856254183596 0.38824855898141414 -0.08897009083706053
v 0.6837538368071748 0.4447695823918796 -0.08437655408118845
v 0.3771393864476715 0.600377648488682 0.06594226179251861
v 0.39081466630837597 0.5575072633811816 0.07995464682779892
v 0.4067154479117955 0.5127601188910597 0.09750524721437014
v 0.3889901439609943 0.7922452264629569 -0.06749622898899407
v 0.40120651644779926 0.7707539766952668 -0.06317704001381444
v 0.40227063088672993 0.5111236872977964 0.09727598272985728
v 0.44339524045170714 0.4598624820340471 0.09246372212413151
v 0.44863946503926966 0.7260824786642456 -0.06685789119315796
v 0.4686964001839688 0.6960752885606041 -0.07487649352416542
v 0.49924542271210337 0.6598550063040793 -0.07990393947804926
v 0.5262656328713504 0.6306794878301624 -0.07978924163520641
v 0.5353621591266818 0.61705592557268 -0.07717701331892952
v 0.5634399159039454 0.5873511550551876 -0.081936805033909
v 0.5837978223833715 0.5638357204553958 -0.08277905461192576
v 0.6069447376893705 0.5261684140616263 -0.08277607096573547
v 0.6572722453065022 0.4697464313003359 -0.08265481707862303
v 0.3813737031701561 0.8063402725213872 -0.06333101254645161
v 0.4085513219018325 0.7619601853757968 -0.06735206785810458
v 0.36867049805808305 0.6286388856097953 0.060041878673814955
v 0.43783515824722263 0.7356762917531262 -0.07361705821838863
v 0.4002459202943066 0.5152603679393734 0.09464350728893645
v 0.3981929075925916 0.5476169742969925 0.0837657471973908
v 0.47406653001165966 0.6861090857655663 -0.07461016551215043
v 0.4590488623133639 0.45554184114800317 0.0917214260021388
v 0.5228972454194512 0.6339663590125613 -0.07055327534352879
v 0.5095703097309696 0.6515832210915186 -0.07770223923074082
v 0.5500108600497264 0.5948821142512929 -0.07742802390369571
v 0.5339786832679969 0.617011272441077 -0.07977016674990199
v 0.5185367692690429 0.4158221020999635 0.058321002970117344
v 0.5784176234178076 0.5664191441234862 -0.07929570959722086
v 0.6080292924395254 0.5331363690470791 -0.0862204317481273
v 0.6476391518895696 0.48265914412101274 -0.08366848824792915
v 0.6359759156522029 0.4989836830560644 -0.08918312085658198
v 0.6622602849436152 0.4695599493314227 -0.07954712491699255
v 0.5862502925425559 0.5635649959695964 -0.07840001941389095
v 0.5544955244006213 0.5981438762409611 -0.0763642693922806
v 0.4754234992331439 0.4452255520805255 0.07562830208527871
v 0.3930471684116618 0.5221730158267472 0.08817494479516365
v 0.642492384582254 0.49239951402428 -0.07923678332424505
v 0.6173439306694433 0.5232957090938729 -0.08004746374516271
v 0.4608338922075635 0.44793453117688525 0.08440604272173706
v 0.43751089777132607 0.46932768119168117 0.09883592247568551
v 0.31364394965181974 0.7885243293821769 -0.006077904855844924
v 0.3297417856248515 0.7441143909051453 0.006581565236773931
v 0.3211470003849866 0.7925368606342651 -0.012359751978356728
v 0.3264559910022834 0.7498746838519074 0.005140664492582748
v 0.3413296001863538 0.7153138398591062 0.023143780032899897
v 0.3500478834389263 0.6816992582045062 0.03244462682509475
v 0.36957505263206863 0.6305807384305727 0.05034660248301996
v 0.318003420992643 0.7901474407929694 -0.00825660012017935
v 0.34038209562108923 0.7062889083237672 0.023665957493206536
v 0.3297230238734595 0.7343888234324767 0.012725627694826807
v 0.3911931667728778 0.7942292268139793 -0.0660278250723505
v 0.3582978233653686 0.6574279734281642 0.042330489508265276
v 0.35101198543036394 0.6843383385102404 0.024258567382260697
v 0.3832922167760264 0.5960184544635053 0.06324085559996928
v 0.864125474120174 0.22634378634117747 -0.08765722499401413
v 0.7317002074397033 0.30108232093079695 -0.030284991400403926
v 0.7182552251340643 0.30694216359679527 -0.02661776475106633
v 0.770928546678034 0.3413471841027364 -0.09163791313705967
v 0.7878624525750424 0.3141889390913617 -0.08767363003023233
v 0.7680280758159633 0.3399690306283513 -0.09396493261211215
v 0.7661590671344929 0.27833300167612934 -0.05158397774080674
v 0.7686490579568134 0.27615096151212914 -0.05270910210476087
v 0.7643230431013824 0.35043372638847226 -0.09002021163374738
v 0.7228908931478139 0.3011058015209581 -0.029831829505904944
v 0.8126382351063912 0.2552775832392168 -0.06713368672853821
v 0.7776594260938158 0.3259620558523234 -0.0888854066500317
v 0.33052881473242635 0.7387375379527499 0.008257400511501457
v 0.35586849686843 0.6664644676033713 0.035452358725526045
v 0.7593589373875278 0.3569936444928393 -0.0810066323936742
v 0.2815374632878285 0.9245097847565386 -0.06568016315427792
v 0.36195613301613355 0.6415746770469696 0.05200792938094404
v 0.45988802793025757 0.4555278298859062 0.09010781809744269
v 0.5406191197927634 0.6118058743016028 -0.0752404947815152
v 0.46775691204424147 0.4474823380858104 0.07616698129029441
v 0.6358863735593645 0.49560750276318494 -0.08310422213901685
v 0.5806555352496672 0.5638718931002971 -0.08250459676140716
v 0.6297482229366013 0.5090156584131741 -0.08272602847804109
v 0.7363062620578601 0.37321068168444566 -0.08545299458907615
v 0.5847218602803774 0.5644163229480242 -0.07794797117396435
v 0.46971084405880753 0.6975937538064565 -0.0689513726107206
v 0.6881703149232588 0.32269598593923104 -0.014351657403358375
v 0.3820627482042765 0.5822247531275138 0.06811157899906385
v 0.5529841718220411 0.3971855854216344 0.050954143998205206
v 0.31706519050878107 0.8734087278165706 -0.0644766945585254
v 0.6811651031778508 0.44746542780184334 -0.07855754318673074
v 0.2992767961297826 0.8267867912049853 -0.02624088064628404
v 0.6757957170013599 0.44707210779286044 -0.0809154050530163
v 0.4415540553448383 0.7365066438621295 -0.07448584915883177
v 0.7395691261690402 0.29439172109051326 -0.03513708651442734
v 0.7601780658558157 0.3500333845460228 -0.08896092980162626
v 0.5172213081850128 0.6400390228356494 -0.07705187287807738
v 0.6435965937527178 0.352593759172086 0.010242567401220508
v 0.7805104673426695 0.27200912359571594 -0.05256320227616742
v 0.5139527718112793 0.6347913599706517 -0.0784066771624636
v 0.6886032246576635 0.32440454976081756 -0.015190281366672812
v 0.6753969779242024 0.4524032172130801 -0.08916225081792402
v 0.6180433114508069 0.5202243224221137 -0.07734669766112164
v 0.5745129755644021 0.3903044891027949 0.033420971475875215
v 0.41458028136466746 0.7707782754516534 -0.07126998374007061
v 0.33219581540248994 0.8570142839097599 -0.06511717709306732
v 0.3310341369639151 0.7670917189490926 0.0013802880713173374
v 0.41936419383757634 0.7607314054148638 -0.07416626505501413
v 0.36859147936414755 0.8183001489357584 -0.0671279769660927
v 0.5770774169696999 0.5734850873857423 -0.074732354611573
v 0.3013780631729772 0.8957815072054064 -0.06706689810251282
v 0.7336317532673078 0.30026024710955956 -0.027272526645089796
v 0.7893978623633207 0.31863732229784275 -0.09390903134664648
v 0.39849658331363924 0.7838764862537865 -0.07212785061667007
v 0.5024469181807684 0.4296666708124592 0.06395667132314732
v 0.7176381098760454 0.3938843857150362 -0.08397281365463943
v 0.34557367784408893 0.6806573316112634 0.03386080819017478
v 0.33737896688959174 0.7242176967095728 0.011382106283914542
v 0.37150352155981387 0.612675329302945 0.054949014092702066
v 0.38482256049593133 0.7995425358130728 -0.062468630197265215
v 0.4016305186235182 0.7786334615160705 -0.06674984720053073
v 0.6157960652767588 0.3657664030292154 0.01936452938967439
v 0.5642651763508348 0.3954463673231288 0.04582741412886896
v 0.41547671006279874 0.4815222783566276 0.11012016179970273
v 0.3670036514277857 0.6291891549436524 0.051318682277909075
v 0.573712465111346 0.3937733504243486 0.04128857202909398
v 0.8247590547806858 0.24825611793308194 -0.07660189339397817
v 0.3527063897675353 0.8335816870043261 -0.067469488218474
v 0.45569863030200713 0.7059256745378576 -0.0688343435532626
v 0.3446961139872302 0.850109948272627 -0.06485506580283872
v 0.3746599676726665 0.8057890438827502 -0.06832524235485855
v 0.3009767339343482 0.835879284041621 -0.022742151002338694
v 0.4432889648378401 0.7274427886744261 -0.07143613638995726
v 0.4294179579682712 0.7395076054443553 -0.06799839988915908
v 0.35784293101012987 0.6492233121044535 0.04466408922650155
v 0.3872583346761598 0.7890959122695572 -0.06735709110172182
v 0.356856249218277 0.6651500721873931 0.037281681810052036
v 0.5018084443257133 0.6633822861517137 -0.07167961912202588
v 0.3793184057928248 0.5910854391246297 0.06931467275499187
v 0.39489200825619225 0.5336035928025769 0.08636112127214494
v -0.7089050560650506 -0.10318068516960513 0.002127459307592067
v -0.8443371212400811 -0.06819128165814646 -0.06976064444125965
v -0.795339799781225 -0.1284970772247621 -0.07093048460183159
v -0.7480989156724153 -0.1817605178803331 -0.07428980616327002
v -0.6114546798789827 -0.36351185614688303 -0.08141608122667751
v -0.8789753354403383 -0.013555780670143815 -0.06558033073073477
v -0.7450323123645829 -0.19474898754493528 -0.07790148253188207
v -0.6504957822111026 -0.3151628073351562 -0.07844920219474594
v -0.6022281482063889 -0.3757503307126911 -0.08292861662320403
v -0.6614147505457234 -0.299141165687764 -0.07865194111337341
v -0.7131896591816136 -0.23244804471697103 -0.0782566215791156
v -0.7597961669934131 -0.1837011271298543 -0.0757737889354749
v -0.8148290774508058 -0.10890308464643118 -0.07401835680502433
v -0.805473155682162 -0.05056146309376188 -0.030372246063807357
v -0.4018221113796848 -0.6396863909757919 -0.08560355843962303
v -0.5308886580344945 -0.4746140605880847 -0.08509771203211577
v -0.6279459438549959 -0.34300321368783504 -0.07352095090867962
v -0.6602935388417602 -0.31353883734484084 -0.08134722088104536
v -0.6929139547587888 -0.2603984231410507 -0.07305833644811302
v -0.7382887728021496 -0.19572599204490662 -0.0738508918093561
v -0.7617805131581249 -0.17219312126838723 -0.07424694873734185
v -0.7826389898945222 -0.14182149719664358 -0.07149484847429868
v -0.8328972624241305 -0.08820011217392602 -0.06796227865254958
v -0.8808051027549825 -0.019014484630240195 -0.06905728905059988
v -0.7964003687586532 -0.04902384528652724 -0.032647365604231496
v -0.6427580453000149 -0.1425982118666926 0.038696779784903
v -0.5542461189492833 -0.1861756525765792 0.07149381384394368
v -0.44616397106639655 -0.28533131335442363 0.09052864981943959
v -0.42537526993838276 -0.35694945224257757 0.06031639060092789
v -0.4076877166938526 -0.42171725253370257 0.0379318203112184
v -0.38565500916075296 -0.48503192624781305 0.01452200472264727
v -0.7397441065410792 -0.08620447687261404 0.000265535313546012
v -0.6276902470764143 -0.14646651343800685 0.039681957238664245
v -0.5802888677653756 -0.17250569429737714 0.06025885342682053
v -0.5403414002447925 -0.1955142716957929 0.07488032758662529
v -0.46282882461711744 -0.26159787477123214 0.09480516175217431
v -0.43738595855870294 -0.3321469113683968 0.07694894755099244
v -0.4106546517979731 -0.412608137457774 0.03746754480590557
v -0.3858863721052393 -0.49918130526223486 0.005886126652304391
v -0.3965271145671445 -0.4566041132415949 0.02623192610907686
v -0.4074529179303585 -0.42531975875697675 0.037926736388012985
v -0.4246070467491005 -0.385662604584764 0.05456318746623821
v -0.4327367942186144 -0.3499863049440157 0.06062253086859908
v -0.44043079779466454 -0.3009413599129246 0.07676981239317614
v -0.4576289427519645 -0.26634578827792776 0.09818044763370173
v -0.48680451625275833 -0.2223650801256214 0.10355064848349016
v -0.5177025254509546 -0.21112227614376744 0.08517005638329729
v -0.5490340244792208 -0.1937264276577371 0.079435582812861
v -0.5656377799853819 -0.18452755841689764 0.06557630381146239
v -0.6151506030414252 -0.16276614471026324 0.044619179242680565
v -0.6696860290308353 -0.12472530409540383 0.027322677719302798
v -0.7136016444934341 -0.1018034913856022 0.00022878367521220536
v -0.7593190369121525 -0.08126110431209921 -0.009797653659351056
v -0.38517401172322846 -0.4879542629725798 0.01110588531485013
v -0.41621618844175995 -0.4029848497245106 0.04629689897131738
v -0.4013082725405418 -0.43894674701806585 0.03398784533016396
v -0.43588309907800604 -0.33233262323478824 0.07210721302988266
v -0.43185301919417257 -0.35656303441006243 0.06219543655508684
v -0.4535548716071009 -0.27102261414279455 0.0956585365361924
v -0.4473399641678539 -0.3028886625756111 0.08205488418336684
v -0.4907379555489088 -0.22346847716214105 0.09543030791321257
v -0.5427591802060412 -0.19929937302142545 0.07345914577085089
v -0.5713149789818606 -0.17555645324522132 0.06606263061522438
v -0.6060799532666878 -0.1667854758622848 0.051965472744055226
v -0.6487050357303416 -0.13088289790594052 0.0312591409391052
v -0.6977045675321748 -0.10631014325346105 0.010923374283163171
v -0.7269427529403707 -0.09188974551047815 -0.0056149624142198575
v -0.7649200489833812 -0.07639747643031636 -0.016995796270742436
v -0.7800019909848246 -0.1431872806234733 -0.06915108304070819
v -0.6962319956448502 -0.2565601722041685 -0.07576465764892415
v -0.5794945688445071 -0.411894427174831 -0.0800366899733744
v -0.5155362666827675 -0.48502540819417234 -0.0816316136453212
v -0.4810088818790178 -0.5349998960130687 -0.0846287931471356
v -0.3705739172814897 -0.5350480373864315 -0.005103078954639666
v -0.350778082640169 -0.6061558513744763 -0.027612345811234118
v -0.79664572500162 -0.1189012328987058 -0.07014079018198115
v -0.5504002118250532 -0.4472496751157605 -0.08622558352921096
v -0.4976561193012329 -0.5179365708095922 -0.08241403942975381
v -0.4412937618105578 -0.6002374310737628 -0.0874524234871435
v -0.3522347259355931 -0.5967625336527265 -0.034268603073874596
v -0.41281851194587804 -0.619101796308743 -0.09224133631002077
v -0.4336699653027296 -0.588438384215583 -0.0883293463211831
v -0.4701899577186618 -0.5449564216984493 -0.08434060474733113
v -0.5282632151685646 -0.4710225549251697 -0.08410236295903371
v -0.5929393575485072 -0.38869112191633787 -0.08046014837509144
v -0.7320665385074329 -0.21216504505759987 -0.07469168425464784
v -0.7806863767678208 -0.1532275188259053 -0.07208490439629751
v -0.35565582953073976 -0.6006685107759264 -0.030802288283036227
v -0.37692161917017253 -0.5152033357901389 -0.005130628463265226
v -0.5058864878308292 -0.4979800791823493 -0.08835082217870929
v -0.5693295496146245 -0.420396338160757 -0.07716377843083691
v -0.608270159357257 -0.37568473759138477 -0.0786076457326866
v -0.37117462450914596 -0.673897562028714 -0.09243290078237733
v -0.3458551736041682 -0.6302923301362334 -0.03571349910459478
v -0.3214508238617697 -0.7049834270665879 -0.06899306521234438
v -0.3228771211070973 -0.6823463418918598 -0.061030003109328684
v -0.3423271373725147 -0.642502165158799 -0.04580181347013651
v -0.32818224983433353 -0.6882748137969412 -0.061040416225715044
v -0.34583621251077656 -0.6149543063428692 -0.045886392954883476
v -0.33316644787523975 -0.653052883091229 -0.04671074786321729
v -0.34995959777501506 -0.6037290691572105 -0.03508697061707821
v -0.36688722775710125 -0.5625947487683464 -0.009582297393303218
v -0.37661715881286106 -0.5294855633391394 0.0005768097959656443
v -0.5686571168600321 -0.17219598384778112 0.06349208892956947
v -0.7299474957322796 -0.2184814615642299 -0.07849037063861923
v -0.46199846203470374 -0.5594875595337547 -0.08581585297945639
v -0.5282272748174345 -0.20132481745642916 0.08070871289587442
v -0.6419491080869332 -0.3219479363036194 -0.08139426418909776
v -0.5999722267664224 -0.38361446865534493 -0.07865878787446541
v -0.49523272549286457 -0.2234975783992621 0.09628124611832493
v -0.7904330880018674 -0.05987384497135962 -0.020889986197203895
v -0.612122299398438 -0.1573231398428924 0.045831763576786665
v -0.5323291276209929 -0.1987156823041048 0.0809037117667413
v -0.3141144023604186 -0.7148137444843006 -0.07763528685555043
v -0.4585039171811075 -0.2844255993312169 0.09032303771445828
v -0.32491232379175977 -0.7337512114086548 -0.08859461426232
v -0.6628727873047954 -0.3022735846014855 -0.0773132056226861
v -0.33377515569218946 -0.6629401888037777 -0.049095435972199813
v -0.5711348480866785 -0.41132226278044504 -0.08711183037714142
v -0.4659281706457679 -0.5472165144813504 -0.09194184189647252
v -0.6167213057694398 -0.1594432864304421 0.04887953852538665
v -0.6031198834088346 -0.1626874169254712 0.04994882548151839
v -0.754405864225428 -0.0758571381672509 -0.013652719900489833
v -0.351094233779768 -0.6039635746678634 -0.0291168115231506
v -0.35829961377333663 -0.583391853846593 -0.028128398705170362
v -0.3655650487113301 -0.555563935932708 -0.011598890918093206
v -0.3404712016773873 -0.6322990733906578 -0.03965221017840697
v -0.43145261365763776 -0.5936000010079371 -0.08854049567999084
v -0.6108191102917315 -0.15677456402946408 0.051729797369526494
v -0.8198016656615045 -0.09999811434739148 -0.07097625850367946
v -0.413370510705133 -0.3939149386454373 0.04344790120902286
v -0.43197506956437276 -0.3277768843669838 0.07569123216570985
v -0.6065843115176539 -0.3785016517326652 -0.07943484746928907
v -0.4479953621122331 -0.2863499890570909 0.09085428098054271
v -0.663045933223235 -0.30242980287448484 -0.08033964164317273
v -0.755392929397705 -0.08095953222855211 -0.008907540527845943
v -0.4310056931305323 -0.34880753792401287 0.062293822312039906
v -0.42681398535936554 -0.35537504134627973 0.06537344561413408
v -0.7292826840952723 -0.0908699219475901 -0.00895532865473778
v -0.4796499349746846 -0.5354693855340703 -0.09054124178932192
v -0.5751406021261117 -0.173690046502917 0.06285740271045501
v -0.8240723914135326 -0.04568176494217542 -0.03593446424984432
v -0.7142407746962768 -0.23970159436014954 -0.07545481969394291
v -0.3517185349448146 -0.5849371485884197 -0.027652475642911952
v -0.6121638118764516 -0.3583043042459005 -0.08271167768414218
v -0.803676848470531 -0.10794765258084563 -0.07483685304794842
v -0.5305078290878101 -0.46261241581064544 -0.08637003566629381
v -0.7751993981515423 -0.15753777943434083 -0.07372987890067717
v -0.3414413013843426 -0.6152908476232372 -0.03642562807818444
v -0.5089294963321481 -0.50209864409112 -0.08966063799126918
v -0.3134782588708401 -0.7117447376074172 -0.07294473334589725
v -0.48647597014093547 -0.5262694469379017 -0.08304746343250324
v -0.40458811841064335 -0.4405930932894532 0.028815556302092527
v -0.4201852848817983 -0.3714303052842637 0.05177554953424897
v -0.4102050669496037 -0.42238764699613474 0.03428286869833435
v -0.42363309525693643 -0.36763181501708275 0.05264954265827169
v -0.40592738159779473 -0.4337099664284547 0.024758518342089492
v -0.6348306080561943 -0.3316294861126176 -0.07449063498004928
v -0.41843322370457026 -0.3835528970181582 0.054072761513536405
v -0.5376187953755056 -0.46142655633669155 -0.08374598292774417
v -0.8331060817838728 -0.03521489964835011 -0.04783225545544081
v -0.6534167478796418 -0.13108408670796473 0.03200465175307549
v -0.6750049093154069 -0.281054082518292 -0.08045080388795113
v -0.4626245897878237 -0.25362414285288665 0.09982541578203376
v -0.5909861432744823 -0.1699106220682445 0.05091907094361803
v -0.6564358962245914 -0.29929005758359883 -0.08095695387991396
v -0.4245830716279605 -0.6075361445308848 -0.09258561407827665
v -0.610356690608049 -0.3625329460964083 -0.07335659882378522
v -0.4179747161373761 -0.40054219404521685 0.04486402647921469
v -0.309714085817732 -0.7320113487822627 -0.07728407076961258
v -0.7332746904006778 -0.2065770694105879 -0.07307683440364028
v -0.526611171792326 -0.20736613721418443 0.07579615895367216
v -0.5268472093933805 -0.46724669919113015 -0.081227023875705
v -0.48997035027972585 -0.5129666345242796 -0.09022779443880127
v -0.3896381471081563 -0.4582357873503865 0.020246995971835248
v -0.499141928809037 -0.5124921884841773 -0.08487079286961947
v -0.39740434489146903 -0.4486349253106106 0.02345786846482673
v -0.3669501540700983 -0.5631474834499803 -0.019305913207559717
v -0.23538012942385378 -0.43244835901765977 -0.014829151367263756
v -0.24431733592081845 -0.46819555128342716 -0.01763087672102523
v 0.5416431262550544 0.4073108639129419 0.050377444901554214
v -0.3388170795838151 -0.6486846984950838 -0.04818371834565137
v -0.3132186117971409 -0.7164093097125888 -0.0732649522019846
v -0.2696237807315314 -0.5998563496478932 -0.05299448008053337
v -0.2751073773334885 -0.655803594365102 -0.061737183838269157
v -0.25793209165706366 -0.5436701113129013 -0.034629822100827365
v -0.273935317149357 -0.6524792144701933 -0.0636701520147904
v -0.27020101989106166 -0.596952664881339 -0.047058535615750935
v -0.25441121647509113 -0.5442949576417682 -0.04090564925884825
v -0.2560912609657993 -0.4937633234241581 -0.022246637889906207
v -0.29024693358722536 -0.7214241728321262 -0.0817453676815836
v -0.2849073537970486 -0.6629046313250615 -0.06623496372502967
v -0.2562415564508989 -0.5495618917094081 -0.03972610279074654
v -0.25790934829770884 -0.5220984396198818 -0.0372436150939174
v -0.27139783132678247 -0.6166826747552389 -0.05522980850045129
v -0.26597383055761736 -0.5765006032216601 -0.04016734584787341
v -0.2633558143645445 -0.5431930338942786 -0.04268794422650709
v -0.28690915070423284 -0.6936116693111305 -0.0771663859986514
v -0.2782534846244225 -0.6571339690877862 -0.06422048631691187
v -0.3427241814889676 -0.6302739930186005 -0.03995132359291197
v -0.352175459923608 -0.5908869471593409 -0.026455924098901278
v -0.2881979690228319 -0.7240079074967853 -0.07886076595023224
v -0.25025105647423224 -0.4898290102013885 -0.024716836834212302
v -0.25586439434552255 -0.5326922382938992 -0.03399425928301369
v -0.2566832104089142 -0.5719269037188506 -0.040154939646313524
v -0.34806420693483614 -0.6232651844014111 -0.037690568039348095
v -0.3368182137117929 -0.6552548068101179 -0.05192370078254541
v -0.35411392665720554 -0.5894728379986921 -0.02951249394744321
v -0.3669088411488384 -0.550965290617914 -0.012987552366487612
v -0.2477876792519059 -0.48665203758389247 -0.020713385597411326
v -0.35783457669030944 -0.5811528814315373 -0.023812911892819547
v -0.25053201658694835 -0.48609735834534695 -0.02679962407911709
v -0.3656534411752563 -0.5526711092214737 -0.011677906509484672
v -0.24304628729394495 -0.4506054705605391 -0.016512069078153946
v -0.36972540336399135 -0.5529328680483292 -0.007754820741313119
v -0.35854818120803633 -0.5866417519986596 -0.024249586005751323
v -0.4501322563037996 -0.2928997131316506 0.08324941560740377
v -0.4342549509270362 -0.3571852045788407 0.061439179441275145
v -0.4160091736601716 -0.4090430584629913 0.04400523588538462
v -0.38785146414169275 -0.4677889479529977 0.01658778526048985
v -0.36717776161406185 -0.5333436432732068 -0.008344009634561519
v -0.4385430243607301 -0.3373205967170218 0.07112986468659376
v -0.4015120997240621 -0.4232099802871636 0.032626632802724854
v -0.41800237448340555 -0.38118725639098716 0.05295295475199065
v -0.38770726809010586 -0.48667103399228123 0.005620822234003257
v -0.4010148582949813 -0.44137274849785446 0.02963101645688599
v -0.3703528411745238 -0.528561028806226 -0.0032576679247574986
v -0.38939862999707786 -0.4853336613068928 0.013976259491561562
v -0.3758039066423173 -0.5179195803255988 -0.0023092799406833294
v -0.3885794525845609 -0.4811860542921262 0.007797256335629408
v -0.39901627132918416 -0.45213570788457075 0.028943289934784268
v -0.40905131299052255 -0.4124083811494676 0.04369036035411358
v -0.4235523906694348 -0.37833164601406716 0.05420363592224513
v -0.4343733308825486 -0.339456017024138 0.06654755539737149
v -0.44941657304186433 -0.29457451642156945 0.08404877520877846
v -0.385511735593673 -0.5028960830279217 0.004091441012145402
v -0.3695818818396195 -0.5359537160338402 -0.004960833338802854
v -0.4062326305623 -0.4171030315816465 0.040801040247661076
v -0.4025749217631431 -0.45063844147189663 0.029424311249531602
v -0.44197470429517505 -0.3319680329835917 0.07250312508265806
v -0.4266907956466185 -0.3752219333281045 0.05474279446414143
v -0.4474360747359287 -0.295686491234579 0.08431654092798997
v -0.4416270083132633 -0.2139954330955356 0.10626079793311874
v -0.42664944831666146 -0.20220093775557127 0.10785379412143621
v -0.38082866882864974 -0.16371922806619688 0.1071961365532041
v -0.3442251344317947 -0.14241321104659502 0.10022003603162499
v -0.31915333282047054 -0.12223632523679161 0.10686671624361689
v -0.2896932810311488 -0.09856487629327913 0.10737875596096993
v -0.2176327286726388 -0.3266097227517212 0.017147772624049373
v -0.2602144011450312 -0.06853070311405274 0.10699410950820842
v -0.23643850428241409 -0.04830790328339663 0.11212138150564913
v -0.1542744059875502 -0.32489912812681226 -0.0023210839509573027
v -0.20977989971839262 -0.025628179542411735 0.10531736914127054
v -0.1364376899958464 -0.32989146301889777 -0.004738139707864602
v -0.1763552740324495 -0.005644742798097629 0.10673613864083069
v -0.4232696556334949 -0.20288542843055576 0.10788462709751158
v -0.382826422473617 -0.17264200162443058 0.1054825348122714
v -0.3386870558384784 -0.13478176286918128 0.10460358213911505
v -0.3250207262188996 -0.1195476237171977 0.10740328681817614
v -0.29442085719752664 -0.09441197639656103 0.10950431331863683
v -0.2925487955179753 -0.09110315921206864 0.10369144096286882
v -0.262497404508383 -0.059902934593791896 0.10663732304132727
v -0.21870103711962433 -0.03280657459609228 0.10644225903750518
v -0.19252582394101425 -0.011517752459391708 0.10016866662402948
v -0.14795138577448064 0.02279109437893308 0.10622407895161592
v -0.15932862113702323 -0.32854779425420044 -0.0018410196859140135
v -0.14779169416814636 0.03320393371861782 0.1081373171520815
v -0.1782874124287829 -0.0020918335299501584 0.09921099422099626
v -0.14693207691288052 -0.329163294477601 -0.0055918129145462025
v -0.2167047454260307 -0.03783210226705544 0.10553962874680517
v -0.20226179348367562 -0.022740617665223027 0.10360603847684104
v -0.1954265235019339 -0.3245766683987325 0.009633125666488782
v -0.25288072300398895 -0.06214851990140294 0.10970058636073864
v -0.22241068859729995 -0.3240583519653925 0.019261727717622572
v -0.2753358620620674 -0.08146323259100308 0.10422399698030199
v -0.3021886204638152 -0.09920331670975777 0.10750623556760738
v -0.3316811009879037 -0.12573238847147267 0.10415361278968661
v -0.3710507007556147 -0.16156892552449142 0.10702857808892254
v -0.3919004135192169 -0.1727227373215013 0.10900838044047076
v -0.42051200944366757 -0.1977426570958624 0.10873854343106278
v -0.13668945704113525 -0.3248140921958539 -0.009463410932936858
v -0.17906985946701057 -0.3326786221112236 -0.0007315072842895452
v -0.1459783642679914 0.024572875567662383 0.1029215478392047
v -0.17697697603140383 -0.0007676250117599863 0.10927962055481519
v -0.22365006655898362 -0.323810757081911 0.014638898670422916
v -0.19820021629747023 -0.015933506649612683 0.11017161495570825
v -0.22063072645447335 -0.038877651818755035 0.10711056968985128
v -0.23412749488186943 -0.04489046650102789 0.10418624895144629
v -0.2571672903950697 -0.06897760156657833 0.10634108867357492
v -0.31884607447798496 -0.11030349415202662 0.10829932919930035
v -0.33835902605142215 -0.13400996204569993 0.10763824560067753
v -0.375621118145089 -0.15445985856694208 0.10174205842651093
v -0.38870462114991616 -0.17280350056868815 0.10477313657828019
v -0.4231804295875784 -0.19129671056968284 0.11007791217206611
v -0.4613708356034516 -0.2623429391038346 0.10089162567017806
v -0.4553137822271192 -0.22927571045705053 0.110454240219754
v -0.07807041043928004 0.07276518299888671 0.10307737745087418
v -0.05901204321047841 0.09441202441768598 0.10437694797355765
v -0.03187826263620983 0.12219669170563255 0.10890284416545098
v 0.023193427931390287 0.15347095360342466 0.10976194598124588
v 0.04758802268346095 0.18682506437249774 0.10903737019170202
v 0.05860497569478621 0.19536303582947978 0.10720016687831538
v 0.10459489820308937 0.22746769460936772 0.10207127770621054
v 0.16400342775938456 0.2825527256215067 0.10899975716198411
v 0.17960440215992568 0.28913776820906506 0.10765127225508725
v 0.22113251572594692 0.32967511484977535 0.1059930646242309
v 0.25399016249114564 0.34908699544909216 0.11097840171831609
v 0.28215498315663845 0.3787773277193112 0.1047521478155465
v 0.3263903961690673 0.4049488680368697 0.10476528823610115
v -0.10861913451992776 0.059778137457196276 0.0992539089621555
v -0.06811631952933275 0.09340566873439027 0.10727785801339836
v -0.11692891565194266 -0.33619920752107896 -0.014684117964625366
v -0.03100495505949916 0.1251554976417634 0.10406844834105546
v 0.021020930492820174 0.15529965011841568 0.10791760973619202
v 0.05823041271290451 0.1911856551848046 0.1054653960582925
v 0.06356623185522771 0.2006317182901207 0.10862702144176356
v 0.10032730358285101 0.2317229594850795 0.10003535808767701
v 0.10370372945674645 0.22451333477133276 0.10637119417691977
v 0.13403701526740056 0.25405011290747537 0.1037363703358109
v 0.26859272890452685 0.36478891612884834 0.1039400619086957
v 0.34399048657219145 0.42532528874911407 0.10641371655625001
v 0.3579031165232818 0.43817117785957305 0.10499887957195035
v 0.3232625624884617 0.4020455074715956 0.10368271013695732
v 0.27629063258883674 0.37295654081873897 0.10985140840729575
v 0.29324116896286256 0.38376422834365825 0.10768041036368337
v 0.25991647212518204 0.3565413468554563 0.10603755029859595
v 0.23278182807817221 0.3300616042311324 0.10842982598993556
v 0.1927798866498064 0.30377759667792426 0.10740978975743301
v 0.15385183047135956 0.264766689244573 0.10567144500824072
v 0.1266708880585748 0.24518337418270372 0.10792620398952853
v 0.0930842460840679 0.21804384883717015 0.10923292306057121
v 0.04406389244115637 0.18126941117154421 0.10973021953385877
v 0.020661341413915152 0.15972273465362433 0.10588301132083643
v -0.008737023961951359 0.1359638377014504 0.10295649830856089
v -0.04550174276137087 0.10835247945140443 0.10776957747213804
v -0.07713355661301607 0.07847256758601875 0.11456551496194518
v 0.33690601139475407 0.41700402474884457 0.10351759554724986
v 0.313605858592651 0.3993917296093938 0.1067663457210386
v 0.2740358851882383 0.36657428884916765 0.10381462732331473
v 0.2443287731883028 0.34375728312799053 0.10647658566389481
v 0.23493713076375647 0.33761950882144587 0.10854439563781455
v 0.2055631911915008 0.32006968182786594 0.10909805399711084
v 0.18896058973346935 0.300661619333567 0.10528097946274366
v 0.16462101137442456 0.27820383282603417 0.10204332957206848
v 0.12214487971491228 0.24548910962821013 0.1074574988816476
v 0.09582517535421842 0.2197901410988141 0.10495893105155214
v 0.06239585339910211 0.19338850931243579 0.10423095483691402
v 0.03375609985311955 0.17467142304266212 0.10591191339936906
v 0.004904080229289565 0.14478794604304848 0.10849397503583333
v -0.024067297641136607 0.1243247750508445 0.10917930357283984
v -0.02621989987204791 0.11966156162663799 0.1083576924695333
v -0.07895788820523078 0.07213013451319121 0.10369183912720392
v 0.29043788112671703 -0.28146346246713067 -0.09418352351313966
v 0.3183148200876466 -0.2564461937840192 -0.08773402261030401
v 0.3397352738177829 -0.23453505522737322 -0.09448733671380377
v 0.3939377678064637 -0.19969888771127198 -0.09309795103347082
v 0.41540785330079527 -0.18290899428333646 -0.09096159341960602
v 0.4454279391844707 -0.15163813974306412 -0.08957380266577172
v 0.45781904902185927 -0.13741075207350195 -0.09384690890849312
v 0.49727423285341216 -0.09918531960706121 -0.09397069474972107
v 0.5439463717543991 -0.05892189233032428 -0.09320323585669374
v 0.5669353475871012 -0.03772286781321879 -0.09263457651238713
v 0.5930712460969042 -0.029347014590829706 -0.09363163674898614
v 0.6263813419831694 0.002418768433186642 -0.0950200602375168
v 0.6638983232750714 0.04005522325105916 -0.09834058560909797
v 0.6782481228205854 0.0517311038135067 -0.09171075526305904
v 0.7450116141085706 0.09501258342169791 -0.094227300843791
v 0.7504662932511313 0.28697979769623694 -0.039485413465339916
v 0.7773913914364927 0.1349263090569959 -0.09336122408283842
v 0.8060127544921423 0.25736950363168837 -0.06641546326712171
v 0.8052292983874357 0.16168365887668665 -0.09379575753226575
v 0.8284082226409674 0.23887452907330983 -0.07912849999205286
v 0.8691061314033433 0.22038433227313609 -0.08476800674623153
v 0.2871122442551625 -0.28190499892812526 -0.09102352922973492
v 0.33754174890491845 -0.23582084813390514 -0.08919722054986166
v 0.3799075053900408 -0.20715004779945606 -0.09409250464604357
v 0.44458558314723456 -0.14207660999514268 -0.09755312977002803
v 0.4947606896436005 -0.10909353024479915 -0.09087211602918603
v 0.5172226887542923 -0.08922956791869188 -0.09375046803624575
v 0.5563067007487639 -0.0555120513293388 -0.08997268520171034
v 0.5825898432407687 -0.03192398145704791 -0.09260190788021315
v 0.6362917398576885 0.012585952131670087 -0.095249899188467
v 0.6723871561597382 0.04682800242434737 -0.09002510486271315
v 0.7237470944180612 0.3036606627268981 -0.02869498491292467
v 0.7000243148463177 0.06855062943305687 -0.09345876436945545
v 0.7288876354608883 0.09381455121048028 -0.09370045775492077
v 0.7214923645082237 0.08905240806958702 -0.09220708671363417
v 0.7581287283226141 0.11707888128077774 -0.0938255933285688
v 0.7631939340998039 0.2758450778329409 -0.0447367598907602
v 0.7848782277120551 0.14058961331321482 -0.09218941898560859
v 0.8122376782004406 0.2504975758776941 -0.06462743115683135
v 0.8377723826824252 0.23823379485799004 -0.08241628335721154
v 0.8648566609125288 0.20785923413329466 -0.09660067195892988
v 0.8425092482719874 0.19466274236385123 -0.09363595116329716
v 0.8402803926145425 0.2388351131142647 -0.0873648975039112
v 0.8024245870890712 0.15463899829877825 -0.0963708245379132
v 0.8186991771423683 0.1758676326390097 -0.0984431252192253
v 0.7919591064773618 0.26280993269405134 -0.06463279740327642
v 0.7807077041690518 0.13687590081573264 -0.09626313904996066
v 0.7520041369240389 0.2904397658473033 -0.04762186450665983
v 0.7462422229810788 0.10787805098758207 -0.09252177212015056
v 0.7583035100322733 0.12035008969732951 -0.09192564655938201
v 0.722139609001628 0.30445975771528544 -0.030649298404829623
v 0.7034031754324328 0.07447809457281976 -0.09578775223704646
v 0.7199791229390106 0.08257012022928362 -0.09304203716369848
v 0.6804848485736896 0.046417392214929167 -0.09596306541928555
v 0.6533345325847052 0.03338400336566023 -0.0953287486950666
v 0.6371852223329032 0.011300404990856305 -0.0876446730950286
v 0.5862726786737947 -0.02794416509221707 -0.09065523825591495
v 0.5436803999542141 -0.059413542628735376 -0.09926907401616761
v 0.515621970973081 -0.08884090536449234 -0.0926784905020961
v 0.5311959964393618 -0.08207808237514619 -0.09429867957308213
v 0.4926988367514486 -0.11295651177744949 -0.08889655732974287
v 0.5040894157259571 -0.09899118510341823 -0.09737542184536783
v 0.47170676457459537 -0.1297085345945201 -0.08801125199338464
v 0.42139594017588494 -0.16254492352223274 -0.0941577209313571
v 0.39712671327326526 -0.18643408277845133 -0.0943162656625598
v 0.3792982003237277 -0.21141147983384018 -0.09154646534336375
v 0.3343428624212882 -0.2437136085624108 -0.08783728567809274
v 0.29239607602228407 -0.27402324000614037 -0.09099438898141621
v 0.25516474888189017 -0.30862999355506293 -0.09267000432681387
v 0.8160899439994367 0.24413829193165099 -0.07115210122240899
v 0.8096386280362452 0.1602501383405637 -0.09352216752111349
v 0.7848396933485224 0.14049929825620924 -0.08876746115943719
v 0.7664811287044558 0.2754676628558371 -0.04747138117166432
v 0.779039311600529 0.275010795596141 -0.059765100570647677
v 0.7656389145138279 0.1217626583871684 -0.09805171705310879
v 0.7293979534925137 0.096745699478899 -0.0984633658003104
v 0.7397543859316927 0.2944683010995002 -0.037860239205908926
v 0.699214814672238 0.06870565957529794 -0.09586616487967851
v 0.6736595773959689 0.05171805504467288 -0.09551191753383943
v 0.7076937009195758 0.31087256231055344 -0.02543957539255077
v 0.6360506008656487 0.016836565743757092 -0.09201053497453585
v 0.5822594861060296 -0.024145187943497053 -0.09328403991818808
v 0.5570866627801618 -0.049088550851428374 -0.09151395300109891
v 0.49702189701478605 -0.10035971474682254 -0.09347075919471362
v 0.47326741419657486 -0.12320966880828602 -0.0939664475431142
v 0.4863722039439921 -0.11743171394158482 -0.09356649476508484
v 0.45637588863324374 -0.14593009076088465 -0.08781689562685019
v 0.40950637642815485 -0.1819159200662477 -0.08523623340214974
v 0.3828555760241537 -0.1968777298487242 -0.0894788612208167
v 0.34834247204188235 -0.2370912566357188 -0.08503895262252684
v 0.3157962786792149 -0.2543050096663756 -0.08708982543255593
v 0.26710236498058937 -0.29560380227469146 -0.09055047637398954
v 0.2651898254676079 -0.30622032621624673 -0.09308486109988788
v 0.4639427831581816 0.4572398121418147 0.08663083949264408
v 0.47507993224837775 0.4448177458411742 0.08364826696615103
v 0.533775156277759 0.4133342592538242 0.056289152294403004
v 0.5665727986295385 0.3844605258940637 0.0407800806459738
v 0.6027312088737603 0.3697575583428824 0.023094937333435067
v 0.6628914475626768 0.3395579042454034 -0.003044319018066238
v 0.7042355558198632 0.31527023814951055 -0.018284082360013724
v 0.3761423832672817 0.4543797187966235 0.10417049938473821
v 0.5613199383954208 0.39811105038351474 0.037080221028080215
v 0.6043059077395807 0.3698935871732032 0.01663066128384257
v 0.6605841709991833 0.3447171301787104 -0.0022798618173601967
v 0.6836968658081995 0.3191868578393301 -0.019463655650979565
v 0.7018803711075907 0.3225448581741542 -0.015659353682074252
v 0.6658464501584065 0.33346802142364756 -0.005568634750958949
v 0.614682511608135 0.3662706905002068 0.013916052857248163
v 0.595072061786579 0.37473732612479155 0.027929286012146712
v 0.5848378122246047 0.3780085396511908 0.026017612475300433
v 0.5608026955858901 0.394706836097585 0.03823109159220642
v 0.5506226340627719 0.40050467375792487 0.04520000757111762
v 0.4973291379010204 0.4260907287941468 0.06148524250453996
v 0.4497237850756392 0.4603575522530213 0.08975151588852101
v 0.3713853358742009 0.45096396840620634 0.10673595628629214
v 0.2736966399071973 -0.29540823737534483 -0.08516298643414906
v 0.6568729858048837 0.3388365562053397 0.002414391457061053
v 0.6040381404223012 0.36728776572521304 0.023050034441505857
v 0.5917072459376799 0.38297426483229424 0.03007505122258765
v 0.551628224932114 0.399402896350289 0.04731427795868952
v 0.5111044553840799 0.42370353498025864 0.05924298247669668
v 0.4621307698158748 0.4509586622019778 0.07889814708393099
v 0.28937610929450647 -0.2809038601096595 -0.08685843215180575
v 0.4418784976489755 0.46653133354574855 0.09343859614259865
v 0.25655835371749186 -0.3083708774826641 -0.08954962590500276
v 0.22957817863817567 -0.32746303889087885 -0.08046753737241112
v 0.3881483821971967 0.46004245410775313 0.10771512250468487
v 0.4075942630372605 0.47690459636226273 0.10580348665968717
v 0.4247734448707496 0.4700357665429592 0.09625580736351272
v -0.1065877243860494 -0.3322219972520838 -0.01021264022442651
v -0.057017710235370465 -0.3369347768727287 -0.025748686032243284
v -0.01723444142176938 -0.3401290553957693 -0.03150799232469023
v 0.012753555852064906 -0.3387733918341505 -0.04421885139941616
v 0.10397028297103818 -0.34435693254715044 -0.06455881993999375
v 0.1462993697265916 -0.35132363183303733 -0.07750524639705195
v 0.16484127022132586 -0.3481734567680828 -0.08230398789717833
v 0.21585489485029027 -0.34290548702753415 -0.08452009031555786
v 0.3369074941389866 0.4211326620035587 0.10949579231370722
v -0.07127758286785636 -0.3309913797227802 -0.021399415775746354
v -0.04027720063822117 -0.33845556484382433 -0.03132928991224298
v -0.007374322563179377 -0.34399090212378486 -0.03665666127903441
v 0.036103602513771385 -0.346633058909557 -0.04896851793884614
v 0.07897823649107633 -0.3444728758850519 -0.06312711369444338
v 0.11857224318748862 -0.34759600178806316 -0.07188161189558112
v 0.20306122084911998 -0.35668338477623956 -0.09330907160610798
v 0.2387549634924432 -0.32993521558029437 -0.09068820335944748
v 0.35088140784042937 0.4281258977659874 0.11034058288065914
v 0.24309718497063745 -0.3259747960841693 -0.09382492703692277
v 0.18352864931796267 -0.3522639586885633 -0.09056833650606683
v 0.13211155772581815 -0.35010780428729427 -0.07525463066727765
v 0.10234397001276167 -0.34312739494932326 -0.07215693540528478
v 0.09996521283410065 -0.34664140685810546 -0.06168032194134319
v 0.05543216075155429 -0.34682627118834897 -0.05842349384657457
v 0.010248001435288196 -0.34228134176121094 -0.04830919869034669
v -0.037765541740776856 -0.34162194496879067 -0.025412429915720434
v -0.06087241350985639 -0.3402628241582727 -0.026034502560688604
v -0.09018136974680105 -0.33464151437173456 -0.013267871948924034
v -0.10681631842187092 -0.33157187903939733 -0.01346961448465612
v 0.384112770832306 0.4543199083356497 0.11065786451541924
v 0.36510006179370413 0.44413304396545356 0.10255652138714348
v 0.2222661278288636 -0.3384848612302104 -0.09479516239579024
v 0.18265671982821383 -0.3553232841297954 -0.08542961868268899
v 0.13752824502107822 -0.3500425561719289 -0.07595719371868555
v 0.09878995232424877 -0.3431963251327731 -0.0669097754209792
v 0.060988681236487756 -0.3487151138142093 -0.0552632158474263
v 0.028802369393984353 -0.3437479731235246 -0.04613550250692036
v -0.02685995953741728 -0.34223978370491015 -0.03927874348428155
v -0.07473855520244979 -0.33516299953389117 -0.020496531914232813
v -0.10499335052396244 -0.3338037348539532 -0.014330434800246549
v 0.3814625291456116 0.4617478857609142 0.10732156108271737
v -0.22008755120805773 -0.3247531557428789 0.009863493345809611
v -0.18858354060971097 -0.32195629061713427 0.008707019272387534
v -0.21628703058426652 -0.32889661133386733 0.01732494684103232
v -0.18403417919285114 -0.33111440663897473 0.007137325962309888
v -0.22243088926595184 -0.34516511255083693 0.010910845137061522
v -0.21437417728233862 -0.3207300166993411 0.01844819919326268
v -0.19001961240133314 -0.3307112066290191 0.008197264899398867
v -0.21816114250848678 -0.33427569484329794 0.01911757744204271
v -0.2404800310688485 -0.4236642695641143 -0.004765971939687736
v -0.23335597974738928 -0.38643947307891324 0.0039753572332727576
v -0.44599234318051295 -0.28990688876903214 0.08499125240677237
v -0.22545595703459279 -0.3756461602255225 0.007685970456099763
v -0.23337242546664178 -0.40561032966556027 -0.002956787004559781
v -0.22036431395444364 -0.3651653187503491 0.002318184893409457
v -0.4591209273597287 -0.26117665941316653 0.09945599989390277
v -0.22893410128117492 -0.3694250477409958 0.0023061371429155867
v -0.23762297336295293 -0.4155809838165306 -0.007577033853526434
v 0.5386031111858923 0.4105537451371071 0.05775518251346524
v -0.14763352939099328 -0.3291820289601789 0.0009165973663736917
v 0.0011870043582153755 0.14237760691329773 0.11023591200568818
v -0.3602765554972472 -0.5706595491696546 -0.022687949926807265
v -0.21642871659941815 -0.32042648594557954 0.016050709586951914
v 0.06006076963626617 0.19580406214397852 0.1092213958136116
v 0.24917099969545223 0.3458365629104149 0.10741326086450272
v -0.017052097430236966 -0.3374690857553416 -0.03825134181180172
v 0.5574942448258418 0.3988950859235781 0.046396668065449474
v 0.38258845434282734 -0.20851618600848693 -0.08892015016675892
v -0.42806368146764034 -0.19824002679644762 0.10221492849425255
v 0.5096350832428116 0.42563448032116485 0.06555125688887847
v -0.2757032273455977 -0.07526939688627811 0.10983556472711216
v -0.16987566406639318 -0.3305145780704066 0.0036502806073234664
v -0.40456892396435656 -0.4342695150778105 0.027349303946745514
v -0.256641835873861 -0.5510407400791438 -0.040117262864172644
v -0.22693475480109102 -0.3598229447247197 0.0044513986887500774
v -0.14214367297078415 0.02936762360349792 0.10843679651501567
v 0.7131200570413626 0.08020508988809112 -0.09461741289422823
v -0.3907757743952766 -0.46995795677580326 0.019858445833479763
v 0.5767253433476226 0.3841982025759426 0.027549416975343886
v -0.29958073947648156 -0.1007459734560438 0.10967274232613666
v -0.37148745710840403 -0.5460365780814884 -0.01048165383399225
v 0.2269770532353524 -0.3315040103261748 -0.09190588480910868
v -0.23080511495000794 -0.4023664253395019 -0.0043699927822776225
v -0.4278064729673887 -0.3776998617519152 0.05610093888642389
v -0.12655313346866232 -0.32809503439222687 -0.007643079627267503
v 0.18488436291829147 -0.3555577156724749 -0.08215637559089226
v -0.3653775817942131 -0.5648471333856908 -0.018616902065649043
v -0.2713631680244106 -0.0845412666773847 0.10021605522121059
v 0.13343744020239107 0.2531157539831384 0.10642465360630433
v -0.24007649945756776 -0.438424041107452 -0.013049923730521273
v -0.148129792301501 -0.3334418705094567 0.002809022479941678
v -0.25187679684049824 -0.5101495143758156 -0.03041545358012424
v -0.36523308786389846 -0.147626576963526 0.10849437435947248
v 0.34824074896185336 0.42495264740465893 0.10319060375967007
v 0.7700490853649967 0.2797660705726157 -0.04962051891972482
v 0.30683871027136794 -0.2603274168994134 -0.08814364003047628
v -0.1942922480904393 -0.020580731755508376 0.10764780650938566
v 0.35739800438234254 -0.22472698932227292 -0.0912048257000713
v -0.2389886347919486 -0.4338194842150353 -0.012745189986073152
v 0.5727457974244763 -0.04124254276912019 -0.09516008969498997
v 0.5816931605414087 -0.035095318819885604 -0.0961793968607931
v 0.36375664210829006 -0.22168383326406182 -0.08749675839540265
v -0.3109873602813114 -0.106913099766491 0.1016952619234447
v -0.3763880276969763 -0.16697170370276374 0.10607732825648716
v 0.7899768406090377 0.14484024579449947 -0.09440944260196797
v -0.40813399562601693 -0.18130216113712105 0.11122970688765707
v -0.3616709715156729 -0.15009244026291227 0.10553272142051334
v -0.3337342058054105 -0.12549226587552068 0.10786312154193359
v -0.3044131355800301 -0.10755746299635094 0.10780241398412735
v -0.28278627619640956 -0.08008854696075009 0.10676150586055554
v -0.2385219326424973 -0.05478812164201966 0.1081918251647933
v -0.21663928232815916 -0.030804357729395875 0.11228858937640052
v -0.1908579889749967 -0.016796591125022454 0.1060396230738911
v -0.16827829520800155 0.007818368167648209 0.09992459886441296
v -0.13362382592273675 0.040661352835531635 0.10776849671779061
v -0.4341442684134797 -0.20710617680658835 0.10689477975191657
v -0.3575810434658171 -0.1449977957570407 0.10801695461650548
v -0.31478050121505613 -0.11089786776787018 0.10154251125724642
v -0.28581054848234744 -0.0892626824753889 0.10460341754014119
v -0.2624935241287683 -0.07171238880206209 0.10854870956339277
v -0.2282590465651101 -0.04292106752015798 0.10843876515090446
v -0.1938652266821473 -0.020444127554122025 0.10539395300017067
v -0.16422144288530224 0.009975351718122949 0.10794824318871177
v -0.12424392387276224 0.04617988498578219 0.10455679856981834
v -0.16228614185702064 0.011619193692507104 0.10371434638784534
v -0.19467099709793745 -0.012854054915217489 0.1081763530510782
v -0.23536447961833773 -0.05552468542664263 0.10754083813969975
v -0.25890634978333166 -0.07070571054650988 0.10945470321739975
v -0.2789782584610464 -0.09076263104535305 0.10762045019103658
v -0.3111463766368401 -0.11389853241781192 0.10280661562615831
v -0.3508745660522021 -0.14540825366437424 0.10554387605161962
v -0.40937056931420734 -0.18834893443981224 0.10856466908116946
v -0.11332148127538044 0.05795917255144219 0.10282003103635531
v -0.13495936054759888 0.03231199286296122 0.10527260877970661
v -0.17505518954047755 0.008840514200460116 0.10844163349590069
v -0.20389047113159933 -0.021677350121559247 0.10086699261431349
v -0.25516418825614534 -0.060849489936711416 0.10752371069095885
v -0.2846375657774325 -0.08486389576719297 0.10385360151309538
v -0.3409903338222289 -0.1393649304456829 0.10903052941012878
v -0.3879131588036123 -0.17783899012179952 0.10699382896156474
v -0.08765651031923992 0.07207672626024723 0.10664453242879715
v -0.06415316265779449 0.09095078682198561 0.10393637722270796
v -0.04756787547492609 0.10383563706050226 0.10509938722646522
v -0.012924259933563222 0.1323709894003647 0.10534418845655903
v 0.02708047916479489 0.16732501608745268 0.10720268835281287
v 0.05768030264889659 0.19705507697858385 0.10877965983813127
v 0.08507533581339367 0.20256792088389897 0.10740827924496406
v 0.16150509382887943 0.28059616984334024 0.10925154503732343
v 0.15523515206934685 0.2659768807872233 0.11331268348302223
v 0.18141643137214905 0.2921741257097692 0.10802901273814301
v 0.2093037162377306 0.32158507300497136 0.10734673517487123
v 0.1978078323349751 0.30829033244401616 0.11057377316765543
v 0.24166207456965194 0.3447828041443021 0.10831713615840265
v 0.2825630317367327 0.3786228556069114 0.10672529733715526
v 0.303171982827817 0.39282497599312755 0.10336954899918593
v 0.3307663116731386 0.41165871778418595 0.11553561769357051
v 0.3612349812397713 0.44685041531197683 0.11076364471483365
v -0.1108157522038894 0.04995941272834954 0.10699432346842265
v -0.08941786129697422 0.0628733553128891 0.11084308189899139
v -0.07621539668590696 0.0775128028066199 0.10592888084440834
v -0.04888009234864354 0.10549719633470675 0.10784652371062574
v -0.03533528598531994 0.1151480825293925 0.10528673976271333
v -0.010493312048291037 0.13801642036319495 0.10708298960093894
v 0.008461757796645531 0.15266412806516463 0.10871961420839774
v 0.030602478563665263 0.1736941272319314 0.106170859969036
v 0.08326534902078964 0.22128659923892957 0.11230197438674835
v 0.11101588735258577 0.23886669947078837 0.1076456490435182
v 0.1291540865922393 0.2532674454642022 0.10630637768262885
v 0.1636803159837407 0.27975325982059573 0.11096285912578795
v 0.18720378524011944 0.30081768524386254 0.10752073913836811
v 0.2086819798263303 0.3071466717426887 0.09957342905340588
v 0.22743876080052808 0.332691777100475 0.10431118806302016
v 0.2950152493924745 0.37962690846462543 0.11228014546918579
v 0.32936088835172445 0.42118295675979933 0.10361078611221777
v 0.33568258035798176 0.4160108035129933 0.10561969497413093
v 0.279136668353785 0.37241307467378587 0.10370298756983383
v 0.24839096198725702 0.3473095579433734 0.10515350651742916
v 0.20816983809435155 0.3118549162303205 0.1059029319126431
v 0.16111857420750866 0.2783977796783521 0.11146265324433532
v 0.15561684002889342 0.26217731662495575 0.10595635245618891
v 0.10939835699052003 0.23310085740416403 0.10539079551419629
v 0.06933052587857993 0.1996477707011783 0.10884014504160136
v 0.03276526666281011 0.1696028415374628 0.10994314225185244
v 0.003721982234175506 0.14459997137239755 0.1063812863320686
v -0.03125279577903154 0.11355523806034502 0.10934266045637947
v -0.06580035082445147 0.10126139961115804 0.1047692335252445
v -0.09770508853783791 0.05931648520403401 0.10322281824747202
v 0.33204839186696794 0.4171120349208894 0.10627006546473874
v 0.29928449449787276 0.39107302785285514 0.11045464543830785
v 0.2628583372453348 0.36161503407285883 0.10367119391947417
v 0.21773152141827326 0.3165938797150293 0.10761445189328193
v 0.14473875916158788 0.2669269971700413 0.10867246500789905
v 0.09301627428955872 0.21661804143222999 0.11025414519204668
v 0.06971656456419684 0.19189636064474597 0.10756196389833567
v 0.033993317275958404 0.1710277021535362 0.1059273474189282
v 0.023318165129270586 0.15833023105383617 0.10412196645699491
v -0.004124357414273378 0.14676153119133994 0.10794399436574398
v -0.05632618346343629 0.10389923908229678 0.11153843397574757
v 0.3275431147894219 0.752397873705072 0.0042345595379600556
v 0.33762966191883365 0.7106344338496197 0.020806855027437017
v 0.3814722367990297 0.5815048385495403 0.06492415306503875
v 0.3927951371215483 0.541943648825058 0.08558518491501992
v 0.407654679513053 0.5000408785041219 0.10554884179155472
v 0.3318647073636656 0.7547272772128429 0.007093455232697297
v 0.36600589728685123 0.6320999340619311 0.05117771373437279
v 0.35146070109714395 0.6737310222815972 0.04075623857926885
v 0.38640648330446237 0.5822443183699859 0.06505182983964561
v 0.37018257317512254 0.6235563069133764 0.053957343262422366
v 0.36864873066069465 0.44888775187960095 0.1065806991074208
v 0.3994551102325546 0.5216649722036193 0.09459372246405826
v 0.383777765142051 0.5576129273550995 0.07645886466978595
v 0.40246592430969413 0.5141890147884515 0.09007852930167512
v 0.3899652901404242 0.5598169630874943 0.07788383771176045
v 0.37977094507588094 0.44974130548666363 0.10140201442379417
v 0.3713975510263476 0.6113960300145893 0.054554559262233515
v 0.35578314735952327 0.6541943378422906 0.03744325310568309
v 0.33747535513388655 0.7082725659594482 0.01796419158783669
v 0.3229189511969248 0.756033753453297 0.001934564584904234
v 0.3977919548255512 0.5228444891829067 0.08691669111150686
v 0.3678728036093122 0.4436844248821838 0.10788602459122136
v 0.36870888453424044 0.6012092150797963 0.06452687534395124
v 0.3529138773145918 0.6784122932307758 0.03687809570694914
v 0.33007667663815854 0.745209164452884 0.00691095086545039
v -0.8069699006845849 -0.052917808288796615 -0.03089076361851665
v -0.7743258094866484 -0.06724377659934264 -0.019799927906469533
v -0.7395371516805228 -0.08411409695010381 -0.00376406251335354
v -0.7098440768799584 -0.10157673910269717 0.00851818754744372
v -0.6933878637620249 -0.1111077211011922 0.015541707117005841
v -0.6652024722294295 -0.12557046032802816 0.024448915015010952
v -0.6462696256729226 -0.13952320376932992 0.03571835519824724
v -0.6230621416356191 -0.14890397539261382 0.040247602839993554
v -0.6123711492791839 -0.16416132952660056 0.04643160198452285
v -0.5832190912966113 -0.173452990707916 0.0629587524298329
v -0.5559891679433965 -0.19214172977702673 0.0724279152645646
v -0.5233394909360712 -0.2020866922270821 0.08375084695044599
v -0.5021616087038899 -0.22301739692831632 0.08803620632651965
v -0.46869390882161927 -0.23504248232557484 0.09851880686903444
v -0.4331410101467767 -0.19878114088860935 0.10576385033987788
v -0.8087561883348625 -0.043814994947534894 -0.03737480764310384
v -0.7707030427860014 -0.0671923776259652 -0.01678452085742929
v -0.7470292439820406 -0.08735170544151818 -0.007457447956441641
v -0.7223604154430705 -0.09637258891917203 0.005597545595589072
v -0.6752228738285648 -0.12540494460777252 0.018490446608509258
v -0.6396428510172997 -0.14494526397606972 0.03566247788199652
v -0.6103785010434484 -0.1566727253239239 0.04733200186299805
v -0.5879437381854646 -0.17040534329748533 0.052622607009155255
v -0.5510013409437776 -0.18848056351126727 0.07562157072976947
v -0.5070711507476278 -0.2177789860584218 0.08981278052570331
v -0.4477688247392713 -0.22170151715333003 0.10945949229274028
v -0.40162605622373926 -0.1839367420273394 0.1052928897249246
v -0.3766149541736285 -0.16323759585703207 0.10058747891509813
v -0.38328093659958695 -0.1753800297072639 0.11128985734221226
v -0.44144806506587014 -0.218749633439768 0.10801664547967581
v -0.5099026602968957 -0.21465189591011 0.09000150343577992
v -0.5383667314382479 -0.20149410998837716 0.0760872513223503
v -0.5655018466948732 -0.18092461641764923 0.06042079460679275
v -0.6005834388596335 -0.1690014703095768 0.05546603360195567
v -0.6371721557111929 -0.1470495838695292 0.03423261813050071
v -0.6623956432532062 -0.13028033549775023 0.02492189457296917
v -0.6893068352197732 -0.11887900745343387 0.01629731144760396
v -0.7459956386942281 -0.0820608836806777 -0.005709841930523078
v -0.7707267265913627 -0.06506816457679888 -0.019594564232484117
v -0.4306665126974026 -0.20703878220228092 0.1092954949787502
v -0.49340401140864976 -0.21593007923379864 0.09984157047128576
v -0.5377312026498242 -0.19403306783318983 0.0809867930174686
v -0.5772084234732424 -0.17725212027577297 0.05712677825475053
v -0.6117402298402661 -0.14790632881418392 0.04984115694322447
v -0.6601902733798207 -0.12644724832335302 0.024165848614956978
v -0.7137085497584528 -0.10205440165658917 0.006143112372138977
v -0.7464955154910369 -0.08677851406661259 -0.007267300469404331
v -0.7773374644093052 -0.06796612752495049 -0.021724894670383146
v -0.8034092733227962 -0.045906093511520994 -0.03363174816556433
v -0.8527668032430835 -0.020084399075654527 -0.04998105644432045
v -0.8399553034115856 0.04058985118320072 -0.0647153145533252
v -0.8249583547618159 -0.036323034542201656 -0.042649728021775433
v -0.7733856788704377 0.09732921946588902 -0.07084249514816557
v -0.7344650685151085 0.12771153788154488 -0.06925782546383269
v -0.6401212112731632 0.20164808540372986 -0.06817306401942637
v -0.8478898244587484 -0.02668591834537893 -0.048585794474903084
v -0.8559265304207332 0.03510382047754362 -0.0653381806636548
v -0.8086620759380537 0.07220589136138958 -0.06892820421273524
v -0.7589830285274408 0.11353175968678314 -0.0704763642442026
v -0.708717394126797 0.13876229239988053 -0.06328333676715617
v -0.6657281515754426 0.183460428167586 -0.0702953014513502
v -0.6075678817354139 0.22665966964005196 -0.06970725452466929
v -0.5591576978828228 0.2626521241841576 -0.06208241554713807
v -0.6408493288283406 0.205768066979175 -0.06964551114024628
v -0.7142817968993009 0.15032413836544964 -0.06790889654946033
v -0.8102488619773949 0.06594422758474688 -0.06771987625044915
v -0.8405444134808633 -0.03134004650299104 -0.0510585615639766
v -0.6534964259295878 0.19395713706466833 -0.06904865773482097
v -0.6938966585152165 0.16124199490780233 -0.07087280065804956
v -0.7213302141485061 0.1326584928346924 -0.0715561795189397
v -0.7949081604815508 0.08007885568246814 -0.07290962133404784
v -0.84805294737595 0.041824474365104086 -0.07304580167885738
v -0.8456548776750636 -0.02462924929058589 -0.04519354103949144
v -0.809752477726191 0.07211020661015453 -0.06526466213288845
v -0.7181711756162436 0.1392296316694036 -0.06538984121314534
v -0.6988227302624227 0.1557964750721114 -0.07249633273842163
v -0.6719162110467894 0.18063935352108146 -0.06372212978117595
v -0.6294389839046451 0.2096272687641718 -0.06642194927373286
v -0.5968918610862277 0.23615133957641338 -0.06641667908618962
v -0.5724876772383846 0.26103525908107245 -0.06283905406478775
v -0.536801479159337 0.29536344821382376 -0.07068042725273109
v -0.4928940648517332 0.32335516270753284 -0.06856326533456203
v -0.5048881182890139 0.3084639514704023 -0.06724419549120546
v -0.4589083353193163 0.3468331024772651 -0.06265904172961134
v -0.4383484709125942 0.366548159850497 -0.0620792592553789
v -0.40702504830550146 0.3862373560695331 -0.07022426295730175
v -0.4249535611163217 0.3717230154542409 -0.0594814867123404
v -0.36709850290081725 0.4104770286901855 -0.06658589770555273
v -0.38576550993731823 0.4078833919458901 -0.0629177474648623
v -0.3450792099884757 0.4354873710536989 -0.06317715388659212
v -0.332749751186512 0.4463355891674987 -0.062145046933971604
v -0.3112921828891559 0.4675872898785693 -0.06647747051247663
v -0.7723883286517131 0.10009266729040839 -0.07216243159852485
v -0.7240303022761616 0.13330739207523243 -0.06740137041134259
v -0.6855659428194456 0.16721393862021017 -0.06517420322312185
v -0.6374151283408058 0.2047463578939781 -0.0696472543725979
v -0.5866610584146346 0.255855238619038 -0.06446531667940632
v -0.5317596690542826 0.2897870414332049 -0.06974893369576429
v -0.5176975865012067 0.30445439883629755 -0.07347058147345882
v -0.4875585837032631 0.3230309990581257 -0.06085238857743557
v -0.4893055830854128 0.32337662383375126 -0.06963491284885094
v -0.46015514939549496 0.3481039985209523 -0.06711094340220382
v -0.41561838136328855 0.38805745124236485 -0.06621989384102095
v -0.3678341473015701 0.4209151500021864 -0.06803478472704802
v -0.3412804840193091 0.4435566337584436 -0.06300202863745334
v -0.311434057609015 0.46317091456456827 -0.06514712865402904
v -0.2989314226796379 0.4716942824576747 -0.06603719193668464
v -0.32421131544579457 0.4577020558119146 -0.06664739272093949
v -0.3561125166070178 0.4221970814332894 -0.06815514940763097
v -0.3845789877293022 0.407141284945202 -0.06811794534947453
v -0.4518033889565118 0.3568147888549901 -0.06300820608319099
v -0.48799280557728775 0.3206088794397188 -0.06887391426493067
v -0.5143976354066652 0.3033928521593182 -0.06729993825607278
v -0.5212908490807074 0.2940980032162988 -0.06188397781831198
v -0.5631569001994223 0.2702577147412001 -0.06644272082043018
v -0.5977621902125647 0.23480574626367923 -0.06392466167819537
v -0.6607245309883256 0.18578679629436207 -0.06846441468462149
v -0.7432104315417029 0.1153531028273796 -0.06815959963416636
v -0.7744444155128426 0.098972116172852 -0.06284009570861343
v -0.8437339849126834 0.038830852138311195 -0.06383776903521066
v -0.2958600110143503 0.4715150587566732 -0.06416075055838016
v -0.3349154927885298 0.44551966676427224 -0.06516959059295521
v -0.3977852619565074 0.3977062909365753 -0.059341115158867544
v -0.4561050590355607 0.35465497600457024 -0.06320171848105856
v -0.48435526289218706 0.32275881940915174 -0.06571235033205207
v -0.5226864921176654 0.30153733529749166 -0.060521280679848334
v -0.5489063689503034 0.27498401342258333 -0.07508570890324204
v -0.5846453565108669 0.25376266167070544 -0.059394623223655664
v -0.6272386439678723 0.22035671716909436 -0.06529645549956238
v -0.6631064163697761 0.18904555391933367 -0.06516647880530319
v -0.31688824748933003 0.4573398695704546 -0.0671091077864892
v -0.2614408459962616 0.5048172050476583 -0.06670896868162778
v -0.2272720860025185 0.534894353919457 -0.06347857885818256
v -0.20740373460502767 0.5435779979973202 -0.06298652892951744
v -0.18496449966191353 0.5679680690044508 -0.06683384594322062
v -0.136851553603097 0.6042100272253547 -0.0659436700031251
v -0.2727818994989615 0.4989850329624575 -0.06549527188317344
v -0.2209918119845079 0.5372091675677927 -0.06375601167525456
v -0.1849279113409251 0.5715355184803238 -0.06815746396587538
v -0.14466227536814308 0.5976487840519248 -0.06240702916624556
v -0.15266410806835107 0.5950264743588879 -0.06104131198666241
v -0.192459156238972 0.5612215060106677 -0.060955774079665744
v -0.2345438173219042 0.5310476690827802 -0.06638123970919095
v -0.26403511003601277 0.5013222803240032 -0.06595654929570752
v -0.2793658011658404 0.4877715264783273 -0.06528330134198479
v -0.1847620901360721 0.5693306539306611 -0.0642472319588397
v -0.21121885328633544 0.5431542192124544 -0.06531204893856155
v -0.2311471816871806 0.5304721498135447 -0.06581914706080785
v -0.2584336266063623 0.5033248358214181 -0.06266133550100196
v -0.26603671286667047 0.5035509988693753 -0.058856255859958476
v -0.1484948475645671 0.5939033704124171 -0.06716267354322933
v -0.10920786106930966 0.6271416438195089 -0.06680030426877988
v -0.07807494828377805 0.6494632291716151 -0.06380921606694828
v -0.04767928039932232 0.6765469320668972 -0.0681328852710532
v -0.0064225884712283965 0.7050286513159333 -0.06586591262799757
v -0.02101862936287616 0.6995951685135936 -0.06285836940422254
v 0.027166985307235172 0.7311213997655205 -0.06407349948401117
v 0.04035979686654642 0.7448797386710077 -0.05893527535049826
v 0.07346672386488412 0.7763699478609277 -0.06042395425684105
v 0.054536471290268916 0.7663248491399834 -0.06034417351838012
v 0.1068684548453131 0.7945564283850556 -0.060154750956927454
v 0.14601496129940336 0.8331029500337129 -0.061774911887889375
v 0.17791756283255428 0.8563911559937426 -0.0578331870001324
v 0.19788505236765722 0.8724646231336837 -0.05829426382606146
v 0.23715065421285061 0.9066269228626739 -0.059936832425401765
v 0.28703163561210726 0.8712294586600678 -0.03840336354949809
v 0.3046310181302733 0.8306209783100866 -0.023584692957790615
v 0.3144143407504978 0.7960264793668637 -0.00713295821332214
v -0.15020015046963905 0.598190013094655 -0.06017818945568629
v -0.12895603888276683 0.618800615221131 -0.06458808814261374
v -0.0930741519679815 0.6433454950215203 -0.0659325424219784
v -0.06680439757939792 0.6690848601354347 -0.06089139690748416
v -0.023150587489445058 0.6916203031391053 -0.06644267848177512
v 0.01747212032449868 0.7253889514294339 -0.06421910584334181
v 0.047767791304724354 0.7506467823245875 -0.06133502234391499
v 0.060657754847912665 0.762845942743909 -0.06419669176569197
v 0.10358168076885531 0.7950273620266334 -0.06486595570862169
v 0.1470726544294557 0.8293922122820139 -0.061762518866767674
v 0.16742771654941174 0.8479820875015968 -0.0604432320308654
v 0.21993785044284267 0.8887021596295792 -0.06013363189201472
v 0.29514266464626177 0.8449426122743883 -0.02499788749214297
v 0.29041239228007865 0.875676968803912 -0.04677661698048015
v 0.2757658885326695 0.9154118110466375 -0.05544193861155429
v 0.3099919372516037 0.822714204669804 -0.017490467691757675
v 0.31224287094473696 0.809659933633135 -0.014890071120640395
v 0.298359455352467 0.8533795990001352 -0.03528742684446824
v 0.28350160464740826 0.9010037203210531 -0.048701709622541334
v 0.20369891313327868 0.8836748616890103 -0.060316492142100095
v 0.17956341212617402 0.860208466302009 -0.0636857733126265
v 0.14405793499220632 0.8328502996089449 -0.06190375321636642
v 0.11646245125571786 0.8069782135273451 -0.058034195468782496
v 0.088012972203857 0.7866108702631359 -0.06172214277158154
v 0.046893232761504394 0.7509280087731998 -0.06863788148580549
v 0.014301041527692022 0.7229320511312033 -0.06331619884522852
v -0.0221178377176851 0.6981231106648994 -0.06563964235098006
v -0.05189984883935203 0.6745462436954883 -0.06614967390654306
v -0.09851136511886337 0.6368043043495967 -0.06441021737039175
v -0.12824853050409601 0.6156066511327709 -0.06636064022973008
v 0.2986754749864889 0.8262815431899386 -0.026574216530987
v 0.24866398148928473 0.9171287205251141 -0.05743373636982684
v 0.22128787413999296 0.8869326400782034 -0.062136729921024224
v 0.184694525605844 0.8634840178136494 -0.06315783195410941
v 0.14902868662539112 0.8348469879599977 -0.06633771084066528
v 0.12478107339798938 0.8138938125350332 -0.06692878075201823
v 0.10304165295695694 0.796309323613928 -0.06502583916925138
v 0.07214097622889852 0.7642941742513204 -0.05918573914576695
v 0.043493291849076215 0.7507191521345965 -0.06716360218941904
v 0.012393450355860893 0.724310754412171 -0.0622115382440976
v -0.011678904920144792 0.7029939151008298 -0.0638231393542697
v -0.04947916315741602 0.6772296536120498 -0.0677001210083561
v -0.07641947363938555 0.6521910737175278 -0.06387643491573791
v -0.10905303620385852 0.624631026169093 -0.05737455416181941
v -0.13401422520162543 0.6068726490024889 -0.062091929386531686
v 0.40770186362399785 0.49252304237410444 0.10207131640092205
v 0.34740778176842 0.7015696262527122 0.028398098023373772
v 0.35737246698601993 0.663129795881001 0.03936427980366416
v 0.37244992659519344 0.62078627159684 0.05944323748913627
v 0.38408063969354056 0.5690197648216326 0.0760738082688514
v 0.2666914650659942 0.35686744573435536 0.10389763261069303
v 0.30609757538500154 0.3905050623149976 0.10773741828619741
v -0.5911105279683027 -0.166253241710623 0.05191944377968081
v 0.1707417244870315 0.2828477473738574 0.11131053712734826
v -0.8101938856618138 -0.04601117815454052 -0.03549447030883046
v 0.22106961208103734 0.3311623928691932 0.10667805003333077
v -0.4581897785959913 -0.2332078068773146 0.10545698760207114
v 0.3821662436406261 0.4560151051527304 0.10285115842479876
v -0.11369745306286047 0.04863136479688721 0.10112992783645497
v 0.31169213508090676 0.8165185069175486 -0.018574428206520534
v -0.6011031104307908 -0.16799264568163727 0.04968286188057665
v -0.08988196768360088 0.646018862183094 -0.06228310913920788
v 0.11457192497439173 0.23795889046470975 0.10720492380563615
v -0.6112194727368142 -0.1528848605621085 0.045644285593149064
v 0.08453484457556497 0.20861642199833416 0.109317749858147
v -0.18589611828388253 0.5661368298858077 -0.06927516371655647
v 0.3780252854063528 0.6080086921489577 0.06057516239521422
v -0.7489749853090016 0.11417126260968054 -0.06902942747367367
v -0.4176879010357449 -0.19806271583845167 0.10684337176740699
v -0.31397565038421443 -0.11379192038730722 0.1059611370017668
v -0.6413524387085016 0.20411688796931376 -0.0650967260663425
v -0.38913345916055764 -0.17261763779381842 0.10108097788824708
v -0.7673259362235796 0.10593634754939486 -0.0634074700090339
v 0.07622524985120566 0.20740239516704354 0.10604257277670313
v -0.7026304662275386 -0.10324575195058798 0.007716114574275602
v -0.664961690673712 0.1791834488272345 -0.0621882058894094
v -0.539481545396531 -0.19802758117960007 0.07892736148645375
v 0.367920375493664 0.6182522593765425 0.05433434487259261
v 0.3597259557302237 0.6616530611488936 0.039707186123006326
v -0.3099687296856165 -0.11483980364613207 0.10312008583371816
v -0.21142876723393164 0.5517133031532508 -0.06459615707149166
v -0.13635925710073335 0.607917191840822 -0.05834746325266306
v -0.5232140251724462 0.29019652118248 -0.06631636918382099
v -0.6949881625329065 -0.1101378479229018 0.01323465939206281
v -0.017183824757879215 0.12928229949364523 0.1077603373671385
v -0.26247962961983784 0.5038820308371523 -0.06782587905179185
v -0.2374158321355244 -0.05138179590425618 0.11004540243623318
v -0.7239083611796777 -0.09539101709227213 0.004799459729331795
v 0.35299835039085764 0.4325082541270999 0.10964304491850209
