v 0.15396825969219208 -0.6306546330451965 -0.1308218091726303
v 0.5485982298851013 -0.4509350061416626 0.08060431480407715
v -0.0543893426656723 -0.20585578680038452 -0.11445673555135727
v -0.464643657207489 -0.08902860432863235 0.053227461874485016
v -0.22363422811031342 -0.11925864219665527 -0.021017467603087425
v -0.23418906331062317 -0.5106840133666992 0.05381311476230621
v -0.06296788901090622 -0.42114219069480896 -0.020456593483686447
v 0.6464869379997253 0.2604329288005829 0.058712828904390335
v 0.322588711977005 0.08649666607379913 0.05450598895549774
v -0.7113017439842224 -0.5176498889923096 -0.08293088525533676
v -0.5584392547607422 -0.2667182683944702 -0.0067887562327086926
v -0.857818603515625 -0.23915007710456848 0.07828648388385773
v -0.486941933631897 -0.39969602227211 -0.08414341509342194
v 0.36595526337623596 0.7963398098945618 -0.12170718610286713
v -0.011440198868513107 0.5897464156150818 0.08102501183748245
v 0.1465470939874649 0.2949393093585968 0.08102501183748245
v 0.5526928305625916 0.4276736080646515 -0.11994200199842453
v 0.9309790730476379 -0.2767930030822754 -0.1167498305439949
v 0.7279413342475891 0.10711034387350082 -0.11858099699020386
v 0.6688175201416016 0.061908382922410965 -0.08027487993240356
v -0.35805293917655945 0.42062947154045105 -0.09991458803415298
v -1.018971562385559 0.06717032939195633 -0.10367590934038162
v -0.3863099217414856 -0.5902369022369385 -0.0073579298332333565
v -0.1495773196220398 -0.2569965720176697 -0.10432754456996918
v 0.46253490447998047 0.38435548543930054 -0.06881224364042282
v 0.5707656145095825 0.3926243484020233 -0.03937468305230141
v 0.7171357870101929 0.14418870210647583 -0.032414570450782776
l 6 7
l 16 21
l 20 27
l 2 18
l 2 16
l 8 26
l 9 20
l 19 20
l 17 25
l 9 25
l 21 22
l 4 11
l 11 13
l 14 17
l 3 24
l 5 24
l 10 12
l 6 23
l 4 5
l 11 23
l 15 16
l 12 22
l 15 21
l 4 6
l 1 2
l 18 19
l 5 7
l 8 27
l 14 15
l 25 26
l 3 16
l 12 16
l 8 9
l 1 3
l 10 13
