v 0.00764503562822938 0.38934677839279175 0.14760009944438934
v 0.35511264204978943 0.10189614444971085 -0.10924719274044037
v 0.6316312551498413 0.382175087928772 -0.10304661095142365
v -0.2955465316772461 0.104256771504879 0.14680622518062592
v 0.20135223865509033 -0.4095807373523712 0.1442992389202118
v 0.17536310851573944 -1.0173816680908203 -0.0971468985080719
v 0.8127180933952332 -0.3773527145385742 -0.09364550560712814
v 0.017674889415502548 0.9989725351333618 -0.09657863527536392
v -0.9078141450881958 0.09504330158233643 -0.0954672172665596
f 1 2 3
f 2 1 4
f 5 6 7
f 4 8 9
f 4 1 8
f 1 3 8
f 5 2 4
f 2 5 7
f 5 9 6
f 5 4 9
