v 0.11394598682357589 0.10187143868282858 -0.013318866259702836
v 0.40610597515335867 0.1575711775044938 -0.10696670776509817
v 0.07569528703141909 0.38950284639388466 0.1207609836482861
v -0.2028934383221471 0.19313061212338273 0.1435034351003368
v 0.25440868275706396 0.1010001331921143 -0.06349187015586698
v 0.18452404462831357 0.38613283117318553 0.07611805486385341
v 0.5259998846185038 0.2780034190470447 -0.10401542475028311
v 0.46638882019765227 0.22178047646726362 -0.10653611458691843
v 0.5802512039823586 0.3346454224571427 -0.10645374398184798
v 0.32665532823694204 0.10152969358437267 -0.09456119477914433
v -0.16319137587565466 0.10599269540831577 0.0989730310692288
v 0.17831666911121305 0.10358970735791029 -0.04072945611672767
v 0.49750238095606714 0.385099860735207 -0.05190951468486401
v -0.04162148217835641 0.10356187720851856 0.051434520026123434
v 0.07439142193358278 0.10123940358131128 0.00741531484613328
v 0.39413850212042073 0.3886751032584792 -0.007219665458693062
v -0.1079604544997426 0.2795951868411231 0.15010580885903163
v 0.28225139225056317 0.38569153287678687 0.04397828059055336
v 0.03783033386547674 0.3897516195320015 0.14193083739080392
v -0.24099908130820785 0.15863206247133949 0.14734408687672368
v -0.13281725619573911 0.2578685962903397 0.1410390062861323
v 0.2159651890836329 0.10098993879572536 -0.054788570073422214
v -0.0031771281974709554 0.09566961220086936 0.031087601153223624
v 0.43313686217021 0.38614898521137786 -0.021147827181804517
v 0.3876892584530784 0.1274297362778731 -0.10703982618143269
v 0.5567052730312467 0.30344631836604263 -0.10788089139899099
v -0.16763238656158205 0.22439268609423127 0.15207555090777292
v 0.49540994311712916 0.24019381251645044 -0.10526645396961833
v 0.43552290641477376 0.18455585461481375 -0.10846864646474721
v -0.21434212017383406 0.18450450745655578 0.14752695345249728
v -0.1933524289973318 0.10154082267696876 0.10677429548286459
v 0.11011281489886712 0.3888121429815105 0.10473369822605584
v 0.11185775892221 0.10293439665830666 -0.013084268582125087
v 0.18520732564937473 0.10945265859101502 -0.03822656426802693
v 0.038302102885207974 0.10577168050465362 0.017206337198787357
v 0.21182221607375024 0.09800279777398294 -0.05735692161606384
v 0.3199988258211662 0.3856833524453057 0.02300993903512024
v -0.14030675681040047 0.10564584630298009 0.08325839890483953
v 0.13957522706115133 0.10205912004887983 -0.02173827399760554
v 0.16812355938585624 0.3878489849837368 0.08410630812321071
v 0.5551660838418161 0.3778096684626775 -0.07180354940607526
v -0.2548937828407494 0.10271582968408159 0.13213507376164746
v 0.45012134138556653 0.38739836389344984 -0.03267354402425808
v 0.04037496952214301 0.10093242102762923 0.013204757837732464
v -0.04810664655130105 0.33579177777789676 0.14818108322457496
v 0.20946033765420194 0.38057271557418276 0.07015146136497367
v 0.24431967296294846 0.3841576119200813 0.04867771274656329
v -0.08761571280810362 0.10040628225025688 0.06975835523228595
v 0.08772987595155955 0.38592296447505997 0.10956306789340158
v 0.34486093520052746 0.3871034089538785 0.011053373746551997
v -0.003864780578419387 0.3779095279868375 0.14479897192945596
v 0.38685572550023184 0.13764265406492096 -0.11429538714210902
v 0.14381926610421292 0.3854069530229066 0.09519549288454164
v 0.29238397373088354 0.10142411087351987 -0.08625290027359947
v 0.24441052290183615 0.102267725979308 -0.0663447201703796
v 0.5162307495795493 0.2672564404235649 -0.10535473731034149
v -0.02757850794774831 0.35681730853548366 0.14651975554041985
v 0.2886668034485597 0.38431416268760377 0.03418114704029168
v 0.4203282450489231 0.16365207855937425 -0.11623519942317986
v -0.1449997046803213 0.23901521752715124 0.14479703887172748
v 0.5702639168650372 0.3825828432040601 -0.07699288328392659
v -0.19238242488693835 0.20858504762412042 0.14915183098610402
v 0.2123255653366779 0.39143040359834835 0.06601673061923183
v -0.12639103439302982 0.26157680538619826 0.1496952327194994
v -0.2273345367059338 0.16482059746731512 0.1414355805604815
v -0.17110064944592243 0.10670712094778353 0.09456253426008089
v 0.0715496570398161 0.10124546994740535 4.634341940294327e-05
v 0.36683006724050377 0.38748345221627156 0.0038828718552530814
v 0.565852163527041 0.30989464139233847 -0.1057121221766954
v 0.02283464243901484 0.09720296552820132 0.01534168063604868
v 0.41736526945611563 0.38422333885171656 -0.01776027136286387
v -0.11374882185342268 0.10690336840064422 0.0668217294756862
v -0.06616843579927016 0.31499734307154253 0.15334777885494638
v 0.056226874420487495 0.38687997752420433 0.1275393715354478
v -0.05727503447408179 0.10492839115803076 0.05602042499623535
v 0.30606801540706496 0.0995702135702842 -0.09115895652709015
v 0.5288849813720218 0.38216403452738956 -0.05688113836049437
v -0.14719008342529116 0.10444960180838596 0.0904809366269401
v -0.017541369059252528 0.10462297246087701 0.03914729413254913
v 0.19522621912320903 0.1029742309039026 -0.04137833405323755
v 0.4778443647028623 0.3842181987753217 -0.03990555950470251
v -0.224947063849696 0.16993296533915633 0.14659785012382212
v -0.010514528379265834 0.37691082063767334 0.1473055698450387
v 0.36792506486169774 0.3854225955245874 0.0075834172825059625
v 0.1072868588273357 0.38821038289469817 0.10753828190940287
v 0.2619178485721269 0.3913229594338971 0.04653323779760324
v -0.006477383071477161 0.10275435293671381 0.03444432090969472
v 0.514184866236123 0.25546610246352136 -0.10902681855184954
v 0.09820051534045748 0.10593500543142005 -0.010998349945525815
v 0.06132979695642553 0.38690866897786663 0.12475992725469805
v -0.16774270973793215 0.22878015175474978 0.1392980955650305
v 0.09582069259982831 0.10086277157883648 -0.004299681286255269
v 0.5074386047519874 0.3820057015519626 -0.05647678162792387
v 0.47488549802679664 0.2268736340897391 -0.11023774583727156
v 0.43496394228130236 0.18039417186074103 -0.11024372103378932
v -0.059250964387420064 0.10590546088437457 0.05699055425326002
v 0.16282873711572166 0.3897258962606986 0.0877478074173493
v 0.1620217462568323 0.10286210549353243 -0.03913312724027265
v 0.2005070519351991 0.10249706518596705 -0.04513266699464645
v 0.3305914333216097 0.38515009520149396 0.01849191912526897
v -0.09392425072967983 0.10510163116219684 0.0692039916509874
v 0.3718612500995533 0.11360471812358706 -0.11197481235905135
v -0.06746628803521404 0.3268199039330507 0.15143217560820343
v 0.2339853428624516 0.09720401993318349 -0.05666727488026364
v -0.19642259393171096 0.1977768612576139 0.14943114816328734
v 0.5598301313190017 0.3787935940224371 -0.07593698936755972
v 0.5230924607395815 0.37825541406967866 -0.06341642713797357
v 0.5370527431514739 0.2863228455273864 -0.10442465432673535
v 0.4731073789369978 0.38264339936544123 -0.03795258585343025
v 0.03899273873842462 0.38952328397505276 0.134413039839633
v -0.20545381376404928 0.1869264942234709 0.14917044666078993
v 0.04378888169849625 0.10439960162600957 0.00798096996359184
v -0.0013239348214836503 0.38322364655487096 0.1510246994541111
v -0.13409108864193917 0.10368290455284085 0.07416893879425508
v 0.2302357253059563 0.3882606343161379 0.060286785717144166
v 0.5082608792591652 0.37733508542671473 -0.054382348093301135
v -0.1815250899505359 0.21275475711993336 0.14862979559897804
v 0.16353562849815406 0.10099103177842998 -0.03330328042350077
v 0.26594523766477424 0.3873220792483662 0.045383213013589954
v 0.2785358719780434 0.09739525869936842 -0.07779572951761302
v 0.3822663677218507 0.3840120331336295 -0.005120014876282789
v -0.08631797908560773 0.10129874377823785 0.06464529745609449
v -0.09505466190365378 0.29864746628314 0.15022307886817993
v 0.5652963136957592 0.3084184035005113 -0.10514110961823665
v -0.23547839037469137 0.10520068066234996 0.12567817507140933
v 0.008144098647074265 0.10405686432473821 0.023968521986104437
v -0.13562696718002035 0.2545741871277252 0.14397001590784145
v 0.12233281296767516 0.3866566636698787 0.10150358798088578
v 0.4039550928475325 0.14345015367679534 -0.10729084553027322
v 0.40831447812514593 0.384693517503772 -0.006134186465062351
v 0.2145094966137889 0.1070857831048984 -0.05208203291831416
v 0.5898570567545951 0.34378561135579366 -0.10205855996045471
v 0.37231811470836884 0.1176307145577655 -0.10796685688249082
v 0.028840974506651504 0.10108889934411515 0.016866655908547953
v 0.4745776607034276 0.22951000596269033 -0.10527144646914095
v -0.046151445898263255 0.3484617933210513 0.14937735187574766
v 0.42694279429773746 0.38616012128145916 -0.02312008674036185
v -0.16228265012273602 0.232973019625804 0.14493752482226452
v 0.20698733653490567 0.10739403879066602 -0.054235995018376386
v 0.5053126720666301 0.25165239950431606 -0.10338568150334822
v -0.07061406170922642 0.10926165811810175 0.05595492650871466
v 0.13008257807186743 0.10434831373231601 -0.01976419441471794
v 0.06775508270896624 0.38758551544380276 0.12444690957840492
v -0.16643301546127937 0.09880159157784132 0.09152523040453553
v 0.4179380660919224 0.17087267159437639 -0.11181753051169814
v -0.11261235490510357 0.27512334491695717 0.14783866408537577
v 0.45253274241579966 0.1927251537899889 -0.11405671408349115
v -0.04891245060834435 0.3375717739108802 0.15052850675701496
v -0.18637589934113866 0.10356993273047778 0.1051084038987987
v 0.3834623717072413 0.1305940974276029 -0.10770540249542435
v -0.004958552376103356 0.10634173968886729 0.03337632723227818
v 0.2667114480618921 0.3885576008346272 0.04520628092276055
v 0.4506241886728803 0.38526760433941476 -0.03158184926361098
v 0.31213787923047676 0.10233855897472895 -0.09600365940822458
v 0.5364417040121922 0.3804566334735554 -0.06041413099605856
v -0.07505082632485385 0.30840432928447636 0.14857285728488928
v 0.4868602897374319 0.38146408755493894 -0.04598716392050105
v 0.250310242944897 0.10537169122077081 -0.06581858614398538
v 0.5800172708325906 0.3265248889800158 -0.10278134247226409
v 0.25069665270904706 0.38365144231676057 0.05058118805946639
v 0.4671735846023289 0.21568722145210523 -0.09898993837141933
v -0.14032942373286766 0.10549986073014135 0.09004547281448758
v -0.04488926447875588 0.10496336439094485 0.04713290757222908
v 0.3560414235674617 0.3853294118614234 0.006976328363067363
v -0.18999638200876443 0.2054401784616627 0.15310327606496987
v 0.26848374115496 0.10115470347212546 -0.07420415836298903
v 0.18028354822335077 0.388146859781616 0.08542716615766983
v 0.06626909040706185 0.10573539597797198 0.005621835815545565
v -0.2535365584546022 0.13756206717454372 0.14517225079617768
v -0.24839362824425415 0.10224703220644142 0.12892291050977384
v 0.11200886387875289 0.10377143538348083 -0.01681320786608038
v 0.0914981665375401 0.3856063687322559 0.11193734201199064
v 0.16238419872514662 0.38692709797293157 0.0852184034407054
v 0.42249991022197403 0.38254664778508474 -0.01746214991735335
v 0.0512685623507617 0.10186935034222351 0.009293211521721061
v 0.4956703257572306 0.24437126831148726 -0.10462425167263882
v -0.17064880120070663 0.22077485025070426 0.146243608154844
v -0.14703233700753227 0.2510901369589941 0.144361680544953
v 0.5008249015605558 0.3836721105608247 -0.0488157543229051
v 0.3471270757902866 0.38611980248490085 0.006795970098255286
v 0.5680426663913912 0.3182943923678161 -0.10636384369208203
v 0.030363938497106682 0.38795280697425444 0.13681831992200522
v -0.18478407174943987 0.20444347314499914 0.15063345374801176
v 0.4247319258942059 0.17313222094693584 -0.1069396965166174
v 0.4271526000978084 0.38445077912153475 -0.019442097199580392
v 0.1357421551385655 0.3895440176834644 0.09964326836152941
v 0.322838700572657 0.3850282505675757 0.017814340661082013
v 0.2522287491886056 0.39058020571433827 0.05307493222512062
v -0.19099686436685495 0.10081220012563938 0.10679724426411248
v -0.00405493338713985 0.1037057392068384 0.03319761721855197
v 0.4231992605005195 0.17826945043329237 -0.11027937813560168
v 0.08728817280358601 0.09885774383754321 -0.0051779296274689
v 0.6625793085253999 -0.5332074973633669 -0.09227486668570514
v 0.4075238372154841 -0.7841424657089052 -0.08954377718869141
v 0.6571090314055559 -0.3853689146548848 -0.03429411371586779
v 0.7626085726678288 -0.4323208333311263 -0.09298534184206105
v 0.25843936031930403 -0.40516325372682527 0.11911564590403291
v 0.594164887045618 -0.5975257546374 -0.09768272784907775
v 0.560922166499401 -0.3920358851439445 0.0020955693095572768
v 0.2408839093722712 -0.9447972920914369 -0.09458463216559991
v 0.4265711782511945 -0.400921590763457 0.06125999367969505
v 0.19731626034071859 -0.5650870766231952 0.08222045597803293
v 0.18836659463269045 -0.685743578142461 0.035997652096411384
v 0.18908418303908023 -0.7991884903783879 -0.006047884942685013
v 0.705132253424226 -0.48640098855532976 -0.09401987264274106
v 0.1944845581010884 -0.4894733618232132 0.1119702422149888
v 0.3577630371435546 -0.8361312113014326 -0.09104221210317638
v 0.5007378064788006 -0.6916321476136298 -0.09158128559363476
v 0.5539609852713552 -0.6397622825632124 -0.09645094522721367
v 0.3209569781724834 -0.8726817739711195 -0.09251361134561308
v 0.1793480605684831 -0.7391868579709601 0.012943765114620694
v 0.2728468954752647 -0.9109424740628517 -0.098272634917209
v 0.19106441977171867 -0.614030979764756 0.06049677454695806
v 0.1827281994480043 -0.8849261151094372 -0.03820624152647535
v 0.6301703907514636 -0.5575031743838826 -0.09217227408274012
v 0.38335781572853567 -0.401977439840778 0.06984501937478622
v 0.7420056101753021 -0.4497281531866912 -0.09011232278272714
v 0.3398862907556558 -0.8500325808606519 -0.09244769941094032
v 0.3844581125239267 -0.8041386557083293 -0.09676200978951631
v 0.19129649654787595 -0.707461876376202 0.03153473339849987
v 0.5877487035025791 -0.39277130266734883 -0.002334044905396207
v 0.6908270827489251 -0.5048544118649884 -0.09252571986304658
v 0.43279461359516735 -0.7574428989997118 -0.09674707556356593
v 0.5606535834472549 -0.6255885399305587 -0.09622030525329162
v 0.21456793716961411 -0.9741982395677921 -0.09814003018878346
v 0.18569408003406968 -0.6569135080129886 0.04323642557061977
v 0.7922015700225232 -0.4018802109053914 -0.09365472749603333
v 0.22501316130348287 -0.41148959632719767 0.13665154395413703
v 0.47358138447421233 -0.7183082375874099 -0.09330461155230561
v 0.3434001682250436 -0.4046292143035417 0.09172473975818879
v 0.18440842039139899 -0.8510402731741508 -0.03010383473873597
v 0.585064577771389 -0.608066165883696 -0.09648698053540554
v 0.7342993098296399 -0.4560153414570698 -0.08997763973318347
v 0.503515420271459 -0.3940137686288253 0.027047499510887116
v 0.7552939812490994 -0.3836872872867765 -0.07203579031222299
v 0.6890822094789529 -0.3848201013175333 -0.047178604187373456
v 0.5264306007016449 -0.6664013871493781 -0.09242067842914982
v 0.26986617822693604 -0.9259351098415493 -0.09520412753061544
v 0.19635923615858217 -0.6120997482906526 0.0689933155977968
v 0.18277720729505595 -0.8529269437320185 -0.034937301826606135
v 0.3126270933958559 -0.40130600532152705 0.10223990441027273
v 0.6137589997439553 -0.38702945106301306 -0.014688145210872262
v 0.4892766772320634 -0.7028622456525936 -0.09561344458308275
v 0.18323434581450843 -0.9085414149473459 -0.04995438880947821
v 0.28965400609315173 -0.9010798535028013 -0.09886876075087091
v 0.6198441883228412 -0.569882578741808 -0.09351490255701972
v 0.19060582791128633 -0.7692841427812661 0.002503450720148633
v 0.18430753044174236 -0.822012820977217 -0.0236273843633317
v 0.20093871237270636 -0.46319505051635634 0.12605667925900174
v 0.5120729524042952 -0.6724673462860812 -0.09739788183675084
v 0.18659666705341071 -0.7121029470679401 0.024797756539116353
v 0.19565197576164564 -0.5859558366872881 0.06936863457243575
v 0.47615436436415365 -0.39474095494736255 0.034498107683356656
v 0.18473862984032424 -0.6810397861286455 0.03557030040749787
v 0.19609766947916527 -0.5132646907649134 0.10670652646829903
v 0.5223707538011714 -0.3954014950024179 0.02087850464211071
v 0.44506552340368916 -0.7411321812180426 -0.09931301378624692
v 0.18689851153738696 -0.7595561876841184 0.0006442895155007043
v 0.19848025554985532 -0.5397287398723277 0.09641287388641816
v 0.31223511357132333 -0.8733038330501749 -0.10003050693042993
v 0.564328872588026 -0.3925799980800999 0.0016851873225717175
v 0.48363117567814606 -0.39004622197888006 0.029887403533033825
v 0.7099553148206296 -0.48419316245298283 -0.09699234061451377
v 0.3853786758370088 -0.8088805975938752 -0.0932095608158773
v 0.19947703432363095 -0.5728770529257933 0.08560825299912452
v 0.17591026669722734 -0.9470435309268623 -0.07027583517730575
v 0.4513142091169715 -0.4059198548224735 0.048267283270726
v 0.33163632608857796 -0.40324866221015987 0.09794003145919217
v 0.17933893907790155 -0.9157461535804323 -0.057711522423480634
v 0.5493570978763769 -0.6470814253692362 -0.0926560651157603
v 0.6015897321075784 -0.5849531586806641 -0.08900300124205682
v 0.404489059568243 -0.7893501691208311 -0.09529152450747641
v 0.7632205160931437 -0.43236974290480645 -0.09478813702847542
v 0.6820311508477316 -0.5105316020894255 -0.09599339172868898
v 0.43145061193098083 -0.40286872478316155 0.05847873549273694
v 0.3326155071830118 -0.857792956757424 -0.09719018868012261
v 0.1993716635621376 -0.4784834799555916 0.11599588962849014
v 0.7215811070820798 -0.47301424946000553 -0.09192675907862823
v 0.6577469840734239 -0.383406412477635 -0.02374489186331152
v 0.43816533731304647 -0.7581367592501154 -0.09915142909671248
v 0.2816487940009386 -0.40961723821968776 0.10968618268863081
v 0.5946874691588054 -0.3937267924095225 -0.010244293304560614
v 0.25506289853475966 -0.9343572442835036 -0.09406640311183777
v 0.5387253036932949 -0.6535103932065346 -0.09995045932739392
v 0.6504741230913639 -0.5409224593258194 -0.09391329577124831
v 0.4819751524105692 -0.7107597120422577 -0.09227652901664198
v 0.3636726553655614 -0.40132406167616624 0.08396743474878882
v 0.8108278059516664 -0.37964830081184414 -0.08731052810835808
v 0.42538031058802067 -0.7696584583762727 -0.09420418811415365
v 0.19812818334094953 -0.45121273238953613 0.12828938138504414
v 0.6467350773427288 -0.5423115176757298 -0.09759578353892047
v 0.62807877100395 -0.3870959131901885 -0.016457252541566086
v 0.6873096198216558 -0.5036956378670405 -0.09359579233956952
v 0.18861731742489293 -0.9985627934748496 -0.09185516048227503
v 0.6703571598493252 -0.3868105085663199 -0.043591761134725154
v 0.6330167176372447 -0.561253506171796 -0.08907025506736148
v 0.5542655221523626 -0.6339572758364581 -0.09153255313783204
v 0.1813046047370291 -0.969098223434234 -0.07404360355160608
v 0.5443014803702837 -0.39254283785959987 0.015396231191152219
v 0.5773831298372996 -0.6065552067789189 -0.09036291300232425
v 0.3486174893375232 -0.8441797376073427 -0.09152318706830884
v 0.1880625626917486 -0.8092210197493399 -0.019415014913750205
v 0.24552437849825834 -0.40467831905999907 0.12567968296165544
v 0.7254850625850139 -0.46751380698490247 -0.08869328352683735
v 0.6770598360367187 -0.5159625772278912 -0.0914284009599259
v 0.23993010568161788 -0.9527088522346444 -0.10073770346893789
v 0.6136255227386581 -0.5768638204600528 -0.09260896442766288
v 0.5095071991866204 -0.6818710696330954 -0.09447427765058801
v 0.7130005137798278 -0.4789121350074068 -0.09017637916297114
v 0.6770279180986577 -0.3818907552909619 -0.03710743446438029
v 0.19150766227106797 -0.6300940052746603 0.05684865274671191
v 0.7133123521493695 -0.3829204057756911 -0.05753451560942502
v 0.7425332682397786 -0.3835897884490711 -0.06992153462107202
v 0.19805918009462062 -0.5278331517299817 0.09783294126783099
v 0.19635757302665016 -0.5731109958562386 0.08004277005514836
v 0.6435658205249517 -0.38716227435363904 -0.026591209090932485
v 0.5652394988282504 -0.6178443990026543 -0.0866047368328786
v 0.19138760507167474 -0.6935972098616608 0.031048772217070798
v 0.2759321585279265 -0.9148692713427394 -0.09754489102200417
v 0.4289692680382464 -0.758768462834675 -0.09411175868581236
v 0.17672863737098732 -0.9172142870702056 -0.06058956669801171
v 0.17968551770149055 -0.828150544180808 -0.03210854830394237
v 0.29748927726733665 -0.4035845213028633 0.10630806228885105
v 0.366224623221092 -0.8312239881248262 -0.09603440711032354
v 0.30830642655833557 -0.8823919412458509 -0.09265048234644489
v 0.41380440853772305 -0.3973603427301086 0.06401919499298038
v 0.17910191869822728 -0.9358584472481574 -0.06130287758639739
v 0.25687742716002787 -0.9333088354490883 -0.09400049845398632
v 0.27170496346898215 -0.9258874567821097 -0.09843419418750544
v 0.3947714881829202 -0.7954597601848299 -0.10051057385753955
v 0.46480165622478 -0.7264488229220213 -0.09447640892354438
v 0.7629755470874984 -0.3827516662352189 -0.07517862152350896
v 0.6860658195792522 -0.4941106656270265 -0.09138733080032022
v 0.7563817956376166 -0.43979217784076996 -0.09793901021987947
v 0.20081777446786606 -0.4783850057823436 0.11644324075107125
v 0.1786492552911246 -0.8986960562970435 -0.053588055858512826
v 0.23983142670570298 -0.40546076116504914 0.12818891707377625
v 0.18945302411071385 -0.6419869647046006 0.05058714917397701
v 0.5364655641139153 -0.6553700461860441 -0.09649405056531869
v 0.42115625388581923 -0.774631824397377 -0.09554344967335589
v 0.5170178776220856 -0.39353521376899414 0.021830386338669575
v 0.3916362125032653 -0.798230195894413 -0.09345901708951526
v 0.39313951140012104 -0.40052028035581005 0.06818476738616445
v 0.7654073154371296 -0.4269905413809528 -0.09286447044356458
v 0.5200526640446314 -0.6649417425438694 -0.09955335228132389
v 0.1840207706706189 -0.7554240409210212 0.008049748268978744
v 0.25625319177628114 -0.40876768929890006 0.12071807501601559
v 0.5783763259981918 -0.3904919135655294 -0.007079594874757775
v 0.7753879246342559 -0.3807734125759658 -0.0827121345284018
v 0.34342095243418047 -0.4035827236857271 0.08845782111828496
v 0.5975611634941279 -0.39044280909983076 -0.008418863166225888
v 0.6244102203788953 -0.3883185344084885 -0.02011802703824753
v 0.3089326848433927 -0.40010542667462806 0.10234629572446961
v 0.7566283978672493 -0.43660569593642395 -0.09615538665275601
v 0.282712839188187 -0.9049096168371025 -0.09622616586033067
v 0.184963126852868 -0.7882761223421998 -0.004724936816466705
v 0.47047208012504155 -0.39595739581767064 0.03729031785624263
v 0.7185297374552406 -0.3790975496522624 -0.05429473857377137
v 0.19162290487155204 -0.5085704646420212 0.10671476950070691
v 0.30165317355031307 -0.8899502596508362 -0.09369717987317085
v 0.3950198811552831 -0.3984088183638715 0.06959197367037444
v 0.18133660264996707 -0.8364874418199256 -0.02667443219763744
v 0.62786974930807 -0.563993113863159 -0.0929067335126667
v 0.44296541489604635 -0.40148531887143846 0.055226046659210624
v 0.37877890364200084 -0.8161945416399676 -0.09464808197614406
v 0.20322666181702737 -0.4174183036217075 0.1474850440431832
v 0.572858130015002 -0.6166154131970879 -0.09598303033183843
v 0.20187501608003186 -0.9907994863590222 -0.09772048097711386
v 0.5001236991672748 -0.6915582198859774 -0.09551931573411084
v 0.6992237251450933 -0.3843883653533082 -0.05171581966893403
v 0.5477003792419436 -0.39326826127444475 0.011364750429200305
v 0.6895715642373478 -0.38323786210806676 -0.052337858216832164
v 0.5376594870585256 -0.6541247513532534 -0.09590092399893878
v 0.1902041289097498 -0.6249851459886727 0.061105145917327824
v 0.7516330373173091 -0.43715699988545953 -0.09125766370074014
v 0.2597942623927181 -0.9384447302810935 -0.09168406565747644
v 0.5771547211615277 -0.613170734070227 -0.09130869406348831
v 0.19466625179504787 -0.4453620938348191 0.12627372327008737
v 0.1893220672800652 -0.5836188306558266 0.07564979248875224
v 0.5171997201844665 -0.6845547360678674 -0.09302526733863957
v 0.621976354907867 -0.3898401044057211 -0.017288453179420696
v 0.3634840389168692 -0.40526956516898827 0.07881105063944707
v 0.18933020826835908 -0.6971938277151135 0.0301914321700589
v 0.6781111321062219 -0.5117604325123492 -0.09034916168154916
v 0.4120651711356894 -0.7774619011102941 -0.09664934409571745
v 0.17804048272475045 -0.8640716869419853 -0.03668467120921611
v 0.5481394578961597 -0.6420779248993053 -0.08853407472011103
v 0.17806525589742744 -0.8887898586773263 -0.049296648623768424
v 0.1904475029080373 -0.6773653224716761 0.04104002446247594
v 0.19609927888770046 -0.6012246236717982 0.06262201602688047
v 0.4898807856527782 -0.6984535820709461 -0.09614830683600738
v 0.42379027939942293 -0.7628342967043543 -0.09695631093872968
v 0.35603273042791805 -0.843262611442784 -0.09167124519691235
v 0.4923745545462494 -0.3898921277267453 0.034653879596242304
v 0.19305693548175742 -0.7453258382351376 0.01935756597313167
v 0.18247864829680951 -0.883239843765203 -0.042325360506285284
v 0.5345075290470024 -0.3930288101209592 0.018364641956654694
v 0.7221150574982893 -0.4642898201230847 -0.09177816456722619
v 0.31971630130021705 -0.4049221227097008 0.09926834196088653
v 0.18192306824528504 -0.875196786876412 -0.04212192431589688
v 0.5485983713970236 -0.6438310101533414 -0.09769276781205317
v 0.3447212822792281 -0.3976637205441025 0.09016526420576162
v 0.42412977121704143 -0.7636279646812283 -0.09549546217466756
v 0.5891067280881229 0.41986579373402716 -0.09690590379639194
v 0.28155021725991175 0.38918665475982545 0.03612564469952925
v 0.015741999801610437 0.9681209871205154 -0.08619808798235686
v 0.3547284989328505 0.6661324221117287 -0.1051866707176358
v 0.1560198928145201 0.8614451670402149 -0.09852806918346207
v 0.25097640676622013 0.7597105820960942 -0.0961354620026593
v 0.008333563743154063 0.6123942646612851 0.054992874557965775
v 0.49621476235355355 0.3803707556715592 -0.04470504264776935
v 0.38728161281245893 0.3874154223224835 -0.00417928996136813
v 0.4212154778669156 0.5997764822031973 -0.09999211232340795
v 0.01482631669791073 0.8967591627420152 -0.05392244252601057
v 0.5143110102053364 0.5018117351127747 -0.09930979542571049
v 0.20613078350406194 0.8090576504427427 -0.09265271293382014
v 0.012217072676387029 0.6799812394968905 0.030761173621002624
v 0.013408639533199786 0.4323896716402005 0.12810138855320174
v 0.12330506961968005 0.39056162364186175 0.10252935833821569
v 0.3399343474541616 0.3880448571759639 0.011663153407801628
v 0.008631716480545167 0.7533072736672917 0.0032219734042563176
v 0.44163398143497784 0.38585682431618107 -0.02782735266938097
v 0.07670855771506607 0.9349567697446446 -0.0977974286391138
v 0.23167407726397204 0.388701448318337 0.0575534863742319
v 0.5501743335473088 0.4635463080807113 -0.0992270834685094
v 0.5383830063663846 0.3824053129382198 -0.06850665754345105
v 0.2837836243077922 0.739087455341869 -0.09893760749135616
v 0.47165211833974846 0.5446280949515444 -0.10281531207814752
v 0.3867726455651226 0.6330426479900654 -0.10187179519658919
v 0.15773447973259655 0.38735100460388033 0.08274965233919389
v 0.10812676963325199 0.9070080936846463 -0.09880020989195269
v 0.31792759629680045 0.6966069818516447 -0.09621278012697174
v 0.013759190711915793 0.7164816963332059 0.015443081499596265
v 0.08360911588405495 0.39083506397705703 0.12072104739932923
v 0.18791672099296478 0.8299211515955799 -0.09802585770888575
v 0.011805161748337008 0.8504973774660093 -0.04150350867303318
v 0.43445386551203563 0.5740884732233756 -0.09868511007853947
v 0.008369605745567126 0.48088361537418056 0.11676143094871251
v 0.20178477543418405 0.3841440191779491 0.06937746814593747
v 0.4939111414534946 0.38635400620533694 -0.04821381542119002
v 0.5559969244792388 0.3843252515607106 -0.07423480589434958
v 0.010813491197843873 0.549219606407949 0.08158513289184058
v 0.05386370439037239 0.9641631922902146 -0.10081749736903413
v 0.4884972131465886 0.5303695494504155 -0.10336932899330882
v 0.22389781049207236 0.7849822184998473 -0.10350136869121401
v 0.5341073940827988 0.48415950021737114 -0.10254209595929165
v 0.3587041659791079 0.6594369421432456 -0.09482149762016132
v 0.20899164029018621 0.8084678583106468 -0.0993510044360365
v 0.2738085833600118 0.7324642773476212 -0.09864838843299606
v 0.015693484935473255 0.4587440719675238 0.11973763082736029
v 0.4435478678988733 0.5752017887831783 -0.10340972788178061
v 0.01908859417716743 0.8982324187926152 -0.05087648732148595
v 0.33484266179591676 0.679296000242294 -0.10083100316400252
v 0.015767498372538512 0.7549196569728691 -0.0030161499183808814
v 0.3798840703975169 0.38491198563069584 0.000932787942225097
v 0.1345750620228021 0.3880812284675466 0.09788705688721841
v 0.49004287942214125 0.5249664450939653 -0.10550335134451985
v 0.5290300663646826 0.382049446504734 -0.0631508314523003
v 0.2570548373228323 0.3855584167517629 0.04646682562493813
v 0.25602040874264703 0.7539528242371032 -0.09771446837739035
v 0.01686529237671382 0.8039425765389809 -0.026391604905486494
v 0.6028603707330255 0.3851156469395609 -0.09098820360839133
v 0.45490971991314305 0.3857684580003462 -0.0337872484190342
v 0.02361015523249362 0.38724695185834324 0.14247817688211162
v 0.009854435494310464 0.5759309552509945 0.07368010238379483
v 0.4183237310802244 0.38892440811953033 -0.010158059853601496
v 0.16136258031740452 0.8554851337759773 -0.09526055229649891
v 0.12021568615918206 0.8945305187366792 -0.09712659673092312
v 0.39401316293668104 0.6178864918159066 -0.10031778232306612
v 0.00716802665936642 0.6302138361875618 0.053429026526265015
v 0.5657407159791045 0.44975272469945893 -0.09594819758886981
v 0.017046864417125995 0.9133773092009866 -0.05889331102259097
v 0.29826588461522874 0.3843972844814286 0.032569248506882593
v 0.012637314161576261 0.6693383830922701 0.03803427662417543
v 0.014189811176545306 0.8340181824092165 -0.03858811487100304
v 0.17522760183828048 0.8420901542518175 -0.09555686818193328
v 0.4668575991156932 0.5477110924237614 -0.09496039990961516
v 0.013392241819003304 0.5344043332394485 0.08955200217382239
v 0.007287619039473012 0.5153537224440676 0.1013388009239642
v 0.570854623986229 0.38177501502490274 -0.0842549742496191
v 0.3038853090884167 0.7229571427350834 -0.09891147150783029
v 0.014860797559760922 0.8299757954924916 -0.02510193340281605
v 0.14345217661857287 0.8726456011351382 -0.09408385445156849
v 0.010919989746864589 0.7250285612323752 0.01121647502562637
v 0.013006516048790771 0.574154517811091 0.07141534127919057
v 0.011316638447544436 0.6438067038952106 0.044903638755591155
v 0.1548785841418802 0.38966002763647445 0.08977252842636438
v 0.4001222468108186 0.6133904510990653 -0.09808594237799079
v 0.13445985830814458 0.880919958604248 -0.09955529854987573
v 0.012189065282992916 0.9550041733411214 -0.07974407670536354
v 0.060448649886241615 0.39093161057855724 0.1293487737013876
v 0.5164240401314647 0.3814782310310866 -0.05715079460115258
v 0.427002975625649 0.5918573422023817 -0.10060199137717092
v 0.3366519176427894 0.38514301344741547 0.01424093519651653
v 0.4110629431500208 0.38598137504190766 -0.012419372968074136
v 0.01096285028506904 0.4990264968526221 0.1092907972637607
v 0.07509874244383216 0.9439304917394378 -0.09892879605988134
v 0.09373683236389403 0.922589272531799 -0.09609882464413093
v 0.3753253746849963 0.6468131832187537 -0.0991641619233501
v 0.36566156809803435 0.3890796503008861 -0.00047459618847321
v 0.014381057306681431 0.8791512923047025 -0.05123978578370303
v 0.09901738603033466 0.9160336252423722 -0.09730274879096974
v 0.31321413835320694 0.7037712280749535 -0.09650573537883197
v 0.5020548961992048 0.5136921606727106 -0.10551935413211816
v 0.31114361566337656 0.38569142358651914 0.029544705526092938
v 0.5363531920081329 0.4799279847090838 -0.10601102805377739
v 0.2796844398177018 0.39181691594877555 0.03619686754603531
v 0.17171761266940083 0.38671849804218544 0.08409175052541974
v 0.01595684872350503 0.7783847188408245 -0.007313728988894296
v 0.02049900450909602 0.9342337717303766 -0.07073926518718428
v 0.18854238792210062 0.38739467967360025 0.07472779940111339
v 0.5149831935213763 0.4997814536555542 -0.09542127592726829
v 0.39832387903894745 0.3852845135939432 -0.0100986973716288
v 0.008740347807266367 0.5948803148495707 0.06519576022947889
v 0.01836877782938226 0.8100193828966468 -0.01865212620338066
v 0.06583135598768602 0.9555719811975124 -0.09498043287450514
v 0.1898241987157648 0.8233235864411866 -0.09527068437192918
v 0.011918631359986612 0.7886183450244847 -0.011966355877847118
v 0.10250621827848691 0.3892801403817261 0.11662536945667484
v 0.014000444085532282 0.739100901431734 0.0034759568262560715
v 0.3438425044278151 0.6778262471686116 -0.10095642368845614
v 0.25335933984593034 0.38757621345470483 0.051660154620929544
v 0.24679274990932226 0.7668835436688698 -0.10493012973402574
v 0.2921817906178095 0.7239950898143367 -0.09421546492863218
v 0.5380322274117049 0.3816600472735367 -0.06985045535328452
v 0.5826848771346946 0.4368256616152914 -0.10333276773899958
v 0.011462174897363286 0.70831783417819 0.02462113976626375
v 0.38077722955274407 0.6343825926586967 -0.09635317254808687
v 0.14936773081994517 0.8717463648307924 -0.10260570891485121
v 0.0455717050631817 0.9707351680618335 -0.09459438665248679
v 0.46805245241239757 0.38149738036433445 -0.033610740721827376
v 0.26942606177583006 0.7365718312888263 -0.09647262403346216
v 0.22409066864792385 0.3870903387848979 0.059448770264458474
v 0.35414782261095573 0.3837592480331073 0.007267280587929026
v 0.09188631781728507 0.9250997703041762 -0.09010339413389272
v 0.5396913650831525 0.4714813755773689 -0.101448505702778
v 0.31135351538058487 0.39026161526717673 0.027158539839589227
v 0.12601199559388312 0.8860679236350762 -0.09704321613484963
v 0.21736509672325605 0.7970596215157758 -0.10154540612162447
v 0.32248827694448917 0.6984951311630961 -0.09865922626075176
v 0.5630823508625957 0.45450635984422566 -0.1031947906272829
v 0.4489769587372753 0.5562027582529027 -0.10188645394397806
v 0.22693299566047537 0.7852982840700311 -0.1032110353308736
v 0.46915533365659823 0.5403042194192356 -0.10178194688540446
v 0.016660625926872747 0.7938556837784139 -0.012614113770384402
v 0.012906834534884289 0.4953843335281642 0.10750306476193322
v 0.3894626795938613 0.6241129405843978 -0.09715824519603702
v 0.3300612487090434 0.3842568986529361 0.02136315422459042
v 0.012965848623119358 0.4684725256155054 0.11384046692454829
v 0.19046874415218484 0.8205804662542232 -0.10345798023443793
v 0.3944402093864652 0.6158723958261261 -0.09800540393910859
v 0.24437999492442097 0.7736242531836942 -0.09683749227009741
v 0.014032011166267 0.8596582917966835 -0.04242569748796421
v 0.577173888803126 0.4416281977176964 -0.10412564734373575
v 0.11532419341781151 0.38830460662493715 0.1019979190182752
v 0.01501640997497586 0.7292378695955304 0.008017617849140932
v 0.4532635648565086 0.5556854284407201 -0.10366760225932062
v 0.168569487671788 0.8482582387731382 -0.10108076823880714
v 0.04041043823693408 0.38538051948609003 0.13293971612208436
v 0.010825161797605821 0.91824107741865 -0.06962551892882442
v 0.4426873504431924 0.5771714568046652 -0.10272150665894916
v 0.009585006152455867 0.45619801350435263 0.11792422590694251
v 0.48424546769497573 0.3848268492249939 -0.04918499991634515
v 0.23371355826239595 0.7841880036543989 -0.10283296641294581
v 0.4283474029489301 0.5801516288408661 -0.10376873835243439
v 0.4485331471798647 0.5654283225734225 -0.1023094631756524
v 0.2591986388883607 0.7613069978790333 -0.10045078553611766
v 0.016305741467187992 0.6514389874808265 0.0391124190479329
v 0.265873082966457 0.3873567288779328 0.048636765856792746
v 0.5151854462237347 0.5017945296867246 -0.10353521693948292
v 0.6014423245152056 0.4108166076440561 -0.1036021464532294
v 0.5531559253941956 0.4711883813230673 -0.10225621519823269
v 0.06840922376453248 0.3884255853012777 0.1280424428130418
v 0.30169403386998384 0.7099625519366315 -0.09822826413164562
v 0.41087535325995894 0.6060854535209985 -0.0951201982905677
v 0.4953016509320286 0.3863451857711499 -0.04061209735279962
v 0.010518357481667852 0.526672377416938 0.09826792547868095
v 0.008656577513563024 0.4400748229891726 0.1252102006417812
v 0.010682971776151306 0.6922958127513642 0.02578751193377388
v 0.36689057981817047 0.6565372123126615 -0.0969281465913693
v 0.010434148295202133 0.586622995448286 0.07334812355799597
v 0.004338110190327429 0.48237051727154195 0.10764805860821204
v 0.36149760526329117 0.3836399805836167 0.0019421949804120232
v 0.5111985322655002 0.38161895431280857 -0.05290273403552788
v 0.010946378310518949 0.5979362438822359 0.06641481126153526
v 0.5258704973453033 0.38222889291836426 -0.05834364827850028
v 0.012320549775751987 0.5284974491384824 0.09059198012818412
v 0.021736142196805107 0.9031339004055543 -0.06480061497931373
v 0.011992049212236677 0.42351987575352523 0.13528869091309528
v 0.1111964329807334 0.9082226822368451 -0.0981791633278909
v 0.34963315294644576 0.6690066548732462 -0.10329624777259587
v 0.2630125612345275 0.7434635468339014 -0.10254563984139285
v 0.5618367566681374 0.4539276677185826 -0.10604745023915853
v 0.20393453965394814 0.3823787857588402 0.06668268682721362
v 0.5522264294368123 0.4604181967700373 -0.10761402376046575
v 0.015426384938855038 0.7788328575558932 -0.002332764935774649
v 0.39365587241012245 0.38397582965547805 -0.002539594848545527
v 0.2560662566172907 0.7576053273768885 -0.09790735238583739
v 0.5271153486677375 0.4891801530133401 -0.09802764162406505
v 0.25828417588698965 0.38451586425011475 0.05001712109838604
v 0.15455228305345117 0.8585775240247024 -0.10063988264812575
v 0.015138020257160061 0.9430296063371436 -0.06996721531202552
v 0.07572710792507507 0.9384345804067229 -0.09677846400382585
v 0.5136277742095572 0.5027130475211273 -0.10040011279280302
v 0.4139982708011819 0.6074261885159685 -0.1037733186371374
v 0.005361406572325385 0.7010907387312357 0.025089102168897138
v 0.5838301507973114 0.3846059395879427 -0.08306850144971817
v 0.47899295766109307 0.5345116688156212 -0.10119898360679651
v 0.37019947688526667 0.641419905873755 -0.09977415255719448
v 0.4164482260679687 0.6047761532106722 -0.10016690250969704
v 0.1677275080663223 0.39117178574040035 0.08090351103804805
v -0.4727219693742052 0.5193969705963821 -0.09662347194162384
v -0.23487438805954042 0.7499831387532048 -0.0964712724980294
v -0.5673861556839572 0.10429238557565187 0.04025074354203571
v -0.7916052524422625 0.2135457241458934 -0.09750977514771882
v -0.343474741351318 0.6385326446655518 -0.10027330001920783
v 0.011034016063496799 0.49409949292798283 0.10479394025578626
v -0.07494106003219696 0.317048076362419 0.1501322948410015
v -0.6946015860201177 0.09855032670838604 -0.012452877740263855
v 0.017952515969641206 0.7063699952143472 0.025047941517118793
v -0.6113454825429365 0.3839808488997614 -0.09679979612729922
v -0.1527261611145146 0.8316142274101206 -0.09357925702373487
v -0.0696144038758281 0.9142525815326602 -0.09884495341565715
v -0.0038667003404304397 0.38411154353186744 0.1456399746390166
v -0.5373034515034937 0.45322951347307056 -0.09714250217289994
v -0.7973029853543258 0.0959690777508634 -0.057086770289263455
v -0.7277884463996728 0.2670932767196242 -0.09261585337559748
v -0.3639435483326775 0.10710525377841483 0.11816220565462002
v -0.15113150796144717 0.2377402729071511 0.1450330070008531
v 0.014077196094741519 0.8606917997109044 -0.04073139204556805
v -0.2539500391667803 0.14760104405179225 0.148135446468342
v -0.29061468033046883 0.6885254628692156 -0.09749013001858399
v 0.01579775352084897 0.7752195580469066 -0.012494378924921876
v -0.6667230038427465 0.3360293679320667 -0.09478059341695474
v 0.014006889949385716 0.5580267084601837 0.0779891819661818
v -0.39889687080304426 0.5913822583637788 -0.10337815499729809
v -0.8611371092851694 0.13527483341093405 -0.0927518676110724
v -0.19058998671343477 0.797593212339211 -0.09688192438198664
v 0.01022330015465737 0.6479393902669203 0.04865715578171667
v 0.013123082240287614 0.9236298202818345 -0.05788703797520189
v -0.7519728598241638 0.09536478123680613 -0.03481255515179153
v -0.11633000797035926 0.863858046294054 -0.09883824441370481
v -0.039847803404674406 0.3459986710771974 0.144886907330466
v -0.4376075572561586 0.557087856323675 -0.09669631003687464
v -0.49586254432316673 0.49758221202036323 -0.09771691632698379
v -0.6200248323334624 0.1000876263115087 0.02581431715948192
v 0.007995843308467589 0.443111906981618 0.13066324602783505
v -0.8284911807354965 0.1684379708225438 -0.08837218173365499
v -0.4776618580861895 0.09806658661606206 0.0740032584035265
v -0.028259119823582535 0.953043047583095 -0.09731439731234291
v 0.014601456309976798 0.8120179650569664 -0.02472519952003474
v -0.3283499050402869 0.10666398403340017 0.1361384637645518
v 0.005084411266018411 0.5220321792106873 0.0888440354977323
v -0.2654971370257349 0.7232414376196387 -0.10144922133618814
v -0.4094634266357615 0.099250480459889 0.09968904427492202
v -0.08515413301140275 0.2976849571377991 0.1500786254448503
v -0.5829859867732378 0.09964033476095176 0.028781263447174077
v -0.22074458914376846 0.1677096805900762 0.14806208205177335
v -0.1891461049114913 0.20862476388941104 0.1476612108492254
v -0.6912230539854426 0.30019784392567533 -0.09625337199697932
v -0.6322826125182931 0.36643234667553903 -0.0951806979729135
v -0.509993495326113 0.10108533534413253 0.06081551411405866
v -0.10746977250396093 0.28204346654805007 0.1481887788345345
v 0.01191659752077386 0.7412253495019556 0.006190160020580371
v 0.01857311491859157 0.8960779102407396 -0.05142004932456905
v -0.376632571815293 0.6152894245510399 -0.10053727433870616
v -0.3250967943356436 0.6597715286950805 -0.09925086317934893
v 0.008899772138704597 0.5917663544364831 0.062176054294135044
v -0.155646198699842 0.8248938311407085 -0.09275089117935731
v -0.5715594220590535 0.4224817696185687 -0.09434678469049279
v -0.5138439666621832 0.4794611009649812 -0.09760487579764134
v -0.4702233047760136 0.5232458482302428 -0.09678812305836433
v -0.5350132903435495 0.4627198751760663 -0.0954133460214636
v 0.01303385410504026 0.6414069556104517 0.04461416431246753
v -0.4123818311475054 0.5843698689215232 -0.09299719606170741
v 0.011492811807668481 0.6796729020793868 0.03166708474412327
v 0.012259752711941355 0.48036376321046026 0.10887687441721809
v 0.01838416391011884 0.8331320891806823 -0.028083931071261052
v -0.21779213046558396 0.7733115959294142 -0.09709135343080436
v -0.8143732417763102 0.18649546302755454 -0.09406925511243781
v -0.041980355757904715 0.33826595461704206 0.14853377675594223
v -0.645147881775673 0.3544948826225434 -0.09309507915821708
v -0.09142647921001255 0.8967743715783211 -0.09182990415958811
v -0.7467056457755664 0.2490105913755371 -0.09182380061445218
v -0.6614162214257259 0.09971879680657997 -0.005419378003265264
v -0.13411108329745014 0.2534092386638405 0.14676487663861992
v -0.5996271047670103 0.39749750279912793 -0.09590864128433296
v -0.44427528161970287 0.09870487458459618 0.08285497114800136
v -0.3891585121844482 0.101498780046783 0.10517333460940445
v -0.3060142820907995 0.6722499715177342 -0.09773968656848922
v -0.4611880836664672 0.09890022390408137 0.08408524639997206
v -0.8281301999085402 0.09711878620066924 -0.06158905227941162
v -0.2612211318345536 0.13765663699634226 0.15043010814059757
v -0.09068603701160367 0.8937241726127308 -0.10186793302217381
v -0.6503021685837331 0.09733887742102622 0.010742523670380918
v 0.012704347437650693 0.8013009240555946 -0.025182047139374455
v 0.00539410649524538 0.6158097378046585 0.06474982704657711
v -0.21008397104367782 0.7769151668884892 -0.09638902010356613
v -0.4917721460172028 0.5032817451971077 -0.09728526557109628
v -0.7780950193569228 0.09920993453801487 -0.04018932479762526
v -0.7028448688109546 0.29320669188688847 -0.0922441616188715
v -0.17783196630320489 0.8155057977155296 -0.09010421205677435
v -0.5398306418533297 0.10074847189929598 0.05075528970633689
v -0.4333244355471944 0.10707206377475623 0.0912385641689724
v -0.015341793394818932 0.36464653851841317 0.15505012810301336
v -0.7766181613714267 0.22972881007118306 -0.09631589087700404
v 0.014712962569190326 0.7403373887965958 0.0017620961180790126
v 0.019025482124227014 0.9276408494264777 -0.06493186625853772
v -0.13625258076582827 0.8428690882789878 -0.09621783653168432
v -0.358252171886908 0.10521418141504689 0.1216829022245716
v -0.2759565196005977 0.1149166708654239 0.14330310531391668
v -0.05295639563279073 0.9297428282617561 -0.0981636654101044
v -0.2055826425721903 0.1927100649675942 0.14103953146785708
v -0.714289608271639 0.2806183768809405 -0.1046606809265829
v -0.6046099088180631 0.3806526196369796 -0.0967903319055886
v 0.00658648599011053 0.46770115152277614 0.12024280693287712
v -0.2736861750361915 0.7153834661711291 -0.0966801517060729
v 0.014791442669865096 0.691469696802354 0.026051172359386778
v -0.23655097924811308 0.14832053924294544 0.1492999316570135
v -0.07258736267100768 0.91582359905502 -0.09166365236163608
v -0.24301839677266637 0.7400846640054987 -0.09246870576344329
v 0.005177934289178371 0.4125985968261411 0.14042328616825844
v 0.013858876221811728 0.8368635993159242 -0.030571721785307975
v 0.013907459041164388 0.5487467552731637 0.08224589712496831
v -0.14938535877712558 0.24426984099565768 0.14800758403909878
v -0.5522718476432986 0.10008747582725078 0.04281333448501324
v -0.745009932912211 0.25381394894206666 -0.0965315341371376
v 0.010492774253988124 0.8742066830762009 -0.04936491115082495
v -0.6166342201501442 0.09977668013748908 0.014927771325821293
v -0.39307360954071185 0.5993722421229574 -0.09085244136504862
v -0.10530168314187227 0.8771069473468034 -0.09627846898402577
v -0.4888525178019215 0.09887898137295659 0.07312190132337182
v -0.7225766561123886 0.09438135813594334 -0.024283284531152215
v -0.2561876574297261 0.7384737293678275 -0.09644908671536542
v -0.30561494579512694 0.10555493872840187 0.14546352903029164
v -0.359631833946855 0.6314745871085646 -0.09406424046649178
v -0.6859907546954371 0.3072061487758556 -0.09551786753989068
v 0.005084796089200247 0.5868512240970765 0.0689057600423718
v -0.6767163412516419 0.10118034659269214 -0.0034908478442594523
v -0.7054391123445175 0.09810630273158742 -0.014716464503797547
v -0.335948349015158 0.10505210496944883 0.12602005563456636
v -0.05515533818182245 0.3346816661288313 0.14468608457868842
v -0.457668742971886 0.5346548341284292 -0.09628476957429373
v -0.20264137729054724 0.7835943288862202 -0.09423757172989156
v -0.7402419715254378 0.09587468321415504 -0.030555749305724637
v -0.37567597487138393 0.6156063069949816 -0.09426002720232644
v -0.7574508181106476 0.23283949858767056 -0.09753450120753179
v -0.44793835303905455 0.5486606433315903 -0.09847515216993466
v 0.0127784981299977 0.7201033994269829 0.015694321730944184
v 0.011343046979949077 0.6693852845309538 0.035792916005831454
v -0.5959940215825609 0.10256227636680273 0.02607792313884127
v -0.6341116831733681 0.09699213699574263 0.007775465399838657
v -0.835137975150907 0.1629620927356898 -0.09802266797482871
v -0.11761861040123923 0.860014806345572 -0.0976540006150641
v -0.560267308699464 0.43552543191174314 -0.10424629997286203
v -0.5224833809848707 0.474817344649991 -0.09152664158378815
v -0.7291019701944524 0.09703256523261942 -0.029922673366003027
v -0.5253065164600472 0.10146622311159964 0.054640658267203907
v -0.5682713339710608 0.10476296717153756 0.03841972352049363
v -0.2940271660285294 0.6906793825177341 -0.0969175023650453
v -0.3368611104892246 0.6505691313939381 -0.0996348613033329
v -0.8084036902884681 0.1875421648624313 -0.10009281372279757
v -0.1229110200896817 0.2671497165958297 0.1451198357464925
v -0.16430035513503527 0.2235385005879843 0.14889312126482673
v -0.5598351412863763 0.4328541022293936 -0.09894648445652644
v -0.1895253296963114 0.793983763108566 -0.0943059080273176
v -0.17190662958786282 0.21882423142862223 0.14799685417515113
v -0.4108714109041567 0.09895954334449947 0.09064267629968724
v -0.8052733444689009 0.09183736915199874 -0.05604450492340472
v 0.0069982307543357825 0.5281988904434824 0.09354967723250295
v -0.08315650818483805 0.8950696125104082 -0.09229321827407853
v -0.09099447255930025 0.29591671059924557 0.14895025958186334
v 0.010430525651618984 0.7120642543137896 0.01679638680799019
v -0.7061954744865047 0.29874557548541497 -0.09077204488001
v -0.14517125299795888 0.8420294251897584 -0.09299798244284323
v -0.39774763637603433 0.6017724776098256 -0.09306762965655097
v -0.5015416754711306 0.49055917876239896 -0.09223228869207094
v -0.02282667452507247 0.36221818624814184 0.147638688444669
v -0.47742348717352984 0.5143572320682487 -0.09717085041264971
v -0.42563681350814975 0.5711267212831307 -0.09585047904464233
v 0.009173318361429756 0.8539240447953209 -0.04040513921948927
v -0.24531849484397042 0.7454217706500506 -0.09896038675432046
v 0.01650563589928702 0.8836810267860591 -0.0457958469437305
v 0.017929829661325208 0.9453462386672118 -0.07602933366778478
v 0.004607306431432967 0.5053737024638653 0.10449424835728155
v -0.06836794781713919 0.9244976605369316 -0.09801984682617271
v -0.2037010983459704 0.18736213927628456 0.14535285617059687
v -0.7684632145065803 0.10394802130201608 -0.04424394665408481
v 0.016311149022216684 0.7905753663427822 -0.011315607487384369
v 0.009551210778533333 0.7569393447984053 -0.0009526253253240885
v -0.17763947322984297 0.8102614981796743 -0.09436723147029853
v -0.28249847667376765 0.11762154819489877 0.15140864026165687
v 0.004587464287510185 0.6826346733356442 0.030162227471490707
v 0.01635513385654113 0.8981380661096017 -0.05613209285254366
v -0.2280710107273974 0.7576841931405534 -0.09223730791941073
v -0.4193948126560429 0.10100264133533861 0.09567030052644722
v -0.8531707888172058 0.09113046755506846 -0.07693553843258182
v -0.8424430996279737 0.09422154095786278 -0.07193560685399447
v -0.6314709917753182 0.3631156976831486 -0.0973070767922698
v -0.06187575668039299 0.9152362505212283 -0.0995422119741743
v 0.01362044666251308 0.4016459148564511 0.13995810838039077
v -0.6832199577110655 0.3121233354939882 -0.0969511509849953
v -0.04421430586524527 0.9440888224815541 -0.09378208098909224
v -0.7160998502547998 0.28011092786188024 -0.09625677881119157
v -0.42446937763551856 0.09796686720225309 0.09162562703812806
v 0.012456383076716471 0.4337657666487108 0.12729802723220093
v 0.01198522043331029 0.5454489850745443 0.08778416103138297
v 0.014929145006059227 0.8366083209803973 -0.03138103614774644
v -0.10474652938055176 0.2812984824390958 0.1506438434427338
v 0.008426912138670993 0.6126753882384666 0.0593078448758064
v -0.031079566963010744 0.3481348004120758 0.14994334133256249
v -0.5576138049403687 0.09912919731585153 0.04472234551358453
v -0.15449080336144247 0.2434572522873468 0.1477967743345744
v -0.3459229687279093 0.6460887540406938 -0.09439186361702763
v -0.26851728261526225 0.12244881211624162 0.14182635835137858
v -0.5430335264257079 0.45252882867172284 -0.09696997126436696
v -0.36832193714346917 0.09987000125179883 0.11665558453445891
v -0.2789369962335041 0.7091974812738535 -0.09334425113565009
v 0.0064377629645173805 0.6487845625596972 0.04393594892545352
v -0.02937562494423509 0.949935794844454 -0.09643184101039015
v -0.726508399457765 0.09677174658196452 -0.023449577278886462
v -0.2685849936465043 0.13338281358411005 0.14667649379606565
v -0.7047718326924005 0.09727037328027079 -0.015250869075003521
v -0.10322640789124764 0.8782266518657927 -0.09853487071530471
v 0.009821375039651574 0.42842793139590285 0.13442881506582482
v -0.8760418262999431 0.12475634693030921 -0.09216684244996529
v -0.004775348660190189 0.37334590113743316 0.1511721387169893
v 0.01611567459873974 0.6938055706410832 0.023477993371140284
v -0.4456602071302666 0.5528558073248308 -0.09372819582852325
v -0.6513594501624306 0.34492088526935455 -0.09254468538543735
v -0.5133485064851586 0.10189415322565912 0.06203275931604707
v -0.3867225260247621 0.10096592656467004 0.1054472740942176
v -0.1665297409086157 0.22522673457025572 0.14883290333267402
v -0.6025227724765789 0.10203788085618017 0.02666271717557081
v -0.5117002079205616 0.09956220068945751 0.061857270359578755
v -0.7308749226751531 0.2704088643024836 -0.09963030136966859
v -0.7423934155506879 0.09781063911260536 -0.026534333028331584
v -0.38909150793422215 0.6051124540047147 -0.09744316587012568
v -0.048736011097127545 0.3380940251675773 0.14346049697290045
v -0.4932184997761658 0.5070959576671228 -0.10197118097621789
v -0.18158670181813358 0.21107084108341737 0.14230393961394777
v -0.6459185797120204 0.3472735174496513 -0.09032576008146889
v -0.4338788765437669 0.559637629393212 -0.0939133586172436
v -0.06300378578475432 0.9255958946394829 -0.09680113810959175
v -0.6681030653266457 0.32223530914220355 -0.10086711754459071
v -0.19982307171817942 0.20077019103072075 0.14361749293542897
v -0.8218828493267003 0.17831991362199484 -0.09483382055147388
v -0.1442309624802761 0.8426463751990948 -0.09732287344239873
v -0.5318509395689236 0.4675885932969233 -0.09606283051083196
v 0.011756493021967147 0.7044486820591689 0.022074924299596677
v -0.6694561507905736 0.09732948053069389 0.001576116413561026
v -0.37092259715229053 0.6247743654423326 -0.10052833675741629
v 0.010612746252195056 0.6132686673632173 0.05873830644811918
v -0.24030292696679445 0.1559149542857063 0.1467254173194488
v -0.7826114292966939 0.22386838354146651 -0.10158511460513459
v -0.8025844891697141 0.09753703193890723 -0.0482928666998805
v 0.015421696422919157 0.8646881269753718 -0.044555004665379296
v 0.009955834507280931 0.7292731101834445 0.011570894204039546
v -0.13881671343098487 0.2523061275393912 0.14643208899356122
v -0.06924996278313907 0.3162503339804194 0.15077812861531106
v -0.4920168620199803 0.09909644837726723 0.06695176126377769
v -0.32848525902771475 0.10775402900277557 0.13703977955248098
v -0.2562019182342345 0.1348390148251153 0.14938015870285243
v 0.012485541697003182 0.7696299457213788 -0.007049770577110015
v -0.3117351728494639 0.1071683166023096 0.14027289523333628
v -0.5071243663175752 0.4859445320972371 -0.09284032857963183
v -0.6430297466264048 0.10297023505174045 0.011533724829734839
v -0.1252099214703403 0.2652076923843036 0.14505073866913146
v -0.7320631240715177 0.2668606626067812 -0.09907379336968332
v -0.6703775231438811 0.09829967343272299 -0.0009590928604735701
v -0.5840645879905079 0.4160807344350146 -0.08797710340307853
v -0.18145379583601398 0.7985904195333406 -0.09280958758549408
v 0.015040603592504224 0.5669337385544431 0.07998029785788432
v -0.41142117657135974 0.5691002491763683 -0.09734650800467101
v -0.7999170419033358 0.20309221706988043 -0.09374650923379725
v -0.34140021627485667 0.6527552388922709 -0.09759621965954104
v 0.009728915056559435 0.7663110292803371 -0.00644675287668614
v 0.012331830858242878 0.5448748897627543 0.08526946667419708
v -0.08393008071822927 0.3049090987011844 0.14750377069833498
v 0.006108067830750879 0.5770913919353917 0.07246350845731159
v -0.8052212502173829 0.09129352559423527 -0.06283536738676278
v -0.21912829116656993 0.18654586861853203 0.14263453440920404
v -0.15858951385783926 0.824568846712149 -0.10049143044737627
v -0.5954005021140166 0.4056498468878416 -0.0937057755390105
v 0.016406811655393278 0.7814124773811498 -0.007968108841050354
v -0.5638167362117316 0.4289786612265904 -0.09754464348946938
v -0.03808692846007931 0.9410299646448538 -0.09688139961971895
v 0.02147842013888783 0.8204000317806467 -0.027504185588715143
v 0.008358580919460928 0.39005804228416113 0.14743398059298257
v -0.5549746271112759 0.10388023175363865 0.0404963733098157
v -0.12492364952444113 0.8631838078048956 -0.10001313084848991
v -0.15512408330573182 0.8257975728149618 -0.09327538170849718
v -0.27846201562010614 0.1215102892659027 0.1474877845322656
v -0.7789235456384525 0.2185254228234916 -0.09279652417524993
v -0.6738742390602093 0.32564907293820505 -0.09032086961295048
v -0.6043945642873896 0.39096878891213566 -0.0957716008841599
v -0.4359170428148909 0.5571597498760391 -0.09594496719186206
v -0.15601594201272942 0.831925608844798 -0.09134567663937315
v -0.20117976941918822 0.19269351470771062 0.14174831340079788
v -0.8267308460175333 0.09363510921613934 -0.0655541482881884
v -0.5356718913452225 0.09425999723166824 0.057504168320527585
v 0.5859530297001118 -0.1289669895001539 -0.09133871676311915
v -0.14475873977009976 -0.050352941380814954 0.13976380111470904
v 0.7358402339473941 -0.29823066565110956 -0.10043585908430121
v 0.17800363405664454 -0.3809349560611651 0.1450859378826368
v 0.4576569123669613 -0.008609834556098647 -0.10189486544722495
v 0.34694842321619623 -0.4015737129076531 0.0816074659025309
v -0.11314413203892817 0.1039320682370266 0.07535059413286117
v 0.010449390015317365 0.10131960202520485 0.02835640653366759
v -0.27787725181481304 0.10203135291590955 0.14295734641603713
v 0.666553533296892 -0.2191437482046071 -0.09476557189984261
v 0.37770909335110847 0.08494982612751151 -0.10599422512406838
v 0.09997345636342417 -0.2994985981562203 0.14578991832896784
v -0.2210920722582921 0.03224553450025974 0.14412885739972575
v 0.5258305606914068 -0.07216252093784546 -0.10140933670262936
v 0.7889442819451786 -0.35294585131043293 -0.09528057164433248
v 0.7183264580173764 -0.38405945418064813 -0.06110199803670423
v -0.024852917675168704 -0.1730498702971807 0.148459552161778
v 0.4203059667468452 0.03455665469284033 -0.10896830851575423
v 0.6040502501236407 -0.3874631728967702 -0.013606119210210372
v -0.22243150645095383 0.10939040824313402 0.11690217535132592
v 0.5051273324368073 -0.39552819987052934 0.02406760768781946
v 0.2295850034249442 -0.40262934682660495 0.13066435851776823
v -0.042032066574621614 0.10278119641277465 0.046343368322696935
v 0.49551539795894317 -0.04431450604252398 -0.1068020231549442
v 0.27364129871916076 0.10761752759308804 -0.08206993667927837
v -0.11618095223016524 -0.08435621968838487 0.14732056022389636
v 0.6119488216547426 -0.17174953526705192 -0.09781815740707706
v 0.008693676567014481 -0.20925989007502246 0.139848542991653
v 0.5442428842934484 -0.09502301804286539 -0.10513684454141384
v 0.12380180377082457 0.10743584545888375 -0.02031070162278468
v 0.5577138102178056 -0.1078788869516545 -0.09770131639438952
v 0.6731524605281818 -0.3857834465563289 -0.03510090225674406
v 0.6895261832546374 -0.24897977296529747 -0.09968215763694682
v 0.35608834846402265 -0.3998821447968319 0.07893398051825645
v 0.2961062154520833 -0.40267409469121507 0.10373709766203329
v 0.3021395501347421 0.10280038284961536 -0.08947576443254036
v 0.041307011317416376 0.10578997739325469 0.012787916963085167
v -0.14931905545074564 0.09605490531240445 0.09273234201948198
v -0.17865771493300894 -0.014775662556625971 0.1445330308239268
v 0.5702212031420457 -0.3955978822423165 -0.000176156815091278
v 0.22375428957545673 0.1013503861658639 -0.058213532179997765
v 0.4625258863806022 -0.3995925339023372 0.040594688168758615
v 0.06205172804438108 -0.2619977830568568 0.14257585341217427
v 0.3623322261542123 0.09640740367919566 -0.10564597613323878
v -0.07687881534544742 0.10245883736079202 0.05958473796225545
v 0.11323770525408794 -0.3192644464159033 0.1414775120369177
v 0.7538636903268148 -0.31282055202277853 -0.09072521830394478
v 0.12380030557866334 -0.3236336327064863 0.14740024190315987
v 0.16241769606264947 -0.3695968800046008 0.14322197055753336
v 0.39495384382371346 0.06494463002473162 -0.10427905118918862
v 0.2560775079688136 -0.40963134220800684 0.12265201105184724
v 0.38618822479121645 -0.39826617900087957 0.07234291465805609
v 0.585851994396935 -0.14359003986024374 -0.10750356804786151
v -0.0853144710309442 -0.11529415482086987 0.14393113087273027
v 0.6293078576654604 -0.18410218463218886 -0.1018426249016522
v 0.15909466823457896 0.10049298256525614 -0.03224720723485569
v 0.7127529502662222 -0.27573582913645667 -0.09235042390689564
v 0.6828694384929067 -0.24358394018104074 -0.10044555389116692
v -0.11447957949908032 0.10168779281256722 0.07603023308490943
v 0.314445385453017 0.09849495450649813 -0.09169765231026492
v -0.10690213435938599 -0.09654486186102659 0.14243709890156503
v 0.23875643321286893 0.10530652065091192 -0.06088944430311509
v -0.049555373850876924 -0.14541186489856403 0.14441701500118623
v 0.4795052737196634 -0.03182428736058622 -0.10361434022781904
v 0.5344415039630657 -0.3885351635496935 0.015737748776204263
v 0.4321244578947087 -0.39817602262026836 0.05291220544394501
v -0.008560635079441568 -0.18312679683733085 0.14761041123045207
v 0.32444494638293925 -0.4012509401255231 0.10102744233061386
v -0.17670933585905765 0.10003435594569549 0.10051137659621187
v 0.47354296681582964 -0.3925977874998469 0.04387468713454134
v 0.10423536736154336 0.1068762631415989 -0.004204920581252148
v 0.14123570658792975 -0.3439479835707172 0.1476436451177761
v -0.20588903987427445 0.0038416999239348926 0.14225661455421973
v 0.597946748394197 -0.15391868451076635 -0.10179481411274294
v 0.2171873778199644 -0.40482822442835287 0.1416224052909181
v 0.523147079888917 -0.0763668553955727 -0.10544091086349816
v -0.12299320817715037 -0.06394247429682492 0.14798650404097555
v 0.05829017608877118 0.10775705122250409 0.00812692961348321
v 0.4397627730099382 0.011420267046978827 -0.1070591014812497
v 0.40965728753533415 -0.3966574402184694 0.06658159902887936
v 0.566200764748092 -0.11525536519590238 -0.1026610295741183
v -0.2603046733915869 0.07414161545480918 0.14640257864809675
v -0.03355373306696226 0.10377958604371375 0.04268075032825953
v -0.08510245123260693 0.10218715941813587 0.06262767009932046
v 0.01426265001022251 -0.2158822482359382 0.14621062127030998
v 0.7620593970913034 -0.37556261151500536 -0.07514017017638218
v 0.6629260595443146 -0.22666889249141334 -0.09675873686212871
v 0.6128515104471118 -0.16722948773910834 -0.09940948401620259
v 0.3280377413458998 0.09733534159247005 -0.09470827483525557
v -0.24080746787531285 0.052727100967569496 0.14471160785589166
v 0.4945267891157466 -0.3940096570221109 0.03435552083860406
v 0.5820116675143998 -0.38800499316254244 -0.003303819753952953
v 0.5047450140517601 -0.05931971488578696 -0.1032240610609264
v 0.03647742030931266 -0.2421893109042769 0.143555386807455
v -0.21996418302934986 0.0974292775668677 0.11891958327846423
v -0.15529009830564108 -0.033355042412734105 0.14676134605656824
v 0.05859399699154995 -0.26313608888953266 0.14829954375925533
v 0.26965238700399663 -0.4016686337497704 0.11270388011327356
v 0.6458624871689318 -0.38235292576824514 -0.030238361570195854
v 0.757980476400818 -0.31886834528462626 -0.09715771263346727
v 0.7370368400342905 -0.2923598453299273 -0.1005649994588221
v 0.46208843746968914 -0.014336537722754821 -0.10567807846329386
v 0.18816915787747585 -0.395378134458699 0.14228981626568926
v -0.06676886650011969 -0.1269637045339934 0.14228102247653018
v -0.04112242486511923 -0.15466007592738218 0.14448380625754076
v 0.1402466834885505 -0.33914300270611425 0.14510430213985526
v 0.37981747716427017 -0.4025483419182867 0.07034961517643727
v -0.19870926609988157 0.10602616801552686 0.11009421024435134
v 0.07570091590877157 -0.2857127580534997 0.14597436086298937
v 0.553867857296132 -0.3951754670665924 -0.0004942248157725742
v -0.2209146098928808 0.03282108323710852 0.14567896068633493
v 0.37731470544121976 0.07371941331659049 -0.11048377308532065
v 0.34832455654451266 -0.3999620908938692 0.0906107060540447
v -0.13847906167878182 -0.059748032044744506 0.15305436121615063
v -0.003978339213763602 0.1005196160986493 0.03239429793351267
v 0.1056625108330658 0.10727506060082488 -0.007672532372412536
v 0.7691076012399797 -0.33011731312313297 -0.09827132955565183
v 0.4745681473003857 -0.0197261453455826 -0.10392005647144985
v 0.2391809056388009 -0.40592068048894187 0.12824088688446875
v 0.5467681874820001 -0.0968958595732764 -0.10096737536440074
v -0.08614041533737912 -0.10843042977141604 0.1415632866710225
v 0.034971555915115256 0.10573826423456517 0.019585130253406347
v 0.27962343568034037 -0.40397151780171725 0.11000581949526905
v 0.28928961911097023 -0.40344718622012177 0.10100979392713594
v 0.6589737512908711 -0.2150664472647528 -0.09728182142777637
v -0.1931022847448032 -0.008271349816176807 0.14434583760724304
v 0.6394493935903691 -0.19803045482113601 -0.0998798472347926
v -0.0004295193758102327 -0.20066889967389845 0.14055767189141716
v 0.02588658252077928 -0.23039615223787632 0.14584939475625017
v 0.42723958222930897 0.027459797577900895 -0.11045964934012206
v 0.619926772320405 -0.3827352626103878 -0.01514075169885688
v 0.38451601176188666 0.06558583146759565 -0.10695625512486008
v 0.0822384961224906 0.10217873565020247 -0.001774467901222859
v 0.1773018977504776 0.10033878724634264 -0.044707169173060085
v 0.12141135507225295 -0.32487797734739626 0.1486055400910963
v 0.33452061051417525 0.1010247035676432 -0.09983229565940235
v -0.17555799862999763 0.09640404369560843 0.0983540826708896
v 0.5549515871908078 -0.10263484647630296 -0.10704157610757893
v 0.4032647272427929 0.05659138045845616 -0.10990407130563562
v -0.020211120001218292 0.10042490455251327 0.04166574318291582
v 0.1613829769229162 -0.36948152406562235 0.14545173446504303
v 0.4906617504420413 -0.03663267330147014 -0.10325278064933367
v 0.2034295748049672 0.0982253732172868 -0.05395094273178781
v 0.33836470036416627 0.1070111066041131 -0.10238025669048709
v 0.589286458938744 -0.3882659334544086 -0.008917948316129241
v 0.6239850550607888 -0.38900409023605365 -0.01902313774041726
v 0.10390310086683294 -0.30652414659911426 0.14837024696216652
v -0.050367666567937626 0.10557439304665284 0.050577932725432456
v -0.03857078383693713 -0.15852363886956455 0.14767250503561427
v 0.15234262577735444 -0.3589146757135916 0.14226230342466287
v 0.482510408237858 -0.3968703953463878 0.04182574191246964
v 0.7233614535294438 -0.382889022757467 -0.055930341375116856
v 0.2620216190613687 0.10219099441171364 -0.06988540656809733
v 0.5204053834405 -0.3977449043641356 0.01978584218606611
v 0.4186408724139719 -0.40033537691975235 0.054746405693089466
v -0.11659464225329257 -0.07712930045019588 0.14462189951656299
v 0.6811403527703763 -0.24020644823143064 -0.09384392490991174
v 0.019160839984008124 0.10990040040053604 0.025877679003150748
v -0.16960365590827897 -0.01969247124006714 0.14516239407055448
v 0.5189653944766118 -0.07054137962336106 -0.10229429894050386
v 0.37104674861059644 -0.40233637886092016 0.08112372106037878
v -0.2011279554099353 0.10102581520188893 0.10868352107014888
v 0.4387508475471454 -0.39373042291057114 0.055055522723377534
v 0.7067972477083088 -0.2732050440815324 -0.09435688332056642
v -0.02109911540528177 -0.17476834922730272 0.13984298686490787
v 0.2311342392384422 0.10285725198889031 -0.06072727957514116
v 0.45681224677795257 0.0031705172768566508 -0.10410343252625093
v 0.7809545162767831 -0.3799826130073567 -0.08701758499332252
v 0.611390962967576 -0.1673252281728508 -0.09445793453521718
v 0.5887956926698198 -0.14227748232137055 -0.10220286561418546
v -0.2690936702506341 0.08057469096698562 0.14520392045137911
v 0.08834620750870685 -0.2862662455133044 0.14449400923547298
v 0.375752170415759 -0.3971332804735911 0.07448689534959003
v 0.7264589132976197 -0.2952277628170551 -0.09130594862712588
v -0.058671450342586265 -0.14365449944982037 0.14675339257818606
v 0.595685548803059 -0.3881020018648849 -0.013074724427626343
v 0.4726724941344387 -0.4007524739313121 0.03583134068671731
v 0.5702039616868695 -0.12385072329192182 -0.10272536126225747
v -0.19017423803488637 -0.006116255325283657 0.14638634966494854
v -0.07149267769332758 0.10492915558407101 0.06040872463589454
v 0.3679286145282023 0.08963612658870057 -0.1119666805165374
v 0.019423268286324926 -0.22371233222117917 0.1450659117436192
v 0.6907714874978327 -0.38172475642605636 -0.04113279778293146
v -0.12734171740859201 -0.060890213088124694 0.14371504331938223
v -0.1099303361929437 0.1089387071937954 0.07192396547263244
v -0.08167120251746206 -0.12007040679728634 0.14387468946869372
v 0.5806417825987241 -0.13018123991728447 -0.09725492968347664
v 0.5257031805134795 -0.0812354742379075 -0.10100796942158045
v 0.7217480531241057 -0.2888097295505838 -0.10593720211084699
v 0.631831949858062 -0.18613490275807656 -0.10005379729893685
v -0.09560929621837298 -0.10417603524765699 0.14724077386401316
v -0.2089661912835674 0.01718895850820172 0.1411671823242405
v -0.1320715100865226 0.1032263084001774 0.08659733672892363
v 0.3312807563722648 -0.40190899423101034 0.09131834420623744
v 0.5326422986338244 -0.09198957995907588 -0.10286623705825074
v 0.5955481111250374 -0.14534164627434926 -0.10250186378467077
v 0.7352947002313867 -0.3801270657728728 -0.06865631317979112
v -0.09637428654210307 0.10602921242447123 0.07142921654932133
v 0.3137911479210043 0.10128340532500639 -0.09584498227188477
v 0.04260615666201658 -0.24551667914272643 0.1468840593124897
v -0.14363589859261228 -0.061813648775930284 0.13953974958843568
v -0.06120075333003199 -0.13422163408589335 0.14973879832750447
v -0.05873534011184898 0.10695518893775317 0.05576012880555372
v 0.0561330996209509 0.10620322134414324 0.0069728162160192925
v 0.2808679224811813 -0.40370522228863326 0.11355492216480151
v 0.6980968646378877 -0.2525938839846352 -0.0975057188353206
v 0.5424587005818052 -0.07875138202841485 -0.1018269788679952
v 0.05974535856260463 -0.2637782633116722 0.14295457442371334
v 0.16912818089413675 -0.37681334482497236 0.14290975953331642
v -0.017126223424511856 -0.1844839601080821 0.14232961569528957
v 0.6666818154940758 -0.22118867253660862 -0.10403385633019599
v 0.5067184275738019 -0.39190715394389986 0.02327313660027541
v 0.4863738522952126 -0.031742574683250084 -0.10888439653967741
v 0.06813661806510321 0.09987403372848837 -0.00023964569399939606
v -0.03628971107171249 0.10123526677626721 0.049189578830694775
v 0.7152242884198508 -0.2759778636570697 -0.09830112844754026
v 0.08075685526262054 -0.2881747635371774 0.1433446351939534
v 0.04042749748096534 -0.24322980973276145 0.1462895494106855
v 0.25897911019784814 -0.40361105220363297 0.12273550360660111
v 0.666689360112875 -0.22859161358860505 -0.09656243376766503
v -0.15148147033059872 -0.040658442041426913 0.14843746115713613
v 0.31273096838235953 -0.403381003690479 0.1005804385043595
v 0.016268447387556603 0.10134959560635427 0.02853459948712531
v -0.07384849093113689 -0.12656689704767646 0.1472485904239283
v 0.38305918589762616 0.07240157869574018 -0.11033283603445988
v 0.5553684912098397 -0.10687487719215073 -0.10556994693947139
v 0.800418045732962 -0.3646521072336185 -0.08868449178790982
v 0.4524087451784509 0.008085095506148495 -0.09970237017363627
v 0.02242186096948612 0.10636861892531148 0.02228785600729078
v 0.09354689304448977 0.10245347407068137 -0.0002498683817735879
v -0.24069843244117684 0.10430093468970886 0.12314295148248977
v 0.7495028150693849 -0.3095511767212785 -0.09602514363739506
v 0.0570683852168317 0.10095542195008063 0.006013553709910155
v 0.6936562149526778 -0.2432163078487519 -0.10175448886097962
v 0.1830340362121015 -0.3861949320779667 0.1443015700616475
v 0.5041089942493209 -0.0532954749107324 -0.10315655213782493
v -0.1693586839776163 0.1012569413535172 0.0952823003556723
v -0.2602782156800748 0.0998861230481943 0.13514390904266374
v 0.39321219542833896 -0.3958988090264231 0.06504797262185082
v -0.11484858086928955 0.10135607684443182 0.0742876601819245
v 0.07443661028788974 -0.2755644355112373 0.14295000281726908
v 0.23600147814750225 -0.40942255894867197 0.12696336816412557
v 0.5067270543812793 -0.3915680706937634 0.02027718030506549
v 0.06887400480351488 -0.2706007557732095 0.13994900504563076
v 0.728660251980639 -0.291863494177494 -0.09841893779695862
v 0.3014196448873703 0.1051308342737275 -0.09135931495913409
v -0.0946715407039862 -0.10689196445785873 0.14514329279564384
v 0.7778645028578376 -0.33943273682377995 -0.0971160930111896
v 0.7058803538681272 -0.2615109294513446 -0.09250810682715425
v 0.48363115374223953 -0.03336865936876936 -0.10249264534642788
v 0.042602805496775385 0.10040794949723385 0.012884362499508126
v 0.3538679676993864 -0.4066174763321662 0.08717303238137251
v 0.730197111603052 -0.28270124529088453 -0.09947072667098412
v -0.19279561171786055 -9.788818009707698e-05 0.14964393620971975
v -0.15390984229258498 0.10319864470467877 0.08163047182033681
v 0.43189281559788895 0.027592005832142878 -0.11043400520780589
v -0.21656759676881285 0.019797769312319788 0.14453464689479736
v -0.058910711573082766 -0.13341108116756817 0.14804567841575522
v 0.3318642023574497 0.10296237021033428 -0.09741237488352493
v 0.2551951832958259 -0.4040485750487365 0.12140636132664066
v 0.1775636196348894 -0.9924310659747014 -0.08800648038926402
v -0.8774968916659346 0.06223051430698948 -0.09340866583202997
v -0.422327342982022 0.10282960958026752 0.09458436813527926
v -0.12965254424772796 -0.7115272948809354 -0.09702492006028444
v -0.5874304923560545 -0.23343169910895464 -0.09776321841571627
v -0.40147233239248115 -0.4185352277523459 -0.0928194020625182
v -0.2681113742915579 -0.5641884649998329 -0.09437610380294417
v 0.04554500784480709 -0.881335170117743 -0.09447182717126532
v -0.7071043957323137 -0.1146129140372675 -0.0947127318722611
v -0.490379446874422 -0.33457135700812624 -0.09723456285797398
v -0.7965591631095551 -0.022289243338870574 -0.09172518028295909
v -0.09733119647093713 -0.10240030815231521 0.14569961254449754
v -0.1980207248861725 -0.6353651520661879 -0.09642602905982489
v -0.3383782104070608 -0.4902153262252469 -0.09556592525772144
v 0.17887794786499164 -0.877150225681027 -0.04288277049397998
v 0.0382323950907888 -0.2367887606620836 0.14620120832860609
v -0.6502083216084844 -0.17100520194112168 -0.09962589406052709
v 0.10504603762868718 -0.950042095670086 -0.0998897661881485
v -0.35463075033715036 0.10355175725947376 0.12736455901261562
v -0.632478576266018 0.09717103713622605 0.01288220559627094
v -0.5385951169160955 -0.2800850875937187 -0.09658288919432624
v -0.7468478585308946 -0.06819314653256676 -0.09685789196193739
v -0.45722567187886126 -0.3691870218070925 -0.09648218353607199
v -0.23444249070511516 0.04414298308709149 0.14955603736003112
v -0.07258599456088617 -0.759458073603042 -0.09472196313893029
v -0.014496308723882348 -0.820068959259736 -0.10149053549793625
v -0.19338892229592772 0.001563421685823443 0.14948533747030956
v 0.13479251663180275 -0.338224441938793 0.14734826476664134
v -0.5412429233430522 0.10580725917430146 0.04531490287005857
v 0.20095766208873633 -0.4515888686987241 0.12803434198113806
v 0.19403211664920356 -0.5505137720304918 0.09039041885784345
v -0.8324643223939472 0.01657717500916133 -0.09156768202634326
v 0.07149057438395968 -0.274239114882554 0.14935609514963205
v -0.14288447785839584 -0.04830306031224516 0.14240403181707667
v -0.16298759320805878 -0.6736905507467897 -0.09406816477145112
v -0.2515826622781619 -0.5881492156691814 -0.09703695736963283
v -0.057683546719568504 -0.1363121356276702 0.1419733863228783
v 0.1739139959822748 -0.9363786614220642 -0.06645847376641782
v -0.2998645378430573 -0.530126052324587 -0.09695894464875947
v -0.7504434887038812 -0.06539503344916477 -0.09350202161636693
v -0.37369619845776614 -0.4549135388954051 -0.09372989248235788
v -0.5079021653348376 -0.3191717600285328 -0.09664514560198682
v -0.7392566622417243 0.09529130398383007 -0.030270436075867588
v -0.627810251559834 -0.1979987661006155 -0.10021223906008771
v 0.18552113250976168 -0.8174095830891241 -0.019230123626246466
v 0.000396045528905042 -0.197369465581324 0.14225840750603952
v 0.1917042910547933 -0.6578220674447386 0.046157075594788446
v -0.838434104152394 0.09663764342271697 -0.0666362016310429
v 0.19779374844455566 -0.5192055596435864 0.09977766337985805
v -0.6718562961610214 -0.1434409518243004 -0.09921322664570105
v -0.20632346061183124 0.010451321825424903 0.1444318135552328
v 0.07784674224220342 -0.9143727314774943 -0.10060365502190012
v -0.8241981046883944 0.006382466801325839 -0.09508097005659803
v -0.6798067701858539 0.09456928304352848 -0.006813530927983782
v -0.05163337326935373 -0.7892673216917848 -0.0911828953461772
v -0.10688944230858659 -0.7237660733632719 -0.09414953856085671
v -0.4194751686602495 -0.4121825776299217 -0.091975624328463
v -0.3856166079533045 0.10508283563540263 0.11210770944761221
v -0.4490218348611142 0.09442891261587398 0.08429431951360049
v -0.17619358599130622 -0.027012288168145115 0.1430820833917587
v -0.2632803717403467 0.07466717973839058 0.14830320895298382
v 0.16524927001317738 -0.37029803088298113 0.14993672935497943
v 0.0990916968550022 -0.2981800035014447 0.14114507692204864
v 0.13824385588304042 -0.98137538767141 -0.0936829780272207
v -0.48303984301327035 -0.3433328258260082 -0.09515375455537516
v -0.5677007223696414 -0.255064035298592 -0.09822879848576965
v -0.3151998223122167 0.10171301108567402 0.1407795782315987
v 0.19777470944024145 -0.5819674059766596 0.08184790024264085
v -0.6070684728476169 -0.20744934596715472 -0.09787183349108244
v -0.7234575012411152 -0.08730988965558009 -0.09743910369072821
v 0.1899003465013567 -0.7303288835155313 0.018872250631650284
v -0.6034143453921251 0.10168737742522817 0.02576451101648257
v -0.8486263002768895 0.03241517322402998 -0.09954924152015808
v 0.027047180113381062 -0.8589173181321963 -0.09624953267957471
v 0.19753270360746877 -0.4799541613274739 0.11919012667218969
v -0.890636538101516 0.09100931126609983 -0.08626686694875914
v 0.18848221220872324 -0.7852531822775676 -0.008124047104038492
v -0.22624013163266782 -0.6107948526357988 -0.09641816380070603
v -0.12369826297133298 -0.07406983339354813 0.146500907083139
v -0.01264427890308376 -0.8162756340763438 -0.09193211141121285
v -0.43180228361984124 -0.3929554089528449 -0.09803721347322454
v -0.27927818585221026 -0.551940087108271 -0.09606089809699118
v -0.13311089742103305 -0.7039688357278283 -0.0999433660001332
v -0.21629349278089444 0.017700729116306727 0.1474394215007618
v -0.036425962932846626 -0.16557047326533444 0.1406588015965237
v -0.7624280007886354 -0.056357578733668166 -0.09439630361961762
v -0.21436617184604137 -0.6202474868011553 -0.09812472453340206
v -0.47533911897156106 -0.3435189361345866 -0.09576719677965939
v 0.053522622836549544 -0.8943597809174413 -0.1028534425987756
v -0.7809203773109983 -0.03255591243631014 -0.09726033605463233
v -0.38608502585982285 -0.4309247237634277 -0.09458596772689669
v 0.10109395693477714 -0.9442645254626024 -0.10226615638342425
v -0.7741748645133706 0.10052562737277138 -0.03353020016612227
v 0.17831697941794863 -0.8435863267935757 -0.026734364133636175
v 0.002375055932934228 -0.20313860997000113 0.1437399670412612
v 0.1927701471761843 -0.6414476056104129 0.05201336926733736
v 0.178590251591672 -0.9658226538826938 -0.0770688096123412
v -0.13973594500687572 -0.06075312293085757 0.1451720872034252
v -0.5883105728638685 -0.23813024185502077 -0.09197351311078303
v -0.6898527256565881 -0.12166530719457687 -0.09658747326518878
v -0.30879623478258694 -0.5130458023095876 -0.10037903971192093
v -0.1004016304480632 -0.7388005568205853 -0.09846094082221976
v 0.05169073130770984 -0.25706546186265017 0.1490290231224205
v -0.15714939641215128 -0.6791714252805905 -0.09685365614763725
v -0.5271463171166966 0.10494511642092237 0.06054662912804663
v -0.2903135129275047 -0.5498864899343013 -0.09812140741244073
v 0.1861825231749367 -0.6917541380329854 0.030707844791961373
v -0.8086946455577766 0.1000473566323674 -0.05663056602180337
v -0.16178923359083341 -0.03820682793869099 0.14443374682199647
v -0.42462401611522066 0.10244803117434721 0.0988741614249696
v 0.19729182404827103 -0.5477019029085048 0.08965625651552436
v -0.05905396390059149 -0.7786706843785978 -0.09600473425177036
v -0.5508228803855163 -0.27255516177814254 -0.10050132813340348
v 0.0812730323471127 -0.27948257986823877 0.1437012831271347
v 0.19627648807744583 -0.399054494266159 0.14182268215877464
v -0.7197567744223248 0.09853453361217591 -0.01974642911037893
v -0.6420323960369515 -0.1796449877908666 -0.09253806551007135
v -0.3582336505024789 -0.4726316653890891 -0.09567836903994008
v -0.0791032000868713 -0.12132477489115875 0.14663719071709214
v -0.49579587486259463 -0.331223716765824 -0.09338404004931823
v -0.6412091141462016 0.09904879643856719 0.010814120076345616
v -0.169184434883055 -0.6594362552566755 -0.09223327025392702
v -0.5203343180595195 -0.30832076062286173 -0.09365587079299523
v -0.3856555395004833 -0.44083462421613745 -0.09446715820423413
v 0.1957800631408875 -0.4361586013045669 0.13650077841293634
v -0.5773619927922777 0.09689698038267268 0.040145076643277225
v 0.10413260689294014 -0.3111347572035996 0.13868908460854018
v 0.12094009666993961 -0.3251236902037492 0.14445711597924213
v -0.3559845054759209 -0.46538769339751623 -0.10100701649361907
v 0.1838813106793196 -0.794923993160374 -0.006539634711311867
v 0.001910162449746313 -0.8450843854730277 -0.09979996718759422
v 0.19678625267005193 -0.5965054968551081 0.06567569805965745
v -0.2161585293038806 0.030200078496884386 0.14985591637864273
v -0.4944487276002433 0.09914800701022267 0.0690272483258141
v 0.030679071175104725 -0.23242743371182914 0.1448835314083687
v -0.8524463334463571 0.035144430809722446 -0.09374810050841331
v 0.1965064099828933 -0.5187534912951309 0.1042638730385983
v -0.2571150695045464 -0.5763286940276369 -0.09741105306198443
v 0.193169779173961 -0.6257502941320287 0.054551186241756276
v -0.10808000777940066 -0.0920874280665982 0.14376198649683014
v -0.5650597609821173 -0.2531003457789139 -0.09907047635685229
v -0.18635711848805067 -0.6504774332039474 -0.10091096669398089
v -0.5515050663282112 0.09612302458382166 0.043261423731008095
v -0.7146314776117827 0.09947316430548946 -0.017052432016066172
v -0.35668633385209253 0.10061580882144547 0.12402182448792602
v -0.23641420025168997 -0.5885093198150934 -0.0996433684367584
v -0.8613622798818054 0.1008782110593023 -0.08127034572134191
v 0.1278412850454772 -0.9595164179833032 -0.09582107766445724
v -0.6624520859786885 0.10285243830461487 0.003931794260576715
v -0.517682892692978 0.09728727775675967 0.0576399856261165
v -0.8043376911328884 -0.012992977192885839 -0.09572641413370266
v -0.25107197433854594 0.05458498209432463 0.14427172626886922
v -0.6345349881532839 -0.1923302500470825 -0.100687668998625
v 0.1858148812622046 -0.7570244858554849 0.0038852971767470326
v 0.1451744903722794 -0.35681440176258206 0.14639235003711834
v 0.19405381138034303 -0.5077748482539264 0.1061784488465208
v -0.0888583197681263 -0.1010756175922163 0.14458367341508593
v 0.08273653835245719 -0.9206733823860046 -0.09868607509910653
v -0.34446987427577436 -0.48455295852257835 -0.0975982854875772
v -0.6875064111876249 -0.13059354471884432 -0.09793984283099996
v 0.17795137736495728 -0.8099331848389206 -0.013595486880629292
v 0.17895972954595354 -0.8822739391129065 -0.037632592976068927
v 0.20046465106164993 -0.4682632199646408 0.12081349298116685
v -0.7141730552892125 -0.09508379922816265 -0.09562165222783595
v -0.1574521595850636 -0.04609745438083294 0.1487615858145806
v -0.1951188910714388 -0.0014387393085286467 0.146153839834379
v -0.5215253344219956 -0.29066601562534955 -0.09694476935083837
v -0.6670817091825999 -0.15214450397353232 -0.09021193374004155
v 0.013776942143520017 -0.21456549778382356 0.14658241410585537
v -0.14614166357662936 -0.6877114268490945 -0.09502258027858373
v -0.015706165345978726 -0.18182205462044546 0.13963228738107045
v -0.15999229048022529 -0.6681712347474537 -0.09998846980164562
v 0.05681307935951595 -0.9004293632127534 -0.09643420751579712
v -0.3166974216892828 -0.5192195284828564 -0.09881432996776968
v 0.15389211327039923 -0.3616931262354373 0.14967170011100966
v -0.039289597924698764 -0.16275938784316124 0.14129878306244148
v -0.3079814712260372 -0.5202216000982574 -0.0975601716031222
v 0.17674615246552933 -0.9338247272385998 -0.06699043059257921
v -0.24835281721273045 -0.588323444113059 -0.09921484747313014
v -0.4434814726857203 -0.38612478021063285 -0.09561099206574844
v 0.027906942791882855 -0.8645291968205265 -0.0922576352125686
v -0.7356672351041105 0.09339694483158914 -0.026913918672973894
v -0.6099092581430856 -0.214180634903832 -0.10168927528248403
v -0.4047388972728519 0.09608173755502175 0.10127103875160137
v -0.7463982155842735 -0.06906681891636239 -0.1012581251639836
v -0.2787054727046673 0.08034012580248795 0.1454906792342873
v -0.11103191160692008 -0.7190973834973639 -0.09879227416806524
v -0.4213279135209307 -0.402387857469862 -0.09441265320292953
v -0.04376471694272871 -0.15441581317401398 0.13729071945342508
v 0.06547081649838395 -0.2662983997055385 0.1459904266084428
v -0.016789879369689592 -0.18330364519276615 0.14222310059067728
v 0.1955905848293238 -0.5257642074571064 0.09593403273454723
v -0.6316015318634282 0.10182553124488211 0.010540180535209139
v -0.4739879561564633 0.1025232912698044 0.07238278625637747
v 0.18071777784624515 -0.38588115056727057 0.1425273858687096
v 0.20302020825410544 -0.4834091665964395 0.11483180210456925
v -0.35252143379055473 -0.477471035715985 -0.09566403247064037
v -0.6031531606902513 -0.21467483974293244 -0.09331044733565252
v -0.26294472967899224 -0.5600700152204299 -0.09519515063231697
v 0.2038689667933134 -0.4474502478472602 0.13209193700206576
v -0.45995468491108654 -0.36076373007909185 -0.09340908344419314
v -0.44252176981992 -0.3800760787784031 -0.09396942717207303
v 0.016486573025537653 -0.8487189582523766 -0.09458302658108617
v -0.6904289593201771 0.09385583224145683 -0.017627816629087523
v -0.681879088284005 -0.14037695032030229 -0.0922721263291004
v -0.5974327273127219 -0.21313594068186928 -0.09929364732759643
v -0.0009550226464769989 -0.8384972342151612 -0.09439899659138493
v -0.39660270568918826 -0.42382548624329597 -0.09392324239039208
v -0.7642034417858544 0.09497367259025684 -0.03453398654059848
v 0.17779477424053544 -0.8696398987835015 -0.04149162920186392
v 0.18897022598437868 -0.6754115392664254 0.03688184364820293
v 0.20319059763387035 -0.4295974880623945 0.1335856452184757
v -0.037060329072073926 -0.8143783690850803 -0.09565001112125819
v -0.31714061388278286 0.09916363612861837 0.1418197461618879
v 0.19257179763850485 -0.5965513553620562 0.06775790437444434
v -0.2186163755281104 -0.6121259025607225 -0.09368765933752737
v 0.1753891784059087 -0.9823669979900251 -0.08551778896808399
v 0.1902162038642884 -0.6993893741348399 0.030580541182523215
v -0.12668135686878837 -0.07498596073017769 0.14880550937089546
v 0.17661200799993856 -0.9432391698480408 -0.07258492311791682
v -0.8027819909826515 -0.010840674625852257 -0.09595354579214102
v -0.07146239730302692 -0.12381876133544188 0.1393746093562908
v 0.1898792176732346 -0.6554805850048979 0.04287807937006012
v -0.8145498308528251 0.09469728930578974 -0.055732036840510715
v 0.18956246001762686 -0.6044834638538149 0.06636452970381906
v 0.025892401356809043 -0.22338607993726492 0.1457961002291958
v 0.19248150748232698 -0.6291659357023529 0.06290820840040123
v 0.11409472406082198 -0.9597016893557289 -0.1004081083030558
v 0.11666497435765644 -0.32170541443289163 0.1430997371803854
v 0.08481466637431133 -0.2873735311960877 0.14800028223685008
v -0.22206571865691704 -0.6149515437286959 -0.09139627618026357
v -0.5755630115664878 -0.2438198288768624 -0.09661444970134604
v -0.43182048609138685 0.10046276818905472 0.09689122469248423
v -0.09719567180874657 -0.10767417115288586 0.1469301177294099
v -0.44993138769426677 0.10495608789869962 0.0853910168255758
v -0.04569847751353613 -0.7924889175585835 -0.09448235767597839
v -0.5246654710253227 -0.29340275989882547 -0.09639306798640834
v -0.6153814831822929 0.09952590231184949 0.024075860367396174
v -0.15418590071121674 -0.04963823782697016 0.14932412378934723
v -0.2931808782807999 0.09362400503618036 0.1459475130672214
v -0.36489908026841483 0.09937730004624137 0.11643755061997313
v 0.18387422247519883 -0.7562387459404061 0.005919623473743793
v -0.06264861195740172 -0.7755161985164694 -0.09480380768621874
v 0.17952470433810097 -0.38053694883795613 0.1459538335043105
v -0.8209339981851473 0.005886805211227142 -0.09228291223635601
v -0.2877335567786128 -0.5309069973094422 -0.09470105303025167
v -0.10875810203959506 -0.09283558713092745 0.14395036311267317
v 0.02028211956888382 -0.21480277345074444 0.14744350163654865
v -0.02806449096170893 -0.16991672213242595 0.14752579421740447
v -0.13700556168603897 -0.05761050040319888 0.14041717636740222
v -0.64467732144301 -0.17345034131044398 -0.0962594272029493
v -0.34365411045036054 0.10463751548105955 0.12952625337857454
v -0.7783748052358274 -0.039320582272824645 -0.09878045005312369
v -0.3791291166540719 -0.44173185733110715 -0.09403969741929136
v 0.031943809254019004 -0.23571805175265445 0.14652586176016552
v -0.7654880203778025 -0.048718348916075314 -0.09666355439606719
v 0.1950797514183542 -0.5583261660803504 0.08733724960591054
v -0.10052292679193287 -0.7397861987853448 -0.0983883268007869
v -0.35195804387700647 0.10529375803004887 0.119840568960732
v 0.06165830550096853 -0.26880919794565283 0.14307609295861287
v 0.04400317315030937 -0.8806007357913268 -0.09902683651236514
v -0.38458749469195386 0.104176074850684 0.11398372874423776
v -0.16657260249427566 -0.019703409812902712 0.14311977331783365
v -0.2063678133585776 -0.6273414677254855 -0.09310712866113247
v -0.5528498342766506 -0.27020551958792827 -0.09492390074989189
v -0.625468113106967 -0.19237548315497016 -0.09213124691588055
v -0.22543103071014736 -0.5982695085364601 -0.10150813877548702
v -0.5139764735286467 -0.31113275846292954 -0.09577777919184126
v 0.0889537428504781 -0.9353590472070762 -0.09418658662152171
v -0.4888067550968041 -0.3396193230687146 -0.09312977582799999
v 0.08992347674233224 -0.28503306016135893 0.13782268215712395
v -0.060847665124222274 -0.14132671531163782 0.14664715199950418
v -0.4875656100845616 -0.34260190758139697 -0.09760396363568155
v 0.198227661028626 -0.45235408017732504 0.12647469619571436
v -0.5775796203333852 0.10542229717406754 0.028944116378227025
v -0.1399408522164984 -0.702529603670445 -0.09293997016597927
v -0.042974024212125705 -0.7934890194754711 -0.09849328467034763
v -0.49055435191212543 0.10166855063894781 0.07141001117896777
v -0.4494130635976787 -0.38184523951322336 -0.09765795234875763
v 0.19550893724354992 -0.4948907103799154 0.11361863209599472
v -0.700592320832525 -0.11743032402482992 -0.09349735094159445
v -0.5995669283684731 0.09730545110677571 0.029693136919491145
v 0.09176457646642718 -0.9256251670816038 -0.09758750702638741
v -0.710333144721919 -0.10328859146600375 -0.09435586348388743
v -0.15920985873888915 -0.6837469855350093 -0.09822457412916107
v -0.0659854402103381 -0.1276919876266089 0.1446868069505523
v -0.5409622672681661 -0.2833326212212919 -0.09914221817837353
v -0.12199608676159844 -0.06744479217480825 0.14829243306067488
v -0.4538930677367746 -0.36957853928033885 -0.09177839411914193
v 0.07400977905385973 -0.2829548551990722 0.148221747377717
v 0.19126739268734497 -0.736991112660749 0.011581057097280448
v -0.1831534244758558 -0.01135966001786903 0.1435927421876851
v -0.40820762708401004 0.10826644274803876 0.10536331331556971
v -0.6136553052649787 -0.20715559090640318 -0.09403111332880425
v -0.32153155330317545 -0.5033806166325119 -0.09464796750245846
v -0.2523304281378898 -0.5677256489799588 -0.09625501666355739
v -0.6900401333405567 0.09626245206923024 -0.009120025549113654
v 0.07737183313337408 -0.282112779184985 0.14224986764432002
v 0.1901912067689129 -0.6739761077912612 0.043916807711906855
v -0.7850110310803338 -0.02931118918415908 -0.09408101268153614
v -0.8382472947375106 0.02753434500900458 -0.09756117302484553
v 0.1922037313705158 -0.6469375792766939 0.054434401866546286
v -0.08993767709839699 -0.7471366129658648 -0.09781843929017847
v 0.1906725365699214 -0.7051396118689731 0.030268850837519005
v -0.17993679737426044 -0.6455081721239683 -0.09811102648184428
v 0.17709544994923926 -0.8065248786661947 -0.012064137496943232
v -0.37803922168854576 -0.4448942548729645 -0.09687587054966502
v -0.5587636634041613 -0.2575745439973742 -0.09610739180516681
v -0.2337567526700523 0.0388690238071982 0.14547560443300028
v -0.6950302556898468 0.09677043752684242 -0.006188636855596487
v -0.3622015658431631 -0.46419362527485303 -0.09697242979763539
v 0.1267157519953723 -0.9685252661697153 -0.09692915656376505
v -0.3924669259003856 0.10260190137724781 0.11113127358502282
v -0.7279345797223387 -0.09166540776565606 -0.09017348090242937
v -0.22559907190867612 0.030731047515756487 0.15085164468182158
v -0.0459843996102755 -0.15167289067693926 0.1452707916125913
v -0.7978569382280909 0.09711227497331944 -0.048049720763943454
v -0.8139460521040718 0.09696565461211881 -0.059226538971294006
v -0.26959936322825867 0.0761333461608063 0.14083022509384144
v -0.08967590899497975 -0.1055913985222071 0.14376525712191923
v -0.23891511000996563 0.048601844012214075 0.14608314894744118
v -0.2677948632165306 -0.5653787667590741 -0.09100702757827465
v -0.20285040802225332 -0.6260775370213953 -0.09559160826905588
v -0.007044409830772168 -0.8300052959861324 -0.09835896366046475
v -0.42320659158999513 -0.40698184007319177 -0.09458384532746289
v 0.19670041105772038 -0.4848937623520783 0.11207333338505321
v 0.18967833840221 -0.6108723916250718 0.06879863279355565
v 0.18626606107951924 -0.8391874875049633 -0.020902352028899826
v 0.1893480663992389 -0.6525007725716361 0.047737338907515685
v -0.15138785436950694 -0.04565809214682635 0.14810562699265253
v -0.11086178421389906 -0.08566198343557951 0.1456441822517438
v -0.617556722904928 -0.20887966336929714 -0.0987566881511501
v -0.29998896906530653 -0.5296511609136042 -0.0954590327380609
v 0.006332673501420713 -0.1999969504797574 0.14363298806563718
v 0.07883312240772929 -0.9147727600032892 -0.09483062068771837
v -0.023879932190100053 -0.8122328704001262 -0.09287398842035392
v -0.36738486894886 0.09918966810591431 0.12109948642488624
v -0.26359083565250757 -0.5701579850489261 -0.0990331836389324
v -0.24295108942891777 -0.583540159472439 -0.09851425250981906
v -0.8179295251593194 0.09324790900047966 -0.06098998018928299
v -0.6685888107753359 -0.1518602032575647 -0.09623531297605187
v -0.47706245345637177 -0.3496615456921998 -0.09323808176066645
v -0.6560362868890809 -0.16914866635629372 -0.09527364409695477
v -0.25422824676404476 0.061775198129510156 0.1409555272261528
v -0.4565614223281772 0.09662922761158692 0.08266571524910608
v 0.1241818582885187 -0.9572839782281494 -0.0925537017371323
v 0.1835781359758153 -0.39266980254597056 0.14058413576126397
v -0.06224000114475161 -0.14109904427313327 0.14496002631131047
v -0.6999800667681955 -0.11548870953437076 -0.10298579774380374
v 0.13964424861948774 -0.35165658347809736 0.1424748045835607
v 0.09860634933004538 -0.3043119268222892 0.14734102065357596
v 0.18095198848954058 -0.9608164797430852 -0.06967572110114521
v 0.19977949469708434 -0.6597449926528991 0.04794038799747994
v -0.25257932536300753 0.058996927762876045 0.1450499583044042
v -0.008216662463810743 -0.19257143430447488 0.14720991669705505
