v 0.6736133409400586 0.27118144245959297 -0.008537246003932027
v 0.6323931444717049 0.25932004041741114 0.004089716721406936
v 0.5647937063488777 0.2298484398424049 0.02186765389025772
v 0.5023194660522252 0.20504473314375612 0.038778161087779824
v 0.4693950410120012 0.19025111204880873 0.04997458624040322
v 0.4147873034786756 0.17573432773774467 0.06248004173416291
v 0.3647575351493784 0.15060475097727366 0.0734328845379623
v 0.29811065872343934 0.1292042509697556 0.0959078412255563
v 0.23313215456675646 0.09939206999475027 0.11032558644789467
v 0.18509789956243755 0.08591931446829561 0.12213913405382978
v 0.12353217967102768 0.059867566252151096 0.13543377967202117
v 0.06619153898043943 0.03839787206044297 0.13934681384900743
v 0.6780037901484012 0.272733349380439 -0.009234085606231464
v 0.6255750010787777 0.258178950765676 0.010417985437973775
v 0.5698003608252235 0.23377030606225757 0.02060137847933119
v 0.5403104412444855 0.22308646181399505 0.02501371082891805
v 0.5052438411774715 0.2079711071145584 0.04096726097514974
v 0.45588244953098606 0.18591193849474522 0.05058650611423519
v 0.40582787347653143 0.16540340413843618 0.06507200264528734
v 0.3758417479265799 0.1578439022031595 0.07831689023059332
v 0.3356326251313688 0.1403850344553641 0.07801753546357398
v 0.28363785831613664 0.11994658130928487 0.09071889814101824
v 0.1923192590754628 0.08384027787235257 0.11432878416917482
v 0.15883274813098394 0.0741531502879165 0.1278393731505904
v 0.11111887806742504 0.054588888786225157 0.1367562540943502
v 0.11867781002289696 0.05608109609642381 0.1377178490474482
v 0.07319432077586784 0.04093453186671867 0.14744377764861438
v 0.031416791882250134 0.02229982526023175 0.1555970912898865
v 0.0420846799217833 0.028393849405539174 0.1545962900462587
v 0.12913300244501494 0.06071011229132412 0.13286499445119296
v 0.1495102383735313 0.06555138683090561 0.1276357913426299
v 0.1886684837283923 0.08776032902957964 0.12051664200437878
v 0.26791170238823925 0.11431244760741843 0.10372907719757109
v 0.30742408871241583 0.13465511674181202 0.08905865154634313
v 0.3749677733177561 0.1568229350697228 0.07010827331413781
v 0.38899713931210955 0.1633082990169542 0.06724824306726529
v 0.4561034012921315 0.1835129034476699 0.052507392478215564
v 0.5376495703830071 0.22196280143744854 0.029921329686316462
v 0.5803288321719953 0.23069568628369275 0.024250419607898928
v 0.6780896245807742 0.2708785730845018 -0.011148001931749543
v 0.06649027143853185 0.043690241003733615 0.14941275150528
v 0.23855556592278826 0.10796448258226744 0.1093215271715182
v 0.27800591974221905 0.11721520599053976 0.09787752381943503
v 0.32921862109348327 0.13421185251700268 0.08365901177977658
v 0.375613933203979 0.16258051309207552 0.07018333152093999
v 0.405198015052699 0.17111064044598637 0.07062960201429881
v 0.6883004342515574 0.28067943527070227 -0.0052142251475836175
v 0.8274047499408163 0.3327066496097374 -0.04137630416331857
v 0.782497654908596 0.3168368515410723 -0.03557327265321126
v 0.7542347805123124 0.30562321149940347 -0.026529614981610133
v 0.7141839019286594 0.2907167793957568 -0.01487329994011275
v 0.800578412589369 0.32524879624053005 -0.03713398726566691
v 0.80805257546718 0.32512257170108144 -0.03840148808320537
v 0.752263392488668 0.3018250373807035 -0.02094445443507197
v 0.7158289260971187 0.28994266707461414 -0.008825488930683752
v 0.7153457642881997 0.2874795108916352 -0.020505669664101736
v 0.7517012445653378 0.3001511783859127 -0.026455900523189295
v 0.7842919398234544 0.31597602609652103 -0.031184659282343884
v 0.817995469808785 0.3313996921851819 -0.0441701172162481
v 0.7064778792450954 0.29199434053820017 -0.016931830839124418
v 0.7451493467856489 0.30731368333058273 -0.021717628504693814
v 0.8396915876112421 0.3322684154433668 -0.04226248095084002
v 0.5171213792932359 0.5945002252682351 -0.0829986946399798
v 0.46688792943241086 0.6187749409969405 -0.07844840045771603
v 0.41609271298656986 0.6469536252965303 -0.07833407530664384
v 0.3401381451331686 0.6752053503062314 -0.07786908481087458
v 0.2908381077575374 0.6959619421293783 -0.07941151121370363
v 0.23769987869819387 0.7238508931446864 -0.08324277774184918
v 0.41368474057742916 0.6471340345149623 -0.07839225515374867
v 0.2955856407405224 0.6903152417842495 -0.07468322105105299
v 0.2347832145225369 0.715615792207057 -0.0774778406380837
v 0.2488537183852422 0.714918005026957 -0.07561876972809602
v 0.2825418479246678 0.70242527742307 -0.08029777701630103
v 0.3691089756499755 0.6603775333245537 -0.0818622365178754
v 0.4199597392439091 0.6380849653804028 -0.08816260150218275
v 0.4488594074709057 0.6204542015062009 -0.0781436988725191
v 0.48903467130219413 0.6139703870117722 -0.07939267941619867
v 0.2279745312144854 0.7263471248385063 -0.08177924442814537
v 0.28015041122699075 0.7029058470456221 -0.07965036894341658
v 0.5129356508608561 0.5994647543386272 -0.08276219492642362
v -0.023942373308248832 0.07505647154255751 0.1487165898471308
v -0.003911618535034219 0.0417333998218482 0.15645944762618752
v -0.031524975096311775 0.0970688327166949 0.14684291535428914
v -0.06990216264371596 0.20041324295596474 0.11574861295716851
v -0.061624181715152215 0.16595059408737547 0.1257522731432706
v -0.10937301797061981 0.2874354187940531 0.09428958408662337
v -0.09210420022280769 0.24968244862871208 0.10734942691307765
v -0.1393591776114178 0.35324747490629416 0.08303420330215289
v -0.11482865296396903 0.30356057334968545 0.09029774890583374
v -0.14341287287481372 0.36966059777633675 0.07792688458894087
v -0.020900685237402652 0.07453211994214706 0.1473699367911829
v -0.04021080633772367 0.11822482218984795 0.1439070636018463
v -0.03409052514010356 0.0998383599007822 0.1401337205411843
v -0.0456017356836627 0.1410483934775016 0.13407392167094995
v -0.07066790163079345 0.18984575919074365 0.12299422017055454
v -0.10496888044811219 0.277177198176089 0.10437463192692326
v -0.12353292416446943 0.3152193880312434 0.08839454723907308
v -0.1499460279765701 0.3949523992767421 0.06975931728833426
v -0.13565959824337523 0.3392614611401579 0.09082524930381734
v -0.10463246454636509 0.2782002024983011 0.0988493791453361
v -0.07864330511886197 0.21003828081968806 0.11925559247950415
v -0.05422226251060368 0.13152073007858817 0.13540596616619638
v -0.02508525701549296 0.08646183002154369 0.14280412615650911
v -0.14256635689646432 0.3781273613858166 0.07421750615082849
v -0.12321106468803567 0.3177643134032689 0.09181204021684664
v -0.0393063995108643 0.12113065169922689 0.14084767116646998
v 0.20071292716859288 0.732806947460073 -0.07463237808210835
v 0.17775833844171898 0.7520899679775832 -0.0754125006353141
v 0.11653982155021322 0.7785663964069479 -0.07608146145224176
v 0.07419146462194874 0.7916772402341506 -0.07609121517324235
v 0.04084969598445613 0.8095131169815996 -0.08269346854108733
v 0.010759533700178374 0.8218867924433608 -0.0776205131121556
v -0.04529411448453281 0.850935220561344 -0.07759809053281602
v -0.17186553425576556 0.45043850361620813 0.05508047687330814
v -0.2127273955494359 0.5369433764344284 0.033383306776402534
v -0.18950023645483943 0.5071842534321946 0.05335393889691194
v -0.23487206411055242 0.5994828514757944 0.021004848649157262
v -0.26903547239990966 0.6713672108983302 0.0021612595433504753
v -0.2446452813637854 0.6343459666939117 0.016611839852982802
v -0.2916323064932219 0.7333635234054172 -0.013017475001783364
v -0.27360756956289906 0.6998291694015483 -0.0038957909121573433
v -0.33493334403592256 0.8485684896825414 -0.03963417490926167
v -0.32034539214496816 0.8102872842550755 -0.03134197274954815
v -0.3393054648177471 0.8659423492554049 -0.03970983016352161
v 0.2188097569803302 0.7276608229209561 -0.08608489779644445
v 0.1935291644144658 0.7406455547899138 -0.08090623628045639
v 0.15965875622485476 0.7645161375420786 -0.08131717004633761
v 0.09801439503261006 0.7815515660480647 -0.08128396622231701
v -0.1627540957700036 0.40966199169688 0.06498753904444587
v -0.17532290490936633 0.45872413194110623 0.04943468954390161
v -0.19434999851675983 0.5014909665125395 0.05125593785620057
v -0.21768434103060946 0.5503345073152174 0.041781011870060315
v -0.23379952476719146 0.597615396003215 0.02126739728539752
v -0.24534261361875312 0.6336859974850175 0.01565965667508148
v -0.2660328218417261 0.6790790005742563 -0.005928961833409104
v -0.29420516538037383 0.7406298700263859 -0.017107542873583702
v -0.31037267316608685 0.7899927916252005 -0.02552373934571081
v -0.3326642275479672 0.8357291241058687 -0.040218396156392375
v -0.34615139058589245 0.8740962953208324 -0.05138904718114866
v -0.33732775886212885 0.8592455439229952 -0.04255522119738245
v -0.31496317313139216 0.7885246326222513 -0.02326371688713743
v -0.2808093806404796 0.7109812001119149 -0.004380631085653587
v -0.3021391919166061 0.7600801717250684 -0.011999285401036177
v -0.26843466721961845 0.6689175279887324 0.004798613127997141
v -0.21768648564733184 0.5424658561921749 0.030382176481782326
v -0.2356019680828391 0.5929996734109604 0.022107197852750577
v -0.17770429788956157 0.44710047038393397 0.05835154919465402
v -0.20187453156166082 0.5062182167115522 0.04390837680459028
v -0.17242031144494344 0.4465431680064378 0.056269376301749614
v 0.0865825658311752 0.7863526746252023 -0.0800791802649314
v 0.11661528001304552 0.7809020554726478 -0.08116718910728843
v 0.20497068000103466 0.7333454736289858 -0.0797127949907665
v -0.32359656578799534 0.8257824982446673 -0.03439693722786696
v -0.3006216146966608 0.7604351651763361 -0.019300733821948784
v -0.28164888708355407 0.6994947852323635 -0.0071680109907281625
v -0.1971134685378205 0.5063167462198952 0.04036899331596274
v -0.1702221849975746 0.4457627772051972 0.05551355312810246
v 0.06831432206575958 0.7948468346078739 -0.07722920275814327
v 0.17326573257811662 0.7500183863553103 -0.08007846470841351
v 0.878292747192226 0.35159639522419495 -0.05691574185046746
v 0.8543260067937707 0.3473363767333667 -0.048878415094743465
v 0.8845063633284003 0.4372079852743521 -0.08207349172203776
v 0.8823359827857176 0.43448569545998444 -0.08053506368583256
v 0.6871753193879049 0.5212365100465993 -0.08062544446773195
v 0.647489780615897 0.5401026040518184 -0.07976274535934784
v 0.5889629849880371 0.5687972522812147 -0.08196133509294568
v 0.5536994192984316 0.5858392188595543 -0.07781006031648138
v 0.4128703368715916 0.6497731244305068 -0.07691479481369345
v 0.372766550166326 0.6636785757908482 -0.08330336403851984
v 0.6544300553505029 0.5345415746395535 -0.08435271185707022
v 0.6188255920152717 0.5573676921882214 -0.0860586161174041
v 0.5616454381955366 0.5761132811920846 -0.08610878162018676
v 0.4945633638717781 0.6063021807407414 -0.08087002142936874
v 0.4574441061357313 0.6276909393469209 -0.08270263773783136
v 0.343959263402728 0.6735493011653934 -0.07944342063985464
v 0.6236272874314597 0.5515222074501119 -0.082932172417186
v 0.6656611140460755 0.5348973936507636 -0.0811852349953985
v 0.3644437771863761 0.6686478680156448 -0.07633146094458218
v 0.4234821749138988 0.6415755810026468 -0.0792517418737178
v 0.46609620097394155 0.6226141004374751 -0.07854156610960597
v 0.553456614575877 0.5863837151213369 -0.08149483384840649
v 0.6348035399783793 0.5499368588778171 -0.0736675205045124
v 0.6736325956942226 0.5336104645536845 -0.07956256789061672
v 0.8489001923237413 0.45619063116281205 -0.08512042460001348
v 0.7972547093524666 0.4751322708571684 -0.08437654259937101
v 0.754090619430441 0.49407855385134936 -0.08126604092505411
v 0.7283265818099077 0.5084961279548212 -0.08064265098749002
v 0.8815339470158089 0.43672649262135943 -0.08113611176317832
v 0.8464748517682399 0.4564712055342313 -0.07345321268200027
v 0.7757560630098137 0.4874484692244239 -0.08510852098399813
v 0.713196475811252 0.5147780083264717 -0.08451056979787978
v 0.7115966402349037 0.5136704668537994 -0.07936853120079337
v 0.7579952322619447 0.4828989732039745 -0.08266482664747389
v 0.8337450661944988 0.45815798109613426 -0.08149560181022418
v 0.7631808766461141 0.49986844684152787 -0.08125564901068454
v 0.8134759354172519 0.46955651007401694 -0.07734211267429374
v 0.06935914423555874 0.7974956363835158 -0.08018856000692992
v -0.09601571761675898 0.8669684495985481 -0.07289214871148023
v -0.12206504242767668 0.8804862454321871 -0.07237179952643419
v -0.15646576328211667 0.8939774634822183 -0.08266972139366206
v -0.2100569265300636 0.9200397436933492 -0.07994108011813437
v -0.2713634029793395 0.9493509681181117 -0.0829813507960977
v -0.3069604936430912 0.9650548481430785 -0.0782669258775277
v -0.3545827577302332 0.8971339736146552 -0.05050349063539568
v -0.34295606962655084 0.9745340264410658 -0.08112951121032062
v 0.03589802590146216 0.8123109456970918 -0.07417727288455744
v -0.007554135981273961 0.8295050042016452 -0.08114826660978378
v -0.06256914236740307 0.8548376595254944 -0.07605683260420279
v -0.12194262304119642 0.8806645849231165 -0.07470427388547127
v -0.1537428178181598 0.8943191787399992 -0.0750489266545634
v -0.200635763930241 0.9123458581570861 -0.07687421667031616
v -0.2686897438379571 0.9427288730644859 -0.0809532888935397
v -0.36533719350034666 0.9114892846963485 -0.058234322580435226
v -0.338834516202831 0.98283316233305 -0.08038154826539844
v -0.3940423638592873 1.0020610919988806 -0.07511490706280881
v -0.3564215342364359 0.913019043376864 -0.05254528223989671
v -0.18061080088185238 0.9066169601055021 -0.07958408523784989
v -0.12762587093325403 0.881568743393797 -0.07964960922326522
v -0.013712318096743005 0.8325731027306137 -0.07494478509625278
v -0.3832248810308353 0.9925129761434933 -0.07408685060768438
v -0.3699547022993418 0.92784552097784 -0.05784391362860106
v -0.33106061993086766 0.9724510121085945 -0.07372107345711543
v -0.34905451221047934 0.8882269505930993 -0.05228263336960848
v -0.2495665804381765 0.9318906323260693 -0.07692461442470697
v -0.19761813378677817 0.9110860025612205 -0.08175868214056203
v -0.09453746370368017 0.8695583558487255 -0.078233745412774
v 0.008827263669926593 0.822075698724062 -0.08069713650331202
v 0.09828308068169724 0.7834207510288794 -0.07775000343289624
v 0.959727659789789 0.40500862548545447 -0.08538038732042694
v 0.9035387196297698 0.3661737605596475 -0.05963237758639554
v 0.8842167241121904 0.35888862404435945 -0.05616070898190044
v 0.9306898943724835 0.42005160853209395 -0.0778080705612802
v 0.9552899617988307 0.38262075403125195 -0.07570483816456557
v 0.9226348929947235 0.42534798495195303 -0.08585824713598375
v 0.8802254343632272 0.44052958008285126 -0.08195331434604092
v 0.9184527109811979 0.4227777226399659 -0.08252337877233504
v 0.6024903273584687 0.24352377993800245 0.01594484451499788
v 0.585963444764651 0.24201218489506032 0.020651323594761843
v -0.019654415380864168 0.06154953844546754 0.15081500007433474
v 0.6238752107282037 0.2505517892593844 0.007552357442816098
v 0.6599986896467175 0.264689988284718 -0.003364813478174782
v -0.14330490915539332 0.376774185356962 0.07602902006514595
v -0.15855424737651336 0.8935904881896909 -0.0770582762556288
v -0.014032011789018178 0.05185902550211968 0.15630047972120298
v 0.10385692112564164 0.04939287328173192 0.1385766808539429
v 0.06798716037740332 0.7919591162785238 -0.0767470550625235
v -0.019038729086680386 0.8354058470170325 -0.0821442683027847
v 0.08586936984518727 0.7851049029469607 -0.07161221350685096
v -0.35856227016474546 0.8921953764720144 -0.05007108337465951
v 0.8432748998753334 0.3413285551140813 -0.04630480077086109
v 0.5195414946699171 0.21331467500568535 0.0377316767651666
v 0.9025430623171888 0.4214198798690898 -0.08597912851283358
v 0.42101873119238364 0.644684574715667 -0.08164855905089419
v -0.2635133025228823 0.6675477310392026 0.0028833953917258657
v -0.2511845157001934 0.6286147370373147 0.01483964741259876
v -0.2046898987928677 0.9156664856815806 -0.08153084753840607
v 0.40196246631230886 0.1705336249617952 0.06896414866405425
v -0.03013723432808561 0.09408204262925396 0.14713604466029198
v 0.26262478217225493 0.11341882018127342 0.09903860258398621
v 0.8677966864665402 0.3470836370324211 -0.05358751744175596
v -0.12744270768914212 0.35943476384243234 0.0816084536446477
v 0.1055290744673163 0.05567034448145602 0.143360566789423
v -0.03238994187165472 0.09222779912664275 0.14470086068805257
v 0.7041199118774619 0.28462949925911074 -0.011425875785603515
v -0.35242586376710555 0.8927173290799938 -0.04812269535179338
v 0.7621574555563109 0.3069720394936083 -0.02037678046228676
v -0.1860301250741054 0.47737427354836254 0.04887058781369367
v 0.8168770093322372 0.33121624576535424 -0.04264799572849729
v 0.3588002025857388 0.15033972192372558 0.07582231405854593
v -0.122570931497387 0.8789890154417027 -0.07914686962149102
v 0.2087059144678388 0.09160241723872263 0.1110565419037173
v 0.8224922231334378 0.3317263750363851 -0.04185633222779501
v -0.18320511048422922 0.4590216759165676 0.0540691212187332
v -0.20728508891737976 0.5211221794250216 0.04129278073943452
v 0.11094275257209764 0.7781355501151547 -0.07865852955478225
v 0.4724272767691577 0.6192006855629435 -0.08973089407856026
v -0.23748256933627754 0.9310407553057078 -0.08502354184804194
v 0.10922226835731257 0.7783504715668992 -0.07832805359310284
v 0.6163172613526958 0.5569008502221057 -0.07716309602412035
v 0.2185432218886619 0.7315331727077127 -0.07839091622929226
v -0.22339888901696742 0.5670416895900457 0.025777715379310586
v 0.6809091654580406 -0.3159791839089609 -0.08060179378602422
v 0.635317130263365 -0.40241752774293416 -0.07958384043861133
v 0.6240529838468212 -0.4463094581008927 -0.07862257914569197
v 0.5982144023511466 -0.4930356455098265 -0.08133711292931557
v 0.5799205152116857 -0.5407686927387985 -0.08150303310679292
v 0.5523723528103986 -0.6053572944717909 -0.07912752983543121
v 0.5307507768470867 -0.650567083218141 -0.07807739531009153
v 0.5104875237896341 -0.6982570128917072 -0.07776758670302639
v 0.4883767111013576 -0.740810310680559 -0.08152357387186386
v 0.47524428851439626 -0.793857942087923 -0.07540609021394316
v 0.4531997322331098 -0.8423813287442912 -0.07649973733303024
v 0.3436304830055301 -0.8864509266560704 -0.05421248421516847
v 0.3602351299862726 -0.9208714403096119 -0.061500312606009896
v 0.6952053781632042 -0.2651754786493434 -0.07400621501989776
v 0.661565111974801 -0.33964017512707245 -0.07990022402463332
v 0.6467822345585406 -0.38441622284124993 -0.07980819179965433
v 0.6001063255247875 -0.48095823838694896 -0.08355943545465895
v 0.6137927594756736 -0.4459080400435094 -0.07418473234797623
v 0.5734683911663043 -0.5437882767110315 -0.07971397367031594
v 0.5612359531399945 -0.6027673100715955 -0.08207926239971808
v 0.5374608211642328 -0.6239291288725546 -0.08218250668043572
v 0.4929947814242244 -0.737069695886214 -0.07774066068660414
v 0.4560124519844648 -0.8102795157900458 -0.08364363374611192
v 0.4384508391418449 -0.8701071436930982 -0.08079295159939531
v 0.33998833696634934 -0.8865493800472349 -0.05455327516094632
v 0.342430516588941 -0.8833050776859246 -0.053420765147449534
v 0.431583788449744 -0.8893758528768991 -0.07857439614586237
v 0.45724798005310696 -0.8299241805882285 -0.08308619531278467
v 0.4749257631126021 -0.7765652287908801 -0.07767762174966807
v 0.5186849762803761 -0.6763861351288565 -0.07919569390252375
v 0.5400709453165392 -0.6174274145884886 -0.07977101972360748
v 0.5723040162445985 -0.5668734339857677 -0.08522427971979642
v 0.5936158338559802 -0.5102316449867824 -0.07664929408899698
v 0.5874776956340143 -0.5405621582518344 -0.08535356459236453
v 0.6038754716535788 -0.4846258888039306 -0.08197535681886173
v 0.6249746492517606 -0.4305734051478159 -0.07745681252109521
v 0.6495286000238137 -0.3824161678302277 -0.07818239450546233
v 0.6698700327525284 -0.3262442417074542 -0.07979922227908164
v 0.34318278931684043 -0.8830737270662211 -0.060276783190254875
v 0.43811986628863575 -0.8757219780210559 -0.08149034554089894
v 0.4627744999196668 -0.7933955473747814 -0.0819688050211821
v 0.45395116985196665 -0.8330485598280372 -0.08104406271210617
v 0.5017265266372744 -0.7394000496550726 -0.07855108668183869
v 0.5476690193107496 -0.6056654960274728 -0.08070066538066362
v 0.5753292111279955 -0.5551195656201007 -0.0761947786819399
v 0.5964631117812997 -0.49802340606685463 -0.07584094627443225
v 0.623280449280357 -0.4494274899338654 -0.08172433883606811
v 0.6451232660464263 -0.37798782139549475 -0.08428079872648829
v 0.6728057750271665 -0.31730135740589654 -0.07605731156611192
v 0.6979938475794759 -0.25940021009617853 -0.08165996964819631
v 0.69190193836899 -0.27268390045044116 -0.0755332446506552
v 0.7122290801033422 -0.2346356395199313 -0.07774779108837519
v 0.678928666502452 -0.306030813029873 -0.0794056876039782
v 0.6649749609245379 -0.3496537955034184 -0.07973380850156662
v 0.3214579859400114 -0.8185736726631827 -0.037642472879123416
v 0.3315427193222594 -0.8579467600059479 -0.05218886142194413
v 0.3029835755806372 -0.7810661592977419 -0.031142256671296553
v 0.3156569729827589 -0.8177791597597617 -0.031156648898881905
v 0.2661300242253792 -0.677027496620289 -0.007928470081469921
v 0.27864527451488313 -0.717322606289277 -0.011591603729083752
v 0.23407761270012317 -0.592942507865949 0.017428497375499428
v 0.24869582429459056 -0.6339572464126807 0.01099086632143255
v 0.2134239995053127 -0.5410829849551207 0.02713048192062162
v 0.22533440281709008 -0.577035363740376 0.02123386148491007
v 0.19382301243275868 -0.49565162657597356 0.0451664361300174
v 0.164923420807974 -0.41761873482061646 0.05888894753109393
v 0.12770498159096555 -0.30568939244613835 0.08580804207590571
v 0.13751092929848402 -0.34500906525095554 0.07399111666621046
v 0.09973474907276939 -0.245801220327456 0.10354402424324767
v 0.11233858480649976 -0.28205743504855746 0.09316900498804952
v 0.0689743894881264 -0.15553905752526842 0.12340531701246639
v 0.08168512811410951 -0.2019834973531243 0.11416919734742598
v 0.6841293678560258 -0.29950095648379466 -0.08388272286552262
v 0.326736449308401 -0.8356083331677867 -0.03935125608886772
v 0.3053110594572859 -0.7875951051916718 -0.03288217469874439
v 0.3002729831174223 -0.7486452575353094 -0.020100640412090427
v 0.26522296662391437 -0.697958459627835 -0.007407960714572123
v 0.2550473462305301 -0.6441759999265231 0.008420032738625847
v 0.23550510655394577 -0.6020250321367299 0.014450997281984734
v 0.21179870015460187 -0.551987436622948 0.029572395051044264
v 0.19631943428315368 -0.4996039977367718 0.042661240522853985
v 0.17771439590127602 -0.44532460509018174 0.054081850981390754
v 0.16174178620145696 -0.4018587098751851 0.06552279639190822
v 0.1402842686159225 -0.3527300066964704 0.07536134941169507
v 0.1168242114599133 -0.2969720138169328 0.09190745578299887
v 0.10274737789514572 -0.2398060003169205 0.10378074980264644
v 0.07830103866344597 -0.19430141728687989 0.11327345913682181
v 0.05780256655308554 -0.13876249614113306 0.12307220733096377
v 0.060350431161371676 -0.13319675884427168 0.12458957549938944
v 0.08471253666718354 -0.20355798317275237 0.11230461148688496
v 0.06352109946562341 -0.15699460904253199 0.12634694169110325
v 0.10177725308139203 -0.2512609591624468 0.09411711009676187
v 0.08374060972678349 -0.2098398260044446 0.11397092413396599
v 0.13140656639681722 -0.3204908268609919 0.07980740865620281
v 0.17512702814469921 -0.43171517842331464 0.05751298016301592
v 0.1912122457960358 -0.4952097391834545 0.04642162287792119
v 0.18237464491685973 -0.45428318303862386 0.05328971570560149
v 0.21791207698510212 -0.5577642733280369 0.02545256373171956
v 0.2019357846493681 -0.5273894799933598 0.0369242846561574
v 0.25234759479972035 -0.6405692642515982 0.005789000558667054
v 0.2927907727554876 -0.7573496239065923 -0.021117492634317423
v 0.28180892797225654 -0.7133609897416623 -0.01088244699742937
v 0.316019506147254 -0.8120604890569332 -0.033780263918762994
v 0.6499018568700999 -0.38223011796851303 -0.07883257134153694
v 0.6948152370231152 -0.27815447495986273 -0.08459142135597077
v 0.7164491586453483 -0.22307033304447482 -0.07963059893648268
v 0.06555705189975283 -0.15602186507629065 0.12643004852742484
v 0.0876307086683939 -0.20188070257249113 0.10945002108220886
v 0.11097485778632529 -0.27185786645663246 0.09183376587580415
v 0.13047405741549925 -0.3304963796427503 0.08469065083127167
v 0.15264341848961588 -0.3776363620413175 0.06913406535946161
v 0.1727005163214259 -0.4302211920704156 0.06275469000593036
v 0.18187785735052792 -0.4685585077413532 0.04748708407335864
v 0.20550914560084904 -0.520462630597977 0.03441809331423813
v 0.22646676695150042 -0.5749766073070713 0.0181717028111959
v 0.24280018446260423 -0.6219057181928939 0.010158750364308838
v 0.21310731341445344 -0.5433989531295909 0.029608105820537713
v 0.23294369746699914 -0.5943027013106204 0.017377929424149945
v 0.25462251193705404 -0.6436092405936723 0.005116483955157031
v 0.2717467320200702 -0.6879740602626295 -0.00608391446437109
v 0.2929485259937799 -0.7387972380743196 -0.017103296535039798
v 0.30689452364838765 -0.7888806235276374 -0.03203397455900861
v 0.3240163637773339 -0.8313386644080616 -0.04246552062884662
v 0.6935590423583128 -0.29003599367714655 -0.08390469555435683
v 0.8296057217085587 0.019882390404941316 -0.07758065259357193
v 0.8006831562951416 -0.02472214544239355 -0.07791984062182725
v 0.7817725914216873 -0.0694455031998474 -0.07648124923528156
v 0.7763231739087069 -0.08453986611540676 -0.07605355285614744
v 0.7557992063018548 -0.13539924658612615 -0.07993876253996846
v 0.7325947601096622 -0.1768950426561166 -0.0802104809392757
v 0.7195481836176648 -0.22398611061118154 -0.08302565885142144
v 0.7954403935553868 -0.032725688958721154 -0.07481327709170486
v 0.7655467519621736 -0.11280168245628787 -0.08242559531441494
v 0.7839491934493743 -0.0713571538108308 -0.07853241149820636
v 0.7368724758919604 -0.16659905717923065 -0.08196483932303884
v 0.7634255516053415 -0.11625343194345 -0.081051520488712
v 0.7818786662126563 -0.06662003310936895 -0.08621228499378808
v 0.8124939069430724 -0.006029119829392796 -0.08355108420730735
v 0.7251571578356164 -0.19245913853395832 -0.07952155239924603
v 0.7562331149284399 -0.1306377067395639 -0.08226989344605361
v 0.7905517705755566 -0.06772719194908074 -0.08396030572286402
v 0.8135732163637472 -0.018009241771103367 -0.07840220474614429
v 0.8219566704387375 0.019931065919644525 -0.08035250090930532
v 0.9701543272348196 0.34063862945816015 -0.08928926680357349
v 0.9404047652513303 0.29411874286956274 -0.07943846402077098
v 0.9210086436644515 0.25221322096459986 -0.08633289732418557
v 0.8766653226025732 0.35425886726089567 -0.05839190205345955
v 0.9659143301378375 0.3836821523360886 -0.07780623283492237
v 0.9431248147977065 0.3076609967002101 -0.08165951048023888
v 0.9184013964380722 0.2506569034413628 -0.08096988668157937
v 0.8743904609722588 0.35299508922447487 -0.05633760008195908
v 0.9038774773812857 0.21318450739539999 -0.08327104492059943
v 0.8875771796430328 0.1619621789631904 -0.08243595095182206
v 0.910906656345555 0.21341814483953533 -0.08694261074101284
v 0.92686549268469 0.2691667561718922 -0.08461804172967047
v 0.895250405824758 0.3568735860257821 -0.06178021035543746
v 0.9546887155796623 0.3341022567221115 -0.07758442580163084
v 0.8958694640733086 0.19498342655817005 -0.08055376506222493
v 0.9124658324462989 0.21775381539736968 -0.08362148537121138
v 0.8837587525717647 0.3579855078640798 -0.06140644577242007
v 0.9321339592137974 0.2797378724992593 -0.07788491034611049
v 0.9332485764966527 0.3674337609840297 -0.07096552919181942
v 0.9503096357347379 0.3076047712656591 -0.08454399999288882
v 0.6642794046281768 0.26911998747948523 0.0031078536956956814
v 0.644329106580868 0.2572197144300238 -0.0002931373275230067
v 0.6059919126382779 0.2485233241053691 0.016328834223222233
v 0.5351330456737157 0.22173664243411723 0.028573977355221054
v 0.4751876442328477 0.19374956918109731 0.04233034355833311
v 0.4330134505302279 0.1829920694716002 0.05547841671517609
v 0.3901031800604161 0.16533680039096452 0.06292978114529532
v 0.3356549820510549 0.14584134297039353 0.07968653148939382
v 0.31028815990452624 0.13313480016226814 0.09175695811296705
v 0.26739318014569613 0.117129968403321 0.09690458653954673
v 0.2386274825207842 0.10162815805813913 0.10578934308570705
v 0.2108643930929869 0.0897390426200751 0.11383225084153838
v 0.16054969677998798 0.07503568693789794 0.1218090737776305
v 0.09205258003666068 0.049477586015620384 0.14313769222858586
v 0.0409153646373054 0.023154937906737824 0.15524600764937688
v 0.6683139210930683 0.2714261698753342 -0.007040410860404445
v 0.620799466092418 0.25567144960832366 0.011881657381140855
v 0.5638376429859417 0.23167256414894383 0.02274344436234052
v 0.5260657096985664 0.21942953340997176 0.029958617162331645
v 0.4919946022309493 0.20653571002765753 0.039851278798233594
v 0.44624421226803007 0.18034641019473985 0.052883331344104945
v 0.39688492530794756 0.16585473590791422 0.06469521447035761
v 0.36068284942436146 0.15076081248386936 0.07746644956062704
v 0.3274642492699465 0.13729661418468825 0.08457733672434826
v 0.18720635066621083 0.08729894608575009 0.11310895483216472
v 0.1577711765065369 0.07482216097941977 0.12282854753621844
v 0.06547942974640918 0.03609803132163671 0.14837036275796825
v 0.09275179081913854 0.05064096223001294 0.1426513430057087
v 0.11486357856634431 0.058011107140140995 0.12962964379243958
v 0.1553237071115838 0.07060795320820998 0.12602449444093922
v 0.22937432415713324 0.10094984071086972 0.1031344184030721
v 0.28027732307293113 0.12026302877985345 0.09621273299497268
v 0.33440445936331753 0.1449876298723854 0.08104521492624073
v 0.4263360527844636 0.17503429310175594 0.055962400502105915
v 0.5054622666029503 0.20990367151855943 0.03528287646681403
v 0.5435011963213997 0.2214802531298997 0.029574935538293205
v 0.643141452153123 0.26209052592326026 0.0009684438168872083
v 0.09589709640880269 0.05124791441841421 0.13398202722090108
v 0.1543189716078472 0.07680152455593543 0.12392850744627638
v 0.23751623639717526 0.1039318576138658 0.10506764946914672
v 0.26573039324271985 0.11561592361057596 0.10134168656788821
v 0.3597580632015859 0.15066491958117278 0.07239299631132791
v 0.3959807497381766 0.1601586644362488 0.06848274727770297
v 0.43658881858304 0.18309826854647077 0.05376249602602669
v 0.48024557347898467 0.20184017277219438 0.04185873367916446
v 0.5269599361030912 0.21872486815741754 0.02979739611531049
v 0.5512185063875028 0.22707148011560824 0.02367802422082035
v 0.6312400769481077 0.2536597355169775 0.01151787166741591
v 0.6791264536509543 0.26398324921015953 -0.003740122928391083
v 0.8853439559491888 0.16774036977311563 -0.08476304821130741
v 0.8670714414138655 0.12284021261019956 -0.0828871272102572
v 0.8428091209098666 0.06942780032126909 -0.07988645481012545
v 0.8477999374358307 0.3414581825713357 -0.05357772201660766
v 0.8258238705739745 0.32773168532584834 -0.045482120879515184
v 0.8050663621735334 0.32604931206022847 -0.032316969827737276
v 0.7754822089537372 0.3166886939486713 -0.030808854306814286
v 0.7313241371328922 0.29657839868606684 -0.020927565887817516
v 0.8516946774959472 0.3418333441893539 -0.048625942122107385
v 0.8603177965870834 0.11314974848034912 -0.07835726724741847
v 0.830034010925967 0.0339617826266272 -0.08085352866751717
v 0.7017444466545667 0.28542095972032666 -0.0100494418099789
v 0.7114308768771435 0.29111032285796357 -0.01356672759681826
v 0.7483523382933017 0.30087299817988505 -0.024598864843116013
v 0.7795032311246215 0.32127598443292765 -0.032227693243620105
v 0.8309982645287678 0.03439517152791933 -0.07908100690812951
v 0.8482852917483555 0.34446207497947634 -0.0495382092938691
v 0.7373641425684329 0.2948812450436332 -0.020461400146082973
v 0.8376298912229249 0.0607592531191021 -0.08239647835604468
v 0.7786568364469423 0.3129184738139511 -0.02425663125424676
v 0.856508896061582 0.09510924244203786 -0.08405688475546207
v 0.8241443235171858 0.3334170591495838 -0.041626676903083235
v 0.8509397678451337 0.34183644553418246 -0.051271064870083
v 0.035297120502682806 -0.09290681513540816 0.1356201117015472
v 0.05894007882260967 -0.13086456267733076 0.13185279393463664
v 0.02225146270403046 -0.03442701602062981 0.14919280947176922
v 0.04725212029104599 -0.12384691360165384 0.1335292712342195
v 0.03713395236083605 -0.07933274591572854 0.13984158672200678
v 0.013307906743366982 -0.01835204407653922 0.16130309632523873
v 0.02198205112790474 -0.03670126255084518 0.15055988376993892
v 0.03899239025695238 -0.0906639579043201 0.13972351866239457
v 0.034094889160798295 0.02271600614828454 0.15450968220622338
v 0.02199911727580508 -0.05585619471807921 0.14592874078523593
v 0.04927464048139104 -0.10570169902050199 0.13885876352329518
v 0.06481868773726315 0.04665087246989938 0.15178114508261473
v 0.15030138961620218 -0.3800070532765581 0.06093741765090885
v 0.16598667829476946 0.07669643045805632 0.12993586925325842
v 0.7038253420038031 0.29064060783105167 -0.008771449664944427
v 0.6948272419279352 -0.27731746835668225 -0.07855242250295938
v 0.12424057050016042 -0.3066035796419528 0.08673432791085592
v 0.02562309876658868 -0.054913381254131303 0.1478873908770245
v 0.6302668534940719 0.2649427640224043 0.005899238317379315
v 0.21189379562490218 -0.5372897313740318 0.030223083760924488
v 0.11309584243407918 -0.2709567354831517 0.09704752553205363
v 0.043649647158961545 0.03239882852711084 0.15023636523074346
v 0.4486239414739951 -0.8451331904530379 -0.07967153820412387
v 0.1466660884865171 -0.3813153215735976 0.06726971436432183
v 0.48881042791118184 -0.7392390392932761 -0.08181594181238676
v 0.833619022266221 0.0455595500217482 -0.0831327514565008
v 0.3513719042959585 -0.9019928710856667 -0.05649891884583629
v 0.24469508077894095 -0.6298684746678895 0.01169970795608857
v 0.47386325633061765 -0.7886649497874992 -0.08034455170803968
v 0.1398287634478172 -0.35899143884628376 0.0727862898303008
v 0.5276043868350224 -0.6596194842604581 -0.0785055065958403
v 0.47856408703788017 0.19665204228873498 0.04549819312663705
v 0.9167576512490705 0.3678784152214458 -0.06774170316336073
v 0.8749961533334818 0.13418063609744035 -0.07810723215236437
v 0.9611940761655556 0.33746511730589546 -0.08137049765185853
v 0.6993112405508461 -0.2673646172013548 -0.08381915952064836
v 0.0883678063090243 -0.2198768393544478 0.10496893805988651
v 0.4424916791502303 -0.8640417818180893 -0.07747797999780703
v 0.7640181363560709 0.30714979474740883 -0.028627608036505096
v 0.32248919547652544 -0.8233869807459622 -0.033424207977205043
v 0.661108001802367 0.2749911906422814 -0.0017615068263761588
v 0.12729357915240275 -0.3237942927091528 0.08500234641900965
v 0.15382420100960995 0.07334101002924343 0.12902633700624955
v 0.3507706952084181 0.14723059905881508 0.07644207873262322
v -0.22281935758201307 0.5580954241092304 0.028367999909737325
v -0.27308269982492916 0.7055191180258876 -0.004456901511311858
v -0.2420868969005961 0.6172930976280998 0.022552391672742686
v -0.345304010077088 0.8723606629263471 -0.045399420080890165
v -0.31954838749564773 0.8123685601229389 -0.030271297339689206
v -0.24495366806621155 0.6325966664120377 0.014610808728912156
v -0.36492262485187715 0.9170147650134882 -0.05806446797800425
v -0.14151325121809122 -0.047448617093977796 0.13240598084862248
v -0.1097812247844554 -0.03100544628744148 0.13846544914434045
v -0.07206707803328163 -0.017283797324409125 0.14204046210696455
v -0.03647738044712492 -0.004353596803914879 0.15390513084215357
v -0.00387222783667557 0.010187656589098941 0.1634869331405625
v -0.044663180007671985 -0.003168691712285263 0.15573251277121364
v -0.36380535649624923 -0.1300150200955363 0.07754194026289118
v -0.5156315150172398 -0.19080794588041702 0.04347310729351548
v -0.39031099333951264 -0.13595013121708363 0.0736183663665096
v -0.6950760296273318 -0.25590533479585387 0.0023785938969302653
v -0.5639098769795582 -0.21116435543711223 0.02587881581951418
v -0.34973567529179606 -0.12306209096593748 0.08433216882385966
v -0.2775753240680243 -0.09689560312866015 0.0946309946425464
v -0.25019589804436576 -0.08381419920911602 0.10306032147841736
v -0.20787483609715016 -0.06732399108367426 0.1178990024789606
v -0.4963502433853527 -0.17601556356557727 0.04784727640026357
v -0.44435972871911106 -0.16483801871380363 0.06035961425835906
v -0.1915884695597122 -0.061899381430528755 0.11829972364611795
v -0.23200561449502574 -0.08128985571037387 0.11098032438478822
v -0.28888611861269015 -0.10256683797743592 0.09928600134273685
v -0.34149495447454314 -0.12270902070479923 0.0867973127699563
v -0.39763318826396266 -0.13611954983779098 0.07653560545850127
v -0.45107158192926056 -0.16198236133186772 0.05627269227138112
v -0.49130474492952525 -0.17778143886232767 0.046827508855007985
v -0.5901766344483014 -0.2135451567445196 0.03148426761522557
v -0.6161847377679287 -0.2257831396730877 0.014053118065133832
v -0.6772875044473875 -0.25654507693935386 -0.0025416793377549063
v -0.1987502588416115 -0.06572306144369401 0.11797979270155921
v -0.25144660635199506 -0.08513373438430555 0.10081863463792881
v -0.30500509421834127 -0.10834382197753296 0.09421312392995042
v -0.34763887344940564 -0.12300727247885973 0.08571818243484822
v -0.43638324302850623 -0.1573591377277267 0.0633182558309157
v -0.4821589631154844 -0.18385664306854732 0.043310497815865635
v -0.5617290971386418 -0.2052230918302664 0.031030341563910012
v -0.609800907210006 -0.22406953020033182 0.018389088691530962
v -0.7140413243956385 -0.26635087795427254 -0.005672981647772652
v -0.6128294544395825 -0.22771042978371817 0.014164991279156911
v -0.4850056492460938 -0.17591882087484026 0.05652941217536707
v -0.43518299701654917 -0.158896384078699 0.06375928878792164
v -0.39018707488679955 -0.13930662946057995 0.0709321435314781
v -0.6457792962913832 -0.24611518849524952 0.013023741350278048
v -0.569189170572486 -0.20691928389072137 0.027936129666800858
v -0.38626931476875626 -0.14015747130417822 0.06810667114489846
v -0.27266768782991974 -0.09194174961804234 0.09850138837035015
v -0.8540064419573026 -0.31519361283150243 -0.03642840386759867
v -0.8310809834406289 -0.30987554272586537 -0.03175868749916466
v -0.8433499364891066 -0.3118901771200823 -0.03475933854105692
v -0.8043645842683408 -0.30090095688709595 -0.021853644483472285
v -0.7522719220246012 -0.27952895064220634 -0.013054168452998043
v -0.01858233102212736 0.06005191063588193 0.15408069284464546
v -0.043916249322010555 0.12888124709943435 0.14198369668091007
v -0.07182736391268696 0.17590990956267513 0.12658102494527793
v -0.09008817354526372 0.24091473871972377 0.10710676926779408
v -0.15810027287956616 0.4071202731647433 0.06509930558292219
v -0.14412722418589663 0.3754949404595958 0.07416348828438328
v -0.04929008321878178 0.14871728752890545 0.13241536186328098
v -0.06861087886184963 0.19422899902264615 0.11954191448677269
v -0.14153647034069636 0.36572720116968005 0.07505877243994528
v -0.1565047585454307 0.40202764484006276 0.0718749183286563
v -0.13416775738853062 0.3440101644164476 0.07557090748993879
v -0.11526077758825545 0.2929201144596448 0.09331708346826502
v -0.0290440415434959 0.08258581259037329 0.15129077416425213
v -0.004914663084186437 0.02748605535679734 0.16084422308655733
v -0.15889466488779086 0.3917775643543783 0.06896212553874953
v -0.017483878540649162 0.060620247273256864 0.14582184349925678
v -0.18191147538918842 0.4703564509924454 0.05456459769856708
v -0.20939801890128545 0.5286415545143853 0.037250773648323306
v -0.2326803639635057 0.60123712317162 0.022713233323720976
v -0.22497093693618211 0.5638872044325981 0.026677579819992688
v -0.2674032369375486 0.6548779999046993 0.008720680010136683
v -0.3032224613338346 0.773676464026839 -0.023022624681175947
v -0.3270080874316345 0.8280439576044826 -0.041943191647733115
v -0.18483919882649968 0.47165602220639835 0.04978336618981724
v -0.20779246024083012 0.5235963326020134 0.043147085593753465
v -0.21866098295893235 0.5680965933327207 0.030521672399902246
v -0.23732430884013564 0.6072109731923435 0.016581349623851105
v -0.25852792308735983 0.6483027857352018 0.0048135488064282445
v -0.3399857920758051 0.8752656630223263 -0.04455149698762712
v -0.29135367394475004 0.7436951811269845 -0.01232898748798695
v -0.26264450047867294 0.6648042832701365 0.0003046564601972626
v -0.22599057889240734 0.570862622128753 0.029638050643307715
v -0.18904272585584456 0.5001719988087703 0.04825138706363068
v -0.29725629977430007 0.7506846347917029 -0.00978303181799529
v -0.2764916430104532 0.697784034432503 -0.004548074433581178
v -0.2553264443549395 0.6376742940179128 0.014021478621390497
v -0.22689872487661322 0.5772041622073337 0.026998217678997675
v -0.2257829389527933 0.5697955179834966 0.02470472664236272
v -0.20382610054192576 0.5238902302378408 0.045137337847822916
v -0.1778895382180786 0.4606881942664553 0.059512149114159335
v -0.6703441423727944 0.3653429556183468 -0.072299281520402
v -0.6962013449040247 0.32615386197394963 -0.07340557680485957
v -0.719840131862553 0.2797119703794545 -0.07473301039489152
v -0.6482281309104898 0.41606834634525397 -0.07904253983363695
v -0.6702380430890799 0.39503154290370246 -0.08321847894147535
v -0.6935648700523953 0.32899997998879116 -0.06945573915589956
v -0.7408171059196167 0.23067396289642358 -0.07678353419994993
v -0.7589702503777654 0.17596244731578034 -0.07894555389837951
v -0.7436253598023082 0.2254478624341084 -0.07851100648709096
v -0.6674598731639054 0.39854724754035176 -0.07155071064332555
v -0.4115944658554737 0.9674826228665736 -0.08350035881463781
v -0.4301696333065964 0.923835258679254 -0.08014434809567528
v -0.45128780079267605 0.8855247080402784 -0.07857369322102428
v -0.46798218033216193 0.8323249921731587 -0.0725029905473529
v -0.49613479862957416 0.7883914593071174 -0.0791263511023235
v -0.5120016214502445 0.7485313525707098 -0.07687053265475732
v -0.5458433479659216 0.6557515191405715 -0.07854155268371796
v -0.5632953696824078 0.6174207360947694 -0.07459454997592693
v -0.5841722560301654 0.5778038723551399 -0.07141607655638361
v -0.6054504039169397 0.5327224957094225 -0.07499272636253089
v -0.6266731701563364 0.4872239032082057 -0.07522424158087564
v -0.43690806266770277 0.9143103954752456 -0.08396505973811144
v -0.48533395344672836 0.8127787096898079 -0.06701126710451315
v -0.5179918950475633 0.7224680010045957 -0.07924417932138543
v -0.5496177316905101 0.6673468916555223 -0.07531822990473847
v -0.5756649747686144 0.5905719011984284 -0.07811132003362062
v -0.6125188367626645 0.5209703220570252 -0.07482297228502602
v -0.6388456958821666 0.4593659012851834 -0.08065024109099295
v -0.6509802716191927 0.42267783585904883 -0.07175176632676886
v -0.629668591770289 0.47407938466445987 -0.07468443360389633
v -0.5686319437433489 0.6034209146360916 -0.07057806524546288
v -0.5501460583494816 0.6595354143020326 -0.07704740693939936
v -0.5268789184951017 0.710500778765869 -0.07554361422097285
v -0.5039213538220023 0.7739685457606954 -0.07921914706065698
v -0.4991856728020713 0.7745987308214903 -0.07572868818691979
v -0.4687498829072608 0.8327487914177011 -0.07110584993688608
v -0.4478894925649945 0.8809771727470412 -0.07574507567659682
v -0.4305627885130613 0.934602326699463 -0.07911707740672339
v -0.6333907086909022 0.47162090411931784 -0.07094384955033041
v -0.607309331729167 0.5248868602537619 -0.07383696993183499
v -0.5999246040806914 0.5459943243401207 -0.07321414017423795
v -0.5577395150827739 0.6420656156640074 -0.07349389438600623
v -0.5368976841248356 0.6875727177250974 -0.07431399532357677
v -0.502084875996933 0.7724772257300038 -0.07663785414578025
v -0.5219779516348482 0.7333468668227893 -0.07785962629490646
v -0.4909079144259147 0.7942683370834795 -0.08045202902268027
v -0.4534090695228813 0.8766036525895375 -0.07675230420459181
v -0.41665585611491457 0.9722276353633195 -0.07691975363316594
v -0.35546464535564715 0.9109210572811423 -0.05952134568907435
v -0.7891935854674054 0.11583385608344642 -0.07432567486644112
v -0.8062048805614964 0.06685603334005107 -0.0819478898627508
v -0.7572574643974233 0.18366426389585414 -0.07404056243937085
v -0.8121800131035773 0.058641995848054525 -0.07399256236659264
v -0.8829821130120384 -0.11634895088827002 -0.07414234684726168
v -0.9033108746278885 -0.16662662295551622 -0.07310608658797678
v -0.8950584724812366 -0.12304998967934512 -0.07140162212708191
v -0.8201448411898056 0.04091237219421918 -0.0772202872040581
v -0.8359906027285096 0.0014618544775117995 -0.07324369710635818
v -0.8025549285126149 0.09243017698783064 -0.07502991104365131
v -0.7636108776754565 0.1680620017494922 -0.07351531877502823
v -0.5600001355265787 -0.20674104569773974 0.028921982127921363
v -0.7260855949874406 -0.27823810841930957 -0.007662297327788599
v -0.7377787631976119 0.2328715492113784 -0.07782839104835795
v -0.7545082498910114 0.1907090794929308 -0.07758062864264399
v -0.7652521854875441 0.14538037410896126 -0.072919175954254
v -0.7113978104127724 0.2987405176458928 -0.0754713894920512
v -0.6560426366826307 -0.2461931186044045 0.013238564825726192
v -0.7784357668407295 0.14040884343126392 -0.07333816649135795
v -0.6862322277056682 -0.25876407238190485 -0.0004990240098065174
v -0.7276661249653447 -0.26819252804665494 -0.008428243372500793
v -0.6846830329089176 0.36430082623969595 -0.07234335033465443
v -0.6523156099172794 -0.23831558013529183 0.009337250842873887
v -0.7247466249669743 -0.2723281154434698 -0.010957023490441746
v -0.6929147187832838 -0.2545380518234148 0.0027553234133973086
v -0.7417901585514267 0.21958402033442562 -0.07355541471230682
v -0.7248222308860712 0.26401105333826475 -0.07530722307229792
v -0.7015149187954084 0.3149166999922279 -0.07835641718988025
v -0.28824409876527796 0.7414334694866551 -0.008214512707265335
v -0.34270499125781273 0.8774860457639077 -0.046684090868931535
v -0.6436730396470429 0.4340623961724253 -0.07499672721227206
v -0.28951619949529755 0.7384185136376279 -0.01413070469147271
v -0.31556772498660246 0.7846394724909403 -0.024619083105037534
v -0.32822958710360123 0.8256129847070302 -0.0316168694018662
v -0.32536399355772355 0.8098034814376269 -0.025969477569654818
v -0.5792266403086384 0.5999365037638066 -0.0800367832802343
v -0.3412109860574422 0.8616316665945275 -0.042427682093825365
v -0.7879187762686612 -0.2983756401049624 -0.02040383986080246
v -0.8297874890135056 -0.31298287697727195 -0.03342236502018351
v -0.8293293307969529 0.022300036048571205 -0.0708330058801055
v -0.8503693413483785 -0.021209892251921075 -0.07804718559415244
v -0.8692216980546071 -0.06578403260589238 -0.07438174659343998
v -0.8910853963393621 -0.3335159824102001 -0.0484285163523556
v -0.958468217398418 -0.2659051882336021 -0.08046100373817669
v -0.9764709551373506 -0.3111478176358681 -0.07487347045168079
v -0.7979831221065742 0.0913503677475554 -0.07727716047185137
v -0.8288926156462149 0.016487707098092483 -0.07183086921490471
v -0.773667070052399 -0.2809685977702697 -0.022199300749303028
v -0.8544668225288627 -0.05002168280123214 -0.0716806084598571
v -0.8971226427933872 -0.14996137110909585 -0.07486380432017958
v -0.8628582787764172 -0.32180379594657565 -0.03590777314794939
v -0.9257306360888342 -0.2017996981240401 -0.07756281036013256
v -0.895663155840256 -0.3353684727180213 -0.04920632492905452
v -0.9493552403249877 -0.2555878899533016 -0.07433483063445542
v -0.9784969887909453 -0.30970147014953625 -0.07006348665236423
v -0.9072259039422188 -0.33930156790346294 -0.05350801276603713
v -0.9418297489958617 -0.24026616242511964 -0.0800985488922904
v -0.9186627275061231 -0.1766886683635257 -0.07910292613537943
v -0.884043157342948 -0.3272826995522015 -0.046346600853220246
v -0.8686304052299934 -0.06428834258026571 -0.07901074453685639
v -0.8376499972699957 -0.00641329672328537 -0.07491716494339262
v -0.8038131728616921 0.07279454030352815 -0.07852873372206338
v -0.7874795006832904 0.12005074598690885 -0.07751482126462375
v -0.9587316187199975 -0.27884313312938525 -0.06984865275642567
v -0.9319830558714909 -0.21573992255540575 -0.07570497238018667
v -0.880146615319382 -0.32979718946385705 -0.042795590094851656
v -0.9200193606820769 -0.1889953304651292 -0.07465971498075837
v -0.8710232100620242 -0.09538434109749337 -0.07009917479186084
v -0.82937260244548 0.015307732033092566 -0.07903471522823688
v -0.7909968665439951 0.10260898201682928 -0.081387382056961
v -0.3589438952605803 -0.1323531886443966 0.07239756088864595
v -0.08954351161228423 -0.02397072830134533 0.14295427845725214
v -0.0517503157832373 0.1430675203148434 0.13820344923178604
v -0.016830228541672716 0.05526251711112502 0.15826958933782173
v -0.5694591323048885 -0.2133438999175634 0.02574080108907204
v -0.5724519960844818 -0.21394830775529344 0.026629400829223035
v -0.9363135225096916 -0.3527405197661411 -0.058128111305187184
v -0.6490220686731668 -0.2328906342350436 0.00972369261748909
v -0.7664189218665861 0.16505401336383285 -0.07873990422688455
v -0.7070721282234481 -0.261375061169697 -0.006467128473025493
v -0.7736322941243928 -0.2936775626703334 -0.016920658474836654
v -0.9603243383590035 -0.28241929046618897 -0.07539278503981574
v -0.14706385477076536 0.3787525973434987 0.07208629471458815
v -0.5443283919194514 0.670349972314398 -0.07699396924491853
v -0.8557668982576178 -0.05823126841860487 -0.07467473906752556
v -0.8554694465345799 -0.03623281605727711 -0.07586876762222261
v -0.7231699468836772 -0.2724220888495442 -0.003608197351947256
v -0.06652018052271957 0.1789240156034705 0.1241032874491106
v -0.6612815358984112 -0.2458458565528002 0.005763809322911274
v -0.5220342064847939 0.714775499816347 -0.07610166211186326
v -0.34243650756865834 0.8639053128657973 -0.041803004805801354
v -0.2605485262562159 0.6567535171303396 0.0074621363546315345
v -0.22466340934100362 0.582324611394984 0.025134187823227426
v -0.6522836611609082 0.4126491883132994 -0.07962140180891826
v -0.8203022767051639 0.03397198898002243 -0.07216873763204673
v -0.4142724501638231 -0.14910015925774484 0.06816646248615467
v -0.2854917097271379 0.7429199087094731 -0.008397905531688617
v -0.7418689052714545 0.20562134204483276 -0.06686035859881029
v -0.5309012440794992 0.7016736176140065 -0.0770921888717023
v -0.1708370244050693 0.44306501528932235 0.05815654067062111
v -0.171887923949665 0.4548251124893859 0.05854385234931737
v -0.7181209772466226 0.29535059028533417 -0.07627952747158928
v -0.08038490873642389 0.21449190580027533 0.11216741778018839
v -0.3609573350665297 0.9036933426042008 -0.05802138454219573
v -0.8802824641877242 -0.33209791422141843 -0.046790399244175954
v -0.7807737208547791 0.13508048313817397 -0.0748637751990675
v -0.5689416826151276 0.6076750916327118 -0.07373045963087413
v -0.4973224131995641 -0.18004918296768452 0.04596697403680221
v -0.9596900772715075 -0.2737290284938614 -0.0785355047370523
v -0.978019049648361 -0.3153313461403809 -0.07680442588294752
v -0.15251372391478993 0.40055662505830414 0.06808786346390923
v -0.403419744369451 0.9790531203410272 -0.07608365882784043
v -0.5686515019797156 -0.2103195144060323 0.027639443635894406
v -0.4903008761026475 0.7818527796951628 -0.07336630163437045
v -0.7927821679052737 0.10144498463600905 -0.07884148732064937
v -0.1506529434546911 0.39210213745492484 0.07426934803698346
v -0.29814978805253917 0.7505572279162485 -0.010071338483995176
v -0.18031411703551117 0.47069209239316395 0.052271270677616714
v -0.14703967402370535 0.379839483520829 0.07903713337762547
v -0.30707052928116213 0.7757919481610823 -0.0261839054827834
v -0.3273282194211464 0.8355572025466811 -0.03985793010194015
v -0.18673146880630298 0.4931039651466194 0.05375336630232779
v -0.07198372562483109 0.1919008645368881 0.12365254272688189
v -0.4360168842806902 0.9286943273091353 -0.07245685804222993
v -0.16690696422035184 0.42609788733788323 0.06285041626431173
v -0.8628926094498904 -0.05377098907500015 -0.07361742128001494
v -0.554809260960536 0.6447665841878539 -0.07629947965287259
v -0.07714309406253701 0.215358813601667 0.11339656903302568
v -0.12445738957483918 -0.030500794826871923 0.1318484818760651
v -0.16578331927927506 -0.059705615459481165 0.11651860368820391
v -0.11961349529129867 -0.035620441261418785 0.13587075310612592
v 0.31580981319631446 -0.9694566541052901 -0.07632729062298485
v 0.2789997962458443 -0.9415871755579487 -0.07657316099115764
v 0.23834882637382265 -0.9207818269053617 -0.07177141105101051
v 0.18153970696819502 -0.9030394693641459 -0.08178012007079465
v 0.1466114316290578 -0.8833563384421393 -0.07916182960033524
v 0.10893910262076066 -0.8708583897455455 -0.07751086021754466
v 0.05566357386844159 -0.846195788447734 -0.07671544525877882
v -0.02995664354466784 -0.8054459048289967 -0.07304087210085622
v -0.06696522203473432 -0.7892729523436045 -0.07720530437379836
v -0.16961148238365986 -0.7460433454331133 -0.07814072372219005
v -0.20722325669800898 -0.7303425019806338 -0.07884999263943455
v -0.2387745742150214 -0.7156306701655382 -0.07288906639781632
v -0.28448430222488164 -0.695590306994227 -0.07056101170362386
v -0.4574077500997137 -0.6263486655157554 -0.07915811554910811
v -0.5743855801690254 -0.5738566710227689 -0.07694686102683275
v 0.33336778570862563 -0.9718906871780677 -0.07579303897073307
v 0.3525847783174477 -0.8982188086059525 -0.05450965306623545
v 0.28397518054150206 -0.9421239413005464 -0.07360767695076231
v 0.2166790814567141 -0.9152684161960255 -0.07964760718182333
v 0.17969175813933178 -0.9015432764109982 -0.0793416536539898
v 0.14038131259222336 -0.8822974841702024 -0.07658598795230001
v 0.10816353232987691 -0.8664057702377922 -0.07355208698697717
v 0.05934609841787508 -0.8505510118181476 -0.07889942321962717
v 0.001250757768641906 -0.8166849180338124 -0.07452130711842447
v -0.03793307057146044 -0.8044635261925858 -0.07669000584663431
v -0.11218890230519164 -0.7755950751399074 -0.08081927243545654
v -0.16766027178599321 -0.7457865454188956 -0.07038290005447832
v -0.23187365410648056 -0.7245949307044595 -0.07939613977723221
v -0.3356760309211178 -0.6729067404171475 -0.07548157269723794
v -0.38471672616315117 -0.6523539640518614 -0.07737691832680897
v -0.42413742481405675 -0.6305987022863385 -0.07605080381550824
v -0.5347406863880267 -0.5829358022682274 -0.07674323693862317
v -0.6354590310982398 -0.5443679138919446 -0.07713042483523062
v -0.6887406199876455 -0.5181575791682399 -0.07709515634241765
v -0.583782715689045 -0.5676162960249553 -0.07305501824376519
v -0.5488130489820836 -0.5803146606496778 -0.06947210728171564
v -0.4614614836647875 -0.6167657574417782 -0.08008261827234725
v -0.40251404170488525 -0.6463486284279663 -0.07645436074870349
v -0.33213238353023783 -0.6649647045731475 -0.07456243866772898
v -0.29330140030645735 -0.6875712128247149 -0.07838285597257207
v -0.17575695276397205 -0.7422013963674511 -0.0805321470553619
v -0.13446447670540765 -0.7650707687138093 -0.08202661686152064
v -0.08241118690224979 -0.7840754343959592 -0.08241089315578953
v -0.04071738587487978 -0.8017932586151578 -0.07397011750014178
v -0.025383042825269254 -0.8140532740169149 -0.07601380228126432
v 0.02879083987576711 -0.8410630399086498 -0.08017454520933819
v 0.08598906322678884 -0.851142139127086 -0.0719782027696208
v 0.11683687874523421 -0.8741894709563793 -0.07278084002581822
v 0.1575835304240268 -0.8895159495966288 -0.07495393772970944
v 0.20467777029842435 -0.9170605990063555 -0.08032162242815793
v 0.2575968927300838 -0.9358653434639171 -0.07460705634061247
v 0.29602929558221436 -0.9507772729081548 -0.07646840727782515
v 0.3398873966803621 -0.8928395765593133 -0.05342801148245378
v 0.35714682947859483 -0.9297213081762898 -0.060241777900468155
v -0.6899459701522763 -0.5193451180987584 -0.07515465822204054
v -0.6290966326111976 -0.5464424608871107 -0.07516541500253962
v -0.5013080405132437 -0.6068876830025897 -0.0798977736160517
v -0.47407446331881203 -0.617961650020483 -0.07812822242111608
v -0.4327359762679674 -0.6277612381109307 -0.06929979831620942
v -0.3824009421662737 -0.6539915958694434 -0.07972217075920796
v -0.3111032834701419 -0.6857910542973376 -0.07861120581560922
v -0.287641232974936 -0.7009334143823188 -0.07484886733837515
v -0.26678449648862906 -0.7044389604391148 -0.07772084153118819
v -0.18748859557658956 -0.7395334572396537 -0.07662222158066367
v -0.14224561763960075 -0.7617021824604218 -0.08139554995618534
v -0.0906317750939701 -0.7801059615696561 -0.0811971713579264
v -0.07239423276417031 -0.7893245641550876 -0.0822773933466053
v -0.015532394063137521 -0.8168709872204701 -0.0773238004926557
v 0.04964343016716131 -0.8463570889074121 -0.0809699149165051
v 0.082539673282014 -0.8584755807838875 -0.07748509471675168
v 0.13443103132644108 -0.8773304441554497 -0.07961951215700139
v 0.18794890913843276 -0.9065902521014689 -0.07756292280260886
v 0.21668540027446678 -0.9185586784979007 -0.08067506804865834
v 0.27060617658453134 -0.9361908103611483 -0.08058899896015113
v 0.35333679524685974 -0.9167832574006202 -0.06345790060255178
v 0.257730157950314 -0.6760392741907589 -0.0014361967267631933
v 0.27827364453510983 -0.7146694064167206 -0.009721649835597928
v 0.24689877338412855 -0.620218662140164 0.01628583636369901
v 0.22661029972213592 -0.576411563179939 0.021704640667903896
v 0.19792708631570544 -0.5001414326108398 0.03871899582558899
v 0.1544737129514254 -0.39229208749155586 0.06707233213665748
v 0.1296400190462234 -0.3357186274984516 0.07928785588625911
v 0.0976342914051501 -0.2422573750916293 0.10284270505005011
v 0.0745268454276815 -0.16905394075769753 0.11583492965128578
v -0.18646361963943728 -0.06104924574971193 0.11957061413775519
v 0.2808508959274473 -0.7076269989674658 -0.006499914625853108
v 0.25386660168074876 -0.6532415273495409 5.893049058476249e-05
v 0.2347384897478284 -0.6044797852007776 0.01721182467496568
v 0.21655840478530364 -0.5476200447761413 0.026677140474420998
v 0.18834104427783102 -0.4846827891688559 0.04209053260943636
v 0.16857508105463845 -0.4349961859026774 0.0558711222360933
v 0.14435511039139867 -0.38440260885291694 0.07223929408144902
v 0.13389746743864084 -0.3229558712720793 0.0876767946538885
v 0.11374476320042387 -0.28565805102351643 0.09165705838382518
v 0.08727984417901458 -0.2294507817046688 0.10930956956424791
v 0.10335396091469971 -0.2420157832109544 0.10598247078244052
v 0.08203339596947676 -0.18934759255085104 0.11739683684456102
v 0.0676236144175534 -0.13923172725693259 0.12812384661153045
v -0.16381202567681885 -0.05231893439854561 0.12298908734655412
v 0.053766059078881746 -0.11883626567348235 0.13257227612281527
v 0.09179999731744763 -0.22054661194371708 0.11023101203170874
v 0.08244807356914947 -0.17732825102046323 0.11872702779285657
v 0.096787729098657 -0.24385877183058985 0.10807524331380407
v 0.13869981388312405 -0.3346880266173856 0.08246711894395445
v 0.1147525373112586 -0.2970832148327961 0.09098423766660563
v 0.15885741775655088 -0.4019457880130058 0.059902580824435295
v 0.204032361397622 -0.521276466245573 0.040028932363767464
v 0.1891419984168995 -0.4720568387571896 0.04746286081414617
v 0.22577309465510423 -0.5794037807703238 0.015481410913785888
v 0.25006332304566437 -0.6568890385445287 0.010004100445911173
v 0.2387246721473727 -0.607142867191621 0.01465719813932504
v 0.2847957700451075 -0.7249222524599663 -0.014423564189169886
v 0.3068842067173774 -0.7989727773941498 -0.03158680426740496
v 0.062393267052579714 -0.13968235300642487 0.13069508195087323
v 0.1417865546566757 -0.35208545776739336 0.07409410843848842
v 0.15875593897532903 -0.402524571437572 0.06744916907341278
v 0.17902818064806525 -0.4548772372202479 0.051436158097641925
v 0.1932343320723719 -0.5003212111116716 0.03749036082653651
v 0.21247401951825576 -0.549277004678282 0.023848208425553068
v 0.23526379066424108 -0.6027849224486407 0.01795223108251022
v 0.2538789468797825 -0.6560851166025055 0.008864574994764549
v 0.3233746382362044 -0.81706667872349 -0.039194684542466274
v 0.3282894399793974 -0.8589216039581132 -0.048680412028992405
v 0.30788421064423116 -0.8023067584223941 -0.033706391858050334
v -0.340900333477866 -0.6729183539008442 -0.07755855086440627
v -0.37783951929141446 -0.6551677686539696 -0.0793182390658733
v -0.2612258128762611 -0.09184123982715402 0.0987777416965311
v -0.3166877716220805 -0.10972600038207043 0.09002275173984339
v -0.3948019475416025 -0.14349915189588006 0.073055969864334
v -0.5038273672046562 -0.5997001945367028 -0.07295551311154931
v -0.42999355005544776 -0.1544966600336791 0.06605007269579616
v -0.5338328575563386 -0.5843928101316932 -0.07882452888805523
v -0.47572530990153133 -0.17009533280730246 0.05652985473183364
v -0.5509378001933836 -0.1984803352592683 0.04469859652716826
v -0.6242219918809544 -0.5489406438286834 -0.07460973652498207
v -0.6128272126902068 -0.23083776609839168 0.012957406366466265
v -0.6832244876146144 -0.5246940049059818 -0.07775751482150099
v -0.6462050420652192 -0.23851466045290984 0.0113544177748528
v -0.7168303143938957 -0.504856441015139 -0.07244835948111612
v -0.714663004485106 -0.2722814166674541 -0.008176226215205275
v -0.7533192866538623 -0.4870273354545896 -0.07936662997337621
v -0.7554040270891936 -0.2837157705522021 -0.014198320542461524
v -0.204551320434881 -0.06329843450955613 0.12231996290716633
v -0.2558198069526959 -0.0893348218797961 0.10117037968308258
v -0.31612088206976213 -0.11193753584504335 0.08766628025580125
v -0.35239699873204894 -0.13008078418053495 0.08010877060031607
v -0.2811890847647942 -0.6961187514131196 -0.07196423213356483
v -0.44276323834766085 -0.15631045485994258 0.05878281761563912
v -0.49760133354356423 -0.1820725658446292 0.04355313122984637
v -0.4875798142965267 -0.60837504806649 -0.07264224196139842
v -0.5639619932599155 -0.20796990872762935 0.03152346391893406
v -0.620726970702803 -0.23273724123774592 0.022708713708553624
v -0.6150886601173303 -0.5521244326602273 -0.07592562444920309
v -0.6644719769498469 -0.24489978903886606 0.008534804075144462
v -0.6846018184332057 -0.5236116553450437 -0.07436847525316984
v -0.7285398202462844 -0.2760868161951251 -0.008688389608806243
v -0.7519331140015613 -0.4889855884964391 -0.07096980424989505
v -0.7358238361288737 -0.2763531637319234 -0.012808455549725989
v -0.7351226876402607 -0.49594467166003564 -0.07397889082384042
v -0.6462133482861705 -0.24384604841623836 0.014657774947074886
v -0.6424955292375346 -0.5304747945641303 -0.07676387645277885
v -0.5915609921503843 -0.2184357171667619 0.02061003894199469
v -0.520683218890249 -0.19421971792853265 0.03569726031850145
v -0.5124563743871818 -0.596698455168975 -0.08157594078383126
v -0.42763106459906786 -0.1538488554146901 0.06181211859398842
v -0.3769269338573255 -0.13272575072280443 0.07656093343065379
v -0.30894375438102806 -0.11082680347740419 0.09063518902053397
v -0.36786517512200123 -0.6536913650796289 -0.07127749663705651
v -0.2725211964969367 -0.09580225476069938 0.10319445865310356
v -0.23358719354567364 -0.07629168456657613 0.11014167790734478
v -0.24662515176930724 -0.7159533623933381 -0.07336821246593937
v 0.3276933377146169 -0.8480410284453797 -0.0364394311589003
v -0.7612660058730597 -0.2832436143363839 -0.018049521254361486
v -0.7178778604121852 -0.5024420361740234 -0.08184309525191423
v -0.7336721380140278 -0.27674580385167996 -0.00935237538355374
v -0.6693505676867145 -0.5218331437948968 -0.07580600762355355
v -0.7046796387822332 -0.2600878956806792 -0.004378036997624405
v -0.660721275917443 -0.24684484137127533 0.010846447231851011
v -0.5895611676058555 -0.5577565735877466 -0.0759500269521823
v -0.598118000740943 -0.22952705878393273 0.024271246302340607
v -0.5692066990749945 -0.21264307514203323 0.025107993608997146
v -0.546151173403565 -0.19854827048720478 0.03485803165558214
v -0.5035815862520174 -0.18372579946345513 0.04472541767577893
v -0.34560378316479856 -0.6687806342740092 -0.07401087251904252
v -0.4289366523157648 -0.1510742049330986 0.0669290272017387
v -0.3988816706343916 -0.14072212282229818 0.07002650982991848
v -0.3044649889206307 -0.10644059942631169 0.09554822912558045
v -0.2718415002425647 -0.09122169618250717 0.09920872935711243
v -0.23924475224304315 -0.08027250637391484 0.10761462991417543
v 0.3388347743884474 -0.8764728085091087 -0.04618501483630444
v -0.7968268338741948 -0.4704913365380566 -0.07614086653237886
v -0.8512538952843389 -0.44829974657799965 -0.07458411319683904
v -0.88640109900409 -0.3359785712760991 -0.048861798126071485
v -0.8906428169854083 -0.43079145185377127 -0.07646147216862088
v -0.9277166714814056 -0.3476422441058629 -0.05658597814483144
v -0.7755053052113619 -0.28992467028358065 -0.01770054416821408
v -0.8020787091383766 -0.47345110192046624 -0.07395870660209072
v -0.8201693919857102 -0.4613518415557843 -0.07088830912952226
v -0.8587782145249309 -0.4441934450274064 -0.06744990412046206
v -0.869725544654948 -0.3295099080877688 -0.04585458059713525
v -0.8859262327842349 -0.4310222899197003 -0.07896581097348518
v -0.9067504046218435 -0.347701938183762 -0.055441105808122185
v -0.9407474946764647 -0.35372969940356264 -0.05667264457931898
v -0.909636291156431 -0.42038692936050565 -0.07101311070297264
v -0.9040343040464125 -0.3424196719624812 -0.047635421909190775
v -0.8793738042342961 -0.4324944350220246 -0.07475801928720005
v -0.8695537692259485 -0.3263243569588512 -0.042493106925747245
v -0.8141123333685244 -0.455335848175669 -0.07392742935094318
v -0.8141244778326122 -0.2986068881824505 -0.027726502749572335
v -0.7757267661965276 -0.47764418618595655 -0.07801245906274938
v -0.909551299171588 -0.4246430889934481 -0.07541336945685327
v -0.8779003850408398 -0.3313717800308641 -0.04615431351377535
v -0.8769071622859442 -0.43659583013677056 -0.07583396593788712
v -0.8546064638523693 -0.44377187099177084 -0.0745274145062244
v -0.8334338766621261 -0.4595064360396467 -0.07510928590772893
v -0.8062387485463335 -0.2992716166831548 -0.022312940510419422
v -0.7761883309834936 -0.47810323840292224 -0.0787491936859452
v 0.29394943260811196 -0.7563878607246348 -0.022397501390561594
v 0.2080224076116116 -0.5271904065975577 0.02894316444203622
v 0.18168968052912843 -0.4550461042016069 0.05012740315842935
v 0.3236180287526548 -0.8452025390477944 -0.04851302944251458
v 0.3075090166107786 -0.7945985324283976 -0.031083737348969014
v 0.19294985386696287 -0.4957565683954079 0.04221832455720485
v 0.17830324208140838 -0.449369598630546 0.05082084500133089
v 0.069357205423035 -0.1756979583499634 0.11799392747686883
v 0.14294296784893873 -0.36565757627406587 0.07761643534220876
v 0.21040883855601106 -0.5367761082686656 0.036003547837692204
v 0.27044296623747793 -0.6878375235278543 -0.005549087141797334
v 0.327952929022292 -0.8480476395254778 -0.043621426799897986
v 0.1236679650391994 -0.3038651996272827 0.08787452875022018
v 0.26154540262204296 -0.6739562155384842 -0.0004655636586152964
v 0.28116650153992356 -0.7237607855823953 -0.01641245408102146
v 0.2981638839626043 -0.7718374845384846 -0.02453075445139097
v 0.038090431690144415 -0.07892608476842929 0.13862414448739682
v 0.009366674807137858 -0.004627104511896468 0.1658679591848168
v 0.02151904517064388 -0.046698409737743696 0.15156395994966235
v -0.06285379359378113 -0.01178828891057515 0.1495724712709019
v 0.045430589080238934 -0.08912687102124152 0.1375020878968966
v 0.024402184191344368 -0.03941124590054393 0.14768867574403932
v -0.09493497172187342 -0.021819815214850657 0.14338896624892392
v -0.06536380359671795 -0.01684258089317177 0.14652396600475193
v -0.03421418616482296 -0.002908923873480117 0.1558293851797491
v 0.032812421358722685 -0.0720738060576283 0.14286009934302782
v -0.0820409521606902 -0.015816986369289632 0.14280350962548968
v 0.020124529590506333 -0.046278941383825684 0.14892434104682223
v 0.03941752014084664 -0.08857783908659046 0.13723054768035614
v -0.21598337376118848 -0.07005398942766045 0.11723695614089062
v -0.5224606737002905 -0.19134331801788557 0.04276443993791648
v -0.6830779998989587 -0.2506838585712317 0.005077197025632156
v -0.18996633327364604 -0.06261374643977273 0.11799804622707284
v -0.8151835063347546 -0.30547185275786376 -0.03239349786341216
v -0.9522357812919712 -0.35869672673713243 -0.06992491688176587
v -0.8512797324827155 -0.31838883410889984 -0.041378669736721205
v -0.9634266742443087 -0.36812865184260646 -0.06498722329738324
v -0.43849503549865165 -0.6238755991036959 -0.07045910778986891
v -0.3824580617602846 -0.6572316180520593 -0.07454324165479766
v 0.20501950592940588 -0.5199642046810338 0.03508083061328334
v 0.33735812135575993 -0.9755643426364945 -0.07635343630999618
v -0.6710594208264218 -0.526020786254534 -0.07316311373902293
v -0.4299479672312556 -0.15293365037007428 0.059758787242773316
v 0.359582044355268 -0.9345317903908322 -0.06238242671365253
v 0.01864589108289395 -0.8262871203554033 -0.07870379683521213
v 0.11422377520298438 -0.2756477114573059 0.09443583168724633
v 0.12738499901181083 -0.3305112066975311 0.08659463230870151
v -0.578877480981477 -0.2138816749839458 0.024351929006359865
v -0.46332234042677184 -0.166554485928279 0.05285117995504378
v -0.4463012354985725 -0.6229736562685813 -0.07323396588894467
v 0.08905838395673306 -0.21586766921208594 0.11472491125133993
v 0.35748651198125503 -0.97473733720813 -0.07658646051204755
v 0.0888304698885003 -0.2145694572444658 0.11455609749750412
v -0.788830946666105 -0.297857909709586 -0.022432286466503342
v 0.02754724462643663 -0.8317142945753351 -0.07752363336296794
v -0.7992541300692095 -0.2975867250019831 -0.02827668581729738
v -0.33419170752121385 -0.6717587724720656 -0.07841989215447918
v -0.19894189207297952 -0.7345161076874346 -0.07052344663457917
v -0.361943834003946 -0.13255310093040742 0.0830200778666119
v -0.7057505671190921 -0.26296986292421565 -0.004833901350134253
v 0.2787698275457932 -0.719625924139941 -0.013313383794940572
v 0.15833570345831494 -0.40553745346325537 0.06958451104791481
