v 0.7457594871520996 -0.22124582529067993 0.14774294197559357
v 0.7033026814460754 0.27537986636161804 -0.1798819750547409
v 0.07287847250699997 0.018766246736049652 0.14325422048568726
v 0.8967196941375732 0.2073908895254135 -0.18161684274673462
v -0.22907614707946777 -0.8414472937583923 0.14836423099040985
v -0.5509771108627319 -0.24977654218673706 -0.18181611597537994
v -0.7010217905044556 -0.6752939224243164 -0.18094868957996368
v -0.7045185565948486 0.2883469760417938 0.14641837775707245
v -0.8557553887367249 -0.1431041657924652 -0.18336345255374908
v 0.3903188109397888 -0.5721381902694702 -0.17949511110782623
v 0.5966302752494812 -0.643643856048584 -0.17801812291145325
v 0.28760743141174316 0.645099401473999 0.1481063812971115
v 0.7736361622810364 0.47465795278549194 -0.1923895925283432
v 0.23792976140975952 -1.0058611631393433 -0.18012811243534088
v -0.2396344542503357 0.6312671303749084 -0.18831025063991547
v -0.5451160073280334 0.7430973052978516 -0.19864927232265472
v -0.172348752617836 0.8063973784446716 -0.17747889459133148
f 1 2 3
f 2 1 4
f 5 6 7
f 6 5 3
f 8 6 3
f 6 8 9
f 1 10 11
f 10 1 3
f 3 2 12
f 2 13 12
f 5 10 3
f 10 5 14
f 3 15 8
f 15 16 8
f 12 15 3
f 15 12 17
