v -0.218047037337688 0.5835301168315732 -0.16097985005891202
v -0.2119661008344305 0.5687664492563028 -0.15625804436276672
v 0.241589873864205 0.5189424359325822 0.14660303167908298
v 0.09946442260073597 0.10643959512375332 0.14302315787910388
v 0.19199153856205362 0.3742943502189693 0.14226225418578037
v -0.20949148010051694 0.7077304645289691 -0.18789810817511154
v -0.1815215136572645 0.7755447976388329 -0.17761293528978966
v -0.1297964875322115 0.7898519590207702 -0.1506706713122296
v -0.11229157009242019 0.7911781452644295 -0.13157663829919206
v -0.10874622850538984 0.7900994055382465 -0.13091536623497177
v -0.2149861700500557 0.6831247503881277 -0.18689772034477006
v -0.19788394224049294 0.7306976406271777 -0.17677014674431404
v -0.20106647133388894 0.7333838808758926 -0.17938153836114612
v -0.1394301450568639 0.7924728672379373 -0.15321444683110377
v -0.1058800997019474 0.7879828594716727 -0.131151631772902
v -0.10708486392269535 0.779237160557281 -0.12894546013778693
v -0.12076394092495908 0.7855046755371758 -0.13547079808721438
v -0.1907752906563662 0.7669825404814062 -0.17948782055407672
v -0.17197012922879998 0.79232584001702 -0.1797110034994179
v -0.20855204174722575 0.7050035075246532 -0.17970687078163125
v -0.22608669016062233 0.66737956197477 -0.19039073946789328
v -0.10202015575549321 0.7772624582805417 -0.12618244424602088
v -0.098447983609645 0.778889835779048 -0.12037144504789386
v -0.1270083709994825 0.7926231915239249 -0.1395816989207445
v -0.15189701838185737 0.796368926857222 -0.1727750757929499
v -0.19969946197956245 0.7458668338886356 -0.1808484138989546
v -0.20954759390431307 0.7129603799694442 -0.18093492702987643
v -0.22165125978594705 0.6740602993866758 -0.18524566838138162
v -0.0866263287721209 0.7700125029793372 -0.11371588907747751
v -0.06801890762778273 0.7746571972861725 -0.09937336217132713
v -0.03583216355051554 0.759514542900285 -0.0836994127431756
v 0.0054084999615726425 0.7478593893471124 -0.05386641784448043
v 0.023231767784181956 0.7403496333276036 -0.043161043311077646
v 0.040171123021543007 0.7342258194470856 -0.02832314628155857
v 0.05475603340806549 0.7184033180098368 -0.010323443024133041
v 0.09901778072855713 0.7118008247644931 0.011611812964549448
v 0.15876501392543607 0.6885819666382319 0.06011758622549396
v 0.18690855173341417 0.6789468295382896 0.07980480236012445
v -0.07310777222240503 0.7776339379782742 -0.10915069406579243
v -0.05324970948908909 0.7658018184161811 -0.09154842200410868
v -0.013286004383394896 0.7529658864994102 -0.060659008025316694
v 0.18786028846037955 0.6799622304299496 0.08297065764042776
v 0.10848170649832445 0.7116747688345377 0.018259880631890876
v 0.05483571039787616 0.7243015364828874 -0.018153987305142533
v 0.031405605556237365 0.7378454368382228 -0.028329496838988194
v -0.01825538886663094 0.7475956885364043 -0.06179006445131709
v -0.0673644263230739 0.7738276701258806 -0.09796265299760033
v 0.21736272632178272 0.6712831993346546 0.09522356872468601
v 0.17483019466413596 0.6842784325697707 0.06693419240957832
v 0.11724027607403706 0.7056291426553404 0.02669282302350253
v 0.073240634012638 0.7200752926771095 0.0010742291911481005
v 0.03953764753868037 0.7367802025048412 -0.031013865596177036
v 0.005990050081313341 0.737387927980472 -0.05150981245717477
v -0.018670117036500698 0.7511753364243551 -0.06744493475711655
v -0.06419367680691176 0.7702612116167739 -0.10083523343787687
v -0.0690598090083401 0.3031460109001171 -0.008930017136647199
v -0.05361981060176159 0.2666328038952952 0.011482878932912818
v -0.040955777625887486 0.23921302336819786 0.025005964575029918
v -0.05218466820540028 0.2729931461595456 0.006122229600121033
v -0.03116536146877511 0.2322116863737786 0.025426976972740118
v -0.026265312842530742 0.20206566696026101 0.04890473960128479
v 0.13965772664203185 0.20892565168251226 0.14503315332768965
v 0.15035074728251532 0.28107842957267076 0.14588698117911125
v 0.16917814839953682 0.3117227158728436 0.14358109430055221
v 0.16553606301878188 0.2809196739152051 0.1473344935343579
v 0.1851086215921538 0.3703163725395127 0.1498558502701249
v 0.21885357889436782 0.4453303474352165 0.14792896907585415
v 0.20467947651018364 0.4170922593345746 0.14546597100724176
v 0.24215350036019243 0.5162466380465143 0.1527949079015033
v 0.22829067684440676 0.4819546284055472 0.14352932832888263
v 0.24910256422921817 0.553960870237503 0.15036604399013964
v 0.2676973183827555 0.5847915280988477 0.1423874243662381
v 0.2729275139977044 0.603556840528081 0.1441980340249119
v 0.24805390090811724 0.5285337725922352 0.14627356866107996
v 0.2586905417397092 0.571098820722974 0.14097884942366434
v 0.23039624925928548 0.47835006172660405 0.1437396736760335
v 0.24126056659460357 0.5090626397753167 0.14623432245597157
v 0.20643638348774465 0.4236811207567135 0.1446958259221891
v 0.22095342129678655 0.4544953123916764 0.14474862951827108
v 0.19201422041102306 0.372951539024454 0.1440303089861764
v 0.17589382708606027 0.3002041390806947 0.14457950598743446
v 0.11648386132828291 0.1400143600353875 0.14342759643462996
v 0.052642355195109354 0.054266467370279604 0.12120608296025967
v 0.032315458089933954 0.09716831937172793 0.10292188042684873
v 0.0191024513252294 0.1293109541986605 0.08394661202065866
v 0.011610335135485162 0.13086173158848727 0.0764359299103529
v -0.0026587776637139312 0.16946503965159293 0.06109751991567822
v -0.019401401171728467 0.19853551634937738 0.0495346152885192
v -0.04118746286640129 0.2422612593936504 0.02441862024069558
v -0.02956209663694341 0.21532025902917468 0.03797160148884549
v -0.04816220397976757 0.25519749519837676 0.00938913050928876
v -0.07166388350313017 0.2987290381336536 -0.003383797681139934
v 0.27404367556991877 0.596244005132594 0.15068473580772732
v 0.26344540652235077 0.5603711362860284 0.1393968629183214
v 0.24369949207252145 0.5209661176799799 0.1527250076093975
v 0.23499275038481768 0.4849578793898072 0.1448973539425944
v 0.22161039203235958 0.4496580547892686 0.14586060994525799
v 0.20695924864868115 0.40683264857553403 0.14878285031829827
v 0.17520099320150445 0.3149939852674848 0.1486212730410796
v 0.1671479008618464 0.28663430280050484 0.14615156570549404
v 0.10610277735486434 0.12407864182902889 0.1515905616874484
v 0.09503555034128328 0.08289261063614668 0.14979336777507313
v 0.08084115881807641 0.04247182617527725 0.14561583733995
v 0.023348796403329382 0.11944987902102712 0.08724231136287615
v 0.03437864164044878 0.10104111104636068 0.10260708549664795
v 0.0074981144813543125 0.14959392183808232 0.07434856045816188
v -0.024960212014943455 0.20375058157155543 0.04472680587460366
v -0.009991116240067217 0.1753954541436469 0.057369543149850294
v -0.04885137811172469 0.26647835194226277 0.007834596491385667
v -0.03910650767753916 0.24592623296756586 0.02127982450728665
v -0.07031350864970484 0.2994354036438098 -0.0036679969296755342
v -0.24151341730902 0.6395269115436009 -0.18547333191007295
v -0.18362087286146384 0.5180270112239764 -0.12420348307578222
v -0.161077423013972 0.4755893041065315 -0.1056553889580292
v -0.1462542486196797 0.4411213752645396 -0.08570322987117954
v -0.12753767734453905 0.40241101516800837 -0.0689411002003669
v -0.11153461137729344 0.3921304004442287 -0.06237546824689272
v -0.13778703888740396 0.4317865473477552 -0.07963592125371523
v -0.15686855308580194 0.4618620443651335 -0.10001900163294332
v -0.1736238266310209 0.5039855861836893 -0.11315329129567173
v -0.191732654596627 0.5444822927618203 -0.13636023076509998
v -0.2279074060944518 0.602324175122015 -0.17617954700965083
v -0.11365876000832863 0.3851862652890579 -0.05387399240625454
v -0.16840242363128524 0.46997187435546695 -0.10807259819695066
v -0.1564710556010009 0.45965261936706175 -0.09189891156373162
v -0.1805570880710815 0.5136672359515169 -0.12855863178171367
v -0.20233212008990215 0.5525102701609845 -0.1446767397846008
v -0.10540158821759524 0.367214655980718 -0.04249012767846323
v -0.090319363752847 0.3320569889465514 -0.0279498476628148
v 0.22268770554583336 0.6650627220653813 0.09812306605265239
v 0.25895600206468117 0.6524605627446538 0.12811452972465032
v 0.24082626288127396 0.6629775098742782 0.11700271060832064
v 0.1693345357282087 0.6910308750161746 0.06577704196158674
v -0.09306124670902682 0.3268778969587094 -0.03798179656669905
v -0.08846852609458951 0.3244135770397578 -0.020591460511063028
v -0.10619401342748361 0.37671068368190025 -0.04859667576815601
v -0.10102880934966169 0.3567675386919268 -0.034383955213260195
v -0.12532959335644314 0.4110366280910224 -0.0691858664984589
v -0.22541406233346759 0.5960137286687299 -0.16502227215011175
v 0.2157962831533436 0.4436619355367739 0.15013012271752355
v -0.11273305575967522 0.38835720038781013 -0.05485273742666202
v -0.05430493560902436 0.2697059101105108 0.010659657354861088
v -0.1110596700012942 0.3732630286167663 -0.04216088048970058
v -0.015582199567196524 0.20538763828136408 0.04406577841565149
v -0.013585666655488656 0.18587617165461173 0.059433309274238004
v 0.10777383654978277 0.10614957356444746 0.149152745281345
v -0.025336415874866677 0.7564533205545843 -0.07761391622360966
v 0.061298141006441834 0.7178259503884385 -0.008775226048742809
v -0.10819650997993094 0.36708009109382866 -0.052261009846469315
v 0.10538007702450579 0.12431659008505845 0.14918004552614916
v -0.14904506196572023 0.8048841351995493 -0.15920399250517625
v -0.054029645264579235 0.28274503447787125 0.0027778515201909567
v 0.07366217021731826 0.7206916809470493 -0.003383504777823655
v 0.6173241645163643 -0.17269787537794212 0.14533180177699656
v 0.7208819034125517 -0.21708689619993 0.145531036332776
v 0.7711194997911617 -0.13807766751765824 0.08891358859433189
v 0.783062326406103 -0.10800983234952304 0.060390170718413565
v 0.783728794866735 -0.12410054288870048 0.07454078225660139
v 0.7661223570346625 -0.16892830967262906 0.10437928066864664
v 0.6528988260531416 0.25358861434393365 -0.157426290092728
v 0.6849875612063795 0.26313479083254243 -0.1661805923443964
v 0.773386837624809 0.24475163825111299 -0.18007758246182218
v 0.835695531871001 0.23745873549222196 -0.17841728365643378
v 0.8723970456179326 0.1470347849581321 -0.1350595924491625
v 0.867204517202857 0.12122662364353544 -0.11132379432202749
v 0.8872994691047748 0.17898095544869094 -0.16429889673197123
v 0.8764175468735991 0.1519384033738701 -0.13806089526200876
v 0.8955409755577055 0.1939718425491826 -0.16926439160446816
v 0.8853145736852046 0.16427551444383703 -0.14088789745493874
v 0.8724265520233785 0.22316733537195568 -0.18466504464492622
v 0.8627706839339021 0.11307530207479952 -0.10864712551065167
v 0.8769330899352559 0.1488369952285302 -0.13923148207413966
v 0.8238364357476996 0.23662410220044788 -0.1847212501343166
v 0.8318192038668543 0.0211728096441764 -0.034255168119335176
v 0.8425574284060783 0.047174787623440316 -0.06648748384928932
v 0.8089068279242575 -0.042948023531044925 0.010093806047963373
v 0.8206194951443135 -0.006513742856177439 -0.018013198034742963
v 0.7993570793498213 -0.07035291911524774 0.034908928981843244
v 0.8131767889675436 -0.03979358898467199 0.00256514206859762
v 0.6514529529003487 0.2563070747991737 -0.1501842423758137
v 0.8860463656423254 0.17257290809735834 -0.16247085653624918
v 0.871239869188625 0.13363494548386448 -0.12818713034731644
v 0.8559546575453798 0.08589205333792975 -0.08389758715578965
v 0.8332004908907165 0.03903780988813536 -0.05148618194145845
v 0.8218958753550255 -0.01750963247048496 -0.01436677908892651
v 0.8310046230487365 0.02627056309201809 -0.03669906528191423
v 0.8118770289845654 -0.028363838251566437 -0.0003145314573654099
v 0.796080311765731 -0.08086363493816856 0.030606352205880056
v 0.7739236520431667 0.24396732689661219 -0.18747188653962168
v 0.6473504264849786 0.24922035846731003 -0.1480196165488888
v 0.5716974346381986 -0.15606933853247673 0.14508528608840057
v 0.4067590735317003 -0.09943375946370506 0.14533193782234705
v 0.5611125119028839 -0.15280912147084025 0.13819364394138217
v 0.5210336438624507 -0.14141931418635753 0.14116132008635418
v 0.4454420544348195 -0.11384917120738552 0.1457628812803447
v 0.3609145373764737 -0.08699495449510924 0.14313826890213216
v 0.2850609926307078 -0.05905507459687087 0.14547220382946366
v 0.22094948438767628 -0.03135959007049989 0.14568056358687995
v 0.20500675290842293 -0.0338243846819974 0.1420403138824924
v 0.1438687160786633 0.04475998192138956 0.10505767915125201
v 0.41589155703441305 -0.10186257094933526 0.14793475979580645
v 0.38597978371058544 -0.09325753556162056 0.1451567405344728
v 0.34425782646330727 -0.08043766317228705 0.15079754264769965
v 0.30255832954916273 -0.06906999577585615 0.14404884541014998
v 0.27096063717550867 -0.050422539023425715 0.1423392035197049
v 0.24417441700911666 -0.05078179639149621 0.13987922944311945
v 0.2044369237774647 -0.025794412072707367 0.14746989908987088
v 0.16821954564763936 -0.007622252492774034 0.1436334583408718
v 0.12477662800905187 0.040996192060056856 0.11243671903854302
v 0.7259091948135641 0.26301305069470016 -0.17771772161869198
v 0.8142161535498933 0.23539050313293386 -0.18410478210314443
v 0.7407215360901648 0.26010135027979187 -0.1817019510665801
v 0.6902883872795841 0.2713035040332012 -0.16892371806319004
v 0.6768529465615296 0.2669704294798614 -0.16559701183145673
v 0.7571519902693966 -0.18805938548058135 0.12335542109104561
v 0.6892042079835661 -0.19485934186290052 0.14593413165452734
v 0.6549763295980516 -0.1859874223242066 0.14775518812456986
v 0.5238907130035533 -0.14071027827344604 0.14923265628068075
v 0.48692947983533263 -0.12717718316010593 0.1487316918589731
v 0.440913258352556 -0.11388033341185036 0.14859417285060952
v 0.6667620157966168 -0.19539196417817403 0.14333931235410036
v 0.6253696783008308 -0.1742302509318249 0.149178337060615
v 0.48793921782912625 -0.13384156013827192 0.14344689187489618
v 0.48806420782447707 0.19194681036797706 -0.06955847046415684
v 0.5228331790162957 0.20241887495759558 -0.09125172309024265
v 0.5645922665455688 0.2222073734854556 -0.10798311197421578
v 0.620196890159041 0.2358360247017998 -0.13631677178951832
v 0.6152563148626167 0.23595363105255493 -0.14009163372371755
v 0.589549159034495 0.23170259417910702 -0.12528482086033585
v 0.5556628754517519 0.2184822111421693 -0.10598672460213847
v 0.5204169486869968 0.19849931687695369 -0.08468053301691655
v 0.4793212531978053 0.18518580258733255 -0.06730172147461388
v 0.446924004366161 0.16776428539359067 -0.05300739647492454
v 0.4234402429786312 0.16425662936637037 -0.03188181507264737
v 0.39332640939260666 0.14887053631682046 -0.017624969470975804
v 0.3424571374592862 0.12546787950338825 0.010897208619461685
v 0.31114142334929457 0.11422416380359665 0.024440556564418892
v 0.31794248839017963 -0.069832642800853 0.14662966647743902
v 0.28487875749674846 0.111975421253854 0.03252776671358382
v 0.24873420381217132 0.09264720922956701 0.055416442144158105
v 0.2009161880978052 0.0749881551120721 0.07805123666147752
v 0.16786940567256117 0.05971977202101222 0.09141209522952362
v 0.5976078409353999 0.22567547775655275 -0.13017562037186145
v 0.5068397189271503 0.1957767219345649 -0.07604194535067468
v 0.4656076954686998 0.1824147779479255 -0.05615364984741877
v 0.44081245347405157 0.16653377066552572 -0.051341069277094226
v 0.4125436375158055 0.15654952394373736 -0.03293172387011633
v 0.39133602576779986 0.14698222307413775 -0.01461014116271911
v 0.3378862630826676 0.12539037595371946 0.008445710115912242
v 0.3043242908251288 0.10815615725228883 0.03253081525716911
v 0.2600391260034026 0.09436319116750022 0.044654254506998003
v 0.20968258291956382 0.07099975058199867 0.07530719019960712
v 0.1791601017485404 0.061073902645100486 0.08750012413575892
v 0.11343016972281583 0.037733242650925196 0.12271610151172099
v 0.09920325967726507 0.03240105262921174 0.126330637806848
v 0.6624646631653958 -0.19536825568416596 0.1464946159286832
v 0.1733028543596312 -0.0216206437553629 0.14229047593737634
v 0.1701673523008726 0.05360708991757726 0.09669758793010495
v 0.11041596784812739 0.0041451111779028426 0.1445603997375384
v 0.7873582115823349 0.24590802180119334 -0.17482861273918612
v 0.16832652507893842 -0.017131941386154696 0.13883320338918548
v 0.646646991946546 -0.1854625120708275 0.14626275641144842
v 0.867968422436744 0.1262884873708961 -0.11033046659715977
v 0.7575766668467859 0.25830840049082265 -0.1789532137926094
v 0.5230028560375922 0.19746943593428276 -0.08932383298460835
v 0.8911482705315626 0.18451094313813135 -0.1685257126878616
v 0.4462082956075029 0.17171322679610154 -0.05486129559865513
v 0.8152104461512815 0.23567844276014357 -0.18238502927356717
v 0.5766370707263372 -0.16227745117502607 0.1443964123858205
v 0.3004002883174207 0.11083176635519837 0.0256702160081064
v 0.1341054822605889 0.04439019572134955 0.11819166016706129
v 0.18300076705412066 -0.01777977312842604 0.1449446665106505
v 0.15874159791793577 -0.013756971077416148 0.1454600825506538
v 0.43470018068234684 0.16986191132320733 -0.03870602919850086
v 0.8311768909086737 0.02501082521618514 -0.04336911326734376
v 0.18120398360437193 0.06456700819491888 0.08658494661366384
v 0.17728157202272973 -0.0192282751314155 0.145722793160924
v 0.3440172976986437 -0.07851961808896504 0.14479252893175962
v 0.7634875764446817 -0.1625242475228302 0.10121201968177646
v 0.5620465839057274 0.2111675033201438 -0.1072225205446376
v 0.6163864696175092 0.23660769247215332 -0.1321234820788639
v 0.8925770931681125 0.20120597817504876 -0.18071318467641054
v 0.5605608175543466 0.21816180603604468 -0.10942624688718369
v 0.8173498078923499 -0.009684859379539126 -0.01391181592683709
v 0.4872598692865493 0.19035689264209013 -0.06476550364711317
v 0.24496150794704963 0.09064389738405747 0.05648552489927288
v 0.28743732008043693 0.10211062016193102 0.03251216137312958
v 0.8568143966859121 0.2176887356817105 -0.18318408712309245
v 0.3585418959380564 0.13920262765516472 -0.00028156532119015965
v 0.5536257734063846 0.21478686494379057 -0.10228295088587934
v 0.8281835239523547 0.22838747801098147 -0.17791378042189404
v 0.16259601613301372 -0.014973224015813835 0.1432848393732893
v 0.6074710087715331 -0.17253927795846163 0.14524316289124137
v 0.5497437832202138 -0.1490622988305814 0.14692086991974102
v 0.5760318082895407 0.22296607346271174 -0.1196229760724658
v 0.19309359480094232 -0.020471211711252765 0.14442118963133252
v 0.33454752643308006 -0.07366036796566096 0.15028628912434244
v 0.7833242522790071 -0.117141724128239 0.06883678468794552
v 0.12886424937901028 -0.0036080812453962853 0.14180027435423026
v 0.6167234709404874 0.24243894839513638 -0.1361908143953579
v 0.24634440857220247 0.08756948051024077 0.04782580810436901
v 0.2873001939329995 -0.06032665555841308 0.1437196763823481
v 0.6610350885471554 0.2528855426198326 -0.15919335894073375
v 0.5654811500507898 -0.1596692685704925 0.14679887646156714
v 0.7752431326730657 -0.13589472392727983 0.08603472864044664
v 0.325390972988919 0.12215283121645731 0.016469122813086705
v 0.8711627643543005 0.12719848712164009 -0.12379454377488401
v 0.7912751047612706 -0.09359842578707664 0.04810864614202663
v 0.3146762612625539 -0.06578569138947905 0.1458366117421803
v 0.8248936853720109 0.011474425774182666 -0.034954446712981334
v 0.7312109896648907 0.26526175265575164 -0.17905491474167912
v 0.3952721195961605 0.15222706591626659 -0.020124070518729338
v 0.6928814892958595 0.26820848112470774 -0.17529042785739996
v 0.6612420765771616 0.25366877602879534 -0.1611553351555574
v 0.4614535105590623 0.17725238119398998 -0.056393273039138325
v 0.6316509089074245 0.24107604410795214 -0.14463796012156932
v 0.5755605941504066 0.22792837751907205 -0.11545175264815082
v 0.21702160258675035 0.44890756137411697 0.14650431923078974
v 0.21727662249946095 0.448847388619992 0.14894280862384005
v 0.20151609061671732 0.39454725962263976 0.1428656347396521
v 0.16718318578017075 0.30960748176952607 0.13896483281457547
v 0.17879856058987303 0.3397143972362007 0.1443389534051091
v 0.16077808198476612 0.2677738060286832 0.14212853982392004
v 0.10410798867584346 0.11614462426116319 0.14212998334294985
v 0.10841359883373289 0.13963727351860758 0.1456582250381524
v 0.09037083059649048 0.08028674905355015 0.14208254011222005
v 0.07187757856186544 0.031400607702622596 0.142482483498101
v 0.2796980564957593 0.6144006209988233 0.14484831455290914
v 0.2572228462409756 0.5681255451144387 0.1440444278876635
v 0.25675185666982836 0.5393640768335957 0.15192651322695633
v 0.23557916973261553 0.4936552558293302 0.148330601539751
v 0.1822778414804845 0.3430225523134225 0.144973587044876
v 0.1706997611169138 0.30051847242252133 0.14095773651042875
v 0.15636227093448807 0.25873849360752027 0.14418178478669136
v 0.11396446341093062 0.14920624900738216 0.14048959808874661
v 0.10847105185564954 0.11190172800850204 0.14627236267014596
v 0.13172264534419864 0.032122483950547974 0.11478707575713896
v 0.3257510459799956 0.6270038145607695 0.12039958571009758
v 0.36066196370181647 0.626995675171732 0.09471715535552734
v 0.40518342655165446 0.604448164155705 0.06442669936027133
v 0.45329209257717357 0.5863936069944907 0.03178792087579546
v 0.49482985410555513 0.5781954062631572 0.00783193959001378
v 0.5358241212481044 0.561432127761134 -0.02004811752917419
v 0.558016265197948 0.5483718488665501 -0.037818037604733644
v 0.6130879076962649 0.5320360112533611 -0.07753123607089889
v 0.6378880353590753 0.5221228822354568 -0.09551217348911871
v 0.7184966381399657 0.49548418558306506 -0.15510968353040086
v 0.7514819115704962 0.4168063649372066 -0.18337186041900147
v 0.7471361086723489 0.3911505507253778 -0.1866765748470464
v 0.7080005947575371 0.4914473078308162 -0.14851148279412107
v 0.6882595120096782 0.49776172341531044 -0.13209586204227516
v 0.6599434504111621 0.5090197992031985 -0.12334993764868558
v 0.6576669714159284 0.5206539502027083 -0.11070057120057704
v 0.6337085231667383 0.5190505375477351 -0.09470553676812041
v 0.6616486862152802 0.2597171602445804 -0.15851154312597293
v 0.5934368179633946 0.5345791158053346 -0.06804829989305931
v 0.5507515538319512 0.551570775459252 -0.039444150791009096
v 0.5215531862959603 0.5596495532813823 -0.008328793506599964
v 0.4912016029500405 0.5773713229279487 0.004505647214378791
v 0.47177536140404613 0.5767444081521096 0.020936231821406037
v 0.439486506466484 0.5923949276827953 0.04215899025793884
v 0.41804484391351004 0.5979024743501593 0.05609567455815444
v 0.394697346962467 0.6089095631081161 0.07706624591592307
v 0.3741885200291626 0.6162007356162593 0.08702348368133653
v 0.3505108628285249 0.6234158728603851 0.09784993594218051
v 0.7401396107332529 0.48620089724979 -0.1704100951640241
v 0.7519949696193934 0.40387610549008635 -0.1872605389060554
v 0.7181966508514065 0.4959902481905958 -0.1471914763031029
v 0.6754321466725867 0.5078589271778624 -0.12825562647258187
v 0.6351340839632187 0.253757445333959 -0.14334933348520762
v 0.6388363547523765 0.5201047540282975 -0.09981633052820475
v 0.5985075320894282 0.5333650049162478 -0.0725130448351561
v 0.5734301697048303 0.5427263280409111 -0.048777868418618885
v 0.5489521057107427 0.5531647661043609 -0.03231067087685367
v 0.49821117310229446 0.5663940557373711 -0.00231012138913052
v 0.45465054608233657 0.5847824121124592 0.032019797342928806
v 0.4622292699130924 0.5843925190647854 0.02759467168203462
v 0.43316029152316005 0.590888141122884 0.056091371131705876
v 0.39963180052916225 0.6007051542251453 0.06728904103054466
v 0.3640816841314822 0.6192084305497153 0.08889266074809676
v 0.7101576339554407 0.3000267259805219 -0.17772435372474632
v 0.7629144033415902 0.44839209886599374 -0.19180738712350076
v 0.7331947361612027 0.36863579280621267 -0.18131131566840045
v 0.7179279759134126 0.3232058837452585 -0.18843848985425296
v 0.7306948293563235 0.3510977566534738 -0.18151014229049778
v 0.7076846272469685 0.2888395363087546 -0.1799804252018944
v 0.7107003032901884 0.3133025644001226 -0.18488821216229803
v 0.7371158824941683 0.37085959868929536 -0.18117013751551053
v 0.7260575884883167 0.33121286205263656 -0.18569037938055818
v 0.7107021900924856 0.29582895457535474 -0.1813771281651053
v 0.6630612746787357 0.26130198603090693 -0.16068881766057844
v 0.15907799258481278 0.28356385223789377 0.14248178917175736
v 0.19224512735962426 0.3645344127469861 0.14368854544357337
v 0.20447033762241643 0.39360398381273487 0.1461030080413854
v 0.2315950136612613 0.47740094292197105 0.15122150662653963
v 0.2543132369322188 0.5422790184589346 0.14107430581979563
v 0.36489406869164875 0.14554619170855276 -0.010987572289202387
v 0.4076281209871514 0.15320089060311481 -0.029828484723157443
v 0.4438254638629792 0.16712660459028203 -0.046973351422017584
v 0.503104146309922 0.18901978508428421 -0.06938148175156379
v 0.5707071197504764 0.21794355595662696 -0.10728847731960792
v 0.5879406835734777 0.2301727904351368 -0.12035341555716078
v 0.6224845876974714 0.23721381676384973 -0.13952462027837037
v 0.5898466500139651 0.2348772527633696 -0.11860593078112878
v 0.5636896270262702 0.21313100592196996 -0.10850002815313392
v 0.5206737682945989 0.20086728008281396 -0.08959714108441955
v 0.4853052773836258 0.18256220850979493 -0.06754965655395952
v 0.4495968661656215 0.17300736905395722 -0.052536606995384975
v 0.42591056751832085 0.16441257169398524 -0.039456872918656086
v 0.322159137604669 0.6324970805153396 0.12190999741264033
v 0.38713976410364126 0.1533112221905249 -0.027125747067273963
v 0.25096516486588766 0.5407511873069403 0.14612518366286684
v 0.26549155603538976 0.5824909931525885 0.14206389383898818
v 0.3532265795372454 0.12961797313280027 -0.004124003197331494
v 0.23497285118685068 0.48018931626920197 0.13961489685475867
v 0.23677454163105183 0.5087804329499017 0.14942077259878833
v 0.3164021588014681 0.12280548447776146 0.020537836763812968
v 0.3198967477169491 0.12342617725157191 0.02175051628743242
v 0.20465943399029365 0.41173009905229063 0.1431462266203503
v 0.29026595488223605 0.11124145124568256 0.03574532090855232
v 0.19023375204619267 0.36230806547429567 0.14539224030666567
v 0.2594328843299691 0.08716465929221844 0.04640828538486766
v 0.2083148444797678 0.07432334284531002 0.07136182154431141
v 0.1789849599756977 0.060714183249205744 0.09350314634658698
v 0.11838346692451845 0.15798725299544916 0.14121511746073376
v 0.14925092485310976 0.05472678478839263 0.10524921253844051
v 0.6208292808492403 0.23718115772766213 -0.13671540213222383
v 0.5913580166383235 0.23293314365951268 -0.12720017272120707
v 0.5270516945917144 0.2051548776278566 -0.08750606767732663
v 0.5082299565895679 0.19372214434400373 -0.08117621877104463
v 0.4949289693504188 0.1880615499312939 -0.0717849318173488
v 0.4685115832847427 0.1821668732545676 -0.05736088500635269
v 0.4203584055599201 0.16014301271299777 -0.03321204002320885
v 0.36217384524466933 0.13560681606851135 -0.0031326868921149314
v 0.3222033605705803 0.11807808870738191 0.014075710201785671
v 0.30473596848290946 0.11538563947274601 0.02051775452950234
v 0.2858973512873965 0.1043240853470665 0.033412048410524135
v 0.2581450592385942 0.09008266149860804 0.051004344426414515
v 0.23969738015127012 0.08253784326332594 0.060744653628796504
v 0.31447125545762056 0.6362062755416555 0.122144672823367
v 0.2607912371010472 0.5692537709308346 0.15339794299147788
v 0.2042509350564845 0.07685001564864594 0.08096676384155638
v 0.2210305293157644 0.46118491180792404 0.14530962342405
v 0.2102454738136532 0.4157034312346931 0.14493068093214098
v 0.19902596027646732 0.38472475456841543 0.15153731807118104
v 0.18054634891701166 0.35045249859812666 0.14261734730034373
v 0.178356799898724 0.31534308674254785 0.14136243469713938
v 0.16603437834697274 0.27929170231884987 0.1497270068967425
v 0.14867922323721952 0.23529628754984866 0.1458083394831436
v 0.15376744624576016 0.05221202222761529 0.10579457799886727
v 0.33629812454339153 0.6263198998985622 0.1101745598038306
v 0.5524953856300033 0.20915970889029786 -0.10690948476097718
v 0.6127286286639685 0.5322155924605022 -0.07429348569148807
v 0.4958236268615791 0.18928941219869552 -0.07025505016045058
v 0.43178358053130883 0.5953677689534493 0.04723845395142308
v 0.5980706843454634 0.5295855713117741 -0.07131573423402873
v 0.6588223985681914 0.26131836195811764 -0.1602522020882738
v 0.7459826673613027 0.3923010460910522 -0.19162283829033494
v 0.24344451763282882 0.0880850776114916 0.05535507216019786
v 0.11670378644374065 0.15267718461308147 0.1403400294826572
v 0.07848252641650484 0.04047065413507905 0.13982644253912
v 0.7117351248020837 0.3095636229161636 -0.17905853470294797
v 0.4177635195947347 0.15774489424391622 -0.03305308115461771
v 0.7220509818774714 0.3299658968503355 -0.17955789062033428
v 0.715984211056933 0.4945303451340917 -0.15220092102888194
v 0.6382391791928066 0.518627277538476 -0.10860332606738146
v 0.18948412979950022 0.3586534908189729 0.14792914867932916
v 0.21861774099002462 0.07959499002978175 0.06640898639860877
v 0.15226872923782667 0.24806127955505722 0.14519751602850545
v 0.3948433565606582 0.14346575292584657 -0.01991387797935496
v 0.6103734466780142 0.23683653997092224 -0.132802310366596
v 0.6119316114055546 0.5341788322901497 -0.07940001219509302
v 0.4743953924245101 0.574790721011711 0.0129788277841538
v 0.7414816654871 0.4854037091953218 -0.16332948164542666
v 0.6538698036878449 0.2527592897438651 -0.1460383700980787
v 0.20482317163659702 0.3982974862603699 0.14244390394389916
v 0.21769683891930997 0.43865794603962993 0.1454545979156037
v 0.7150063173552539 0.318438651512798 -0.18619336171893908
v 0.32673172546867174 0.11550752339121864 0.007025334335407866
v 0.1153265621275922 0.13676566740461132 0.14401170432064297
v 0.30926342470413615 0.6412297906074594 0.13233620694693057
v 0.35048910494080193 -0.5041885776866307 -0.14076286339438637
v 0.08675307166341438 -0.0010061156974319283 0.13011836092119147
v 0.733631219648021 -0.25186226990026733 0.12513328503990628
v 0.7137730280973001 -0.3137816482109853 0.07583775676693683
v 0.7260034222343197 -0.2910556239045871 0.09260057000998025
v 0.6872973380481164 -0.3841492782093867 0.020161515369803044
v 0.6899068718052872 -0.359446179481855 0.048025881112007014
v 0.6631820881237671 -0.4617332751024438 -0.0350092818369325
v 0.670222781659327 -0.43208702821717354 -0.010466140793696907
v 0.641999958532799 -0.5078024328305818 -0.07023983085486961
v 0.6581038637973287 -0.48259424395527034 -0.048663355792833006
v 0.6311235652200459 -0.5540668792542404 -0.10436334564566369
v 0.6396877561418403 -0.5220469186198605 -0.08497223405437201
v 0.6041327615694743 -0.6382511212984365 -0.17694676006036397
v 0.613876088405613 -0.6098805592793128 -0.15107645228961813
v 0.6192212271656253 -0.5820554989866198 -0.13237273033174132
v 0.5399945514444852 -0.6184836202621081 -0.1733661198215547
v 0.49502482598938813 -0.6049082269957957 -0.18162660129377747
v 0.47150664186117064 -0.5983540900425438 -0.17743898210349535
v 0.4142385387876456 -0.5811514221818544 -0.18388960919620997
v 0.7266127022747978 -0.28027047678141653 0.10011589492506824
v 0.7077388135964428 -0.31173569825479047 0.07661006543249589
v 0.7038809696257997 -0.34587730914782694 0.05457118883218782
v 0.6924484871998603 -0.37402075637957305 0.031142226693702427
v 0.7104515082479084 -0.3120955537938604 0.07860871583559513
v 0.6985916095555181 -0.34352177962736485 0.05085447822609651
v 0.6900705443951003 -0.37373583629054963 0.03181945742676761
v 0.676581352361883 -0.40158018583451954 0.0028457470170022404
v 0.664219266097635 -0.44092655747108384 -0.01864121674573746
v 0.658952576722416 -0.46782108483315904 -0.04549457282722826
v 0.6480859424893323 -0.5029208574958492 -0.06647067713587629
v 0.6382514496654368 -0.5281877378419714 -0.09351098465906091
v 0.616647604993327 -0.559905891929043 -0.1170860286116828
v 0.6151233117416302 -0.5941216118861998 -0.14247588530199837
v 0.6008281925266036 -0.6265248523297843 -0.1654330888828478
v 0.6400396824724758 -0.5192919680722814 -0.08415247385715877
v 0.6279879948507169 -0.5507463140391509 -0.10834558633128182
v 0.6198358848536567 -0.5884946780923157 -0.13959762210996612
v 0.5623897032793389 -0.6311921568376451 -0.18258316898902716
v 0.52155347265441 -0.6133202390413508 -0.17343201766916408
v 0.48291647955255085 -0.5996926672620962 -0.1820105675861203
v 0.4814276304160355 -0.6018610197718572 -0.18267767846711738
v 0.4495194190804084 -0.5986818796101083 -0.1740104241241018
v 0.4191727269063672 -0.5808102669537 -0.1791365378655918
v 0.7141260539288877 -0.20904937746044533 0.14764731745485524
v 0.6784771222366345 -0.19725560632892897 0.15185157408200495
v 0.6373575858930317 -0.18644768109623683 0.14915538978050527
v 0.5830031926122545 -0.16269356594818926 0.14604209114286118
v 0.5463159010197842 -0.14802866954774713 0.14925709397766845
v 0.5263135904671722 -0.1488122198277595 0.14351155895073983
v 0.5136126651027625 -0.13684074896152446 0.1451580705216707
v 0.4872837756159361 -0.128292830040994 0.14312393357721087
v 0.47075651049039835 -0.12590422591609357 0.14512410702469233
v 0.42890930650836523 -0.10735687899743022 0.14940922274290133
v 0.38428775311040453 -0.09379724155483957 0.14853218465019669
v 0.36126580079356924 -0.08375721562388669 0.14601071830393486
v 0.3765862897508531 -0.540271412914383 -0.15393514210599218
v 0.3065867840567128 -0.06673674850368135 0.14158495911598948
v 0.35902991628769365 -0.5164186234822765 -0.14848147262262207
v 0.34150592428982823 -0.4842123710695601 -0.12710943828363416
v 0.32294632889137515 -0.4521052501136502 -0.10835204989014825
v 0.30945454552266094 -0.41924166567606425 -0.09605961129108571
v 0.2919098054499709 -0.3883616041233147 -0.07877555908942016
v 0.30171667293433146 -0.39302085465157754 -0.08371234480472728
v 0.2761878957605191 -0.36159757241012286 -0.06383069101324171
v 0.2573328618757646 -0.3290954957333112 -0.04544549275448284
v 0.24428622179780932 -0.3058345235488941 -0.029966455439650635
v 0.2236311518508696 -0.2711256106093195 -0.015051565840082428
v 0.20761297768655101 -0.2290075001087533 0.012115734761840028
v 0.1905740839996609 -0.19793278458180075 0.021899652039516885
v 0.17622987218158265 -0.16789882659624647 0.03864958012914243
v 0.73754027249246 -0.24784517310096316 0.12657420835203856
v 0.6984847632120729 -0.20423686945573638 0.15383149368062699
v 0.7214925008976153 -0.2846015074625084 0.10007388290962005
v 0.6730571885044454 -0.2007886403999426 0.14805642958951576
v 0.6290770732211836 -0.18049233541876122 0.14799003403908015
v 0.5834308756832565 -0.16911216700784384 0.14906971138420022
v 0.5874750420468524 -0.17388670860944982 0.14756340071909527
v 0.5581921401399202 -0.15016347911518776 0.1423154390438336
v 0.5306897008555667 -0.14795616441097414 0.14588405296847562
v 0.48931961529659584 -0.1259669432182686 0.14713240518313853
v 0.36188469580511556 -0.5173671280312764 -0.14995190221660248
v 0.3781867335205638 -0.5483962151226842 -0.1638456931965134
v 0.449107938099321 -0.11831434955635982 0.1438342145924788
v 0.33509933124549235 -0.4741480880010751 -0.12348632471400607
v 0.41647138939466505 -0.10831769896183184 0.14305103942927916
v 0.31464558394007214 -0.4211811491394892 -0.09872809485352135
v 0.3233490886562639 -0.444109353898271 -0.11140284616993132
v 0.3941779399879005 -0.09718763760241739 0.1517111927096131
v 0.2953043155325471 -0.3921530903192583 -0.07790327519170032
v 0.30650145843212995 -0.41420916943036 -0.09265882443805583
v 0.3541753360700537 -0.08275816652950074 0.140740634200691
v 0.27014451285879737 -0.33725264384644266 -0.04744212004361475
v 0.23765300534177478 -0.28565761299032 -0.022854001466736575
v 0.20797711865066304 -0.22966123356288887 0.008426815679871198
v 0.18033289436331124 -0.1723083824000816 0.03945069150654415
v 0.3405053416535494 -0.07356355883004499 0.13967512439706153
v 0.26159800432957814 -0.04975844921563801 0.144793172930507
v 0.24126110316289 -0.042686132318164205 0.14563470236152226
v 0.21550018288822198 -0.035937739336756064 0.14537005902159633
v 0.19211456793764986 -0.02832777703933957 0.14501153833190777
v 0.17938582265554676 -0.01740569040595433 0.14665968406081661
v 0.13872597572168607 -0.0020172839362409415 0.14371650983527157
v 0.3030303192624376 -0.06861466163218703 0.144852659443899
v 0.2784514299111763 -0.055606591266784765 0.14398952336205786
v 0.25033203206506477 -0.04287062573842826 0.14487177106992774
v 0.2053394751108661 -0.027368625964889298 0.14379808375910055
v 0.17111076122294142 -0.009261493057340444 0.14612617426017574
v 0.1249990880358055 -0.07556688441834562 0.0956264354004244
v 0.1305794874026901 -0.005060122321498002 0.14065250121946163
v 0.2368566683977827 -0.2930433324522142 -0.025368782544316588
v 0.22276747771695185 -0.2673574068416564 -0.00974766143325528
v 0.16433987233089722 -0.15231417214153664 0.05796440978674982
v 0.14682143798558886 -0.11663304982475772 0.06518785298281224
v 0.27816282329984715 -0.36592900278877655 -0.06735045512854582
v 0.22505311788126556 -0.2527163840913627 -0.007017440082376895
v 0.1946258893042785 -0.19996281203922694 0.019447104379211433
v 0.15778596423941735 -0.14391855242387558 0.056529139952319
v 0.13494108967634663 -0.09320752748904854 0.08389220133670124
v 0.12637359066285556 -0.08794729340019801 0.08582627273328171
v 0.11222185493496374 -0.05190451826842058 0.10480903229398249
v 0.1092421954375697 -0.04753073192618579 0.10537127647023894
v 0.09517548121922305 -0.014710401445976424 0.12231106591243125
v 0.6194946056672973 -0.5957510523108888 -0.141435933120426
v 0.41107033164967427 -0.5780704261606614 -0.17529519651503014
v 0.11337519576861513 -0.04540689193551132 0.10675526235832694
v 0.7104694826073196 -0.3312420128110519 0.05789083522910937
v 0.6414006096351431 -0.49782210636859275 -0.06714925915332905
v 0.4570563850676567 -0.5979216193050938 -0.18144533513366953
v 0.19443644265986884 -0.21195973083641212 0.015353338892476979
v 0.25415538828459505 -0.3263419362577615 -0.038729458743024636
v 0.6911781680239671 -0.3750007159191178 0.02283701800153136
v 0.364975867436007 -0.5386159574879799 -0.16068934939995907
v 0.12832962289371072 -0.07569247086788146 0.0920307198151136
v 0.659754117036228 -0.469060737100765 -0.045458880265825646
v 0.24700055994403114 -0.30004085778765477 -0.029800621392592708
v 0.22349168048854115 -0.26364306691149275 -0.01025212706728568
v 0.19871416513998177 -0.22754650042283753 0.010179223401782832
v 0.2635866039318881 -0.33779670129911693 -0.053692060359508506
v 0.5168047810763549 -0.1329129259862134 0.14335455107994471
v 0.5894348749870308 -0.16295235162580796 0.14864002890198016
v 0.6945580875493615 -0.36711223068071663 0.0414567168891332
v 0.14903574824849952 -0.12488199075436235 0.0625657829850928
v 0.09425407832283972 -0.023585953375485833 0.11807320784600171
v 0.6329202321629789 -0.1757559762311759 0.1494927819075497
v 0.35485017444812916 -0.5166149962889348 -0.14753667189207523
v 0.1110475557797145 -0.059111975332018375 0.1011200203249531
v 0.6805832495975226 -0.41871843760796296 -0.009099753702474025
v 0.3513272527937977 -0.07613426066037733 0.14373059152006598
v 0.1997380215105916 -0.030501934755868956 0.13954498041376834
v 0.21414086361744739 -0.23628504812975384 0.0059308587841674
v 0.470762880823117 -0.5976162428083996 -0.1803896036584519
v 0.6294796544079767 -0.5376546791914107 -0.10088896582214346
v 0.6890482185838377 -0.38067130870769156 0.02623461548005662
v 0.1497948118801591 -0.12204378034337995 0.0645745856652293
v 0.6472081973608569 -0.49815360732770664 -0.0635846360703914
v 0.18166856725931194 -0.19620161884790369 0.025623525535176474
v 0.28225780116938826 -0.36138459857386646 -0.06833317599842578
v 0.33298588827138514 -0.46459174141462034 -0.1211750696306151
v 0.6616832253058399 -0.4493467246745773 -0.02711106828935028
v -0.03911947390756765 0.056142865599712016 0.14631289071272727
v -0.588227787633856 -0.23941090217502975 -0.17931838089522756
v -0.6402292719919263 -0.22061379832675862 -0.18350910331393017
v -0.6782164652020932 -0.20914241353409482 -0.18090103570755922
v -0.6918049841152263 -0.20356414037016787 -0.18026759246664303
v -0.7380314886197867 -0.18942322324825245 -0.1857215422925131
v -0.7785519772629874 -0.16926805295916664 -0.18003763939315504
v -0.8285384813683729 -0.07497840154743499 -0.13396009049728566
v -0.8105982410840232 -0.1576199506272133 -0.18294751107085278
v -0.8396750754894439 -0.09273895417524386 -0.1494872856282753
v -0.8500162147381938 -0.12615561422075763 -0.16830836401329674
v -0.8411016687156216 -0.09565296978657953 -0.14850386109993868
v -0.5897837966588729 -0.23935879390434453 -0.18016278349042836
v -0.6367970586775168 -0.2235982970249842 -0.1825302410003185
v -0.6671522156842495 -0.2124417644193418 -0.18710990842113645
v -0.7010321997016152 -0.19686144057703153 -0.18243503892173762
v -0.7339860680033844 -0.18899702767530893 -0.18410010562708629
v -0.7348384657606951 -0.18293035657918513 -0.17890966586961426
v -0.7745146503510739 -0.17288554523562388 -0.18089165946718994
v -0.8066277347895648 -0.1623299847052632 -0.18703119709471797
v -0.8376455217493844 -0.08479623708499898 -0.14542740117333855
v -0.8440036792205016 -0.11945896696987736 -0.16337417014710542
v -0.7267429938977246 0.22063247073185474 0.09372329503818225
v -0.7271434239200341 0.22300868221007422 0.10037558405411154
v -0.7189889288223719 0.25259512226057207 0.11688774608119801
v -0.7536773859740686 0.1437627135212874 0.04168182950599396
v -0.744217771140562 0.16705564824893623 0.05448905519957284
v -0.7665496574103073 0.103291763635538 0.008789539962161275
v -0.7558449132171625 0.12826641980925768 0.030994571704649063
v -0.7866141969225504 0.0623759169153785 -0.023389942205430166
v -0.7783889244108823 0.08966060170747644 -0.005324850715189219
v -0.8152822705485042 -0.02265114756136116 -0.08674827293769681
v -0.8035083436781062 0.003149497472555664 -0.06513498437014727
v -0.7956571652241072 0.032900129917160174 -0.04804393956272935
v -0.8176774612077716 -0.05557839163761623 -0.11208393750604695
v -0.8143075778828075 -0.025541748870955654 -0.0897951125026441
v -0.8289258024310525 -0.06902212053007326 -0.12665105153229528
v -0.7206413605153194 0.24712084796200148 0.11713299182971913
v -0.7243002907885802 0.21771380221499673 0.09816634228550858
v -0.7378292899413372 0.18919202434459292 0.06708636499254392
v -0.7535914011961303 0.15935025535331296 0.04229200533934291
v -0.7586091671619443 0.13060334317841032 0.016010594092027694
v -0.7704617151429217 0.09080592098255802 -5.7444272933126865e-05
v -0.7781306933620461 0.06329183172977917 -0.0248328413955453
v -0.797003244445553 0.021942511684033345 -0.052406564775979936
v -0.8038764110774511 0.00017410940277650354 -0.07882954081801315
v -0.8158910586136195 -0.03317371791789209 -0.1008625788347368
v -0.7645388297545757 0.10744613013017425 0.011497403758211802
v -0.779259983739027 0.07489146685986674 -0.010075589112705195
v -0.7932720381826803 0.040143775311903045 -0.04383952020149462
v -0.7954486158111187 0.008549937647596123 -0.06777412484579415
v -0.8128143982108818 -0.016187117481273088 -0.0867554335214608
v -0.824898162269015 -0.05823265290028605 -0.11922359780803628
v -0.31986283406508287 -0.14937407251960436 -0.06089359826528634
v -0.4215452728200924 -0.19446227349149817 -0.12147257947803557
v -0.46185852778890274 -0.20986516372785555 -0.13366435776296676
v -0.49575879221017805 -0.22598935549868107 -0.15548490639327708
v -0.5312814420544436 -0.23777487318753007 -0.1717310884152195
v -0.29719525400064195 -0.14019911471837881 -0.05010133354220736
v -0.32296748874882003 -0.15484622723774305 -0.06196746983848488
v -0.36246340173065583 -0.16948670452169784 -0.08027563334467175
v -0.42071320326639317 -0.19201363696482365 -0.11973198128516852
v -0.4659571371487868 -0.21328694738347653 -0.13561137269596918
v -0.49022786580966204 -0.22228169773485895 -0.15144678710902784
v -0.5188888189966914 -0.23536677808133216 -0.1643630114638404
v -0.5180540922723388 -0.23279009969311354 -0.16806346811813797
v -0.5384410207021825 -0.24909773387063744 -0.18028251883730204
v -0.13322382679686143 0.08781678839270282 0.14146592341753986
v -0.16903341120904034 0.10283771970861383 0.1433142664415772
v -0.18787889105183964 0.10541225793428831 0.14810371020659305
v -0.21744435302586737 0.12004886928193655 0.14112668045301355
v -0.2361425865305671 0.12636821355875424 0.1471985502319792
v -0.19524394581078275 -0.09507311799945788 0.00016842440181764722
v -0.2586999830597875 0.13608090963364983 0.1428312511556631
v -0.2320821159890204 -0.11121280978758052 -0.022106213150247148
v -0.30141840155753347 0.14421177817744898 0.13985467343359603
v -0.34368479292711507 0.16982948078238888 0.14811796666825672
v -0.3655345905694185 0.17092880657438395 0.1418954851609661
v -0.4017660418800191 0.17865519265487595 0.1456102589555589
v -0.4182982757905137 0.18952199789414773 0.1422299986274608
v -0.44144340859536363 0.1944025048449253 0.14440727747479878
v -0.49317084404658956 0.2144323215864893 0.1426170394897393
v -0.5309031604740069 0.23052239015077697 0.14230529019740898
v -0.5915047287963563 0.24986324769622703 0.14530955931475908
v -0.6155301374667834 0.26067711627814344 0.14112328742734154
v -0.6303137630448833 0.2654575933302013 0.1498053710667707
v -0.656830267970133 0.271807032741242 0.15506930409556793
v -0.11736388441595781 0.07401149862053091 0.14293263651575158
v -0.14880486505297943 0.1006520400764879 0.14637938172622184
v -0.17560249499216957 0.10501641171346746 0.14502114773552716
v -0.1755577699063964 0.10450883542810152 0.1451314451619819
v -0.21563106187332692 0.11554270686820811 0.142976277267291
v -0.2554850091673678 0.1309292566345769 0.14282034672121388
v -0.2812835180498465 0.13394499572361138 0.1405320011410387
v -0.3117573091001617 0.15328616955300153 0.1410639527656016
v -0.34984363142371955 0.16413224364792262 0.14395261111933996
v -0.3879248581703243 0.18434821525570788 0.14363678349167078
v -0.3914927346481839 0.17503057233213692 0.1432390653627415
v -0.42037127343243824 0.19034330166370406 0.14382633907523024
v -0.4427801655525874 0.19497016773166229 0.1474440152216182
v -0.4439859839846731 0.1978658012266614 0.14940125159962134
v -0.4840076984986818 0.21284845283400713 0.15034539854369122
v -0.5294661719511456 0.2260378017588172 0.14240464745137257
v -0.5275500343417381 0.22453356188974755 0.14408756292508457
v -0.5552071900315685 0.2321033294165839 0.14532267263191195
v -0.5866477681793341 0.25356952257031556 0.1475395586952425
v -0.6279192937364726 0.26236678704147015 0.14143330528968998
v -0.6612223392499317 0.27385093555020174 0.14871086113339205
v -0.7205288273477454 0.23790381812745887 0.10678509643167906
v -0.6913351316639942 0.2842630072808533 0.14731612897826052
v -0.0519334812231315 0.06330340524739964 0.14407446690938236
v -0.09575421456724584 0.07567220449896052 0.14510595023813966
v -0.07544542389671313 0.07172051582265154 0.14703560071963057
v -0.07657102536363757 0.06820532912581079 0.14454099044627203
v -0.20579713481224168 -0.09949685664618718 -0.0006428180439541006
v -0.28214007723487167 -0.13452036678767423 -0.04480638019122349
v -0.36028263379268716 -0.16613604427417997 -0.07976454530551923
v -0.39478601440798333 -0.181525536617397 -0.09962722027184566
v -0.18366772768589168 -0.09245994372177362 0.006656639759960522
v -0.21581548119983665 -0.1054518502386787 -0.006592513346141245
v -0.2536284246169293 -0.12027937415503756 -0.0243062318994014
v -0.32231469570403504 -0.1476465632866448 -0.057142602286556085
v -0.34116362852670723 -0.16100244240378558 -0.07888002958887631
v -0.09456507127588551 -0.05349843798268849 0.05698596780519251
v -0.14438599669090751 -0.07716118204554162 0.028183660940613694
v -0.1365972119732995 -0.0697276373329607 0.037329339539585484
v -0.17796706308496818 -0.08431669367651515 0.015363184325943986
v -0.12532756108790732 -0.06495525957790103 0.0393334842700233
v -0.14483362201697025 -0.07791826677864826 0.028336804114290536
v -0.1673916297121512 -0.08255985263268614 0.018665159236994317
v -0.19255179726563254 -0.09772337956663277 0.0036882539164920986
v 0.04262212374126231 0.0022827871447948737 0.12273047320249254
v -0.005183747377378272 -0.01639199497753301 0.10563953863204414
v -0.013637069081242688 0.04844785839537963 0.14274759173191365
v -0.036700024184799424 -0.02510156313470319 0.082773296393083
v -0.03544360734655071 -0.025953076645281927 0.08632221532900483
v -0.060569796217168716 -0.04136087903434838 0.073606826755319
v 0.026097555050115195 -0.002055417160439998 0.1214455095957665
v -0.008042992497508039 0.04432699539421799 0.1414620580226047
v -0.009934109849719428 -0.0128947726215928 0.10679310343841421
v -0.035938927542697584 0.057401492964337684 0.14168340450395575
v -0.04406778993527442 -0.029872339788615497 0.0817829306765887
v -0.09147861796632623 -0.05031961674932387 0.05862374597139378
v 0.0682047929723118 0.012487772290230277 0.13741336998925713
v -0.7481476671403794 0.162597176317303 0.04687432779720912
v -0.8213869635994201 -0.05771114748474282 -0.1209877877961022
v -0.7208994215821147 0.23300566289030306 0.10727075354299076
v -0.15653626328816939 -0.08169921013400794 0.020523973648255436
v -0.8234148735251245 -0.05462838058619523 -0.11001285891170431
v -0.34959184008966504 -0.16032912141966427 -0.07765676829784006
v -0.7425737978825502 -0.17990122864262637 -0.18689666463627758
v -0.7678766806887773 0.11362924825040588 0.012427796721845491
v -0.49532321441907184 0.21463864229406945 0.14291223487264534
v -0.5084996119762191 0.22367994297822003 0.1491817542072203
v -0.7709800717369487 0.0905549101288151 -0.006497735033219709
v -0.15184602418760146 -0.07873733018238828 0.029270242990794927
v -0.45040352848791365 0.20490438290721794 0.13915597013452785
v -0.1941324960215406 0.10876173778741807 0.14470502227813062
v -0.6367530887276897 0.26686234296176314 0.14621931359242069
v -0.3816686783310898 0.18157962367592256 0.14412878789746275
v -0.4766018962631576 0.20745993919719993 0.14332395446898247
v -0.7785231330279955 0.05646782226658641 -0.026896871788175215
v -0.7361912236802094 0.21231010911794299 0.08631009630162095
v -0.7988111530413434 -0.16693013735693246 -0.17556635721270344
v -0.8229244912618565 -0.051331342828700166 -0.11159344898251532
v -0.4363334836947845 -0.20360771782312398 -0.1260904692049438
v -0.7162170029443092 -0.1945265292798199 -0.18411508428358264
v -0.717135997473328 0.25486533196253364 0.1140469622665743
v -0.7793460833408333 0.07420159694406406 -0.01646854342745538
v -0.8449394899605864 -0.11526315015990848 -0.15978718664292907
v -0.45903660223688453 -0.2087666833121399 -0.12952427820077517
v -0.7284379626028874 0.2157783204887002 0.08945814244816794
v -0.41176818497096895 0.1819091715534007 0.1470580044302993
v -0.3487833563130659 0.16248926465506536 0.14667425416531263
v -0.7840363020005886 0.05578190272550117 -0.028680128678392973
v -0.7539737524011155 0.1400641500821796 0.03038612735720747
v -0.7549696114273226 0.134035097916182 0.021475711266258808
v -0.040646149746516515 0.06027665344547263 0.1474491749959718
v -0.39132004293854916 -0.17853026216231507 -0.09591591622518511
v -0.8297396092403245 -0.07097654098175124 -0.1265673450514197
v -0.07715151580881392 0.07434831251774436 0.14609351062625175
v -0.26710917495516495 0.13317055405710007 0.14484674869908906
v -0.3733852629784474 -0.17796348261156172 -0.08830023094919892
v -0.8289795249094125 -0.08626422256015413 -0.13891569685985333
v -0.7111166633889154 0.27955743089127477 0.13922354160034117
v -0.8232389922049329 -0.04885105591730781 -0.10769713861424354
v -0.6636965457149003 0.2784584251829384 0.14285675563192546
v -0.6315212479481475 0.26110691750730636 0.14805535519068108
v -0.6092144243846952 0.2561218060648133 0.1476380465644446
v -0.5798325408760241 0.24500443110597486 0.14682098980866298
v -0.5394310190487168 0.2310139787573467 0.1399322865274937
v -0.4963054193195864 0.2147370005394915 0.14455878372525507
v -0.1156088021726277 0.08641358064468316 0.13990614809983823
v -0.15132523581877802 0.10261838982502963 0.137539092220659
v -0.20637386917749453 0.12150207591232093 0.14604176529870713
v -0.26140680788637816 0.1353868328195309 0.14947934091080467
v -0.27760576103266704 0.14090615429602066 0.14262431465067904
v -0.3158773672411103 0.15655414714217245 0.14352889500163743
v -0.3939846399428902 0.1836393668697979 0.14418677235040175
v -0.4451838181988992 0.19746566278615144 0.14453877976537863
v -0.46014955594805584 0.20865356603457968 0.14419905346734402
v -0.5173277375371975 0.2144532646543503 0.15132658253854708
v -0.5500025197959275 0.2362065058986326 0.14579616392257705
v -0.6120209705298765 0.2547618000162347 0.14863271341868745
v -0.12194532472723174 0.08511806972292639 0.14352627277267735
v -0.15285668091478583 0.09747470256923318 0.14258643143892563
v -0.2206367341558505 0.11514339810325945 0.1454775013128506
v -0.2617270492026059 0.13255970228829475 0.1439652084708497
v -0.2829244902652369 0.14030841951182071 0.14568384713085092
v -0.3155917407180525 0.1528074828074632 0.14590673775041277
v -0.35492732427463647 0.1697642330712306 0.14480262517581735
v -0.3948732283207694 0.18382974041928915 0.13920796432598206
v -0.4207778120006139 0.189534230959195 0.1449479832305804
v -0.4484547054094136 0.1999818703606913 0.1497105028877076
v -0.4917321967945443 0.20764544239360894 0.14639282230529757
v -0.5608629865072878 0.23723634329011598 0.14750263140702424
v -0.5922701852871747 0.25379394332895094 0.14396752902793009
v -0.6243054816366316 0.2626949651260604 0.14468101210343895
v -0.6623725877231487 0.27309644838767283 0.14413469132777101
v -0.07454611734540437 0.30856951965952534 -0.015422828192493503
v -0.05414290670324789 0.27612774294132686 0.013516867135399468
v -0.038768454098544514 0.23730903877729023 0.02837088368445919
v -0.036633775892027966 0.05794631137349739 0.1440447229902045
v -0.014376931523642627 0.18378431543850093 0.05083448572446694
v -0.03630190385865155 0.22765892003622817 0.03577577124087413
v -0.05073890294145475 0.2650022649962 0.01207609422558209
v -0.06940625963267812 0.3136133277317681 -0.00993250658504913
v -0.07034156718420284 0.06867400815691668 0.14359255873718424
v -0.0832586933249685 0.07121545736557218 0.1453023342877896
v -0.05434512881791044 0.26279920445925414 0.00873348866082719
v -0.21960208001999945 0.5988891448055746 -0.16941839591382207
v -0.204139932508576 0.5594912717449428 -0.1523567426294382
v -0.18922799784064623 0.5299310210135774 -0.13057684224143318
v -0.19537868532185093 0.551439067507331 -0.1387229127846315
v -0.18283101868660584 0.5162762925377254 -0.1267245704237737
v -0.16351212397338274 0.48120998729597614 -0.10924910133284557
v -0.14827107387242308 0.4455686698736822 -0.08487368627950324
v -0.1333399392866194 0.41839941135485936 -0.06885477322179562
v -0.09088827259747909 0.3391303550241018 -0.027059492097089244
v -0.10552055105602165 0.37013133491532 -0.041342585466531724
v -0.12981883056636717 0.4151711631485906 -0.07366340650918127
v -0.15100120662654304 0.44413522302446734 -0.08889930242648462
v -0.17196292882440317 0.4924176614765047 -0.11802894839662628
v -0.18969806249418536 0.5355201666202924 -0.13599643542831907
v -0.18767245602731022 0.5225989469125064 -0.13248430902043223
v -0.20384140421429414 0.5702346150354203 -0.15025472919982263
v -0.22979012634938098 0.6064985753406573 -0.179178861148762
v -0.659355272481113 0.26964901042684286 0.14901573668575516
v -0.6861697527976661 0.2829778810338556 0.14817637936097014
v -0.10332231297996909 0.35139780753526845 -0.04175430143975947
v -0.1290984786504025 0.4234629533299188 -0.08443047052507538
v -0.11882315556009791 0.39206174944234085 -0.05812637547437936
v -0.16312079305912067 0.49127236973501254 -0.1131549390947199
v -0.1506265874079698 0.4587585093501534 -0.09802753635604564
v -0.1864489038701143 0.5286765076318294 -0.13539609432629598
v -0.1674203662765383 0.49819822230325767 -0.10927728029115313
v -0.202803829063968 0.5525454266589656 -0.14544711399360907
v -0.22826350429273265 0.5981012102522336 -0.1712804380019931
v -0.08146327914010673 0.32446157624827504 -0.021081173408980622
v -0.6950388661267755 0.319841161468026 0.12563682140382126
v -0.6679212914799539 0.39523237867044647 0.0693385488455473
v -0.6787945647339397 0.36192122301983437 0.08655890858329539
v -0.6489360542509546 0.45451108850604033 0.014263071228264897
v -0.6588645608094081 0.42544214232803623 0.04296631491454989
v -0.6696445043831725 0.3944209417148921 0.06301496051907612
v -0.6399338942969353 0.47057946525776273 0.001072669592492883
v -0.651345216027881 0.4476395713357774 0.02913448102058592
v -0.613086624507305 0.5547344932941586 -0.052608521992205955
v -0.6227825406311704 0.5193546077524154 -0.03448001095021951
v -0.5880013885170529 0.6137489949137525 -0.10104812793555307
v -0.6116835177091763 0.5761426268873948 -0.07578789278521825
v -0.5664775468944292 0.688186084641084 -0.15837392419437354
v -0.5745729238763916 0.6594590578300081 -0.13191575550184037
v -0.5914245757329383 0.6327011052600665 -0.11098788203788115
v -0.5557211469461709 0.722082085452327 -0.1796627231540479
v -0.564605462234516 0.6935580965974294 -0.1582592743376412
v -0.47979607355165843 0.7214994446847638 -0.19763561271222727
v -0.4248980362573709 0.6975891871275239 -0.19166576310318656
v -0.39261712393184833 0.6904940267020707 -0.19289792812061607
v -0.31469935509807356 0.6572090586095535 -0.1895568306788874
v -0.26615689279722776 0.6393237065025407 -0.1858909982748224
v -0.2458677049113433 0.6322931671207088 -0.18966507111872655
v -0.5785583186252115 0.6537876748512961 -0.13411580048242386
v -0.5639689195476989 0.6809360946458026 -0.15151838759794428
v -0.42464359039504124 0.7016895504775037 -0.19541794407986263
v -0.3616893495685283 0.671358032694674 -0.19608079496298528
v -0.30440520112587033 0.6560702727001001 -0.19698878446876214
v -0.2512555356268533 0.6330191324530097 -0.18843971361709144
v -0.2785182755247282 0.6428494909736692 -0.19518563777223882
v -0.3664993387286372 0.6726428387106806 -0.1977934233334723
v -0.5739737276265788 0.6595038244766778 -0.13399087986254973
v -0.5581437964067488 0.6981487802818855 -0.16771764877128176
v -0.5896014696362835 0.6040792804010263 -0.095198414818106
v -0.5818012510422365 0.6438878415785477 -0.11709060101799994
v -0.6363708088543798 0.4834996327367867 -0.005990041283232775
v -0.6696685625581474 0.3895619774752018 0.07182219760893804
v -0.6581953421603673 0.42021386094273255 0.0432611843464488
v -0.679249565077845 0.36515057233961257 0.0934660908781097
v -0.2424284120682335 0.6342391039830115 -0.18553178797818662
v -0.27606654241721384 0.6489398998948335 -0.19077196002423336
v -0.37296779586919193 0.6814444493094725 -0.19418602721931968
v -0.511225691316355 0.7267404442316766 -0.20417118246312813
v -0.565186307039269 0.6877182504582494 -0.15720660470394118
v -0.5819833397202347 0.6375275305166425 -0.11545697457646574
v -0.6006981781944962 0.587389948926336 -0.08128173864138127
v -0.6147476737813556 0.5390113859490979 -0.04542689835618276
v -0.6315058178340398 0.4955808062407576 -0.00916710391788016
v -0.6513272462418328 0.43771796342673425 0.029672677043309923
v -0.6699342874301774 0.39816186117896796 0.06272263964585043
v -0.6845810356115027 0.34114881870424174 0.10233726542523891
v -0.6759396940979067 0.3698459966751381 0.08450898909734647
v -0.6959667054164945 0.322635824175158 0.11761858129111599
v -0.020480691450240313 0.20501585559483024 0.042671202614304564
v 0.036575211420328504 0.08608468503345051 0.10705259474751155
v -0.009166272453648481 0.1734655829032938 0.061460463136449386
v 0.06217004503157194 0.04521350690981079 0.12425221929657271
v 0.02308790958210118 0.03374679945053802 0.14421364367836417
v 0.03432877825326487 0.10094685488849851 0.10103207799102602
v 0.01754910435267905 0.13879995207215698 0.0746820619190796
v 0.018824136093243904 0.03792149688196038 0.14465148969359845
v 0.017997202450140835 0.11808083376216766 0.09090788358733407
v -0.0036334124689444518 0.05295920813021563 0.14349162491367787
v 0.01014326626113203 0.1502776515555657 0.07774341442488558
v -0.03812480034175022 0.06089195174197109 0.14019724144501913
v -0.025837109695456387 0.2107777200216931 0.03850543661102931
v -0.10883129884561372 0.3735368128407828 -0.050959811917065626
v -0.10001653585783606 0.3527508957740251 -0.035442863207135814
v -0.17772347145168824 0.5141017457185214 -0.12574908933800363
v -0.6649140892217911 0.3839408858368545 0.07261971969667673
v -0.6681703734609818 0.38737703790705 0.07194870817732234
v -0.3373151233718148 0.16188815251227645 0.1440802292336807
v -0.29848208069116 0.14371486377310339 0.1486459902390873
v -0.6516701070234826 0.44354084770622865 0.0358872537567262
v -0.32424472199742244 0.6579588028942993 -0.19114403445975475
v -0.6257597038570543 0.5056332900380244 -0.024564385858023084
v -0.5922925497450321 0.5975582271574041 -0.09102654548065395
v -0.3194923659359989 0.6588638105207845 -0.18600851287665537
v -0.08380728750332174 0.3286532669446419 -0.02321575523655938
v -0.23286702040063045 0.12904890028485502 0.14717858235028436
v -0.49970294669640986 0.2185772088530854 0.14120640606400775
v -0.20036145640060646 0.5471858228149437 -0.1433655605424697
v -0.6701101843730937 0.3944259854049649 0.06581839403848593
v -0.09505437635028617 0.33683059642651225 -0.02906983559419086
v -0.10726148480541468 0.3766214671567299 -0.05445285721184687
v -0.2632720010618595 0.1355514853026699 0.1437994050770102
v -0.6814829946706348 0.3625870887751896 0.09457450489508795
v -0.005694087719172348 0.17401694191594913 0.06142623494897609
v -0.6003421649919001 0.5907942380991087 -0.0869700201012414
v -0.6585417141943813 0.2732686640807176 0.14550947376432377
v -0.6314454085440929 0.47957386808315766 0.003114348681273145
v -0.4433541205672666 0.7048914151222152 -0.1954986975920294
v -0.4863930813872724 0.21167493015725006 0.14991579017613965
v -0.1954458657866793 0.5374031097658059 -0.14341817077801433
v -0.054198737354459195 0.2649915327439509 0.01239214868845778
v 0.05692859002645086 0.04438806780116591 0.12957682884712127
v -0.22050520454737532 0.6008578856113055 -0.1709989232121278
v -0.13428284718591343 0.09090718235001284 0.14908745452727684
v -0.4996484725014626 0.7288866872306542 -0.20302065992008209
v -0.3349848662412566 0.14879702627925892 0.1507960946878741
v -0.5886886920030924 0.6183428516090778 -0.10083569073677573
v -0.3253618922456818 0.16443995163950292 0.13949669051318983
v -0.41608278222332895 0.18196431753481804 0.1402249170914614
v -0.41693254712065 0.6948514517017471 -0.19995488254474228
v -0.5692156908421047 0.6604991977415375 -0.13469725139438854
v 0.04616596988907151 -0.06766037606414532 0.14382315365709766
v -0.2440483541706975 -0.11848591514276717 -0.012003239630261783
v -0.33058760603878184 -0.15721858262909497 -0.0675283841520557
v -0.14585931749846462 -0.07361226333240303 0.023162318414825772
v -0.06750427558989786 -0.3841699471324214 0.14765765926920538
v -0.1753406845213148 -0.08400998267383027 0.01310336284133371
v -0.100083382241912 -0.4880827569604486 0.1435881788060636
v -0.08749945733496407 -0.4523376372402843 0.1442474730909867
v -0.21529010398989618 -0.10575114213568623 -0.0013590088257890449
v -0.12575490279543083 -0.5533322292224053 0.14563390769441964
v -0.11305691346578081 -0.5214003213063305 0.14666061088137353
v -0.2459195767703743 -0.11010561805915027 -0.027000824444775078
v -0.15110059089119446 -0.6320877914363489 0.142776036720804
v -0.13582708710231903 -0.5930287498638301 0.14612178898325204
v -0.29183395643259746 -0.1344056995269873 -0.04492053214655038
v -0.17340376455974543 -0.689558510131921 0.14435816418036418
v -0.33076909936368165 -0.155662688285218 -0.06877879039225669
v -0.20875801924406037 -0.7716481441976055 0.15096184107256716
v -0.19160223232171178 -0.7299525157474293 0.1500653976675234
v -0.36052121378463703 -0.1700119436861652 -0.07993287122428867
v -0.22077034095095852 -0.8147334598381263 0.1449806226147996
v -0.21325744212623549 -0.7819477895268824 0.15122638499769253
v -0.39257531789053635 -0.1808791550683871 -0.09976132256373778
v -0.42954325473894633 -0.20357790910624834 -0.12181320680706033
v -0.47129590829734264 -0.21844595946690995 -0.13973333242970706
v -0.5012923910483421 -0.2322603308620374 -0.1556476209868577
v -0.5342458429029797 -0.2428850312954996 -0.17605636425800814
v -0.07420556160038018 -0.41031490730764814 0.1481602957216993
v -0.09071237674094429 -0.4436566416591842 0.14661815766720343
v -0.10384833911396292 -0.4824266541717521 0.14733504013954696
v -0.12120702519001332 -0.5170582776100395 0.14654361297381
v -0.13177896070101136 -0.5626839422118587 0.14499779728604897
v -0.1432333952502808 -0.5972266438300947 0.1527337045090147
v -0.15769377946662408 -0.637703961947611 0.14701554388494184
v -0.17158416479057426 -0.6780697823024188 0.14617557318303961
v -0.16449080906896327 -0.6605288603567803 0.1475672875760487
v -0.1829417476558679 -0.7033365011610663 0.15134209253797562
v -0.18957338547429498 -0.7407598296904582 0.1497787205090514
v -0.21293091242673112 -0.7849934711123145 0.1485992308906317
v -0.243923559820534 -0.8349296514150063 0.13449532123950958
v -0.12636076862980514 -0.06866273123040217 0.04167467113077879
v -0.1693967816523559 -0.08875603053086616 0.021027319591626258
v -0.20375330619666782 -0.1029578833169923 0.002674635672181972
v -0.23935243310721968 -0.11488988303422046 -0.01332028176974906
v -0.27659017538889213 -0.1286097229584263 -0.038371781020817834
v -0.29805901089794745 -0.14065045832790887 -0.049473546823479826
v -0.3365594132335159 -0.15905617654094623 -0.07158484214058064
v -0.36456347709084913 -0.17049714371630662 -0.08167950214834131
v -0.4089440118054413 -0.1893213097191399 -0.11141472502486634
v -0.43908956818562694 -0.19962137926732806 -0.12432120249423523
v -0.45287694889880853 -0.21184544679205913 -0.13458385038837273
v -0.5011172564087573 -0.23194934635252085 -0.16013291603137444
v -0.5271251556198391 -0.24312215273503898 -0.1779812421061087
v -0.11055373144583247 -0.060489560721365916 0.04568120731992143
v 0.033268866959682654 -0.09279032301954777 0.14802634106218732
v 0.0078489741459045 -0.17313964395067755 0.145308854534436
v -0.07530266034384982 -0.047895363970103286 0.0640639658646926
v -0.06892363518905614 -0.3729199295100196 0.14215819873830093
v -0.058107524759036015 -0.3361873626087563 0.14661112253790154
v -0.07560864755954408 -0.42682755314124393 0.15279322254041972
v 0.029624186184172653 -0.12217077171367152 0.14506111938192195
v 0.009519928395591466 -0.15445356586949288 0.1506715787316892
v -0.004995769614028164 -0.19203815159942011 0.14224730014113524
v -0.042003455837373554 -0.3031451411917098 0.15119746116461483
v -0.0545317705302903 -0.34258577570998633 0.14301417416064524
v -0.06565394692733281 -0.3789004932345312 0.14577478135983735
v -0.06550601398895799 -0.36600457473415615 0.1441679470606596
v -0.07813415194770351 -0.04840850581372003 0.06470145196090918
v 0.06712797587768926 -0.006234815998128221 0.13842131845589586
v 0.05536392597442908 -0.03445810390737256 0.14798304840165594
v -0.004575447040044189 -0.014759273598025027 0.10455913138308197
v -0.04663427960136527 -0.0328741991718573 0.08599674701436527
v -0.07769266059187774 -0.04387962690718236 0.06334217087313536
v -0.10151205821490226 -0.055503050499543384 0.05489261108831783
v 0.05646430026881614 -0.02656610865753972 0.14602042101532423
v 0.00930449940592908 -0.011100462496486439 0.10541047241844971
v -0.030465635103070866 -0.01784470287664286 0.09302845257244852
v -0.04540162205715181 -0.032597724835314576 0.08347105225613055
v -0.05602933120492501 -0.04218441187905813 0.07810226411516948
v -0.27865779330578094 -0.8290000844282669 0.11515916574555024
v -0.323128061923306 -0.805578155109924 0.08644959999539348
v -0.3442457410059398 -0.8021568476432336 0.0713477497100065
v -0.36917886411266604 -0.7906548068929492 0.04716349642500696
v -0.3963772680674763 -0.7807036346860405 0.028730443679404197
v -0.4255451531516033 -0.7735060593741243 0.012640725538240706
v -0.4545311450713676 -0.7627346789729351 -0.00783073261342133
v -0.5883919981235407 -0.3359362035815638 -0.17976481718051954
v -0.5730346812426376 -0.29997017196965586 -0.17914408271193027
v -0.5071106245546878 -0.7471473091219095 -0.052121828046047126
v -0.6063358487383538 -0.3954642356103141 -0.18200851933457704
v -0.5287122526618797 -0.7332298329723198 -0.06344582115863547
v -0.6253975709118008 -0.4462670801295812 -0.1821441668876083
v -0.6046734230038285 -0.412874910645702 -0.17916503258373703
v -0.5542904801362993 -0.725866588015901 -0.07457112792057602
v -0.5708905180403777 -0.7211903695389902 -0.08941443490760508
v -0.6385824966960227 -0.4955188165678233 -0.17745398503320556
v -0.6239562051131142 -0.460179346181773 -0.18602651217141986
v -0.5933468924147899 -0.7157292655679498 -0.11023026957418272
v -0.6624130784053607 -0.5561740241808525 -0.18098260556956505
v -0.646415231429834 -0.5211553922097479 -0.18263494979037082
v -0.6481352886785655 -0.6913664678197118 -0.1439683380310223
v -0.6835850438227784 -0.625609652374476 -0.1788304000191686
v -0.6691955452386075 -0.5890346525654458 -0.18417067397406842
v -0.6926742759435693 -0.6450401793157071 -0.1801641220533354
v -0.6855937034141374 -0.6789015910702187 -0.17410350503426564
v -0.2817925786265863 -0.8206904642060677 0.10837128058291813
v -0.33030637661363577 -0.7996931798652547 0.07575055307035626
v -0.3631751638284403 -0.7889527487127906 0.05748436801084541
v -0.39324618793457633 -0.781650585337245 0.03277905495485357
v -0.4320715034480998 -0.7713917014426154 0.010413426626476756
v -0.4707075298032091 -0.7563815209666757 -0.017113571838817652
v -0.49841179904985206 -0.7485295119781085 -0.038949609938848065
v -0.5247365367700982 -0.739238184734541 -0.061236702456222494
v -0.5165413227023528 -0.7417669283314647 -0.05359773096753801
v -0.5641068262110989 -0.7256521189605706 -0.08602753351733677
v -0.5651787946753671 -0.7203928030559791 -0.08308740613607753
v -0.6049676393342562 -0.7069644194662916 -0.11522685119180198
v -0.6084175746562119 -0.7097658613587386 -0.10882440981678128
v -0.5719528517159502 -0.30240268049315344 -0.18541219274128998
v -0.5835338684616008 -0.33698255547012823 -0.18259213862308418
v -0.5930721589011305 -0.379182956009657 -0.18028710414868138
v -0.634595399165232 -0.6995752977808025 -0.13395394626260965
v -0.5750332263552952 -0.3102534638738856 -0.1825968493750896
v -0.5865273749289587 -0.3435630815379351 -0.18210710798952642
v -0.6007242100309468 -0.3878403256192097 -0.18659999349953565
v -0.6074245321136843 -0.427430414941125 -0.18164134352579775
v -0.6240570609689572 -0.4683875173211933 -0.18269463804952568
v -0.6417960274812 -0.5001831104098868 -0.18488371488583044
v -0.6550208781582876 -0.5407133951323732 -0.1805657382137076
v -0.6662358303433683 -0.5808558007613087 -0.17797416513348518
v -0.6818336213616465 -0.6203780889603372 -0.17905239926398445
v -0.6616681100323745 -0.6916375203916628 -0.1521802071247933
v -0.6938726067812212 -0.6610061021345107 -0.17905912602068286
v -0.11658150988821318 -0.059992501578499745 0.04095868997618082
v -0.5668847917175759 -0.29337244548009944 -0.18656475823910718
v -0.2406232117619618 -0.8317464444034995 0.1356619824351476
v -0.5588201877386403 -0.7189234938188729 -0.08256815886826827
v -0.5805561148684769 -0.32949804621805656 -0.18819749417596723
v -0.5840267843065702 -0.7212118996894193 -0.10222515010862784
v -0.5908098002780314 -0.7109087622715979 -0.10478461875046514
v 0.009899991139490147 -0.012590131349823298 0.1109754177036731
v -0.31112425192530163 -0.14723854337347822 -0.06273434449121865
v -0.5787783487529773 -0.3297980867449436 -0.1786072931548262
v -0.5130175199471778 -0.7382831183797501 -0.05251630058917646
v -0.44756117248012234 -0.7627815124854733 -0.00042798908592433247
v -0.09163886608525064 -0.4551008623303607 0.143920490188141
v -0.11861451980852626 -0.06663138629308404 0.04417660766065758
v -0.13147337987889657 -0.5623926887370316 0.14572814333947887
v -0.46081011670487715 -0.756063740297563 -0.008494111129087682
v -0.3834750918472439 -0.7887741609608224 0.04405390421787264
v -0.6122773354765862 -0.43554661045674714 -0.18136315627178107
v -0.2021380119982984 -0.7653975504260222 0.15041136298413518
v 0.01801024961956155 -0.1481526299484648 0.142938162274446
v -0.5424944672878124 -0.7311247903990429 -0.06960347101798589
v -0.23466110934066134 -0.11264670778196528 -0.015238711319613055
v -0.6138748805041218 -0.4340879011612219 -0.18836618555101386
v -0.045078966731151596 -0.031890798442972365 0.08001778450898644
v -0.1703202116023338 -0.0835937483496572 0.02321261840853517
v 0.046936980469647255 -0.05452769196755631 0.14718787035878148
v -0.18115491796795574 -0.693158445669368 0.14899990259972437
v 0.04672694908046815 0.010863120110362884 0.13158096351735607
v -0.06978044173004101 -0.3826128618728222 0.14859874548623422
v -0.005612863769910403 -0.015567032834250526 0.09848064298675688
v -0.025919781477543823 -0.2593022556235008 0.14453618066983687
v -0.1785402203946441 -0.6975135274366567 0.14629917354532063
v -0.2941410902911152 -0.8219600475983929 0.10345344670333081
v -0.20658273154002996 -0.7779578035654038 0.14752711578410568
v -0.10201207175030713 -0.059166503163359016 0.054850459632786085
v -0.5991540255424435 -0.3862943341180265 -0.1808094928243541
v -0.4272913027452441 -0.7750517721710798 0.011098960357011392
v -0.2073072825312345 -0.7844839350903157 0.14383931454555815
v -0.0676127591307245 -0.04092551248252477 0.06890766914776181
v -0.5280805375038047 -0.7346180721807708 -0.06253718479708388
v -0.19574448964480073 -0.7705828200905662 0.14841821373476374
v -0.15575833692078458 -0.6425415733278615 0.15174108109028242
v -0.050767500840979356 -0.3268839723401935 0.14439539886071492
v -0.18428141038438295 -0.7162885113920874 0.14844030490324142
v -0.6687374671237349 -0.5860264856272067 -0.17975960351117468
v -0.11435417285166029 -0.05556747453525524 0.0479781504416803
v -0.40825317389207744 -0.19099122893361412 -0.10963583466255106
v -0.0196471064330866 -0.020166939150574617 0.09253609355674675
v -0.6767728157165481 -0.6087896521263215 -0.18300492302091398
v -0.14888906707917451 -0.6038934054273148 0.14986139439014534
v -0.6646949663449437 -0.5741124043145764 -0.18497050579374286
v -0.031034452093733914 -0.02368811254289085 0.09071411441216658
v -0.30166946122715804 -0.8128680827552485 0.09631932189610072
v -0.1870160874666131 -0.09562478063615767 0.007245127622164213
v -0.10113683889933996 -0.05513719001341428 0.050972969507557996
v -0.6543439224370599 -0.5490501612908618 -0.17603320143658005
v -0.3156325383929959 -0.14509919648197872 -0.06088220917901139
v -0.22082708533697593 -0.8033661435271233 0.15177449495207093
v -0.10921120651690339 -0.5160290194496499 0.14795077097605305
v -0.1507668333599163 -0.6042675711758392 0.14685518092916786
v -0.14339284743350175 -0.5755593144288155 0.1479230549051794
v -0.17295493465419595 -0.6905875223230381 0.1490244977888729
v -0.1623617662607162 -0.6599110301541703 0.14695146246843563
v -0.19992469466016563 -0.7456959909004344 0.1437354126014791
v -0.18604527707548846 -0.7181466812711367 0.14819717568217353
v -0.2105547558655933 -0.7951762246868942 0.14649499588060455
v -0.1164868318476337 -0.5260038256447733 0.1531815282926933
v -0.13458316551214503 -0.56785233660674 0.14840954218284425
v -0.14937958352177147 -0.6092103882981611 0.14557174171989123
v -0.16111201099521302 -0.6439101007604948 0.14923505192775408
v -0.16998117716570083 -0.6722399165716332 0.14669322261093992
v -0.18272942825255517 -0.7149946618576993 0.1487997753979998
v -0.20235357181292044 -0.7507996361587415 0.14844630209879162
v -0.21524686699176368 -0.789816761363292 0.14988726554524062
v -0.18363132047000777 -0.7197317399398947 0.15085950106449836
v -0.19873761432132483 -0.7532265559673931 0.15275907126381982
v -0.21388976235665988 -0.7873411509790715 0.14541366999112101
v -0.21891714044382626 -0.8266826562346895 0.14965735943422495
v 0.3857501300429877 -0.5500540259623868 -0.16215272603201203
v 0.3759848215006419 -0.5419994152057862 -0.1631051277838162
v 0.36291749693132447 -0.5098983192156182 -0.14356200498484661
v 0.3459549896037173 -0.4801383623002504 -0.13262712054359319
v 0.32679272048569374 -0.4513100625180616 -0.10734742375952702
v 0.3084368095129529 -0.4235762333810769 -0.09448127910676726
v 0.3194263028562565 -0.4457199550733497 -0.11581880043291393
v 0.3045475795708661 -0.41887176001652704 -0.08941973553357045
v 0.29165782250509636 -0.3876740632506109 -0.07679977147631621
v 0.2747911177423864 -0.36134595818770265 -0.06479894669513211
v 0.2579862212505761 -0.3277929187791382 -0.04196325118561158
v 0.24678935268149665 -0.3028706704384613 -0.03187333009003855
v 0.22885819103422436 -0.27342324851091354 -0.010666695424226434
v 0.20862481412680303 -0.24059050781332234 -0.00027782895255668927
v 0.19684950976252566 -0.2062930047288667 0.015089589910253842
v 0.1819232738353049 -0.17787923463362967 0.03407149764605111
v 0.16711481263809908 -0.15710470090199993 0.04270819548478785
v 0.14671609808138442 -0.13148368679643477 0.05616649061234106
v 0.1372148066589593 -0.09933436916448488 0.08197845792904589
v 0.026457981973532673 -0.09565609391897789 0.1481553280822563
v 0.012766540485095774 -0.1490537187611608 0.1413694895177608
v 0.023806849344900287 -0.12773675602866616 0.14728117689957318
v -0.001055610568045161 -0.20655867529607094 0.14304898858204895
v -0.04953261563299549 -0.3437796749420506 0.14616183952654258
v -0.04652973247918229 -0.3186762859535444 0.1464980873871282
v -0.08764388936713502 -0.43665843047083247 0.15002608481813529
v -0.07088571376402994 -0.40780702429995935 0.14174265057917457
v -0.10075340530321891 -0.4878789754445196 0.1487210591605858
v -0.09506779877765675 -0.45784293201587273 0.14852813250977367
v -0.12570818194185612 -0.5428292279828462 0.15071516659196157
v 0.39293517379159076 -0.5668153182546343 -0.17332630979343183
v 0.3588876638127372 -0.5224082439599879 -0.1516555672781323
v 0.33488489016809037 -0.4727322897362514 -0.13394554570983788
v 0.35301574698962906 -0.5012027038840058 -0.14178241849076278
v 0.3173887310943338 -0.4407426833495247 -0.10582118460968809
v 0.2901138662340284 -0.3833560558219121 -0.08169632042333082
v 0.2521095692541276 -0.3050216435845027 -0.03313376256790836
v 0.2602054792788672 -0.33511702957461864 -0.048164887837046824
v 0.2282897210658287 -0.2699654512971303 -0.0220825087973169
v 0.2439070070115086 -0.29854269305491127 -0.031055475695932887
v 0.20993139344964712 -0.22959158553712747 0.010462167218768201
v 0.21843623067508805 -0.24929609147516962 -0.0026031950068185947
v 0.17348116169980798 -0.16699197804529617 0.041044471980265215
v 0.18576043793816643 -0.18796113842426468 0.028087266184604113
v 0.14843305742179363 -0.11839532338112164 0.06762808977356985
v 0.16518503002194354 -0.14691045558864801 0.053080309723116476
v 0.13462629495076645 -0.09246005140263899 0.08459455532644326
v 0.11848468773525199 -0.0678588823797638 0.10201698569209237
v 0.029964672726275593 -0.10367408480322171 0.14565324381301098
v 0.01906343718161873 -0.1414239268439611 0.146692338120282
v 0.005171164310211688 -0.18123335491402381 0.14003435042404047
v -0.035626779676747676 -0.29171118708234656 0.1438120751068243
v -0.05483971509396015 -0.331020558964338 0.14257492517386988
v -0.06261169370684386 -0.3604829091026913 0.1442259998070792
v -0.07789803244324102 -0.4002319089323683 0.14786481388836545
v -0.09157877348402275 -0.4424602050281496 0.14513860647588492
v -0.09109902265555063 -0.45368518808139713 0.1449904249365577
v -0.10785611045381695 -0.490801253019971 0.15105896675185276
v 0.11921916039579782 -0.06324999981071379 0.09828023022596655
v 0.10599646440840112 -0.03309350041210971 0.116054228137806
v 0.106298383919774 -0.047578529551097974 0.10721819600420683
v 0.055894191827444456 -0.028966158106567642 0.1454346612455875
v 0.04100458660676955 -0.07199306400928959 0.14120683851628063
v 0.11576356717764165 -0.07619650980974732 0.09698991778203124
v 0.10756419350416278 -0.04582221444373845 0.10607814555245716
v -0.12033594680904466 -0.8773207276734895 0.06850026222570076
v -0.1478695116716152 -0.8734532969453354 0.09337376529612994
v -0.16512338376504754 -0.8667991705352297 0.1027488082426012
v -0.19028391976390574 -0.8567139215438347 0.12325117544078154
v -0.15002533544280247 -0.8727820059252148 0.09546596005089442
v -0.14267572558303282 -0.8723163180014307 0.08436129676981272
v -0.19044140392439363 -0.85610544997706 0.12060336845061563
v 0.38549290711730017 -0.5794765885259593 -0.1744932890765231
v 0.378205836025323 -0.6036214005303246 -0.17940770406314907
v 0.35073889912910267 -0.6836430344247143 -0.17044558838095958
v 0.358086529758059 -0.6522552926514171 -0.18508308794196707
v 0.33016308446875253 -0.727267485808361 -0.1781591649233162
v 0.31346909599383993 -0.7995092152945198 -0.1826179623311517
v 0.3203787032504476 -0.7702272973365818 -0.17767059255165107
v 0.2873311297714351 -0.8510455616177851 -0.18132500387715025
v 0.3016498080685816 -0.8336336258275715 -0.1811777422867865
v 0.2797503974421513 -0.893944003206526 -0.17930564335905994
v 0.28857136152393253 -0.8636818186372178 -0.17917915176081015
v 0.2616887903427501 -0.9456520964719406 -0.18091062672032096
v 0.2674541854521757 -0.9248813590149648 -0.17764818693465045
v 0.20038396822595897 -0.9947804582134552 -0.15724879030187744
v 0.181806273828091 -0.9854294211539167 -0.13640082081411992
v 0.15950981622848737 -0.9793957817016273 -0.12562886192705106
v 0.14755285962063355 -0.9742937851868549 -0.11729597525757314
v 0.13300207935084726 -0.9715846664874501 -0.09987110157245377
v 0.11359989966411395 -0.9615914571006572 -0.09316217087700912
v 0.0765389218795277 -0.9504931868209783 -0.0706185450008205
v 0.06491216506821249 -0.9396331457451642 -0.055656318645889706
v 0.03409081287636655 -0.9388210420987178 -0.03820826479100009
v 0.01562654176629542 -0.9253971292769566 -0.015096415846166465
v -0.004665681805254575 -0.9180338341953502 -0.008188793991240506
v -0.0257501662689826 -0.9101978990218108 0.005099573613023095
v -0.04130317570530129 -0.9035709378237664 0.01992954832193089
v -0.050765654165425264 -0.8940487285207079 0.028293628164020864
v -0.1023123282600735 -0.8886166569145361 0.05451707749089
v 0.3808929804105229 -0.6116063845028101 -0.17598962722620082
v 0.35515071365392314 -0.6709878244209135 -0.17248248787483716
v 0.35108486575642567 -0.6964550658586504 -0.18226863630060774
v 0.3351488467476046 -0.7409853336310591 -0.18417799429814363
v 0.3103790697607919 -0.779535858324722 -0.1830155646235975
v 0.30806493646413863 -0.817161984768058 -0.18687889241763023
v 0.28918910544979654 -0.8521592955619018 -0.18187777492038665
v 0.2768048290629977 -0.8954413634062246 -0.17441375582518745
v 0.2629809446696929 -0.9278183032169193 -0.18468744065506623
v 0.24932413206745055 -0.9613591267543878 -0.178278659073311
v 0.23562440053503128 -0.99739609315258 -0.18139026395435148
v 0.26758281150880625 -0.9254861819369659 -0.17469302267328793
v 0.2527976238570092 -0.9595223562789755 -0.18284007645478553
v 0.2014639904352589 -0.9950874205713953 -0.15799998897554018
v 0.17533469052186282 -0.9868832069715476 -0.13897441400153274
v 0.14312472578025265 -0.967091071043377 -0.10137068745472513
v 0.09008230579274397 -0.9545484901884032 -0.07546975052241743
v 0.06153448345568814 -0.9469550497056013 -0.055719388178808456
v 0.06323767218730339 -0.9474980325696315 -0.054830893029489965
v 0.0318669925745918 -0.93058668814334 -0.0400190190225645
v -0.0029697652375004586 -0.9234742609228554 -0.01097251609138691
v -0.04535766622350735 -0.9026355293506432 0.02015394617017284
v -0.04460233326084215 -0.908783703227687 0.017303847936850917
v -0.08637760037577252 -0.8895501185000487 0.04139131166412989
v -0.07599976993144235 -0.8947418558876179 0.04341780531423596
v -0.1058924394799626 -0.8866380421888771 0.06155064472924335
v 0.12630435265306886 -0.9680182924505453 -0.10597159182665361
v -0.17155378713216748 -0.8638080251337156 0.10590926214616687
v -0.12553597065676794 -0.5540254430929701 0.15039366004524343
v 0.16156639139747805 -0.14895257428204678 0.05019436537697098
v -0.11349430986865343 -0.8846239356477139 0.068551408621752
v 0.1958524572973538 -0.9945441391436637 -0.15143422145189134
v 0.37988967074795976 -0.6116717964866494 -0.18277741236985126
v 0.29346877683097555 -0.8470008307512269 -0.17916692459195668
v 0.20478863653256976 -0.2258361957626692 0.010237655694723648
v -0.08373532631170655 -0.8925098456647945 0.03513304438022517
v -0.05563880427359607 -0.9020711314249154 0.023825162217688923
v -0.10683683580922837 -0.882294372829096 0.07423280124881257
v -0.10637892730882889 -0.8846812921205137 0.055526400039497256
v 0.205728097248544 -0.23189966986335933 0.0022163145898703666
v -0.05324581429457707 -0.34266192219289615 0.14655023797672156
v -0.1638683426917106 -0.6504739508853433 0.14552790487694556
v 0.11700632683685361 -0.07040015093943833 0.09035553924029935
v 0.2819157100873937 -0.3688072702302192 -0.0680291652070316
v -0.2116097874366602 -0.8032357951529283 0.1505896523764254
v 0.15419569238575861 -0.9789929141271443 -0.12613673412568888
v -0.15012427927542693 -0.6221660708596642 0.1470421645079617
v 0.08875340416839121 -0.007712195001904969 0.1306537629184079
v 0.15941017711690758 -0.9752257653161902 -0.12217575259795949
v 0.04571210463539784 -0.06436790133354596 0.1459546172993978
v 0.08222158002235357 -0.9434696137189789 -0.07038223163590611
v 0.09934167752049237 -0.04010245559339489 0.11551705048028257
v 0.1454804127649051 -0.10867150523435384 0.07010351989215066
v -0.05996527107129899 -0.3706723008658132 0.14196996484976537
v -0.06745020647014524 -0.3794977099863295 0.14202367756426
v -0.17738070605527628 -0.701139605219331 0.1473259625908713
v -0.0058796952950410444 -0.9210624964606137 -0.015715844375803582
v 0.03692278372357302 -0.9345497569065724 -0.03641388157367313
v 0.2606567773017539 -0.3246710290786127 -0.03984009567034468
v 0.15045725404253818 -0.12334521441594681 0.0670591927502073
v -0.0636377760644447 -0.36634784394739567 0.1493313664494961
v -0.0735233962891868 -0.8934137564446508 0.03724935306224752
v 0.3186870666008402 -0.778025648142598 -0.1749272143140294
v 0.09885275134151178 -0.9541827889934071 -0.08648950159497598
v 0.3824769631593229 -0.5930286431025039 -0.18025989934655628
v 0.14985010767492915 -0.1350297029040812 0.055439438115688494
v 0.09222113369907078 -0.029082170368219692 0.11649702459056314
v 0.2895580732987813 -0.3775163744177302 -0.0732282668152209
v 0.027481433187658874 -0.1014198875861463 0.14249060338690525
