v 0.6121728420257568 -0.14386416971683502 0.19322922825813293
v 0.002099783392623067 -0.040822334587574005 0.15418098866939545
v -0.6266047954559326 -0.024739418178796768 0.1873023360967636
v -0.4975535571575165 0.3915524184703827 -0.1609000712633133
v 0.6519302129745483 0.29964402318000793 -0.16824935376644135
v 0.5393200516700745 0.3095220625400543 -0.16811107099056244
v -0.5867813229560852 0.40336382389068604 -0.16065311431884766
v -0.059211671352386475 -0.5574900507926941 0.10100745409727097
v -0.5367724895477295 -0.8059217929840088 -0.1348811686038971
v 0.37926897406578064 -0.8830479383468628 -0.13934604823589325
v 0.0493968240916729 0.6161851286888123 0.15269942581653595
v -0.45342713594436646 0.9930854439735413 -0.1752331554889679
v -0.5857934951782227 -0.45405369997024536 -0.16431789100170135
v -0.6164155602455139 -0.7978109121322632 -0.17332668602466583
v -0.024117818102240562 -0.1944517344236374 0.09508056193590164
v 0.4563441574573517 -0.5834565758705139 -0.17255620658397675
v 0.571917712688446 -0.5943224430084229 -0.18269111216068268
v -0.6658059358596802 -0.4461512267589569 -0.1544496864080429
v 0.42868557572364807 -0.8926405310630798 -0.16295470297336578
v 0.6078736782073975 0.8881799578666687 -0.16517727077007294
f 1 2 3
f 2 4 3
f 5 6 1
f 6 2 1
f 4 7 3
f 8 9 10
f 11 4 2
f 4 11 12
f 13 14 9
f 8 13 9
f 13 8 15
f 15 1 3
f 1 16 17
f 15 16 1
f 13 15 3
f 18 13 3
f 8 16 15
f 16 10 19
f 10 16 8
f 11 6 20
f 6 11 2
f 11 20 12
