v 0.26474121611759854 -0.4221667273616823 -0.061493535391517536
v 0.348204112760636 -0.4920174672112321 -0.10686407584255526
v 0.36411306497561663 -0.509772957636367 -0.12345621571440246
v 0.3757074160123243 -0.5250625036336105 -0.12950342648481308
v -0.03561352623600378 -0.3309244606003734 0.09466102027729799
v -0.036036199074481794 -0.30137414961314096 0.09784189752927218
v -0.027019895640199958 -0.27020452020344865 0.0974120410777044
v 0.008197611730805318 -0.2212611840642807 0.07652025934529295
v -0.054101185684621064 -0.5302256322298469 0.10334380222999079
v -0.0594777750484919 -0.4912877367193624 0.09872664432717816
v -0.04898700248019508 -0.4555442386625121 0.09823227510668289
v -0.043817420520203605 -0.42635833711365817 0.10277547830047187
v -0.04263463647006524 -0.3950388410410301 0.10154668346574024
v -0.04099926284055325 -0.3544858385160069 0.09685289799963577
v 0.03968707974153094 -0.2450002464049392 0.05772756862231791
v -0.042730551224123635 -0.5707282531388378 0.0912917756489038
v 0.07197634403484923 -0.2625274128680994 0.04163679396482656
v 0.061259538696109284 -0.25917512816901195 0.0467522719904837
v -0.021572805654469073 -0.5898863308602085 0.07376960735215789
v 0.08516213688052537 -0.2831960532759522 0.03002352614803571
v 0.08055927981436603 -0.2780304123230579 0.041237825278453925
v 0.116348241733123 -0.3046211224849204 0.017008579544965104
v 0.11003859219292512 -0.3001607677700858 0.020815465714921044
v 0.14517127170427263 -0.33916516192794494 0.0003041365833106322
v 0.14216941793611973 -0.3187231351623066 0.005121845261196556
v 0.16831443154345258 -0.3512690374321589 -0.007823151159486414
v 0.1605073232653636 -0.3472637618244798 -0.003921704861749849
v 0.18856126471943904 -0.3663611499740492 -0.02215706749274478
v 0.18048583007215452 -0.36210281576759773 -0.02107073524363298
v 0.22375249575088726 -0.39333214606624756 -0.045338758101539776
v 0.21780447154587237 -0.3893726318795879 -0.03686964636259838
v 0.2533538130958186 -0.4123291304462656 -0.05794787190509706
v 0.24219653173094577 -0.40894493454924613 -0.049991865130881975
v 0.2667414018257249 -0.43746453257366913 -0.07449601358102138
v -0.061844535234906205 -0.5483585478971467 0.09839789491306518
v -0.04762535696179687 -0.4364801341306396 0.10394419606353146
v -0.04901241623914014 -0.473778893550704 0.09810327896147154
v -0.058930100665919194 -0.5020802427760592 0.09812816653418949
v -0.05843423122674572 -0.5240943817924886 0.10043649799463952
v -0.03814710925404947 -0.33118649283274015 0.10167373927979095
v -0.03952039282301674 -0.3641328040000053 0.10125666353533934
v -0.04281738455393789 -0.3939274313108507 0.09423274629677539
v -0.03952557262338778 -0.4245949284770528 0.10023361065573579
v -0.032960563712090385 -0.27199090364194867 0.09456192033885719
v -0.028059807550926085 -0.3015089402441366 0.09120250454282375
v -0.03508745060026062 -0.33298849937090913 0.09690720129919636
v -0.035568240435954815 -0.36707986241661955 0.09887183474622399
v -0.018399352062506348 -0.20586042134788127 0.08129123881238652
v 0.00576534575579164 -0.22003194352405472 0.07767367843544416
v -0.029854140379271497 -0.2640960568634847 0.09791154531911934
v 0.0437394857755949 -0.24774671154184127 0.05952888250749153
v 0.06200338059527104 -0.25996427790442833 0.04535501224285409
v 0.07337290434721444 -0.27065666301460317 0.03765345490916722
v 0.08677550429677773 -0.28532588360140426 0.03388057692062021
v 0.11137207915760636 -0.30138321106408383 0.01768028377567973
v 0.11358765131468485 -0.30680718369715626 0.016278918849724634
v 0.13394181684562181 -0.32419450387486126 0.012679982522481897
v 0.14706781796068788 -0.3287715886491287 -0.005971719393758003
v 0.1679264321827062 -0.3433191211815793 -0.010370804584218274
v 0.19310378250422583 -0.3733092370785295 -0.02331882226957884
v 0.21455100790727272 -0.3811230735779942 -0.039086954524909664
v 0.22690394139429987 -0.3964896774211778 -0.0433135759636254
v 0.24999452935282052 -0.4085419870869103 -0.05427845591014696
v 0.2739343149744189 -0.43184495450635857 -0.06851581496858876
v 0.2944280389666855 -0.44999441140434554 -0.07926629844307297
v 0.29471208182312547 -0.4415490460154748 -0.081282993178803
v 0.31898703828499836 -0.4805867696668982 -0.10295488696520623
v 0.31946949776117856 -0.47125170244532155 -0.09000553568199011
v 0.354067304854764 -0.4945935601343266 -0.11814219704734369
v 0.3682814350969671 -0.517793761851588 -0.1264469188318714
v 0.39226477925366915 -0.5257439008044039 -0.1419752064016537
v 0.39229048341364253 -0.5352236318642939 -0.1400390819551433
v 0.42097543128392695 -0.5486787847174598 -0.1528804035276556
v -0.04045356938422656 -0.5764308767279854 0.09083680771842713
v -0.008219787827979202 -0.5936363423922714 0.07140456185642195
v 0.02229194861369798 -0.621453813065529 0.060213376383898905
v 0.016502011824363894 -0.6109649224445848 0.06101333439239016
v 0.054836459333115595 -0.6409956495982885 0.038302049037706516
v 0.04806554762499067 -0.6387733809778474 0.046631281270825144
v 0.06594920335948762 -0.6512175336301422 0.029913946572951086
v 0.08482504709470565 -0.6686012631320005 0.022374926946235364
v 0.11388474651371705 -0.686547528300626 0.000767973984372694
v 0.1502192876147951 -0.7144469559237144 -0.015371125404293905
v 0.1800497422839052 -0.733840206134664 -0.028697143173298162
v 0.1728139552499585 -0.7268810522951109 -0.030981949829190135
v 0.20266113143327616 -0.7476091696592791 -0.03635414262635585
v 0.22430365432907895 -0.7671701333019593 -0.05854179412774564
v 0.2578715362927394 -0.7932081873320339 -0.07656992961067127
v -0.024144378254430398 -0.584088690483069 0.07937862083466737
v -0.0016270253239109129 -0.6012765102992442 0.07068771298172752
v 0.013102161786560273 -0.6124803244404917 0.059661402916171176
v 0.03210661109192929 -0.6220031847986447 0.0539518766481062
v 0.03418459045382365 -0.6280489878835884 0.05454895584351226
v 0.04981899247076168 -0.6408362474604333 0.036546271788529636
v 0.07053128822715331 -0.6549705737190836 0.03274160327703906
v 0.07714057059423142 -0.6657247262550984 0.02216288530957922
v 0.10684344766011904 -0.6773194814185932 0.014410896121430792
v 0.12066177186217054 -0.6879180365691345 0.0009465687875357376
v 0.15465063551577157 -0.7140433468701722 -0.017804011582624388
v 0.16494109683059574 -0.7275869340619553 -0.023334233062358857
v 0.17626476539741373 -0.7345055634634154 -0.02591047888109013
v 0.19935129112203465 -0.7443097055717537 -0.04433674649560157
v 0.20750250488340866 -0.7586970918024389 -0.04875964621379104
v 0.22835940419050055 -0.7782497105138555 -0.05358139521906866
v 0.2582598121819819 -0.7930042737127241 -0.0749183957704763
v 0.27074540715880757 -0.8082982793702486 -0.0847204000704481
v 0.29935468774902185 -0.8246550911308635 -0.09916049866360685
v 0.32904336805943557 -0.8458403715430861 -0.11575802221958577
v 0.32666457742043803 -0.8435053514528835 -0.10436704833854575
v 0.4196495845998504 -0.5555408413710812 -0.15102451799480524
v 0.4468271065771435 -0.6227987804535602 -0.16737249278929298
v 0.45306887536123974 -0.5879856842400312 -0.16731437535757007
v 0.2810624216036321 -0.8111791904793344 -0.0829856558278404
v 0.2969286945860959 -0.8229373135093285 -0.09830350428388004
v 0.3145956926582457 -0.8367462766266416 -0.10512254717176338
v 0.3138640615553552 -0.8356532768510443 -0.1052091277948663
v 0.4136848478696303 -0.5559188320902365 -0.14716116248325836
v 0.4425766002104619 -0.6864170160957432 -0.16479200539233907
v 0.45428082688447613 -0.6069980466517275 -0.16938754901053613
v 0.36779010691649 -0.8682365127318687 -0.12869704591018097
v 0.44494311611251003 -0.765540734819803 -0.16850169891047312
v 0.4469060075260347 -0.7333011802953657 -0.1693048035095408
v 0.44682975682894865 -0.6912733888071496 -0.1737989360543935
v 0.4500334383106074 -0.6638181481874602 -0.17193566979833214
v 0.400127028480996 -0.8869463851190807 -0.1470262755796167
v 0.4308095300897407 -0.830017566021749 -0.1638849587762154
v 0.43253530723927625 -0.8034942313954698 -0.16644677790094983
v 0.4416947713636215 -0.7683390795937362 -0.16736024475750003
v 0.44365670622704306 -0.7275733578137358 -0.1660605880034033
v 0.44565409095881175 -0.6986742001797275 -0.1676598319985464
v 0.4230792885746114 -0.8886060113348192 -0.15644699472680787
v 0.42458866618518476 -0.858044498541822 -0.15944009438711226
v 0.3343981010901653 -0.8465050168941827 -0.11144002542829586
v 0.35150264521378244 -0.8637718364879639 -0.12603997768840053
v 0.34756907815508087 -0.8614971945469998 -0.11594990502152308
v 0.36396201441195997 -0.8740281937777864 -0.1299649410495191
v 0.43741355453936215 -0.777127960363616 -0.16699304429310793
v 0.43111292133771967 -0.8043435434667457 -0.16731831190668425
v 0.43507848340366495 -0.8308903036118581 -0.15622506640496966
v 0.43067648167942063 -0.8653123926599404 -0.15896897261968895
v 0.44028214619510087 -0.7129672190959938 -0.16968376897733473
v 0.4373782623912008 -0.7455891578389712 -0.16703630455659807
v 0.43678592637228536 -0.7814444078905743 -0.16263120604669665
v 0.4510055350254975 -0.6649998737219089 -0.17547285865493428
v 0.44441345991756165 -0.6961448958126245 -0.164957766847349
v 0.4520269047912787 -0.6338969638794278 -0.16819165393639346
v 0.44627786975598405 -0.5723323420136248 -0.16549485969977595
v 0.14505370471014992 -0.33349369115608735 0.00394569475541302
v -0.5294963529706307 -0.4343908112139697 -0.1432698006403502
v -0.45805604772166203 -0.3939728357076112 -0.11144461117353889
v -0.5929101633909163 -0.45499907091046565 -0.16397198029012675
v -0.3895946700327294 -0.3645485373656529 -0.07472143684706746
v -0.23930649549782076 -0.29065185803513843 -0.004789907443019024
v -0.641856040337162 -0.18115529798382102 0.0540616671209385
v -0.640100902446837 -0.14989670602746505 0.08207662735609587
v -0.6445669061149033 -0.12382751678548842 0.10553843601538018
v -0.6633471843518711 -0.41082747785471063 -0.1303426366379318
v -0.6612962029877215 -0.3880965336933481 -0.10610783343098656
v -0.6572583544484625 -0.3574314400134502 -0.08253661950794466
v -0.6518269169579759 -0.32997558991921044 -0.05998211914456018
v -0.6550109638923346 -0.30378816633954153 -0.036631358644088355
v -0.6470504059587361 -0.2761988304027015 -0.0232574496203104
v -0.6477005580664935 -0.24916724050273104 0.01130767265097711
v -0.6432365365602142 -0.447263608615553 -0.15803670505411715
v -0.666521376709564 -0.409526177868818 -0.1272517678121841
v -0.6614878492902917 -0.3832249137861247 -0.10655711166634858
v -0.6518433123560925 -0.3505603616529987 -0.08143540128505095
v -0.6533662203282552 -0.3289453983231612 -0.05787793996584241
v -0.6118349919745739 -0.4543024406303306 -0.166179426502642
v -0.6573169804898815 -0.44583498609438926 -0.15134383807748164
v -0.6531710983067942 -0.32405068148046834 -0.05537248899578454
v -0.6548528483624023 -0.3455846929718006 -0.07614117253163691
v -0.6557407957798936 -0.3745364958381714 -0.08861587434478806
v -0.6212091271721817 -0.45051009524924607 -0.1603269475153193
v -0.6487173393121957 -0.2251027672385319 0.020405600190640118
v -0.6473231570840525 -0.2550732171654228 -0.0016796694142341335
v -0.6528627942367116 -0.2809569950159395 -0.02166623673313568
v -0.6501004096597202 -0.3081429030597649 -0.041976067042749025
v -0.6560007896749427 -0.3344749646057469 -0.06827564516688647
v -0.6041372859952435 -0.4549833399485953 -0.1611896223319748
v -0.6394572340123496 -0.15890891163037976 0.0798421225946731
v -0.645912502313357 -0.1831776188778891 0.05507088660474377
v -0.6446134952418934 -0.20505235450826437 0.03450960681122562
v -0.6530796424913518 -0.23915119627369325 0.01684514429998707
v -0.6514290483587056 -0.26120622502020757 -0.0062700585931257215
v -0.6557895887369919 -0.2885953415598203 -0.027698005418517205
v -0.625630045710429 -0.04215564768841599 0.17222400918142772
v 0.47886280687934263 -0.5894215451090513 -0.17675982792989542
v 0.5071780672202635 -0.5856798698135017 -0.1762411494441441
v 0.5765223220478134 -0.4834623434739885 -0.09052960923987273
v 0.5821211130507656 -0.4522656798451941 -0.06701297682988351
v 0.5876786612621893 -0.4261267887594869 -0.05063619268468027
v 0.5863770310400964 -0.4023268617204587 -0.018449465981866222
v 0.5849590160292194 -0.3696675584828383 -0.0008813202211785105
v 0.597309494622582 -0.34704461140177445 0.024040784631873084
v 0.5934107590958708 -0.31679174435926394 0.04811397499842242
v 0.6011286130279636 -0.2899005103536497 0.07634868856281454
v 0.6036303323957164 -0.2598663021850304 0.09849354498680842
v 0.5404332153266648 -0.5925441044273089 -0.18117492207465802
v 0.5777749786867462 -0.5457477870421419 -0.14079435035165294
v 0.5783064248811263 -0.5137653993159379 -0.11473672904756431
v 0.5806591565635475 -0.4888743735841121 -0.09675599523903927
v 0.5844774393088344 -0.4611521709231607 -0.07285283971590643
v 0.4669233748751039 -0.5767177948395725 -0.17583350426475133
v 0.49928157312332494 -0.5835522774262957 -0.17912122202447658
v 0.523791752896554 -0.5857549689380099 -0.17806335373386828
v 0.5334495885009459 -0.5931820829575672 -0.18239234328224704
v 0.5768461879597401 -0.5062239515704893 -0.10008396021211671
v 0.5727886064562481 -0.525839551022967 -0.12667225138096586
v 0.5725243727274515 -0.5558443335315014 -0.15448366240451936
v 0.5467007636709774 -0.5920323604001803 -0.18040513952193296
v 0.5954589237504819 -0.3831088607527958 -0.00539846212569374
v 0.5859047296680886 -0.41161405356872904 -0.03145614403906415
v 0.5875415180839088 -0.4371800623736143 -0.050664933469316414
v 0.5827180256442135 -0.46659587761270255 -0.07773688003910062
v 0.5980789353623407 -0.30761426826001664 0.052801673088659545
v 0.5991528652478703 -0.3407599172705028 0.03136007155971689
v 0.5914613369185635 -0.3705297205170601 0.005388431411003224
v 0.5832577412101408 -0.39099602450516 -0.016896566595874615
v 0.601209642209705 -0.2730173048051397 0.08461598782591327
v 0.6008324445125204 -0.30031659116652487 0.06869907762723702
v 0.6035671793004487 -0.24150686343261335 0.11210314128262434
v -0.5556741864790933 -0.031033553091284558 0.18706201851578425
v -0.5041810937372313 -0.03498049402561282 0.1879628945821024
v -0.4680790727294526 -0.04238104534135478 0.18349293002373623
v -0.43397259273202493 -0.04645567818579143 0.18799064200578486
v -0.4309035262363545 -0.04117969215780115 0.18728988383044595
v -0.406936340877911 -0.04775127591118121 0.18769514713403193
v -0.39950368587580704 -0.04586232192761264 0.1864087167125132
v -0.374962161942036 -0.04735395381422778 0.18662123562423
v -0.33355745019929445 -0.04621052875346862 0.18339790930195946
v -0.2966832343111553 -0.05421598146342164 0.18471398647024462
v -0.2691893930561825 -0.05826348016379758 0.19184944053291444
v -0.2511488167921905 -0.06314286469683039 0.19216802522167603
v -0.24647784731000574 -0.05383550364075253 0.19052764375633255
v -0.208856780673906 -0.06062438810094149 0.1897327455689814
v -0.17573107852228478 -0.06316040680829889 0.1888095673076811
v -0.14916951378574725 -0.06852923808335917 0.1923519746464043
v -0.12828737579022345 -0.07294584009478931 0.1928310050973891
v -0.08567443029924039 -0.07365884936166046 0.18638562741321116
v -0.04812291193264715 -0.08154422095211214 0.19045184396716383
v -0.035524147978374804 -0.19881799848483 0.09313851060144814
v -0.025371448187144496 -0.1881001382095666 0.09042640038752983
v -0.026698022203273147 -0.08265220920015719 0.19046186703609141
v -0.025419096636125536 -0.19724488869619805 0.09721822278452423
v -0.020879695173535474 -0.1928131663131981 0.09834258937362507
v 0.0008306120977394447 -0.09012407057556511 0.19187976493909553
v 0.003394677681748076 -0.08245833242411234 0.19000146683771355
v -0.02058984526775159 -0.199767236496824 0.08591020058095716
v 0.026746349092983845 -0.09041676344480078 0.19169021151000165
v 0.03313628633390296 -0.08783052168368878 0.1926091390221951
v 0.06835716782374299 -0.09417620567231241 0.19601342177805564
v 0.06638348452946922 -0.09156346115339935 0.18839541122748107
v 0.09286311813837506 -0.09500390307143086 0.19067604207711447
v 0.0970328928884387 -0.09331484622524189 0.19573633957580924
v 0.1299242337394183 -0.09592555062217244 0.1922167596653196
v 0.15167989814617508 -0.10376953801850747 0.190370545656561
v 0.15602355174530227 -0.10079758433709103 0.19440517611738622
v 0.19058629963974635 -0.10415202176155769 0.19358864467249326
v 0.19623514232033964 -0.10415175211142862 0.19146643657233223
v 0.21746505704401115 -0.10852461909594256 0.18743174175387092
v 0.21829181741322734 -0.11180454428313713 0.2002126367501117
v 0.2411784715269098 -0.10939650108057884 0.18951720492515248
v 0.2798388710255286 -0.11868985313330364 0.19116857419921854
v -0.5931804100088653 -0.02592128385425764 0.18294753193209737
v -0.5414695624532665 -0.028483383301242587 0.18370321090183425
v -0.5050012494349884 -0.03719309866077002 0.18496538555155148
v -0.4583240215529692 -0.04021198489602141 0.1870015578804017
v -0.4361477315508499 -0.03996882790525209 0.18338405855007076
v -0.4261726005924519 -0.04259725259856609 0.1853507885629787
v -0.40641616240239165 -0.045086556427467 0.1872569436007033
v -0.376345256666483 -0.04522001104200211 0.18709970200004156
v -0.3361435963897462 -0.05050837404100892 0.18719845425352086
v -0.31028636848838853 -0.06140631706218285 0.1917513424165272
v -0.2856633899754307 -0.05832884309293523 0.18819723579842418
v -0.25599090419987514 -0.05880701134449221 0.19511063689072036
v -0.24420313900649962 -0.061634582868551314 0.19234922700950663
v -0.21008319241011067 -0.06218308961405483 0.18854667127275873
v -0.19021683650229146 -0.07272952403108043 0.19388930176843558
v -0.16573966863760828 -0.06985900334423313 0.19111390907182793
v -0.15036199538847306 -0.07061462697282529 0.1921184024684385
v -0.11727457680986031 -0.07458985616808703 0.18966898339757376
v -0.08377298328713009 -0.08321881899175623 0.18728593698992044
v -0.04329870894654955 -0.20667408077180677 0.08396015970631301
v -0.06193197836456016 -0.08023817180656699 0.19541834472741254
v -0.02547720135095281 -0.19626878580153498 0.0936658698888228
v -0.03708100522358566 -0.0842120443098945 0.19132730811282186
v -0.029464712829427062 -0.19574113671212584 0.09625218480728837
v -0.0028629913415655467 -0.08499985141703986 0.1875009285283177
v 0.0035868582861656975 -0.08857900774849087 0.18873431147555192
v -0.01761008316390074 -0.20196263405529105 0.08797283387875285
v 0.030674338987552018 -0.08853393685002714 0.19264031479259797
v 0.050831539945922766 -0.09083882864231975 0.1910849176360162
v 0.06130619682851392 -0.09281889229220108 0.18868575949176042
v 0.07396076408430007 -0.09354513324297935 0.19213890584313123
v 0.09155366118217105 -0.08931227624101193 0.1884499303810822
v 0.11970822537520139 -0.09558787116749913 0.18888543095908647
v 0.12700473690527853 -0.09942303980069223 0.18649389738619968
v 0.1647574971036761 -0.10204955026952818 0.18367348846633982
v 0.18333677035739235 -0.09917641399082631 0.1925831896933339
v 0.1929188476936046 -0.09859301508949299 0.18709501593056976
v 0.21468651530163385 -0.1048837904223133 0.19056144229201002
v 0.2428765564416855 -0.11449082896089925 0.1927010777987054
v 0.2814089627058191 -0.11553504668788313 0.19648704616552276
v 0.3123282131508297 -0.11295519869668028 0.1854074009720279
v 0.3170162635770329 -0.11780420511146325 0.19625871219670518
v 0.33920907511812304 -0.11740955895741541 0.19330309515209138
v 0.3470448050731285 -0.11714853794902942 0.19405343080379941
v 0.36933639417893865 -0.11918939257265512 0.19170798790668453
v 0.3714846861189245 -0.12168116488581882 0.19440829041169527
v 0.4065954112681265 -0.12439187623105596 0.19242714171101213
v 0.4479287393891248 -0.13136596661189573 0.19153143978873796
v 0.46459893844621747 -0.12814627611908927 0.1921613925842048
v 0.4936574504769195 -0.13001210423370246 0.18542387735887228
v 0.5685547129252846 -0.14244839452783503 0.19273755198296608
v 0.2824821443515508 -0.11140120653588853 0.19466641750167593
v 0.320954818456619 -0.11880353571845786 0.19310747289859848
v 0.3347340149544467 -0.11797265315962172 0.19468025620689086
v 0.3415353468743564 -0.11505881369216586 0.19233103556793713
v 0.37141131556137574 -0.11840443669441436 0.19790960095871754
v 0.4056222627955649 -0.11447438501672642 0.1934756199617244
v 0.4307202562212233 -0.12607527558197332 0.19227750284571857
v 0.45433427929183756 -0.13200910820086587 0.18894019575850168
v 0.5177616287118881 -0.1359555534439462 0.19533593661523624
v -0.0004621177283566148 -0.20796509979068273 0.08695125428308227
v 0.029737527603405436 -0.23402501113266436 0.07004512188356711
v 0.013658761133404697 -0.22962962596675923 0.07333147209626958
v 0.041488730080536884 -0.24661806919214194 0.05162089969781292
v 0.06670132159355041 -0.2668448621990571 0.03663540005973378
v 0.09054639746047573 -0.2961900056548189 0.031017334583577163
v 0.1298967256482908 -0.3150008226568898 0.013003287364646034
v 0.151659730771061 -0.3349775969139626 -0.004825759874900857
v 0.17247372319795437 -0.34892807342866444 -0.012382674799135036
v 0.20213106004675738 -0.37720756931509775 -0.031222215106182644
v 0.18720807038436466 -0.3659856869170877 -0.02315548100439352
v 0.22608523123003116 -0.405740646178787 -0.05038065175794634
v 0.25077827609091297 -0.41427788365068 -0.05455761677703989
v -0.0004181072954293867 -0.2138569686669922 0.0802726312317473
v 0.01728265854854719 -0.23777810165246366 0.06731136007191439
v 0.02872506572197496 -0.2393009052563466 0.06061729253011615
v 0.04802435685965927 -0.2576470999150757 0.052759048386439154
v 0.05981823869081492 -0.25460619719932637 0.0545875367355516
v 0.0786320486256961 -0.26875253190448 0.040332568435938
v 0.09390350392022434 -0.29498501491808693 0.02916339112544035
v 0.09645767971696477 -0.28574204554267724 0.028839683588966714
v 0.10735238388522232 -0.29493604060881207 0.022713557424803743
v 0.12915225512911063 -0.31209752519190304 0.012872437355080318
v 0.13186991157951675 -0.3188539822605523 0.010271419591325439
v 0.15033888351482036 -0.33728943494951125 -0.00025334472551750064
v 0.17507921624369158 -0.35336116689105723 -0.015531006188420255
v 0.1953341003055316 -0.36542542773172837 -0.01848616599676111
v 0.20702616482183606 -0.38387003053470514 -0.04154544565548008
v 0.20657391812992096 -0.3773706961737369 -0.03350071895109948
v 0.23311262211544947 -0.39745144744546984 -0.04787477367406221
v 0.24885553423441267 -0.41905530368979155 -0.06128262707954229
v 0.2441241264932423 -0.40916972136205154 -0.0521565576223825
v 0.2644315002746769 -0.4259715302603979 -0.06121738196502866
v 0.28234373347425096 -0.4420676753791307 -0.06704287682651378
v 0.26687700305483564 -0.4286476621348244 -0.06273010221315882
v 0.3122556895990295 -0.46168530113629275 -0.0841617064445519
v 0.32765968598538714 -0.48636607691769024 -0.1063308062884273
v 0.35523072647280607 -0.49794379698723007 -0.11617599249733711
v 0.3798591714293976 -0.520076159117733 -0.130159784390546
v 0.40604744039959395 -0.5388193029270275 -0.1433139590244966
v 0.5210463626043006 -0.1289714609042664 0.1905038539569989
v 0.4502202894561183 -0.5686113846623857 -0.16488011085007995
v 0.567892778941963 -0.14283977864325517 0.19427936393746723
v 0.6009909368082775 -0.32460375874863706 0.042390729541884976
v 0.6009438730593925 -0.2999426825184217 0.06757514287548978
v 0.5983226807911759 -0.26319275766317407 0.09166952093311811
v 0.6028840717918842 -0.24039508538326 0.11009346949459874
v 0.6038488731816922 -0.21739396044074788 0.13398735209173704
v 0.6082846230182384 -0.18203775850312268 0.15878204275051444
v 0.5956193339842327 -0.1402729712962113 0.19399929791657117
v 0.28472248875869827 -0.44374548679937253 -0.08195859011339837
v 0.3128351462430599 -0.4658634973719982 -0.09124131060254832
v 0.33599365950092547 -0.4855212930850306 -0.10827169620105723
v 0.36117298408059123 -0.5064060855489526 -0.1143939600356183
v 0.35818540545599364 -0.5080041990427671 -0.11579778402317557
v 0.38028181732893473 -0.5189018813457346 -0.13122959782910873
v 0.40050062899129174 -0.5383237328025682 -0.14200769827959597
v 0.39570724215364256 -0.5375326176750166 -0.14301125240699186
v 0.4220483976683789 -0.5545038806335776 -0.1497583527447746
v 0.4299472743019393 -0.565707460423799 -0.16222985910883597
v 0.49062839968769956 -0.13081645057750446 0.19568119961617245
v 0.5349877204759855 -0.13376681499777984 0.19519834446428447
v 0.5945434034363289 -0.28797179948829077 0.07121812447649108
v 0.5517306109786619 -0.14359287667015314 0.18559843684562177
v 0.6047575152488541 -0.19605095296363748 0.15077015947900516
v 0.6031201151633736 -0.2185893814988342 0.12267086519938059
v 0.601311971051645 -0.24520889998696493 0.10269361726735463
v 0.5740286216797909 -0.14440664933464245 0.195107852941691
v 0.609871621158962 -0.1833194568012032 0.15166432695224766
v -0.6319250135635007 -0.09982119341705487 0.1293421617555034
v -0.6292183734999788 -0.06617597183233098 0.1563449949897
v -0.6000486110278166 -0.031003409044874447 0.18616438704881205
v -0.6414624530599773 -0.222410595749668 0.031174812959779984
v -0.6463296498440104 -0.18971047153523923 0.053499449252366604
v -0.637080488543004 -0.16226860933215045 0.0725961530217018
v -0.5637585197188522 -0.03224829462145515 0.18631793862596485
v -0.5313341336281984 -0.03277457300706298 0.18968942804726552
v -0.5739078493579334 -0.44203894682572037 -0.16055627626884417
v -0.5463444742254315 -0.4349098068535252 -0.1478168233987164
v -0.5147428226154672 -0.42290553605023207 -0.13013355949507505
v -0.48626001539510805 -0.411902846826621 -0.12148004038300396
v -0.47051469900675 -0.40147508611446864 -0.11310765178076293
v -0.43973313431446 -0.3845887194526809 -0.09139988886866461
v -0.4072185656272141 -0.3726353283968985 -0.08505276400396086
v -0.3924213988092193 -0.3611833465502945 -0.07537998276664855
v -0.3609018072497101 -0.3566041960168748 -0.06668710887883847
v -0.3401907982069146 -0.3445940211483017 -0.05379306772570045
v -0.3344267033388051 -0.336102484845552 -0.04875308567219498
v -0.3144458034281607 -0.33218127293503624 -0.03792019245784776
v -0.3062809915796242 -0.3211499112751291 -0.03599804952742643
v -0.2778301967376862 -0.31116836538603615 -0.02489016378483102
v -0.26256678064066385 -0.3025388664004987 -0.01743398330064296
v -0.24383647350142837 -0.29523211657135573 -0.00442989555129598
v -0.21696538687933514 -0.2851156428473324 0.007395183482200768
v -0.20057094533940217 -0.2716095776866713 0.017462624942773446
v -0.1971556491280267 -0.27413751261705416 0.008731791561276122
v -0.18005375489155992 -0.2688540780568395 0.025522250696149468
v -0.1576838945494868 -0.25695140112700615 0.0297641406565272
v -0.14550375133799087 -0.25158133245035563 0.046100650268811126
v -0.1184434010861755 -0.23529039258444046 0.05402663999553992
v -0.09076666408480795 -0.22420862558640253 0.061835335185399624
v -0.07458406936405276 -0.2145589374622296 0.06738846619431786
v -0.05367561725741931 -0.21108214510241338 0.08716043971388862
v -0.5495847149339161 -0.4379073336562127 -0.14730168507602184
v -0.5554446041262173 -0.4448722492155318 -0.14905275613198438
v -0.6298041516089707 -0.0648477239643454 0.1493344283673365
v -0.6321763311143821 -0.0917848620368287 0.13559610772761174
v -0.6343751643661886 -0.12505817881668027 0.10686043573400027
v -0.6352724130441514 -0.14464192583226304 0.08333243511785446
v -0.6439243612785814 -0.17066701563870623 0.05979868432362894
v -0.5227566904995005 -0.4323639152548944 -0.13625059907446513
v -0.5798636363114666 -0.026898415738861148 0.1924403578159082
v -0.49058153969852486 -0.41393605414807 -0.12326546735389966
v -0.5620316668846834 -0.032162734387037685 0.18605243007630912
v -0.46784623656747826 -0.4044648414677768 -0.10583412582794988
v -0.5271410039609429 -0.036411366729406286 0.18604668474190467
v -0.4502182266959686 -0.3895107918035591 -0.09340469423032134
v -0.4975318209559921 -0.0369112937494368 0.1916473583163176
v -0.41747099268774635 -0.3773681464006416 -0.0828072575111766
v -0.42362083428689956 -0.38000109585202096 -0.0879311406913293
v -0.3868772970308075 -0.35619582488065016 -0.06929652056502572
v -0.3627279142550768 -0.35283478257613904 -0.06121185204856107
v -0.33155571126676747 -0.3359804326117732 -0.05173761236296563
v -0.3105428665379265 -0.32255905228862913 -0.04197016801203423
v -0.27027272053875057 -0.31073084749960866 -0.02284333446195801
v -0.24052449352926814 -0.29445984905145434 0.0008483303657660602
v -0.25626839133614987 -0.29895768008385676 -0.014035385252933314
v -0.22434756582472784 -0.28476972083084817 0.0022568110214665053
v -0.18372354254337192 -0.2662229661922886 0.01624321607652727
v -0.19767512860923617 -0.2751419274233666 0.01443874384628514
v -0.16971797155584303 -0.26161136650796435 0.03568543049866702
v -0.1367643102913141 -0.2459607482091924 0.039493946480289574
v -0.1496594702247584 -0.24555695748869363 0.034981498627208465
v -0.1148341386732701 -0.23240409389030658 0.057374295396661584
v -0.08518230015920543 -0.21897604778823787 0.06770268778471285
v -0.05788417865759053 -0.21044610728489144 0.08068406076297945
v -0.02120966525048832 -0.0892890138394095 0.18864290567664074
v 0.5838316282085982 -0.44150357103433546 -0.049348143841474304
v -0.08454782416169597 -0.22393573070051273 0.06722864262082365
v 0.586533109811218 -0.39797637436685823 -0.018105918907506062
v -0.16129694786861742 -0.06733402849915303 0.18673196181678314
v -0.29367893467964923 -0.31868852205364834 -0.026318721547642043
v -0.2838654075661938 -0.32037525862350763 -0.03122507309053521
v 0.19562415913826495 -0.10183275842008127 0.19091803791783693
v 0.1583104744114688 -0.3396576153334161 -0.007080799095294396
v -0.608189676873485 -0.6802382793388738 -0.1702165487896402
v -0.601108273537001 -0.6533481292901127 -0.17583309129054717
v -0.6011244910625344 -0.616676158523774 -0.16174257440905254
v -0.6013613946331384 -0.5870238122980708 -0.16831076962919642
v -0.5950596007518882 -0.5554697012091655 -0.16753126041246566
v -0.6168801547359395 -0.7786315927212994 -0.17421522947220558
v -0.6124761914057361 -0.7468496656972452 -0.16886533037604592
v -0.610962823343203 -0.7218310638790012 -0.1674095028399595
v -0.6079289441992256 -0.6823844567438527 -0.16692133589880853
v -0.6041018723248396 -0.6535003077372378 -0.1700995269155114
v -0.6004245552160645 -0.6225767053438515 -0.16665075064895576
v -0.5655432165470726 -0.8054614916453374 -0.15411105644363027
v -0.5188483791852425 -0.7948048994264757 -0.1244378363276351
v -0.6132739311933654 -0.692720781445363 -0.1743825398796118
v -0.606855702402468 -0.7331941797084071 -0.17296652936363135
v -0.6146118510204637 -0.7580835116162511 -0.1756819370846608
v -0.5721631231795967 -0.8025808699493379 -0.15306996863646807
v -0.5982436521264854 -0.5876328602780079 -0.16872380484636937
v -0.5991020175327371 -0.6209917725272147 -0.16823848750019796
v -0.6002291492692052 -0.6577332319392104 -0.1700286936525208
v -0.549486475515849 -0.8091689762622897 -0.13813568892272204
v -0.5324796724768092 -0.8024418079168133 -0.1329065958757154
v -0.5845379325665261 -0.47927002580930617 -0.16865891066718014
v -0.5911082719589346 -0.5187576400638476 -0.1638430403465158
v -0.5928289602887208 -0.5448530076242347 -0.16588176330031032
v -0.5964693188912684 -0.5824135423657969 -0.168610287608312
v -0.5308920401754209 -0.42924062972797067 -0.13194825262010756
v -0.5066541590733565 -0.41958766195564223 -0.12735840845642
v -0.4984268593104239 -0.4153898016424598 -0.12179757894465634
v -0.47926035755855095 -0.40898832389673123 -0.11987113126327674
v -0.4526312230687387 -0.3943006881650488 -0.10037694247353618
v -0.4356492530213873 -0.38203317534492515 -0.0927162744587609
v -0.40147810827629127 -0.3662855204774808 -0.08069899814857937
v -0.3878740898010525 -0.3596157788161015 -0.066286724588259
v -0.3759700665527735 -0.35528761875843473 -0.06421271085210149
v -0.35776780215812637 -0.3477881727967463 -0.06398825006912201
v -0.34214724891080417 -0.3391453821906481 -0.05095658769022286
v -0.3230706119843175 -0.3370964749017902 -0.04470559109089824
v -0.2984807551677608 -0.3169758795144459 -0.03147332002151388
v -0.28633912468041506 -0.31432145942030726 -0.02393340947029243
v -0.25978640260689556 -0.3050223708986685 -0.004398609173792518
v -0.23722248032951948 -0.2938841474448107 -0.005265715068535515
v -0.2188759942375664 -0.2796528297289779 0.0047412612171143865
v -0.1964333461303618 -0.2813055058960221 0.01774989437450299
v -0.17878044796770057 -0.27139338709511085 0.02258222589162343
v -0.15396620483178022 -0.2487009005706001 0.03642965472423247
v -0.1371304565243059 -0.24568249963493086 0.05218134549455462
v -0.11271592841523821 -0.23396564846702247 0.051842879082843275
v -0.0995864462881085 -0.22936426699980386 0.05596137338240403
v -0.033769534499695095 -0.286212111019844 0.09343444337803157
v -0.0747215826744859 -0.2182639193570411 0.07306954357992085
v -0.055981458844698136 -0.2128387525961516 0.07824891109637941
v -0.04265181120447253 -0.41821722819384766 0.09300802965015657
v -0.03835467049115771 -0.3890916053628631 0.0977128221046462
v -0.04390361885414539 -0.35660825934835644 0.09339328550314448
v -0.03424472413498666 -0.3219281969516497 0.09985966501750222
v -0.02771301434254281 -0.2907506722808086 0.09592499822380848
v -0.029188683034049832 -0.2595559855564062 0.09440930308688235
v -0.028530072042783617 -0.2269119493787824 0.09430952419296176
v -0.05938203628550653 -0.5303008475412584 0.09734350826471372
v -0.05355524687273204 -0.49709842856174336 0.1020906096456898
v -0.05241464005029149 -0.4573558774896514 0.09949593367643043
v -0.043866515940765384 -0.43530019577997603 0.09911165638506322
v -0.04389237766053691 -0.3986862169864978 0.10062194929535492
v -0.5355937851991255 -0.428028837696104 -0.13932628733942726
v -0.5059560960137806 -0.4132134197072778 -0.13123745616739085
v -0.5132795921475162 -0.42199525265670146 -0.12678947639619076
v -0.48863633978341303 -0.40853729489039736 -0.12293709387153628
v -0.4866988434704232 -0.40774839123994816 -0.11366215932141804
v -0.4629780368672124 -0.3961342831557886 -0.10721457910837588
v -0.4535136728650804 -0.3976465643946071 -0.10934584025409981
v -0.430073746102683 -0.378403278776529 -0.09307805539382341
v -0.3993807512706704 -0.3684833415506488 -0.08074634907386335
v -0.37221176704163095 -0.35386747941735025 -0.06417222838325246
v -0.3744688568677275 -0.36052973962827756 -0.0642267610951319
v -0.3504650957412787 -0.34804017541534266 -0.05821089861531452
v -0.3497813067822417 -0.3464821594349141 -0.0536745491377859
v -0.3175602222808755 -0.3330032339393065 -0.043212927763268814
v -0.283189499836159 -0.31649206686089515 -0.026327905218179026
v -0.2626086444293518 -0.3093362529544075 -0.019102808615419603
v -0.23828259295905074 -0.2953008304857955 0.0022489853981577743
v -0.20462377921282215 -0.2805062754743782 0.006241302965612926
v -0.17481929283806885 -0.26058221135306114 0.022124532756123614
v -0.14746852874191063 -0.25950604852092074 0.0426131523314835
v -0.050989372163953814 -0.49852414005598267 0.09292702153217874
v -0.051934290135011586 -0.5337642876042109 0.1025129268412832
v -0.12401972823931125 -0.2386084543663628 0.04987563158225933
v -0.12518897102098306 -0.24548934870795153 0.04701275870018812
v -0.05004034998764408 -0.42206190871920185 0.10110940699477552
v -0.05059249998294844 -0.4529167645838932 0.10272847739906045
v -0.049691591656664286 -0.48000257217544995 0.09778715268422346
v -0.05373466307704177 -0.5131766337724725 0.10209560364513225
v -0.09685993428912959 -0.22615496283310096 0.06692615573635642
v -0.10051798404206404 -0.2324055845521226 0.062440887210065736
v -0.03538872853785139 -0.3074913297202592 0.10206901951243022
v -0.03677824889594427 -0.3345116474501777 0.09390768527776097
v -0.03913802033648537 -0.373266953534116 0.09189368396596959
v -0.04328199518094772 -0.40573447524930917 0.09484024832581944
v -0.05898471319840626 -0.2119822940527684 0.07604960291392406
v -0.03431200897850634 -0.2628055537159807 0.09653044654848333
v -0.0434070908857779 -0.3005431810371203 0.09556270716513676
v -0.04201857795893949 -0.19750593517831633 0.08804921252996047
v -0.032705317956233264 -0.24764879295505426 0.09950177211938012
v -0.5961076516192821 -0.5209226912913519 -0.16880121808540277
v -0.5876034706126747 -0.4889188450904603 -0.16220903921604207
v -0.5525485121425314 -0.44040627271981375 -0.1493023852971725
v -0.5004196844229559 -0.7897453235721971 -0.12095013763226524
v -0.4776750146288451 -0.769333137172434 -0.10224749260845473
v -0.4505013827521206 -0.7620023074470607 -0.09541023004837038
v -0.44004014878209624 -0.7589651820996794 -0.08717954219263037
v -0.4292827506235621 -0.7492593895789167 -0.08242671532372246
v -0.409464757538072 -0.7407975882543196 -0.07064642308018508
v -0.3992856847117829 -0.734714270094269 -0.07016295680369922
v -0.3737314226566663 -0.7254636912194272 -0.053767753864495386
v -0.3591761963039146 -0.71590777554391 -0.04665025026194148
v -0.33172593780527665 -0.7011165016821925 -0.0362471756888309
v -0.31837525359556207 -0.6943320301307877 -0.03031543839139717
v -0.30096211173439463 -0.6831920379693728 -0.016797984586851184
v -0.2784124308538308 -0.6694014498276386 -0.002973693563275589
v -0.2742554482536362 -0.667061887905272 -0.001962913929076009
v -0.25881459288530567 -0.65961865066284 0.0017998809683077363
v -0.23000660794059913 -0.6466969257305522 0.021274065104113525
v -0.21126114285193628 -0.6362935959982394 0.026960836911191867
v -0.18489460416499387 -0.6191727121507086 0.04099471841502236
v -0.15699718967121454 -0.6116835724562204 0.04684248591926868
v -0.1577169075088722 -0.609423561101543 0.050847401784482764
v -0.1415609891340106 -0.5989575992829916 0.055331216489700685
v -0.1213939484859452 -0.5917331743196578 0.06928224494643466
v -0.107804527128915 -0.5832828342631425 0.07786878605441777
v -0.09052514313964098 -0.5679947093533289 0.08147791556357194
v -0.5029338468596745 -0.7885015448003713 -0.1143251599677184
v -0.574013658440571 -0.44665865248881403 -0.1573177496251321
v -0.5940151263644421 -0.4956845912303939 -0.166603926688738
v -0.47655408239249214 -0.7764613236864613 -0.1079965448895347
v -0.49472663556820645 -0.7791415230148296 -0.10963048034391738
v -0.5422345405542914 -0.4370007761972743 -0.14967658358898034
v -0.452167059883262 -0.7666019284701189 -0.09192445643643637
v -0.4228316417292066 -0.7454253842826062 -0.08201547223046175
v -0.3949526040078812 -0.7282872257354123 -0.06370444218880747
v -0.3968918722106443 -0.7349395367737908 -0.0669911887483555
v -0.3772525982268455 -0.728254914645473 -0.05641053313384457
v -0.345325946501266 -0.7106392148124305 -0.047161677182081495
v -0.31502780844936135 -0.6914473820588377 -0.026007932377350478
v -0.311763600281557 -0.6874176005767745 -0.02118245165920044
v -0.29226933646723374 -0.6757942847145035 -0.01031527836502783
v -0.2927822511864092 -0.6768320245746142 -0.00969340679483868
v -0.2657548562954101 -0.6589359465384178 -0.0027530423100776452
v -0.2722549850355706 -0.6701675710874109 -0.0016681123390405559
v -0.23558456896315602 -0.6466487150316999 0.012628531009957976
v -0.24262768206330987 -0.6528007152787685 0.00939826479776278
v -0.2018671691256478 -0.6315867088178566 0.02585882420607697
v -0.21107610336336646 -0.6332768514376655 0.031421783191057144
v -0.18176534191100907 -0.6191038395120688 0.03557192928009771
v -0.15863284734151875 -0.604274879010236 0.05254014402796413
v -0.16079827058642956 -0.6102598636469793 0.04884068821209122
v -0.12915711845841182 -0.5910093257108083 0.06650150659996194
v -0.09930228785589656 -0.5730607034990618 0.07808156435668842
v -0.0789420880609945 -0.566506300113195 0.09088904874133344
v -0.0431954336861303 -0.39373846816128094 0.0951308194400588
v -0.598159365219856 -0.6180174052674128 -0.16727734035706046
v -0.6231588142879714 0.036875461622285735 0.1322098539301374
v -0.6194214742367841 0.05031981894489556 0.12559920764629603
v -0.5872473369331846 0.3732666725864096 -0.14009671644531885
v -0.604711732167678 0.2142359861569988 -0.006046067465289934
v -0.6022959976104009 0.26275807447253374 -0.04508871403948101
v -0.5954925711906762 0.3031778331658145 -0.07986860629779204
v -0.594400015252146 0.3435918318336732 -0.11663664558541521
v -0.5525600450804142 0.40347890679815873 -0.1624957481584827
v -0.6119575949752188 0.08342304431322524 0.09813255037720893
v -0.6137024934261461 0.1284442674857937 0.07075934173567276
v -0.6140669316538984 0.16321379050072088 0.03191618275004957
v -0.6020855364059381 0.20128149955768354 0.0012337644389458966
v -0.6004689682950369 0.2505135754483519 -0.033407111429130304
v -0.5962681352100407 0.2905218690044735 -0.06893293853382244
v -0.5268672321203416 0.39418958908691315 -0.1643789538608104
v -0.4640131674175062 0.36618326926152833 -0.14169586274402377
v -0.6059365788425148 0.13992417966148377 0.05038748509061299
v -0.6186082064892648 0.10634326034143123 0.08015367294989213
v -0.6046505188680118 0.19843380683321565 0.0021781849793576476
v -0.6099993704221155 0.15572647571634093 0.03589739919635133
v -0.6123446282865633 0.1155873496157731 0.073297354794356
v -0.59246073655478 0.32258750477105014 -0.10184036970273058
v -0.5971486506348213 0.2775383865036225 -0.05548136264384353
v -0.6037650709254244 0.2284187947948096 -0.02192948447293883
v -0.6054575001528106 0.1967995513332293 0.011838016110777186
v -0.5913503719267647 0.37626779329312826 -0.1353109361798339
v -0.5940109941350713 0.3351654139373136 -0.10316264272368485
v -0.6002966451051911 0.2938681470764295 -0.06919907543866807
v -0.5407007973112595 0.39722726721813983 -0.16480057614629162
v -0.5212856870380724 0.3939504684075366 -0.15774410821295312
v -0.48646282591680345 0.3812470397130394 -0.15883310063778242
v 0.6303115172905549 0.07148953373725644 0.017466323879317593
v 0.6239342998079448 -0.024645168604388343 0.10051300864728599
v 0.6278738849075838 0.00903546427317055 0.06607002092884896
v 0.6319233272568748 0.05139222816897016 0.029528737354712394
v 0.630837509434177 0.05979460573455573 0.029665817222033743
v 0.6266479303377703 0.01856691453464365 0.06542107926892986
v 0.6248107682716951 -0.02788115186114097 0.09416602794881145
v 0.6256390348369271 0.05471257494910994 0.03265560370712422
v 0.5891059508768036 0.3058871299488553 -0.17081455877540389
v 0.6483475521434667 0.25296545026404094 -0.13032941589047767
v 0.609432312767626 0.3048390891913063 -0.167214147202654
v 0.6386970934545154 0.11273805202799435 -0.012013688696899767
v 0.6299580924904007 0.14572505756990034 -0.04130547055856305
v 0.6407148432832381 0.18196623264735468 -0.07287392692650832
v 0.6441919430646944 0.22697651384982503 -0.10807758091640582
v 0.6512112740931499 0.266336328079585 -0.13872111972955176
v 0.6388033041417801 0.0987022696217111 0.0016540832919399702
v 0.5630839952304403 0.3094712016295826 -0.1673775416458324
v 0.6437751715614136 0.1337967102511581 -0.03116219911484037
v 0.630585708421023 0.10484681846646592 -0.002484659844807626
v 0.587547431630439 0.3035871976260937 -0.17126396968803195
v 0.6463404625033172 0.22203347641118637 -0.09766274361596196
v 0.6425305541804462 0.18096823161346848 -0.0668133241855886
v 0.6356121403950722 0.13920285744874245 -0.04264532303148259
v 0.6229844831229623 0.30683451796516203 -0.1697170911708749
v 0.648292959648943 0.2581605733874818 -0.1337658091974335
v -0.47106686120436164 -0.039403248433743036 0.18762737081246675
v -0.36912759068654866 -0.04849403346227994 0.18220033635935165
v -0.32628156927733454 -0.052648348993136855 0.18619107255249934
v -0.28867702133428186 -0.057359494845729796 0.18750371980356986
v -0.26678775662078735 -0.05909165726425014 0.189082810687669
v -0.23922293550564785 -0.06044505918401673 0.1901575225900512
v -0.204885696746748 -0.06122642442295722 0.19044400601543174
v -0.1727694846641662 -0.06776103141192862 0.19206400404918433
v -0.14803684863226008 -0.07597767499420396 0.19096920120463892
v -0.11989089024345741 -0.07575658909596544 0.1899922869122153
v -0.07593007627492805 -0.07472981855273024 0.19130392724167392
v -0.04724207663882337 0.004378153694820197 0.12227049494811683
v -0.04661815501057739 -0.08078345902110064 0.191077071264414
v -0.01564462881455679 -0.017579150716889525 0.14089347703211322
v -0.02118132933947153 -0.0836779819678681 0.19080118898604553
v -0.0023975728966490646 -0.03366627576304682 0.15405592035634585
v 0.008965960876424641 -0.04425078078633967 0.15035500685302688
v 0.04338225894262354 -0.08967068474821197 0.18914022736839026
v 0.04496217689232172 -0.011795839500067426 0.12326764325508394
v 0.07587607159526909 -0.08857652090410255 0.1896297607704681
v 0.06901788158678526 -0.0017886440272954418 0.11524933641810227
v 0.11107194227957679 -0.09073122008550284 0.18308734170050822
v 0.12777682669529153 -0.09403603004293196 0.18799936568145315
v 0.16150454826134716 -0.1051274768314848 0.19204504435635203
v 0.20381016073848554 -0.1079519375860218 0.19528585593361822
v 0.24857878451835602 -0.10724240012268793 0.19179390262286308
v -0.47519418060728197 -0.042313669673711175 0.1881186096771314
v -0.4498574617485888 -0.0428350309078222 0.1864344558069076
v -0.3959400500650495 -0.04516154036896933 0.19347012656743037
v -0.3445073605565767 -0.05218269417202787 0.188782538744857
v -0.3164140079753932 -0.053738775563368577 0.19222270292251017
v -0.29750516252658055 -0.056212062433111054 0.18404001873348355
v -0.26721156607600643 -0.05950666401953646 0.18867016078371693
v -0.22558007375678021 -0.06587085454127974 0.1906485595189361
v -0.19942640576814985 -0.06454431305587385 0.19210089145927384
v -0.17536381255715025 -0.06821237996676771 0.18794145921522104
v -0.09513531284777949 -0.0743005860431787 0.18951041826685222
v -0.05201837107197284 0.004578081371126262 0.11898097635507066
v -0.07655522966966004 -0.07873111632391294 0.1903137965856791
v -0.03520489607554403 -0.012579657545592184 0.1281923299779762
v -0.04833768412347802 -0.08056311460262602 0.19421350580454202
v 0.008324038964219878 -0.04066224877691483 0.1582681334311317
v 0.020662870970563005 -0.08294226231830881 0.19492927144904978
v 0.041651023275972275 -0.09316242617732509 0.1923706953097212
v 0.06080451681028466 -0.007337558515840007 0.1222581684400091
v 0.07016374557301878 0.0006938278731748503 0.11285858241542988
v 0.1044690007077243 -0.09864610140631203 0.1884256737530369
v 0.16819258738310283 -0.09979853165485447 0.18950840912228725
v 0.2342233092806296 -0.10504003280533394 0.19208067425044525
v 0.27673254492754307 -0.11649341693128831 0.19549538066506308
v 0.2865245466903537 -0.11345115642339361 0.196479697616941
v 0.37595772241566794 -0.12258055334441821 0.1926018211039428
v 0.40860350352189356 -0.12537955107325494 0.19501771898012057
v 0.4467842029759651 -0.12960147381486975 0.18798802799207193
v 0.46864262835803927 -0.12606774574735516 0.19651984798171007
v 0.5317458526041229 -0.13157415938239536 0.19714545996776062
v 0.3171046176592874 -0.1170908766790778 0.19359037581239957
v 0.3634940046053325 -0.12063554061923291 0.19223276404641795
v 0.39614674093509034 -0.12461348572956014 0.18858477189472417
v 0.4213135386191848 -0.11926942195326648 0.19244732109668697
v 0.44022764569832884 -0.12583033900394117 0.19232278654271193
v 0.48710799342489586 -0.13136088055953415 0.19000997828572994
v 0.5427884330038389 -0.13777108276255223 0.19145891596160614
v 0.6177122970949744 -0.11259409047864993 0.16543314864071787
v 0.6170958235300715 -0.06596386789073992 0.13692984231574729
v 0.6136588977998565 -0.12776231768582957 0.18176605236040483
v 0.6232398569880089 -0.044168627942417854 0.11085111400253363
v 0.618077208542966 -0.08499156869192463 0.1440106891609558
v 0.6152348433184976 -0.11886616084678296 0.16983116461180486
v 0.2577528965516892 0.1292753582346756 -2.6330676129550108e-05
v 0.2432003902371565 0.11927711259478992 0.0045281237576552235
v 0.2211836559103993 0.10574645457559043 0.022541122581629255
v 0.2515884056138918 0.11655961764293296 0.007907254266896833
v 0.24011896919881723 0.11309497441900149 0.017275793270507482
v 0.2620755221243942 0.13402873712418484 -0.002648341813108038
v 0.2779056140860234 0.13789939180778477 -0.010890879486235404
v 0.2816207886156079 0.14271339496568056 -0.011602874419537789
v 0.3129428053691241 0.15635645179682622 -0.03199279758998898
v 0.3393788103337704 0.1778578188350298 -0.04500696831021256
v 0.37327388093558594 0.20053177650977075 -0.06663787091223296
v 0.3949456015503451 0.22149419452524216 -0.08789495655230725
v 0.40381160590080806 0.2233182229013723 -0.09279102978929413
v 0.43627836967383465 0.24580988927373776 -0.10617627160388575
v 0.447234060366435 0.24799407132996032 -0.10782241070394792
v 0.47539686089280114 0.26655405193114656 -0.1319958457672675
v 0.4833071614174671 0.27941658136305614 -0.1292178013605686
v 0.5235425845520061 0.29662019088952357 -0.15585900749591425
v 0.2866045528169072 0.14662402094949978 -0.015528458350596056
v 0.32646017845832853 0.1704251026046581 -0.04302458587070753
v 0.3094732122629512 0.16405047540009368 -0.029478838841003798
v 0.3378830206739252 0.18012630630550905 -0.05097839622600322
v 0.36560685238993157 0.1959737917670934 -0.06167340850322316
v 0.38525727186408465 0.20738716341276103 -0.07799230125246319
v 0.41923176676229584 0.22975706288139053 -0.0940867127056355
v 0.4447192032014583 0.24922728951601514 -0.11225055143366246
v 0.4624471861040819 0.2634432680363443 -0.12799915701788533
v 0.48545508728892856 0.27416109881090794 -0.13438562939379808
v 0.5347733750032447 0.30447787245157404 -0.1596493689947726
v 0.520092981745704 0.2926392243474917 -0.15733264724907883
v -0.5952313122905246 -0.028299030537030208 0.17949741289397053
v -0.6170887609142779 0.033873381654222406 0.140199889165225
v -0.6163776412124368 0.07202469690945593 0.10572740596179556
v -0.4962051902935448 -0.03798423440183181 0.192275227261365
v -0.4258089961078038 -0.04792516486399599 0.19097033126399512
v -0.13247298048085687 0.07054048964957471 0.07088963730721695
v -0.09757973595953343 0.04753171706923566 0.09772651365261177
v -0.08406558445839975 0.034475175449253076 0.10564856999574813
v -0.6223584012786784 0.007225850382805614 0.15797477044030636
v -0.6230928556934952 0.05963371144929963 0.1152800192685105
v -0.6248596551308877 0.030613181939685895 0.1455668915486603
v -0.5713671605942656 -0.03547139450316024 0.1885338390923818
v -0.5519555763102882 -0.031082191465404935 0.1866170623707657
v -0.5203681483547116 -0.03154103644449018 0.18561957987390557
v -0.13135224379893792 0.07103747012894712 0.06469541765819425
v -0.12242213244524194 0.0671418985607687 0.07515123151982632
v -0.09227106529627437 0.03996071764471876 0.10205628438382516
v -0.07194349802606594 0.025494403508930924 0.10559631074950299
v -0.441214336478303 0.34507454323079123 -0.12599416421167295
v -0.40526720053970317 0.31238377677956314 -0.10082374777132058
v -0.4343933961346123 0.33883883874137993 -0.11477813798607682
v -0.4056672283628063 0.3095787391457423 -0.10010075279734085
v -0.3664101420982056 0.2707625316181359 -0.0769555188410954
v -0.3325777225231965 0.24463425504484718 -0.05824998407271506
v -0.31815227515773853 0.2324231432523744 -0.04980722941882228
v -0.29295647582800227 0.2156934790017941 -0.025830228014595714
v -0.2493138861263743 0.1801494230600091 -0.0040013446444870406
v -0.21395817404947184 0.1465365839696614 0.018964332595057202
v -0.2331500806585516 0.16233921080953756 0.0023265897618857906
v -0.1920433220337327 0.1285587843600857 0.03073953795087952
v -0.1776247981718909 0.11134217720888238 0.04548047481729483
v -0.15155594339840606 0.08638808872143909 0.053936009555965746
v -0.6156715894226554 0.07643957140277426 0.10155423607600073
v -0.47786101736815 0.3720926826140435 -0.14923084605995232
v -0.44250955969311273 0.34329705244177455 -0.12901943150327416
v -0.42154886421243215 0.32387030029543407 -0.11299533439855465
v -0.38946360588921 0.2988389922786761 -0.09801685200370676
v -0.3829087481035063 0.28722077413850944 -0.09237104439620229
v -0.3686644354491238 0.28652729257570025 -0.08019678767537647
v -0.3394317828381726 0.2554018741672828 -0.061659342267800295
v -0.2944008022828759 0.21836714933119614 -0.03360899151035697
v -0.2749026910146202 0.19288595085398746 -0.01647032393149614
v -0.24179186951359197 0.17237711545801865 0.005692124943596927
v -0.2279218874865241 0.16466565657687837 0.005437195108466072
v -0.20466855343086948 0.13483572606265665 0.02778007537326309
v -0.2011490421604613 0.1318611015071734 0.027106320631457143
v -0.16473126989294204 0.10429804456409965 0.047184210132675965
v -0.16289879270157587 0.09868245489743985 0.055005773108991116
v 0.09658305346136759 0.024669423378398152 0.09692602236744362
v 0.1134874619252976 0.034800691835681595 0.08385535848710592
v 0.13899906018319677 0.05555501328221821 0.06390630687178435
v 0.177851721962755 0.07181020543998007 0.04489106472506237
v 0.08903243163978188 0.016468676437474728 0.0993080882402305
v 0.11429765095185579 0.02851780162325752 0.08660823916648293
v 0.13185086428706455 0.041829403061908965 0.07713316908744672
v 0.164111433409347 0.05893701243515139 0.06276440814568539
v 0.49867255833423135 -0.13106657999738525 0.19605195345761173
v 0.5106841679113605 -0.13639405206519573 0.19192016569759668
v 0.562201740574326 -0.14211643954035705 0.18875270269150804
v 0.2054752674102477 0.08762569327943799 0.0350150598181628
v 0.22473929042087704 0.10214772922735213 0.02186421108369213
v 0.1941921862421771 0.08533725731878666 0.04452406701217797
v 0.15262009812772914 -0.1012591567012441 0.19002374817108503
v 0.20566825385992532 -0.10379932961699503 0.19040261086065707
v -0.6048384048682461 0.23473430041736312 -0.02577483839016557
v 0.6142565440326638 -0.11551922296504041 0.16678233023265718
v 0.5489231420513125 -0.13988815349381833 0.1950106618530471
v 0.4319309484767096 -0.12430588029124952 0.18953428274403522
v 0.08737248228052087 -0.0886647954691899 0.18726361838555183
v -0.14113003442737476 0.08769073173339909 0.05852973377182519
v 0.1997290677145012 -0.10403296470818958 0.19715514497689737
v -0.449343605699152 -0.0429762004014592 0.18232541083641554
v -0.4761566782283631 -0.03796366322358932 0.1909358134009406
v -0.0839883059931352 0.035907299093010964 0.10523465401725461
v -0.600354967885053 -0.02303037786073438 0.18735003149526766
v 0.053088189508912385 -0.003529172178356503 0.1203152630324416
v -0.6020111732650334 0.2558741889292248 -0.04217806286295104
v 0.16515032085108722 -0.10255985921074737 0.19175546404723698
v 0.5403348680675925 -0.1370076577618115 0.19829875977572733
v -0.06323718402927012 0.007889552037581161 0.1128108340156273
v 0.34612373215397124 0.182122289238038 -0.05505609997093631
v -0.08905680608140235 0.035869985346365145 0.10194780941703682
v -0.30340887702446545 -0.05981075549134766 0.18993760676278906
v -0.6176603575657248 0.0701135322664468 0.11707204693855147
v 0.24327117925902236 -0.10659837850682805 0.19835203413130806
v 0.04772465186193604 -0.08072981728036079 0.18818587317050578
v -0.5276948477081181 0.4007127264160844 -0.15936906143369223
v 0.4079824006690004 0.22334031360635265 -0.08824232477678028
v 0.4389296100751331 -0.12674181527729544 0.1945318362405569
v 0.6277277870606813 0.005608279795178561 0.06968751226858058
v -0.6133528263641906 0.07693845251812753 0.10874956124336098
v 0.641887563342445 0.13707481111478131 -0.023965139228561687
v -0.31099698339306997 0.2339698612801019 -0.043555207125340015
v -0.5852008114843232 0.3752460805257011 -0.14591910135042263
v 0.6450292602042819 0.24213735093507077 -0.11956424764735522
v -0.1402799952607709 -0.06640324038195014 0.18879791517234637
v 0.008206606806684077 0.03461100581180371 0.15165386481272
v 0.005173317611810156 0.058575616504891015 0.1557016574272121
v 0.008079298490440829 0.02278722329254154 0.15230285974513244
v 0.005865965353403434 0.048423404326417965 0.15387588231723773
v 0.005430956605882823 0.01708828246696486 0.15447269525378085
v 0.03387110372290407 -0.024719145054008955 0.1338584844480117
v 0.002801201587192949 -0.005216565842609035 0.15773126054018843
v 0.039391642304485594 -0.015347037382235888 0.1330850351104502
v 0.3695607822789699 0.19693784419577623 -0.05843051255998912
v 0.07354298213884003 0.009223613561910066 0.1077087840750848
v 0.14142780572550107 0.045427679401850926 0.06840102377724148
v 0.06353118417939016 -0.003198414799175865 0.12281452281799787
v 0.09489030501628866 0.019352311777652512 0.0958612064252734
v 0.12859473414103653 0.0401886182088603 0.07991391941316593
v 0.14289520422345567 0.052702505200323255 0.07050997747705007
v 0.17351634307766145 0.07040602169208961 0.048823994620236726
v 0.0059027504158256795 0.05785426174271776 0.15205401994690557
v 0.07978834085508292 0.018319472530786765 0.10721655186447658
v 0.12402724463161975 0.04206510817158238 0.07734584501039471
v 0.005014263923693964 0.05228282416949708 0.15547317215024728
v 0.011917494079506282 0.09223680480526626 0.15098776337660647
v 0.14266358116940392 0.047443373328504373 0.06767342881011461
v 0.15449544935871826 0.06300582952167218 0.05797521727882992
v 0.011067320089817765 0.08103183087193738 0.15345401706195033
v 0.009609861214130279 0.08154181155194075 0.15792676454866936
v 0.15007915686621032 0.051751315947172756 0.06477866391953277
v 0.16997373507669628 0.06909756695819083 0.05536358278958261
v 0.053913892129095774 0.6065428582204616 0.1549754056458675
v 0.04030669245597748 0.5395795595980574 0.15009804317704253
v 0.22090664771351204 0.10640237354564759 0.020337940904587567
v 0.2428624545904459 0.11954873187528174 0.009381580835277004
v 0.2720264858592219 0.13381262365365762 -0.012331157577455388
v 0.2909669222606046 0.14954104561319842 -0.019175332519854524
v 0.04577820571370296 0.5916896005723784 0.14748102579208952
v 0.04363647860870893 0.5621224766870446 0.1557935612828663
v 0.23162214966572028 0.10665910261895241 0.018630964865081243
v 0.2561318788976635 0.12121421819777127 -0.004570328306895407
v 0.2722337802324997 0.14049016613074006 -0.010949793057962372
v 0.29905241381378145 0.15282833182132657 -0.028154352235483765
v 0.32340674449480017 0.16706122367368603 -0.03408298330822572
v 0.33713484420449535 0.17237632860211652 -0.04367086653571055
v 0.35008620362343634 0.18152477141880335 -0.05634199198651541
v 0.3816996863621352 0.20735274707069087 -0.08064546041686402
v 0.4282982386321006 0.23388876484533333 -0.09939081517580635
v 0.44229130974199815 0.24513255756497956 -0.1082176831189368
v 0.45379698563801885 0.26001637703709307 -0.12235812256633312
v 0.47301177407057643 0.26809037731180146 -0.1262119029338844
v 0.49863806003883854 0.2786259436690666 -0.1426880174399056
v 0.5123924040024082 0.29903311241577607 -0.15077924769731105
v 0.30758289917695864 0.16170729425284047 -0.027660549816738527
v 0.29998332936922806 0.14932649404163287 -0.029622355366346477
v 0.33032933574038414 0.1754719671933305 -0.04105058153502442
v 0.36057170727652954 0.19120710010528846 -0.06195156846058476
v 0.3549842963774537 0.18934264313862326 -0.06113550889528081
v 0.3721613120820699 0.20101482371159954 -0.06670783717222623
v 0.3692460227187398 0.20319423628822525 -0.07168969705336611
v 0.404516090235981 0.22507679985034806 -0.08805501273850515
v 0.40504284462707585 0.2218148029101244 -0.08465039560467315
v 0.4387346110888743 0.23979341033107146 -0.11116486858992587
v 0.437149240783991 0.24014400421981524 -0.10426230649594523
v 0.45813927850521374 0.2611486734456941 -0.11782798445900458
v 0.45290914466621196 0.2584104338025007 -0.11651989746158577
v 0.4805426352684662 0.27095670274829736 -0.13708346452741862
v 0.47736820100206556 0.2669996241570774 -0.1323594427147816
v 0.5110755197195964 0.2891361812820282 -0.1478475687395872
v 0.04481297139606481 0.5742663714251006 0.1527447316009943
v 0.03303331998677922 0.34087242896515346 0.15012813489282
v 0.03133143846975989 0.3800684823029894 0.15170547344993485
v 0.038840429294372585 0.4107757446949643 0.1542406507189925
v 0.03936877882943571 0.4416229523348176 0.15020182602023024
v 0.0426992897518428 0.4728265218373301 0.14537940451512205
v 0.038632956146204024 0.5099765966073678 0.15246477527909086
v 0.01680188974033567 0.1589674421010969 0.15545188631937257
v 0.02060916107312581 0.229279760069495 0.15164728260035024
v 0.022484784746664967 0.26441309276233693 0.1503243574773498
v 0.02460610341138722 0.29998594575474574 0.14788914804528883
v 0.028388345828141672 0.3275591269871266 0.15339574481710622
v 0.015231818468484992 0.09655220906393801 0.15540740802445693
v 0.012548852819366947 0.13369153365361217 0.15256735040213792
v 0.01939274297535681 0.16011147140714052 0.14608223956916289
v 0.018998373611152263 0.19297985988984837 0.15987813421599018
v 0.02855904584539838 0.22986653696049983 0.15570621725850556
v 0.19203996299141984 0.082853888352771 0.04380162882223282
v 0.015784289290672722 0.14720744046850412 0.14922693994824252
v 0.01238546907228167 0.11686920211578622 0.15208550053472597
v 0.02334710740119638 0.26759165124208895 0.15105225416280993
v 0.014648808872611274 0.2373403382021356 0.15121679023893764
v 0.019309933726422483 0.2037974895962418 0.14704247580352905
v 0.01603146626932393 0.174603720583026 0.15356981393595656
v 0.03543992818825169 0.36483955198168866 0.15155751160891595
v 0.027956613134501984 0.34167369115063934 0.15177097090499678
v 0.029713013386825533 0.3137983006756804 0.156063851731701
v 0.02320123984930166 0.273301496609919 0.15180909229904258
v 0.03871916739713763 0.45805997831987005 0.15670112147915105
v 0.03410485731222011 0.42358904651642865 0.15382053137985668
v 0.0335716971154706 0.40226545168145006 0.14889495715868764
v 0.03239485068086427 0.37231298799080453 0.15018862496637092
v 0.04353846958955687 0.5648848271048613 0.1532353821526304
v 0.04350886604005552 0.5320774169220824 0.15303288665009396
v 0.04234337193457936 0.49719224751276314 0.15262375719381766
v 0.041607661798229806 0.47698679986368286 0.15342212497900992
v 0.03883020949708617 0.43770817297704506 0.15190077992171228
v 0.196159721748986 0.08475759624614186 0.039960400676860554
v 0.5148294330619488 0.8453923836716767 -0.11849426453062785
v 0.5372286570353983 0.8567924670384006 -0.11795415807373892
v 0.5821467194397145 0.7092703623123077 -0.16984592579823027
v 0.5887441973724898 0.7437685197914014 -0.16250384541188553
v 0.587996793020002 0.7771679881977982 -0.16401943788703116
v 0.5982120441097292 0.8128516851300281 -0.16467466439987416
v 0.6007140932320515 0.8450984461796947 -0.16485431001941667
v 0.5668332898370891 0.5638823002395742 -0.16689161501180036
v 0.5733701017783377 0.603625382315607 -0.16690956219258585
v 0.578900435417999 0.6413886891025166 -0.16725516111048508
v 0.5817441629453411 0.6719726444754514 -0.1654628811198742
v 0.590861477391255 0.7035860769751939 -0.16519192080101086
v 0.5890587723685053 0.7396446465344888 -0.1673448533267727
v 0.5619909967974994 0.5051772765916563 -0.16813639092667942
v 0.5727836848884509 0.5447635312975241 -0.1665366674832056
v 0.5690251012171567 0.5714872587953344 -0.169253502186992
v 0.5438822306228922 0.3550648942916013 -0.1690038283617934
v 0.5471143754348665 0.3989988718221475 -0.16658159685343626
v 0.5592973230362144 0.5240783015970144 -0.16844423854457982
v 0.5573793754298051 0.4931604498136282 -0.17156494448911164
v 0.557635604636249 0.45719272381341924 -0.16823541120333468
v 0.5791854490352644 0.650929310513943 -0.16628782526309843
v 0.5747949680187989 0.6174151837274517 -0.17103197095559233
v 0.5704977718808055 0.5872542758283523 -0.16776014455359342
v 0.570125009635312 0.5560735886532583 -0.16884040231887518
v 0.5303297557090675 0.8464568155352209 -0.11888864444949347
v 0.5288137209030457 0.8498698338399341 -0.11746394891666796
v 0.5973140639462681 0.7348960166328162 -0.16838549249561321
v 0.586405567770348 0.7035468629490613 -0.16770285223608444
v 0.5773525705553495 0.6765574803333034 -0.16693083101622275
v 0.5518519001243728 0.8630004169357943 -0.1315434355271127
v 0.5437759694585309 0.868108845602171 -0.1329322397289381
v 0.5987385440823424 0.7890753998425288 -0.16164906501823947
v 0.592421779031791 0.7674855048231436 -0.16232269799355273
v 0.5781701992680652 0.8750347484938285 -0.14622744754496286
v 0.6002074979202798 0.8257534250509091 -0.1648505034523896
v 0.0900063494837311 0.6374581065539164 0.1322737787142366
v 0.10737325848876604 0.6444947720706384 0.11643718424459878
v 0.13749962218978856 0.6583030057306437 0.10382316244602297
v 0.1504368335392536 0.6610867542797011 0.08926052011628026
v 0.16486104229450033 0.6695483242136472 0.08888325089815055
v 0.18096539474177822 0.6765818134550017 0.08014850923251232
v 0.19441306799300662 0.6903823309577154 0.07251270835352809
v 0.22147117074375108 0.7010699687182116 0.05319300486633044
v 0.24093049245332698 0.7079451436299002 0.04328233741293068
v 0.06204846793843835 0.6216016306457947 0.14251391637812655
v 0.0958883675523851 0.6380896906045451 0.11948428196692353
v 0.1302036753464777 0.654351537949685 0.110738223507706
v 0.14519672427893077 0.6595839500495093 0.09877295003653147
v 0.1414094757982143 0.6623513575434506 0.09694804052518906
v 0.1799058880967003 0.6807320183847512 0.08529503243029803
v 0.17004580137246983 0.6792361626702254 0.0790494703061527
v 0.20203940134596038 0.6897628856819535 0.06223369875285069
v 0.22757182105821255 0.7002225834159141 0.05415018207931026
v 0.25564119729141094 0.7104797194514374 0.03569340485710023
v 0.2798658824592373 0.7220911919065659 0.022499621143392413
v 0.2911143316544611 0.7352898268246931 0.01126770450883006
v 0.2970192602370648 0.7338376354203294 0.011286393814783824
v 0.316933495496512 0.7474567821161806 0.0036565372852386483
v 0.3378768413142456 0.7540645340867593 -0.0037321028055444677
v 0.35029451973105397 0.7646721508543768 -0.023091167323090918
v 0.38640671469084953 0.7807386158672183 -0.036994802482011986
v 0.43078954928083546 0.8026202645367607 -0.06692665907880073
v 0.44328969083007747 0.8108091353744581 -0.07045733286490731
v 0.4514652832137928 0.8102306471273797 -0.07602529761547629
v 0.46892796730961495 0.8150826471618111 -0.08261470897265737
v 0.4832981171369422 0.8269722365196215 -0.09078104784368793
v 0.49465726030064977 0.8317547676779045 -0.09886576416276115
v 0.5642432411120223 0.5354708668445968 -0.16979763122106503
v 0.5474117961671284 0.3630493765046969 -0.16756973507911616
v 0.5539469534708135 0.39978796844815145 -0.1648477294237257
v 0.558042984947602 0.4371981648074926 -0.16539361548990925
v 0.560211891086146 0.46778440880353744 -0.16932657342837082
v 0.5418846631662549 0.31797170966656174 -0.16958891211882848
v 0.2821276348047205 0.727316618385658 0.016831559561083332
v 0.31512369183700184 0.7445330402643979 0.005747449197534114
v 0.33484504027152734 0.7586979762144112 -0.009536499238237135
v 0.3348537616701155 0.7566055183684851 -0.01772246702028265
v 0.359942605236194 0.7671962330450606 -0.029222222461573882
v 0.38895547343459175 0.7782713043380869 -0.03882875573921271
v 0.4248798452626215 0.7939877571412671 -0.05736799572965976
v 0.5432384365706748 0.3883995550878947 -0.166633181966764
v 0.544465608377724 0.35872060654994675 -0.16712407362190498
v 0.5390129661189056 0.3294382223832857 -0.16762589799124844
v 0.4478433978836575 0.8075471385667115 -0.07065286332325796
v 0.5583952966053705 0.4594721991442804 -0.1641959260611813
v 0.5519775621147073 0.42859444957019055 -0.16817745495236341
v 0.4680427127709171 0.8223105603858085 -0.08241221124627544
v 0.46456669471656986 0.8149827414802026 -0.08038873347666263
v 0.5673959507762755 0.556827802082911 -0.1620863134111502
v 0.49543063792893577 0.8350059830516209 -0.09782666092900236
v 0.2548986865192406 0.12270216864407009 1.2357788732241144e-05
v 0.5952968203525101 0.7709518601036167 -0.16399388306876717
v 0.5559140775686952 0.4319003277159743 -0.16932108699637746
v 0.33243326558543196 0.17875154506207713 -0.04097225623004947
v 0.04747079768522305 0.6065495768942364 0.15367486199269864
v 0.512099685390118 0.8408255604734284 -0.11283428661510371
v 0.009885689874533159 0.06646156732120892 0.15370976415642382
v -0.501379680715822 -0.7874336461719595 -0.11648781737617185
v -0.4636766505364591 -0.7701686387148969 -0.09902874520781509
v -0.43585534504487844 -0.7524113746895926 -0.07675255031219093
v -0.3956340478341151 -0.733933176234891 -0.06283891354826888
v -0.35803848114310566 -0.7099723095476493 -0.045319154180111225
v -0.5101866340812428 -0.7887825575499157 -0.11503141883221732
v -0.461395195335772 -0.7668491486299394 -0.09762044680035394
v -0.42985771308489645 -0.7545376020370304 -0.08623040764544222
v -0.41032125819632054 -0.7403272320460285 -0.06916436486682594
v -0.35692197183664204 -0.7129881040637602 -0.04500819051980138
v -0.4108392929492885 -0.8195939591790353 -0.13370028519772184
v -0.42313891512171453 -0.7458756183618508 -0.07935235078140633
v -0.3666874343197129 -0.8149960561857036 -0.14013486245896117
v -0.3764882450223116 -0.7210824974207953 -0.05822234754840809
v -0.3473980755852746 -0.8243009456382882 -0.13679638342069886
v -0.334519336779383 -0.707850885047373 -0.040222505973626844
v -0.32166641670978985 -0.8239696880712858 -0.13825838690485578
v -0.3203305923929096 -0.6927987726591582 -0.03015590365488602
v -0.29250136815854855 -0.6888169916934239 -0.017874000581007108
v -0.28095149597324515 -0.8238388658044836 -0.1361721087391239
v -0.2731168503793636 -0.6678865486746589 -0.004735279527816177
v -0.2524180033839848 -0.6511409849262881 0.008762015260670919
v -0.24277817990990214 -0.8317891734496843 -0.13369652956455674
v -0.24312689254485462 -0.8360838830125945 -0.134397650320806
v -0.21758276568856263 -0.642913034228353 0.021305488688828766
v -0.22050878669644383 -0.8361021748925566 -0.13840258984000617
v -0.21527703384665944 -0.8300889506607868 -0.1409382844427997
v -0.17687862021176964 -0.6206040791123956 0.03838188410988374
v -0.1958602584762845 -0.8328566641135453 -0.13680738406605936
v -0.19123986000660007 -0.8333109249367788 -0.1401750970583179
v -0.1679861776986404 -0.6112884895135139 0.046765300882490125
v -0.1437920163146061 -0.6019475477407791 0.061787803354236205
v -0.16647098422393763 -0.8408779787866423 -0.14250397317574987
v -0.12734671341389048 -0.5970337011986608 0.06108892022051421
v -0.10745507600389886 -0.587813321022758 0.07716752125209453
v -0.1287405038778815 -0.8400585017619545 -0.13217625960882354
v -0.12100358289015606 -0.8378163108999243 -0.1416578106278225
v -0.04017907106926869 -0.5733672215900641 0.08937569113125689
v -0.05430573547929124 -0.5627474417215381 0.09516092391994457
v -0.09986754496800303 -0.8509043887111902 -0.1349232608891696
v -0.02551604566060064 -0.5880082718767639 0.07714789296961926
v -0.06933268175269046 -0.8430566418898124 -0.13443069808465682
v 0.004324030252350574 -0.5991350244796896 0.0673687008553608
v -0.03148315246161565 -0.8518183093617093 -0.14107678087898276
v 0.031476681116014954 -0.6184026546425184 0.05025998400752653
v 0.0047566065275545365 -0.8491475679930158 -0.14073199635150824
v 0.07227247073165635 -0.6432674083705602 0.027587347095444133
v 0.020028957391126496 -0.8512006116164373 -0.13607190056466217
v 0.023002244513448126 -0.8483078605464983 -0.14781606466112202
v 0.08690922252372887 -0.6678962319737822 0.02073410898357985
v 0.04920756822290344 -0.8527997425649 -0.13890823066184144
v 0.11336157927782947 -0.6790957716094651 0.005684265755900496
v 0.08695124991012844 -0.8594172161999287 -0.13675364376975055
v 0.14686807164440285 -0.7103147589774322 -0.002415430863759142
v 0.12065453821781881 -0.8629226748839506 -0.14089613725132746
v 0.12233744880779918 -0.8665759952033055 -0.14391253216707
v 0.17446106996040067 -0.7273819928248516 -0.03089964532095939
v 0.15829927419113357 -0.8698869344680553 -0.13322281345308834
v 0.194751794104916 -0.7484120573736035 -0.03570254427701247
v 0.17306849533525256 -0.8617054902952125 -0.140094026747148
v 0.2166131924043551 -0.7644520099198922 -0.05388339519068801
v 0.20694575389899428 -0.8721066339656044 -0.13310012396937773
v 0.21570375150293342 -0.8643896815324751 -0.13863338904044564
v 0.2523986291814199 -0.7866802209613188 -0.07064930693693444
v 0.24422649985097286 -0.8713614213422051 -0.14035885310732224
v 0.26998329297506957 -0.8753338654899109 -0.14206767603176443
v -0.48385315610271185 -0.8086485210936911 -0.13345004808758099
v -0.4214799332287597 -0.8214307260327066 -0.1345942220504957
v -0.4002471564450726 -0.817337810977058 -0.140334784571573
v -0.3851319451567134 -0.8200511605017186 -0.137762556737008
v -0.36921134416164053 -0.8207380397407752 -0.13071009662510785
v -0.3275285190079298 -0.6992634276385186 -0.03033496837140253
v -0.2961736729152203 -0.8245212119549463 -0.13199137881902276
v -0.2967570810138548 -0.8293736153257099 -0.1334750652995282
v -0.30796652484330117 -0.6863135415870677 -0.021790415169274362
v -0.26242633313612174 -0.8325306865963426 -0.13723201747493988
v -0.2847417259888684 -0.6773630745944362 -0.012869518543623195
v -0.2402355238797456 -0.8343978252618011 -0.1371163924464009
v -0.25629262751369586 -0.6625116478914087 0.008752460751170069
v -0.19864624305487882 -0.8329057314344136 -0.1362418968397092
v -0.21619169739996022 -0.6402625517208905 0.024486180887003668
v -0.17316672788169743 -0.8349633232895148 -0.1387805734507806
v -0.1625106753682709 -0.8370168002930496 -0.13283011210547485
v -0.18991844039836495 -0.6293922403333017 0.03270445583857337
v -0.14501284878512757 -0.8406204034219718 -0.1384395033465048
v -0.13895970624722503 -0.8424749786375053 -0.14018483922602998
v -0.1776106378271137 -0.6186518649278615 0.041194124073108726
v -0.11461388734606763 -0.8431884491642166 -0.13145031958086548
v -0.13451873895366714 -0.598552092688588 0.062902548140378
v -0.15179357873513546 -0.6008203740463304 0.058493179376820456
v -0.07438246339233995 -0.8445552804586288 -0.13939560511909763
v -0.1028857408403359 -0.58168698948479 0.07891855503472237
v -0.04557444870865219 -0.8464294147797314 -0.1419376406405029
v -0.04270642330650099 -0.8498113730050983 -0.13795025046038326
v -0.023244025852727557 -0.8488993646790812 -0.1338392755151257
v -0.01031412127014112 -0.8510604048844034 -0.13913205969654005
v -0.038268484364631254 -0.56723714495194 0.08843375484824247
v -0.021958600158634427 -0.5921812071215644 0.0799279722845526
v 0.016151709998736247 -0.8526279619329044 -0.14047319047761256
v 0.04375716102927159 -0.630866578298631 0.04379552512578342
v 0.04208094863726029 -0.8551793978511986 -0.13997858757536508
v 0.05239132162961786 -0.8558632559440809 -0.13427397121915827
v 0.0583776630395414 -0.6392877719343159 0.031127931563759044
v 0.07905275320233064 -0.6620151028340483 0.02432532991716193
v 0.08937696157217777 -0.8558286237728454 -0.13874828728374508
v 0.09462342079464353 -0.670651490207503 0.015212542134347331
v 0.10381409872770689 -0.8601085692213524 -0.1398080631864047
v 0.11587003449908771 -0.8580178884162378 -0.13961829969505676
v 0.12574089054873616 -0.6920244544229774 0.0022644166258398487
v 0.1392778398997123 -0.8576147744559538 -0.13619164074501242
v 0.16379133161465434 -0.7233753395525141 -0.025774280812564766
v 0.1848032779890018 -0.7382402361633358 -0.03339809174284346
v 0.17257057920872818 -0.8665881950055541 -0.14291451508222472
v 0.21157115843040247 -0.755072329166073 -0.04506124750794774
v 0.20196537938753015 -0.8701120872945588 -0.13354057415665618
v 0.21050102944351304 -0.870282986758272 -0.13847208126768404
v 0.2244056614703982 -0.8668385474520635 -0.13897401057558273
v 0.2527981027667266 -0.8691869468047021 -0.13769638678022417
v 0.0717963496385985 -0.6542884711201581 0.03535344408392133
v 0.20386650853003363 -0.7557867998037772 -0.04477158011656802
v 0.23657598446279607 -0.7776091904223265 -0.062198787516898106
v 0.27533299583293697 -0.8116786795089946 -0.08582538447644533
v 0.26773956484699457 -0.7971969561668579 -0.07528859275678075
v 0.2983023281940501 -0.8207723107070841 -0.09145458145548765
v 0.06884981309668933 -0.649798827152336 0.0290245252861836
v 0.0992777070662603 -0.6837284814204048 0.007727990031638852
v 0.1428098406752863 -0.7072812760213885 -0.013062722994996442
v 0.1922454793961682 -0.7435509302543158 -0.040527040450866365
v 0.21634508159977858 -0.7613913920406071 -0.052454502801358785
v 0.23425769304860616 -0.7754309436030796 -0.0641447547496394
v 0.25006722328998227 -0.7857797484800949 -0.06807475451240712
v 0.2703057443550284 -0.8001761528142743 -0.082229997297216
v 0.3040979262009305 -0.8807971729432595 -0.1365039598687474
v 0.2998053562751692 -0.8298646177836783 -0.09841828993116072
v 0.2938255714260937 -0.8791214045453678 -0.13821254243861536
v 0.3344049999594591 -0.8444849617013674 -0.11702005911375785
v 0.32768354831306834 -0.8822597967908091 -0.1428246281106664
v 0.33857976735442347 -0.8798631358264948 -0.13941040801212073
v -0.07693856968668701 -0.8439035842187522 -0.1391050891536755
v -0.03955244874983004 -0.8432402904272284 -0.13674393443460814
v -0.03815672754963961 -0.5753104424839028 0.09005482186933518
v 0.010340872489960644 -0.855457931313888 -0.1356270785313208
v -0.36784868115998337 -0.8237643862699412 -0.1388013349674881
v 0.21233067129835784 -0.866853913711085 -0.139316126964453
v 0.1758522927215785 -0.8692292662833631 -0.14708278902557215
v -0.46446609348252815 0.8313585052945806 -0.1796533903659921
v -0.46626684670027524 0.865882469296938 -0.17292918199168628
v -0.4618715274237328 0.9028904842949285 -0.17283974157969384
v -0.4620337853637966 0.9258293970801416 -0.16531890627515125
v -0.41578308515397505 0.9643834914054669 -0.1546919758351238
v -0.4736423250891686 0.6643295397081905 -0.16574644839724334
v -0.46848449403108233 0.7068076640325941 -0.16706120659744633
v -0.47084913496447633 0.7355531703512465 -0.16823117335825383
v -0.46631854015985635 0.7724408689547337 -0.1726543825797823
v -0.46571076282165 0.7951548538750582 -0.16795894181913282
v -0.46698664817785934 0.8359484906943282 -0.1706231726506858
v -0.48188428914315456 0.5665389132324501 -0.16613838843790674
v -0.48113308289606976 0.5893705299878408 -0.16725595567195764
v -0.48676000184317764 0.6359799320082736 -0.16804291300617755
v -0.48147495839744636 0.5324509882782515 -0.1611412603418176
v -0.47726829422014516 0.6048240499718134 -0.1634441698045608
v -0.47583691359367963 0.7064917294975154 -0.16902146845840987
v -0.4779116535308679 0.6722790063029795 -0.16609705852051543
v -0.4662777362146643 0.8022808212339104 -0.1705239216021899
v -0.46913654250997594 0.7664679484308362 -0.17186480062140366
v -0.4746877396474709 0.7347768000449103 -0.16673860972045368
v -0.46082287042974984 0.888785635855734 -0.1742436032190497
v -0.4621387796386066 0.8539421542816781 -0.17343961993726406
v -0.4248634796345734 0.9758505836381995 -0.15426695130815085
v -0.46010195458220027 0.9265638629752384 -0.1751838251073814
v -0.3928728957054167 0.9511505688554908 -0.14084203949926766
v -0.47054720833496344 0.7285529162612882 -0.1687371545240454
v -0.37062594747625915 0.9329704946902243 -0.12273230267305758
v -0.49095171088607764 0.4565595389848944 -0.16192511201494492
v -0.4865114741601677 0.4898179635809006 -0.1638247606728127
v -0.4880145993313007 0.5198816715557877 -0.16528650880237694
v -0.48248857457265076 0.5560849811640147 -0.16560113249786543
v -0.33738448713227537 0.904698899282186 -0.09824098194787924
v -0.3409001310909121 0.9080289565200511 -0.10239424000080405
v -0.29597518894171815 0.8780767664803255 -0.06850091333000634
v -0.3084102840505163 0.8832188651599504 -0.07505330792132957
v -0.27768436335042934 0.8707182816579215 -0.06122847988576231
v -0.25808624233195526 0.8459232927177374 -0.04469509194208374
v -0.261170969102531 0.8458364310097094 -0.038808315900604386
v -0.232336458438499 0.8151785609180158 -0.03200109541886203
v -0.19996130844591153 0.7999153665670055 -0.00599300149371456
v -0.16772099116629718 0.7798311291070187 0.017385358619821066
v -0.17388995807235574 0.7852588514770844 0.004597976035517143
v -0.13889486093298628 0.7594824598567073 0.030260136476634
v -0.14864398129882733 0.7622199513946551 0.02710553861977151
v -0.11742259041733888 0.7335456594513128 0.043745970562138844
v -0.07739459094388797 0.7101155044800455 0.07167594280174722
v -0.08341972458502385 0.7140053654906496 0.065211299528202
v -0.054209347941332406 0.697243855607472 0.08349937340215938
v -0.0671405117259721 0.7009647907340277 0.07427209691674308
v -0.03294827037052599 0.6805126686815062 0.09837977523737988
v -0.03936296032807133 0.6797274852020839 0.09788228935058924
v -0.00673623283451942 0.657841901553769 0.1226209362131024
v -0.010503999544219158 0.6608663166518136 0.11509877419314676
v 0.023584130688145556 0.6355270693262524 0.1342288369166155
v -0.4887747233138337 0.46214630015859404 -0.16814800604559077
v -0.4892004820112173 0.43525695738151016 -0.1644180923034957
v -0.4905164492340159 0.5329943243195557 -0.16383063373576234
v -0.4933917030334275 0.498874374589811 -0.16417537422679931
v -0.48699092057608534 0.6005380047535234 -0.16290314286714902
v -0.4785946262749607 0.7052410003554804 -0.16977225843484758
v -0.3892979142341179 0.9410257884686102 -0.1330523198533935
v -0.365919148994257 0.934711366168574 -0.12451026173711874
v -0.3448720799952115 0.9049165027798756 -0.10379876143284017
v -0.32437955428175463 0.9004831750761101 -0.09306405021575224
v -0.30404961071699843 0.8817509861220838 -0.08154005730073263
v -0.28586694878226726 0.8640800442087416 -0.06693083977515293
v -0.2846350437213537 0.8628939647039235 -0.06160701851611697
v -0.26559908514594976 0.8519716972588349 -0.054357890709226156
v -0.24514388951512803 0.837344409580424 -0.03434777500344214
v -0.21965316622197845 0.8183460009756897 -0.01816737073223755
v -0.2174587264264771 0.8132465810665841 -0.0217484543462887
v -0.1963600027672644 0.803049780731831 -0.004722880047581155
v -0.15858291138211333 0.771670239030393 0.017865592329214895
v -0.14169084813642044 0.7587344821944965 0.027753687405242276
v -0.13600123769095135 0.7537994196369311 0.026684888970821736
v -0.11758793615106869 0.7364424380729252 0.04494276045527814
v -0.11650704903424912 0.7374462953687477 0.048425484953968874
v -0.09676258695536219 0.7267747828985653 0.057857094321951456
v -0.05824195240076753 0.6971707071428076 0.08355626773512703
v -0.03551323635496134 0.6874834590433577 0.09400972334987116
v -0.009356429536473924 0.6649644345307674 0.10939927561530967
v 0.008807846858911818 0.6440600547620148 0.12425141605948946
v 0.011131884712725658 0.6454221520918334 0.12905546777265786
v -0.4684577097912209 0.3655397976682919 -0.14763835565475047
v -0.4401285424032607 0.3394313187672189 -0.12480027781152549
v -0.39107262368372675 0.3025373518982914 -0.09476817881978519
v -0.35726150391727624 0.2685071486547765 -0.07668820325905265
v 0.033457401138784995 0.4730798430194779 0.15079100486997607
v 0.04312010033900185 0.5121940662842387 0.1539435060230037
v 0.04291473997303771 0.54150453032419 0.14670349887743944
v 0.04942354808108016 0.5768466238546968 0.15445178572395954
v 0.05021009095068087 0.6057995969696303 0.15851489003782082
v 0.0311507501538042 0.35222643785044944 0.1523650785202542
v 0.03373457607510596 0.3815188600360004 0.15358052880618367
v 0.03329738174875705 0.4116159761918886 0.15381669083700167
v 0.04169344591470189 0.4456213704269232 0.155602320860459
v 0.037101989393923014 0.4755948367328344 0.15315931562668225
v 0.04356431841966041 0.5100806364076219 0.14947376627371037
v 0.011724521165103327 0.11162860168809388 0.15062276220914106
v 0.014330342143889965 0.14548621128621217 0.15347839259773582
v 0.01767371798883118 0.18372213949218086 0.15411870468509345
v 0.018910211414275714 0.21339173170830514 0.15437770992664676
v 0.017403287078974327 0.24213946841624812 0.1514001351897609
v 0.022854664968036738 0.27980945564347426 0.15306307588783447
v -0.4677916435758202 0.3635574137250515 -0.14002803871480246
v -0.4496915321128024 0.35380027922432417 -0.13302203861902898
v -0.43245563668224 0.333059825580202 -0.1217979201287572
v -0.41387586280367117 0.3149784068480064 -0.10569602047909024
v -0.3749836041248089 0.2803197952645833 -0.08158620609342565
v 0.011319691349321502 0.1307919850563434 0.1564569241449774
v 0.014673288693635184 0.09480576440684833 0.1557823605831164
v 0.017552034982629774 0.21523019118686237 0.1604134314805429
v 0.015618785836637419 0.1798604951067715 0.1562490656114823
v 0.019978662957654075 0.14222726521534745 0.1539210119366419
v 0.02424614831546644 0.28090765991254224 0.15404724729972996
v 0.025946017200853672 0.24575448555397864 0.14784310231761175
v 0.023800130537214758 0.20867654291979043 0.16251723641201438
v 0.0342756478157545 0.40197476745724514 0.15502165878961816
v 0.029886020666801655 0.3630595272673819 0.15371127595434683
v 0.030837012325235575 0.33109148583672704 0.14628120696076263
v 0.04370322623779371 0.5401013515252453 0.15298114492414422
v 0.049027268612771006 0.5074673893559905 0.1540687751744723
v 0.0370150576432579 0.4612433209738275 0.1532655361554411
v 0.03729746386936616 0.43053266673367996 0.1522204941437531
v 0.050046619014320004 0.5951169187000276 0.1521228244385109
v 0.04589111802094527 0.5642702358557137 0.15571825497121972
v 0.044194517169964 0.5207577526596772 0.1528757452745667
v 0.04171905609374335 0.5897342861210404 0.15651639961155683
v 0.009948399187822211 0.057983170943287345 0.15778079435197231
v 0.009151262540645357 0.026478523782800696 0.15058160341733856
v -0.41121545543616955 0.31947440211064 -0.10322035447285853
v -0.27379141861312445 0.2037061919605585 -0.02217262585387853
v -0.3961475236492219 0.30303824446047983 -0.10001902045394945
v -0.32466308499094854 0.2370882862261239 -0.0497878856827789
v -0.2974834122305894 0.21666302194762072 -0.04110958892849213
v -0.27809701764166667 0.19510261267747944 -0.02494299500725839
v -0.14028664200746171 0.08137667894988428 0.07041026237636185
v -0.09952612347925234 0.04949572463576146 0.09316692569655848
v -0.4774525855549889 0.665059651748087 -0.16965483786906171
v -0.4741223561336603 0.6908689533078598 -0.17280977495418182
v -0.49576873174874997 0.4206766430108934 -0.15903258704608056
v -0.49884978837265737 0.4121128737311463 -0.16238580281349024
v -0.4822520204867713 0.5007889177723193 -0.16729444901639734
v -0.4805708166189396 0.574095046653415 -0.16517125259571747
v -0.4735432808094681 0.6349282653854283 -0.16126512135854384
v -0.4676691502236725 0.8160910888172149 -0.17496988913109926
v -0.4880717897974524 0.3832197026181453 -0.15405768141525764
v -0.02755375334721402 -0.013440533642516399 0.1370021660101427
v 0.004356892771683973 -0.005617522725691033 0.1573347793029153
v -0.02805683391592529 -0.01302849537588117 0.14021656821557202
v -0.11655946813957156 0.058512758484934715 0.08052952019750313
v -0.10417215886579365 0.041378354308988674 0.08782127702427248
v -0.05837329554980845 0.01586359495028294 0.11438365908945827
v -0.06951356410557993 0.018548372069729934 0.11252294702481395
v 0.005110745458934507 0.03502601095151732 0.15034631451557384
v -0.10032474243421362 0.05089055330099672 0.09097974718366682
v -0.08792765967097882 0.03550978638391045 0.09941927308960347
v -0.06968492513799508 0.017959642759182146 0.11176787694202446
v -0.055427799056535665 0.012543743377332233 0.11669519826272366
v -0.039749614414633726 -0.002009344402363271 0.12842949647056037
v -0.4629694890339284 0.35922352696753507 -0.1389545108762494
v -0.3843834457942785 0.29552058898726347 -0.09096072860103224
v -0.35192992969088766 0.27128274012076226 -0.066693969764646
v -0.3295687651058549 0.2531794108093599 -0.05722619611666396
v -0.30688523787196564 0.2277844322756741 -0.04037706705940051
v -0.2712654428393318 0.20031408804097386 -0.022339055009629197
v -0.2432039963275154 0.16814174366753165 -0.0003505238542961703
v -0.21860198817397883 0.14986122396379722 0.02398096677086603
v -0.22332222010424127 0.1561649103950646 0.011307884105843083
v -0.19349608784029526 0.1327802928862723 0.024307264617573494
v -0.20312979192377323 0.14060022604047456 0.023075198883992138
v -0.16846415604921197 0.10162314682289368 0.04716684854054205
v -0.1724904386036784 0.11504491558167541 0.04057949941353535
v -0.139126858317384 0.08119387148371285 0.06203760576193178
v -0.12301044388328444 0.06343769749182455 0.0798890558183562
v -0.4525386075744628 0.357816626623599 -0.13482049436966223
v -0.40826958006564373 0.31841096746751546 -0.11162915575580637
v -0.34565770958734426 0.2661926212994584 -0.06302141008080822
v -0.2963223118072604 0.21661861511779432 -0.03384795897246802
v -0.26442345974624487 0.18678312048887805 -0.016540315044526483
v -0.24929883175365164 0.17371942966009551 -0.004289060359020747
v -0.22494809406236488 0.15288091429535383 0.014494069698314517
v -0.20480461954799567 0.13446504446206595 0.02414680884033391
v -0.18499712318471015 0.12161424374415268 0.03418793603049415
v -0.16127182991499062 0.10181599451764976 0.04983826527652706
v -0.1482991884945499 0.08345801090400592 0.06364074262132637
v -0.12253909463555288 0.06654103660182084 0.07311551308778819
v 0.01815329921961203 0.1221799670354329 0.15762789039459504
v 0.027091874407445187 0.30197301113897235 0.15416707631651935
v -0.2707989411338755 0.19551863801122427 -0.018326098410502843
v -0.4821750371915272 0.5473986989462107 -0.16091922075285947
v -0.4818610924629145 0.6042143535010588 -0.16041942044454616
v -0.2794084922676673 0.2031628222764129 -0.021439059274191697
v -0.15906031062847525 0.09402050591479688 0.05457648098580748
v -0.4667902054440498 0.8680287410831824 -0.17080463481945507
v -0.2730802595726373 0.8547858056220107 -0.053415639537493655
v -0.06542433114534354 0.7016640417161927 0.07502711981492452
v -0.3270576753935993 0.8939506793276217 -0.08962212174569043
v -0.1860083738374803 0.7871685690073952 0.004750278154895421
v -0.15507265372360488 0.7640265207203651 0.019451541719481612
v -0.3855141574280057 0.9387192106567642 -0.13043505442336042
v -0.3737405580038659 0.9245734497069269 -0.11980001867687531
v -0.3260169258668217 0.901836824389325 -0.09608107604723856
v -0.28767404651709516 0.8654072575843292 -0.06986972085589686
v -0.22809826780085796 0.969551390902439 -0.17438256414445585
v -0.23454417847106018 0.8291086009736163 -0.032401187920226
v -0.21560075337763926 0.8085618143202286 -0.01061617203031432
v -0.15575607647496933 0.9615014865762542 -0.1733760730232083
v -0.19169831019074166 0.8011836797523598 -0.012453461253769074
v -0.16329761163778625 0.7715552281055688 0.013646591039936465
v -0.10713095938440084 0.957914740807609 -0.17402191725357682
v -0.1177953624238185 0.7422789750645395 0.03678551503705941
v -0.06973608628139503 0.9512559089791686 -0.1672885089685681
v -0.1001710458446896 0.7241150400782324 0.05229467206573084
v -0.07937202858104518 0.712503113793411 0.06677530692374997
v -0.060019789435111576 0.6906744219477919 0.08131952446320609
v 0.020446593554113143 0.9474593705254842 -0.16964214019709165
v -0.03368421851661388 0.6786775338824078 0.09619440451045118
v 0.06175234086107845 0.9457947466163698 -0.1738777467601217
v 0.016572335497308525 0.6473906131802704 0.12745692952297583
v 0.09142022552476972 0.9386265547092881 -0.1735550487931555
v 0.024873972670485908 0.6357380726235551 0.13637869735936625
v 0.1211646379404396 0.9381296972644833 -0.16950422077536167
v 0.07489748950714967 0.6295923093244116 0.13501171518315647
v 0.14167393151378935 0.9314936287655148 -0.17022331870034085
v 0.14752051322256413 0.6629550448237046 0.1012103351920894
v 0.18251548821868663 0.9295955072213664 -0.17292736898012961
v 0.18467333015939402 0.6857380741635993 0.07067506068069591
v 0.2261027717680771 0.9233943761410757 -0.16551448037210065
v 0.2490412920581762 0.9243878145331976 -0.16901572648283145
v 0.25484027504452267 0.7125298884882999 0.03653665459116676
v 0.27675309621971905 0.9224777403123945 -0.17117757421992727
v -0.35800013776337686 0.922439521284527 -0.11088679874924032
v -0.30997850530489335 0.8834823410468242 -0.07900622315625039
v -0.2986840403029231 0.8716759200482362 -0.06929269084884601
v -0.24017932940005426 0.9730164455257478 -0.1690225498335109
v -0.2468690611692998 0.8400453458436425 -0.04566376381144788
v -0.22156077915504044 0.8126485147039463 -0.02654317633213948
v -0.18801879393740611 0.9674527134716001 -0.17214346681911064
v -0.18616971093847093 0.7913673583317256 -0.00021463625291881744
v -0.16474375253442325 0.9637680919432879 -0.1756075385931217
v -0.14803832847996332 0.7608465897549456 0.021529370931039096
v -0.1255630138930603 0.9578869295298368 -0.1731942568597365
v -0.11443296192799453 0.7391250471528646 0.04524514172974955
v -0.07616097398269377 0.7099707937712422 0.07467295786052071
v -0.09261361783981038 0.9562581589692132 -0.17328402860284903
v -0.06871434192490566 0.7039528757788892 0.07967361033075893
v -0.05589764499411653 0.9577366269867571 -0.16579835931913037
v -0.00789903154394613 0.6589242211260626 0.11579550649753959
v -0.04044277788158728 0.9505034474510572 -0.17030425932011312
v -0.004532201487214601 0.6622742366341122 0.12185964855271364
v 0.029944568868860356 0.6312661433680918 0.14327984052762618
v 0.004414549557848211 0.9452962492509983 -0.1736279788044407
v 0.0806355024905134 0.6357633385848019 0.1302537781993758
v 0.06510263471186452 0.9450784158321754 -0.1698194322681528
v 0.09004455359791039 0.9388799126549332 -0.17213286234111977
v 0.16845953443568687 0.6794540683387018 0.08400278574371901
v 0.12330394483932426 0.9356657246970862 -0.17127603554885154
v 0.19600624556529198 0.6885762661678931 0.07104794570300998
v 0.15187292932503046 0.9298893073304433 -0.16945470754591102
v 0.17812846267512447 0.9309726426081045 -0.16996042672132325
v 0.21380826460135532 0.9284079000188444 -0.1670900744007506
v 0.23189345816777654 0.9254864837408805 -0.1689569904713895
v 0.2866022554246503 0.9163536564489321 -0.16864013243968068
v 0.3005169042315025 0.9227767076499344 -0.16659305435964225
v 0.3421176357206278 0.9163608803111771 -0.17113674630327042
v 0.36592493791898256 0.9082013346960175 -0.16612992756026207
v 0.39385733358309627 0.9123640252515783 -0.1689472127322487
v 0.42829393033582797 0.9104377641186591 -0.16768662886001343
v 0.46969932124209873 0.9041947746635227 -0.163049783992401
v 0.30548636366298304 0.9202182010899017 -0.16845427937824378
v 0.3274000081091489 0.9210652112890644 -0.16696103250131472
v 0.36919024793029265 0.9127969567067579 -0.1698634338077234
v 0.39882967310139117 0.9090590953058892 -0.16584768927668544
v 0.42594416117233036 0.9034450438741238 -0.1653952145765331
v 0.44529458364314656 0.8996428881214417 -0.16738511408624088
v -0.40447293313204 0.9547242653768403 -0.1407845836315126
v -0.32532539831253365 0.9826924213994477 -0.17139509041083367
v -0.28721209266479264 0.9777844195427106 -0.1701877199234713
v -0.2621389188602279 0.9761945643010992 -0.17335042824592167
v -0.19582416844833547 0.9697021230664206 -0.1745828919036015
v -0.12670504101062327 0.9626418356531969 -0.1716182916543352
v -0.02024997042297709 0.9500447284573935 -0.17116162415294492
v 0.0002891011432450707 0.9495859040516738 -0.1707489645943807
v -0.37111631731697053 0.9812810583127973 -0.17252586206282283
v -0.3409246819087808 0.9791716701610138 -0.17768649041683185
v -0.3194616851708186 0.9808167572595916 -0.17319098895348872
v -0.2216969909627601 0.9648133057769808 -0.1704173536077615
v -0.014697504923271402 0.9501997797808985 -0.17816594275752876
v 0.03904147352462075 0.9442371794526274 -0.17409861833332016
v 0.535971915160581 0.8541747647101324 -0.12421113234553635
v 0.5553113203318981 0.8607611532472587 -0.13779253750133194
v 0.5892183650345373 0.8815454147235744 -0.15190774026523707
v 0.5272320139980557 0.8913655770414226 -0.160536863769335
v 0.5414555293137167 0.8971013837137236 -0.1693894903945818
v 0.19938730067800023 0.694091738024303 0.07480484451750963
v 0.214850661307947 0.6976032638191355 0.06034777774804281
v 0.2655051079287149 0.7231002001640345 0.026673291479148542
v 0.12902073877723252 0.6618513551257519 0.10973909594094114
v 0.2112568236401468 0.6938035937504539 0.056169154759145044
v 0.23033839038806725 0.6961770686582269 0.05409567615957992
v 0.2589710769048572 0.7195129180567298 0.03694145778053833
v 0.28996860919392436 0.734727201492644 0.01914060537073576
v 0.3237985922993128 0.749711142324433 -0.0015525752881502958
v 0.3299373884153579 0.7577331185425816 -0.009899108747104913
v 0.37116385406342195 0.7738294761052201 -0.030806389591951436
v 0.3997721435319863 0.7865759238209408 -0.0468269169226036
v 0.43710704763114916 0.8063761700910612 -0.07161143863843764
v 0.4759194901464949 0.8185174987534495 -0.0923446413518361
v 0.4921475313643551 0.8402910841549083 -0.09687038323120993
v 0.48686674508876515 0.8963711940128677 -0.1674626851703509
v 0.3206975860240432 0.7504127704547928 0.001046616552754447
v 0.3456785317954244 0.7682554355310415 -0.019270478798095094
v 0.361972141073 0.7726305748079624 -0.020510412289458893
v 0.3915222674967792 0.7841782695936705 -0.04190545455306762
v 0.42836485582196443 0.8091198717525232 -0.06251998242334604
v 0.4415967894792164 0.8099250937187202 -0.06952065843262122
v 0.484473508019309 0.8273785784881601 -0.0878921238667024
v 0.5053059820312708 0.8354528628970123 -0.10379349843919773
v 0.29535646143564137 0.9172363885543359 -0.17465112522983184
v 0.21241917193061627 0.6960811983836881 0.06270923501615677
v -0.33923658699479825 0.9827381626528223 -0.17417466016423627
v 0.36157273485320846 0.9150886890354738 -0.16992947538774839
v -0.09667583470605366 0.7199218180482578 0.06332905104558327
v -0.361121056336514 0.9813906758787012 -0.17857196592232571
v 0.524974882172778 0.8999316907756656 -0.16852927909346357
v 0.014495018396090367 0.9491688537191222 -0.16664296443777807
v 0.4139008699388806 0.9084385069740126 -0.16724215113172455
v -0.3681762666464044 0.9346422777533463 -0.12335960725335259
v -0.1237234029898673 0.7445762323668906 0.04182350542038268
v -0.19998338169639235 0.9700132433417785 -0.16936726927097356
v 0.4515724252539193 0.9009209181508544 -0.1660096287516851
v 0.450606491407178 0.9135861606500929 -0.16594766722237736
v -0.01729094156379322 0.9535507270116154 -0.17020877851803812
v 0.31053251604677673 0.7468976462434984 0.003141030877019351
v 0.15371586469188783 0.6645211217729349 0.0944726662610663
v -0.3646995255945199 0.9872315360611824 -0.16759313083288419
v 0.07041844808469788 0.6288451441467364 0.1427684856895725
v 0.1443631189401189 0.6628508994563678 0.10027331234405894
v -0.20458469961028586 0.9753662660237233 -0.1752463346219702
v -0.12442753046176169 0.9595977395506408 -0.17238786651649016
v 0.014955528572050115 0.9505371208637894 -0.1725691718589942
v -0.1520603256156981 0.7623592500873291 0.027045428092972557
v -0.3376093641164935 0.9050756978598741 -0.09736791429802717
