v 0.8348830034269501 -0.08439093554158383 -0.11938864855502637
v 0.00261837537314927 -0.9864100343969887 -0.33182822308495913
v 0.37793940269555426 0.008922750764522923 0.27630084194918686
v -0.09116318549664248 -0.36680591419299224 0.275741846320302
v 0.7632637133903757 -0.4240919354295119 -0.35869119363047425
v 0.9490937353933452 -0.21863975906996877 -0.31325284740964
v 0.13377560412306705 -0.7845357001949008 -0.24427304180666906
v -0.08948050668980662 -0.8679785820299252 -0.17892710327786557
v 0.5358308738193136 -0.0021445210312084242 0.16122173888343727
v 0.29943244545327413 -0.3104555783514903 0.06189164963808819
v 0.18428477585496722 -0.8878202778547591 -0.3731756993341494
v 0.6412894158195217 -0.017813090506807953 0.07441058703345295
v -0.14077392391333543 -0.7960594177666863 -0.07379058663089054
v -0.1130621584430935 -0.48055827391958966 0.19391775451902904
v 0.07058732927601108 -0.7148807188297112 -0.14287323890324458
v 0.17944790031390642 -0.4042592922595691 0.05929645319234067
v 0.8928291342661899 -0.3272747440662259 -0.3739995797431818
v 0.5377397504852155 -0.13036511224266759 0.0616772167274053
v 0.7336532123903946 -0.024426084633835263 0.00022199011906956183
v 0.2991667864042592 -0.06311571795426942 0.27781262252814115
v 0.11171106662577336 -0.9531196273901719 -0.3778268555684113
v 0.7067530017739198 -0.34622393965700715 -0.2661037344119317
v -0.05438707969902785 -0.9222542879112835 -0.24083528900427467
v 0.900676104724405 -0.15909373142652028 -0.23085608197393376
v -0.14350360814672852 -0.7300496644197859 -0.013599768497763473
v 0.204247336190406 -0.1324622386958911 0.27605841820072496
v 0.9762434714092878 -0.26342380150312683 -0.3722992753894899
v -0.005238868888485337 -0.6189367934398994 -0.005827070476967795
v -0.03017338789797022 -0.3155265627723686 0.27527458316883424
v -0.13349187254061642 -0.5830864499238243 0.1039765612100189
v 0.8280454255495372 -0.3868208093999073 -0.3759634080295353
v 0.17701722232494382 -0.8371544898323944 -0.30870831146052463
v 0.23937026506928363 -0.3499325323133767 0.05580716259135524
v 0.8695346643433436 -0.12308365012808903 -0.18193781622933125
v -0.12115683008282643 -0.5367887841173647 0.1511704096992669
v 0.11971564043994994 -0.44284445347734097 0.06085085701486405
v 0.5825460899243059 -0.007005912040753282 0.12501439407529366
v 0.7350181115776028 -0.38643415893258964 -0.3079800960765663
v 0.4424204286650938 0.0036464831039072342 0.2249444699445227
v 0.052133423761106114 -0.5029885554675579 0.05700359620915517
v 0.03894917531000123 -0.6714641748551725 -0.08080811445935239
v 0.15384982842800443 -0.17145567668462403 0.2746114115117934
v 0.3908683589125981 -0.23579310878461518 0.06073963960099559
v 0.7740044098303083 -0.027210980049071527 -0.027567121958854843
v 0.4933643124092994 -0.1537779957956187 0.05790817387742378
v 0.06704673680220893 -0.9819317864573482 -0.37016617075013636
v 0.09793852019367284 -0.7436920749237745 -0.19053435422971374
v 0.9474819051288993 -0.2843543331179535 -0.37079663087343373
v 0.8068720035341215 -0.04700284609092792 -0.0708985029196066
v 0.33987092547213127 -0.26445709559617436 0.06157121419175391
v -0.13111200125766123 -0.6114905266932152 0.08063466194370225
v 0.4200626503034057 -0.20933889104004305 0.06072503153213594
v 0.6428276555851247 -0.27185202677623405 -0.155412612142002
v 0.1752164708297822 -0.8556064411252542 -0.3376989273439837
v 0.6778396532196205 -0.316351091563188 -0.21893702925069697
v 0.4795447445284196 -0.000247062148305997 0.19563771444082112
v 0.35969275548181445 -0.007672475007127415 0.2751354790716776
v -0.10376826288520206 -0.8527495932978991 -0.14017644087952782
v 0.9233769060947136 -0.18885815032490424 -0.27129160027637084
v 0.5037001492332178 0.001305204683744489 0.17859661901226856
v 0.016212806391979206 -0.2835316897309882 0.2742474398684814
v 0.06908289153424427 -0.24346770929121064 0.2732335251226969
v 0.025732784357606245 -0.6547706533350651 -0.046533951879732485
v 0.07084941026431386 -0.9803012448614251 -0.368964599659079
v -0.1102634329714541 -0.3986579047113868 0.2540728209225848
v -0.035021722707549365 -0.947653500958975 -0.2700873404642308
v 0.9322958389110909 -0.30277166896408175 -0.37292868529135254
v 0.1531396951155945 -0.8201023347597698 -0.28181154075526116
v -0.13191020569497525 -0.6832561315878533 0.023691767513914993
v 0.7041698334953568 -0.025107012166483644 0.02284164102256831
v -0.07319619023203267 -0.8924110038175556 -0.20000865387955183
v 0.13219999618084985 -0.9327422012203411 -0.3709421906352187
v 0.9428163478408345 -0.2133242188572196 -0.3073697422619005
v -0.009322115703451733 -0.9736827946699715 -0.305948088145393
v -0.05840268771645987 -0.34304569894301057 0.2697267871272813
v 0.6580487839315972 -0.017655049954341234 0.05611303046980027
v -0.043163680977355595 -0.5745877344968567 0.05427333468023747
v 0.06064622674969006 -0.4961032532362508 0.05608873809230855
v -0.11229585565657862 -0.3966033910867819 0.2511873987090104
v 0.2599464861684584 -0.33648720711046426 0.05831997400609004
v 0.2671875990908372 -0.078472839737469 0.27678771728627
v 0.8855355211705556 -0.1445793471635192 -0.20762431190068906
v 0.11241479446440505 -0.7706491197368569 -0.2161026813214804
v 0.820174276539152 -0.0626302271244703 -0.09126347055659104
v 0.47867463172125985 -0.17127204104612992 0.057860991301991245
v 0.0840941156903387 -0.733365390009084 -0.16839028176541262
v 0.06215759340713171 -0.6896024708305206 -0.11032996130782313
v -0.01916240786388128 -0.5978014241053136 0.020746414966396877
v 0.8026556313975782 -0.40302514426004477 -0.3693468912863936
v 0.08885049389759664 -0.21476506514608354 0.27516546622397065
v 0.19506060650647883 -0.135950890248923 0.2751612512598718
v -0.13522908292246785 -0.6343075132108926 0.060623606678074704
v 0.7751413319913132 -0.0289050810907129 -0.029182044195031755
v 0.5698857313127423 -0.00527159056361323 0.12569966882218772
v 0.03204439029773307 -0.5196634892495176 0.0578990497321303
v -0.11930857485083295 -0.5035492223886552 0.17560759373247176
v 0.1517592868367127 -0.420308569621164 0.06024659233607946
v 0.617028687397133 -0.016799242764869736 0.09672729094264196
v 0.18374208186655214 -0.8584923119668466 -0.336384610632254
v -0.1307076106241087 -0.6181773757937694 0.07990577168269347
v 0.10113554104868877 -0.46792657789668407 0.0543430104456095
v 0.7494424405186351 -0.40559301326912567 -0.3431986539129283
v 0.8481029764253036 -0.0975361799682709 -0.1408595304540616
v 0.33220819584071526 -0.03181514435525687 0.2741910195752537
v 0.8864773747223328 -0.14768646078048747 -0.20811469192726556
v 0.4163134489563847 0.010400329044293577 0.25473538088282277
v 0.5072427162074578 -0.14823380727277416 0.060281636419926614
v -0.08839453905061885 -0.868633071064561 -0.1645585551278183
v -0.1265864306469636 -0.5610710980578264 0.12556952071582514
v 0.318374450837503 -0.2930876844355713 0.05210549761796409
v 0.21601501659855865 -0.3759420743674605 0.057620920921226074
v 0.16917659507078256 -0.1623973647813983 0.27001973614542246
v 0.23138718204168052 -0.11270185763707906 0.27257145323643095
v 0.046269582716912463 -0.9987891550915864 -0.37077515736823874
v 0.12605460505012814 -0.19056716713174057 0.2755604722163125
v 0.11194034154053813 -0.4538290319327961 0.060253632558163885
v 0.4611580807392373 -0.18590388806692845 0.05787703300178268
v 0.1710802164681009 -0.8324657770981001 -0.31019862764080136
v 0.26579543279223744 -0.33065638341265774 0.05817008991888276
v 0.29535857457878995 -0.315699331547583 0.05570738925796599
v 0.8713073902922139 -0.3425689396347855 -0.3708631163221826
v 0.6149333940484856 -0.008568714474343557 0.09356805810932617
v -0.028487811832762888 -0.5594688471565253 0.05437556816280106
v -0.1426690775189891 -0.7070390095732765 0.0030527666236496594
v 0.9277761035188958 -0.3101550051805395 -0.37346142802685267
v -0.10794382745418406 -0.4246944869995388 0.23890297677171216
v 0.4485556924473229 0.013116844524509454 0.22223100747490407
v 0.7399095362227105 -0.3910645262512773 -0.32114000046890484
v -0.14523139580872038 -0.7735074039838918 -0.05128352073374475
v -0.029182907994952944 -0.5639598970648292 0.053738821984077804
v 0.506513483361632 2.8476444250442737e-06 0.18273011417030965
v -0.14555261005675027 -0.7551022017894216 -0.037794021543138566
v 0.15599194990382426 -0.9114005217835442 -0.3749301045861667
v -0.12644495434218753 -0.580790929741582 0.10355217421345983
v -0.003486468278526781 -0.30758239109110375 0.2757137473585465
v 0.36690598539834646 -0.2575310396625917 0.059409131889033066
v 0.4506175312387254 -0.18982578178293782 0.05917334822948883
v -0.04936921430758076 -0.9364283942313605 -0.2513422526075533
v -0.13690732213009243 -0.6548122687883465 0.04675589758417024
v -0.11758197009718123 -0.4462899296019931 0.2108219244205696
v 0.8940378486397975 -0.3281857511684905 -0.37184308809352884
v 0.9143282175318929 -0.17777481880926976 -0.257073129225381
v 0.7969380899394957 -0.03635207602819887 -0.03803835167932853
v 0.7239110204731541 -0.37586732401343365 -0.292721276650852
v -0.006931867892188768 -0.5552750474410973 0.06081790303081814
v 0.8318089236097119 -0.37468903994419234 -0.3749404359736873
v 0.5291783485049275 -0.12345711048899564 0.061044792986330546
v 0.5199972619607026 -0.13042156095624818 0.05994039814263037
v 0.0853114034134301 -0.7284720295907726 -0.16210182309411553
v -0.03095433835538024 -0.5856218225176082 0.04482559827537634
v 0.04967549891127165 -0.25824387531708176 0.2714852426881197
v -0.006072119335362548 -0.9851883459830483 -0.31783304156099224
v 0.9046395572471269 -0.15805626536485215 -0.23050294636360275
v 0.6362567519657852 -0.01866807652040136 0.08161498687249737
v 0.0834059532808209 -0.9722978367029228 -0.36782623986714796
v 0.07325194261862868 -0.7090280724267256 -0.14358151766023114
v 0.5589494018024245 -0.0033195266131076174 0.14787385747780005
v 0.24920060482700995 -0.09347756744964346 0.2766873304160466
v 0.46103914380850414 0.0042555016729345025 0.21716831074764126
v 0.7562302150798776 -0.02559859555827493 -0.018273682693176346
v 0.43282525493696755 -0.2025508873769251 0.06379011317989738
v -0.10796364332851957 -0.4305871492296393 0.23854365043921158
v 0.32582528071717437 -0.28826960088505443 0.0625331586747107
v 0.22873319353616353 -0.11581933850381473 0.2696009866705186
v 0.8636186809940045 -0.11022933014949036 -0.1590702997380022
v 0.17270140293220165 -0.15838709293943098 0.27547565078482467
v 0.11578742462053943 -0.20778603654581682 0.2747898692985318
v -0.13869902392040098 -0.6919303456378394 0.017991980281019875
v 0.03987204985386566 -0.678494253674293 -0.08884007130879173
v 0.9318942993189796 -0.1978945972186874 -0.28559333500396306
v 0.9527411074659137 -0.22833210805374657 -0.32956464233890687
v 0.34158444935636056 -0.2757992974077123 0.05813659877448438
v -0.10138007895022236 -0.8508697138910901 -0.1543199666727489
v 0.909726822116319 -0.32201367480654725 -0.36804389334053994
v 0.12632750028349013 -0.9370408413501835 -0.37494584538878306
v 0.04676325781827952 -1.001151087339475 -0.37932925098294523
v 0.9712362605224114 -0.24561072301384018 -0.3564373422745131
v 0.13288590532499456 -0.7930765952450906 -0.25690827312088704
v 0.8261245835393421 -0.0636604773351427 -0.09448817130083029
v 0.7015725643244957 -0.3401487188223919 -0.24647036544407247
v 0.6787657011154528 -0.3215775942291291 -0.22235231439877765
v -0.06341028987435612 -0.9126565910180738 -0.22704139978245344
v -0.04006771187620691 -0.9309672701922688 -0.25453366040918374
v -0.13040029567239325 -0.5966082914298001 0.089870892624853
v 0.7099102358530832 -0.026845443648906456 0.022340852351954214
v 0.4038274622312363 -0.221205476255679 0.05872843086333345
v 0.13541942896310805 -0.4378446740782608 0.05753599813439188
v 0.5188969070408731 -0.12883413201585692 0.060241061121054366
v 0.49253277542962726 0.0015829163692626417 0.19307406961262566
v 0.007520188935480319 -0.28794569411472454 0.2714237511054772
v 0.3038832725317682 -0.05381141392809239 0.2743872409198053
v 0.8311796104008411 -0.07685854251084331 -0.11008382947663255
v -0.12274437140585474 -0.5137282048223276 0.16146071967645148
v -0.035673289198835154 -0.5749858250281168 0.055038804644768
v 0.5938416448844915 -0.011901655529468974 0.11772522407831804
v -0.14306517824269568 -0.7288766958096898 -0.015824420522254436
v 0.35961612410159915 -0.0094118349889197 0.276471776272419
v 0.41361289646587873 -0.21824407893032932 0.05956682862924295
v 0.5296111704369818 -0.12246423607506877 0.053834873087590426
v 0.30720322075368045 -0.04527876811989298 0.2721806219683335
v 0.9229154666368629 -0.18918804450876572 -0.2667221969466034
v 0.011295948464550176 -0.6227992290335135 -0.020092747419750964
v 0.8434316986200368 -0.36543991255114766 -0.3763066457119532
v 0.7933242314634587 -0.40489926640586027 -0.37016433748456085
v 0.6975805877500946 -0.34049836626091196 -0.24961858419789343
v 0.1747577166182463 -0.8473169636871755 -0.32540322074914246
v 0.010671536365650052 -0.5338184459559714 0.050823911068673885
v 0.6675697778919852 -0.016696185491162335 0.05222633825308283
v -0.032938209150985796 -0.948420325261073 -0.27749684817878795
v 0.40047281922657674 -0.222737435569836 0.05655327066727088
v 0.6732640777519036 -0.021040349248168257 0.04569274522405503
v 0.5698243496222598 -0.006592222982508409 0.13027558349223656
v 0.5299443294140798 0.00194487052931085 0.16506138951132293
v 0.150563675644298 -0.8158703406974086 -0.2819375281234138
v 0.8537919861488412 -0.1070775541743141 -0.15562459771084608
v 0.03678765527718766 -0.26328269949980115 0.27928201235728733
v -0.13384557045511267 -0.6652506708885024 0.03343829609318739
v 0.19330853884853322 -0.3946730585447408 0.0601573786664157
v 0.08332921145209096 -0.47484994230027505 0.05764831178994532
v -0.1310383592086648 -0.6274888605352718 0.0733077242058662
v 0.11216013744479703 -0.4540491827129852 0.05453917226339084
v 0.8134347340113762 -0.05109331397112669 -0.07611140065200704
v 0.08452282354724695 -0.22640012878438476 0.2772161452758607
v 0.5273127155624946 -0.12180079023392713 0.05624316068480884
v 0.7193914241933499 -0.020540523083922048 0.012933930955023274
v 0.8773497579361077 -0.3401716130694572 -0.37618272616113446
v 0.4314109849526453 0.006760179325525733 0.23796318501834984
v 0.343916629318811 -0.02596742527829079 0.2767739923650526
v 0.14612489149827382 -0.4238307446592382 0.052106652664925375
v 0.7241351506069417 -0.3767193003594725 -0.30408257659432186
v -0.0722098772117219 -0.8958724767939342 -0.20730456671591324
v 0.09599872305867611 -0.21824349783821195 0.2724529906012913
v 0.1644216436852198 -0.41738726406477245 0.05577158989397149
v -0.08079482125738319 -0.3618679723148367 0.27943845454798666
v -0.005769779708084605 -0.9890617909855501 -0.3294333420120437
v 0.053402568425498995 -0.5057970255232579 0.0595169452464801
v 0.008787512857108281 -1.0013807263198204 -0.3443627597005892
v 0.6461753703821602 -0.015847380220881238 0.06676059669317348
v 0.3610036639504364 -0.2590238720129143 0.06101755822308274
v -0.12713231976485723 -0.5049024419322213 0.16403713339815032
v 0.5448496560756201 -0.003696098552787399 0.15343020344407685
v 0.6853656983180727 -0.020680581174195693 0.03671425395756222
v 0.8132925725457006 -0.396537200765371 -0.3687012550880808
v -0.1469223251261798 -0.7541307441366601 -0.029470499432709216
v 0.12509967668624333 -0.781430806395701 -0.2352178874694055
v 0.8352214113575367 -0.08872833554747872 -0.12155891989172575
v 0.9505089562697916 -0.22497581903414907 -0.3212216228245703
v -0.10334339742641184 -0.8553908729096062 -0.14708314097904535
v -0.14123567350624674 -0.7110854343270866 -0.002004967671642272
v 0.5367341904459353 -0.1349332515555883 0.037986291238142816
v 0.025350455779020523 -0.2755266434780326 0.2738150067212442
v -0.08465308736144948 -0.8800673529057751 -0.17267770792989634
v 0.25927146012850794 -0.08996682943312272 0.27229637265984075
v -0.06750589517545373 -0.895860211179992 -0.21167387492484843
v 0.2912649619844136 -0.06940197828986124 0.27555308441222903
v 0.20570524704782966 -0.3756205545774918 0.05589989250918834
v 0.47947759692473535 0.004211511363871251 0.2070168260429039
v 0.3207539872625973 -0.04374778007927977 0.2759400827151788
v 0.7367110876329753 -0.028365866864962692 -0.002549808718438595
v 0.36672510746213766 -0.26084901967274765 0.05667906722731306
v 0.49149059855556165 -0.14851758456017342 0.06198346823566504
v -0.1117967925839273 -0.41953387928799585 0.24331663186544725
v 0.21602436617320503 -0.125586285197707 0.27530956259010636
v 0.07447278879841884 -0.9706687751157224 -0.36905991622141615
v 0.603467508876133 -0.01641238068856925 0.10372645621318421
v 0.02919626370072909 -0.6609999492622288 -0.058381472930846355
v 0.19589291423001579 -0.1435930661682964 0.2729174803913212
v 0.9168445647840057 -0.18661604819411526 -0.2648640778173299
v 0.5246913475542391 0.004158331379256423 0.16017566063962085
v 0.771182138351422 -0.033796031006956315 -0.023329604425251785
v 0.37393361101125155 0.006043006046179144 0.2727021360993463
v -0.13980380797338343 -0.7120992501694057 -0.0018625877166838487
v 0.7373939180983536 -0.024357369832542282 -0.0014125985491720097
v -0.12613686734829946 -0.595004587998029 0.09261595520474947
v -0.13809240526994568 -0.8047437469886859 -0.08113948552765501
v -0.0593154996545147 -0.909634783463445 -0.22585875108280604
v -0.012805419305816693 -0.6010487567936447 0.012268496010443268
v 0.5632960572687492 -0.0036191576560129497 0.14140512970103897
v -0.006144328673464527 -0.3001970250724701 0.27150978286144195
v 0.04624773320753786 -0.254990611898546 0.27803128543258804
v 0.6602573403033 -0.01594085501671076 0.06072402971928516
v 0.10566992315873247 -0.45524628361981206 0.058359539910372266
v 0.9062815781957975 -0.3247498327024198 -0.37677328683328687
v 0.3504975269524206 -0.013371260514837589 0.27210033283539986
v -0.02069522423177357 -0.559235711741336 0.06111921004317854
v 0.502639261755135 0.0013068523725454813 0.180316116599273
v 0.1329369949108846 -0.19467695611863337 0.2760712851793013
v 0.368702976718047 -0.002631876102394114 0.2708430926687367
v 0.8330104308883953 -0.0733967174971826 -0.10757228774447165
v 0.8816754888506066 -0.14267473981923096 -0.20534528101438976
v -0.1255472786693935 -0.519766919313459 0.15931245186784612
v -0.11809518889506196 -0.4780740437917094 0.18208876639138896
v 0.7120963619979059 -0.35937993059771384 -0.2687888968910402
v 0.9495013746562284 -0.22466701071036285 -0.31790873395112124
v 0.8569007215403145 -0.10292375832584942 -0.1484736392759474
v 0.8700811622005611 -0.12375700207643342 -0.18497384403657793
v -0.042816173831990316 -0.9395436782013307 -0.26024809941973964
v 0.3716625114998837 -0.25192361454180295 0.056311999616184355
v -0.1158627920749253 -0.45991906569827035 0.20854255573365021
v -0.14955594645706238 -0.7830604154551178 -0.061539634530625886
v -0.11708726612372226 -0.4578626800472406 0.20825270623654785
v -0.13411572806017288 -0.643901247678294 0.05801343665324086
v -0.056018876073153874 -0.3414759271634852 0.2739208129304132
v 0.1493718357864868 -0.17849688357433494 0.2753678596321282
v 0.8297649893890092 -0.0641731362667951 -0.09988297639463453
v 0.41843845379354144 0.010660895771364223 0.25370677764057104
v -0.025064519031809954 -0.31757691388545994 0.2735421412129921
v -0.10932500164430568 -0.4371728606624555 0.233098566806788
v 0.9671560570744994 -0.24540746533822788 -0.348189739114735
v 0.4782730608124451 -6.624550225946182e-05 0.2008073643558423
v 0.7296410411641826 -0.37311353568367894 -0.29866362990642614
v 0.48001040302304104 -0.1654913829535104 0.05387500303631339
v 0.7440572718920435 -0.028240832140337298 -0.008020314930563734
v 0.4379281561061827 0.4002210975536858 -0.03520454045680487
v 0.22245722522841926 0.5515687632807736 -0.31401365615622895
v 0.4121420953093328 0.22066439544884964 0.1082781381203142
v 0.40143036421353373 0.11290300449491637 0.19807462955892344
v 0.38223492828742 0.4713495875404417 -0.12921266331592565
v 0.3245474562110987 0.5411243392720166 -0.22904608093959974
v 0.16934304744630707 0.07515739926333914 0.07174690340474627
v 0.16128924790690716 -0.0174071102529223 0.14222657974689945
v 0.19859371594837258 0.29530031796139594 -0.10854974457827628
v 0.20110190422220506 0.3491894738479884 -0.15284691056264282
v 0.42406290954737236 0.35106391423330385 0.002202500989652589
v 0.3594063298800469 0.4959140701679042 -0.16769315428404125
v 0.3361526078541986 -0.02708250300502016 0.27626942363085844
v 0.40763858484114646 0.43276369598755055 -0.0803675740170937
v 0.18917989075036692 0.21518331044647765 -0.03898905013407999
v 0.1657135843075858 0.026994518426552493 0.1070870430041261
v 0.24586281536233986 -0.10231291456259511 0.2708328220644359
v 0.29306355889010455 0.565248658088416 -0.26973023754821174
v 0.22012166982723086 0.5168371968606829 -0.2800151503681048
v 0.4233743167569601 0.2768187087645509 0.0646276859619046
v 0.20909604004966462 0.4273449695017889 -0.21376065785156959
v 0.2612724940416497 0.6023404951841761 -0.3288300815010844
v 0.3974652152601797 0.04401293274973432 0.24712403007407088
v 0.1489419547924467 -0.13435990338366532 0.24537756090523363
v 0.18533240756187355 0.15476100980585514 0.004808452709724978
v 0.16336486224239485 -0.023378206111634534 0.15233610006704754
v 0.4108197216088586 0.2032758361477498 0.11711752384298206
v 0.17542504627853311 0.10896483723351398 0.0504009628520432
v 0.21347274348184545 0.44280078831564096 -0.231297041772476
v 0.34977935837092294 0.506182369541166 -0.18412473329263393
v 0.41617303930572946 0.23453927420586623 0.09470662830859015
v 0.1492445864904842 -0.09024481474135608 0.20289197181167035
v 0.3949373627778377 0.03746876133693641 0.24976308029504202
v 0.33584455580232314 -0.024678387269078544 0.2743753532213941
v 0.1520826230684553 -0.11060890365274337 0.21600830939091367
v 0.36467191312382435 0.48730022865925166 -0.15885997878477612
v 0.36411691296372406 -0.0049606400074934 0.27836724410808067
v 0.19027081793665251 0.2510194910618007 -0.07303026802747523
v 0.21982012766315612 0.5034422412557065 -0.27118202147765097
v 0.21246576532599926 0.3818531232014742 -0.17170360008843566
v 0.4071160292766829 0.1853379433619793 0.13758076802586544
v 0.17951443749528623 0.18549773081756885 -0.026010225559568723
v 0.3088012587600914 -0.05076659832484653 0.27635736380597786
v 0.42304070757065304 0.29295062545513006 0.052163769301774146
v 0.4285596300076639 0.32473597919389185 0.018467202214087753
v 0.43078771845648384 0.35667665356842737 -0.006250118391789257
v 0.1715815537012915 0.08112789447093027 0.06516849515678708
v 0.4177632216373938 0.2650972177089661 0.08134544227843386
v 0.2092149882459364 0.4216801245949522 -0.20141033198957092
v 0.2300950301828441 0.6079291640181719 -0.361781567294703
v 0.39416424076313755 0.45994225101288533 -0.10976024509069335
v 0.4051043084265365 0.1304411013297716 0.17901227486098986
v 0.1676257281869306 0.04446465856789203 0.09017235988259092
v 0.40529780391858616 0.157504181570217 0.16092395306325008
v 0.16104262899492724 -0.04552058383123915 0.16711700675709878
v 0.17099110162140177 0.13316332156218036 0.018726046686270002
v 0.3278497707582716 0.5346549709491356 -0.21616249882648944
v 0.40452228854082695 0.4507768561057993 -0.1029449610241585
v 0.3360279512113005 0.5188656892180029 -0.1945992618228517
v 0.1865317040292137 0.23447762740988992 -0.051132976702280696
v 0.21869279683938078 0.4894500768516804 -0.2643338160781637
v 0.31570461096567476 0.5452388629376757 -0.24743020651920178
v 0.2097548335464215 0.5328794483604725 -0.2923804761066738
v 0.41308824681668976 0.24771883128727604 0.09379880516611391
v 0.3988697347910961 0.09671665130098638 0.20709757174943916
v 0.27716290659114345 0.5822159634989338 -0.3006723597394189
v 0.22442956153674223 0.5879920695840478 -0.34011918060346474
v 0.21384214921944067 0.4636040577075965 -0.24184705319099808
v 0.14767479369312086 -0.1210232446362738 0.22957360013376996
v 0.2002370142983845 0.3073407060496833 -0.11900817735893235
v 0.20085184119980382 0.338082454409808 -0.13754127276427905
v 0.17873783061299595 0.17054660876767688 -0.007288129859614252
v 0.2068460654505446 0.4095907409366631 -0.19184127222953715
v 0.4346474838475458 0.4089747835240219 -0.03779720499958683
v 0.3941420531345058 0.06440814699426016 0.241100174320779
v 0.4120008638074965 0.17784025862909236 0.1433176642260315
v 0.42386065998460776 0.30029341534840204 0.04775230123919334
v 0.16598058784172684 -4.104326492402211e-05 0.13531858986174888
v 0.4016847165034082 0.11173203254621146 0.19966182439641184
v 0.2865633382298381 -0.06787059061929741 0.2789037639568406
v 0.42374998468226593 0.42638649411220664 -0.06113498424061849
v 0.28626268843653363 0.5793788514632144 -0.28545945172827975
v 0.21207542825303424 0.473045120783356 -0.24753756623823917
v 0.16856793182721477 0.022031195829422583 0.11115615809415004
v 0.33350399067190434 0.5276598412497125 -0.20855113006646067
v 0.19406531110891315 0.28701644010378774 -0.09912038237088085
v 0.42949587427826197 0.3835590610499876 -0.018628232871300016
v 0.36710987117510396 -0.012079583403878769 0.2776876919218765
v 0.28401652190421045 -0.07377276234199108 0.27285424857748314
v 0.20258624365823755 -0.1294749798476414 0.27578020381360785
v 0.26357870211815004 -0.08323688737291979 0.27420311017196564
v 0.17456003961537758 0.04771413995983479 0.08807358271448518
v 0.19375161555476114 0.23173658493056212 -0.05797597717301078
v 0.22067253844248666 0.5302261691253922 -0.294378997605534
v 0.17491885655585662 0.09151139456860992 0.05578780307933362
v 0.1675637493236087 0.0013604953964795553 0.12537307592398292
v 0.4065080255173868 0.4427366508976443 -0.09259460492936097
v 0.20160462542543298 0.3543121538813549 -0.14899539910730106
v 0.1574859918017958 -0.07172608629897323 0.18007100693815187
v 0.14923326332168732 -0.14686290842043934 0.24199122400129217
v 0.3983564789925752 0.0780462588223885 0.2202415161213102
v 0.15653114206408353 -0.07175133884594255 0.18980956095941692
v 0.4134049126616327 0.20672472768120279 0.11652052113289584
v 0.19404515841725964 0.2635691120593909 -0.07533580597997211
v 0.1750070966075134 0.12342644226920425 0.03790318648604575
v 0.17991542916184886 0.15094114418813503 0.012840974647415095
v 0.20485876940552708 0.3663816051471454 -0.16524328208897196
v 0.3003580725926542 0.5653158782267961 -0.26165489326757635
v 0.19095278057501222 0.22256151233145616 -0.04929909617288979
v 0.4302880569584798 0.3556745191995121 -0.001170975531032622
v 0.34068482485088314 -0.029044676258764664 0.2723623841325117
v 0.168520871596951 0.015057065314664525 0.11990615188858741
v 0.4114395127664662 0.23044558078314722 0.10217717928382496
v 0.20174914196017002 0.38787936616536867 -0.18071326530032114
v 0.4204909319571822 0.26824196898169805 0.07451710871823486
v 0.288191190289402 -0.06446727865610062 0.2757947552432559
v 0.30875503913588 -0.04687900669136124 0.27235848817867125
v 0.21272424280601432 0.48277285943789505 -0.25409180266554526
v 0.1574089277770123 -0.061652936979582 0.1828387982946259
v 0.19118444720582753 0.24216099058034574 -0.06459538992196488
v 0.4229808712149282 0.3432437096750317 0.012127075115004226
v 0.16397066003216623 -0.011451746634901054 0.14124311392873537
v 0.40751575414249586 0.45012856411966773 -0.10111223044778862
v 0.16839897277765564 -0.03931369243364763 0.1620122903023284
v 0.2109116094624811 0.48300287167543293 -0.2546307909395491
v 0.21687158577129548 0.5061360586703477 -0.27384298734693935
v 0.1696244627904442 0.03969132809874562 0.09404530983538477
v 0.18591000860028126 0.20164953947721753 -0.02719622562717679
v 0.4210717156420602 0.30400999116859373 0.04549384065160777
v 0.16171259608914992 -0.16856410609527755 0.26873301726417803
v 0.41126966139857235 0.19632172864204178 0.12547064982499606
v 0.24009131867999564 -0.102884371606429 0.2725482796500019
v 0.4186711148407171 0.4349483214160761 -0.0781066473762151
v 0.17875999090158956 -0.15205139399889495 0.2737217041119064
v 0.27426317561542857 -0.0808283658716215 0.27449868687867973
v 0.18444260091264117 0.19289243534021386 -0.023807759335469126
v 0.39861043506877103 0.10243868470923316 0.202814763441461
v 0.4022698000350073 0.1614603293122756 0.15221837408035346
v 0.16259579026688392 -0.020805625605867625 0.15390764360169057
v 0.2098628023176132 0.45220257584196116 -0.23341766956255905
v 0.3555656379641996 0.48889764881898257 -0.1631841264550703
v 0.1839177648028363 0.18058751127500847 -0.014855334953945394
v 0.316334315882915 -0.04476891641764022 0.27600070722439873
v 0.3380801282461083 0.5134304482213197 -0.1925828481531201
v 0.1831022391633998 0.16047234779209887 0.004815797906536364
v 0.18196185034151982 0.1431547583040364 0.012953070964255516
v 0.19612357404305134 -0.13839782472304027 0.27751078173155574
v 0.20204399463185096 0.3207586815654216 -0.12707470796047718
v 0.23309290609076477 -0.10148611824162894 0.27579786935406025
v 0.39284213592848066 0.03651457171970041 0.2523603832022872
v 0.4150142933418655 0.4415113373754631 -0.07464870524957332
v 0.43326381271129993 0.3909739247814657 -0.021460701972485223
v 0.19552124579221355 0.2939129292607371 -0.10645795718857667
v 0.3824306985316734 0.47500838088469155 -0.1338142417206002
v -0.5481210949469159 -0.27866284967655885 -0.12563939228698637
v -0.035895172246423045 -0.15311936547967264 0.1303044717168102
v -0.27579922493083003 -0.3569846865908846 0.13312628516737793
v -0.6234781401157851 -0.14698382315635689 -0.27095536477938076
v -0.4247301426401615 -0.3433114163482889 0.014998802653706327
v -0.369177652392216 -0.10634445091788543 -0.13428569575385055
v 0.0325404959992497 -0.2713096675850423 0.2774343882814677
v 0.04339453908430221 -0.16316541741096033 0.19001532836361656
v -0.5022535508219711 -0.3351578171394933 -0.053174552773163075
v -0.5878641416960709 -0.20922395807013197 -0.20735721172097804
v -0.29819618994039376 -0.11506645882291118 -0.07947978826351203
v 0.09725458862046917 -0.21790330873298636 0.27109242287809876
v -0.1652522529315882 -0.13578464326085193 0.030587312198755538
v -0.32931672282849767 -0.3516733512155603 0.08911485055184715
v -0.1473878515065561 -0.371293166395251 0.23959728795878885
v -0.47328290263767797 -0.09270084111969322 -0.21312166517314426
v -0.5608033508951188 -0.07085891643953235 -0.2934209115035487
v -0.5160996490361357 -0.08450663506336506 -0.2557098326785006
v -0.37666464664538907 -0.34970960382418015 0.05316584362031012
v -0.23252495587491454 -0.12315807037844462 -0.02892637568563402
v -0.6053505220527368 -0.1784397891485266 -0.2411875627345292
v -0.18755213867410328 -0.37405878742030707 0.20470456801194986
v 0.0006068818465779805 -0.1634200470318672 0.1633394630998752
v -0.4228409015021154 -0.09460323284739916 -0.17776108783456215
v -0.5676179719067938 -0.243910306165547 -0.16161292339297978
v -0.6390544947843387 -0.11955040496683819 -0.31214752896622266
v -0.07319661316444842 -0.14440863311140842 0.1033994224364698
v -0.4579865537346569 -0.3438011358007752 -0.014464703673739721
v -0.33141669623496073 -0.11133323825001208 -0.10739543507125646
v -0.11584822984053891 -0.14302575818890378 0.07036004908967886
v -0.022972659668508703 -0.31529348551086644 0.2767199186942496
v -0.5333835115432214 -0.3030993280060604 -0.09042837477985118
v -0.20209716829910415 -0.13302719649075423 -0.000605583297241179
v -0.06823668602783008 -0.3460421346429622 0.27494959789839507
v -0.0007491146520706943 -0.29332760816377146 0.2753829181456256
v 0.07956840146592793 -0.16527784894367925 0.2154522676288708
v 0.06106733448551955 -0.25165116882884186 0.2791252321946167
v 0.12404511787530073 -0.17734748793951163 0.26182408081931946
v -0.5125211262876392 -0.32288626449682833 -0.0712818606461837
v -0.16273819919014332 -0.3702426794476721 0.21450945746249314
v -0.2185601226499702 -0.3693012881804249 0.17982495970303572
v -0.5995313684050579 -0.06817993633191771 -0.31682133910660626
v 0.015703432085368802 -0.281866360093302 0.2747133097192095
v -0.5310185262303307 -0.28952486527045074 -0.10546860112919768
v -0.614691374988398 -0.15553472884080988 -0.2584513328651668
v -0.45382881298465017 -0.09065937405904086 -0.20423801753862036
v 0.06254738308198599 -0.1699525006997588 0.20645845450738054
v -0.4774033364235721 -0.09123690374629946 -0.2240279103055627
v -0.14123261166908554 -0.37178183620718086 0.2512264924614327
v -0.5718275281862073 -0.22455465158485383 -0.18382840939083292
v -0.13349375186883491 -0.13945688536483122 0.051248533818152975
v -0.4648754971961845 -0.34052271612356894 -0.023091591822441512
v -0.04681252463891136 -0.32957771502789485 0.27114572751860333
v -0.30508840553359196 -0.35517383473441605 0.1109846269961296
v -0.017741531259678374 -0.15702719826980807 0.14210728820758142
v -0.32510645129870375 -0.11454176807220702 -0.09801502708419683
v -0.5524123499746518 -0.26936008663406863 -0.14297786340705376
v -0.40011323607680505 -0.34797517315849613 0.02632292017967216
v 0.0755773998266405 -0.23421622784412613 0.2765577984904184
v -0.6570274950518065 -0.10469742693034617 -0.33709724715959066
v -0.5695573289650661 -0.07149726334503151 -0.29579136281153545
v -0.14715785721818203 -0.13919709970415844 0.03981159197197285
v -0.42819798389916813 -0.0953590828392631 -0.1860945169951896
v -0.25482550543950033 -0.36100517414279165 0.1533428728589573
v -0.20219649796958755 -0.3665340215130148 0.18601213013486725
v -0.34786482055742984 -0.35144260720756476 0.07022529219262443
v -0.2558093266842531 -0.1176298755696058 -0.05016919682708579
v 0.10155138273888045 -0.17209705213223592 0.2395406608246858
v -0.5321382847633882 -0.08011991906943988 -0.27190665277078707
v -0.6176278671076076 -0.0648249722574223 -0.3386013710086579
v -0.20899184002040322 -0.36557662494163495 0.19531011246620228
v -0.27832471424597804 -0.12109581763551083 -0.06029824283542755
v -0.10281392407770164 -0.14503008655203845 0.08127480144950669
v -0.4453844849961464 -0.10040746211412585 -0.1962877467302279
v -0.222191769091883 -0.12924804927419756 -0.01534992943207111
v -0.2844072398821651 -0.35633028056103455 0.1275278840099429
v 0.036405012847390436 -0.16549996938457034 0.18321790819190967
v -0.6301990527820291 -0.13928173724621673 -0.2968273809108738
v -0.5991846983246341 -0.1792352318702141 -0.23937333800987573
v -0.48221248685372475 -0.33510045148957496 -0.03450851202898213
v -0.4066366346764717 -0.3397773965578265 0.02839216826636672
v -0.5925537416366479 -0.1958870408217281 -0.22214293068654406
v -0.5253217600764241 -0.3161431254807922 -0.0845214395485779
v -0.12179903372592818 -0.3791600646789806 0.2649206318002145
v -0.6736788854563115 -0.062020094711665766 -0.3822344400749527
v -0.30469395170698 -0.11124652821354941 -0.08157923987401043
v -0.5839692781599901 -0.2103679631956499 -0.20587579447602042
v -0.3372336372444832 -0.3514200475738231 0.07873962150540612
v -0.4764974337804743 -0.3345086402139046 -0.02665528632004299
v -0.0499172009979584 -0.14476839977816913 0.12061065691651864
v -0.16002513097951923 -0.3729052031682673 0.23622030939004915
v -0.5677338524713039 -0.22881690280943506 -0.1842189035244329
v -0.6135190175055282 -0.16917595239450783 -0.251947273992413
v -0.16763961296772528 -0.13292476172174156 0.01909651510730495
v 0.013757051494621312 -0.28013118116644375 0.2736373246333804
v 0.003881817364236928 -0.15893082684345036 0.16276393050830087
v 0.031724700160320196 -0.2721713376086662 0.27248124611229685
v -0.5623861722957714 -0.2530267868989245 -0.156172488189924
v -0.5152699267442729 -0.08244170917314234 -0.2518029642669715
v -0.3456872010776179 -0.10889380661067069 -0.11810696798301727
v -0.01036644584035537 -0.1539622173701853 0.14752813616976812
v -0.24400405125642763 -0.36029192908319174 0.16890713214708186
v 0.025985027985434735 -0.1632348858864095 0.1769498991504283
v -0.5972412767518249 -0.1945381621180332 -0.22058059846379605
v -0.5103512845198572 -0.32523202272188695 -0.06411273764584728
v -0.43541366737339254 -0.33712213936767566 4.04216263891219e-05
v -0.30810973896242355 -0.3503951682289243 0.11349237630290908
v -0.034236592418247135 -0.15403725683276215 0.12749788099653492
v -0.5174475028835709 -0.3168495310944098 -0.06831173541301565
v -0.05737238820329264 -0.14749807137284832 0.110252555507594
v -0.016561487393599424 -0.31132948590466314 0.2740510131457496
v -0.49641680416142986 -0.08390361388605769 -0.2377803269949269
v -0.23543303353484832 -0.12791131932399563 -0.02314385163586028
v -0.2269733084815056 -0.12678075793982763 -0.0145282329654495
v -0.04740273697916661 -0.32966923309494073 0.26994262010568576
v -0.6066252850215174 -0.18736307425601012 -0.23039021270922286
v 0.08744221472907016 -0.17500756282141003 0.22643680430296237
v -0.43590401320830524 -0.09246303596519659 -0.1908222495246587
v -0.14388853504042792 -0.13430973798844084 0.038259094197991284
v -0.4832897962281756 -0.08509903499259998 -0.23149195914842205
v 0.055537563996154886 -0.17130328481517046 0.20315266037498608
v -0.31703425697578286 -0.11640602552239995 -0.09698020720184973
v -0.20563650771473244 -0.12599552271138778 -0.004151041968863039
v -0.28825960573755416 -0.10938703539548512 -0.0788140445362128
v -0.5840435165062833 -0.0780121126574197 -0.3042477427818295
v -0.44264501861462874 -0.33981159205261713 0.00013538029569226434
v -0.40878494511300156 -0.09428778410400666 -0.17071923114701015
v -0.12469608723155222 -0.3753322952021551 0.2517703045414467
v -0.2883330877604121 -0.3579636320416525 0.12021713474851307
v -0.45809634632118346 -0.09271283775866303 -0.205339004714625
v -0.07009661164472615 -0.1495285862425612 0.10419288749707838
v -0.5346194970078413 -0.289399126220246 -0.11078100167692283
v -0.6371800563161345 -0.12590078015871575 -0.29874931679229366
v -0.39145429298132595 -0.1024063083773265 -0.1484556619670979
v -0.20622466301885112 -0.3703207501980339 0.1869552213509783
v -0.26283567728767054 -0.3596103992412891 0.14313909062777624
v -0.22415209798972108 -0.3640530854453068 0.17775039149944688
v -0.27368461575710196 -0.3589718385011991 0.13179543828324797
v 0.06777805646602142 -0.24012218266409036 0.2737356809391726
v -0.16974965246447388 -0.36803428342485783 0.22063899583797225
v -0.1865206746645135 -0.36889356752214275 0.20651973261635245
v -0.5395067411934775 -0.07980529148934383 -0.2762963547662904
v -0.24270151259042144 -0.12205092774754356 -0.0383349969833013
v -0.12070597073906847 -0.13808468604271734 0.06388102585431549
v -0.6115200826380599 -0.0679741946258367 -0.32990707198235747
v -0.5546607776929359 -0.07603694114667571 -0.28542991994294
v -0.32091234178865585 -0.11658118515978506 -0.09477698327627158
v -0.17011547414194833 -0.1318168381994369 0.01602984616283879
v -0.6283727007337199 -0.14295798515328823 -0.2863679114847894
v -0.5682695249266525 -0.23892706892050383 -0.1710850511861874
v -0.5901137463132925 -0.06910639090214826 -0.313304636663613
v -0.34110288400740374 -0.11284542016044014 -0.11454524356092487
v 0.04906797626548787 -0.25510917461729005 0.2751632029175146
v -0.44260507405703375 -0.09025202755289631 -0.19619567433576596
v 0.07903167747606528 -0.1677913630049794 0.2165988817411237
v -0.38505981429135505 -0.3509971194209861 0.03846896349634969
v -0.34831003048314724 -0.1078985308152015 -0.11675487920416196
v -0.3311650713604795 -0.3501809418233039 0.0852339858684365
v 0.007777011899256246 -0.28982669039600917 0.27480445093422046
v 0.08385555433176622 -0.23092647953311402 0.2761966838493245
v -0.378555394581208 -0.11204445624454012 -0.13772134842406386
v -0.4604910702120453 -0.33890269125197503 -0.011640507580182285
v -0.08741452826953645 -0.35755663472553173 0.2787548775729433
v 0.0568202187600706 -0.24670484340517676 0.2725754790190472
v -0.03254276683326087 -0.3225290026714388 0.27264099946167747
v -0.056873543074886596 -0.33443610061450746 0.2772440959134644
v -0.4147432217114963 -0.34136397689348275 0.019265726441553787
v -0.3602525885804677 -0.10909459022945357 -0.12755167095879885
v -0.40120587924530576 -0.35016832815044596 0.032573344311436984
v -0.31339328139571637 -0.35360840222483403 0.10089564406931854
v 0.6869640715919559 -0.43683914904187965 -0.022811458183111203
v 0.44277683105966126 -0.19407400404763286 0.058634343549414256
v 0.2730313065861345 -0.7619548919773727 -0.017069973167355403
v 0.5128194912324089 -0.5751071496575253 -0.02611109632492939
v -0.018012966774540538 -0.6041203776050966 0.04956148277751956
v 0.6109843826397664 -0.24406536403124796 0.024352045328266774
v 0.10013819077799772 -0.753177432642137 0.008545562336844312
v 0.08787247464378103 -0.4755577113863337 0.05800119835079831
v 0.18076802753043686 -0.8392197829215046 -0.021775354130415356
v 0.04135315621672568 -0.6805614461934822 0.031728873434097075
v 0.6704132710671407 -0.318307710578846 0.005695879307790526
v 0.5673476534926956 -0.18339053042122058 0.04660177735314582
v 0.3342816691740603 -0.7098203555513848 -0.021832059951463343
v 0.239855357894528 -0.3544798193229076 0.055496948107072924
v 0.4661646798563324 -0.6056254994273232 -0.019271093492984812
v 0.3270908161976058 -0.2821943047722818 0.05782082708746668
v 0.6412352154655477 -0.4819668607430902 -0.021723995783349232
v 0.15665619137992862 -0.4241755827753439 0.05834393854499265
v 0.0016589370339753096 -0.5418284120989176 0.05641439767829626
v 0.5899773593222536 -0.21291602293808035 0.0375628549264576
v 0.19812068750784173 -0.3899960443927329 0.060190152953549195
v 0.5463829537251379 -0.5448534275855251 -0.015446642082783778
v 0.7120304971555433 -0.37205119117745294 -0.008965759849955792
v 0.28222473244430946 -0.3193955961730823 0.056064827264341886
v 0.43154033304702655 -0.6332495481915248 -0.014785773854980392
v 0.2243123608636081 -0.8023771889629215 -0.022128054967818618
v 0.005876917805501434 -0.6338163398083732 0.03793711921559308
v 0.12560617458139897 -0.7978720573603422 -0.0040523430543678565
v 0.06623306509589426 -0.710292529118009 0.019801123663597764
v 0.6410162591950167 -0.28415942481376394 0.014488904908633382
v 0.5867798514332222 -0.5130480200591405 -0.018336474797102417
v 0.39695922731386496 -0.667462883360822 -0.02022305328398103
v 0.306182793099031 -0.738187156950065 -0.022800465750620766
v 0.47935343323284896 -0.16327533112495635 0.05544609076620241
v -0.012445641118283845 -0.6122341413041426 0.043078699325647604
v 0.552582772337721 -0.15642768870968998 0.05005585917582481
v 0.3707474758113677 -0.6838888620330137 -0.023270118404843942
v 0.412619241148291 -0.21932161425549998 0.05506316222008142
v 0.20172086322882815 -0.3812554150105611 0.05855098805489791
v 0.11733845254835158 -0.44980825963009224 0.05735697184421203
v 0.6890914842184618 -0.35407498749168037 -0.001117528424286187
v 0.48852622633425236 -0.5916029721086782 -0.014165847347772946
v 0.6664341447562036 -0.4558916209977502 -0.015269408959962438
v 0.4587206525088337 -0.6145881959355088 -0.01632101508586543
v 0.1569582560993868 -0.42616610902141594 0.055746169927480604
v 0.2383864886102533 -0.7851609703864786 -0.022673263772146374
v 0.5029738107978066 -0.14557805982212702 0.056487646013868874
v 0.01558948271676022 -0.5285134018030742 0.05740988118766407
v 0.3521880240564766 -0.26615168462963307 0.056451939243388705
v 0.19892098024005764 -0.8201061849801884 -0.020083340549606483
v 0.04871942578602982 -0.6975884150065268 0.02998100183288838
v 0.07807007794006518 -0.48350513354047464 0.05861148073153933
v 0.6558029745154543 -0.3007870488686011 0.007575119244904822
v 0.3945092413545093 -0.23682929300586528 0.05869279028418116
v 0.23072272472051347 -0.3628560097258382 0.058427324902640354
v 0.612893619119606 -0.49457897810853957 -0.009140393191911966
v 0.6970062038909377 -0.42679151087198325 -0.012273219077320473
v 0.04085085787344428 -0.5128632748746383 0.05718557741180522
v 0.5744180857286724 -0.5252833958838975 -0.02144823362512006
v 0.6329824110918175 -0.2669454037438989 0.016438264555844413
v 0.4454640027042669 -0.18983057432985512 0.0617418028060086
v 0.026126548228760295 -0.667681023992411 0.02785163160708528
v 0.10112269939652442 -0.4655434660166578 0.05325374580680131
v 0.5199057324025991 -0.5641657931458524 -0.019045074461652177
v 0.17212129545503274 -0.4096636708604565 0.05630748241182642
v 0.6650047129131402 -0.31439144669114855 0.005815897377839703
v 0.3643957497291174 -0.24672209041799958 0.056812469391066746
v 0.21959546714759387 -0.37029364073626825 0.0592335775297249
v 0.3014406136897555 -0.3043119154163574 0.05209623638265535
v 0.3173788238724857 -0.7279989945363197 -0.021116304409819334
v 0.07789179081442002 -0.7365342818389616 0.011889153844281228
v 0.09990011694328804 -0.7716375803446864 0.0012314059183712945
v 0.24537980377998503 -0.7877790509039176 -0.010904306923348137
v 0.2598143023399369 -0.7716383362630399 -0.017308521776564535
v 0.663681769772563 -0.44890831385268565 -0.0168766638950931
v -0.02151622859549989 -0.5556141643008604 0.056462589996541926
v 0.608808587138691 -0.24124169767648423 0.02619416106537288
v 0.6945243125834574 -0.35158902022464 -0.006664927553633565
v 0.48054147841471867 -0.16270067769037375 0.055572809604872014
v 0.5766851616851657 -0.18681525649692343 0.037663182830621374
v 0.13647503491016696 -0.8146857231019459 -0.005638696405434679
v 0.03031816011359693 -0.522247519347873 0.05641013478814651
v 0.5978611955865274 -0.21986813875867478 0.03630778663761413
v 0.421185825915497 -0.6499431159310848 -0.017735827838374855
v 0.35617569140928496 -0.7029011383415354 -0.016023370753941123
v 0.0666195269154752 -0.48938510120308726 0.0537727728134229
v 0.26770395708485195 -0.33509320875206094 0.057681393216341345
v 0.6884818386538232 -0.33958084963565693 -0.004542152332472391
v 0.22414197758282575 -0.806521154982596 -0.018320226548907165
v 0.436437740943465 -0.6316780877095356 -0.016921376513649253
v 0.6296355241524875 -0.26265682882061997 0.01965191874865297
v 0.3859606495761914 -0.6711677666954577 -0.01746372056157585
v 0.3378864959628174 -0.2789002460576994 0.05651350371695906
v 0.13537236292206936 -0.4402427844534863 0.057008372636911275
v 0.2985228037590143 -0.3061045258884958 0.05526074194746651
v 0.46515612038287424 -0.1727468250683998 0.059407648079579135
v 0.7021140559348246 -0.3644638902203233 -0.011379252615000494
v 0.6419092299717589 -0.4688604514462409 -0.015272272386194028
v 0.025838810153290512 -0.6667846484807853 0.029420486547061486
v 0.01528187150109129 -0.5325688982678795 0.05089062113185308
v 0.641654614119076 -0.2792358494022324 0.010826952833118512
v 0.417378829290155 -0.2075218966167951 0.05398234614836146
v 0.37244132350789594 -0.24829644619770594 0.059661668342394274
v 0.5826343063432702 -0.2019238831628045 0.03973618938899674
v 0.1970992534433646 -0.8208268608469262 -0.016325903318513964
v 0.02930382491914314 -0.5181098488219594 0.06112528713522486
v 0.28553065264494326 -0.7518099440131243 -0.0219155171816914
v 0.060075974512356675 -0.4971325176565 0.06078961230476389
v 0.5283316288663757 -0.5569212206685912 -0.015967324378731385
v 0.5799872785896011 -0.20448598668101753 0.030849801287002085
v 0.5068552848368002 -0.5697602305938414 -0.017477935473143025
v 0.04726498407508143 -0.6932547194140468 0.02223107519378003
v 0.3007761040461934 -0.7369017307109474 -0.0192712486857937
v 0.6226042256685407 -0.47945780308005276 -0.019754727691772816
v 0.013440142202407173 -0.6443097687211641 0.03454441261481437
v 0.4621357973636412 -0.6063710570340786 -0.01730382912879524
v 0.459015941663749 -0.18402333848842267 0.05736562993249942
v 0.6825352616730332 -0.3334975982752247 0.005879632735299128
v 0.317695825014477 -0.2965376119380118 0.06190429057765602
v 0.0887784017606187 -0.4803909467442906 0.05097320083072283
v 0.4769512936755021 -0.5961226056905262 -0.018563477948287457
v 0.6229251325537726 -0.25147826615182045 0.024812455404401
v 0.018694692525770284 -0.6455194677244739 0.039906323204764935
v 0.6581356982814077 -0.30535932622705897 0.011116290700034958
v 0.06489706040237495 -0.4888662775133339 0.05495358316782922
v 0.5490904303530357 -0.16183130195050294 0.042679593000009515
v 0.6588730558084912 -0.29259674466413477 0.013657819281777943
v 0.35928801812608824 -0.6957348276387915 -0.016738614036834132
v 0.5871049496127466 -0.20477256664496069 0.0354939754279847
v 0.579411505836753 -0.5137615838011166 -0.015520015864732352
v -0.00014429903785887366 -0.5430486884015879 0.05436865610862731
v 0.07035969089927661 -0.4899934020301593 0.0642221732775268
v 0.11544073542621014 -0.7803889072083974 0.00027075084963523364
v 0.6097912666695837 -0.23765667150956674 0.029160331972980725
v 0.006253705275303628 -0.6338880299738315 0.043944438284476924
v 0.11713326578018202 -0.7876706319951947 -0.0008336129092873278
v 0.1414463210657849 -0.4345485252857297 0.06006384413548451
v 0.36300820153455393 -0.6899421863132332 -0.020826498929184593
v 0.5691720869176277 -0.17414632424895354 0.04867416142565427
v 0.5977011746350408 -0.5017840961978864 -0.014562771448341774
v 0.64204116130116 -0.2787161184064832 0.01323644465585221
v -0.013968691080872855 -0.5600884587416353 0.06069252374297383
v 0.6547936877875803 -0.2901117359259015 0.013677010233476974
v 0.6203203530865997 -0.48936134160058375 -0.01683600277082416
v 0.1807071543725354 -0.3960201411985489 0.05798997557222446
v 0.6528365865478586 -0.46277458247132597 -0.016930351353456077
v 0.4285052794744463 -0.205360899304702 0.05951965928694773
v 0.16938035759382877 -0.41445306366627355 0.06267191122275045
v 0.528259715833187 -0.13261299242718083 0.05499181258963295
v 0.21165760788992452 -0.3812537478719362 0.060163435475236574
v 0.07372691658047664 -0.7237951020578444 0.015454757008291728
v 0.1874360181669925 -0.3945860432085388 0.055890205302245796
v 0.4070280771199279 -0.6557825287453091 -0.014488217549611528
v 0.3437054226839051 -0.7032264738650323 -0.015263896969655013
v 0.09931711491949961 -0.7562089011330712 0.00523104175373641
v 0.5790411633110251 -0.1822690047655669 0.0407264773837477
v 0.5025585845163965 -0.5847149837272035 -0.019650463856826214
v 0.47076155957499144 -0.1721574184391552 0.05777677779957086
v 0.4727881796621461 -0.1725393965594399 0.05195472698648832
v 0.32512848578766235 -0.2869388397320986 0.061167160629266915
v 0.32485798113388514 -0.7165723087628836 -0.016106755636815087
v -0.0011188814622810558 -0.628437743770777 0.042202899542489
v 0.44604459161273435 -0.1938584702901931 0.05591322008088112
v 0.6693472567248372 -0.44842728859873093 -0.021391434168426475
v -0.005484539613081402 -0.5500232439954957 0.05716834457490929
v 0.5605588148315656 -0.17419437853831907 0.03603352579654072
v 0.4228957633897424 -0.2090841741502692 0.0580206873232376
v 0.04776454555411867 -0.5043477241015654 0.060812043075502746
v -0.03039512144527497 -0.5850878275444297 0.05527841703935005
v 0.1422756991154581 -0.43386656337757756 0.05439404957043884
v 0.49331419974221713 -0.15824632993800225 0.056818359538903594
v 0.0932164337509197 -0.46863288883457543 0.058506459012752726
v 0.06449285678536182 -0.7142339222795012 0.020758575510138495
v 0.4037767456404762 -0.22553415977550706 0.06106322309448803
v 0.31249762088853944 -0.30299926303225866 0.05640893357633491
v 0.5489070046008705 -0.14639063724155046 0.05169738119524793
v -0.9321428014423351 0.2484736530530593 -0.37822455573351194
v -0.32272951587341786 0.383390656371182 0.254215896492853
v -0.72292943894505 0.001389015849583881 -0.38205793819629574
v -0.5194827718127017 0.3965255854905328 0.09698507337638115
v -0.836861939878025 0.3494109074340971 -0.229111303882242
v -0.8303846374618773 0.12613469200066307 -0.37936163972021314
v 0.09795407330808728 -0.11587954900166557 0.27718190282950117
v -0.7804860462369715 0.3875012572757644 -0.13256615671024946
v -0.5176077228424751 -0.08233104726513799 -0.2565961006058922
v -0.6360311681891628 -0.056431704862786064 -0.35144071818356964
v -0.4240598076455037 -0.0955009469487802 -0.18064174066989844
v -0.7823426343771754 0.06467539572315686 -0.38647228356408203
v -0.8784668381097637 0.18390733064430215 -0.3833528038860573
v -0.20500471361767023 -0.13255284460914665 -0.003977044978240291
v -0.6717264478527786 0.40546799088773033 -0.030671563412298222
v -0.10182060058438379 -0.1466158487549104 0.0764667169577777
v -0.22441782521735779 0.29573380252898956 0.277702303936649
v -0.8868253400947058 0.3182596089885847 -0.2892411785640589
v -0.5641868046404872 0.40300208236190777 0.058783662087844316
v -0.7423186226198035 0.4127339457242195 -0.07644452380804274
v -0.2648326695484137 0.3419149820215215 0.27812667500616095
v -0.4632008399671977 0.3967533172406468 0.14136537321917866
v -9.080756553999682e-05 0.009724360775904637 0.2795789104371284
v -0.3658027033245426 0.3878593874098765 0.22395550809082618
v 0.06121915772441471 -0.16626094569052374 0.20847061784593998
v -0.6178010281235671 0.40572680336855127 0.008276251888884116
v -0.6852452916138009 -0.0484186535750593 -0.3845720724567524
v -0.012303642496294469 -0.15686645752760517 0.14128608379309524
v -0.16875796977461865 0.21936639385848256 0.27455486844806914
v 0.062401072007065836 -0.07085024498468798 0.2766472294786183
v -0.5977084990512586 -0.07035519345110021 -0.32091978040182295
v -0.8122109221043792 0.3651270758616113 -0.1797938990307589
v -0.32410654352547635 -0.1114994562512677 -0.09686960183700061
v -0.045607971765290335 0.062029958647212134 0.2770101761153022
v -0.3811695904751557 -0.09831756787450202 -0.1495546716948432
v -0.7515110976877017 0.03579718514838447 -0.3861054273763184
v -0.8042178705798704 0.09352216052057 -0.37918586123614784
v -0.053788870349586446 -0.1527235643676509 0.12617855871984612
v -0.91153563485739 0.30179250105384053 -0.3304628691915337
v -0.1692432377624071 0.20533412656875163 0.28103194529399417
v -0.7011324359782393 0.41432048682301786 -0.04836059253286945
v -0.4799971306105056 0.3911071919952929 0.1309213855409089
v -0.26894828227918266 -0.11741025787656331 -0.05187063758801468
v -0.5985669653080149 0.4018853531929374 0.03144251287334135
v -0.6687724453594915 0.4052042489843725 -0.025701253763043056
v -0.28745150842394673 -0.10959981053478315 -0.07005968501280964
v -0.505364432693028 -0.08553002934482458 -0.24243925427192234
v -0.9089829268960319 0.22340854972572263 -0.37868476355178476
v -0.1701679039276332 -0.13244987995338933 0.02277150084953737
v -0.3478853258761534 -0.10915192625642312 -0.11719900855789547
v -0.3291939696429363 0.382096878596799 0.24693797594060438
v -0.20452458246615243 0.27366907669571666 0.27566759466091795
v -0.45026504866078 -0.08312017213467225 -0.20785232104354354
v -0.13831091725076325 -0.14101928016818702 0.048920807936195784
v -0.5494587244406806 -0.07664585897217176 -0.2815477216691212
v -0.7030465700060484 -0.03048873629425488 -0.38775125040703873
v 0.09219083119638959 -0.1746935370066765 0.22444404828487333
v -0.864596894276264 0.3322377268575908 -0.2613945309627754
v -0.7987224221760774 0.37526568826586565 -0.16017081343855535
v -0.23948233084096615 -0.12400320718212124 -0.03203167528114982
v -0.39100643206205227 0.3893742758135005 0.1979074374621768
v -0.8533578355523598 0.15371412720274058 -0.38667257200766925
v -0.6241323089713973 -0.06535945147666404 -0.34099736568446226
v -0.5814177489267308 0.40111103129811876 0.04347020456058066
v -0.8241333144076519 0.35591703815494863 -0.20767904644423535
v -0.7643882888237088 0.046976794489736934 -0.384010107573251
v -0.0651859848211081 -0.1536164343560624 0.10894854437502065
v 0.014360465348608189 -0.014814796455949816 0.2723889023395123
v 0.031208387659667512 -0.16527460187777043 0.1858195431376296
v -0.2895545432954116 0.3707685750446002 0.27552049549265534
v -0.3852325021352334 0.3869200239730562 0.19785005075701112
v -0.6514433656763703 -0.06280920140999419 -0.35959078125728766
v -0.4522906750535289 -0.09323836914109664 -0.20106380852414016
v -0.7663933491589234 0.39971283928788565 -0.11788916614393037
v -0.14764377091737868 0.18888508458279635 0.27186084707177566
v -0.030836387234886686 -0.1507654883070219 0.1282775499028084
v -0.34356828574329773 -0.10855293778001911 -0.11630994759319976
v -0.4316833406705081 0.3851795031676196 0.1709072062378158
v -0.5414462567729184 0.3952265238525335 0.07232794836776078
v -0.2519692918291959 -0.12585216771093155 -0.05447638056533579
v -0.45566181078365703 0.39075970801364185 0.1533490802230514
v -0.4745299399906043 -0.09299492267095243 -0.22144899837206752
v -0.19179279366176638 -0.12359388106758187 0.001961758088074369
v -0.4101211202971741 -0.09670685920269749 -0.16442280617303015
v -0.7320511737971561 0.41590155727414724 -0.07428456316914281
v -0.5354240598893308 -0.08018613581025216 -0.26838812281323643
v -0.36063180691933466 0.3808772367796676 0.22537547866080065
v -0.9043449604955502 0.30350849920210055 -0.3138433130013262
v -0.7818753398644095 0.06712263937456361 -0.3802667170561677
v -0.6077455622055267 0.4095216459394276 0.024355620661130773
v -0.7073558595264889 0.41248105758420606 -0.05580243027840091
v -0.49908743224740226 0.39803123902400106 0.11376157721245367
v -0.10579756997806859 0.13597944220729932 0.2737232512170284
v -0.1255545355782176 0.15946332673838345 0.27210346254371687
v 0.030622702936613563 -0.03166631568182578 0.2765417028132483
v -0.3722454465648741 -0.10902462088347369 -0.140083572683526
v 0.0009393269690828308 -0.15672716669988115 0.15997863367712672
v 0.05339724101559381 -0.061691034650043546 0.27065433573053893
v 0.05602244263803093 -0.166744996084576 0.20558962429019131
v -0.17888663198765722 -0.13300746113403328 0.019238417770596337
v -0.5872482249964045 -0.07019655628374759 -0.31156214815615685
v 0.11331807250266959 -0.14240072325189196 0.27468902271478746
v -0.8765877886397105 0.32631749237930113 -0.2676187568512086
v -0.7299186938811445 0.005038224187405922 -0.3827767694854852
v -0.7871693231205219 0.08285055647226801 -0.3824285047628642
v -0.11320806626959365 -0.1445113102020254 0.0686189833799255
v -0.8652780488119184 0.1651479071020792 -0.3854977799075659
v -0.273771761962332 0.3472537707050817 0.26544858607048155
v -0.6311887965225137 0.4023780117234703 -0.0015725722225025099
v -0.07839121994183838 -0.14602875508542545 0.09566615059275872
v -0.8238038451829821 0.3634001238674837 -0.19699106764051164
v -0.49021652235716084 -0.08440152774698574 -0.23555714212207912
v -0.011277291255408519 0.019782781131620727 0.2713840244428455
v -0.7877735155001162 0.3766888625421304 -0.1487924878832184
v -0.7755486761081349 0.046775876971063605 -0.38295122634082335
v 0.04675527784125275 -0.1675431076847921 0.19720111530739654
v -0.7545492572266004 0.4092232546319556 -0.09612275710557801
v -0.8989159671927656 0.2128731634361378 -0.3830825220846516
v -0.8143094916380019 0.11454149299284634 -0.3812697960793887
v -0.6916394678774529 0.4132833255944501 -0.041415364447053925
v 0.04608168910564086 -0.16062032868801998 0.2013061297191747
v -0.06866288695965274 -0.14940664136400036 0.09567309168253346
v 0.07874790866903866 -0.0963189279152865 0.2756008115338375
v 0.0515452381385522 -0.059768015002326084 0.27841894892325225
v 0.07253967560979045 -0.17031322487172412 0.22559806528243892
v -0.024905630354212983 0.04234906639849581 0.2753986405985654
v -0.40342053676235873 0.38706253006968455 0.18812838683997687
v -0.7692118552229248 0.39302432409726124 -0.12080981989617176
v 0.04562505007334299 -0.04322866670214116 0.27816157928962965
v -0.22029260076477458 -0.12748295340696658 -0.024927059069359218
v -0.2757611239686425 -0.11735750736583868 -0.06344710817991628
v -0.23688989800758 0.308708247466655 0.27696564657938455
v -0.3618784852622397 -0.10464136075195823 -0.13155316543122716
v -0.04646214716677802 -0.14740387842534045 0.12006864196467419
v -0.4381859220715619 -0.09068099361347384 -0.192621083566782
v -0.8354515172971525 0.12891776593239887 -0.3832921756007784
v -0.8702454107102051 0.32106410583138467 -0.2695204265029652
v -0.3245538681581894 0.3828876124185683 0.24832446789970006
v -0.5513412411902685 0.40226045072667715 0.06963361546658724
v -0.7421102956516283 0.02150500835630268 -0.38483192883409745
v -0.9064514724846956 0.30457519949295037 -0.31378908230783586
v -0.7822955133343079 0.06227343117055408 -0.38554044730726433
v -0.9265183463589277 0.2897236632625486 -0.3527181533730746
v -0.2956118161666918 -0.12015322248188291 -0.08192226931614945
v -0.3279123741259784 -0.10924771408201854 -0.11404874502313786
v -0.6100506327671349 0.4006311303532454 0.024600382665717336
v -0.5771994453288617 0.39891081278941154 0.04431514498634199
v -0.7142767393846844 -0.009062288553980388 -0.3862733279742665
v -0.42267077235735795 -0.09155511481755896 -0.1822884657704053
v -0.19867076783313556 0.26016819744947584 0.2754661149733706
v -0.12578931273606264 -0.13366501116283408 0.05617423506170837
v -0.5403163573640066 0.4035685845365374 0.08135418572162
v -0.292415690422202 -0.11207880440097628 -0.06945213600694036
v -0.35873861907087595 -0.10703674045554024 -0.1252010598515359
v -0.16387274388162476 0.21729348752850644 0.2700093418484625
v -0.42446620569443383 -0.09840142108494206 -0.18090897147138366
v -0.6976514960183313 -0.04411314481661901 -0.38901540671730567
v -0.542846690351289 -0.0777251632783529 -0.27164067703513417
v -0.8343943915391023 0.3490380990550707 -0.21528853296941303
v 0.0360337025134978 -0.1617856559721408 0.18674882941507215
v -0.006580749734331353 -0.1607517591574234 0.1498141780201001
v -0.18666231767326108 0.23959032572797853 0.2730627249038127
v -0.14718353051960495 0.19738348487566695 0.27316841161925143
v -0.14250617373640084 -0.137552318796821 0.04511620316324693
v -0.6359924973688176 -0.060465249050250594 -0.3541134170011592
v -0.7263920811159474 0.41961874065102267 -0.06696426761068076
v -0.014007170949912983 0.025315213234965758 0.2724134925368462
v -0.8175630893540091 0.36546027693269745 -0.19195046327586066
v -0.4492242582561264 0.39309717522333565 0.15212197741052091
v -0.5110326476934479 0.3967930135785424 0.09957795462776894
v -0.15642578036300958 -0.13323312085533986 0.03527519952352125
v 0.10322540769232243 -0.12888059694642176 0.27302344060599254
v -0.8637185399322077 0.3370907059986756 -0.24986310624359437
v 0.021778759123116265 -0.16468672715522512 0.17858049067012854
v 0.09765065047179075 -0.11762238514782467 0.2751856920753306
v -0.3373375372037765 -0.11453619138287095 -0.10844843234006585
v -0.422814352925402 0.3918753882389823 0.1711933065735014
v -0.5162708968948436 0.3990075240233942 0.10143264597954467
v -0.5543667051680937 0.4001770882326861 0.06151731108356707
v -0.8449111650281167 0.34087307127032557 -0.2266399247562565
v -0.10207126745531996 -0.1385851116416311 0.0752459111992103
v -0.6434218806324423 0.40699047696963697 -0.007481115699729466
v -0.30256491251514134 -0.11637821765331026 -0.07643049008394007
v -0.13267196723470925 -0.1321760061978114 0.05642354277207389
v -0.5549974919565168 -0.07743986261170617 -0.293423610271282
v -0.724863891723143 0.41013841589522154 -0.07616663485512569
v -0.7592542217100593 0.40458457295460465 -0.10759061959164899
v -0.1850497810110097 0.23979510249348704 0.2771074061790891
v 0.014121187315953054 -0.005924016867631213 0.27340200694997174
v -0.46606570668820124 0.39321993465131605 0.1406948884425833
v -0.8452155933542534 0.34176306608716644 -0.23426954844600698
v -0.40110703232302425 0.3896252618463278 0.1919347851935043
v -0.45962206034677167 -0.09375370156186912 -0.21612238538892312
v -0.4836656009153311 0.39409744179833467 0.12359521868973967
v -0.6531728311791634 -0.06113762444494375 -0.36516911524754436
v -0.3232444405613302 -0.11064816639430457 -0.09861273034468851
v 0.0325933611976499 -0.03996692993593041 0.277926502650397
v -0.023656907209070772 0.035230770451930585 0.2751735417608395
v -0.2263109170882752 -0.12260191336789121 -0.018283473246992837
v -0.7195328225182154 0.41403413565793795 -0.06697114420222403
v 0.0690786246633677 0.8488557407809982 -0.3843551887320183
v 0.18155475527930104 0.12965282417254775 0.03016611504129778
v -0.21158464189014556 0.8317855064570686 -0.11282126712897111
v -0.10661810730775287 0.9020852926226999 -0.2595164589447646
v -0.1888716944263198 0.24324579792659573 0.2752056814428142
v -0.0031552044084385694 0.9514604627077327 -0.3774061058026326
v -0.2814918712850756 0.4649475907455564 0.19836047100812554
v 0.22740460908740298 0.6392137603550319 -0.3838566082810024
v 0.21722159013102105 0.47669311636614314 -0.25820439379967713
v 0.18940565775683307 0.24622567155647826 -0.06274031378641248
v -0.15826996926038506 0.8657156102731984 -0.19431417936351178
v 0.20234532864910523 0.39285406397927825 -0.18013484480977665
v -0.2744563467271107 0.5363138581539489 0.14516957120470744
v 0.03366206853007146 -0.036337995390727504 0.28029362364618393
v 0.11907236735422519 0.7819291402525553 -0.3776884665555469
v -0.07885577963184882 0.10781891257134407 0.2788191144632408
v -0.2893031862678096 0.4199751966722439 0.24529697329697928
v 0.1523819846404999 -0.11412670944669975 0.21439949129944724
v 0.19176403967726283 0.17354847668206658 -0.0137587763375143
v -0.2516232298409593 0.7421060377579022 -0.024415426242806033
v -0.266083473578068 0.5917679602196031 0.1007267327483113
v -0.1417675785797711 0.18280150011282081 0.2738818998430458
v -0.24595784602717505 0.7994905207750359 -0.061248926306058875
v 0.18900704257865772 0.6952038661499057 -0.37845652063702334
v -0.07376425295161444 0.9292242373259636 -0.3106814175462466
v 0.15928547399604748 -0.06111623861664451 0.17606505346213294
v 0.036913027950077 0.8928350631810473 -0.372624596985463
v 0.17198173573963219 0.0910180588151368 0.058294806321944274
v 0.222943496440018 0.5919199435622513 -0.34523304072619215
v 0.1913727443875369 0.2832308252628631 -0.09835114553116889
v -0.2639346428911488 0.6269892495870527 0.07109933511555226
v -0.26510672033361066 0.6924630339525496 0.01780818380555032
v -0.2719393861880727 0.3418281404310278 0.2719598173225857
v -0.13030133992026904 0.8890345762471529 -0.22868778967647435
v 0.15903795389886793 0.7331421386202579 -0.3801365159998603
v 0.12801307526112074 -0.14614388491492858 0.27048849855809753
v 0.18639262515723412 0.20645104574139217 -0.03248047868511635
v 0.16505206268097486 0.00445631471900942 0.12571966443477736
v 0.22450444998930338 0.5649291775075663 -0.319647061268503
v -0.11901073115916659 0.15155212244194274 0.27816495819837894
v 0.15998439402793216 -0.046877911869352785 0.16932961513249892
v 0.19896667811048946 0.371101780024626 -0.16480896053834482
v 0.16826982689994344 0.05853754438063907 0.08509537263285549
v -0.28338663684932797 0.4907845230770137 0.18101524148341666
v -0.11288021840827792 0.8970399134138966 -0.24791111682462094
v 0.1971929160996826 0.34327260303128027 -0.14223300658273375
v -0.2514545653795714 0.747349495861213 -0.021622449860693775
v -0.22332348706425867 0.2895503190135874 0.27372608018868966
v -0.09765611767112566 0.13431917056225728 0.275378287549029
v -0.26414826588280815 0.6660859768520003 0.032531341325797165
v -0.18940730402029388 0.8447296105281727 -0.14958678284510762
v 0.11294989354158719 0.7920644878934383 -0.3785267976801899
v 0.08407908228036118 -0.0956828096515619 0.28069249409245894
v 0.015200075051603082 0.9223789935520292 -0.3758268913648192
v 0.09022689676547431 0.8189416233569041 -0.37291324056043423
v -0.025217283924388403 0.031498775059270165 0.2773741711221104
v 0.10047914513050393 0.8120362761290899 -0.373953326671337
v -0.24973170852951876 0.7175618288153462 -0.00034419860283383844
v -0.0465366094068188 0.9533070826260691 -0.34254049576556467
v 0.07748995678133881 0.8441992638631952 -0.3800633839755226
v -0.20381584976038974 0.27029958680939525 0.27649507795267636
v 0.2053652744189185 0.40990233756682565 -0.1995791529681242
v 0.16579066401407314 -0.016248645785066552 0.14589310223087196
v 0.20571154641590947 0.6715108378344093 -0.3814089621467755
v -0.1212974143237984 0.17323023209112706 0.2709211310078856
v -0.24592199278677454 0.763019244280634 -0.04721856455907643
v -0.08296543559112197 0.9196699468109202 -0.28834439746047713
v -0.25016318128271026 0.32244289657544567 0.2724595893223078
v -0.010642915850580359 0.021857848182726042 0.27325692487631265
v 0.005901178184589053 0.9311888112727855 -0.37190241481537173
v 0.21372641556209407 0.5033049308690662 -0.28010024165689235
v -0.27512433623086546 0.5142590581221589 0.1588463483453368
v -0.05187578085965101 0.065971447190992 0.27297613391715825
v 0.15902454756368217 -0.07631065008257942 0.1923787818502672
v 0.1834577794967973 0.17569627115627204 -0.01402023546954359
v 0.19513187311933025 0.2756866076885487 -0.08947658650583774
v -0.2902453430194429 0.4369443275259853 0.21669098462805
v 0.19162825781916276 0.20832618259883645 -0.03699166935903006
v 0.23051546359995526 0.6122088943391953 -0.36388994988423345
v 0.17710818990336682 0.1554599510436351 0.006790332426301576
v 0.13505465057945007 0.7595219608187822 -0.3758164863075798
v 0.16146554770869004 -0.041195624236409656 0.1631476233462726
v 0.2192561430917078 0.537110536251546 -0.3021642048349955
v -0.2754631435799423 0.5680252788455835 0.118724503067047
v -0.1987750086738223 0.8282053474282972 -0.13326224988530022
v 0.20416956628767408 0.36557651254770157 -0.1664845693925115
v 0.19744366272336836 0.3146921913601171 -0.11972544644571591
v -0.2897518654650432 0.4451497556559723 0.21582071749804757
v -0.22949231366921022 0.8069120868193284 -0.09354459211840481
v 0.22404447039764008 0.5662534383884636 -0.33028261587338414
v -0.2531047482096669 0.7210585148288202 -0.007157587071172
v 0.01795021337917551 -0.010322474122655438 0.27559919242103303
v -0.2650627786799132 0.6454887486971229 0.055943995320533964
v 0.21131210867501402 0.4508529993546025 -0.2347416785658874
v 0.14394063855312356 -0.12636661616477568 0.23813236531460383
v 0.04751764701679437 0.8859977517621247 -0.38066117708866076
v -0.15981376332050093 0.20550937768491592 0.2717046419978993
v -0.09919858831396709 0.9055800359559426 -0.2660172356931041
v 0.09621623104880721 -0.12253988756198043 0.2711709589398192
v 0.16689174649490016 0.034411241494682124 0.1005359624010898
v 0.01387956010815804 -0.010124381334200133 0.2762467705016022
v -0.24847555367595453 0.7776421926566299 -0.053177473446014784
v -0.18565563446483957 0.24673701598138312 0.2732348994425537
v -0.24179508760352303 0.30708649752996714 0.2777030453659092
v 0.2144245032921112 0.45178524612211274 -0.23021663714181126
v -0.28292375240680706 0.4752929126889545 0.1942547043871678
v -0.2592339650842133 0.6872387989629365 0.0169294958037659
v -0.16066961120936318 0.20694349894241668 0.27590857869075125
v -0.043748861865795685 0.9561523165891981 -0.3575441409902526
v 0.15435890264444888 -0.09037494781840218 0.20534316450699217
v -0.21555522478997344 0.8216215947370944 -0.1194899351382758
v -0.17049022259277435 0.2164568266438983 0.27015135869057605
v 0.18920990980919583 0.2272082871135978 -0.05348411662576087
v 0.1930066098807338 0.6848072124854939 -0.3829749706161847
v -0.29467791486761025 0.40037965964938954 0.2582413759727137
v -0.2662764840376438 0.6088515228830921 0.08236261888967682
v -0.17347579882243536 0.8543924845913189 -0.17352426664061488
v 0.2095913624333736 0.4135734997448466 -0.20089646570872743
v -0.1478028358825714 0.8768401257367547 -0.21228092948302527
v 0.21907720497017658 0.6610854360518972 -0.37697455301325256
v 0.18658518466212135 0.25569630622027617 -0.0744853892895724
v -0.26156171754798996 0.6758874141143871 0.024407118201666505
v 0.19471496622447015 0.27220960324971244 -0.0859402169963642
v 0.1002491121050912 -0.11603562067762423 0.2769791165737464
v 0.04343317822185133 0.8813067036134953 -0.38375474008242133
v 0.04761697372739591 0.8931009553965248 -0.3818792579607217
v -0.032090777681606224 0.04468894085313416 0.27587491325688657
v -0.26729323236837715 0.3414350024332356 0.2716770984365812
v -0.06040998786234281 0.936278044510175 -0.32501381646286814
v -0.05982848525284805 0.943041680318873 -0.33100718817164987
v -0.004560684539560797 0.008796863432526258 0.2691326863871142
v 0.07445243242818332 -0.09022158477731294 0.27290609081924283
v 0.06763089633317171 0.8540986196307077 -0.38473021492581244
v -0.277657656764634 0.5339967765566175 0.1405019044096468
v 0.16428338582462723 0.02591201304933494 0.10954480814826813
v 0.152099740585741 -0.07868327632539358 0.20159632375618583
v -0.14591162695097062 0.8747884105953118 -0.19927226302190662
v 0.060695592746405624 -0.07535730367527076 0.2697424517642906
v 0.17260901045303648 0.08428017162318714 0.06113571586237365
v -0.07374479478503768 0.9326248346867256 -0.3060359826638975
v -0.18848725122226367 0.8392541865823713 -0.15305725182549682
v 0.22064904466026347 0.5481004044311257 -0.30971788920706794
v 0.2129076136986574 0.5150705694263616 -0.2772400274355832
v 0.14944184885655734 0.7385578392950229 -0.37926108466516184
v -0.06723760117547371 0.08680313074650876 0.27886862723098954
v 0.01853546431695835 0.9124485546774668 -0.37355539301142615
v -0.2866118206967129 0.4549471599232655 0.21112994500851748
v 0.043544516478031495 -0.04933508072253076 0.27399504118923
v 0.1605171119364671 -0.013638761697073305 0.13566835261666413
v 0.22661736976542915 0.5519935226142869 -0.3161702982221433
v 0.1939549037500085 0.2999161482287232 -0.10937477902060953
v 0.16483876614454118 0.02361622497726806 0.11468581890896441
v -0.26302918651497614 0.6570902003907892 0.05210291471840781
v -0.0533187150239398 0.07664208767374527 0.2700961957043496
v -0.020024132405888444 0.034446884914530525 0.27711180629647886
v 0.185245873080076 0.2360893973908977 -0.06083624618698253
v -0.2508033355902393 0.7378301712742784 -0.013197446656734132
v -0.27744275454138706 0.5587202017837978 0.12518709419490032
v 0.15809926490797477 -0.026936713379014494 0.147571216334198
v -0.13683904222477342 0.17537104794736416 0.27194936431870204
v 0.17782677828380394 0.10541039722117744 0.045080267065974046
v -0.177057293858405 0.21652951845677684 0.27344218850447205
v -0.22327682773702015 0.28064385401711917 0.274563467177853
v -0.20377725190334964 0.8338127612495423 -0.13410606011341972
v 0.14688712007369412 0.7548257115550334 -0.3766356981811169
v 0.20288768153187273 0.3224988056581491 -0.13298510121505558
v -0.11455440181405287 0.9041669152216399 -0.2543680948705788
v 0.1722088284906808 0.7163110089082599 -0.386022131500115
v -0.2886235511912721 0.4207316516682219 0.2425928463320675
v -0.07738906574726849 0.09737899041054149 0.2713054153945449
v -0.1976523686227127 0.25077934800851603 0.274985688734716
v -0.10870681894704595 0.14818350484618126 0.27562767457452064
v 0.1907180323289722 0.2901773331823673 -0.09761193600903638
v -0.22877008157545467 0.282793733537347 0.2766081309407592
v -0.28486723442291906 0.525701721997654 0.1508877725727113
v 0.03959263753928187 -0.04507692340913082 0.27716563016021944
v -0.12635697127242268 0.8869776367911952 -0.2368716710119861
v 0.02589617182460597 0.906993077717015 -0.37943264457645437
v 0.18355444623259254 0.14184858937334519 0.014199084513092666
v 0.20077271109761496 0.33413536140027356 -0.13667708395426548
v 0.17098907141779293 0.07191672863413792 0.06527885765620337
v 0.19921983780318187 0.335421590502349 -0.14064218335960826
v 0.16371883241739787 0.048309951404483215 0.09093061178949613
v 0.08895894273523186 0.8181590231605852 -0.38002769544790604
v -0.2936897807529752 0.4139604132077358 0.2530291722906264
v 0.2173023183512163 0.43221727821995004 -0.2119174213609924
v 0.15875873426045992 -0.05895954987798369 0.17758646083884325
v 0.19665670815961925 0.35038467801609324 -0.1472456343693781
v 0.04630033039195749 0.8802706085311087 -0.3804363788155088
v 0.22841094337441514 0.5937167006340011 -0.3384631394834705
v 0.21440664321743788 0.4839229786105566 -0.25454440636742354
v -0.2415077902983591 0.31359669181643013 0.27062656821754505
v -0.25264116122899255 0.7237156037397988 -0.004824895292409184
v 0.2058206903323278 0.3846277688197555 -0.18180759296348326
v -0.2829580491034293 0.4904812908415145 0.18501155271407915
v -0.2855978248112089 0.4679155310622956 0.20424096662016114
v 0.22525327977407456 0.6216088881254292 -0.37056196009671816
v -0.28462243349048616 0.3643840954288461 0.2732693009550087
v -0.21894477279361302 0.2735945520787771 0.27117081392791764
v 0.22401206967987858 0.5388858298181625 -0.3117496228058264
v -0.27165892249283424 0.5796546779334475 0.11246769139737457
v 0.2050920068956507 0.41194966350585327 -0.20387482000489812
v 0.16004643826943676 -0.04909076125617481 0.16918186319824002
v -0.07556888230277878 0.929455310299401 -0.30071732461034095
v 0.16569877037202604 0.028446547784356492 0.1069283788884987
v 0.18804797565014897 0.694961936954702 -0.3774389686151591
v -0.25129675583126454 0.7363347707842314 -0.02602078032845005
v 0.17926774293262407 0.16172580207016032 -0.0012967915694231968
v -0.09966791660135087 0.9085824288929523 -0.2720620809908229
v -0.03699023410376395 0.045564926216657524 0.2747042003498528
v 0.22714914929825353 0.5909638110399033 -0.3416131036092934
v -0.2791320393119513 0.5298688100295232 0.14434033945662
v 0.17385879389329265 0.08707597131267912 0.05617046881931997
v -0.2584483532714921 0.6654208951706849 0.041430196969378656
v -0.27169122897464854 0.6027636919731946 0.08862383118927365
v 0.1835245848807369 0.20115566644662317 -0.03311564218021166
v -0.2222554920613617 0.8215229618059416 -0.10779525221704012
v -0.09111833084975085 0.917691994726281 -0.2846176769783937
v 0.7341796510585078 0.04721810168449687 -0.04899874493375176
v 0.5359451179655348 0.286359571478097 -0.04737115052315949
v 0.6125082961025706 0.19638112551803422 -0.052582699712049756
v 0.6697737806359039 0.11530983866171193 -0.04516068206642941
v 0.48188641808313487 0.003910541266192671 0.20520661456500672
v 0.47870312679104593 0.35653416716681613 -0.042249999356280876
v 0.4074669828482506 0.16486044898130525 0.14883728820173503
v 0.4190993921114781 0.2751980228387681 0.0676209357291774
v 0.38963910187448336 0.07343442794429515 0.22974955714449416
v 0.5353911916142049 -0.00539694692585538 0.16125425282592343
v 0.6951483515670115 -0.023557420059631816 0.029830254240671636
v 0.4148533239358784 0.21734346570865645 0.11547645765802249
v 0.4332387168727976 0.3928314463520107 -0.025050172057056043
v 0.42472120837219185 0.3157128051173809 0.03405384841894645
v 0.6998152987216306 0.08734295491736963 -0.04364351251532807
v 0.5098201295433983 0.32338878283602623 -0.0392578076160733
v 0.6257028204794987 -0.015886616202756408 0.09245670037060767
v 0.40116293798771585 0.1230675463616694 0.18489597065474353
v 0.5622928974864853 0.25421905736686023 -0.041427739217617034
v 0.7341330652955677 -0.025543564741032955 0.004490049965685651
v 0.5562486924736426 -0.011091744657474516 0.14066213218162632
v 0.4358961000400224 0.008184646018813682 0.2409191875016279
v 0.7224090794280692 -0.024574346634945957 0.010324527975661697
v 0.4290000262768378 0.3513439777461657 0.0052464161943506
v 0.5890346742536926 0.2311017452590697 -0.04306745934212105
v 0.41792960472965435 0.2550235711391369 0.0848863649007926
v 0.6664914862744292 -0.018359294383557906 0.05993209061048532
v 0.39695758095445804 0.0998882865414022 0.21154859003044088
v 0.3973124848263139 0.07846125472552187 0.22584886309508045
v 0.6237438581035709 0.17130198210067585 -0.044988086876557594
v 0.41194879531215967 0.18752307599679016 0.1369433350723937
v 0.7545896621145423 0.020366563557318133 -0.050323836585364976
v 0.5852996361792253 -0.0058165704440091975 0.12115260856944673
v 0.406050488927385 0.14646519923705525 0.17036199490321163
v 0.4096733333712061 0.008364980637470527 0.2505662233941741
v 0.5145477482739497 0.3054391292081245 -0.044455183221544924
v 0.6070627317521489 0.20265745125855483 -0.04647224942814798
v 0.5264031389252587 0.29502900947053257 -0.04474084584623222
v 0.4818513663725759 0.00556080883987712 0.20025035967155685
v 0.5350839724173474 -0.0022536860281991795 0.16224624903882168
v 0.5481599562563695 0.27244409874951814 -0.04850768075258828
v 0.5169214438418616 -0.0012116822954936096 0.1750364675576759
v 0.4540001530765902 0.012064695406234067 0.22721298423793806
v 0.6514717395060463 0.1395129263235976 -0.04615197463113629
v 0.661190146856047 -0.02072187918030961 0.05725220213843529
v 0.4317880501488697 0.3661514544572757 -0.013836724460414668
v 0.7172187035071016 0.06367181543857778 -0.04058556738537655
v 0.5819584511871914 -0.005419276363097604 0.12401299353474224
v 0.6105356962534796 -0.011010428084705525 0.09225586677926237
v 0.6408217525280366 -0.0093353476208014 0.0741449785089895
v 0.48333492483016 0.34971116669714175 -0.04561350474945681
v 0.4919916042470446 0.3418322219485991 -0.043184172060244004
v 0.4124171972587805 0.2348871006239667 0.09640003444416366
v 0.7157427743210029 -0.02392726979517537 0.01460416766772852
v 0.6049964668261799 -0.012925938191575075 0.10082514316952944
v 0.5713764837009254 -0.009292488439797134 0.1318213086632934
v 0.42088142266883305 0.30494181565908024 0.04421474750459522
v 0.4172508442937445 0.31682604859470914 0.03420649550427489
v 0.408872906140618 0.14635254330940511 0.16025447194262074
v 0.4273013890975382 0.3279331094837477 0.016893619780135503
v 0.416718758177754 0.24080148541259938 0.0908894954838063
v 0.42788987841685056 0.2869431181170481 0.0483573267912951
v 0.6890420418504164 0.10988751152649608 -0.05036021351761506
v 0.6549888787619285 -0.018287465769686276 0.058640320687896236
v 0.580349960931425 0.2376093526635017 -0.04219773521999379
v 0.4025481498871785 0.11246374802655472 0.19647887754159557
v 0.39272137977638216 0.05308783111455118 0.24182923685642957
v 0.6781987699108178 0.10374505728940368 -0.0497068407999411
v 0.4699050258255782 0.3738134521005265 -0.04465607677147325
v 0.4203321560676715 0.260125286411835 0.08199468215718171
v 0.41053746721457296 0.1782331478333245 0.1423632139417897
v 0.6839752097253128 -0.021766659898086883 0.04631724015689385
v 0.7476646907548393 0.031949289439460876 -0.044646210420101765
v 0.4943996475955256 -0.0009479110312219465 0.19341994328116044
v 0.4045468541454102 0.11065402513991304 0.19670146640568048
v 0.4678583078316852 0.00695711809956627 0.21181904119396774
v 0.4937692658673601 0.002271305087012342 0.1886268186865642
v 0.41420999124798324 0.22724215956251348 0.09984940277598969
v 0.4308933748247015 0.3397791310529855 0.015216768870278882
v 0.6108072555960075 0.19242991428222941 -0.04975070098063977
v 0.4224302053475353 0.29338188944411614 0.05571121122255629
v 0.49972906332371797 0.3317071796982287 -0.03874815074306998
v 0.6963795637818831 0.09123169125167419 -0.04179962784981598
v 0.624649811558825 -0.014657928893164501 0.08081496121723418
v 0.5391335280515497 -0.009236780504549635 0.15324862755372334
v 0.672068074227238 -0.01887370788516145 0.05375247783018726
v 0.524754573894209 0.29923343324132096 -0.043427436532373374
v 0.7230346742421041 -0.025952990197199675 0.010305151126453724
v 0.7534127286634509 -0.02627966765424607 -0.00803930488294559
v 0.39884439291022655 0.09666971103904033 0.20512999845516414
v 0.6026917793367531 -0.006643902695434443 0.11008869224058261
v 0.7419897817123337 0.03714931717681998 -0.04723166295566184
v 0.45871995787431186 0.005318615812039382 0.23074839576489925
v 0.5863381712609658 0.22795917067897148 -0.04681758046303133
v 0.40087024102739227 0.15796117944169272 0.15684979873929292
v 0.5864581328075194 -0.008723374892409397 0.12398914846723254
v 0.4093698389035333 0.21183543060601653 0.11725776807863758
v -0.37418107799356976 -0.5035353390216541 -0.06139034949582446
v -0.1298481843254587 -0.5641266570704753 0.12542817243657844
v -0.2521293887308788 -0.6630244552290614 -0.06256194621695552
v -0.1331954020756931 -0.6593752732350788 0.04111132411866903
v -0.18589023755824194 -0.3708356013344254 0.20899807679202004
v -0.35112925873126016 -0.3486275983082534 0.07436216608316575
v -0.44164620315509656 -0.4186499273994225 -0.05823294131724763
v -0.3147637072636781 -0.5887204582437213 -0.05680646168457363
v -0.20186201969748965 -0.7214431173014961 -0.059967753438006546
v -0.11224636385707153 -0.42533386410106716 0.23965705499193338
v -0.12648143629307798 -0.6190275592860642 0.07723716772676432
v -0.4483545379793916 -0.33765761740449846 -0.007802937103292503
v -0.2459165298196952 -0.3643865527389079 0.16786130165001
v -0.27554246194700327 -0.6220772186735164 -0.06320409477884473
v -0.39407934769483194 -0.3465206037248623 0.03737013153237373
v -0.11799151108827471 -0.5089643413308376 0.16344929444462467
v -0.3480637251675857 -0.5372413396291225 -0.06546742088360191
v -0.1458422422376292 -0.7635836635062253 -0.04103801163309368
v -0.3081280918711154 -0.3573428100781041 0.11409562475312517
v -0.11757545451323498 -0.4857415808847003 0.18800970988469606
v -0.14119677068032505 -0.7082634640778146 -0.005192666735922546
v -0.4103818386998965 -0.46036737200345995 -0.05594210680313805
v -0.282454454683303 -0.35784385960650894 0.1334771408538833
v -0.35597819417784915 -0.5279621791433047 -0.05942869079488027
v -0.1168091715866475 -0.45874670473155876 0.21365378065584098
v -0.2506849587936309 -0.6736212068765243 -0.05781823063515374
v -0.27556541377840177 -0.6296896315419274 -0.06036776116360219
v -0.36247084833781873 -0.35283074224947086 0.06371414528604907
v -0.4754335936860158 -0.3747384552025684 -0.0632094945013277
v -0.1340508002171355 -0.64170850082539 0.05677870200957545
v -0.12381192767657696 -0.541722033230417 0.13721291001406632
v -0.12493394154697524 -0.591104835703495 0.10078895281637047
v -0.160789480170431 -0.37209196167356956 0.222711302719945
v -0.42689002279211774 -0.4389457620139351 -0.06218401527380957
v -0.1348236451728749 -0.683942305381126 0.01845032991431346
v -0.2330711262991394 -0.6943426550529734 -0.057935110991921605
v -0.4204133178198641 -0.3393221059828552 0.013773844098249197
v -0.12356235130945527 -0.5160537687360429 0.16509255005198656
v -0.494266169505475 -0.35564491135954246 -0.05814259841459694
v -0.14271920792805437 -0.7109045508270576 0.0073955251198168466
v -0.3234670378680644 -0.5620093601819276 -0.06119737575023363
v -0.3360812363970196 -0.3552766352920776 0.08775995997273765
v -0.37539568712444243 -0.3546646978030405 0.05526823258554894
v -0.445381122632666 -0.412802169330692 -0.06366816754819683
v -0.14208045348764978 -0.6943668246036744 0.015766451025720343
v -0.45707108604317354 -0.34033135123885366 -0.017198397005736898
v -0.2852043170532016 -0.3625925151724248 0.12893655114563923
v -0.21993850643383275 -0.3718493153169134 0.17859062828339867
v -0.3032032353943006 -0.5996900777122642 -0.057071838611601956
v -0.36350811421025314 -0.521393040487409 -0.059225011326328084
v -0.11412309205701021 -0.49499912434896876 0.1787931159133888
v -0.143327615286778 -0.7312311200319209 -0.014717376552441087
v -0.2632624043387351 -0.6378096758991614 -0.06373219514830313
v -0.13719786155438118 -0.3746879099883239 0.24638154129457232
v -0.2643010759394687 -0.36161383156170096 0.1459677209784022
v -0.3226391664077149 -0.35572130863948254 0.09462404386574247
v -0.1223716917320769 -0.5761795871588719 0.11733497842300977
v -0.11448700233118236 -0.4691172284987268 0.19186460720514037
v -0.20710864560270278 -0.3698021884303353 0.19449916263834047
v -0.13512031276371975 -0.6646635687347379 0.038227045796722155
v -0.13393954410630216 -0.6252876511390512 0.07152958030460035
v -0.1663084934220525 -0.36981829226216517 0.22899581463106208
v -0.11775967005799466 -0.4663687508096023 0.20315904672791446
v -0.29022657068212154 -0.6101526498433317 -0.05984485430286483
v -0.33750895743752596 -0.5453400618940885 -0.062172426642227094
v -0.3663164024917887 -0.5199206151312472 -0.06271230949114773
v -0.31585244267411255 -0.3587533525320795 0.1070306818164611
v -0.152547948348999 -0.3713632249847296 0.23612867782702948
v -0.13905720638809632 -0.6912879547262367 0.014920441253343509
v -0.4342597986029855 -0.4335978994755267 -0.057989380936017874
v -0.18007565901673475 -0.3652002824407501 0.21065178406458537
v -0.13045062071666338 -0.6043185088069025 0.08275623460767352
v -0.26762654000792063 -0.36359722467888295 0.14871960792483707
v -0.14711722541549885 -0.3722673696694347 0.2426588766277225
v -0.39125593058929714 -0.34844775783985404 0.04536960995075916
v -0.12213042279105106 -0.5231170191618142 0.15396095669522739
v -0.11061403711536529 -0.43468049285666727 0.22846851577885685
v -0.4123427581815057 -0.34206442334728826 0.01145754123606585
v -0.1768572419527144 -0.37147644998411367 0.2127757817305272
v -0.4274049305635454 -0.33613681801357 0.004995201457011858
v -0.120640497389205 -0.5397910657889178 0.14752771871884934
v -0.20774524761285115 -0.7115259543782351 -0.05955221983875753
v -0.4187329918942488 -0.44563908099057614 -0.0590786105088663
v -0.11542077123921105 -0.49453563215451113 0.18381868110087776
v -0.48734854014798534 -0.33218028183734993 -0.038407918253026495
v -0.23854575656366198 -0.3611568544438692 0.16275891297520326
v -0.40465727412688346 -0.3429087528850369 0.032672100895554626
v -0.4036637795394571 -0.46788127126306 -0.059054548178691046
v -0.2286922910847304 -0.3600232693738399 0.16954378231107545
v -0.11206005024566726 -0.45494748694662807 0.21325790475453116
v -0.11931336429392773 -0.491362291081225 0.18685517888520992
v -0.4535243832600616 -0.4071765784766618 -0.061705720152867724
v -0.4052256718739637 -0.3434832976615023 0.033410376745315835
v -0.4323273136414793 -0.43282205376660526 -0.0627963423997209
v -0.22930779599111767 -0.6923004986391031 -0.059212263927952286
v -0.3940718773367851 -0.3479500085831524 0.043220634476132135
v -0.6168125428517306 0.5147809059181864 -0.07842968978212203
v -0.25880184208014645 0.6921293934900986 0.014508549815886815
v -0.41564821933820506 0.38210470882102304 0.17880640267613307
v -0.3815158295008019 0.6956144576912376 -0.07354850855555216
v -0.7074594696625278 0.44138874693537017 -0.08492113900040174
v -0.289384572381713 0.76552882910352 -0.0730374013790773
v -0.6025592716881953 0.40317917086859845 0.03412736439840207
v -0.517941469960672 0.5872154657176584 -0.07267237110716845
v -0.26700223822302394 0.6392610432935998 0.052685749197813186
v -0.6674800469825026 0.40550001458781504 -0.017642467764204327
v -0.45473756510123076 0.6372345659909572 -0.07831805723894315
v -0.3323924516856024 0.7381761809468378 -0.08206705891839193
v -0.27882958403174013 0.5003937537873295 0.17289161776323866
v -0.5662389549522462 0.5456666844459963 -0.07684852943336885
v -0.2874366187417154 0.431349637996723 0.23193155760638945
v -0.6559087601868987 0.4843707169512055 -0.08296794141033643
v -0.5597466812274908 0.3947009633077496 0.06642851203985631
v -0.4222946863680875 0.6617001908869363 -0.07355412898070035
v -0.4928608235045204 0.38946940227639243 0.1190079869669827
v -0.48866090303095977 0.6096277389957789 -0.07480295793227461
v -0.3507012518587602 0.7179579884912816 -0.07430731700777887
v -0.48008580036335735 0.615142447334709 -0.07659228760389938
v -0.2882126460713291 0.45960437273209226 0.20852572485508422
v -0.387189773790906 0.6895053560977601 -0.07430584307037462
v -0.4396051605612203 0.39102140600073054 0.15449756218199281
v -0.5060080132910538 0.396368575848048 0.10713217718188874
v -0.4186076169095208 0.6684590765847274 -0.07436650824428927
v -0.2642076127094985 0.608524097742802 0.08830682957657068
v -0.2713323496571924 0.5662955923237426 0.1217999799688481
v -0.3706207024177877 0.3901931532106483 0.21267150246796213
v -0.2889129372860537 0.3966468477234932 0.2525919198417001
v -0.5437150734691129 0.5766977637875356 -0.07891821348629911
v -0.2671962222502403 0.720570926569325 -0.006624811179592719
v -0.2742801515771855 0.5354698474903252 0.14878944784482612
v -0.35699208119753173 0.711744008672921 -0.07173872739531248
v -0.6808398781081251 0.4670219617046632 -0.08166728800530101
v -0.31337064626213007 0.750524419380853 -0.07031360964008207
v -0.4072638732456517 0.38505210872136253 0.18824309111526857
v -0.6494293164692224 0.4100626933128029 -0.00911737624502645
v -0.34004574685034367 0.3813206399792351 0.24470714254186177
v -0.6221982549022251 0.4059059783671726 0.013001584228445221
v -0.2832965398234052 0.48559184860413174 0.1819277354753161
v -0.5925458792433298 0.5330618007021218 -0.0813146012302194
v -0.6914505487452295 0.4119827332828668 -0.04197655990731494
v -0.5745674672595108 0.4000203165718351 0.05130756568658213
v -0.25198315443123226 0.7412161726113105 -0.02597288272211935
v -0.47659467745552847 0.39701270391350696 0.12753061443848154
v -0.2783151196404627 0.48490992302814556 0.1873714837391324
v -0.2700213188593006 0.6259980311966387 0.06608853961088476
v -0.5551187152996168 0.5600161866848876 -0.08061179554373657
v -0.45848218779789923 0.6342120181314553 -0.07488934297035522
v -0.6335790612196348 0.4996680663207588 -0.07989327739569611
v -0.5223342968640389 0.39770102522371864 0.09175724301498012
v -0.26246376550927725 0.6688011498929012 0.03611984915553115
v -0.5435380610829286 0.4033260971809966 0.07877177411652857
v -0.26661682316771007 0.6451865862424392 0.057430435607636256
v -0.2532374683197683 0.7308740074800105 -0.013170970176742826
v -0.3306859641295965 0.7330002971698046 -0.07474453766635598
v -0.4967969333210425 0.6029435818623623 -0.07760802201130808
v -0.2752120638660969 0.5691538906741842 0.1238662643317078
v -0.27726572016146694 0.5587928123180227 0.12896601489262588
v -0.4779565248444833 0.3957007593795906 0.12695479337329463
v -0.24852889563624206 0.7760589940886142 -0.050147194303783234
v -0.30172238774267796 0.7550293366635983 -0.07399089831926046
v -0.5969994043505047 0.5307502045156232 -0.0779105623278127
v -0.25964998417692453 0.6663019843345984 0.035647897953685344
v -0.3589597698260184 0.3806396893686174 0.22289196863994026
v -0.36429252854654115 0.7100966295949116 -0.07773775374335537
v -0.6332793217630638 0.5043390237596995 -0.08044451270726202
v -0.43028458806854086 0.38996966360430846 0.16220626444863995
v -0.2782683838779584 0.5750675953193448 0.10708205520586382
v -0.6999760158634165 0.4499047543195675 -0.07774805180805577
v -0.5012428820397481 0.6012067743009762 -0.08268009322641387
v -0.35769713776173195 0.38293808790383715 0.2282421609016877
v -0.3362698031351527 0.38283999640474886 0.23414108182066495
v -0.2921522886633106 0.4495490535760855 0.2110209750478093
v -0.523938426251966 0.39406175681677064 0.08770241123796878
v -0.27081162070913123 0.5508083950701514 0.13048519256701566
v -0.2834110797882321 0.5153186261628134 0.16315862339824622
v -0.5454336047620504 0.3974478944016531 0.07604853285903396
v -0.5245160551602025 0.5831591260900886 -0.07661995766389988
v -0.2634209181947685 0.6783986872527619 0.027838151919458532
v -0.45344394175374747 0.3907477011392961 0.14960889975910616
v -0.5536667304699162 0.5669448778282882 -0.07762364721572812
v -0.42826914591182785 0.6610997140062024 -0.07715788210311578
v -0.45338590976694143 0.3893980809250091 0.15131521943611273
v -0.6665721501229921 0.4797214393489965 -0.08102942205410031
v -0.2830292184966849 0.49199503703623376 0.1812726676809717
v -0.5709018143341634 0.40571962485722246 0.05742559025901324
v -0.5614218887624361 0.5573394233582362 -0.07566740973931449
v -0.270219271300524 0.5913860826169798 0.09390345358244537
v -0.26064065416525245 0.67723348234272 0.028713472205329483
v -0.6207504606473436 0.40787739922823907 0.017142075202501526
v -0.41176842954541676 0.6719997670436806 -0.0744549078117043
v -0.2887274462627828 0.4680723890380678 0.20354946518340364
v -0.29886437176543224 0.7620785080010951 -0.0743869371775304
v -0.6100977522678065 0.521116405407615 -0.08430955041896075
v -0.5891529470553116 0.5404670815082552 -0.07992403202200661
v -0.4465603888815637 0.6466909980465139 -0.07354070546446333
v -0.6599665578593664 0.4838633636535491 -0.08049459648467475
v -0.2714345241386737 0.6137425794521062 0.08064652971688781
v -0.3474480479146401 0.719764604852572 -0.07554000630790257
v -0.6605019896223606 0.41398934331391424 -0.018592967636665386
v -0.701720909631769 0.45161173323252646 -0.08459013281915526
v -0.6303141155021059 0.40729719971111406 0.006469489488457885
v -0.4927093226022667 0.3960146756950599 0.11887628134436418
v -0.5119573488560898 0.5934596358930708 -0.0764959473625677
v -0.2910712679539874 0.45047052949971256 0.2142125124411527
v -0.49553465300746424 0.6078069358281242 -0.08099474763049126
v -0.28747336839228377 0.47730234702534347 0.19084247604547055
v -0.25970673736580707 0.7181531776616872 -0.005208407061436634
v -0.28508411183021454 0.7764438659069306 -0.06768851848623679
