v 0.39028510451316833 0.013772201724350452 0.2738499939441681
v 0.7957714200019836 -0.03229337930679321 -0.04810493066906929
v 0.43503260612487793 0.41282376646995544 -0.04328479617834091
v 0.23155200481414795 0.6375615000724792 -0.38106703758239746
v -0.022276723757386208 0.969662606716156 -0.37788742780685425
v -0.24707777798175812 0.7994362115859985 -0.0716286450624466
v -0.29583707451820374 0.3786908686161041 0.2737487852573395
v 0.1457921713590622 -0.17945748567581177 0.27427539229393005
v 0.5281513929367065 -0.12541556358337402 0.05747171863913536
v -0.03857996314764023 -0.5744390487670898 0.05747171863913536
v 0.7296823859214783 -0.40029817819595337 -0.017938630655407906
v 0.16285677254199982 -0.8492044806480408 -0.017908258363604546
v -0.6789922118186951 -0.05883495882153511 -0.38469231128692627
v -0.5112301111221313 -0.3315542936325073 -0.06035800278186798
v -0.10571826249361038 -0.3787294626235962 0.27427539229393005
v -0.1496158093214035 -0.7884041666984558 -0.06266693770885468
v -0.7440434694290161 0.41503429412841797 -0.08504588901996613
v -0.9508565068244934 0.2716582119464874 -0.3838518261909485
v 0.7685675621032715 -0.4288545548915863 -0.37274327874183655
v 0.9824526906013489 -0.25946518778800964 -0.3728141486644745
v 0.20174196362495422 -0.877760648727417 -0.37258124351501465
v 0.01964612491428852 -1.021973967552185 -0.3725205063819885
f 1 2 3
f 4 5 6
f 7 4 6
f 4 7 8
f 9 10 11
f 10 12 11
f 8 13 14
f 15 8 14
f 15 14 16
f 3 4 8
f 1 3 8
f 7 13 8
f 13 17 18
f 17 13 7
f 15 10 8
f 2 19 20
f 10 9 8
f 2 9 19
f 9 1 8
f 9 2 1
f 16 10 15
f 21 16 22
f 16 21 10
f 7 6 17
