v -0.8453628420829773 0.7258029580116272 -0.09570968151092529
v -0.7305694222450256 -0.22450144588947296 -0.040797047317028046
v -0.6353101134300232 0.4956742823123932 -0.04079703614115715
v -1.0037873983383179 -0.4492274522781372 -0.10450778901576996
v 0.8507340550422668 -0.6972894668579102 -0.1009807363152504
v 0.6418046951293945 -0.40330970287323 -0.039043258875608444
v 1.0058459043502808 0.4792999029159546 -0.10095151513814926
v 0.7332057356834412 0.2982019782066345 -0.041966211050748825
v -0.12059515714645386 0.4076181650161743 0.07051900774240494
v -0.003690202720463276 0.07912813127040863 0.10614026337862015
v 0.06382396072149277 0.41269195079803467 0.11270617693662643
v -0.09225215762853622 0.6251527667045593 0.0734419897198677
v -0.09225215762853622 0.6251527667045593 -0.09709321707487106
v -0.11650301516056061 0.42807888984680176 -0.04740291088819504
v -0.6394022703170776 0.47521352767944336 0.06277309358119965
v -0.7305694222450256 -0.22450144588947296 0.06277309358119965
v -0.40886759757995605 0.06833028048276901 0.11061061918735504
v 0.24487049877643585 0.580589234828949 0.07663777470588684
v 0.34471675753593445 -0.009773055091500282 0.11076431721448898
v 0.6418046951293945 -0.40330970287323 0.06695302575826645
v 0.7332057356834412 0.2982019782066345 0.06987600773572922
v 0.2167983502149582 0.3651319444179535 0.07371479272842407
v 0.25656235218048096 0.5794200897216797 -0.09367335587739944
v 0.2284902036190033 0.3639627695083618 -0.046906016767024994
f 1 2 3
f 2 1 4
f 2 4 5
f 6 2 5
f 6 5 7
f 8 6 7
f 9 10 11
f 12 9 11
f 1 3 13
f 3 14 13
f 15 16 17
f 12 11 18
f 19 20 21
f 11 22 18
f 22 11 10
f 19 16 20
f 19 17 16
f 23 8 7
f 8 23 24
f 22 19 21
f 22 10 19
f 9 22 15
f 10 17 19
f 17 9 15
f 9 17 10
f 20 10 16
f 10 15 16
f 22 20 21
f 22 10 20
f 9 15 10
f 9 22 15
