v 0.9599513415971233 -0.09259438696792735 -0.1187368065785751
v 0.7934986042341877 -0.23607969269868906 -0.013356216542403255
v 0.9354235465384199 0.12574997760847162 -0.11999668067606115
v 0.9865540609455492 -0.3191938879023444 -0.11998070453306509
v 0.9010993196502166 0.3866414136380061 -0.12457549491121081
v 0.9265838374653408 0.24695111427903857 -0.12365453343125352
v 0.6046059856646704 0.2221262091672773 0.06843625332362839
v 0.8064463078410626 0.5016091469947576 -0.07237373214590119
v 0.6672325237167435 0.3084759495417567 0.02852736974599809
v 0.556009759199533 0.15262260481948964 0.11010420732340755
v 0.775060157098391 0.45077260499903615 -0.0423167016482008
v 0.9767815062940437 -0.2393316808623467 -0.12137280550688277
v 0.8966283759681364 0.4698684610774543 -0.12491972654589861
v 0.9404956642569989 0.03779269804310767 -0.12405848040772467
v 0.9725604614849985 -0.3996971894975636 -0.11110374356058224
v 0.844085611209291 -0.27496956766006736 -0.034027721026372096
v 0.9303713540956448 0.18695517273639528 -0.1203154593738191
v 0.8910743494947783 0.5338615846876821 -0.11996691461637127
v 0.9635846041253668 -0.16957576224556833 -0.12348403645418167
v 0.9544708342423 -0.0188188015898245 -0.12009074487517209
v 0.7026316241468744 0.3510717656641224 0.005004993867934015
v 0.5058795331611313 0.017968556781924185 0.14699151813897549
v 0.9139804061771233 0.3028098785813864 -0.11643787479255868
v 0.5299869696594621 0.10253961104853117 0.13671471007100233
v 0.6399044991617127 0.26459741112258567 0.05035050856899667
v 0.9377918570432248 0.07539355030373848 -0.12130546018817362
v 0.5946667038245802 -0.05989032630784427 0.09302545533314066
v 0.5848709955598688 0.17742602905539648 0.09437617714687617
v 0.6190074633014586 -0.07928224553205095 0.0888663256892655
v 0.8659693350824428 -0.30074985466177656 -0.053443787662992966
v 0.539959861733742 -0.012396786633749482 0.13345405992111192
v 0.7236158064410858 -0.1686266908165164 0.03475749028527787
v 0.9000657033349363 -0.3302820733992268 -0.07051422011836103
v 0.7650625016878666 -0.2101707781294491 0.004839970892776917
v 0.8227713981219356 0.5160293946579705 -0.07761943811801614
v 0.7287403842974086 0.3793862039864103 -0.013890375131776513
v 0.9053783511094401 0.3572512072555866 -0.12154507322861453
v 0.9221711255969415 0.22625712647929816 -0.12170277157689914
v 0.9841212343822597 -0.28163198443786075 -0.121463650744875
v 0.9433841793476034 0.031750051527775165 -0.11931524546834128
v 0.8066591532385337 -0.2500185919356213 -0.016730381683205394
v 0.5145906044319232 0.07595814207871661 0.14364489495987423
v 0.7891841162889854 0.47714627515028496 -0.05650552801863166
v 0.9713411214703204 -0.22354348543986913 -0.12194456383817329
v 0.9390534974986608 -0.3638812715109424 -0.0872433180698841
v 0.5621429932532777 -0.03245498371130243 0.11986994280309758
v 0.6182384821572469 0.23022451741514957 0.0686212392019662
v 0.6887939478941771 0.33119654926421854 0.017630823071790123
v 0.9577355810198971 -0.12663849051142972 -0.12307462347869352
v 0.8907796125738772 0.5003674882355764 -0.12174944479857842
v 0.7572511293461405 0.43275796632600744 -0.03315342060144176
v 0.9570370647529352 -0.06082419168092619 -0.11857959588168934
v 0.9903588740289079 -0.3651052279305664 -0.12215577423824706
v 0.9117407013243509 -0.3453159732496077 -0.07500801010560448
v 0.5881645068282486 0.19352879203616008 0.08890009599208298
v 0.9470790393875825 -0.002701578127428033 -0.11696516511464183
v 0.9371553848040924 0.10647712081689244 -0.12198219962424738
v 0.6702807548158078 -0.12635787406311846 0.059857098856696475
v 0.8984705685888368 0.4273304109507477 -0.12193359235583003
v 0.9359884565722422 0.1456676808497179 -0.12093319342618432
v 0.7378242660686684 -0.19456096220949026 0.01734468824205464
v 0.8592444528922104 0.5663749481880997 -0.10108713639198166
v 0.9794195950484077 -0.2646126229848074 -0.11862986830382578
v 0.9592864972513263 -0.0980149935969135 -0.11742505124275839
v 0.7059203108512492 0.3559279889762264 0.008669741234431375
v 0.9685372801269606 -0.19852678935559576 -0.12069962483559739
v 0.6542648726708146 0.29238439743783184 0.03998409359857779
v 0.6041465116370193 0.20438939925924263 0.08168565093176494
v 0.5786560889818274 -0.0424098152378494 0.10980545170743068
v 0.920015999768926 0.26391969571865936 -0.11529374825649177
v 0.9503407773307393 0.010872123276017151 -0.12053310353178534
v 0.9119177399954485 0.33217909800271067 -0.11511275640501532
v 0.923804426888419 0.19532314844610574 -0.11792736678488186
v 0.9166049738381822 0.30109281175571373 -0.12406683465577933
v 0.8396362879658303 -0.27803140972622203 -0.03505544415096129
v 0.6431169802912455 0.26543396341146935 0.04829675879890079
v 0.5817426030370222 -0.04955626822416222 0.1064298167197771
v 0.7078044992867412 -0.16147618998941637 0.03553442196293696
v 0.6319521487439055 -0.09503563580433602 0.07900186826770368
v 0.7702053502610695 -0.2154074976547674 0.0016073996677211794
v 0.6798027533424954 -0.137686486071216 0.04658754886346353
v 0.689790523496589 0.32774790895743255 0.023218752720388428
v 0.6109015696341207 -0.07578428578991869 0.0909607934385756
v 0.6716327740802351 0.30800023219688355 0.031223542616301222
v 0.5202001632281434 0.008259602548422179 0.14136037375495464
v 0.7402033137343371 0.3986813683027716 -0.02012641074635949
v 0.5435788425031893 0.1267794373363213 0.1207599979284585
v 0.9684681465624898 -0.1750212965998148 -0.11535227800468821
v 0.8999354370819043 0.435917714249198 -0.12092460584372462
v 0.9450588447102317 0.060851198573151466 -0.119959220508375
v 0.8266343944083274 -0.2622411686466937 -0.02512239322070496
v 0.6253838042307999 0.24442944101574057 0.05841985452391076
v 0.9598927098536517 -0.06746799949833918 -0.12186337039422471
v 0.49821073350824596 0.06422304074140381 0.15202157423114165
v 0.7150802759323714 0.37355380157010654 -0.010537665900232224
v 0.5341264065922576 0.12340889194489361 0.1223703816548596
v 0.8806168282908018 -0.31751259847563124 -0.05282006890713665
v 0.967702046835395 -0.19647688513950545 -0.12069486889165995
v 0.9813894253099232 -0.30410234457353225 -0.12305580058573647
v 0.664685505034925 -0.12802699566181583 0.06436594752036943
v 0.966481243718974 -0.1492152595525682 -0.11507493352365297
v 0.8558873402487793 -0.29118400361825786 -0.044112304337252974
v 0.5194981833263285 0.09248006291393812 0.13071513139428506
v 0.9272991665991402 -0.3515199824236721 -0.08219699583174901
v 0.9541567891136402 -0.045676982489952805 -0.12005184589803682
v 0.6444195617526942 -0.10170070959282951 0.07305535473962796
v 0.9485712635630668 -0.03757467641324178 -0.12199540511656744
v 0.7381399375468402 -0.1854033998408056 0.02134171015461383
v 0.6039436462907953 -0.06635845934365318 0.09504386345962779
v 0.9382837601354442 -0.36144822046185576 -0.0895502928260655
v 0.6028866513795156 -0.07476650777251662 0.09609998172476643
v 0.7747639295732461 -0.21956019243196523 0.003755543153053917
v 0.7551991080962985 -0.20331924859027195 0.00592470365383731
v 0.5583406158562694 0.1439197269892981 0.10559243994354797
v 0.7030329879714209 -0.16287038402446605 0.03801127507645241
v 0.9264750951085378 0.1304069598774632 -0.11751288964454863
v 0.6034993923185817 0.20841401325744843 0.07828023912261821
v 0.9296892723952999 0.1760870130215799 -0.121141594811312
v 0.9695780590278542 -0.21895565622284158 -0.11831858968337912
v 0.7230622229173331 -0.17342888438919418 0.029079005374417283
v 0.8979513178642454 -0.3313438976041809 -0.06753585561708038
v 0.9046888181049866 0.41244128389567003 -0.1251956865579107
v 0.8813446338570721 -0.31448639703116404 -0.05944480304569589
v 0.9761443197331279 -0.2575371227587281 -0.11613575634756171
v 0.6557312573810808 0.2847763720608758 0.03500649125541432
v 0.652984992876222 -0.11511157410100023 0.0689391303514151
v 0.5719463818269748 0.16447528460478142 0.09246256760075618
v 0.961494278867833 -0.08107809132342428 -0.11457983238804116
v 0.9832686200007925 -0.34397065405615485 -0.12118433083654198
v 0.579139043465222 0.17806822997833255 0.09312301630579198
v 0.9782996830466612 -0.28745768000125044 -0.11901170419473936
v 0.8028784632485926 0.49300687360255996 -0.06271405854524179
v 0.961993870087789 -0.11977615396117855 -0.11829292911612539
v 0.7441183163758006 0.40578890943951784 -0.0214680822553011
v 0.7381809281460611 -0.18544807692060972 0.022774807984887967
v 0.9128983885010817 -0.3420241814799861 -0.07031525386408664
v 0.5677988125541139 0.1709925097438409 0.09852715674795383
v 0.9250507695870174 0.20517834551394107 -0.12370726503698273
v 0.9286761172548265 0.2150368926447095 -0.12445518915330028
v 0.6950262433406073 0.34059399863487366 0.011671104482207581
v 0.5315351785827239 -0.008705895226837734 0.1358287401599051
v 0.9086870045585247 0.3724007532168052 -0.12171783079154945
v 0.9420003609068469 0.07491362413995536 -0.12329762167564279
v 0.9390436048305177 0.10729382045798631 -0.12658222578738668
v 0.5868307850851261 0.19090677720836982 0.08586156322236496
v 0.6311466103938863 0.256251628343844 0.05662202594456829
v 0.9634034777740005 -0.1374138965007926 -0.12285851612186316
v 0.9472775770028716 0.02128315217597618 -0.1213681326764379
v 0.8893954387979739 -0.32034436492494495 -0.061107299903816116
v 0.859682398556578 -0.2865048058755653 -0.03987739925419381
v 0.5330198119235301 -0.011097017503447333 0.13884560284467576
v 0.7498657964304206 0.4217755903028303 -0.034964335188283145
v 0.5489809054326084 0.13857068475121034 0.1136270209498002
v 0.7628584170690653 -0.2093964880141071 0.009913024932118696
v 0.6765682962392381 0.317795602206183 0.02375539371061043
v 0.8881579116607963 0.5162002126786102 -0.1243693641509583
v 0.5594068924172675 0.15411590335033273 0.10923673696944781
v 0.6932413912657789 -0.14306277421555427 0.05290036422046515
v 0.6123866731618295 0.22643769678255576 0.07549733295267844
v 0.5383007144423423 0.12726408492217953 0.1259216035366509
v 0.8777255603046389 -0.3054167067812247 -0.05210833801120721
v 0.7115462791074332 -0.16011273236989115 0.03669374597181532
v 0.6758687151513888 0.3086726662752768 0.02452370535007619
v 0.5981899587921017 0.20242300073538677 0.07932371876528994
v 0.9570243585147257 -0.3835135389266832 -0.09834277576247256
v 0.9252552530229868 0.26597230312415904 -0.1214294617730683
v 0.5878791133170207 -0.0551498010891498 0.10759924428528317
v 0.5671326768366783 -0.0351793909622269 0.11460472662691107
v 0.7920404341311701 -0.23587732519837684 -0.011348071992525901
v 0.9489240671965357 -0.013411970661737244 -0.11132901359376668
v -0.9692330151654085 0.027663037197537266 -0.11918258346465913
v -0.538542072229789 -0.16221192722567207 0.11141198306352104
v -0.9013878370595655 -0.5232233308503169 -0.12250988576333145
v -0.9440118797924133 -0.18172601331071045 -0.12770710475959812
v -0.9820081032723565 0.2136192380558034 -0.12324707103456835
v -0.5580158437976039 0.028639288524525724 0.10977976401619521
v -0.6857716267477536 0.1362961425290217 0.04371553477428295
v -0.455898234687022 -0.06986532291402088 0.16502965813982443
v -0.9145294810199243 -0.3739283914408358 -0.12254506300875273
v -0.6863493561790351 -0.35352865253263926 0.014188680242698287
v -0.9386733969387853 0.3445501160135193 -0.08760360727903811
v -0.9714450497157291 0.10781291903258536 -0.12029007160640427
v -0.7387276969792796 0.17927843960456005 0.009212657483659145
v -0.9101251488699967 -0.454057533153471 -0.11769568047210033
v -0.8877526956891191 0.3115353559193964 -0.06890513119024871
v -0.8141290216511439 0.23892938756378596 -0.02265556661522022
v -0.9217917354834447 -0.3110159167586851 -0.1292322423579587
v -0.49702178478062786 -0.12331992334350315 0.13623810588441587
v -0.6447668583689691 0.10197821645162679 0.07017631243089428
v -0.626871051643702 -0.2739842510283023 0.05713725883239122
v -0.790355224751719 -0.47546945394323786 -0.053915223369866594
v -0.5215192906535515 0.00504033184687025 0.13278723759739774
v -0.9515660885994084 -0.04207326617869485 -0.12320028154262061
v -0.5770321447571555 -0.21719247836828376 0.09080888270784862
v -0.8312003234983104 -0.5343873535428519 -0.07659580392351657
v -0.9968362836409921 0.3449913487180826 -0.12568471470451764
v -0.9498087665415729 -0.11290206321323161 -0.1248443620579219
v -0.5901519837963175 0.06255840576318417 0.09108114780386367
v -0.9313627169252064 -0.2577400448394486 -0.12509569572775173
v -0.7266100677395829 -0.4014853285057883 -0.016280068469642972
v -0.969383344425604 0.07732119836943052 -0.12199190372470999
v -0.9888258553474562 0.2798378291584165 -0.12947995742369134
v -0.9146542181032068 -0.41166959220463545 -0.12406958318575456
v -0.8472619882640976 0.27452653550169115 -0.04361013216401007
v -0.5925551783008414 0.05263250803340975 0.09714655169865283
v -0.973280114817592 0.12894763200412013 -0.12536987995546697
v -0.9788977115674495 0.15980112979302785 -0.12638772397359638
v -0.5129009057601077 -0.14346015103643697 0.12223209265632515
v -0.8519239709330829 -0.5547448651127366 -0.09527351622743363
v -0.5332607198332685 0.008387830408574503 0.13070406782059998
v -0.4825105633073245 -0.02507260177376578 0.1468032909018851
v -0.986485415494817 0.24625388835080125 -0.12699481455322176
v -0.650316745399245 -0.3128153092544782 0.03830425192844668
v -0.9527921552197034 -0.031915769869835214 -0.12367027762187442
v -0.9203035992678487 -0.3662691492802422 -0.11726783870358001
v -0.7562217928160815 0.19156834323611074 0.005768673361214529
v -0.48047042357667463 -0.09898089566412309 0.1467021396970578
v -0.7540403664616138 -0.4410161681338713 -0.031128058312554878
v -0.8968345776697577 -0.4876457350499755 -0.12333939755843643
v -0.935094516096639 -0.2185943988545124 -0.12247037247766285
v -0.9591684342615727 -0.010988263338208957 -0.12136003802556752
v -0.7923132420564497 0.2202819729437211 -0.009682300588509378
v -0.6115750324897805 0.07556289344424905 0.08582828848883356
v -0.8133725406378715 -0.5019772503819151 -0.06435312029580093
v -0.9250626137566851 -0.3019580578995849 -0.12125576606487971
v -0.8725675979439015 0.2900425672567343 -0.055080723780235666
v -0.707790629133025 0.15684319936073957 0.02973805633931348
v -0.6029483158324122 -0.2505472302384502 0.07186010738157395
v -0.8942461588088151 -0.5697249216227899 -0.1241156204599174
v -0.9838491026734202 0.24706430826545314 -0.1253918191922222
v -0.5510488805101122 -0.18680615463847003 0.10259131815825802
v -0.949886798715858 -0.07945178644487937 -0.1258522002794458
v -0.9695483497066512 0.06349353526370043 -0.13021072744105514
v -0.9142568269726092 0.3279698623725412 -0.08453214998116294
v -0.6684875750063409 0.12170104636651846 0.0502257851706772
v -0.9932688214358156 0.30811874752607005 -0.13097228193295168
v -0.9301743373147893 -0.22956692594459063 -0.1257445669495439
v -0.9488679975930583 -0.15126282149074124 -0.12039659154915762
v -0.8674963974383351 0.28807174848672074 -0.057057730206868926
v -0.5612530576316749 0.03045835255328291 0.10970495161443929
v -0.8108740309494266 0.23823195842070408 -0.02400264735624267
v -0.7705278139136668 -0.45249277172940106 -0.04020763899326164
v -0.9460433701054286 0.3511362557111534 -0.0889711101022369
v -0.9048049572017296 -0.4693627052325992 -0.12493926111081458
v -0.6452151249456558 0.09706591018130475 0.06986886234409811
v -0.7073754641457088 -0.3726999010880468 -0.001458454736255822
v -0.6664782969726053 -0.32708866132915987 0.030104369695745047
v -0.5160690441046999 -0.00014997231643042435 0.13229824239113558
v -0.6223275812257568 -0.27211038815459965 0.05827932514388484
v -0.990318485941788 0.2829904274822704 -0.13009767123036595
v -0.5927121424182369 -0.2375468277151405 0.07788192956050786
v -0.9128540704038521 -0.42768724221267806 -0.1177716546476133
v -0.9805381153811928 0.38528336609423897 -0.11386040541658297
v -0.9262913426113846 -0.33874432165795204 -0.12140098913612782
v -0.9530024150613147 -0.10635224222455764 -0.12207809192664908
v -0.5786288498063339 0.05024336453194857 0.09733614345092469
v -0.9178832395815694 -0.3489844310157326 -0.1216340109422102
v -0.8334866194983724 0.26419317882300997 -0.03353291771088241
v -0.9219625994410721 0.3299439301454035 -0.08318204475632887
v -0.9343479989516871 -0.2647537763229219 -0.12796563103507919
v -0.5759737052736048 -0.21177549921168456 0.08734682468318879
v -0.9023025157915174 -0.5106032679678225 -0.11958082059225905
v -0.4810811589701766 -0.09639120623140288 0.1553725200603583
v -0.5020488916263166 -0.017828819390859348 0.13806141812549408
v -0.792218508072879 -0.48416295058831343 -0.05360150383120751
v -0.820973500329502 -0.5151552609336992 -0.06841883862016397
v -0.6551798918954324 0.11385196584731369 0.0568996722386942
v -0.9404748115184193 -0.18367623042216866 -0.1275099762316694
v -0.6349309185636619 -0.29489934765122516 0.05012509374614065
v -0.9688653359457787 0.09160241168149422 -0.13015498649537133
v -0.8293544170493707 0.2517856772582202 -0.03362056615192402
v -0.5563436694478988 -0.19756722498132714 0.09553656471171834
v -0.9840799943934082 0.19179703372016468 -0.12572101483103784
v -0.5331505167900102 -0.15622218346352618 0.12083387116346722
v -0.9710818251305458 0.13815433536302343 -0.12530073661390279
v -0.9749531049393033 0.18379854332589657 -0.1262694344681145
v -0.956302317979767 0.3638009532810222 -0.10994186244458665
v -0.8437094166444881 -0.5402300313691536 -0.08798694339730484
v -0.6907765760244159 -0.35449938738954356 0.017448634411674293
v -0.9253779578233571 -0.2867449973337161 -0.12270808956507875
v -0.5081597284084807 -0.12641842145039484 0.1312969104421878
v -0.7366267559705411 0.18079852336373273 0.01320609378669128
v -0.6126436074472013 -0.2521182534080101 0.06666784748351892
v -0.9212401924086832 -0.3361903353519449 -0.11842023297417874
v -0.6170051774920693 -0.2613492384521458 0.06357247850891234
v -0.7655547327127409 -0.4459696315282537 -0.038319487190680665
v -0.9035112530952908 0.3200268479601738 -0.07757283638296388
v -0.5525421948641164 -0.18278092917123606 0.09839233073600509
v -0.9406171923560828 -0.20858967747172547 -0.11884128944930163
v -0.9159258128811932 -0.38276170849397145 -0.12034040519520137
v -0.9653479478502761 0.03130756660008324 -0.1268151170963758
v -0.8985213365365452 -0.5454555426437755 -0.12081905423844629
v -0.9439000537495802 -0.13722526886946532 -0.11908101640068126
v -0.6658333524256729 0.11848631050711447 0.04722966135802667
v -0.7769628013796077 -0.4663775394685889 -0.046950855704300506
v -0.8036647589871672 -0.4881154803985343 -0.06134145965484175
v -0.9136394813136992 -0.4445794185958098 -0.1183475550518429
v -0.9028879517706228 -0.48009494219294396 -0.12118244765199801
v -0.5862237730131672 -0.2263448539839403 0.08644275987977701
v -0.9464309513131614 -0.09302449133259862 -0.12103118781059491
v -0.676331820630638 -0.34102693591382444 0.024613614305576098
v -0.7424714405433921 -0.41617052454740455 -0.018355618190257394
v -0.54301493410597 0.015453365824076932 0.12150949227023917
v -0.9403379751671511 -0.1333059403916235 -0.1195446575253187
v -0.6051821745819841 0.07425626082760861 0.08697180154834641
v -0.9163756136541845 -0.39650820812493337 -0.1186549739749809
v -0.8012567373295991 0.22676723540943333 -0.019076132571860034
v -0.9788374445343689 0.15313697225717926 -0.1306414472859814
v -0.6710077841875633 -0.33534377007286464 0.024043784909472305
v -0.7217787585712181 -0.388513021355664 -0.0034918777433457526
v -0.7712426571153391 0.21364656414150018 -0.004068272651159302
v -0.9498122757782704 -0.06412195542412302 -0.11694556619548065
v -0.9660996255143266 0.041747118925883786 -0.12791474217323995
v -0.6905656451168073 0.14388827755403458 0.03984166241432759
v -0.9595647589031711 -0.043242954514295426 -0.12460224526146729
v -1.00182285273038 0.3264409614695549 -0.1251066876636874
v -0.9576910835837816 0.011093383889809207 -0.12408620937752493
v -0.7222835968420296 -0.4031722196486371 -0.009704257230962864
v -0.46790420084204526 -0.07967875773038066 0.15627176778229562
v -0.6512429072534296 -0.3075800498793337 0.04217816518342573
v -0.5273595427133169 0.0007727083764389737 0.1255380472721597
v -0.605788235175345 0.06926685852251599 0.08573596475807105
v -0.9587235885135551 -0.015612246001870094 -0.12291269965268746
v -0.6679369078958359 0.12179525535331605 0.048836965165144144
v -0.9649999540048114 0.08909171729807609 -0.12237499364189101
v -0.5172447085902006 -0.14309918126873977 0.12622136182639077
v -0.7030740709556262 0.15631124674980051 0.029410316845908453
v -0.869634908498571 0.2876220384893701 -0.05487248572301979
v -0.5462938852788396 -0.1690839867727433 0.10972768900997804
v -1.0000385884105685 0.363820351203511 -0.13118643080770764
v -0.8871876176994363 0.307986173387595 -0.0650884264716005
v -0.933788756846222 -0.23905022022936911 -0.1280432918663879
v -0.9454093150009263 -0.12727038101317684 -0.11896725811330239
v -0.6629766501685318 -0.31928358142745233 0.036849473895821994
v -0.6975977948965933 -0.36105641368256663 0.010040543873617953
v -0.4803071769913292 -0.03651600434814759 0.15159968834452528
v -0.6144351087720046 -0.26911780772559807 0.060333752054760215
v -0.9153753268002586 -0.42766415277262826 -0.12378809552785068
v -0.9892996921943586 0.27762488952974096 -0.12693228587476335
v -0.9370766457727012 -0.15171175034495882 -0.12454455727016492
v -0.9735034860009706 0.13460606872596695 -0.12634637325080317
v -0.9831178671993757 0.22689831181747266 -0.12357416456722653
v -0.49378755064619795 -0.11224721250883588 0.14243982354704376
v -0.5047117681878462 -0.014978031063648202 0.1409044077705857
v -0.8786260221166328 -0.5847198221274605 -0.10595308147025059
v -0.9471196194214364 -0.09298241849892493 -0.12086431300695957
v -0.6217472458787616 0.0837858686649884 0.07177496106369467
v -0.7605949649392973 0.19598407527314246 0.0027842876462803655
v -0.9380828571584251 -0.14410178251017441 -0.12188620782265044
v -0.7395332915407291 0.18636080516272813 0.013319156420239633
v -0.9640220804894271 0.014103631330886941 -0.12996647951793963
v -0.5269239171930985 -0.1521915328757673 0.11897266395600742
v -0.9781434472671875 0.1433716306746201 -0.12736486423297774
v -0.9644846185179998 -0.007137538093381378 -0.12020858041069603
v -0.8464210728341877 0.26686112253343813 -0.04302860686195712
v -0.9034630683389253 -0.4923256738424281 -0.12234185087218123
v -0.7400938061108014 -0.41679024146234445 -0.017379657544184957
v -0.9162335660044455 -0.39785573166008864 -0.12156309026472871
v -0.6242974504691284 -0.2786904450716627 0.052413281850196454
v -0.809212326663428 0.22739110344152536 -0.017543637003117667
v -0.7164173834689258 0.1675631960947186 0.030541782060792853
v -0.6575852225540105 0.10987801997714872 0.061721305041461026
v -0.9358592107124746 -0.18760028581891022 -0.12969233661009794
v -0.9691769646200412 0.0804235794165043 -0.1286674545335741
v -0.8461753174040807 -0.5454461802824453 -0.08911598097296464
v -0.9198008813954951 -0.36049395833539166 -0.11752343941921924
v -0.8845467628218455 0.30142718648279415 -0.06207557222848238
v -0.6792835729852458 0.12924208623170272 0.04750689928902372
v -0.5955375243855706 0.057068150897913617 0.09100587053404667
v -0.9794882842257658 0.14731428407038738 -0.12432983449168707
v -0.6230878473105074 0.08357458034796302 0.07563097862196307
v -0.6247437008620709 0.09107333340222372 0.07131152189506174
v -0.942287359558185 -0.17127285161872202 -0.12142814798874656
v -0.9489453747330121 -0.07657075650539372 -0.1205804613310563
v -0.9410713272475798 -0.16868449093620114 -0.1256611702689834
v -0.5013623688011616 -0.128230374801535 0.13054406672407462
v -0.9119641975618702 -0.459123172487486 -0.12209537540393334
v -0.917667214663736 -0.3224979400826417 -0.122975626240053
v -0.6266697906874285 0.09173515431697471 0.06351477795518762
v -0.5609901865373185 -0.1966252816638778 0.09730062549286546
v -0.5858784338364129 0.05485977608823879 0.091569401967099
v -0.7547324702245123 -0.4297563783371778 -0.023888323688036412
v -0.8945202122300648 0.31559763113927325 -0.07053815031221959
v -0.8087487866671129 -0.5135325528817292 -0.07107038409059135
v -0.855622026975146 -0.5603380696274645 -0.09799673582387361
v 0.3616664449116492 -0.47510240570212886 -0.12829406770606855
v -0.3656093066136734 -0.5523047928652443 -0.11734499273748708
v 0.8007886856201023 -0.4290413867474915 -0.11992171895663806
v -0.6841575962009373 -0.5837855646453867 -0.11547517830667073
v 0.008757579439132482 -0.004818477655659139 0.16501531378532214
v 0.1598013577000213 -0.49677271872919393 -0.12352211971409031
v -0.7613391141307457 -0.44444146950128743 -0.038380825882808195
v 0.5705711398721276 -0.03333115168405122 0.11283460848109844
v 0.874391028926786 -0.3120297627670483 -0.054965611186586494
v -0.10883773388803047 -0.026189476273638282 0.16751936704854392
v 0.6761451788097298 -0.44615075425252876 -0.12044173581618722
v -0.11750171810816584 -0.5228323882542685 -0.12118130704473376
v 0.4779053389426585 -0.4605754900422298 -0.11663307183592667
v -0.6065734061073574 -0.2461408803050382 0.06870952590835237
v 0.909707873561298 -0.42424408772035116 -0.11528996096987391
v -0.7961251521753223 -0.5934048650295982 -0.11954583710771309
v -0.24248394488159938 -0.5393797386420199 -0.11931697332551144
v -0.3538758587645465 -0.04626302900550479 0.17214252883761688
v 0.053943150414249526 -0.5081393880438753 -0.12413484545671746
v 0.5764919626253825 -0.45411183214462403 -0.12453628204064494
v -0.5994762598229827 -0.5744330704302997 -0.114065320250001
v 0.43130787106830204 0.03735220626345918 0.16481246914559625
v 0.280349516543239 0.019173746314206826 0.16881019328862998
v 0.6837520456778844 -0.1405255061595208 0.050680669038195056
v 0.6265335792671041 -0.08257376560701844 0.08271675308348474
v -0.6485121233597462 -0.30260413445624773 0.03246712810012552
v -0.03695406697550598 -0.5197368929132996 -0.11715348912380202
v 0.19377097284971587 0.0059166495528669245 0.16651988714241167
v -0.46843213591329214 -0.5634473362598499 -0.12302421973858482
v -0.7146261441628493 -0.38423960386859524 -0.005621859192470941
v -0.8713297524012164 -0.5798079707209465 -0.10764566804385349
v -0.8189262761329227 -0.512359671765194 -0.06905156879722268
v 0.862451213903607 -0.4195372322977179 -0.11075792989230747
v 0.9223123745750951 -0.34783959643801454 -0.08026468273570077
v -0.30366507628844774 -0.5472528066410944 -0.11760005333458307
v -0.18339678276171972 -0.5326534478100364 -0.11941886693852524
v -0.5377033787820611 -0.5737810790607939 -0.10936525206191319
v 0.7480442531884068 -0.1944402541204157 0.013260423830081629
v -0.04961289765545068 -0.016084571000319844 0.16577682239180644
v 0.38607158007549053 0.03089402670535174 0.16388590643620138
v 0.11783848715852355 -0.5039923222701812 -0.11875092169085884
v -0.3021043780901168 -0.04402397062807093 0.16944822220572045
v 0.42273974477729664 -0.47271231467076213 -0.12077799313511092
v 0.6096907603513996 -0.45513805144656716 -0.12463836977150486
v -0.7431301162273756 -0.5881875394231834 -0.123890916248179
v 0.8435834897940662 -0.2745189926258148 -0.03385354741075201
v 0.2824757020225221 -0.4811462791179925 -0.12138408340357401
v 0.2213294399190457 -0.498126289368772 -0.11640989904611881
v 0.525912611618056 -0.4620876596601723 -0.11924269385877193
v -0.41200091672500644 -0.05779518614312291 0.1724026199798348
v 0.33963492849485294 0.027043606976732013 0.16292195689002004
v -0.5199663385294621 -0.14860965497320977 0.11682630513243304
v 0.31659139875505193 -0.4830247037970406 -0.1196466314683385
v 0.011668551965980826 -0.5133260878455609 -0.11783991998946229
v -0.25461066769325164 -0.0392725501334654 0.16545004261260204
v -0.4310632859343366 -0.552606031246773 -0.1147289598404244
v 0.24109795625317534 0.01350424024844017 0.16649188683711968
v 0.06825183483164216 -0.0038560477885203636 0.16729820987926755
v 0.12939800922053346 0.00199101476803615 0.16222460192294286
v 0.6339850479325732 -0.44940471571124396 -0.11638606651453594
v 0.6563416227084085 -0.11255605991990922 0.06770226870605535
v 0.7548393483633272 -0.4372045317865918 -0.11719719924606964
v -0.6422046082917977 -0.5815697673576192 -0.11929453903451125
v -0.1531273869174265 -0.027945617065790476 0.16983998023989913
v 0.851768471475632 -0.4260297081361752 -0.11369135165562179
v 0.5687649961163935 -0.4603617576868208 -0.11780445155763218
v -0.0887186890973379 -0.521216291980278 -0.11653872425706291
v -0.2290740702839937 -0.5355864564295135 -0.11863916559916661
v -0.4973305942309654 -0.5637101264309663 -0.11974560535766648
v -0.22952855502072345 -0.03725465577642145 0.16521837562585284
v 0.9520405817734261 -0.37344962963689177 -0.09406682512793811
v 0.7140024661417933 -0.161480731599061 0.03411420719874858
v 0.4715692781848164 0.0404429204535696 0.16319113819155884
v 0.6510929731799228 -0.11072740365799477 0.06845935420352671
v 0.8090410513602778 -0.25977987709101813 -0.02326826434482654
v -0.8322372495424003 -0.5881026331878279 -0.12222599058009927
v 0.7782535369616123 -0.22058922635308498 -0.0013878148323313525
v -0.8000956539946851 -0.48455089355826664 -0.06273613037665351
v 0.282219103166634 0.02260438721500245 0.16543701086264348
v 0.71748574824677 -0.4412873122165226 -0.12321746811484995
v 0.9078757612809641 -0.3297226900530697 -0.06870368916596911
v -0.6751161216634316 -0.5847251210462905 -0.11557599749168397
v -0.5400177231845237 -0.17370841756650288 0.11309189172496248
v 0.6493732472605486 -0.4469003259431688 -0.12395073158902623
v -0.7161363806934049 -0.3840475230377992 0.0011574366975098047
v -0.3296222764679579 -0.5410804836090681 -0.11595460629396358
v -0.6694845043102404 -0.332021716671884 0.026977077602497918
v 0.32336989387977383 -0.4806103837079659 -0.11930675318574953
v -0.6362371655323756 -0.28131054146056816 0.04808633508861686
v -0.8376119283618062 -0.5426840699196718 -0.0852206144459483
v -0.4832950760698561 -0.10802120530136011 0.1435879339293404
v 0.8958705707164042 -0.4256406710420967 -0.12020364543105613
v 0.10435274389456191 -0.5040864003601949 -0.11322118992638354
v -0.7296965918605478 -0.4089581989123481 -0.01643158543182465
v -0.4629032519976075 -0.5584986474202961 -0.12009145717205649
v 0.4498259826646716 -0.46531531911126595 -0.11377072730414298
v -0.07061258373695006 -0.520436909768399 -0.11933951702413813
v -0.5731062143161865 -0.571707121199057 -0.11726510305822367
v -0.15302620828794716 -0.5252192040795316 -0.12096815112937374
v 0.2274908302705444 0.009018004179108289 0.1675104180883596
v 0.08406811211761347 -0.5041517689543614 -0.12121251386472447
v 0.16006858814780345 0.00391806860856219 0.16530194787700747
v 0.09251363845135828 -0.001954121703640601 0.16533932260854042
v 0.5501305233027061 -0.02359257823192755 0.12177155253188379
v -0.6951438767284738 -0.3618659420040155 0.0059677063386537905
v 0.4931025843492161 0.02805850243656074 0.15048778549368697
v -0.3874716346007427 -0.553448896798366 -0.11620530980308617
v -0.27906587362153396 -0.5397851035769377 -0.11818513347033353
v 0.8932103809036072 -0.4236194196025538 -0.1169365061332955
v -0.5502450543760106 -0.5706526627352837 -0.11872540833063905
v -0.1897016562640835 -0.03372630599647573 0.17140294985376536
v 0.3902408198051202 -0.47201162208903374 -0.11792471583209864
v 0.3177349399042642 0.01641925681539328 0.16996877125133375
v 0.7558998933295762 -0.20121668664619344 0.012574404697355334
v 0.47614731741098015 -0.46008122417337455 -0.12215735732194034
v 0.02669503287053546 -0.511096271723238 -0.11753258086410205
v 0.3973457413406978 0.02871134546057814 0.16363129566391235
v -0.6560916546656952 -0.5757744491284165 -0.12611415758572464
v 0.5219932952655777 0.00030371992886480195 0.13811783432589753
v -0.7834645422328016 -0.46734060571034947 -0.04687180937526645
v 0.18945807967533393 -0.5042018105450569 -0.12108304395995848
v 0.8280173159400708 -0.43276245279649683 -0.12053960668430377
v 0.34397679087120503 -0.47796145776680743 -0.11586749867036175
v -0.16925350692194902 -0.031868707410618785 0.16835502900693475
v 0.9600183147724616 -0.415493628588698 -0.12071856473975057
v -0.516578463649071 -0.14147785451805023 0.1267020205851666
v 0.25150351282504385 -0.4882310961922849 -0.11748913694542762
v 0.40794227355178525 0.033614236944306895 0.16753779564985713
v -0.018827643028278336 -0.5130197123809259 -0.11888624955645526
v -0.027490399684433713 -0.018743321614925958 0.16753262667256197
v -0.7590212056352776 -0.5910900056168829 -0.11637682701916743
v 0.6020158905513616 -0.45041940576809786 -0.11593223932028122
v 0.037462075163910216 -0.0011099025137204423 0.16384933369673002
v -0.7119769264455111 -0.5893999414914425 -0.12565760384487284
v -0.74515006613362 -0.42856528191029686 -0.026743414994043358
v -0.4414987319861613 -0.054702155415550485 0.16852926974090893
v -0.5510189064949003 -0.18121896683778804 0.1045428747562976
v -0.08535101441877513 -0.018675373657684048 0.1626049810570612
v -0.33661007468681087 -0.5481043961510574 -0.11969559976850572
v 0.6082544495238574 -0.0713682925441987 0.0981820561892046
v -0.1551317822331945 -0.5267761630272402 -0.11516627866498795
v -0.25642962349562975 -0.5402719944823937 -0.1235056949623145
v -0.33290069812476786 -0.04357602991982828 0.17474898450432982
v 0.14982625435898905 -0.5030028976024639 -0.11614628651715236
v -0.5901471799244695 -0.24121390621174538 0.07603614666840634
v 0.05244069668418194 -0.5081232022981125 -0.12014979231885704
v 0.19843618237130092 0.0031806191038187877 0.16515965523489054
v 0.5910623717832807 -0.04670821794675083 0.10449041244868255
v 0.9021414035608687 -0.3274490471512049 -0.0698026331292568
v -0.30310404734453733 -0.5471245788990278 -0.1246172194103602
v -0.21604294995238696 -0.03281796561156044 0.171449898206278
v -0.5045083898434629 -0.12340756037342583 0.13323821971301417
v -0.8217392232204407 -0.5930688029347081 -0.11831567990725278
v 0.4015508562736061 -0.46934543223094016 -0.11883384480180272
v 0.1368771679444416 -0.49342520413855867 -0.11786102602122236
v -0.0530219607845103 -0.5196894481122878 -0.11811510582750522
v 0.35525547493157567 0.025819784610695697 0.16343495590929533
v -0.7437789026295731 -0.5847575121974766 -0.12159034798932944
v -0.020415269533078394 -0.013388866370375908 0.1619088558553585
v 0.7323100749636162 -0.17643542617840385 0.02496859360579605
v -0.5197520721888216 -0.5680854082636725 -0.11941762840624075
v -0.27821768689513315 -0.04542657888744521 0.1679912957086886
v 0.8593805609220191 -0.2974254720786745 -0.05110480695743163
v 0.5604289163527875 -0.4564365613050206 -0.12178545515307478
v -0.5587746937674444 -0.19935328955365636 0.08896026299146532
v 0.6921767355408807 -0.4433887789852671 -0.11595513025182899
v -0.7444233298810821 -0.4368520452739671 -0.032300935147867055
v 0.5365437341178607 -0.45885221757382333 -0.12382746081071773
v 0.2604860321190711 0.013778372267692452 0.16794296871354641
v -0.664642091843047 -0.3291094985018837 0.024540199503966728
v 0.5128235346384818 0.011030611277922323 0.14741202338182421
v -0.18716206209471054 -0.5331668172088249 -0.12065925148959543
v 0.7909766418695046 -0.23535238863047872 -0.008128082217187664
v 0.549674775262722 -0.021723571947964454 0.1267341610595771
v 0.49756264188596133 -0.46194697794133577 -0.12095195322397088
v -0.6175624864650897 -0.5724792474316133 -0.12243090080252807
v -0.8541767570765065 -0.5529996000217148 -0.09724766661473583
v 0.52377596421245 -0.0010484436747118632 0.1369902293650518
v 0.6726070818387826 -0.12776187256868068 0.0603852017187696
v 0.5830369652299777 -0.45299810124487927 -0.12600376063227545
v 0.2778213631259549 -0.47884366529007893 -0.12079824927965005
v -0.444278955547386 -0.5574740786858762 -0.11631338581457239
v -0.7089885561099013 -0.5875464760621614 -0.11757506613065759
v 0.7359908079012466 -0.18849836908444034 0.02226900366204785
v -0.42680481958143873 -0.5537635733333703 -0.12131054636915618
v -0.8380489673559796 -0.5316588916752035 -0.08400476516446137
v 0.9426699918673646 -0.3654082896849693 -0.0902783781993396
v -0.3908919950592048 -0.5572162538869261 -0.12089640216843514
v -0.32175859079443925 -0.04590237376390333 0.16198253174752397
v 0.8152604695959914 -0.4324122015831651 -0.11157697757344522
v -0.5327981152824035 -0.16091736616036054 0.11072373095551302
v -0.012800613606281848 -0.5128161223847727 -0.11863442147844239
v 0.15916025017705226 0.007918752140636478 0.16886697305922255
v 0.7487752500710303 -0.438724875749095 -0.12140254831173436
v -0.4625744967762476 -0.07877910081143052 0.1633738477027121
v -0.7183379630890477 -0.39323853211116366 -0.00976108864824501
v -0.6685753394907725 -0.582014604003729 -0.11779539922858212
v -0.5676694346058853 -0.5733576920041076 -0.11569738568328543
v 0.36396879043410524 0.028926308836105745 0.15719589533798634
v -0.49272226350376047 -0.5649049175459473 -0.11495723941451755
v -0.22612569935482976 -0.5294244137276376 -0.1239889013595169
v -0.387733241526049 -0.05078765116496927 0.16362238901442527
v -0.48344910278501596 -0.10205791655967246 0.1477852640234932
v 0.4202421346128753 -0.46978560390568835 -0.12182602657458771
v -0.1971091018875158 -0.5338638174712163 -0.1173025442565993
v -0.5198334009571103 -0.5685272641571061 -0.12326046518266161
v 0.334809370776402 -0.4799720200508369 -0.11703371955895471
v -0.6132577940045967 -0.2670726878936051 0.06173294334172923
v -0.7869478256226197 -0.4688586887016855 -0.05118889666796523
v -0.7608240898560862 -0.5938704659878178 -0.1195038331384192
v -0.7990357262116627 -0.4918850881841937 -0.05837233048377287
v -0.6407644513947119 -0.28331185036094797 0.045286465897550546
v -0.4628715131225849 -0.07603359100661275 0.1527665709540069
v -0.10042735865851489 -0.5252268921971388 -0.12113696137403435
v 0.6411893988567313 -0.1030483012405925 0.07460699491296242
v -0.09263432326471775 -0.02218193417942286 0.17348716762861613
v -0.24843006648846924 -0.03890880082273501 0.1697079937493288
v 0.3097942296478922 0.026172349358275136 0.16055403140024654
v -0.5814132258909025 -0.21498691331333813 0.08054342972839673
v -0.6832717048609173 -0.3482715786104025 0.017837188217448046
v -0.6484599064615655 -0.3008996943129417 0.04269191760570756
v 0.7981641334097446 -0.24091403686410365 -0.017977363263425028
v 0.4378158163058916 0.032850991087841654 0.1610232915649595
v 0.37820861221805835 -0.4767707699607433 -0.12122791139146004
v 0.018504696496263306 -0.010472180342475084 0.16243141969731914
v -0.13509702506230278 -0.02433232146246547 0.16130535299004212
v 0.06526966537519717 -0.0010628375240690963 0.1650006432520713
v 0.5880952070616066 -0.05674641396466544 0.10703291513768587
v -0.5581180447804701 -0.1886129069438722 0.09898303358589347
v 0.4938657200829832 0.03087373071210835 0.1605576997504355
v 0.9160297319208012 -0.3440672132698306 -0.07978685776990702
v 0.6520080918861537 -0.44997393540680486 -0.12450014972822268
v 0.7843258672531697 -0.4316259759995194 -0.11975088889865323
v 0.7257990624569663 -0.16847779068839064 0.025986889328133277
v 0.939112172588903 -0.41821519953461733 -0.11527849811921126
v 0.6451405875037903 -0.10722321750452513 0.07495099985290038
v 0.6308386284212443 -0.4533767425118931 -0.11965628524830046
v -0.09678001720284808 -0.024240626859288607 0.16341094819614949
v -0.7911772458376489 -0.48515015676189976 -0.06296500505258147
v -0.7480702233741616 -0.4215705554785763 -0.02602154450383697
v 0.6826151836900771 -0.44843487850345887 -0.1190073477971584
v -0.6008759758897484 -0.24985270259061598 0.06424938749535512
v 0.6633894777114709 -0.11537115507094359 0.0675772817888505
v -0.3547653975879709 -0.5495504326265754 -0.11501102330912202
v 0.46133299953955825 0.035008979052775516 0.16338136688747387
v -0.37360635203336173 -0.052199130849434026 0.1614503264579837
v 0.4484751441043499 0.03950636578672209 0.16066706323857322
v -0.27864774086072785 -0.037817831924258964 0.17068578785021196
v 0.13728516519638223 0.003095542591446405 0.16308085263830618
v 0.8263213119468462 -0.2687404519963126 -0.018024427032651807
v 0.8220156211824357 -0.2627306378701283 -0.022532522770523665
v 0.6957910266267959 -0.14918672968422045 0.04216981520720954
v -0.5310797971384886 -0.5647314611583387 -0.1197126964894088
v 0.24132311446605523 -0.4866100923017752 -0.12279342430960076
v -0.07073801979280035 -0.014907135463322417 0.17053246101058053
v 0.7317000452615205 -0.4384524875798125 -0.12355677604591807
v 0.7852742141310319 -0.22615123162254988 -0.002858883298315927
v 0.2137225269230699 0.015250980335974341 0.16335911272085427
v -0.6257948533680823 -0.5789642229062875 -0.11650377614136531
v 0.1743360884955509 -0.49710781371638424 -0.11936328459452085
v -0.645058285859156 -0.30202987910062556 0.04149756268683648
v 0.9312513674137708 -0.3596869981641559 -0.08070626436021418
v 0.7621400945705609 -0.208582516660541 0.011593817311854833
v 0.21118444556462893 0.013013701536244569 0.16437785650858783
v -0.4744671964064003 -0.0955188591230559 0.15108222685948866
v 0.8331386933478392 -0.4301198217264302 -0.12059842976203035
v 0.8856071486123289 -0.4291545897308914 -0.12136643646858214
v 0.2566162106975202 0.01691211730279946 0.16550231123445117
v 0.09808604294407008 -0.0011833322777573816 0.16874381791692813
v 0.3718222087598492 -0.4788300626603862 -0.11838707096647103
v -0.8097921202727205 -0.4988203430806966 -0.06163182791771413
v -0.1363699343524051 -0.030018417968274657 0.16537046718535073
v -0.5630284682105001 -0.20812502718574788 0.08803339380365195
v -0.19875995649277592 -0.031959848708660976 0.17082836889052577
v 0.5611319621820933 -0.024163934768218903 0.11815375904403946
v -0.4430130089236547 -0.5586455793624927 -0.11837655660606927
v -0.5587600567532642 -0.5693127245215108 -0.12414960771036901
v 0.032183290379917295 -0.5065508748896191 -0.12232378430936777
v 0.2609054649066115 -0.48478029297869635 -0.12033084773660929
v -0.0650734744342661 -0.026397602444464756 0.16763936599069737
v -0.4912772045277571 -0.11168140258576266 0.13936064463938913
v -0.03913289323762125 -0.01624475166665952 0.16197858504808524
v 0.7095724683171877 -0.4413038462062374 -0.11945485940832694
v -0.37708951612821806 -0.5498103621513417 -0.12421851908826953
v -0.3434084361817246 -0.04997805494502311 0.1708229452923383
v 0.3370672938036622 0.026366380224434483 0.1599913949584051
v 0.8147245919998526 -0.25359934020435504 -0.013884406815852637
v -0.42053458511604885 -0.0571664605601574 0.16729904175862634
v -0.7709927248334616 -0.45345524474526344 -0.037519934354463304
v -0.05239318260829817 -0.519008110093276 -0.11785836236332924
v -0.5778675919225731 -0.5703636449676048 -0.11740785911334298
v -0.12751546590614637 -0.5253258891743264 -0.11972462699034309
v 0.7156203610606392 -0.1631087133728331 0.038454396141562076
v 0.17356080239212932 0.008760219349683929 0.16538796796273816
v -0.36739991311624226 -0.5470741583988334 -0.11616603785957269
v 0.6140714575081355 -0.07125718707919505 0.09016077056152547
v -0.31985937431380257 -0.5403926162059627 -0.11615075903713036
v 0.46608634960344253 -0.4659796183028724 -0.11707154353673206
v 0.5371455736973328 -0.009009107605247379 0.13070586259415945
v 0.6676119363779992 -0.1272470397732311 0.05435909838641789
v -0.17045267266733416 -0.5302306005609552 -0.1182723045565573
v 0.15003807543926242 0.006427666234133324 0.1676583055732701
v -0.2546150325880076 -0.5407643634843012 -0.12083889118113739
v 0.16142734647889 0.013482472832707008 0.16158570623877605
v 0.8410201773300963 -0.27633573671218326 -0.03654912553833731
v -0.029394599458475588 -0.5123824606801013 -0.12078571207531545
v 0.45526863493561986 -0.46929881264162454 -0.1166566449385873
v -0.8111982693074968 -0.5949493939463703 -0.11670591721324665
v -0.31633482219200654 -0.05097325985471567 0.1696294578341423
v -0.6962792608168953 -0.5812957708404276 -0.11765554331033679
v -0.3047634113377844 -0.04349832119785466 0.165736290584851
v 0.26487028722200523 -0.48181261390536373 -0.11913349308475393
v -0.38355191566310765 -0.05663023457131783 0.1699143502417869
v 0.5890877118312704 -0.4566092159998187 -0.11875966838505773
v -0.8330184913257196 -0.5264194297511675 -0.07654232779040508
v -0.7788344094802709 -0.593493492236424 -0.11873137872922496
v 0.3028019664076287 -0.4825660387229497 -0.12194133781708627
v -0.6340728106244936 -0.577969119990214 -0.12023025763499072
v 0.6805793649878105 -0.13757732064015077 0.05435244346692502
v -0.1758772937471592 -0.5334463858416275 -0.115274412073996
v -0.825127440461964 -0.5218716613098328 -0.07550468320919419
v -0.583240579926946 -0.22795216484708555 0.08400726814233274
v -0.6873162934418507 -0.5810603896888068 -0.12203017816819438
v 0.09431872056380819 -0.502027741162997 -0.11686636441695183
v -0.7011694390519325 -0.3684639200631047 0.0019782269118020766
v -0.8430205972362902 -0.5371728000996178 -0.0854900515388756
v 0.27275209677009304 0.010460195773045376 0.16539188001175706
v -0.6468569493028138 -0.5792098119838579 -0.12263072997777597
v -0.20045833631380242 -0.5326276416293426 -0.12402831424754993
v -0.27964719700914614 -0.5410012802940588 -0.12240149404614492
v 0.2268425366530877 -0.49253193755986385 -0.12235881963853248
v -0.05909699363541702 -0.019234541851133883 0.1659006240110532
v 0.6260456334645613 -0.08550538404337803 0.08781730029863033
v -0.1607678878526816 -0.526966635968488 -0.1217258784164683
v 0.5413686509887801 -0.014874894690640196 0.1308906112327288
v 0.11412412465960498 0.0010147716968785289 0.16231890778142744
v 0.9595021116351428 -0.3824170309124478 -0.1018850051049504
v -0.1859510815536965 -0.028552578220715642 0.16783585294329695
v -0.28362190210470595 -0.04257381308672427 0.1683100523810754
v -0.01699548645958198 -0.01325419440079935 0.164914945699198
v 0.12142858296423714 -0.5001729716348813 -0.121184145220447
v 0.8016817567657392 -0.43273842617109887 -0.12512543440204751
v -0.4157866085429118 -0.5550550650513745 -0.11903781963453286
v -0.627802724261472 -0.27989456340954405 0.04853205978328398
v -0.3707156579120541 -0.049276878020372054 0.16804134301422424
v 0.43033281768653925 -0.47050128825769805 -0.12426623047388904
v 0.18974190961133758 0.009838470070275893 0.16560423007705163
v -0.6249560581863852 -0.5704126566074107 -0.11836171482415819
v 0.2966735670863055 0.023074066683497547 0.16374142388789797
v 0.09870562704973687 -0.5035047256940792 -0.11625435275361436
v -0.6550421899960486 -0.3195231982306198 0.0358708775117885
v -0.6871951410203296 -0.5832237620855445 -0.11534258303480038
v -0.7288590336758456 -0.5862906476808407 -0.11763152865101562
v 0.022879651205559213 -0.010343341588907923 0.16247126669135303
v 0.4941955202001303 -0.4657669580222749 -0.1175656608409934
v 0.21728259438302994 0.009644611504399889 0.16327564241093115
v 0.7884298466405568 -0.43235833934675594 -0.11725152524534305
v -0.6377781012228118 -0.28762958469554145 0.043727801231198446
v 0.3253907170179362 0.01967602913926669 0.1670657149712649
v 0.5642665013583044 -0.4539339280401984 -0.11679974823878987
v 0.6141375428641533 -0.45615574009276477 -0.12146638192043935
v 0.035807008007483404 -0.5115125960069831 -0.11563075473040481
v 0.8095344757124058 -0.24694311578081796 -0.017112291992657316
v 0.06595469186145217 -0.5070951780417939 -0.11334722110515363
v -0.7751059649088788 -0.45863956008976886 -0.0489444230794462
v 0.664858917892936 -0.12080978700593038 0.05953319170085874
v -0.12286140823052571 -0.5250893122543991 -0.11665349773150208
v -0.7532214607090705 -0.43030688981620524 -0.025679244788061557
v -0.24541507344772776 -0.03762856854142313 0.16937658794823382
v -0.0865736900864345 -0.5198733706176909 -0.11925848100379303
v 0.320372380935386 0.02123064864152295 0.16328916803751017
v 0.3759423246855589 -0.47841958748837055 -0.12304660911748558
v -0.17531861261749782 -0.033401058182359854 0.1645157338053743
v -0.2942442378021069 -0.03975471701627082 0.16624290293509958
v -0.5028940760556093 -0.1267148396567959 0.13278432750135305
v 0.837057982043789 -0.27489698875040214 -0.03810987629581036
v 0.6524046154766883 -0.1061419781050448 0.06611350248427082
v 0.007112066150724754 -0.5092980605361108 -0.12233352036183626
v -0.47766005855616167 -0.5656336453285707 -0.1178405668197929
v -0.04624666360929537 -0.5197024593632583 -0.11912496784137841
v 0.8742855469094787 -0.3067767016539084 -0.050904624508435525
v -0.863776898689463 -0.5716481607415544 -0.10307222006971063
v 0.8758539173894345 0.5974893280303766 -0.1199660088953177
v -0.15445481462442334 0.4992683744685185 -0.1277004966066396
v -0.9980435636250405 0.4057398903785942 -0.12362858256521177
v 0.28528930097493993 0.5364968941789736 -0.12713083112054765
v -0.48117348882754424 0.4573703287362534 -0.1255635589149955
v 0.7466712718653684 0.40326372951890566 -0.02348662314366053
v 0.7037346210867315 0.5880091713229189 -0.11568725789685261
v 0.44754409702033765 0.5557191742670883 -0.12509991014964755
v 0.5066999413436956 0.07159675245630182 0.1471868582035591
v -0.25879348467201935 -0.04396090287178922 0.17192460612546454
v 0.022847168069074695 0.5105366432264629 -0.12287217886437135
v -0.8795223856649855 0.2955342336710638 -0.05595182324367487
v 0.35105991408291215 0.026796679878266793 0.16183643934231676
v 0.156830329087142 0.5232407440073394 -0.1228067163610516
v -0.6082019667283622 0.43944305161814423 -0.12343225201235415
v -0.8325540443364312 0.4257722994731459 -0.12430553478945361
v 0.5670745543080434 0.15913774980020334 0.09977628120632659
v 0.5737546113242251 0.5717927875317326 -0.1251475588757323
v -0.2602999303487409 0.4791144870872434 -0.12366231253607898
v -0.3703813763613224 0.4669747809632781 -0.12694189758039892
v -0.615805835872861 0.07331338524195495 0.08537808925809763
v -0.0558553520600504 -0.012412247068168524 0.16825019669728858
v 0.7834842921058212 0.5931566630470773 -0.11760843346615919
v -0.9134980436269594 0.4151021257436869 -0.12903592890281604
v 0.366899683811876 0.5461105115833268 -0.1215799171278778
v -0.5021209401994484 -0.012288278587001614 0.14006540965162192
v -0.18338497162331197 -0.034981790792902645 0.16968885080494436
v 0.07738250432237184 0.0029436382206315575 0.16201746379308993
v -0.07436407941986456 0.4971848427992727 -0.12200553209814147
v -0.6859536709862338 0.43428827034643297 -0.12426658114145737
v 0.14678072211711943 0.010251453148417963 0.163654975424286
v 0.6289499029556971 0.2517767162548647 0.0558663750855695
v 0.6988721005190095 0.3513501086064203 0.0054964974661415545
v -0.4035148414460138 -0.055430325032555725 0.16829757850089336
v 0.6662704318716665 0.3010732451863059 0.027966926724298388
v -0.7659599340347744 0.42311996702793475 -0.12453754776825231
v -0.33597420923770843 -0.04359599180471146 0.1651310296993109
v -0.12643930353250787 -0.020373447817393354 0.15875899145954137
v -0.5342703190850179 0.4488396316493163 -0.12659053721233338
v 0.5940116108693492 0.20248581995177353 0.07885898699271379
v -0.5712294611516852 0.03670848990732114 0.10218380386597911
v -0.7747927345226816 0.20724144979688813 0.000518991925835469
v 0.6368333351950315 0.5757414635632967 -0.12462608741042909
v 0.5403412953729316 0.1195033536966822 0.11982866617392676
v -0.9166663655839633 0.33002683614133 -0.08120933709222003
v -0.43144022449954333 0.4581084158074181 -0.12688070717258393
v 0.5134606179691368 0.5603948916148168 -0.12356861033492342
v -0.6581690987978253 0.11051278950129567 0.058754982767114466
v -0.20549738540715826 0.48618208222130965 -0.12196638369176158
v -0.3156267095903213 0.47444969905606316 -0.12233989271830567
v 0.7769495163190329 0.4605896473655835 -0.04783971457100558
v 0.39735510159787124 0.032992357926882446 0.1631171046908673
v 0.10037638328010969 0.5204960418793669 -0.12310272255178999
v 0.31509569880162946 0.5430453593116068 -0.12594132768434427
v -0.8447974398207703 0.26511825542558054 -0.03557016308087407
v -0.8074573579251678 0.42146089646943335 -0.1297496661016452
v -0.7204677237153196 0.16655863537647622 0.02172061964288826
v -0.5350978804011401 0.009306844100661515 0.12695297568141095
v -0.013697712034810811 0.513382722037178 -0.11552718757018875
v 0.07946440073752695 -0.00715148293415797 0.16849937045948626
v -0.9593616571733857 0.36298339420291387 -0.10418766850960755
v 0.20900068922493437 0.5339420932598756 -0.11744365308105237
v 0.8300880424214261 0.6008529038398353 -0.11886160602056468
v 0.06205265462907321 0.5148453969189256 -0.12515731996948112
v -0.09327897360299876 -0.02613895195876699 0.1681320864105739
v -0.6398887165971249 0.43890598878548953 -0.12454821382681955
v -0.01647353112004146 -0.017220457905083857 0.16770513241951418
v 0.6096238784067856 0.2266432200444038 0.0708196969452838
v 0.4659371752316382 0.040901874802827795 0.16353148169859116
v -0.9427960145218353 0.4099582526045769 -0.12491721281769361
v 0.24885454834981516 0.020800649060207715 0.16597478206813912
v 0.5222546493655794 0.10481701628606432 0.13435234430331047
v 0.3902524098008958 0.550384548723354 -0.12159580661867288
v 0.8336198087556427 0.5338845654817101 -0.08722662880865485
v 0.7976640278623829 0.4866630873648424 -0.0645579297075427
v -0.31515935820188556 -0.0465217922841375 0.16520009002672797
v 0.29640064836818725 0.017543263931341722 0.16796533184466347
v 0.03499931546914769 -0.007711190651905224 0.16785250847233785
v 0.681542046805178 0.31945712185690206 0.02192229913824904
v 0.3277497122190551 0.5482548266495384 -0.11927780283959742
v -0.7248510405203729 0.43328304673303736 -0.12567255085551896
v -0.47699595983172116 -0.04715976301645842 0.15289729320825965
v 0.18764184118502772 0.004238176844522826 0.1654781399361502
v -0.1106210729844487 0.494585072898613 -0.11942150921976954
v -0.3760555940787358 -0.055163880125343887 0.1645400207805068
v -0.6944177655665804 0.14553956824276826 0.03801540637027858
v -0.4098988182223438 0.4664634326118206 -0.12540955285744113
v 0.2522616701514356 0.5372447191134402 -0.12451423082795963
v -0.3446529183636057 0.4727586380395248 -0.125357236415805
v 0.7524337795445071 0.5906330048458419 -0.11612554719191667
v 0.6496689634006629 0.2795692550330711 0.040429200043721705
v -0.03694409387398669 0.5040250841599055 -0.12101397670385945
v -0.2390886365338969 0.4869166218196031 -0.1264382791695152
v 0.48631473259848557 0.564463127317652 -0.11642748219181843
v 0.566582373958643 0.15366711935072133 0.1087627191943665
v -0.6208202493629956 0.08209588559552429 0.0782260616148889
v 0.7590906733456123 0.4346489505537782 -0.04091573076157606
v 0.5845310619501959 0.19104081922590596 0.08563135356284711
v 0.5930159906608716 0.5767268546904538 -0.12155117908370518
v 0.5446838494861791 0.56916255642373 -0.12097222583941634
v -0.568566059659834 0.4561666670958825 -0.13045817954213595
v 0.6726948570234539 0.5797941177667179 -0.1223663599377711
v -0.5012891924399739 0.45549016264288855 -0.12357886772834956
v -0.6599949111598824 0.1141558492713212 0.05169747489064692
v 0.11031332786820938 -0.0010620748107482245 0.1652683359696298
v -0.8661427921142164 0.41299861453551817 -0.1297917461507674
v 0.7174608191651376 0.37412547220909165 -0.005040264255266848
v -0.2337745710599353 -0.03787285052107678 0.16995491172871155
v -0.8966150442504291 0.3135770700397891 -0.07340414569881257
v -0.5947995107616483 0.04636580326141242 0.09342661631368876
v -0.5379111535941594 0.006795164578781663 0.125258716514234
v 0.18387237482212349 0.5247250711375101 -0.12074673368116288
v -0.5589612053700018 0.027686503622817972 0.11292910866121846
v -0.7938616207663489 0.23320781542258587 -0.020631401354634447
v -0.8025180815319404 0.424576638110727 -0.1229939042600167
v -0.6833454264895455 0.438098912980059 -0.1296047079918172
v 0.12754382123291433 0.5228982832867889 -0.12348881129623687
v 0.48514056555981006 0.561915890697337 -0.125989799499383
v 0.355216324062496 0.029034813998902724 0.1593144139702874
v 0.42186786135563686 0.03744914869989381 0.16660687502367696
v -0.7155465995946881 0.15594003550066804 0.027379748187712546
v -0.26814854844101615 0.48113079167534395 -0.12662314083479226
v 0.728799537340475 0.3889105926953413 -0.013587823791644969
v -0.2822698444236269 -0.04440718220752517 0.17167940450357705
v -0.7482597137630478 0.18478779131399148 0.014328429217270813
v -0.573244294768295 0.045544635952478985 0.10683385852415303
v -0.7913161529588317 0.22588750161505644 -0.011659426003237376
v -0.440183639829192 0.4666126363175765 -0.1287668474110176
v 0.22012178510263192 0.010984522239136582 0.16629357828534216
v 0.7837888634249729 0.5933923725580248 -0.12335954729516056
v -0.44035065936308937 -0.059831643910969456 0.170004708190303
v -0.1638603533307985 0.4943868238689084 -0.12616106739220845
v 0.6632805055227945 0.298650116168729 0.029577719042435315
v 0.5242804280093314 0.10632339493093718 0.1316725339229231
v -0.6728690450626501 0.12625023261821464 0.047901544041123394
v -0.8422982033184457 0.414932757916835 -0.12914202647428263
v -0.9219828217804059 0.32926825166513823 -0.08035246291483744
v -0.026324030610645206 -0.01297246325663547 0.1599535557022937
v -0.5838373028998194 0.44550169631618625 -0.12485916430872242
v -0.8934715715393258 0.30442357475409326 -0.06097052070937034
v -0.818414520213262 0.24170534044337874 -0.023733767140121473
v 0.628049003223975 0.2503075559405392 0.056135086603252254
v 0.09425411031819497 0.5173044334043629 -0.1259180087165346
v 0.655205890673525 0.5852460814122024 -0.1225968229076127
v 0.8372916134405469 0.545225218926053 -0.09084337909648028
v -0.5223857356183381 0.45518351461003786 -0.12232386032550709
v 0.16868097054701942 0.010281718963629359 0.16533888572060845
v -0.058429325169358184 -0.02261411419557227 0.16622262687122766
v 0.6924035600910345 0.33241299576336725 0.014386324518372287
v -0.5062087553750042 -0.011198210624634301 0.13951629349944386
v 0.567510713767045 0.16742705885365405 0.10192974230797068
v 0.4058273333524601 0.55382837248268 -0.12102460393921906
v -0.348483400062435 -0.047841056222686196 0.16642015605280225
v -0.12417722673306181 -0.02836953282057259 0.16334905421014997
v 0.8187793878109481 0.5150960258649404 -0.07201070567430802
v 0.5544837386910413 0.14238701324613737 0.112059614111425
v 0.433613763497323 0.035544096352193875 0.16177810008896198
v -0.5218619229360179 -0.004340839046194296 0.13408274208949447
v -0.008496241877658321 0.5118632324554181 -0.12390771190899476
v -0.15770918432712086 -0.031440760579158074 0.16245795052915604
v -0.08053371510114699 -0.0192750736047557 0.16232726727310942
v -0.3325003689720784 0.4706479209864779 -0.12709804952722215
v -0.7338801049577729 0.4267530973290059 -0.1260902372203884
v 0.2865550749245784 0.5405918699771424 -0.12415919074494312
v 0.7695969254751723 0.4510923173510928 -0.04488319529993721
v 0.6248874103715465 0.5737229425760547 -0.12546344635184012
v -0.38599343440872436 0.47548175902203516 -0.12049699394011701
v -0.3713070201582987 -0.05502364354473601 0.17286090588403044
v -0.6323913094004526 0.09735534501322148 0.0709833795884669
v 0.047582038179108097 -0.004805032202418514 0.166152531851297
v 0.43210720590740836 0.5573529371856032 -0.11750873615025564
v -0.9441361538552587 0.35236660950353776 -0.09354527934474913
v 0.3252126099452379 0.027414811806218117 0.1639506984632216
v -0.8537717685805737 0.283099159608501 -0.041423557619113704
v 0.1771519021184958 0.5296078555439535 -0.12552848793716426
v -0.1920315401589538 0.4932287350940771 -0.12866025749020496
v -0.1359271063270832 0.49549674876641076 -0.1268927819097889
v 0.3846922555017147 0.5500439260016664 -0.1266205047463658
v -0.2877544074771032 0.47709363087064394 -0.1247946573194655
v 0.522922170184976 0.5672521445974227 -0.12382461934104028
v 0.014097912727522614 -0.009101476585494917 0.15878279608079754
v -0.4075196563585617 -0.057872533214207725 0.17390026141417358
v -0.8786793900666574 0.419057695136058 -0.12676657489335375
v 0.49035354461124847 0.05701609015530672 0.1551180380001885
v -0.6023856928345538 0.44224559834561095 -0.1283834628154822
v 0.13104381442457486 0.0030889084044760378 0.16566214027791087
v -0.2106911788370487 -0.03707565327889055 0.16759068651670614
v -0.6660120551855285 0.440393633647099 -0.1272201377567089
v 0.6441686025945521 0.276307752940179 0.04091725606990882
v 0.46257906539602867 0.559856957093336 -0.11967696404313993
v 0.07950699190112512 0.5141721573177626 -0.12002640246965957
v 0.7084952880286759 0.5881090628034878 -0.1256139765905193
v 0.274527592180046 0.019305308758689674 0.16197367315846553
v -0.635281705230533 0.4410877336967529 -0.12429885124058038
v 0.22419191234273278 0.528326703113188 -0.12374520649881557
v -0.8604428309614178 0.28041523592493445 -0.04801898267454758
v 0.8482207402657118 0.556994306281189 -0.1004982730798548
v 0.03375278627884928 0.5154270445548699 -0.12954848228304278
v 0.37955822589195864 0.03193855390218604 0.16583491825477403
v -0.4783065700194404 -0.03408579982585174 0.15225489234688513
v 0.10160043067927466 -0.002887714448322184 0.1667314155169043
v 0.749731451609105 0.5864297735362095 -0.11561304763334887
v 0.5900345347702515 0.18376064704175724 0.09491494300416355
v -0.782636706535031 0.42697951226957614 -0.12476112079167521
v -0.26691791133507586 -0.04455291869132993 0.16858308171776135
v 0.4988660740494289 0.07245673552851771 0.15144509539424006
v 0.12579516232958754 0.526010692602962 -0.11871999829704218
v 0.3468698163911934 0.5501540886259302 -0.12848399125136922
v -0.7822702968602792 0.21388021218173403 -0.006948556029836432
v -0.9739796212766256 0.37288842061849825 -0.11277073164517193
v -0.40256254768501204 0.46847990776240384 -0.12743582154997696
v -0.209722607340218 -0.03215275213889201 0.16651191690979403
v -0.45801884406129806 0.4595556674906062 -0.12491204427988917
v 0.6098681781046852 0.576356630183877 -0.12018447556683964
v -0.05289718456726719 0.5038886042874706 -0.12534912996860095
v 0.7335626610312913 0.5834040386509782 -0.11947016281394526
v -0.603359518554726 0.07188381193363086 0.08584843605092857
v 0.6217013350119632 0.23146838135626302 0.06781029485832481
v -0.320774578764133 0.47305386108516895 -0.12304453369202477
v -0.36695092877950264 0.46987659212662053 -0.1279095361380218
v 0.6795944145170385 0.5784548065668111 -0.12341721947121329
v -0.7576900650001284 0.20171449001377526 0.0007465353847806453
v -0.9435932925402754 0.4057923152849263 -0.12531058017196328
v 0.08191871933517542 -0.0061751842797942115 0.16654151358262664
v -0.28151230845490294 -0.04368744240761054 0.16784665614138095
v 0.33956319914904337 0.546136534192115 -0.12564525439677307
v -0.8729063741045315 0.41748149426174314 -0.12267377565867965
v 0.6082462644385431 0.2198459278788435 0.07543601919000596
v -0.09948596351896086 0.49490683414041864 -0.1229970810902759
v -0.643010129795491 0.09695705529268273 0.0693732721872041
v -0.0406976993413787 -0.01745338095579821 0.1628954497774491
v -0.7088999529655028 0.42790059543185477 -0.12526409948117403
v 0.6891204955865433 0.5821560359937167 -0.12692688756073467
v 0.5428142762891778 0.5649012672432107 -0.12108025406895294
v -0.7247573420053994 0.17057379800450478 0.020886102502406023
v 0.7055809295688636 0.35591026144088367 -0.00020436055380984846
v 0.37695853268409973 0.5504221692544093 -0.121926802635866
v -0.11058779753645329 -0.020219826493657146 0.1596760151863799
v -0.22377494405330645 0.48583480232192466 -0.12784804143081033
v 0.6563575379535805 0.28493182539803646 0.040885481716052774
v 0.7935687474129488 0.47812729182047364 -0.0603615367547303
v -0.7515693279667385 0.19296051594460825 0.00965563236618562
v 0.7458334435836104 0.41283004175670596 -0.021078038039965198
v -0.10786943481082477 0.49754307169830453 -0.12348802917006094
v 0.7947067387032876 0.49369124144369353 -0.05918552102617306
v -0.6278155820036647 0.4396903945377342 -0.1237846542955211
v -0.2830944599597573 0.47858562718390946 -0.12200990025839907
v 0.3092587366562303 0.5424022127933062 -0.12924851533070786
v -0.1834733347355303 0.4912577539582796 -0.12597133780660513
v -0.7813389469299777 0.42872496878423083 -0.1333066239367729
v -0.5412240623484899 0.4524960858487195 -0.1275293455337823
v -0.5567918087785272 0.45208445215800014 -0.12846028659001424
v 0.7829307951047105 0.462032087732672 -0.05012007183578519
v -0.03686130580036946 0.501253630490233 -0.12407000511066427
v -0.6901151228979291 0.13702982663631608 0.042102594716965945
v -0.9152983828337518 0.4041876118228735 -0.12835049039208288
v -0.48483680664418677 0.45760812341543716 -0.1290351712091544
v 0.5168537147089468 0.09451684278752859 0.14091036677015828
v 0.2696312981949562 0.5437544625392702 -0.12319245449031985
v -0.7081445266540908 0.4346172316747402 -0.12353788821917602
v -0.7937520242690475 0.23267297702134188 -0.013643526010279017
v 0.8052905355389632 0.5076067936275097 -0.0738543708375029
v 0.47060496810078484 0.5575488030115409 -0.12380585057690985
v 0.13905477238828048 0.003911222155826645 0.1665300064903437
v -0.177363068824179 -0.028629406020151352 0.16750300486436015
v 0.035609780027666384 0.515396813045268 -0.1255225208264101
v 0.41704265448700817 0.5504526074753302 -0.12163826071947541
v 0.7880621827538579 0.4742874332549032 -0.06087619457639073
v 0.8001370172244414 0.5943019900547611 -0.11956111848334419
v 0.6945795726842011 0.33887118697085206 0.01084372972796704
v -0.9324484329210917 0.3476019349571452 -0.09468841219572884
v 0.4510392169550319 0.03922126438915187 0.17020214209060247
v -0.7454124895004454 0.4315799877324405 -0.12556170333839625
v -0.8371447358716156 0.26422431415807424 -0.03980840270820407
v -0.5571150590396781 0.4486478553685923 -0.12623286436300588
v -0.7053449978592132 0.15339459153640822 0.03454592817202938
v -0.5747692100688327 0.04062930277156299 0.10392761609002481
v 0.8637748343769304 0.5774053231536254 -0.1090769397353092
v 0.769572724643251 0.5972992476390601 -0.12311312863496021
v 0.2023716643390166 0.5320923269752418 -0.12242648008581428
v 0.0037452828038420675 0.5098728739768024 -0.12200489451433051
v -0.4165005559992712 -0.05412389065652044 0.1720432320327361
v 0.06796902110102879 -0.004294779753950333 0.16199597301866858
v 0.7310762257921659 0.3877675815233904 -0.017529247631713336
v -0.3917691314681737 0.47314839208022824 -0.12404043817879888
v 0.050617731054150024 -0.006184990434925127 0.16506271724225538
v -0.3860027382588968 -0.05361638539538153 0.16427231265095651
v -0.4097156252857993 0.4667753247472747 -0.12799344794624173
v 0.2057125199168415 0.009366240889801843 0.16654528908080143
v -0.4183016823125875 0.460787326907776 -0.12365186322877678
v -0.8568029111769738 0.4254829174792658 -0.12351912774575301
v 0.7524656384251159 0.4189741232223637 -0.02954749247801648
v 0.011563464341992062 -0.010135980461158543 0.16880888434239139
v -0.042709394157042266 -0.013205272909469153 0.16679983039394242
v -0.5877323413723193 0.4407377311104199 -0.12827899412482768
v 0.6344141435128988 0.25619153830416935 0.054255986775162114
v -0.11869425134162556 -0.02624702622380484 0.1621329987331117
v 0.580065407981026 0.5729643472740993 -0.12078848921605508
v 0.5746156914807935 0.5697107405610806 -0.12465443859376316
v -0.6776341008183882 0.12509943182842834 0.04665789115188768
v 0.33273207553745704 0.025521224579520232 0.1682477610780904
v -0.07476187182885065 0.5009337807945207 -0.12347876763867077
v 0.17821822778729354 0.003931124195975137 0.16744141673266985
v 0.8220489249388178 0.5244568926507184 -0.08191589782459356
v 0.4443962784643469 0.03556778940813724 0.16460035094109854
v -0.5103212309855255 0.45424079781898086 -0.12737456074755032
v 0.07680970170796675 0.517140214428298 -0.1218278176419756
v 0.6379433852066839 0.5734752627773575 -0.1223097019439592
v 0.5473047836206528 0.1321183256845011 0.11169850790409558
v -0.4321291747370306 -0.05418440654068505 0.16996357824032615
v -0.3528975474406934 0.4689055418179941 -0.12421663916279489
v 0.5576068047150537 0.5672252113020503 -0.12165605499503868
v -0.6546201595956771 0.10906404325140061 0.05374414076037734
v -0.6939916404383691 0.1479000802152711 0.0404307235610589
v -0.5399894250059447 0.015114944643091542 0.124036568261772
v 0.5668163771794469 0.5675692130536506 -0.11828196436558087
v -0.8492290885584801 0.2719179723447541 -0.04685509683924766
v 0.28756619218036095 0.5415127672523633 -0.11767932129845142
v 0.7611254952335175 0.43013999564706284 -0.03270009168659615
v 0.5831910098904411 0.1814195775366067 0.08814741432206229
v -0.1472780352117404 -0.03329456790162147 0.17041885366688206
v 0.27801578540319044 0.016099394865169182 0.17302295956868485
v -0.1458928230556196 -0.026926918100488466 0.1715347686322797
v 0.5894551963816883 0.19510914190614412 0.08090983808883287
v -0.5143349809920966 -0.008139850105396692 0.13651270135369117
v -0.44741132439574954 0.45990126853551094 -0.12740639673724197
v -0.20984568863704664 0.4884608378622913 -0.12152627278534622
v 0.49999803435452395 0.5653044456573922 -0.12259337938837306
v 0.5672392109715502 0.1612238862351885 0.10255116263255207
v 0.23609935265001047 0.015601967298567403 0.16486011247118063
v 0.111298145394247 0.0049219884529007 0.1669186750298308
v 0.5369130915210928 0.10508445775024898 0.12953766952623214
v 0.6465010778560777 0.5765489513264835 -0.1201839519489897
v 0.6685384198983441 0.30883750488658906 0.026961223009050177
v 0.25819347579947904 0.5350236690403269 -0.12094012847410855
v 0.047067544982198756 -0.006445547948944873 0.16410358418170393
v 0.06293820550556356 -0.0005350701240181737 0.16532151343570708
v -0.17835263583513428 -0.03243676586568045 0.17176118041384145
v 0.6112769920355047 0.22378204235189164 0.07125081096488843
v -0.3740470635508434 0.46854380607805546 -0.12103090212563294
v 0.30590308771464797 0.5458620753096899 -0.12729760963979958
v -0.8665688959150621 0.29045109804122643 -0.05560557912947694
v -0.1988691189457695 -0.02627871248762171 0.16992698208318188
v -0.48357168350572094 -0.03548363965232061 0.15104154073820955
v -0.3029763215544684 0.4691247362250199 -0.12614979503221374
v -0.5592197370322186 0.03158897300725888 0.11068655570680856
v 0.5683939867899542 0.15470279891700542 0.10141206181904462
v 0.15693066663772304 0.007050313906690544 0.16521186870728985
v 0.388884587367846 0.553792854641078 -0.11938962472140423
v 0.06370866417910367 0.5153237647091494 -0.12350084215946612
v -0.9259167920131247 0.338740035729232 -0.08465839665090712
v -0.24895638330220998 -0.03792453288674794 0.1683835625599714
v -0.4905886711444957 -0.025902639244499863 0.1467122505843076
v -0.3250265240950538 -0.051635094044736034 0.1700022238918112
v -0.07445626508702098 0.5008989867464558 -0.12218552284954169
v 0.6062568083091636 0.5707222378772091 -0.11807140628671632
v 0.35778378792461324 0.546256401719945 -0.12240794437015302
v -0.3648218098117703 -0.05417987098401795 0.16967650166533949
v 0.8079393212647131 0.4988662189538275 -0.06872121199566002
v -0.9384300937269613 0.3423509280644109 -0.09483200752979397
v -0.549526658075272 0.02062195088745029 0.11519680748214615
v 0.1797774634755594 0.010184357013510316 0.16616750071978548
v 0.37925241535356874 0.026238568326401285 0.16478156008893305
v 0.15088029017953794 0.5245108423340369 -0.12763657690365443
v 0.24510559516929328 0.5377435172766866 -0.12362744646442264
v 0.31039077617999206 0.025884044364297497 0.16666955947446155
v 0.25769073573209306 0.013344747045359071 0.16428017606719983
v -0.8258785198215618 0.2507206252709412 -0.031377351849087166
v -0.15951857388906948 0.4972816959431437 -0.12144650261959274
v 0.14519624442344292 0.5227662209462558 -0.12185063094625079
v -0.9127150108971329 0.41455578619879446 -0.13405456360830795
v 0.11066542654036551 0.5203587292894746 -0.1277454579044965
v -0.07629315491293662 -0.02109583325359527 0.16937131266277491
v 0.7172946863291007 0.5832360700675471 -0.12095216153116037
v -0.6540313982677699 0.4472355797737317 -0.12965893578332266
v 0.5732106442777941 0.1699602192380253 0.09078497884626349
v -0.0867225876129397 0.49911404862069036 -0.12720185140065549
v -0.12514842804339732 0.4994794396928926 -0.12954161470071898
v 0.20652977611060253 0.015485402670260561 0.16700710364178936
v -0.6890936707611643 0.14180972110785908 0.043205679672680124
v -0.021603829014008424 -0.018040276130935864 0.16742061595749652
v 0.6197794867316644 0.23688576890872806 0.06593479239571903
v -0.34413015182432977 -0.051516076439012445 0.16379674644577205
v -0.46964684624845426 -0.046035980055038624 0.15537834803563008
v -0.8541328688987244 0.2761095048553799 -0.03880207439691095
v -0.8840917659446605 0.29690550452294906 -0.05424949450867494
v 0.8105442619172777 0.49818143294974054 -0.07446876814074051
v 0.017584236805380644 0.5133847549680689 -0.12618563802727792
v -0.9396798520378553 0.41206718488007693 -0.12573938277894267
v -0.5963624190637954 0.06990842886527164 0.08591735182554495
v 0.717450275568592 0.3676848006585903 -0.004085761771064506
v -0.5564261361697178 0.45296436959981146 -0.12642358393057004
v -0.8145685414048852 0.2432688629185864 -0.032053023060224894
v 0.25109361998916185 0.5363190330266573 -0.12301697181506689
v 0.2492073974591263 0.01438659639448661 0.16535788724872585
v 0.02483680818497453 -0.004551014744691275 0.1624181535239467
v 0.16544868544738017 0.5306407209097258 -0.12656788590708454
