v -0.8112158490345688 -0.34261834106254097 -0.09151465387905108
v -0.531347606169291 -0.03728326004950492 -0.10100029546461778
v -0.3169968637413415 0.1968066090724304 -0.10539368403107387
v 0.14086342482582329 0.02065860896157279 0.178015161088491
v -0.05406042437482566 -0.19299124345322796 0.1745677706142872
v -0.2102172268152529 0.3171294752134213 -0.10588192164507311
v 0.11455397179635145 0.35290182638824735 0.03828112973641103
v -0.07892405624351152 0.32718838375747494 -0.055492818138402136
v -0.40262735985802134 0.10156611721337709 -0.10822338721874898
v -0.6199003648263135 -0.12536685436433648 -0.09877487671823061
v -0.7208112245585504 -0.237690674197454 -0.09841087514153957
v -0.45999404033127245 0.03774627846940651 -0.1032024501114957
v 0.1917189029815201 0.13809094504145084 0.1554888517513929
v 0.18466543065375413 0.275745425019444 0.10262187283705698
v 0.0008345033737213675 -0.1332263423269209 0.1802296057260407
v -0.7281026092252814 -0.3321516422469775 -0.059350688411725486
v 0.04951742402158436 0.3479232456871994 0.0010221714230101509
v 0.09216450783160714 -0.034069601698923584 0.17802033121184505
v -0.6727922044821986 -0.3373439949371932 -0.038594623940650566
v -0.47572070990790694 -0.32462459966389134 0.038757685782885146
v -0.6757189216614916 -0.18409513254380416 -0.09884161759299707
v -0.10677401397586724 -0.25048566903963937 0.17297008917289358
v -0.5792684442960415 -0.0887578487522687 -0.1052393394936501
v -0.017162165662992175 0.34602179879703665 -0.02741621830944898
v 0.1834704558626392 0.3308677193807168 0.07744675857389215
v -0.3652164651769094 -0.32065380987925024 0.08895537324049568
v -0.25042550021236426 -0.32029353039949593 0.13714959618555633
v -0.6093564593851851 -0.33779763915880007 -0.006543761291307142
v 0.05340917067148993 -0.082077742798628 0.17758815352882104
v -0.7604549073284095 -0.2844530908808986 -0.09599467054631441
v -0.2442669337416416 0.2676307252561521 -0.1072804791491346
v 0.18879504639106082 0.23663676194703442 0.11167668280837045
v 0.17795366673543844 0.06067389226012259 0.18053185591776538
v -0.36952079195133175 0.13882443112673096 -0.10189412823281123
v -0.14133869342820932 -0.2852752799482981 0.1730606181969231
v -0.2982692504629533 -0.31743943651880685 0.11810684054306438
v -0.5552185303125972 -0.32793070729037344 0.009964176394741652
v 0.19343372639879294 0.18778781726655996 0.13588193638222654
v -0.4342991283518678 0.06556672840319804 -0.10295805011216325
v -0.49911488916902547 -0.0003235820071524273 -0.10261770361690667
v -0.6551617842795044 -0.1627965602769132 -0.10194436026102817
v -0.2849136950763669 0.2288918041436574 -0.1026048153411081
v -0.15391342431008995 0.3259737250569792 -0.09368158775482811
v -0.11586567232789234 0.3270887101002587 -0.06414494247212213
v -0.42977924086263863 -0.32409953281905535 0.06822772050745342
v -0.34301501340652907 0.16618086010310898 -0.10726347852946483
v -0.6139259143948986 -0.11991594255317509 -0.09968010548308957
v 0.0028460514622190916 0.34599446554484375 -0.019279925458923798
v -0.024243929277100958 -0.1642146408551469 0.17917210898530464
v 0.034975016709088785 -0.10236294593808268 0.1710059065192789
v -0.7696619391757532 -0.34121588650753754 -0.08009333056684846
v -0.5388767934694547 -0.04088951255978354 -0.09653304040031736
v -0.17653217019214246 -0.3163410852057313 0.1668524371169926
v 0.18936401229404307 0.2771249370092379 0.0951056470278845
v 0.08245041980105261 0.35207771639532176 0.019181310205592356
v 0.19184380112003366 0.11175804550490469 0.1651546419043543
v -0.42271888415391895 0.08336920040477623 -0.10631231118843301
v -0.28619264924404014 0.22755122167032604 -0.10711711657761369
v -0.5102783571702616 -0.32838525406505165 0.029621643590246983
v -0.33390008979581026 -0.31821980965869895 0.10152798181758717
v -0.6479492727810676 -0.3382764431042457 -0.028584390345533485
v 0.145173240140827 0.02452318964737599 0.17223598073427088
v -0.03492823475174471 0.33431805627451167 -0.04381758527380299
v -0.7658657514351944 -0.27722216623264573 -0.1010487597879795
v -0.4029187982003359 -0.32356024678455775 0.07693052538750224
v 0.18548225060231602 0.3056936944657672 0.09350664998472953
v -0.2129161789633473 -0.3133265223346085 0.1541080281419527
v -0.7124411680984589 -0.22215154795929942 -0.09825054028709532
v -0.46636079831782173 0.03696124739356531 -0.09884978425002618
v 0.15671072448103454 0.041832975326079304 0.17435704147641892
v -0.3822661619045144 0.12560318207013668 -0.10284287959954126
v -0.6891103509203216 -0.33761488766180114 -0.04277008619225038
v -0.2585808491392465 0.25576937007866624 -0.10630238133536472
v 0.10390135816479931 -0.012727167888015397 0.17580303917914158
v 0.018226553026886163 -0.11095263384702171 0.17909091658211532
v 0.14540764738626674 0.3586750651714281 0.044690990046408245
v -0.24716110237027059 0.2708144567560991 -0.11199363637588398
v 0.19308354269939054 0.17167100351830777 0.14127334424376356
v -0.6450358542893426 -0.15400516890306978 -0.10371501187111218
v 0.18263920858536373 0.2532662758702725 0.10649628301376424
v -0.31396467309577447 0.19329394739218356 -0.10662053841531222
v 0.07145972755962178 -0.058816536394592576 0.17577050308683892
v -0.7031835817603469 -0.21475727133267072 -0.098621285263621
v -0.5521802963339283 -0.06661060154867857 -0.10118211555026044
v -0.6016896761057788 -0.10969550523935104 -0.1007061138992223
v -0.3503476682541762 -0.32124339211810954 0.09737884236565716
v -0.2828179778932301 -0.3176463187686183 0.12311692784575502
v -0.7434442952502455 -0.2645082094934705 -0.09991139976012885
v -0.5134760200441236 -0.016622801853696786 -0.10016022801868862
v 0.006232461917025613 0.34373507805900483 -0.013514925853537555
v 0.19442698785821336 0.10080084788275903 0.1624026041400049
v 0.18940734691235114 0.1390471914340373 0.15036224937372977
v -0.22395684893463158 0.2946144530118297 -0.10925095445417424
v -0.06317235407950363 0.3320259101128378 -0.04264096717305445
v -0.6335548293208869 -0.3246817239892651 -0.025000741983026754
v -0.16634916566947244 0.32538098454892983 -0.08915478313598518
v -0.5783113755912377 -0.32591003830655874 -0.00031380156780408093
v 0.11196896979288669 0.3544272134094219 0.03391861652180763
v 0.1878311654101038 0.19552529155865228 0.13066136907178405
v -0.10349982029511663 -0.244517226681514 0.1762361143444176
v 0.12095367055843603 -4.4675025198347845e-05 0.17751341288617906
v -0.45351895879544013 -0.3226476425076496 0.060136486813662564
v -0.4401517375901716 0.052452951824997394 -0.10264581750928094
v -0.30428905544182466 -0.31759917340847155 0.11745778066171414
v -0.12491524859670994 -0.27494319940282064 0.17494847633005742
v -0.04897896244123522 0.3364803222287329 -0.03911858140311
v -0.719398625704175 -0.3362957937936949 -0.061144069518514026
v 0.0703804951275844 0.3487971586163966 0.018829808239633872
v -0.29791034752881906 0.21189113885325925 -0.1094407931658606
v -0.7741702056902492 -0.298008399565562 -0.09758158465996752
v -0.34809835070266637 0.16077267808399306 -0.1019584605172814
v -0.13757174637761355 0.3271913696449958 -0.07993161478580066
v -0.5365991702736094 -0.32929725209368127 0.020428193788860054
v -0.03311140803942369 -0.16682736551854607 0.17421261491163673
v -0.3569782301599284 0.15029434519019239 -0.10123636898914258
v 0.14585905784562492 0.35627964302402926 0.04533009009115262
v 0.18891254517335415 0.2545453083428316 0.10789954568738244
v -0.4791991980838675 0.021481619587190533 -0.10540204967811574
v -0.5582261647247055 -0.05697313916666788 -0.10068152125948428
v -0.08006893987268926 -0.22327750653256295 0.17379332843521433
v -0.623779548461497 -0.132396275586846 -0.10517347150602177
v -0.10186020272215224 0.33398981291051544 -0.06452518033511026
v 0.15520602635407624 0.040893636093086355 0.17612107833249688
v -0.4553510842215906 -0.32384474373420313 0.054828255062986615
v -0.4001302646271107 -0.3231683526042324 0.07653067419257073
v -0.06387432044146651 -0.1982106159404778 0.1768957848874968
v -0.4024072353196794 0.1031152021138539 -0.1112854421614061
v -0.5806845458074634 -0.3298494698104226 0.0030496951883539347
v 0.00408064324954864 -0.11943488027391151 0.17969758215965678
v 0.03502475664532184 0.34686735392202495 -0.006381058875449029
v -0.32268650578142805 -0.32027230444572063 0.11199673554192073
v -0.45165586235876054 0.04809313569586068 -0.10371074530700687
v -0.6618332498653994 -0.16880705298114154 -0.09887421015152943
v -0.6850052105251426 -0.20174682570397762 -0.10208232266917086
v -0.6759906361367664 -0.332130508004778 -0.03910096300144794
v 0.019471481003799408 0.3451151334851297 -0.008689416321760972
v -0.649434824512866 -0.1578541739802941 -0.10140415846898498
v -0.018395507328186386 0.33720957262854373 -0.027446895780486747
v 0.19352720869596793 0.2556434392299666 0.11118608908851933
v 0.060485524628602017 -0.07439771290463398 0.1722336078646557
v -0.11872839520922611 -0.2678425437803755 0.17358148580381483
v -0.09862276261517644 0.3337514044193929 -0.0636259039391949
v -0.06556998986193002 -0.2096508076992821 0.17302174392972194
v -0.39040356577139435 0.1165834641087611 -0.1020646387750689
v -0.14160687765965163 -0.29559411690698656 0.17398708680647118
v -0.4885060021675293 0.008494426723461753 -0.10492332864196079
v 0.1626136243407471 0.3605967784997429 0.052589254817098446
v -0.7910049813133454 -0.34244719694708453 -0.081150015034217
v -0.5445160550942137 -0.04632255865950606 -0.10512009078094399
v -0.2696955964929453 -0.3172332053776582 0.12849996590667545
v -0.6145299036412155 -0.33195990453019836 -0.00975581628450316
v -0.5988276250301118 -0.10010738142869767 -0.10109699723793979
v -0.33154829555222215 0.17973464168508657 -0.10409652129363367
v -0.4827849044085768 -0.3264916768973651 0.04128770620878382
v -0.05643246984556987 0.33771777586488316 -0.04184059514140095
v -0.4262304172293843 -0.32305302328738883 0.05889638171002718
v -0.6494603585557224 -0.33481006944562036 -0.028946003803416134
v 0.19512554540001567 0.16880915429907467 0.14333801061463472
v -0.46875581090266 -0.3263279003960196 0.04588288771215528
v -0.5044431154456189 -0.01569619179393079 -0.10494194230066325
v -0.6390234619255474 -0.14337566206033497 -0.10300372223103704
v -0.11448331120754487 -0.25233914425451276 0.17927752019864518
v -0.195514112046709 -0.3085757153104901 0.16345719726953098
v -0.01480543859425652 0.34012155809039984 -0.024677625869897257
v -0.4112788657423982 -0.32492094435164137 0.08043743051039072
v 0.18874327296922927 0.22069197498781798 0.12466531118862814
v -0.5808634140771662 -0.09450656738038019 -0.09960468634504695
v -0.7382786541190227 -0.2494424088207391 -0.09746434544148032
v -0.17883385108670694 0.32191222501130456 -0.102169892231398
v -0.5986638613323496 -0.10366528737765662 -0.10181661651944568
v -0.03710184167883819 -0.18156069057511898 0.17720867981574545
v -0.6981291420025638 -0.33585970251741587 -0.042827938937591875
v 0.19921632451816038 0.11349191258301371 0.16316983118477457
v 0.18205378111433565 0.3071018337103436 0.09104394619187081
v -0.5698117883150048 -0.07624329145330054 -0.10182891835276903
v 0.13367327624146846 0.35864293612802106 0.039967863454231166
v -0.5334454986602984 -0.03231458235284018 -0.10552985871241864
v 0.10054851319098963 0.3565855691124537 0.030439509847815408
v 0.19236967460873383 0.15625804072062768 0.1413306269112036
v -0.35112941491659133 0.15957988719682403 -0.1045678231928354
v -0.7148342724879612 -0.33245650343134564 -0.05279684263918322
v 0.17128688710464393 0.05797922043032603 0.17810149558210106
v -0.41934603794132186 0.07887715607960288 -0.10028165623482962
v -0.21329276548231085 0.3025826193443746 -0.11342193142902042
v 0.07199753445573989 -0.05162603823982033 0.17969445693861194
v -0.7162608143116619 -0.238015098614777 -0.09554792582095983
v -0.5279755867189677 -0.324558206625631 0.022754285342629563
v -0.22669756833653776 0.2925694753898679 -0.10500979236600634
v 0.10091031276938546 -0.02137894503238348 0.17839562640784906
v 0.18659958018091258 0.1559159070765089 0.14952548676471775
v 0.1939434032979425 0.09204203059185155 0.17415564853447138
v -0.3407988612937078 -0.3216127584860453 0.10564860206239948
v 0.12394213679111468 -0.0011595980737965203 0.17785340542377823
v -0.2997246558510863 0.2100670169472802 -0.1035968130149741
v -0.015436284101129296 -0.15227638301855617 0.1742611083974838
v -0.4164850354744588 0.09084108698105534 -0.1026426662731374
v -0.5456740642532225 -0.052788862659851506 -0.10143482512631713
v -0.609740406729581 -0.33265982964706026 -0.013081849155058986
v -0.275137823172697 -0.3192472947678199 0.12751211070429677
v -0.21282236744844357 0.30492168236283196 -0.10736541677533944
v 0.12596342809433217 0.008264783693635036 0.17566168596805232
v 0.18861350302032365 0.22734828163056603 0.11860552837996258
v -0.07039950145113151 0.33785825622139787 -0.04671490894398168
v 0.03710638923863568 -0.09293252147699999 0.17952320754665335
v -0.24824400114693465 0.26036990575888036 -0.10612827464080837
v 0.0482194716301177 0.3538486538261496 0.0019374226930621737
v -0.2631014648527176 0.2518669213748947 -0.10118686474505631
v 0.07365349574892259 0.3522354591100838 0.011181512399160154
v 0.19224141709343923 0.1202121864320925 0.16269278228005077
v -0.6971651808922802 -0.20313161016045364 -0.100446241039178
v -0.15211249959415635 0.32210520558930483 -0.08707705104679739
v 0.18559289556953587 0.2970188374624596 0.09348775320541357
v -0.5496364486103615 -0.3292080551156917 0.019272686588500072
v -0.7510635776656692 -0.26356537497586285 -0.09811872514148663
v -0.4970458016484389 0.003263375871409624 -0.10428619124821638
v -0.22523050483159265 -0.3148512710434144 0.15175595664952607
v -0.6786540513200415 -0.18965266498494374 -0.10346928658507751
v 0.10185649164688518 -0.028682891363363085 0.17826405455304623
v -0.4978047476415072 -0.0024618361007890917 -0.10139205310063797
v 0.19588182996257714 0.22137549628419495 0.12674068929910695
v -0.3878418699891883 -0.3203851055851336 0.08220598621764567
v -0.02155085752881991 -0.15365543230448492 0.17472555541157878
v 0.19318027158502687 0.20167601479273492 0.12703511476935453
v -0.27078643065637 0.23965273828148276 -0.10054188373703421
v -0.637319504007274 -0.32941094760890854 -0.021431167960246827
v 0.17800861012996164 0.35271519697167225 0.06940728375691936
v 0.009644855106966364 0.3440958943618368 -0.018047867183058355
v -0.4739707227041552 0.027801844833344826 -0.10486433380736508
v -0.21055040462953625 -0.3067313604792245 0.15722492451090078
v 0.031450871545514666 0.339977654783311 -0.0027523740387876187
v -0.5721026975927187 -0.07606193133694389 -0.0976388556890601
v -0.3543475139571622 -0.3107359597124263 0.09266673273061217
v -0.43414777850697067 -0.3236713156485122 0.05831171814025172
v -0.5269846873870982 -0.3245944154673648 0.01812410211960317
v -0.688107600404166 -0.3373734456586985 -0.04245521523445978
v 0.0773966148841301 0.35245348459382553 0.01500353433840933
v -0.6010539962623385 -0.3279425535747765 -0.0029281929297057794
v -0.12108912264078893 -0.2662478558785105 0.1751674617022157
v -0.7036546298106935 -0.22326992852902952 -0.09629288604692338
v -0.782816655485986 -0.31128464352535806 -0.09793544882592545
v -0.10846896170602026 0.32964160360522765 -0.06908845609461656
v 0.15495148880496362 0.035480510289444225 0.17074603065590896
v -0.3047866493469851 -0.3180423718477224 0.10934902847886824
v 0.056419684176406394 0.35035760926516496 0.005763590914572657
v -0.08629030014904583 -0.22474463127723457 0.17408822964233608
v 0.0973107209667477 0.34917667717714074 0.02230039961633452
v -0.08991169913323194 0.3316580581957343 -0.0607153689801138
v -0.6637973032604917 -0.16974897527185476 -0.10169448228761274
v -0.09244312895506367 -0.23684126377257655 0.17712729753464027
v 0.12472817708145835 0.35159051129911173 0.030621541556493857
v 0.18267820154291292 0.24535998581781612 0.11136309104749148
v -0.5264017679340963 -0.026219209774362286 -0.10136172759672292
v 0.1313355312225055 0.005947883443233568 0.18049567873043984
v 0.19297172097258375 0.14568326385109637 0.14918415444499103
v -0.4670544410819171 0.04124636788801154 -0.10206188711700888
v -0.7177492749000254 -0.3338013811938089 -0.056641592863273735
v -0.2553140462625986 -0.3194618960947929 0.13331412609780308
v 0.18740961746490167 0.06538185931372127 0.18334055791859383
v -0.3899499625753183 0.12133601351787877 -0.10900812750920913
v -0.3702452285179722 -0.32373593361218056 0.08817283855950044
v -0.42245808965581993 -0.3275399105794454 0.06847604958970707
v -0.2897799541981469 0.22638403747749733 -0.10398178525261849
v -0.15392428644110798 -0.30464391685022907 0.16886627584762484
v -0.546189483826839 -0.05564690483905909 -0.09900515626716064
v 0.0706100004213499 -0.056895465640784945 0.18347278982185103
v -0.6545685104990747 -0.16958837223894008 -0.09745465014369184
v -0.011566255383419934 0.3411647689546183 -0.02537804368429609
v -0.6540227079423763 -0.33377117498259556 -0.029808965015818197
v -0.469919689631053 0.028458894177367702 -0.09875853381082088
v -0.5940178539363651 -0.09986470093811128 -0.09896463539802558
v 0.18537737834175586 0.27097052103522407 0.10092572442138645
v -0.5122341805720744 -0.022028916260997504 -0.1027409784650954
v -0.13595011263944412 0.328384236651226 -0.08286107827211672
v -0.1216581507336418 0.33328468375324344 -0.07060438202918327
v -0.14704422666831088 0.3275795977510828 -0.09057338920613356
v -0.4116717595501426 0.09903047264143049 -0.10323392770425027
v 0.1895883120775425 0.11519266689779821 0.1589321003514397
v -0.3738079813770589 0.4830206513857531 -0.11062350321735698
v -0.027981808365170707 0.5497525853039603 0.05520254460269007
v -0.2853475660478084 0.3993087018073655 -0.11257959688017298
v 0.03652782746777444 0.49118651515001593 0.06419517368284167
v -0.43575569826043237 0.5486106586436027 -0.11090301973199052
v -0.13280233291488558 0.324756076418954 -0.07791851161221278
v 0.10256039426036449 0.4280579445336553 0.0606684575961606
v -0.2379488575984994 0.3565847369639193 -0.10768862967477569
v -0.38959522986433603 0.6115335140484207 -0.06767699096356436
v -0.32393083589304406 0.6169771442034757 -0.03979010648361305
v -0.19960050609495336 0.6277836523262326 0.01643303233717898
v -0.0722634026288308 0.5946409022314461 0.057246861920542166
v -0.09165845614417717 0.3298515764626067 -0.06110808275332353
v 0.08053163570338336 0.350480738007196 0.019933596772515993
v 0.015017848106916169 0.5268471343256457 0.0640641215431103
v -0.40117621307604856 0.511944232171554 -0.11125414029485171
v 0.018551091676586383 0.3487485167416579 -0.008891463383696752
v -0.4790622143022919 0.5850082950625095 -0.10700008912549458
v -0.12980722406616846 0.6255591773071113 0.047715291662417336
v -0.044915339688710906 0.33504804156725176 -0.036777685736316845
v -0.344302409620271 0.45030450315609244 -0.11320693502525393
v -0.014244497953839629 0.3415572347507565 -0.0250439446222928
v -0.387995885845524 0.5025459927696354 -0.10703465366886053
v -0.24636807212263742 0.6211975746708672 -0.0021336025019624803
v -0.1645317663554314 0.627809365230994 0.03567639988499762
v 0.13440461437958076 0.35602825070389743 0.040057210312130505
v -0.29491789828198434 0.6145375426402714 -0.024390021070733434
v -0.22074511917871495 0.33874312771662746 -0.10558016770022857
v -0.3523146327497364 0.6147535575533656 -0.0442187646553781
v -0.4219907907083789 0.6134055862418877 -0.08089485603219526
v 0.07067546651809446 0.4663355071343721 0.06148267482870338
v -0.0025721009462075705 0.5308484001953314 0.06278904675308299
v -0.3216046017260345 0.4355383095136232 -0.10502849735728301
v -0.38638007080398484 0.6106865487557841 -0.06379114462523079
v 0.050804662343266936 0.3480250483329949 0.009927596291694405
v -0.44189615688322664 0.6028919203490533 -0.09122299135114927
v -0.10685969619888921 0.6228049519060532 0.05608580574254137
v -0.11506522541729237 0.32886439417358976 -0.06784190971475405
v -0.17856756445211103 0.31979367320480384 -0.10305845403411261
v -0.04093789306138129 0.5673104850067548 0.0585248357039012
v -0.34213610378914744 0.4529020915346315 -0.10584371087573707
v -0.28265545015451643 0.39756632071184617 -0.10691480852542652
v -0.26037106589773823 0.37252061701568706 -0.11062398171008932
v -0.42143051207130766 0.5214206271469641 -0.1037582180690574
v 0.10704372077270728 0.35180535073743924 0.031133475957267624
v -0.35512860553255854 0.6111403572442887 -0.04688681021782673
v -0.07932959455225784 0.3336813774876597 -0.05355346829119442
v -0.3071323007300751 0.4160087800710868 -0.11103330818265579
v -0.18714490912431053 0.6254441158003484 0.02446452863189234
v -0.37176892064320727 0.4809096574696873 -0.10869761320533146
v -0.20961307720742445 0.6246162996618 0.019089484308262673
v -0.32311509502048313 0.6174227039501533 -0.029833409824646245
v -0.22323505935535484 0.6201624189881039 0.008793160389795992
v -0.07276412665411276 0.5923996961124198 0.057605569119409006
v -0.27471806207555666 0.6160159513606244 -0.014368525882377144
v 0.006157451293676661 0.3414488211436687 -0.017613734912573613
v -0.4544962715039598 0.5580110187356456 -0.1118402410177528
v -0.11090893541268801 0.3380533935238855 -0.06385038732337152
v 0.055689038939625304 0.48559703915132885 0.06396046438733081
v 0.09399571892872961 0.35664858636160307 0.028078571753776753
v -0.04404145629342155 0.5701621766259128 0.05400730811844253
v 0.02706599674095453 0.504200644137148 0.06267630701394726
v 0.06651936334549803 0.3535007018246152 0.010798939486649886
v -0.08683972223017607 0.6078151271509679 0.05748883628456197
v -0.01912946540980694 0.33467900654528726 -0.022568497855973445
v -0.3960294165563118 0.5004616414164332 -0.10665035585984416
v 0.08867523279957311 0.44961859390061004 0.05561023191437306
v -0.4657883929653404 0.5705242672126557 -0.11144516939178586
v 0.13558647754649836 0.4115184099925232 0.06050022006550994
v -0.1717106156113207 0.3311386776477457 -0.09087107302330763
v -0.30175956557478617 0.6116149589876256 -0.03360965731380509
v 0.0026272702389548265 0.3408256760993561 -0.018050582025284305
v -0.33648343342368503 0.4419360760326277 -0.10762043856732298
v -0.14517081912005897 0.32778114177998346 -0.07965498851762857
v -0.18495682659773383 0.6268932647250669 0.028176008648179412
v 0.06497085638320244 0.46795901854815153 0.05907323578879285
v 0.16325885354236602 0.3619123395218372 0.05012357061684388
v -0.013916903546034205 0.5477101890082733 0.06198830731094781
v -0.0680879293375413 0.34168357486695977 -0.04519271928488115
v 0.022544296514071974 0.3426909200084818 -0.009040793038873667
v -0.4400999615458532 0.5314683466227336 -0.10827178264257709
v -0.0032740745087455857 0.5330946596744791 0.06019044516216438
v 0.04334069408687859 0.3452307867742614 -0.0020388219042708298
v -0.24569424593346167 0.3661010677504172 -0.11076341238332862
v -0.37028040731006845 0.6071768693532333 -0.05489947684013436
v -0.06478760358118853 0.5813304154167854 0.0564811975016704
v -0.2955324752927786 0.4139053091224775 -0.10840543921089947
v -0.22897178721864844 0.34066610094641164 -0.10619075909796906
v -0.40536583620395467 0.6066779049255547 -0.06826840866723974
v 0.0713486153485729 0.3552336051443323 0.01865642701220008
v -0.19562933779408243 0.6263938748914448 0.029190904283144022
v -0.28651906848888076 0.6137855484588581 -0.018108457924851655
v 0.12282722433537534 0.4219662485743557 0.06047424636547163
v -0.35348626494713936 0.46231439930083246 -0.11310262816301954
v 0.09584466129847466 0.35508777707319433 0.022818441923941685
v -0.34513435791330144 0.45423634950991154 -0.11199147546870408
v -0.27302692665767864 0.3893400376012861 -0.10403051299404317
v -0.4222305016901009 0.5272802302571783 -0.10775102948282528
v -0.3987944316950226 0.5126002688653356 -0.11331809758994581
v -0.049920880819556576 0.3366829944896797 -0.03272376599721724
v -0.1577910880519494 0.32481228168078985 -0.09199232024730046
v -0.00368584550960379 0.5300263143984457 0.05523111161581773
v -0.0486527689213543 0.5746049460290041 0.05628760881594102
v 0.09584316820385592 0.44113903814516175 0.05876023870315074
v -0.1715916415588599 0.3265508859148069 -0.09372531660874914
v 0.14019748926812609 0.3564399484848294 0.04478211855019672
v -0.39194407592107844 0.6071867423389513 -0.060865308341771715
v -0.36595107858067916 0.47109591646798815 -0.10514573963381488
v -0.16208534110943448 0.6262266607021275 0.03847843081188475
v -0.1831382073387327 0.320646221563647 -0.10326379003080566
v -0.21522865320731083 0.6182878552149492 0.012412868983848913
v -0.1386778573013229 0.6315072902134048 0.046249237760349476
v -0.3246974217079081 0.435275720753341 -0.1102291349604829
v -0.007358050811081061 0.3374971600362496 -0.016698302990258578
v -0.23388628738150735 0.3467444175221663 -0.11168389421894728
v 0.06173096032256541 0.4639702477466195 0.05799114142714675
v -0.18952746208647292 0.32282214575742363 -0.10944662031911408
v 0.14378375468198323 0.3865934029690361 0.06488604841243682
v -0.2666416962975057 0.6171399580046378 -0.013345363030493319
v -0.3066794897047388 0.421124074708281 -0.10674845655358178
v -0.37559200683970856 0.6027739265355392 -0.05205874750192292
v -0.417140148186279 0.5195645723260056 -0.11415500665703722
v -0.03625691504971977 0.3358338512434897 -0.035178102833190845
v -0.32129572056945205 0.43234376272155023 -0.11016906887442857
v -0.3101930531104081 0.6140438111069868 -0.031209723345710712
v -0.3008694025653747 0.4134846803937107 -0.10994699114543634
v -0.14777297993488617 0.6270829650320867 0.03786317965467158
v 0.10022209361537851 0.4297407509291019 0.0640390833238818
v -0.3834980186144094 0.4895937806112397 -0.10802493887756469
v -0.028749040866182945 0.3406940785085444 -0.02813674140290491
v -0.24202611445508854 0.3531643802563712 -0.1043060709673027
v 0.026898027542951918 0.4983965470479213 0.0582520196248119
v -0.24218566583015305 0.6223649071461665 -0.005696243840252648
v -0.0768715244443735 0.33700920343420215 -0.05519338384780191
v -0.09772420899896872 0.330194311328211 -0.06408139741432309
v -0.1190066217260293 0.32940668786836486 -0.07396152350263258
v -0.44259533293152836 0.5464366998133771 -0.10515016810415805
v -0.12190971916422876 0.3316187146981409 -0.06916020509667486
v -0.12007100780551955 0.3280174589145987 -0.0696703372125187
v -0.33765623853387006 0.6100308864455156 -0.04084883139961897
v -0.38577848678118043 0.49323661458501483 -0.10208828261228603
v -0.14668294561855869 0.3234299696946977 -0.08811092607217366
v -0.25068608875184883 0.6168980380284982 -0.0019280014685357338
v -0.28669171286841205 0.401204502593612 -0.11147393888929195
v -0.35355644941842873 0.7588594050532919 -0.10440001500288254
v -0.2263066705995797 0.9000353071126521 -0.10564504000627425
v -0.27665508710435144 0.6228840231983224 -0.014778593127539277
v -0.4704689136008483 0.6292096837216743 -0.11128991983779268
v -0.3688381646358245 0.6162479687046253 -0.05676479845729145
v -0.298800321190699 0.8222385796718933 -0.10138002068641522
v -0.11051381394121809 0.758114586864185 0.005658305761562853
v -0.4077069856811102 0.7008619985998923 -0.10725844606311703
v -0.17521990430400078 0.9527715148286672 -0.10468174493695741
v -0.14182389585256455 0.6288187853316716 0.04389742377658399
v -0.11632351339990853 0.8854427312670191 -0.050234298722375864
v -0.41557405751372894 0.6023643400875155 -0.07375283051440262
v -0.11790245784864535 0.8564782413078923 -0.03528087211366945
v -0.12006004322142919 0.8038700461657633 -0.013438719123794674
v -0.4368483392459903 0.6701466981712729 -0.11035802117361619
v -0.37376181916599704 0.740109558682262 -0.1071689334891995
v -0.11441073838072091 0.7102826230796613 0.022495191353764054
v -0.26368528689028253 0.8560773971391629 -0.1059258700667684
v -0.2345242942342836 0.6231608876535868 0.005680885858321967
v -0.3277843639752147 0.7910846582173896 -0.10695985384864037
v -0.28596126098368685 0.6141920244101584 -0.01315285190284245
v -0.11666800790094874 0.9391747831913227 -0.07324424696718225
v -0.416168119609943 0.6118043648421757 -0.07121576053843019
v -0.12137296553463141 0.9647280032267834 -0.08852016473881974
v -0.19954927710426512 0.9297739630932985 -0.10885579954832064
v -0.1784406410596054 0.625329931921967 0.024573687051455392
v -0.11014782952315547 0.6884699923314209 0.03631863965154092
v -0.3671290944624612 0.60993886611613 -0.05048175334357262
v -0.30055272208184225 0.8217102497559241 -0.1078724499586006
v -0.30953550176122696 0.616916090641497 -0.023464125012487992
v -0.39324824053323554 0.7219739787177679 -0.10414014840371134
v -0.11626290274324114 0.812903742147956 -0.021937602317304492
v -0.33998915854125983 0.6100787521453461 -0.04433560080981668
v -0.2603979734471482 0.620374667907603 -0.003384313934049173
v -0.16595920125247177 0.6257332940422747 0.028960056269571214
v -0.12056548737119155 0.9159326243430371 -0.06319852065118894
v -0.24472084369977518 0.8773894010406742 -0.10294599904121275
v -0.4520600351517148 0.6511109934127517 -0.10749043394322301
v -0.33354489878352084 0.7754475489323651 -0.10791880204978518
v -0.2619891100813187 0.8638413715148229 -0.10530230806122898
v -0.11875988529260618 0.8325280656159084 -0.02481885292812144
v -0.11758911462834332 0.7306695207462939 0.011894518711756296
v -0.11556787432989844 0.881683718748806 -0.04517981296821621
v -0.27390093121837805 0.8572514908953861 -0.10734230357299539
v -0.3566568267801509 0.7475456072176329 -0.10517696965478933
v -0.1130632662429107 0.7892993529431287 -0.009506803645109146
v -0.39431068535891106 0.7183809796243763 -0.10873957764815655
v -0.2995372224956532 0.6163398241915726 -0.026095607773209538
v -0.3920260476509508 0.6078752582595772 -0.06110567274406918
v -0.11134447235423763 0.9082804097658062 -0.05803332648478915
v -0.40609426056646525 0.6985177165636315 -0.10770240467528831
v -0.2483489604617342 0.6199794640234136 0.00040034766006340054
v -0.3730573139836471 0.7390669249072217 -0.10459580436999415
v -0.2101049397155997 0.6211124921731597 0.024493040762887785
v -0.21614691756585724 0.9087745814931472 -0.1092858325009669
v -0.22377834812174982 0.6215436254108315 0.00982167756475038
v -0.38949939720759735 0.6097103576119003 -0.06429941610561422
v -0.12196378436217908 0.7019334773725097 0.021978641921512748
v -0.1137175516427712 0.7286281155817077 0.012825443108475562
v -0.33055198449471923 0.7838380123754629 -0.10928045110353718
v -0.12405416764364577 0.855625954400824 -0.044613208070016404
v -0.21670657332772034 0.6258414367137287 0.013482692016112888
v -0.4251226257034233 0.6816116900701342 -0.11218799207358127
v -0.1103399924849893 0.6618052337228402 0.044537216975192674
v -0.2865055438233118 0.6160963540552767 -0.0171953606501112
v -0.2267697742044142 0.9007664335749934 -0.0965639497462229
v -0.11552704533730229 0.8275745021524135 -0.024554719625771507
v -0.2013756304905539 0.9279041835998334 -0.10093448433304128
v -0.1164650871064848 0.8835997108694876 -0.045814306055551826
v -0.2872240106915188 0.8286226722052837 -0.10898482744384931
v -0.11611443800255619 0.9341513807288879 -0.0752353018360843
v -0.15683415959834368 0.9768089464397487 -0.10826065270907431
v -0.11170985440155046 0.9470520521204291 -0.08228560350341933
v -0.4279458847308728 0.6761901449083969 -0.10651291701362585
v -0.19040172567834435 0.9354482130312839 -0.10394036635330238
v -0.15816363424429883 0.6308183495746359 0.037158562397938924
v -0.3548819409949651 0.6143812867862494 -0.046548826377788385
v -0.1133024226052173 0.6771418854742841 0.035009631881498054
v -0.31526639576637283 0.80523504926595 -0.10376758495365919
v -0.4567875667473192 0.6006918842954863 -0.08878673498828811
v -0.33196234419824494 0.6103483160891916 -0.03493078347461534
v -0.3221664446257234 0.6174778893800509 -0.033516175528704055
v -0.19020098261107912 0.6250036706586898 0.025941807574372873
v -0.14514789248188106 0.9867362299508086 -0.11313810403522105
v -0.11987153420629922 0.8147881470382601 -0.021855453720966055
v -0.11604852364675271 0.725729293504873 0.01389632869297626
v -0.11261444201600869 0.6886992979829181 0.0335304676557302
v -0.3609638129207109 0.613398936718859 -0.043842816345018826
v -0.24837921213087677 0.8815086969112118 -0.10827466394907644
v -0.12040863432517862 0.7714745987050923 -0.0022097280971538984
v -0.24054809824746565 0.6197197896009093 0.007280326141908179
v -0.27887884142826447 0.6154585952344562 -0.015609686672295469
v -0.37345927908131415 0.7424097659966976 -0.10669987114929085
v -0.11614796656726492 0.7036401489146433 0.026328365256142267
v -0.3135059440434834 0.6118576264807098 -0.02913046723813746
v -0.16803647129875557 0.6283352884557704 0.03502454589580317
v -0.11245383193075476 0.781608795378092 -0.004370819434070286
v -0.33528783506108734 0.6097309315549758 -0.040589018268205004
v -0.21789579682418223 0.6256001388179097 0.012137218048075963
v -0.13458696035082038 0.6279703822168767 0.04778369863887196
v -0.4436031078827795 0.6624517689326037 -0.11026305735839512
v -0.11657482238113069 0.9067078006182752 -0.05587025015217162
v -0.38147374700158637 0.7192680429636216 -0.10758288820849662
v -0.45641251619716056 0.6514095408149654 -0.10946005640690742
v -0.39793962329153565 0.7088721232760496 -0.112491684738034
v -0.12092236838618303 0.7588536327463059 0.003930371959936676
v -0.42850152303307987 0.6069978133180979 -0.07971505771105636
v -0.1930516728028442 0.932913631642022 -0.11045764010319993
v -0.11753003510871593 0.64612956167897 0.045826846400483054
v -0.22783527347376056 0.8917921965833377 -0.103764915698134
v -0.3001542659424078 0.8160378485004832 -0.10938565662214786
v -0.37795812300572396 0.6075637663128431 -0.05637691734934494
v -0.23212595935615724 0.6244208020816953 0.006790244470269918
v -0.39298967812908897 0.6038749818063639 -0.06418732681133313
v -0.47364229076577785 0.6020584877049631 -0.09847777806287848
v -0.3510475775818157 0.760013040189531 -0.10353220385666978
v -0.20150727754058562 0.9208673664182823 -0.10521576821109468
v 0.1520711840165959 -0.6767166548566905 -0.10375262850617722
v 0.5060361301232493 -0.28489313475680295 -0.09829060785741413
v -0.15893342156371815 -0.4115844108708093 0.1356411497942032
v -0.09776924509125257 -0.9513338415419332 -0.10476391363130083
v -0.13812322467252747 -0.684846636778451 0.022604745909859815
v 0.7097493580015324 -0.06321522484167028 -0.10346960181733877
v 0.8527329495661607 0.11225560739750047 -0.08786697912745974
v 0.02854637911750586 -0.8119672171071962 -0.10599714394152109
v 0.5845916953888586 0.09674941634105129 0.015442618930780836
v 0.05110424663918596 -0.08241569462369461 0.1776523069796952
v -0.14636531006731746 -0.5475239766604941 0.07890654923535807
v 0.717728194376604 0.10853568983068428 -0.041489684310790025
v 0.6163044701814957 -0.165479683004642 -0.0990617509770393
v 0.3716263603582345 -0.4312958673877424 -0.10363396803824733
v 0.27832483533620245 -0.5413068713552338 -0.1017900226688115
v 0.7796195727581616 0.021813282326283233 -0.0962432434065825
v 0.4365345770732114 -0.3534967683454799 -0.09874553157857185
v -0.030030863048065088 -0.8775322449699039 -0.10655403342173805
v 0.22097054019199466 -0.6057947977188706 -0.09772841837715808
v 0.3471580512710751 0.08503408212810089 0.11988766678374223
v 0.5599121132698112 -0.22544301373110834 -0.10284702433349273
v -0.14967535660946293 -0.609106480575373 0.04670986567382992
v -0.15763416709185943 -0.3327769242067382 0.17018694793862857
v -0.0258714263239103 -0.15263386720308558 0.1731071214576202
v -0.1307598946478794 -0.881107077981602 -0.06124438943576783
v 0.42045338451087716 0.09344973397813225 0.0879444088770485
v 0.7450402705093836 -0.022981374241804815 -0.09695395299139317
v 0.06343962344922757 -0.7717518447481686 -0.10468412447342604
v 0.40647017687671144 -0.3981191947597878 -0.10096856947784195
v 0.28254489682141176 0.08855748521798974 0.13710525758092232
v 0.11971222035885534 -0.002003545432940011 0.17564070269760945
v 0.31657891409814076 -0.4926180884083697 -0.10398692575139237
v -0.13792341278422002 -0.7626187685955659 -0.009938044615176313
v 0.812155675834243 0.051550915714874995 -0.10344614140351338
v 0.6728122547365043 -0.1028785505893547 -0.09648989089782148
v 0.08431526025715115 -0.03487348965049878 0.1803068341933026
v 0.6360237605750056 0.09831019260212796 -0.0035553687265473663
v 0.5247487187635789 0.10011933570029247 0.03926739780758221
v 0.522312624738558 -0.2634048891075353 -0.09963387231317483
v 0.11047389674348251 -0.723891325077386 -0.10424055722741951
v -0.15662670296520714 -0.37461409790681444 0.1499867778826234
v 0.2524063540484485 -0.5651127734790659 -0.10564297954673471
v 0.15306230898568404 0.03515871885095269 0.17558608455962116
v -0.06353698702057686 -0.9127526940686721 -0.10071677295103412
v 0.48665295599478164 -0.3052205302740425 -0.09961883534393362
v 0.7831776642364471 0.021874480947542418 -0.09819083883147049
v 0.3910725087521137 0.08857869484751008 0.09588594654580122
v 0.3250475473395578 0.08600410561341539 0.1284558796055067
v 0.6250800064754586 -0.1566591250450987 -0.10108665829701306
v -0.13623722274956268 -0.7240042684630988 0.0035065604936199883
v -0.1491145521795689 -0.5071026273693998 0.09232815079903174
v 0.18640585900263368 -0.6450517652313328 -0.09955991393554249
v 0.008065545200645292 -0.8286600348814699 -0.10237202180682656
v 0.15414775228184774 -0.6739733586961054 -0.10457493912603058
v 0.45845284566181416 0.08657787980216432 0.06847074512619106
v -0.15743912908050836 -0.45392133817299746 0.1164879989016235
v 0.34592930215045387 -0.4613931162876257 -0.09832160637537629
v -0.08042339377394803 -0.22292435302314234 0.17156466137675574
v 0.7492217148875585 -0.01079844707676354 -0.0988494224733284
v -0.13376014218377222 -0.837708858089466 -0.04655308419777048
v 0.6709789971065243 0.10441316894275995 -0.012188479499331195
v 0.2571444885231518 0.08451393205836198 0.15054668078533506
v -0.05854807391082859 -0.19617286449052884 0.17644638478839522
v 0.5942640338675467 -0.1857224050967377 -0.10059565502354628
v -0.00016213321818872735 -0.1330907799272816 0.17800581066410506
v 0.4825079287139123 -0.32049452721650634 -0.10294498402507285
v 0.5486835905819711 0.09924553436158881 0.03405527978710724
v 0.4178976667823781 -0.3861941119430056 -0.09944832291360378
v 0.20106671350445668 0.07782864494276222 0.17539752079121268
v 0.538097440442263 -0.2476315284548389 -0.10289614084183725
v 0.06218183335600617 -0.05731642360302224 0.1800947114023667
v -0.14835182443576617 -0.5847165325696871 0.06431094199299088
v 0.721527517151076 -0.05079110667181889 -0.09949478040422853
v 0.13597717480199642 -0.6977032451694126 -0.097569333742551
v 0.8093456284505396 0.11293697437007508 -0.07830318391544228
v -0.12832044216573554 -0.9029155632533212 -0.07470403462590594
v -0.1460650831680145 -0.29150267305348215 0.178851746677
v -0.1416922383047229 -0.81229008488131 -0.031142050512281385
v 0.7685130938796856 0.10676312662285835 -0.06506483998082421
v 0.4909416567268462 0.0978717757964316 0.059931287308862075
v 0.649661097272297 -0.12423091701185004 -0.10180703984090142
v 0.44450816575969826 0.09456255686184013 0.0799383946583034
v 0.034934393572664126 -0.8026345993981089 -0.10321161222176425
v -0.11245080233445513 -0.2566930783590295 0.17456835647131952
v 0.27513544930430045 -0.5391416225954084 -0.09976285082597348
v 0.07428597676651286 -0.7656228764753946 -0.1045772567887279
v 0.38827249806872943 0.08843910532964283 0.09604871785847348
v -0.14793061091843293 -0.5472339454059438 0.07410767113429186
v 0.389691728719513 -0.4193462726785559 -0.10186309462510118
v 0.7266825263681673 -0.04496644915301543 -0.10185944153840748
v 0.3555787451683603 0.08530988506375381 0.1105942544200496
v -0.15893931500093308 -0.3984279397166618 0.1360586982870008
v 0.25634154994571795 -0.5646640962401942 -0.10054380048581758
v 0.2049768696212017 -0.6117162434696856 -0.09874588887863213
v -0.1495771080795965 -0.6381439896631456 0.04039273712737806
v 0.8224874686676026 0.06958453431889604 -0.09799034695464062
v 0.022269384646353543 -0.10416393321227388 0.1733885304378241
v 0.11160755506508827 -0.722338771310802 -0.10528273070706971
v -0.041828845791916536 -0.17858018940607698 0.1778584064853304
v 0.39454628106415673 -0.41808479785249664 -0.10464210282737897
v 0.6122298336106041 0.10111137575552723 0.007415731250627603
v 0.6118697616329318 0.10188522348874707 -0.0027808909190068995
v -0.008191233380151177 -0.8493072914352888 -0.09418537311000856
v 0.2968986389556837 -0.5192954069720443 -0.10918687611934243
v 0.04440606613706589 -0.7881049779474342 -0.10601082904820484
v -0.1528032539481655 -0.4550294288721678 0.10793085101565789
v 0.32179912018979356 0.09144419916247193 0.12007749990288341
v 0.10144385561026362 -0.028444226982333797 0.1674244108299757
v 0.4706280752825277 -0.3274566377232062 -0.10598876393385664
v 0.6109576401661215 -0.1721114352727467 -0.10244757096072808
v 0.42402185022088035 -0.3738343769614487 -0.0989875235877902
v 0.5761436370016794 -0.21330456336105805 -0.104042731119906
v 0.17202796755927638 0.054405630780898356 0.17329959021387586
v 0.7901688179961045 0.031149950465828868 -0.09503685426247949
v -0.04313250234582509 -0.8977470214829952 -0.10394715951225728
v 0.4207634290302898 0.08949124579620668 0.08650448605776825
v 0.7546244505369067 -0.00798372068484722 -0.10462556891060487
v 0.7383843774989711 0.10344787081056654 -0.048923815106200114
v -0.12537442708374585 -0.9302576545373923 -0.0803354686209861
v 0.32816192928143534 -0.4848328900201294 -0.10160580948654262
v 0.6871503105714971 -0.08725285904364326 -0.1002225358658743
v 0.6929658723007978 0.09777784885383273 -0.032289500051762
v -0.1406442644912406 -0.6855394248073923 0.022259947176315926
v 0.4438296510180995 -0.3576164859150817 -0.10392472172049735
v 0.11566961603295539 0.004174588710151589 0.17302859967864018
v 0.33547650599674705 -0.4801097483483968 -0.09769080494447423
v -0.02835674929305453 -0.880258721732922 -0.10052668794661307
v 0.08234916209243891 -0.7552180120476676 -0.1041007570514072
v 0.24307183266322444 0.0798887840192889 0.15695546582793315
v 0.6321965084997657 -0.14696636311623903 -0.09877664020620638
v -0.15139450150848274 -0.660188366200402 0.027903365828796545
v 0.5494101062590454 -0.23643079270641237 -0.10018933048287453
v -0.15162598993507914 -0.4866029103453542 0.10159654455478684
v -0.14633697221378927 -0.6041689463890105 0.056035332242031305
v 0.6577667155703276 0.10186987751731068 -0.008460318305015917
v -0.1583189765520206 -0.39220250991849304 0.1378570815413362
v 0.3751658771799972 -0.4386259961553281 -0.10285011158600443
v 0.12169783937084265 -0.7037407797983463 -0.1082630079960561
v 0.2817413499326348 0.0815753196333124 0.14685437973618776
v 0.5950311522670032 0.09952349610520883 0.017298264325249484
v -0.09027482758462474 -0.23209738693224008 0.17226219791315062
v 0.45975306369804686 -0.33778379027983335 -0.09819631902093139
v 0.3048297098007204 -0.5069130810636299 -0.09996963990449335
v -0.1489101694696139 -0.5350359496898532 0.08037605291726717
v -0.14577807091083914 -0.587124526819012 0.060197271971152815
v 0.5138033206396009 -0.2794706046321481 -0.09726481422522318
v 0.4729866044870813 0.09290636508762014 0.06143309501129192
v -0.1305679603917857 -0.8649712617822198 -0.060140443654884156
v 0.7422956718375517 0.10725286679005357 -0.048341609543383304
v 0.1603781250407128 -0.6599973589825674 -0.10533589510248413
v 0.736482806979349 -0.03366993853249174 -0.09996743911772787
v 0.5440147838833911 0.10241888961020909 0.028786438859467658
v 0.3024166092585649 0.08702179429974954 0.1333796144320625
v -0.08021274569563101 -0.9388986046663148 -0.1023551669244757
v 0.5974340157727874 -0.19089215474847795 -0.10262109629019832
v -0.14655257183394904 -0.6338378579664692 0.03735468836264869
v 0.050114843349321536 -0.07466387735330698 0.17891006862467138
v 0.2376191047712623 -0.5849464143886501 -0.09852283975300735
v 0.37973811313553835 0.08555729594368588 0.10050336219630376
v 0.7740254420763351 0.011572342478088244 -0.10349695121164705
v 0.08956008450100406 -0.7377010292499809 -0.10705844892788162
v 0.1715456634624888 -0.6568342295789288 -0.1052379779206019
v -0.008521158752909024 -0.144549132733147 0.17659611307511908
v 0.6993695878239061 -0.07629902662807823 -0.10164766873336381
v -0.140800574937071 -0.7143196232798812 0.008947160185219964
v 0.09326804854883843 -0.039403030257305634 0.1746922497012852
v -0.13638041510984023 -0.791468202484149 -0.026097858531161193
v 0.6389968944455295 -0.13681071259729755 -0.10176176146813935
v -0.1625961024049466 -0.35223014909564687 0.1596894753950865
v 0.22480496063853148 0.07894419314269795 0.16489865986576574
v -0.159717477796564 -0.4160333778731401 0.1330724449349254
v 0.16683494951414807 0.046704866562282864 0.17236091455922967
v 0.7045852195153136 0.10145327675788716 -0.03506456555558369
v -0.0593865712395875 -0.9060715422435822 -0.10485485170670446
v -0.1605844893156714 -0.34186715287647335 0.16275379414248106
v 0.764121632378831 0.10243080141444841 -0.058545897376894245
v 0.2645380445325809 0.08468322916701511 0.1454131537552579
v 0.5237361608479408 0.09383798994871057 0.043252781981621975
v -0.14165620875980897 -0.7940609360642085 -0.020644545761119328
v -0.15696243645822414 -0.2961427577384007 0.17700661141504923
v 0.6433803548887381 0.10075175390300117 -0.005693120418039657
v 0.06420423471652441 -0.06568833450792043 0.17792834124878942
v 0.7988038362379758 0.10600233800050457 -0.07139703344068622
v 0.6314357764725648 -0.14946443332927714 -0.10061557647867637
v 0.5215974548844305 -0.2651410021668104 -0.10222242136750428
v 0.6661926666352014 -0.10892988011643803 -0.10102021007569141
v 0.3517169664208644 -0.4561669779726265 -0.0981687244622539
v -0.14041152718828545 -0.7044909688034656 0.007576755331268869
v 0.5833838987139093 -0.20911915356608043 -0.10024303247295696
v -0.15875925489978354 -0.36803777262077886 0.15212170591843768
v 0.050707244875560595 -0.7893969933742001 -0.10217405144451606
v 0.5315293157676273 -0.24755579417720808 -0.1076063141009017
v -0.1330776707828514 -0.8258787252390148 -0.03864484066019859
v 0.2913375112814698 -0.5205230948584386 -0.10559336111449703
v 0.35069178826811387 -0.4532877414325105 -0.09593125080347498
v -0.13484457848280515 -0.7641675115446266 -0.01898401950596482
v -0.1344134880036282 -0.28033664413770154 0.17704424002228494
v -0.06913737870245742 -0.20841686268316573 0.17710665681194682
v 0.4899032945993521 -0.2964538066530293 -0.1034996645026067
v -0.1510301078905521 -0.47036292019029463 0.11636466874690968
v 0.7993537359596097 0.03786298389285298 -0.09962379643307233
v 0.1542186797808967 -0.6853757045658653 -0.10550770738020111
v 0.4497877167633923 -0.34135028966899894 -0.10216020693660785
v 0.29801640703955734 0.08353344722629387 0.13477507130117292
v -0.10865815163650515 -0.25063537540733644 0.17542999816281246
v -0.15453455789480505 -0.44656804861916366 0.12235716711259711
v 0.6575826626351454 -0.1238350698506111 -0.09830930464433778
v 0.41261516592761466 -0.38558548035839224 -0.10238179705649564
v 0.5630114891642366 0.1027845380013272 0.024529855155353282
v 0.605555131511318 -0.18065042555793864 -0.10103604653821309
v -0.1376801079013873 -0.776492563081918 -0.020552161534850982
v -0.1589681708435481 -0.47143168791260776 0.10652548443362522
v 0.07240247459680271 -0.05208573625461803 0.17618354801212982
v 0.3940247470624177 -0.4088430257093352 -0.10773979834641595
v 0.1371926468309673 0.017434195335624507 0.174692108733247
v 0.3977728972527004 0.08642531666086861 0.09365927198657806
v 0.15514283457204286 0.047444303383259744 0.178210503639782
v -0.13713553658357033 -0.737118617160714 -0.002558297831145079
v 0.015951975638478028 -0.8298879572650728 -0.10192277722461371
v 0.5572557014667383 0.09873869162515272 0.027976382770949017
v 0.030246210801549534 -0.09806983797094014 0.17673030961507624
v -0.10603067397897452 -0.25027608059309686 0.17257966544282963
v 0.444760715990624 0.08980432980947856 0.07857286142896433
v 0.011045488204598157 -0.8435493321124963 -0.10702379230229113
v 0.6473412956858915 0.09989689124492268 -0.013024791041664072
v 0.24033399412739248 0.08352495341318242 0.15525508701082838
v 0.20469141061432367 -0.6166689981340101 -0.10433216311451242
v 0.002101878782264745 -0.13037214589202215 0.17798899738747473
v -0.050715882132034054 -0.19005837272201584 0.17703182857984623
v -0.036389688273103016 -0.17193084652513094 0.17694015046428274
v -0.13133477054224246 -0.8280550422821531 -0.034005710561922586
v 0.5452712786585896 -0.23808759980183083 -0.10135185503075762
v 0.7655933501542312 -0.0022252707699483214 -0.10149777073198966
v -0.14813064211081256 -0.5050434775942935 0.09073424069366881
v 0.36381952676094514 -0.43943911489495374 -0.10293319438630523
v -0.01629567788600355 -0.8650032053969576 -0.09758740969936894
v 0.18480543324363966 0.061962535310426746 0.18441095883185968
v 0.1938366384672889 -0.6316107723542974 -0.1016035523099446
v 0.5266841549326245 -0.2619878560898345 -0.09717119990401372
v 0.022560506152326847 -0.11671407712908131 0.17370201819447725
v -0.14784863206003176 -0.5614846232612991 0.07447751903560068
v 0.8181071394399194 0.057610324162766055 -0.09875224113100031
v 0.3395727749511839 -0.4787356470157974 -0.10450115808447605
v 0.2661407562430199 -0.551703618730766 -0.10249741313940608
v 0.7188323793340435 0.10566174522206741 -0.04277881795812613
v 0.11957038902266737 -0.7098669000891721 -0.09867475444223868
v 0.49346771878962065 0.09881025773026898 0.056050021689524776
v 0.05893507822308343 -0.06999086099141916 0.17332086597979962
v -0.12577674550332632 -0.8978126355851532 -0.0651720350662183
v -0.01143177717448533 -0.8619160229705629 -0.10174422866806315
v -0.13124898334982207 -0.8493074550217551 -0.050643900570681494
v 0.009539704186675626 -0.8354317939317419 -0.10990786464308062
v 0.22027670066633198 -0.603032786877155 -0.0993357583917988
v 0.6608786514466981 0.10815651326231306 -0.0145382074493179
v -0.13509903068785042 -0.8412310612272963 -0.04997198121030838
v 0.23445475124166498 -0.5801428915293654 -0.10330687807573574
v 0.6514915882627094 -0.1282738940883913 -0.09757257796903704
v 0.7068468804605862 -0.0713409377623682 -0.10046131125946092
v -0.1459579208618895 -0.5668952303068744 0.06802810964689059
v 0.43828412134276057 -0.3593821279109334 -0.09695805062245352
v -0.03004124683741058 -0.1643850231249906 0.17539853165312777
v -0.14058957398966668 -0.6489488957162703 0.03607741622413974
v 0.37071545082181245 0.08577071333225654 0.1054228363066381
v 0.2419273312845971 -0.5793875599394706 -0.09950046788924143
v 0.3779989852558954 -0.4243419850064717 -0.10302425981849396
v -0.16510004250561852 -0.3259458018302917 0.16913380241499687
v -0.1552882427260869 -0.4969467883772068 0.09506991435208842
v 0.11682347052849515 -0.7233473657741533 -0.10400871624488117
v 0.1639322767871724 -0.6656003835224247 -0.10404520484842075
v 0.042525508499438584 -0.8035009395813204 -0.10604234002518373
v 0.42801213823973266 0.09115566811154209 0.0828286071147233
v -0.15945617136174034 -0.43910573656547236 0.1202514340961174
v 0.20636525647584877 -0.6204067144669893 -0.10278953814849588
v -0.1399392500391685 -0.6967743848487423 0.014523616534692536
v 0.7220480843097197 0.11193820414922433 -0.040508546087341044
v 0.027027306782989265 -0.10671017558047113 0.17550839679306068
v -0.15669714740012305 -0.38709446354356164 0.14846167322662496
v 0.4803231225170574 -0.31777239254829787 -0.10541322262071866
v -0.15066591653934286 -0.5868234379364455 0.06222005652573008
v -0.024558670432195152 -0.8637517051398274 -0.10089912626040132
v 0.34246750312655205 -0.46290455979361284 -0.10195566163894809
v 0.3377740133353389 0.08828454812608294 0.11593980449322862
v 0.6940827541708092 -0.0818336961216126 -0.10369884026439684
v -0.052200275199451696 -0.9047294772234915 -0.1020968004898497
v 0.7990545283111243 0.038041822435611175 -0.10328106305597576
v -0.16348361430656408 -0.3995518548098246 0.13958824308228418
v 0.28739396117569677 -0.5275354920690749 -0.09951617098181607
v -0.01685051946944903 -0.15624193848374587 0.17880434165151685
v 0.3892050095024165 -0.4193636983068286 -0.09877170864581859
v -0.13562214247328702 -0.6666999568798594 0.02858869473329021
v 0.4328880197263233 -0.364468968870419 -0.09992681609934027
v 0.7248319710436472 -0.046575622804651745 -0.09920116534389532
v 0.30984685323485 0.08238998215753075 0.12732096896983383
v 0.5849419332658703 0.1003918837698673 0.011383524596676456
v 0.1889256140648287 -0.6306174564507315 -0.10001749758232932
v 0.0994480166387401 -0.021383497863488282 0.18106374253042232
v 0.04502399641240546 -0.08801221526804016 0.17275622423293216
v 0.6172127320781414 -0.16385297932662893 -0.10488931252685134
v 0.6372490740979084 0.10226074959668428 -0.008650225608552132
v 0.013516629132284007 -0.12506291616848839 0.177284550265049
v -0.14999029714131518 -0.5600508039937157 0.07547558396596948
v 0.08348816545764311 -0.04527838542348462 0.1754029020973394
v -0.1494585784256274 -0.5208228442811376 0.09495433754548793
v 0.8298208517754321 0.11497160873181325 -0.08453027242570803
v 0.7804221473499784 0.11045823672664921 -0.06311458912124689
v 0.5031051253957515 -0.2894474013701049 -0.10325233527867511
v 0.7388318328565388 -0.026824144904769934 -0.09911027296669402
v 0.3525004660336483 0.0902859248710765 0.11155483008574928
v 0.4960613030541843 -0.30486865874942165 -0.1011444790463183
v 0.28677500791376187 -0.5314325527666902 -0.102450319834173
v 0.5305894343253306 -0.252592425648577 -0.11201910370361097
v -0.14541314769148872 -0.5445230629045341 0.08303162019615955
v 0.5677110099297417 -0.21951427690125713 -0.10598440522048602
v 0.8100971060180597 0.1139338534404761 -0.0760669486853707
v -0.13566294895377753 -0.7981287275554912 -0.02604151229613209
v 0.569270535512944 -0.21743301598237078 -0.09518528234789767
v 0.7587248684230843 -0.008400249808083803 -0.10116481885432868
v -0.1395392454545825 -0.7432053793725352 -0.004240017622864357
v 0.2721171763711362 -0.5381337883751266 -0.10406158790407835
v 0.4167033974094401 -0.38525891322185785 -0.10012373906408603
v 0.5811537352682071 -0.19857255065525817 -0.09831862036011259
v -0.038142273367194064 -0.8905226829144438 -0.10308666475963692
v -0.15717428515893472 -0.42483658577000777 0.12905456686716832
v 0.7380504145868342 -0.023654970167431472 -0.09829067039471225
v -0.1297720559607133 -0.9005165871518346 -0.07100408522311824
v -0.143302697399959 -0.6133507437325891 0.03825704253864431
v 0.6903272468891767 0.1040626670870857 -0.031005124314243737
v 0.6811295649437381 -0.09213373234762591 -0.10078670505900246
v -0.1481080048431971 -0.5128721349335492 0.09086829562195983
v 0.4055848803554606 0.0877165702186676 0.0876992623851977
v 0.11048379693548006 -0.01323648659986427 0.17634325653180422
v 0.1760237254855739 -0.650300387980805 -0.09985963831765972
v 0.32899344890335014 -0.4758852937132008 -0.10071763949361291
v -0.13742960285868053 -0.7514522952473409 -0.008762615865813148
v -0.1391128216825659 -0.7758555020860498 -0.020097353428075348
v 0.4674520494384931 0.0891709113655337 0.06570097377067138
v -0.09698305089765924 -0.24035747180308978 0.1788667071846896
v 0.1123795278204204 -0.7114663371641278 -0.10396307497798515
v 0.4993481458666286 0.0969259464925114 0.05509999826617569
v 0.6837927170564748 0.10549474941147799 -0.02045296484754556
v -0.15664310357283798 -0.3939977861517087 0.14039274968704746
v 0.710460688547501 0.10888609333652298 -0.032829277684187724
v 0.17229073980885817 0.05682659240919772 0.17706476602463006
v -0.10924484760145912 -0.2577995018965641 0.1735153088089166
v 0.46605633622497705 -0.33615014457753767 -0.1031920803242078
v 0.6782145829885049 -0.10129397324442811 -0.10063105327488753
v 0.09408991767729569 -0.7457315423082909 -0.10173828805654204
v 0.48709116211385367 -0.3107512398540282 -0.09587261520703187
v -0.16217588628087884 -0.3282681040060146 0.17811673777378959
v 0.7262163006818325 -0.04107893272412323 -0.10316518699529524
v 0.7129091944644221 -0.050472527069488356 -0.09827327413146265
v 0.4528696635720566 0.0911118296947425 0.0712367489800789
v 0.36406191863267584 -0.4355587204824142 -0.10524261620116063
v 0.09902225783724951 -0.7307359366109387 -0.09980620594653036
v -0.13868145415182623 -0.7216130927426909 0.014675413726002371
v -0.40716074673284797 -0.7236905046265905 -0.1033867117298792
v -0.6341902873800889 -0.513197604283223 -0.09741838953138031
v -0.2630982225527191 -0.8495504648399784 -0.10301989309711784
v -0.31370548580885077 -0.31467335747859526 0.11291945313663977
v -0.6625963809752436 -0.33538432576639426 -0.029057708705013303
v -0.13434476949995341 -0.819596737689589 -0.035976000682265905
v -0.5628416582890021 -0.5796481820636643 -0.10048871996390353
v -0.48000604216216364 -0.6605012157114641 -0.09985686550325
v -0.5765229928675769 -0.3366544072107722 -0.00015363749657860883
v -0.3354208751483021 -0.7875127143527981 -0.10188585281660875
v -0.23782799176112707 -0.3163300558732995 0.1423258559270287
v -0.19417916727848253 -0.9115178548951862 -0.10671682617477778
v -0.7360924106186465 -0.4195849737173918 -0.09936582722711905
v -0.13451614999745135 -0.7438884538824626 -0.001045160043982897
v -0.41124028152707565 -0.3282774020886469 0.07363325716415342
v -0.15249811610695982 -0.4813452240869978 0.10692381771057997
v -0.6830729703170516 -0.46147174666987334 -0.10184789994971453
v -0.13836325967153393 -0.6874307008874883 0.017148125528998463
v -0.5163200765256316 -0.6252999004996704 -0.10108936942894146
v -0.14560612617009053 -0.6006288115229376 0.05073330021998987
v -0.520334734312684 -0.32774658872452733 0.02649636476392355
v -0.7775665572681296 -0.3806614501324879 -0.0952732159063683
v -0.6983104230122409 -0.44822150706608355 -0.09915718822822094
v -0.593367218674762 -0.5502066692591859 -0.09781123501230185
v -0.45080878918573797 -0.6893116143859326 -0.10511903185091001
v -0.21037967191406565 -0.31466828433301186 0.16035658648119794
v -0.1577825556816313 -0.9465989389182673 -0.09898291315764216
v -0.13575716961658843 -0.6528256377957853 0.0334136057642176
v -0.3757168477181177 -0.7479922728883677 -0.09821231791099584
v -0.15060004925980036 -0.5059462367838032 0.09108322887349668
v -0.13193222536529403 -0.8547712467729361 -0.05588229204472351
v -0.2896023613071276 -0.8250720066905414 -0.1086163348329032
v -0.16444751757895187 -0.37411138223639173 0.14692161057380693
v -0.45434986462264815 -0.3294255178499483 0.04936533926247587
v -0.6256999879662631 -0.3303461465575647 -0.00919827393257134
v -0.15555436905819367 -0.46416386189159714 0.11160611679839219
v -0.22911846394025787 -0.8888106574598464 -0.1014714686570808
v -0.6521080759862685 -0.4860689008848247 -0.10015791441169056
v -0.1359264798466533 -0.7846759515697203 -0.020473583502362145
v -0.12698180107499324 -0.9187442570028628 -0.07786778939496099
v -0.6755824140224242 -0.33388175607921833 -0.0330085953689759
v -0.7063219418852796 -0.33462080501072466 -0.053677408103928084
v -0.2661120202102569 -0.3163192199044615 0.1290480552552391
v -0.5457891240337193 -0.5923178163364897 -0.10344591985169045
v -0.4677241750846921 -0.6630324795021942 -0.10234523299178598
v -0.26683737326124807 -0.8518645752912064 -0.10135969437715076
v -0.3830099409721197 -0.321486030467757 0.08110641352893826
v -0.14045414473585344 -0.7330925158621374 -0.0033640741240998293
v -0.14038540702305394 -0.6999869378287508 0.01495785353466247
v -0.1534791007327005 -0.43094390510374536 0.12126007834800973
v -0.5272723530362659 -0.6081135387311817 -0.09437455285442184
v -0.4893802912885237 -0.32464338499818984 0.04104357054696605
v -0.1553606621231645 -0.5187107726484959 0.08430158986969499
v -0.6317754000326339 -0.5132295566123164 -0.10126084888891274
v -0.12212942241590236 -0.8850744569953378 -0.06671613427273092
v -0.16685397056532572 -0.37678998724645474 0.14906808899890248
v -0.23653446687835789 -0.3179425946574155 0.1484152265494376
v -0.5464022749003282 -0.32788690019996375 0.01568809575314696
v -0.7048149350710308 -0.4465271685473011 -0.10372925634985579
v -0.5802088679274858 -0.5539205150537855 -0.0975042638735956
v -0.49213549495539416 -0.6411706020049527 -0.10248929132755477
v -0.38200390315698785 -0.7412955892955856 -0.10881390924929457
v -0.5999581463859798 -0.33211931514305826 -0.007705010676307588
v -0.31206610700102355 -0.8051778319022508 -0.10044393660960683
v -0.43877215269714365 -0.6883607889285264 -0.09471334879318904
v -0.14775164633868934 -0.5469687696389633 0.07814431883375547
v -0.13396178136017603 -0.807833665987677 -0.032385361647179214
v -0.14429527925461555 -0.5798841251717809 0.066625492350238
v -0.3569459373684494 -0.3246945126489359 0.09677706900301385
v -0.5014446025280093 -0.32899897606881146 0.03751484079102068
v -0.15885503161159584 -0.39824582911364215 0.13899389041522442
v -0.16130767683998312 -0.34619839254781626 0.1587450094596624
v -0.13437845661685016 -0.8548453953256735 -0.05570652000377689
v -0.7378891279509224 -0.33666650944099163 -0.060865101910495045
v -0.6263258687395037 -0.518724800533021 -0.1026381611124422
v -0.421502810599051 -0.7057613438251537 -0.10159362557911605
v -0.13435955362234484 -0.7573176694901498 -0.013396753236479658
v -0.22566355214059586 -0.8803595832154376 -0.10514637330611531
v -0.383721114717815 -0.3206899752948406 0.08245188168307449
v -0.1480476918609114 -0.6246247970931509 0.0396543852505545
v -0.5092844909396287 -0.6258580669041051 -0.09949039850003105
v -0.4338575009106028 -0.3246518320820079 0.06451400078015278
v -0.3492037947450124 -0.7716610611679442 -0.09662903732173433
v -0.6435450946079668 -0.33225536968598846 -0.02984979544337046
v -0.703240773358279 -0.3353170184534538 -0.04303842774553015
v -0.24898163069527215 -0.867853538767709 -0.10167959248940414
v -0.29638282322185266 -0.8336888679460335 -0.10485872492474922
v -0.5971217623324353 -0.3332260048077284 -0.0053516613855007795
v -0.13479723643962135 -0.727326426125051 0.00577312681222592
v -0.5360302882783159 -0.325707006283866 0.016958226048663746
v -0.5675172343004683 -0.56935466056009 -0.10096621211857076
v -0.17437018505296928 -0.9346521196895441 -0.1025509907334711
v -0.17679659111495624 -0.31729683984998 0.17104664876568676
v -0.4074396052200292 -0.3222770002937445 0.07508170932531562
v -0.7418210839165813 -0.4192959872879021 -0.10324393252000241
v -0.24169801586097317 -0.8741231778505395 -0.1032582956159333
v -0.20602751119194393 -0.9095864449182431 -0.09848154239229259
v -0.751553516658975 -0.3969685858744438 -0.09943201165632705
v -0.13287402980028443 -0.7785982833959352 -0.01887686566987422
v -0.67768391825242 -0.46286863895275826 -0.09774706756233936
v -0.6861686470305837 -0.33618462437171354 -0.043896603289032506
v -0.416310034600763 -0.7073023315267527 -0.09764318452699032
v -0.6588456734802093 -0.4899503438200274 -0.10163590824517307
v -0.5777970765984071 -0.5647688949194447 -0.09753498768189342
v -0.12513525055016533 -0.9089232472171028 -0.07081794622372295
v -0.5990983949443286 -0.5353082846549767 -0.10115783519819027
v -0.1403677791001109 -0.6669366494699922 0.027578572076862817
v -0.12802034269906296 -0.9478292935673368 -0.0885494331842135
v -0.2911577441190863 -0.3175887878180891 0.12144016061353968
v -0.40454054147831336 -0.7234140931776122 -0.09698217721606683
v -0.30021693028147733 -0.3192384628638918 0.12000396757156144
v -0.7638719458782637 -0.3894159691349445 -0.10032013869404936
v -0.21655905171216916 -0.898278489651412 -0.10051222181042471
v -0.7202347292366986 -0.43109378950392374 -0.10036989648300518
v -0.14598540275671862 -0.6212976517425108 0.04625888252293857
v -0.35465488785010235 -0.7635636119148794 -0.10774109401438643
v -0.33611978451239527 -0.31802118624254194 0.10460803520120243
v -0.15154277465146448 -0.48329998986406275 0.1063084957567347
v -0.4620883656852722 -0.6660812982483387 -0.09396152284304964
v -0.6515499433174362 -0.3343291400681654 -0.029240146723330345
v -0.7743961454413547 -0.3783864581526542 -0.09428305208157575
v -0.23489917436533414 -0.3146452756874087 0.14720245586724898
v -0.1525328213670722 -0.5335074752307055 0.08928490023591397
v -0.5526135279917179 -0.5861823691583175 -0.10345172705824028
v -0.4722103683180213 -0.3308013881606698 0.04840483287913078
v -0.798563941872845 -0.36410546594530535 -0.09597481144308995
v -0.13305026083510238 -0.8342765554936011 -0.040402830715101666
v -0.6415028100746908 -0.5035451960814068 -0.0936366177357499
v -0.142843237212929 -0.7137168778147787 0.009794523597542066
v -0.15855975455729646 -0.4473687977701905 0.11591869511362238
v -0.2767553965479967 -0.8364766159121029 -0.1063245665953566
v -0.6516648810213894 -0.4944723845789406 -0.09745960397780506
v -0.5427387991970911 -0.6008575023765348 -0.096544835026574
v -0.15966922523851926 -0.3992861508528047 0.13937321330128902
v -0.15375405484573906 -0.5539869340118525 0.07260279942646254
v -0.21891551716677404 -0.89721407555581 -0.10517699706918458
v -0.13377798010902964 -0.8049150621577815 -0.0301118574946222
v -0.7466537619196421 -0.4099312147626048 -0.09506756418230919
v -0.6278886284640312 -0.33666417829662726 -0.021324187153759958
v -0.2551384749918747 -0.31462106004134 0.13364622757262692
v -0.14431743927839247 -0.9658469038275739 -0.09917787038696446
v -0.561227591181096 -0.5798680975287579 -0.10107405764386544
v -0.33859881570709266 -0.7863766502258186 -0.095064088553902
v -0.7690757635912651 -0.34116807754428413 -0.07558719753136084
v -0.1451942728670736 -0.6766094117765008 0.023130705394288034
v -0.32835846313957007 -0.31842992647962653 0.10811908811296757
v -0.12143003440169349 -0.896222596017603 -0.06502921587749635
v -0.5028987902584058 -0.629059345283951 -0.09596853532361854
v -0.21788239384301217 -0.31893750144844524 0.1482742464535076
v -0.446745962055463 -0.6772326634005098 -0.09452723514727278
v -0.3220657901021843 -0.796786634974385 -0.10239567875572858
v -0.4705574764760446 -0.6543777299341746 -0.10190238084156074
v -0.1703822877312188 -0.936393806804121 -0.10047336008060716
v -0.4252139369756046 -0.7042284706021461 -0.09458350850760443
v -0.15291726609387257 -0.4831948820761197 0.10114278007099185
v -0.556280651653702 -0.5917338762802006 -0.09752179321679515
v -0.142668059414176 -0.6383625593827221 0.036205757572856705
v -0.153051880705309 -0.5092874945995826 0.0988175253449548
v -0.5749896325810769 -0.3295505118567281 0.008876213154252185
v -0.6973105569782392 -0.45894444209498764 -0.09320054822865725
v -0.32076050792163685 -0.8021633690420127 -0.10405746878903632
v -0.13690369661206025 -0.7682754718191189 -0.016892313822297923
v -0.1366616989830211 -0.6827320525803854 0.014806260128976581
v -0.5341126690596595 -0.6059154983077861 -0.10402937688016041
v -0.6628224716827736 -0.4810373883162663 -0.09895982557933433
v -0.47729887406737836 -0.3227307067897749 0.04487462731531832
v -0.5264017969019674 -0.3258602675573706 0.025825203877232607
v -0.12604238281250651 -0.8692994215073856 -0.06243029562507666
v -0.15330686604921742 -0.5876303690325316 0.060809978846116136
v -0.46552160653256625 -0.32349955069597564 0.04981964282991589
v -0.13581437334993718 -0.7293076614052102 0.0025595110715055163
v -0.6206228956385441 -0.5174988666334742 -0.09830849018419505
v -0.3680372189605918 -0.7492513737926262 -0.1037385092143377
v -0.4809202465466353 -0.6498429506499641 -0.09909792633126122
v -0.1363640309882233 -0.7337719883018807 -0.002807440724431561
v -0.14842213783324257 -0.4630214203321575 0.1067896664418651
v -0.34391869136423675 -0.31480293574995655 0.10177549552131372
v -0.25242734862480476 -0.8567535344596869 -0.10389298684114709
v -0.6808525822461888 -0.4725035377064691 -0.10204751020670803
v -0.2719338309935541 -0.31423853724019213 0.12679257814295372
v -0.5807135627700726 -0.3339688676037362 -0.00026251538573136184
v -0.12960413922503952 -0.8501253561992631 -0.04522308050721643
v -0.15921501090369036 -0.4208140029789369 0.12456442962935745
v -0.23915605247698724 -0.8747962365802593 -0.10124346997388847
v -0.1330298725315996 -0.8349463168390853 -0.04519580937682173
v -0.1578198961128565 -0.4907725567187046 0.09651644860294407
v -0.5732956026301878 -0.566417638291972 -0.09903309090974416
v -0.5002461574800959 -0.32751832588145074 0.0314776018751661
v -0.20424423636873504 -0.9023635294184829 -0.1065372632642821
v -0.3802552700176079 -0.7461875440330326 -0.09935003766047032
v -0.1406748304545141 -0.6699647419569389 0.027862961601599255
v -0.1498416017070362 -0.5868451893923277 0.05828422220662058
v -0.7199175184847538 -0.43158947661537983 -0.0933246746451892
v -0.13238751758004333 -0.7980318913023483 -0.028247658664725703
v -0.20842550600044613 -0.3151309354177931 0.15863170798217338
v -0.6662748229724786 -0.47734898243347634 -0.09771949106035943
v -0.2184532505112173 -0.31710492084358305 0.1537233733082782
v -0.6155330586327847 -0.5379282260434948 -0.09789453185320017
v -0.13466987967655322 -0.7618498884161404 -0.009445837174976556
v -0.2655318296512183 -0.8503201815631914 -0.09636899653632269
v -0.6360860233236698 -0.3344563790183973 -0.022737916006243676
v -0.4276648043691557 -0.33003779620146745 0.06622560012129282
v -0.6170852891231559 -0.339962322202464 -0.00985369046434727
v -0.4895542198254548 -0.6471675514451738 -0.10086312882694007
v -0.1649417742083317 -0.3501871959633587 0.15856438142861604
v -0.6381090473271376 -0.33763002164630673 -0.02153782102372782
v -0.5296296076620944 -0.6045477457259403 -0.09920687861838784
v -0.6222641429686686 -0.5175071554106249 -0.09167858025948608
v -0.14548610721516214 -0.6297985812017446 0.04416038179639271
v -0.4534651308018919 -0.6713516513365346 -0.09792564906591511
v -0.2535013013738702 -0.3177864886430219 0.1362532428517518
v -0.5187510262172262 -0.6177854115904625 -0.10142840976542464
v -0.1559564693796248 -0.5341428507445402 0.08258128837499139
v -0.3215844800663355 -0.8003556885714971 -0.10294213925152379
v -0.5000835917581964 -0.6387513019308989 -0.10128641696155795
v -0.4559738101961204 -0.3178225042237368 0.052485363667156934
v -0.1537089194686541 -0.44406014944654865 0.12068123570070005
v -0.23009323285943753 -0.3210546731278439 0.14423239597957213
v -0.14350926981153753 -0.5936921932225279 0.05813439427287457
v -0.129083435708478 -0.7889828126977488 -0.026109953296642438
v -0.14607077040735184 -0.770097540083305 -0.009924272463976355
v -0.590393251091033 -0.3273321994852957 -0.0024531484518405767
v -0.14477903621367552 -0.5137247344203605 0.09134987996886111
v -0.5435929667291208 -0.3266831111962219 0.014660042409461256
v -0.6663772823900986 -0.3352385502526615 -0.03551074251241169
v -0.27851431028365037 -0.3173325633511942 0.130084609613113
v -0.3640254943140432 -0.32583217699446254 0.09006827970306933
v -0.25238935012318303 -0.859671604524578 -0.10027183325375609
v -0.15634077105720579 -0.4907903919889204 0.10418897850749503
v -0.4870387646571661 -0.32270019396380806 0.043651829897045274
v -0.3433931723701428 -0.31949296978029007 0.10119580040826785
v -0.3976863742504774 -0.7313395587019469 -0.10532514355054917
v -0.13322088934135395 -0.7866599815682511 -0.021867274942473598
v -0.6173840254713672 -0.3258432100280873 -0.01487085501501512
v -0.28699439992035547 -0.3164779403210732 0.1200011303347546
v 0.24743933496211723 0.6830363033415193 -0.099877722617594
v 0.18478585360238128 0.27614456540783094 0.09603296785241526
v -0.024153355352797487 0.9199306009370981 -0.10110782949262705
v 0.47683523226590124 0.4722763996136335 -0.09784168934378117
v -0.113097491305914 0.6906497457843431 0.031544896766977096
v 0.2849326650902195 0.08241416287100502 0.13629072157355826
v 0.5889299011207122 0.36394371637604633 -0.09992783749861871
v 0.3567019462502291 0.5813016440229252 -0.10498024750241836
v -0.12125181022778225 0.8176808193781266 -0.01821106786546436
v -0.11852996509329415 0.9954112345955429 -0.09894997542621362
v 0.7732247568570516 0.19979566364935317 -0.10270346653455256
v 0.18029594376884414 0.3617434146725929 0.06517301323062874
v 0.1727522911425022 0.7455943493156812 -0.10242078353507562
v 0.046984919394971854 0.8632941965763034 -0.10150142125674665
v 0.5043861864150012 0.0966483042528807 0.04781346146523697
v -0.11721655777418687 0.9044243714044224 -0.056606813066391856
v 0.6444770234882715 0.30980717633703914 -0.10049669644898192
v 0.6475841504495994 0.10174128483679298 -0.009244388925709343
v -0.08646115129905592 0.6068834112480274 0.05581052200832118
v 0.1863616660143863 0.19897806642531465 0.13078041583215086
v 0.5300109318431878 0.41668985986361684 -0.10396841627328987
v 0.720085499474862 0.25055312154097836 -0.09685804644580463
v 0.41720250378083884 0.5219862847146269 -0.10015650333046071
v 0.15518013312698417 0.3980422916245835 0.06422747628032137
v 0.36242216348389183 0.08690567322239519 0.10847715794206683
v 0.7882971959469431 0.10914660031973622 -0.06346311663477938
v 0.09651238637595304 0.8178981676614796 -0.10618872744489546
v 0.5610771639476742 0.09780883422623786 0.028044684505653797
v 0.3039185809585746 0.6224695286844889 -0.10259079186760296
v -0.11933928208215985 0.7544889052473351 0.0069600087555150856
v 0.23434660477176744 0.0818449506700525 0.1603775186101886
v -0.07365334394016826 0.969442938351767 -0.09841743636948246
v 0.46528121860732374 0.09350424526185104 0.0659337671403381
v 0.1256913255686551 0.786170307674002 -0.1005352480812602
v 0.04009652230715628 0.48910748386229896 0.06116634403457929
v 0.210301127370799 0.7175512444755763 -0.10274056703409254
v 0.6098480878094911 0.10234528081800798 0.00844857160419845
v 0.012478094781274603 0.8928467702603129 -0.10122135627385136
v 0.6160840377223342 0.34042896474031936 -0.10204446104187137
v 0.7570781096274133 0.11016954708110926 -0.055317757931034627
v 0.8027984444375688 0.16334648040696856 -0.10221163940151506
v -0.11947174928116808 0.8964169003999793 -0.053947963438710646
v 0.6873501671168587 0.10081083735022489 -0.02450117705981006
v 0.3877983566665797 0.547609074096962 -0.10249815454494726
v 0.1833161272611024 0.3137929084457737 0.0888675336383388
v -0.11676315297082994 0.6600402562565816 0.047120293333607344
v 0.06871354229309803 0.4718982474595293 0.06059690610743563
v 0.18549540534097989 0.357931159406318 0.07214262409566283
v 0.43809678498467375 0.5085761632129535 -0.10067328037859354
v 0.2756122366400008 0.6531933324000462 -0.1024869592668889
v -0.05789381712838877 0.5841996653259964 0.058923666133555465
v 0.7466012627047919 0.10545973273231385 -0.054290630436519355
v 0.18676664315395847 0.24019115516170783 0.10899587538382112
v 0.12806665644524634 0.4130544639169822 0.06112606403711161
v 0.6990035174244731 0.26544213626379304 -0.0995380315370608
v -0.11550699422088527 0.8635003543303359 -0.04244155159270566
v 0.4942867388176182 0.45014604459222984 -0.09691526288711962
v 0.7445624708447433 0.22585427228114877 -0.10333905435672662
v -0.11926075830237258 0.7297729345403474 0.012514150716214208
v -0.01414481842481433 0.5326234241833452 0.05770020534263019
v 0.3412533191050328 0.5922955876564333 -0.09634927398568559
v -0.021930315820506967 0.9173713185727193 -0.1068208968242324
v -0.11532003110066713 0.7735778078678117 -0.003363367357325504
v 0.44401554893336237 0.49347281903329165 -0.09916626224807794
v 0.5592211907846907 0.38883390936900636 -0.10146568650481416
v 0.4314896144625589 0.09042428170073288 0.07900430034545708
v 0.6770774896482873 0.286544863260565 -0.09966100002075343
v 0.32336379038711066 0.08831781867957104 0.12337878977707971
v 0.07163102372886133 0.8412683329860412 -0.10289063393718674
v 0.20970007427130133 0.711408809839984 -0.10384043443585135
v 0.40934158764938366 0.09136783311215677 0.09094257024876731
v -0.11944318521981714 0.7889110604856799 -0.004010228123614025
v -0.04254651463805321 0.940332538210196 -0.10625713433106249
v 0.1927509164794591 0.21912777541905754 0.12412735787790781
v 0.10339330784649621 0.43680913135197247 0.06336528665590736
v 0.8354588777926439 0.14596032894897132 -0.10207007890057541
v 0.1910501392755203 0.13188705994725172 0.16213415542288273
v 0.18270307669358812 0.34369631713242554 0.07465000835751108
v -0.11323868198719876 0.7072378216672938 0.024254028410600457
v 0.6333473053291916 0.3295014720920322 -0.10699290453120766
v 0.011724724857548802 0.5238260281363286 0.05727904933162466
v 0.7207762923463007 0.10628065847488127 -0.03554559640487355
v -0.11934119222792237 0.9222819221888412 -0.06757130139998385
v 0.18981623822089944 0.17951545514211278 0.13505734305398334
v -0.04088763366851339 0.5623154629567471 0.059595509584048786
v 0.575760231237135 0.0980846682403756 0.0270012647084164
v -0.1122937724499073 0.8311154114186724 -0.031042107647780492
v 0.06667638970074637 0.850681354332605 -0.10342888943817756
v 0.760078884806983 0.20833416955635864 -0.09598267663125426
v -0.08124521882115238 0.9724867188408189 -0.10282676456647696
v 0.5379412102622498 0.09986140225718844 0.03795799811483849
v 0.13430504484565306 0.4063951417399051 0.05785621489911216
v 0.6696239531032926 0.10687544252078852 -0.014728265608119349
v 0.18723462620513348 0.26142298195604347 0.10255541779172936
v 0.31726633478315736 0.612909820957426 -0.10605961898358282
v 0.10415301634268247 0.8027751868473096 -0.09959473389359375
v 0.5067267735255683 0.4394926285212903 -0.10119000328225751
v 0.03386449773939372 0.8764585682468881 -0.10245823171649121
v 0.15180991143510272 0.7646122098480943 -0.10324644735897008
v 0.4781132735068857 0.09560590094641079 0.05675483804814112
v 0.5089754349026723 0.09575169770548547 0.048787949526759765
v -0.06392580157647602 0.5938733619868387 0.05596730853407705
v 0.7195360217654517 0.2501151055703691 -0.10303242958552321
v 0.2395469844729523 0.686431954380115 -0.0980871154362648
v 0.1786680223239618 0.36144165365629294 0.0632598921945869
v 0.1872247700006063 0.3090464142728895 0.084325032719281
v 0.5525041660258697 0.39797284474087824 -0.1032701751946673
v 0.22582127774450733 0.6940634538268465 -0.09773524975584255
v 0.37142865344691034 0.5623779163881542 -0.10276311215852538
v 0.2720892343792802 0.08614463544647878 0.14488794160308763
v -0.11953903505564205 0.9347910225120494 -0.07192590416347606
v 0.02391947052755257 0.5105284099829738 0.06252314494881005
v 0.184687827972252 0.1542300328824117 0.14513937490876264
v 0.786779467534097 0.18651907068914872 -0.0969141162269338
v -0.11391616838910032 0.802570337362061 -0.014307531994302727
v -0.11180024260231129 0.6625447939166619 0.037843392919957704
v 0.6937501210469497 0.26471050388474743 -0.10290457946064858
v 0.262144450187508 0.08660262577953638 0.14681590056958277
v 0.6267948391186006 0.10985462271203594 -0.000402058204039424
v 0.0880122086637793 0.45109873111753207 0.06683620843478541
v 0.099612934570054 0.43592089946370716 0.0610196668238014
v 0.06515094885026959 0.4687899647950803 0.0596040468361513
v 0.45896999633594804 0.4904751060898542 -0.10323880944471737
v -0.011960857282258621 0.9068282013038537 -0.10083283236036727
v 0.29474149406166833 0.6341625881692373 -0.10087547883695433
v 0.40471547247245415 0.525196136566701 -0.10285858882442822
v -0.03040900633301474 0.5532769486825752 0.05865355147595033
v 0.19132302541169155 0.7334687015513273 -0.10441060587875398
v 0.4861300426713275 0.09740040595394626 0.05732842860098347
v 0.6078091379518841 0.35254347570261707 -0.09717042616555834
v 0.0795611526255747 0.8347407933753261 -0.10818959305415125
v -0.05489695181214403 0.9516591133061417 -0.10372211340122325
v 0.18124914795533237 0.34267985177528265 0.07106072183417024
v 0.2734556069886548 0.6584208529220047 -0.10082580500349049
v -0.11293057035758887 0.8362555003992744 -0.031089163493160776
v 0.4932714575157389 0.45553629352393127 -0.10038847936864159
v 0.5777091979633734 0.1022837574395672 0.01711123679372834
v 0.7322293895952469 0.1053385345652931 -0.049316217946935616
v 0.7574894332070783 0.2166744761824741 -0.09833226670734332
v 0.6004269728908842 0.35731390284638415 -0.10191393836958157
v 0.2847380471382754 0.6339847888476802 -0.10414691049818962
v -0.12083442207631176 0.7247287663830307 0.011582897036736102
v 0.6566169243657165 0.2974400202955578 -0.0962050650853282
v -0.11425966072617251 0.688139278678822 0.03009303956939513
v -0.1125474369012078 0.6289749565119895 0.05262081616453469
v 0.18803047224037506 0.2970695429303072 0.09449094676328129
v 0.5755986598065954 0.370340270783552 -0.10402956441725479
v 0.34635395086156623 0.08328885006904495 0.11381650096108106
v 0.18552847142609208 0.17345556448817961 0.13911150180806808
v 0.024030533929330626 0.8775575387037915 -0.10331759883935428
v 0.33714269653349177 0.6012840782863991 -0.1001432607656503
v 0.11651912715928892 0.42071220662280445 0.06121498368494983
v 0.25288294217094526 0.0788829395267311 0.14986986338538047
v 0.25656873961690035 0.08274948030265562 0.1549340686175455
v 0.2548648182096505 0.6679588309093046 -0.10239930979972053
v 0.001754742471134536 0.8942751518368153 -0.1027736927736493
v 0.713464244101759 0.10440786228159307 -0.03501056888833384
v 0.39835308324427254 0.5456693301790582 -0.10150100105464445
v 0.37794166668504986 0.5561578253434626 -0.10254924568680177
v 0.379471451364576 0.08835964920398325 0.10421395511451265
v 0.18964788317625517 0.10540797914178773 0.16856831535969136
v 0.13925823750208666 0.7710914442311831 -0.10459122255438942
v 0.04874370406642872 0.4823561812100343 0.06041824183670724
v -0.11330921724634052 0.7461046986873433 0.007061752630477907
v 0.12429791191005424 0.7922707011207215 -0.0984106724153486
v 0.6370430292657256 0.3259709234029598 -0.10354177695527858
v 0.546208609473421 0.3971740383380021 -0.10247282644126023
v 0.813639699426492 0.10358375263309358 -0.07313987399426829
v -0.11897205387173437 0.9740925486267568 -0.08807464095919118
v 0.11218402918425416 0.802623129069641 -0.10356064771741252
v -0.0853275746983614 0.5979535740804627 0.060658385937532956
v -0.006676314085860598 0.9097645106030334 -0.09919910496683033
v 0.1803734568244091 0.3664990681932664 0.06295984519621714
v 0.6644437769290676 0.10283718816102773 -0.01319269769283547
v -0.08405146586072262 0.97969517469546 -0.10118241030353496
v 0.0002854396406645578 0.5290885297265006 0.05653677932277578
v 0.16703461223951227 0.37802422440703953 0.06213290049018778
v 0.05275863862105511 0.48416183237049043 0.05986704063758419
v -0.12191109814802363 0.8469576820479615 -0.03950182578946852
v 0.14283444200527767 0.7792222197694398 -0.10421378327749041
v 0.559207352416032 0.09572008269549984 0.028090979321103555
v -0.1203913606430188 0.879604903835461 -0.05722235826550795
v 0.45560394461553894 0.09116265024927897 0.06630584966945688
v 0.10062645716644547 0.813795849440676 -0.10428567120254087
v -0.12001611536666683 0.8965897813537826 -0.05297483711712477
v 0.42496789378067135 0.08583972466130337 0.08046558652531548
v -0.11497928329263853 0.6483729365300058 0.050038510498115994
v 0.1672466063951047 0.37930372529557294 0.06863574547395031
v 0.6515100357458807 0.30428089920028156 -0.09966093552780651
v 0.1438753070915498 0.39949471684854587 0.062225000867037444
v -0.0557590145726331 0.5765481088189235 0.056789813583104455
v 0.17259047420267018 0.7500528188315934 -0.10163535136779125
v -0.026301902272268085 0.9297611002154109 -0.10537733272072501
v 0.31838151516918056 0.6021418351913179 -0.1031820704863217
v 0.44133192763485896 0.4964381732960867 -0.10186372903282398
v 0.4758214422995788 0.47547109710238267 -0.10301123131193274
v -0.09425321069561925 0.9864237876140961 -0.11105058518025523
v 0.31646511338985883 0.08310772118088068 0.13090597596139136
v 0.34988642222350075 0.588765210944824 -0.10281984336601198
v 0.7430965519756682 0.22396306649140652 -0.10499713869355722
v 0.48716590976829777 0.4663477614650761 -0.09805212766859231
v 0.6208288882850171 0.0973038610448942 0.0009016399532818264
v 0.529152014716554 0.4160564930418298 -0.1047828515724906
v 0.6646473016763969 0.29782928516464663 -0.09935512323334862
v 0.5905715618242389 0.09793521276721985 0.013312209727503833
v 0.4436966480023159 0.08821630027114848 0.07528039904961625
v 0.7493406815086606 0.2122633110277552 -0.10452845015637396
v 0.7808392545031804 0.10681674389941227 -0.06293842671290947
v 0.5143490628480453 0.4375665507561763 -0.0996139861417458
v 0.27204309091980594 0.08430733869153419 0.14761706730424173
v 0.22075000090173355 0.6964365179372536 -0.09661369308814034
v 0.1845166753318398 0.3320830779146069 0.08016918342646093
v -0.023696508752229742 0.5503717055607631 0.060709803542986995
v 0.7580470725060907 0.1132070137400373 -0.058053648698968736
v 0.3018749413688404 0.6270215517576758 -0.09921906191537688
v 0.270812295085362 0.6586932620006629 -0.10336117602182376
v 0.6478543569395052 0.31354031771790436 -0.10364452011055163
v 0.15935070338328444 0.7579552239236864 -0.10197503471839212
v 0.6500002927799127 0.0991522967216209 -0.012805544271909967
v 0.15476541401468738 0.3834670661934319 0.06448564116462233
v 0.5915752673774869 0.09805359263750088 0.01335412384665631
v 0.4621824529937216 0.4800599604907045 -0.09947648691323976
v 0.19348810824979898 0.15679555752440008 0.14707800180649475
v 0.6764811778853431 0.10099692629853087 -0.025901284056400412
v 0.8097251823176076 0.16995199069796554 -0.10444869447171566
v -0.11719865509727344 0.6820974494685764 0.03782236501460836
v 0.8006801682656589 0.10557183646124686 -0.07278281433823065
v 0.17060947367242693 0.7437592114975914 -0.10780874183667603
v 0.3666769677306152 0.08433143522137748 0.10562562050986564
v 0.19087380123942238 0.2240138179374546 0.11870537781426513
v 0.8324826063781684 0.1184700538905077 -0.08846747919738739
v 0.18707870203151816 0.2341857459839884 0.11376695197307413
v 0.7338020932905327 0.2398634396258375 -0.10468790167798339
v -0.03508886089103296 0.5602179369018653 0.057290622620277565
v 0.0911496790865549 0.8248673664766704 -0.1033198804184185
v 0.4914087188998864 0.4526648445935687 -0.10060027857298832
v 0.370796471254438 0.5721376748170124 -0.10018020673742714
v -0.11593030800926504 0.8720026926132036 -0.044116244872571084
v 0.18967524346025766 0.19946091775179448 0.12994565051763843
v -0.008054981145927561 0.901162337103695 -0.10535948357957624
v 0.6179273907365 0.336904036627684 -0.10012973181261729
v -0.11898545956557405 0.7726546812854216 -0.0017434387187950547
v 0.03484681254822745 0.8728903387014499 -0.09884620079968542
v 0.410047923393335 0.09677899125720321 0.08649670343456846
v 0.05188442624443445 0.8478676341836616 -0.10386423112357818
v 0.723794306000276 0.10375553504722447 -0.04106589558759344
v 0.6374821252590369 0.09984317874738424 -0.011309966411144989
v 0.5755153462334491 0.09631487909503388 0.02319230527825716
v 0.18249852481325352 0.27764653514902377 0.09234139198486573
v -0.12006321613105721 0.9501223018789164 -0.07950135708793976
v 0.446359408442649 0.0907204758358295 0.07686701291619953
v 0.051397741481788405 0.8586171488934691 -0.10247591101438142
v 0.6173695115283657 0.33782642400358204 -0.1037828108894153
v 0.5214377514946521 0.4352597762970063 -0.10448495450530246
v 0.19351117620074829 0.21724106222569267 0.12574185092570464
v -0.04213834135728465 0.9410820841141425 -0.11239479388120821
v 0.01993479171543888 0.8896399630708574 -0.10118751353041809
v -0.09176378235561278 0.6099401573964434 0.05631695990890847
v 0.08623123592668971 0.45060128255530635 0.06083109764154016
v 0.7270863747018337 0.23451942870293938 -0.0987212025665255
v 0.19178972763602925 0.20695179015218643 0.1257189247050892
v 0.5193475019301377 0.09284042278493344 0.040799904856317445
v -0.11754154781014703 0.8734743442847486 -0.04127236904825263
v 0.14687011796745839 0.7734679927299789 -0.09956106299423607
v 0.13756838745465502 0.3968175204152646 0.06737686674453792
v 0.641088602290817 0.32334123437595264 -0.10265148055535177
v 0.5685404247670544 0.38078457614277894 -0.10373355714066061
v -0.1188890949051104 0.9200988875220565 -0.06684275687035515
v 0.7481971647536811 0.10366195566436781 -0.04855679837953825
v 0.07515652752903475 0.4637295300584997 0.05898962816922176
v 0.17076548358178348 0.3767460102571528 0.06530872158720247
v 0.5399632732009652 0.09259381669872974 0.027948978809618774
v 0.12732414582426016 0.42039829107460447 0.06575762368938132
v 0.7746882618516636 0.09779893395666087 -0.06420735494509662
v 0.7074770565894888 0.25658021434729783 -0.09667390128102568
v 0.18779970795635062 0.3192933000850993 0.08102556791111885
v 0.4489432159568296 0.09149690064465991 0.06744847736682377
v 0.7398978254866259 0.10460593490445848 -0.04693305888959121
v 0.33080712270516405 0.603572314374107 -0.10138844131911422
v 0.1807427987516907 0.25185493515807267 0.1097925974217213
v 0.6043030986001527 0.10442313121432245 0.005356108021541931
v -0.11741772471813189 0.7009063214890108 0.024627198082877784
v 0.4136835515136076 0.09055620508573438 0.08318990717771782
v -0.11696596682774635 0.963897847776993 -0.08161879155792234
v 0.5235557910576142 0.42120667200674994 -0.10319486696293736
v 0.776579280310447 0.19390599864887162 -0.09742985113149313
v 0.29856927989437826 0.08971830280724127 0.1358522608455461
v 0.7277179993595295 0.10573490886186539 -0.03900508950159918
v 0.22456005264470968 0.6952169900080144 -0.10169325667301898
v -0.11683723928427657 0.8021271441029133 -0.011411024111773329
v 0.006857008760411231 0.9019370032519064 -0.10694619327910372
v 0.24627158255313175 0.6840093717182806 -0.10001466847881087
v -0.11426639443408217 0.8116579182066721 -0.02163274940681992
v 0.24316103694400554 0.07844970830932964 0.1604969356873389
v -0.12041268722870435 0.9043361798060725 -0.06571084214908954
v 0.34204964232359397 0.09251113351617932 0.10818132483432893
v 0.8154197648739308 0.11327846993409293 -0.08051465270565325
v 0.2080244555688253 0.7231506137639443 -0.10467436376428202
v 0.18470159941344858 0.3005625431795106 0.08541123208372989
v 0.5587551177576259 0.3908707349191432 -0.10326851603774907
v 0.4589962794901676 0.09189556974661726 0.06723012835151901
v 0.48880882370561507 0.4653812913015601 -0.10287856403112541
v 0.7164192899946386 0.24947378572587262 -0.10344996161156104
v 0.17662228169896632 0.363081651743355 0.06814513445715124
v 0.3098129399346128 0.08456469190256449 0.1310855256734224
v 0.4332921678503727 0.5086176543183829 -0.09550687507182484
v 0.17642718347010047 0.37512652459680507 0.06279879842620187
v -0.06038052092319114 0.5879903971830027 0.058634848319666574
v -0.08384515350006949 0.604892622248422 0.051975001867705366
v 0.37913661253446473 0.552613024037803 -0.10273650986412089
v -0.09181590105634616 0.6117153876484613 0.060155493746869564
v 0.24118411425423514 0.08152023238640624 0.15486160532941326
v 0.7676187986707356 0.20563375964567776 -0.10232608463503345
v 0.4107920731050681 0.5256314170309755 -0.10187085992605811
v 0.0370806970147527 0.8674347781221627 -0.10568561268851484
v 0.1791056306964633 0.35952773189032106 0.0653749985439462
v 0.11588551617781852 0.4267657604723832 0.06193392620026067
v -0.03025944151010748 0.9289375560396336 -0.10039933988973052
