v 0.19475361704826355 0.07996945828199387 0.17738179862499237
v -0.16275696456432343 -0.3124163746833801 0.17508059740066528
v -0.1234443336725235 -0.9814701080322266 -0.10324729979038239
v 0.8671371936798096 0.11235769093036652 -0.0998799055814743
v -0.11369660496711731 0.6305845975875854 0.05656974017620087
v -0.4989970922470093 0.6003616452217102 -0.10991305112838745
v -0.20045720040798187 0.32007768750190735 -0.10818716883659363
v 0.1824224293231964 0.3632042109966278 0.06347332894802094
v -0.8180941939353943 -0.34082138538360596 -0.09688837081193924
v -0.12022276222705841 1.0145742893218994 -0.10410640388727188
l 1 2
l 2 3
l 5 8
l 6 10
l 5 10
l 7 8
l 7 9
l 5 6
l 6 7
l 3 9
l 1 8
l 2 9
l 4 10
l 3 4
l 1 4
