v -0.03389142453670502 -0.4296712577342987 0.12153095006942749
v -0.32914936542510986 -1.0148533582687378 -0.4842711389064789
v 0.33879584074020386 -0.5967448949813843 0.36949479579925537
v -0.3579242527484894 0.06264601647853851 0.1115182638168335
v -0.3818645775318146 0.5182287693023682 0.3494694232940674
v -1.0350444316864014 0.10823732614517212 -0.46180933713912964
v -0.7792884707450867 -0.2986735999584198 -0.4681340157985687
v -0.6368645429611206 -0.5327804684638977 -0.46583107113838196
v -0.4352140426635742 -0.724980890750885 -0.40151622891426086
v -0.5795607566833496 -0.4991120994091034 -0.4150092601776123
v 0.3152978718280792 -0.1304669976234436 0.1328447461128235
v 0.9691635370254517 -0.20215627551078796 -0.40914255380630493
v 0.02784324809908867 0.30699601769447327 0.12283198535442352
v 0.2606201171875 0.9095451235771179 -0.4180409014225006
v 0.7361480593681335 0.1686989814043045 -0.4147496521472931
v 0.47652050852775574 0.5758185386657715 -0.41770339012145996
v 0.44147607684135437 0.5407741069793701 -0.017712939530611038
v 0.7011036276817322 0.13365453481674194 -0.017279023304581642
v 0.6137128472328186 0.36356109380722046 -0.41770339012145996
v 0.7278575897216797 0.4319811761379242 -0.44109976291656494
v 0.36139288544654846 0.9719992280006409 -0.44023191928863525
v -0.7193163633346558 -0.2706196904182434 0.013971739448606968
v -0.44372469186782837 -0.6749173402786255 0.017982415854930878
f 1 2 3
f 4 1 3
f 4 5 6
f 5 4 3
f 7 4 6
f 8 7 2
f 1 9 2
f 9 8 2
f 8 9 10
f 3 11 5
f 11 3 12
f 11 13 5
f 13 14 5
f 15 11 12
f 13 16 14
f 17 11 18
f 11 17 13
f 16 19 20
f 19 16 14
f 21 16 20
f 16 21 14
f 4 22 1
f 22 23 1
