v -0.2956499725158969 -0.9925358357707045 -0.44123507563907544
v -0.013584818401915583 -0.8133453305330761 -0.07866831098744603
v -0.08874551966911469 -0.8643725455360569 -0.17330595632726775
v -0.13562237773379127 -0.8925714172279351 -0.23021695239914997
v -0.17034860433151117 -0.9147110468451187 -0.2828277468401475
v -0.21523580224774166 -0.9429400287845839 -0.34424726344762474
v -0.1552545711185228 -0.5218847084614929 -0.0425206236370217
v -0.2392529060624136 -0.9597076351468184 -0.36231795466060723
v -0.28826960116975386 -0.9883836193796697 -0.43218717142337026
v 0.005158303477575003 -0.8019892845258465 -0.054222096460610304
v -0.025055799436707073 -0.8268102236055423 -0.10181036533327355
v -0.11169872547788344 -0.49015824128851954 0.01697355483890103
v -0.04316931940550889 -0.8347282598482831 -0.11913792766921087
v -0.09945924157603198 -0.8727515462869181 -0.19506202448940851
v -0.14776802113250984 -0.9003090009484834 -0.24613362340479908
v -0.18266992335566581 -0.9199185441658498 -0.2951502695427681
v -0.25906227611666416 -0.9658611652749205 -0.38526427294514776
v 0.2566577780556315 -0.6522145336192938 0.26416109821730094
v 0.19044669629340136 -0.6947109919616185 0.179701172087599
v 0.1239588420821957 -0.731643425716927 0.09099441400594059
v 0.06075499182402717 -0.7707223953537072 0.01104794669945437
v 0.292476279826589 -0.6220129072756441 0.31471898195680226
v 0.25621213409752064 -0.6474398659353404 0.2654809773928866
v 0.24376069083736235 -0.6574827103962047 0.2483165044271279
v 0.19464105291022574 -0.6821234679207896 0.18117491794232762
v 0.1561152446809669 -0.7131169025060734 0.12925484994889216
v 0.12746501416840256 -0.7282667932819974 0.0981764345678824
v 0.10537240623351905 -0.7450852265693418 0.07055413148756114
v 0.05060486785444695 -0.7760527317617096 -0.0008070459388740577
v -0.10198473514767117 -0.47413887814635663 0.02936078304978922
v -0.1366842958765454 -0.5077271569107897 -0.011246377494365101
v 0.32060358044642434 -0.5623857735308685 0.37447591403846936
v 0.29937921853770677 -0.5382324713315347 0.36510000159829364
v 0.011872150003602356 -0.09123395745363623 0.3611919844985071
v -0.18094327448015532 -0.20052372662481943 0.12230387203012263
v -0.19467466519856852 -0.17853283565636557 0.11817797060459721
v -0.235765121405841 -0.12005606454153318 0.11168992175279843
v -0.27319492705326903 -0.06845053595848558 0.11662918879199306
v -0.3078033017324926 -0.01950586219240171 0.11039469442845828
v -0.2555393614701413 0.3167848009431243 0.35530036399903553
v -0.3572774663150736 0.051475237389439654 0.11674481249158147
v -0.28947546180931233 0.3751019269593155 0.3527885572234367
v -0.3198339832928544 0.42393120121537503 0.3518174624249639
v 0.013492411140915673 -0.09208136131701875 0.3600334615604843
v -0.10585265843203966 0.09738571962256201 0.35632683928818315
v -0.18051029600400073 0.2047121808381321 0.3517124634698573
v -0.24314782532559784 0.30729628243650825 0.3561428411132359
v -0.20447225669765245 -0.16932141691550665 0.10834768699022256
v -0.25872077347882966 0.3296368114194525 0.35032685535217484
v -0.2842622597851665 -0.05028666801877767 0.11593196209165357
v -0.3431512236301783 0.45697267514112117 0.3516464509166004
v -0.3564569477310649 0.06092539359609623 0.11344788398721307
v 0.2473648838008736 -0.45914934549398906 0.3664462941890064
v 0.17026861806015414 -0.339208057760218 0.3600725226310568
v 0.24440190556272726 -0.44633403675152816 0.3639701784658257
v 0.19833293804587196 -0.3773178224449105 0.3700098946703369
v 0.13706412406943597 -0.2890900096126029 0.35870430808891673
v 0.04199521210381865 -0.14189005125603354 0.35685188792582434
v -0.5668796734016633 -0.11446334403274383 -0.16947022113356217
v -0.6428197687159717 -0.18396481178484675 -0.2804318577209873
v -0.6814595364836905 -0.21793818485428823 -0.337770766961713
v -0.7098204883724762 -0.23587441636230244 -0.37752776954691997
v -0.757788391016919 -0.2835507774010065 -0.4391427374962924
v -0.8156581193993864 -0.23787447489022986 -0.47175688263108084
v -0.9383720576089796 -0.039370709631867694 -0.46194974270302114
v -1.003262405384265 0.1319786908179477 -0.42744537038925784
v -0.4948037967852327 -0.056760876243744124 -0.08013866872772347
v -0.5514868159734551 -0.10696801070858554 -0.1549786374387224
v -0.5909105701551813 -0.13707714288898404 -0.20794650717097787
v -0.6038517425339305 -0.16053634687035473 -0.23788699115682888
v -0.7084641098502636 -0.2398563908709433 -0.3756545045099837
v -0.7318229367988887 -0.2596948441049854 -0.4005063679305309
v -0.7568413889702175 -0.27553731416154237 -0.43430177102011885
v -0.9128863117387173 -0.08600307579832221 -0.46393499544688505
v -0.9342192999050564 -0.04472986605740949 -0.46163983056535124
v -0.9562384171314507 -0.017149168382491912 -0.4625992812145516
v -1.008653954113938 0.06797009216429108 -0.4612698194256353
v -0.3972154572971182 0.02029378244996236 0.05706655577596879
v -0.42773614888396816 -0.0007673130435173835 0.008056175183630701
v -0.40863167766877584 0.5052210069921852 0.3177522626432741
v -0.4608208293094156 0.4734573958459823 0.25664754825165026
v -0.502610581666936 0.4445004506591913 0.20405982874210088
v -0.5772094995360073 0.3916836142212088 0.10955471795270706
v -0.6217059031654711 0.3706895475811132 0.05265227040950882
v -0.6659399212120211 0.34358656008253 0.004860315925838195
v -0.7369399167229245 0.2979021843402853 -0.08567395233990907
v -0.7864786619854051 0.2667602174125735 -0.14764588583533972
v -0.8366757395468676 0.23872488787005008 -0.2095287733705621
v -0.8819599247001476 0.20182618238529978 -0.27197430111028487
v -0.9065399622106404 0.18451097581975595 -0.3045767826143107
v -0.9572161996336969 0.1592182759820926 -0.36591286556788355
v -0.43454687150003224 0.48513481001639447 0.28670806265193044
v -0.39707206856804306 0.02535370313681882 0.0637093969472432
v -0.5061646219232345 0.4459789067788077 0.20087929373356156
v -0.4397787338222676 -0.006608636002532273 -0.004830124311186814
v -0.5600654727627561 0.41283897090680194 0.13227606439610595
v -0.5790342991843549 0.3938752317803255 0.09798711491747426
v -0.6181913337763444 0.36673594878698634 0.05852225881664714
v -0.6387684270119538 0.3608508695323805 0.03163345915881542
v -0.7055590246915104 0.3129599993297658 -0.05166246258398773
v -0.729391173805122 0.3039208583916846 -0.07666217748369833
v -0.7441966704739247 0.2888440921223333 -0.09825169763065293
v -0.7792136890469876 0.2689438494564211 -0.14400163588266773
v -0.8161424259304885 0.24645497194851482 -0.19081123065518904
v -0.8820750120476487 0.20687825957856615 -0.27099465598881767
v -0.9123487224482613 0.1853435786858694 -0.31460992087241973
v -0.964715586364253 0.1520264949281307 -0.3750117717460356
v -0.5392744122617948 -0.5586815135140587 -0.4153311502955396
v -0.37527711391718827 -0.9386549299592352 -0.47783912211809293
v -0.39998801464901307 -0.9069905413640418 -0.48161158453599257
v -0.4475851072039026 -0.8255310832067244 -0.4790299508787492
v -0.3875969747629229 -0.9307515918729502 -0.4782292496976345
v -0.4356491372029467 -0.8545931588962525 -0.46992589822025993
v -0.49859802787324237 -0.739208648961565 -0.47139937150132466
v -0.5413898339580427 -0.6874858776388243 -0.4747938432692997
v -0.5697400428092573 -0.6463981949597564 -0.4714940244283165
v -0.620639420566802 -0.5211996465198703 -0.4495598807100171
v -0.480204674425546 -0.7720548715237389 -0.4740673926593458
v -0.4323340348642483 -0.7238154225107116 -0.4085569101131601
v -0.4388349669126132 -0.725603071143701 -0.3988616238078265
v -0.4742117590212131 -0.6599462489212585 -0.40390362454087303
v -0.0551849415093515 -0.44469583622510206 0.09408892092889656
v -0.08416945447514534 -0.3536475410361678 0.11514479051219266
v -0.11456105299121476 -0.3167796789532561 0.11470295648134039
v -0.04451937508210348 -0.43346008689484644 0.11765009456391343
v -0.04883235109558983 -0.403680476312111 0.1237952060628753
v -0.09453741128001993 -0.3393995793901095 0.12126354163395978
v -0.12069336799430291 -0.29753757821750737 0.11695966656839231
v -0.1662883819899817 -0.2362648585507325 0.11896322958996654
v -0.35375586121727876 -0.9787610209406981 -0.48419388386176804
v -0.2603320748735066 -0.5996507964681812 -0.18009535197417068
v -0.3122641013537296 -0.6277279918737734 -0.23054247518088802
v -0.3020039709802352 -0.6274195429823504 -0.22589797113489354
v -0.343295019675653 -0.6609464559451492 -0.28212084462861703
v -0.3623455057343584 -0.6682914747444089 -0.30482501605823253
v -0.17731503257033635 -0.5424160535630322 -0.07270071617998612
v -0.22927663287881325 -0.5762457879624009 -0.13571250682660152
v -0.3074987386952578 -0.6274622687343464 -0.2206360484132143
v -0.39697186165591597 -0.7025248703282992 -0.3546109396939429
v -0.4228080347284513 -0.7100739984411832 -0.3836808132379289
v 0.20968143241848852 -0.3949027822653912 0.3672919281672963
v -0.4496024202321692 0.47287165799928066 0.2677383737901628
v 0.20718252788204614 -0.39166352501615376 0.3668020141658579
v -0.039347804636661474 -0.4218672367293925 0.12364627865716665
v -0.4549259302786101 -0.8051963711661484 -0.47763958695386677
v -0.2598800172566582 -0.07862258373923596 0.11161365353975986
v -0.21510186050038674 -0.5666088382364403 -0.11555263045156772
v 0.1568958030708359 -0.7086759565560822 0.1395381993612912
v -0.5880163845438697 -0.13453251332464514 -0.19705711682834498
v -0.16657057999533137 -0.5311165491909617 -0.05155785193491333
v -0.360868849322391 0.06455156914889076 0.10444974546192595
v -0.22801181325569028 -0.5804582921433765 -0.14325173513343167
v -0.785176306312309 0.26934857974294774 -0.14359182403087392
v -0.3457346314711242 -0.6597692830537482 -0.28705616116532034
v -0.09467035030383235 -0.8673990071111698 -0.18311518909641164
v 0.3167311967361128 -0.5662131953422884 0.371302482559048
v -0.13836210755821213 -0.505558079961313 -0.013818255408838747
v -0.0330859940747399 -0.4228763007649068 0.12115822384598782
v -0.48288764687195945 -0.7732729339450999 -0.47553638073564136
v 0.08834453873792508 -0.20888158620697783 0.36173599027696124
v 0.30116044335031117 -0.5357423007914114 0.3663227923555711
v -0.6440841488727609 -0.18199053136626367 -0.27682548025164355
v 0.11428503097853276 -0.26080285095586264 0.3601494665357103
v -0.5549976981010764 -0.6601856911494478 -0.4728284387058551
v -0.17026004391732874 -0.9127914418305165 -0.2798583836398342
v -0.21434580776054044 -0.9442784476373146 -0.33659851395646373
v -0.485970520329865 -0.04765577437791027 -0.06543800900623692
v -0.49492993926577006 -0.060669476691259876 -0.07784114598727894
v -0.4053747793866912 -0.699354011805874 -0.3643849816941242
v -0.41669230330859297 -0.8739198167447799 -0.47647767760003956
v -0.7611901140844256 0.28615857436757963 -0.11822805631624164
v -0.14550318498298068 -0.8978562268078655 -0.24716091449760885
v -0.41232088852089177 -0.8866634281143636 -0.4743297734642375
v -0.21095676217473208 -0.5583073196469518 -0.10755528963015573
v -0.34448854928952777 -0.9801595330581975 -0.4850336935830457
v -0.47064846814674305 -0.6710616478186007 -0.40551017597751776
v -0.5178626234183358 -0.5880769781097949 -0.40786669948157744
v -0.8984771714944431 0.1875389486577693 -0.30095717339631745
v -0.32025128797389063 -0.004861585902228693 0.10744967775590378
v -0.5327282699084945 -0.6976770550955069 -0.47459081708040807
v -0.46002705323922966 0.47118328486585487 0.2546946887185397
v -0.5971626642444314 -0.5125457221151304 -0.4352816786353829
v -0.5026597150887779 -0.058996823307639674 -0.09230555482445046
v 0.13954934103968047 -0.2880312491849616 0.36137551509497534
v 0.11005818546260593 -0.23990376763657048 0.36099827171834653
v 0.16053075405912998 -0.3153710227186408 0.3654730015338255
v -0.19681831891069404 -0.5532358041690307 -0.09335754798646845
v 0.07653047932631818 -0.1911877526708295 0.3590457115156152
v -0.6214688923812864 -0.16229972724327224 -0.2426062856478351
v -0.2911609297961541 0.3715664917752936 0.3528379163872258
v -0.029476765449423598 -0.8324917108823934 -0.10780754847353034
v -0.9624453525264964 0.14486468192774798 -0.3722893990446195
v -0.08526805105954444 0.05563571688785683 0.3589045910744742
v 0.14965231181491262 -0.308010054651512 0.36353616185485144
v -0.3256895519625408 0.4315845832977916 0.35228384816494857
v 0.1199522342288526 -0.2667868499862297 0.3604898108362958
v -0.2277708582111155 0.28626500955821327 0.347952151212556
v -0.9891395382719155 0.13282375092885387 -0.41893144636765484
v -0.4119586204788985 -0.7081114227829455 -0.3719734015438022
v -0.205962184224305 -0.16806659825727405 0.1185990124417685
v -0.19248662332223482 -0.18471381031464837 0.11531450678640297
v -0.17794452852473797 -0.5358793084848913 -0.06409736246096356
v -0.5489624005848213 -0.10725900015972127 -0.15679655995165165
v -0.9738961260865 0.14403250151429553 -0.3859082368886767
v -0.3857571068517837 -0.6889630188537393 -0.34013746753940444
v -0.521206427210305 -0.712807626732836 -0.47634257387450674
v -0.3856718630029839 0.039897975029639744 0.07922708171368076
v 0.25549086260968223 -0.46766053634558724 0.365699210793179
v -0.5335450145515455 -0.09439087930702356 -0.13585532150174548
v -0.4354040160252455 -0.7199829635234297 -0.40279675597474623
v -0.6149383781494873 0.367712278325899 0.057928592115304274
v -0.15671714835392708 -0.9052040274386371 -0.26251389729507435
v -0.33396337073558646 -0.6440025645714892 -0.2688565373985461
v -0.8020279429945109 -0.25293587338889345 -0.46500143315634174
v -0.6083395095602289 -0.15475487526823273 -0.2312427775150223
v -0.8828181840447604 -0.14512791931478414 -0.45906120574345255
v -0.5563736888727773 -0.10452898362607324 -0.15911459955864277
v 0.0002913515333179801 -0.8080359021202771 -0.05980957300467902
v -0.35557511160391475 0.06666755116651199 0.10658591022318481
v 0.1279443591699421 -0.27389877678005253 0.363745524844946
v -0.696871110347299 0.31436399297631057 -0.04879547440278684
v -0.2523279145661248 -0.0936047185331379 0.11512297520337611
v -0.570165071890976 0.40378939124759616 0.11899697509258947
v 0.22832549664405524 -0.6650557742548809 0.22852429460621068
v 0.03869486211283443 -0.13187676679118449 0.35923954239771344
v -0.2556187918031935 -0.9665222300439795 -0.3808939644822867
v 0.20689489849890288 -0.684226624122265 0.19444127123770044
v -0.008755852320697595 -0.057183787778961825 0.363410201958672
v -0.10791528556400258 0.09575425825194872 0.3537022825194951
v -0.51228173552631 -0.0721688911742945 -0.10121654979176138
v -0.4768401508111824 0.45498589075600165 0.22330892581277753
v -0.46326872261039437 -0.02841409678622501 -0.02985251629575715
v -0.3696857277162724 -0.6780306980381199 -0.3149867077252873
v -0.338288078135482 0.4477677607790519 0.35318664260050703
v -0.5474148669188265 -0.6753328595121086 -0.47766320729036044
v -0.36628401030471575 0.059238565903301885 0.10969541116395135
v -0.2708171155140282 -0.05653237420993031 0.11834524933716131
v -0.2698088843412 0.3413979894802543 0.35091480960677474
v -0.13238477912287908 -0.28186828421036114 0.11436606688826334
v -0.49186510379286624 -0.7584021750359536 -0.47013211101229563
v -0.45970869375589296 -0.6870616622582219 -0.4030093344411529
v 0.06432664767105052 -0.16966279451103863 0.361383375390743
v 0.14815927054612593 -0.7157050950245675 0.13041929165975585
v -0.4190398443467862 0.48880953031531654 0.2981392543583142
v -0.6794595021222256 0.33553599314566956 -0.022819767422534745
v -0.13692343699912465 -0.8921764988442518 -0.23091460057668708
v -0.9404363527054428 0.16277196438457667 -0.3463696229627559
v -0.9869057301958059 0.030002494818395797 -0.46294271073226867
v -0.16880407077806517 -0.23312178683166265 0.12444870800842496
v -0.14388782040325412 -0.2602397279350278 0.11910176398050427
v -0.51888906751867 -0.5812543110016163 -0.40968695517778425
v -0.9563286965390171 0.15572787290746018 -0.3693146551187737
v -0.4752677863562285 -0.6620506257882618 -0.40664701923205054
v -0.23433820652834972 0.2761522582011669 0.35542546070262143
v -0.20410847421637535 0.24058767149704113 0.35699755250281556
v 0.21752821905450945 -0.6736335205773593 0.21013654830472642
v -0.7769579377273517 0.2695661858119726 -0.14037166155241845
v -0.24571088319875214 -0.9592787839989577 -0.3755983968426119
v -0.5266269417843821 -0.5743038189044433 -0.4095893767154317
v -0.2061611802831466 -0.9413153039824359 -0.3291788828191596
v -0.05599298384927578 -0.44045314975978206 0.09964385847845349
v -0.3902316216472622 0.030863612754625146 0.058617496771578716
v 0.16790051164687153 -0.3394377003592072 0.36223152843711204
v 0.23185076560388737 -0.6571583417459015 0.24183947417130777
v -0.8369404582834661 -0.2046214200927602 -0.46655748863381763
v -0.6696237171146011 -0.20494427853879787 -0.32286571742984255
v -0.551180253384944 -0.5393938309110927 -0.41412031654459736
v -0.7420826712304751 0.2861510766653656 -0.10220838684016154
v 0.133240735360136 -0.28152190489989115 0.3600622517062404
v -0.1825841323988895 -0.20564790085653026 0.11838121092723734
v -0.15630006904338514 -0.5195624883904095 -0.03921539446198083
v -0.14343962089140688 0.1461197207767311 0.34712723358704295
v -0.012764608903916744 -0.8143061519360991 -0.07641778070068726
v -0.5652863793612501 -0.11359472678066487 -0.17602644993134753
v -0.8643461259676833 0.2155466656317916 -0.24775048440342184
v -0.10930639465768373 -0.8770388184125795 -0.20316287381687617
v -0.2899264949709886 -0.03671019089763365 0.1138665898397979
v -0.2401179488806659 -0.5854431859042519 -0.1561868045470361
v -0.30003035914922815 -0.6294634393173049 -0.22684151364423996
v 0.2868955078809098 -0.6259892285574794 0.30422350150214006
v -0.6591946931531069 0.33849397272897935 0.001715124193010253
v -0.05393502488462581 0.010752325153775522 0.3532738243112846
v -0.3333302735550102 -0.652327368262925 -0.26648698125048925
v -0.9721718419607777 0.1486484833155273 -0.38271941299521356
v -0.4460822820946776 -0.703491829297654 -0.4074980119301888
v -0.159478164777144 -0.5201964480172364 -0.04138846944355696
v -0.17374934263747374 -0.22878387261002953 0.11410967679535543
v 0.3084285561097874 -0.6144399351680618 0.33064094303005953
v 0.06365011921577748 -0.17207105991397315 0.3639907135610239
v -0.6202462202943311 0.3700319269637467 0.04777048363445842
v -0.5192217849136986 -0.5896632001087972 -0.4104767588390953
v -0.049157384434665954 -0.8321405808917088 -0.1216020160894751
v -0.6540476718325359 0.3504900138321962 0.008656376031833838
v -0.46474251549006756 0.46523840318583987 0.24776388304628288
v -0.05633986206996017 0.017963805101140064 0.35947748899235565
v -0.37587375503912945 -0.6802182846428725 -0.32515991817685225
v -0.7575943461166926 0.2877424358069765 -0.11013969680527873
v 0.3280566277861729 -0.574235536528297 0.37302417077489824
v -0.7050185643113075 -0.23375783383851853 -0.3663494275481375
v -0.21670803538155237 0.2696126061490254 0.35596033529733356
v -0.3978270686903032 -0.6911235897568204 -0.35024800057420713
v -0.14759418230876767 -0.8991818501289092 -0.2486887411672695
v -0.5474784963365363 -0.09853360505476289 -0.1484507295017359
v -0.6090131557736352 0.37107208275983855 0.06017291346430949
v -0.04488809238448773 -0.43745765395257136 0.10836814208082615
v -0.2392106072240436 0.29418413572183966 0.35233514161323387
v -0.2545701086980438 -0.08412170038162609 0.11519758513749567
v -0.192296685552114 -0.19610823357975457 0.12149579339554271
v 0.0970948363980814 -0.7475884260832678 0.05475677667479661
v -0.43212929769913494 -0.7194352917721498 -0.4004795212908713
v -0.8978062391037571 0.19630892036609354 -0.28377194043532594
v -0.3117542479260818 -0.6314569892291656 -0.24421592814857493
v -0.2056704328041203 -0.17843116776758058 0.11409811227682598
v -0.38277327443690884 -0.6941727912282745 -0.33015569180712045
v 0.2013002236787687 -0.3799298925203759 0.36154223204507385
v -0.53425077432435 0.4309487895772527 0.16390820631714523
v -0.25393657669458725 -0.9710444005409022 -0.3903277939698178
v 0.2951700147157729 -0.625664471360248 0.3141360542190539
v -0.8731600473032065 -0.1437512447355035 -0.4658871232662681
v -0.5755950400950922 0.3952759035135437 0.11324352587070408
v -0.27267459730730587 -0.9846414159662067 -0.417559061844359
v -0.3874590451423754 0.033464467367908125 0.06960691622812794
v -0.3333487213492374 -0.6479506097491029 -0.2643396991918498
v -0.5203675739562535 -0.5888017471601715 -0.4117494054490449
v -0.3331660025140392 0.026787262846871773 0.11169178086422032
v -0.9101879804231457 -0.0924576577579708 -0.4644319218832809
v -0.18030163887899522 -0.5369685937318442 -0.07172653989717549
v -0.006393892383010505 -0.8150767618062614 -0.07898458964678426
v -0.3627241865036737 -0.9676970258238178 -0.4795081101207327
v -0.5798146541157556 -0.12435046299396661 -0.18168076560912708
v -0.2195002170423986 -0.5668086759145998 -0.11967071706757806
v -0.16833031387794734 -0.5339658370857728 -0.056856101037776705
v -0.2570965003416696 -0.9693188683918271 -0.39221770409264417
v -0.5770552268999504 -0.124097308975918 -0.1913219543206016
v -0.1953764842797351 -0.18807229751330895 0.11398504411348388
v -0.8562317717902611 -0.1791982908809399 -0.46795343122118344
v -0.07201465738357903 -0.45504022583244574 0.06684091527309656
v -0.10090081635555673 0.08571211716440183 0.360410321678447
v 0.19747274808950588 -0.6866987276292345 0.1878604349571951
v -0.15846115889402304 0.1803632511494127 0.35668748782643883
v -1.010447103133128 0.11680248607355029 -0.4374639589340169
v 0.0607930178843233 -0.772709120510689 0.012690577778737793
v -0.13498235827721147 -0.8955287424880073 -0.23728604163223083
v -0.2867384797551673 0.36991749418357806 0.34896130773468015
v -0.9896613624727544 0.029998531370066923 -0.4662855991073933
v -0.7094615715020745 0.32021792243923364 -0.05507881313772156
v -0.12040879812210636 0.11876403803212265 0.35313500951514326
v -0.09867306729491315 0.08344203255984657 0.3573987796881075
v -0.5690131018905507 -0.6373748189351048 -0.4705571616851119
v -0.6022846417545825 0.3821117920762495 0.0770429425495592
v -0.2901295650455938 0.37211691335884045 0.3522347096622113
v -0.11541580422913987 -0.8851153253332363 -0.2207128623457321
v 0.18536432694882496 -0.697566913478945 0.17229388027320347
v -0.6132292976239845 -0.15222663870563027 -0.233489405915386
v 0.27285534782580256 -0.4886780476498835 0.36907107231420033
v -0.7409120981766414 0.2880149338679736 -0.0946997371615305
v -0.07785603766591317 -0.8607567589716645 -0.1672639182379631
v -0.0378379864957145 -0.8353579207323717 -0.1153025075868411
v -0.3940938907327315 -0.9143994365974515 -0.48391352518648134
v -0.144869010458464 0.16051037041883592 0.35896716159586745
v -0.5107028615777645 -0.061842769966402374 -0.0922544167998967
v 0.2988549042745768 -0.6287877430926669 0.31264175877990186
v -0.09641983718847315 -0.4728587094150823 0.038487485916383526
v -0.4918296832785484 0.45050577472396675 0.21386589593713862
v -0.017452699996954056 -0.050420924728582145 0.3607922073016338
v -0.24315392543980738 -0.9640167842360462 -0.3728970755754126
v 0.1828173062235355 -0.6996157935893755 0.16074771514167643
v -0.5910160611180107 -0.5993127436892618 -0.4669334348533202
v -0.5598156273521109 -0.651932652305566 -0.4687026736106983
v -0.44101388310251555 -0.7226832706708312 -0.4038700656320437
v -0.1630667813251602 -0.5221012097194273 -0.041414422808232335
v -0.7090184935433784 0.3151434741440892 -0.058712272907601136
v -0.34825792465953087 -0.6575756097705471 -0.28600638641570847
v -0.4138978790667137 -0.7099970695090825 -0.37363541744290146
v -0.26978436656401356 -0.5990197403570758 -0.1868375835176216
v -0.5263655803449034 0.4263020639597751 0.16603187790434856
v -0.652385778903674 -0.19006178247566546 -0.2917959584388781
v -0.7513923677786697 -0.2705749276757989 -0.419019284221659
v -0.32056977938035014 0.41276545617776766 0.3476500485708298
v -0.6350448673690344 -0.5420885545010097 -0.467584152406071
v -0.42679762761947426 -0.7121353799737127 -0.38362417019199174
v -0.8690509792391612 -0.15817398042292646 -0.46705492805793414
v -0.7749934895437847 -0.2897346913069985 -0.4531248308153708
v -0.9984629205989315 0.04523136610260769 -0.4678540550283537
v -0.26140827570172537 -0.08764063133593143 0.1196507579154515
v -0.40398610039225863 -0.8968976282356006 -0.4786840433928101
v -0.3500940819881457 0.4620547885992834 0.35037628462312403
v -0.5774278115426223 0.39397228878442697 0.10563028171409124
v -0.20742376726840778 0.2576521071563925 0.3519846747861472
v -0.3096775692249737 -0.9987771997358078 -0.45871788365351707
v -0.14887503742366076 -0.9045315809324238 -0.25209471889173646
v -0.19946519279064032 -0.93283948045993 -0.3178446438218186
v 0.14709477406788543 -0.3019746934829798 0.3657173057159758
v 0.05044393664327531 -0.7800618106220258 0.0031679498590737563
v -0.8880315048236918 -0.12379510557028234 -0.46732648095726914
v -0.20514151292451838 -0.5562101171769864 -0.10243036821470651
v -0.3932430007185169 -0.6989544484725476 -0.3486821542754526
v -0.14869008202303272 0.15765888810486367 0.3575266135759924
v -0.23868880082728006 -0.11913869001267957 0.1075453743700176
v -0.087377532741325 0.05653922770285309 0.3574249302531131
v -0.4892848327621916 -0.637983442785801 -0.40741504512447163
v -0.9491045723871643 0.1627736908744331 -0.36251370099953806
v 0.2953481290038801 -0.626180496829438 0.3105205519306867
v -0.6124147792489498 -0.5717775073148867 -0.4673560602864865
v -0.5833744354369191 -0.6105939490344151 -0.46614201567107316
v -0.9830110247858493 0.023082187925908843 -0.461921963296121
v -0.5066647631137872 -0.6086418430139554 -0.4101683589524471
v -0.7451026931864858 0.29145143457527894 -0.11048720243374262
v -0.16489094592734696 -0.22407465830934095 0.12024471590598432
v 0.2203570944267893 -0.6748177325404997 0.21944360014518774
v -0.43954597209082014 0.4791181907659886 0.2753170547215348
v -0.9417810972584758 0.17001417699620702 -0.3375589569194105
v -0.5529545241232565 0.4074405901692189 0.13775994231856808
v -0.023758220599331335 -0.030830548478104236 0.3555347979793745
v -0.036227373994224335 -0.42514759441902183 0.1228771628905775
v 0.2701419167386056 -0.6394881155143574 0.2857288556595808
v -0.7384090866272583 -0.2620886445872765 -0.4108958185139507
v -0.22234319076563855 -0.14188158555599717 0.10902731371294391
v -0.9804223480800639 0.13680722224260253 -0.40233511670592403
v -0.20868336425578882 -0.17418000462390215 0.11550880573478342
v -0.9230101681048352 -0.06345068584797539 -0.46618579845154495
v -0.16646098090255548 -0.24048724686229092 0.11935099748515567
v 0.20463937942577495 -0.6791840157762237 0.20104112184322484
v -0.6974719537031291 0.31954852782491616 -0.038341245154481556
v -0.6724837534371615 -0.20821714485511014 -0.3233707853642323
v -0.5339056084863238 -0.6916064469617537 -0.4698070543632458
v 0.3003876775062048 -0.5464170152016777 0.3682567134119349
v 0.1997745076038422 -0.38738308533684707 0.36597483775772466
v -0.476299636709381 -0.6563667059169617 -0.4086651561055729
v -0.3965316339297129 -0.9139075356218554 -0.4790467860795452
v 0.17079811373380213 -0.34738582211566327 0.36161479157752846
v -0.5799042827571642 -0.6254598643512612 -0.46305497996718964
v -0.9423685516081615 0.16755293331822443 -0.3462284366115043
v -0.7930485403898591 0.26073529022824943 -0.15540671152663754
v -0.616211762437654 -0.5154808462534346 -0.4471748838287675
v -0.6948627531001618 -0.2247663279244523 -0.349238215034672
v -0.3100761275206466 -0.6346418975805111 -0.24386938711392792
v -0.32617050969235223 0.009845819911789292 0.11021531292865963
v -0.07307710674074164 0.036256820308953684 0.3552693301093454
v 0.16579662208998083 -0.6993114798274769 0.15277899643245296
v -0.2058398083178621 0.24427333372268842 0.3507893094507457
v -0.12272781283485529 -0.2902457716807734 0.1252863788880415
v -0.0361085114380879 -0.8295624539243789 -0.10071000425461503
v -0.10607520472139807 -0.8758858439342191 -0.19617373493343612
v -0.8160313685355687 0.2495678727364432 -0.1865627480104454
v 0.034034337685360475 -0.1147133459288458 0.36002063821254643
v -0.1913757477595697 0.2221779849363297 0.3587525508485565
v -0.900410138743313 -0.10390812933837602 -0.460362695253544
v -0.14666936632468874 -0.8943774207034182 -0.24325817794569818
v 0.08136605193244835 -0.7594673732552115 0.037679264094761786
v -0.46468369532696585 0.46891305359347035 0.25147676536173297
v -0.9860587791946899 0.13817093139364167 -0.4006700945202761
v -0.35605491900934483 0.06265784857030633 0.11039189877595887
v 0.2989040308816852 -0.6202936676574304 0.31566933489629123
v 0.03223468499944221 -0.7901345081896755 -0.02613446830439988
v -0.5697527982383137 -0.12550716167115653 -0.17733526214408613
v -0.55171522984937 0.41346618472004826 0.1460600635965278
v 0.22466735864558923 -0.6666325424103471 0.2293473915408092
v -0.38209433243499175 -0.6883137610436412 -0.3322508137735516
v -0.11180729651584385 -0.8791789231672035 -0.20400666990461694
v -0.1584927477544447 -0.9114967368432337 -0.2696415477229268
v -0.591828489489907 -0.13861837333547286 -0.21466278278709808
v -0.3033395765167438 -0.9958877904385517 -0.4470075426012099
v -0.09091341556077935 -0.3406252387590123 0.12082445387091574
v 0.0007846933006264338 -0.0646039667070599 0.35771504098388635
v -0.14110402659507418 0.16230961239216 0.35005196550818246
v -0.19057693117916624 -0.5450571499760563 -0.0798718802375507
v 0.01869613220544597 -0.10354394536232928 0.362198056829337
v -0.9030494090162451 -0.11100828992316009 -0.4688504145844726
v 0.03864705546315267 -0.7824321954550931 -0.010817694983664384
v -0.37605754339825087 -0.93513291988813 -0.483506463754866
v 0.19204958504459313 -0.6894832966133345 0.17529500705037232
v -0.6589572268606625 -0.19126493182815124 -0.29699404871443985
v 0.30969623361903426 -0.5439492066966419 0.3710386287980434
v -0.06462315331266424 -0.4566107643271507 0.0833906355499273
v -0.5067559135015516 -0.7306076647471381 -0.4812285532651721
v -0.031194304332216316 -0.8319928117197506 -0.1028372551882958
v -0.09613664348014363 -0.4828313918289592 0.03592758003949031
v -0.8026413120622876 -0.26260882611436037 -0.4702672708037424
v -0.33869378954498774 -1.0005736003328727 -0.48502626429821544
v -0.23426880934358732 -0.9574787176471846 -0.36441592898345226
v -0.5909622833453047 -0.5098657397648052 -0.42954018280971906
v -0.37477658932467117 -0.9363481690481278 -0.47723088111796663
v -0.6147921647300133 0.37088727761534906 0.06294033659688388
v -0.05353587539008586 -0.3965069435499636 0.12133112132989063
v -0.14183476537399198 -0.2641817053159051 0.11799798453061756
v -0.8404987675338643 -0.20192899448320795 -0.46884086712513934
v -0.117999897954913 -0.4887762611018077 0.01822327001337065
v -0.19198188970238966 -0.9308450092432732 -0.31343726074613887
v -0.23829078671678114 -0.583309517569248 -0.1479172393144207
v -0.14149849893939778 -0.5046846516211793 -0.021275990960447976
v -0.5497997162230648 0.4119345801352538 0.1382130134432606
v -0.9654561466418199 -0.005818888234421661 -0.46028697665133167
v -0.025509751944559962 -0.03078526488077181 0.35495669079994047
v -0.022401154563796287 -0.0367516215494427 0.3564290951058245
v -0.5985135148070596 -0.1376011188067227 -0.21640762510328304
v -0.7586234844501281 0.289608554133909 -0.12189547958353564
v -0.2780796672408212 -0.062321471128151 0.11307100367684121
v -0.27531038894444004 -0.9786678779059518 -0.41467757396147326
v -0.17987168065099363 -0.9195959964749306 -0.29043049158160317
v -0.3753304279324353 0.5085414423143555 0.34528195762411557
v -0.12748817308041943 0.13776393625789057 0.35094924959077595
v -0.7844602994350725 0.2653524839775744 -0.15077770234882218
v -0.20447471158345323 0.2435874638711291 0.35721250943825905
v -0.13387458997433246 0.12981763981401478 0.35889606101363614
v -0.879299859402434 -0.13511717372040252 -0.4668411661853532
v -0.3552928377065341 0.477658005770353 0.34980733163913363
v 0.009500975113542523 -0.09462123397150494 0.3630615719254018
v -0.17260415709199695 -0.5266787057350026 -0.04844923662469725
v -0.2734444470104321 -0.9799991521818058 -0.4171023158955612
v -0.532651924868046 -0.6941155813363771 -0.4703190366923567
v -0.3935508514084108 -0.915333654151941 -0.48252776408090714
v -0.2815160945357564 0.364318557705325 0.3486839277312843
v -0.06899543206064168 0.04164998596834266 0.3528218834997487
v 0.2928366779369668 -0.5275240790282271 0.37155613330159326
v -0.5354481089036739 -0.5693048207672702 -0.4148746898323548
v -1.0183401801681229 0.07518557951932622 -0.45532047583680785
v -0.2951048610618062 0.38304300881438774 0.35150164820535
v -0.4829319393061673 -0.7864822737061609 -0.47712777563897213
v -0.503077777842933 -0.749720644199668 -0.48195832824176815
v -0.9049791664216169 0.18980272284033203 -0.3004575697395124
v -0.4098264714160207 0.016760788191912585 0.03806408302309382
v -0.5201272142727792 0.43293321642327887 0.17900183354162433
v -0.39295139420582065 -0.9104452645969021 -0.47780950650083326
v -0.5647859621974807 0.4033843777227821 0.12459291140241122
v -0.5765382756025103 -0.6236551541818729 -0.4713285036674272
v -0.7435597253797305 0.2862714095787947 -0.09828414517811958
v 0.18156714364890666 -0.6924355051480836 0.17078712850127026
v -0.2692175559135225 -0.08405156955160695 0.11126960784510985
v -0.4685665202407945 0.45942354252009654 0.24318685061748588
v -0.20467274761523022 0.2458606683104399 0.3559627730660549
v -0.14504938053936928 0.16238250009605604 0.35526879855567284
v -0.02861770948485916 -0.43039043075532607 0.11656395446434045
v -0.5563131320191191 0.4071854194246324 0.13343862240464605
v -0.05350829574346561 0.016959898573652262 0.3564797839250757
v -0.3248378760817877 0.014860612837414109 0.11276449024176827
v -0.44446025861016647 0.4782468809311875 0.2692735868667526
v -0.7904760041842024 -0.27823303631280377 -0.46786791620058493
v -0.2097343127997971 -0.9354112012980291 -0.32813919469820824
v -0.4231613697110032 -0.8726348398910893 -0.47902348568211817
v -0.8224908090456058 0.2489214451161606 -0.1994139416302486
v -0.4015688051391464 0.02401741701919176 0.04912633990027391
v -0.8174572091485431 0.2435441631622235 -0.19911939107255414
v -0.26672245798091326 0.3379054626042969 0.3534806394078462
v 0.31125422261724695 -0.6110929893837119 0.33410503560306465
v -0.06599047064021275 -0.4601442477742252 0.06949383917231128
v -0.46638781371582405 -0.8037584799658253 -0.4801495448180351
v -0.6588162821127351 0.3396729014308081 0.005297195809791796
v -0.6019069375454623 0.37908450848727265 0.076549516670782
v -0.7283159575228952 -0.2627294169471946 -0.3943627491757151
v -0.7626566334620147 0.2739393642309863 -0.12326824339567229
v -0.7579651027902817 0.28070970361276326 -0.1129672066813506
v -0.8633705246352906 -0.16301049327157016 -0.46496785484446373
v -0.04273885822878312 -0.415471724630042 0.11882583667347967
v 0.3501880998552457 0.9619978253199356 -0.43193300555318676
v 0.31391152591078575 0.9419382918796956 -0.4309541676363513
v 0.2768208226614628 0.8887571160195439 -0.41718706521697174
v 0.37519589923434093 0.9461132188007285 -0.4372189740946745
v 0.2749129062133945 0.888659925023576 -0.41719496746171925
v 0.6361612433284738 0.5720444653934608 -0.4444150461752979
v 0.592295426229662 0.6389323323529799 -0.44418591399056756
v 0.5643197031024033 0.6723629399178448 -0.4410617464254466
v 0.48992235538262174 0.5595078196761794 -0.4148992470087916
v 0.5303930169682164 0.7186633509665122 -0.44250621914301097
v 0.5015665085886232 0.7602827619732259 -0.44192796778494337
v 0.6359728089921524 0.5699886173975811 -0.44477228561875587
v 0.5884165609788302 0.6390020836646773 -0.43985662096452793
v 0.5488466487260187 0.6894631739683903 -0.4407836012985101
v 0.5165048778014935 0.752609879249231 -0.44393246190493924
v 0.7200175100522959 0.4239790710999843 -0.43983957622094655
v 0.6663947548900374 0.4041612781863023 -0.43271514907960723
v 0.6610581944350464 0.5324871790839779 -0.43853592601446073
v 0.686445973990655 0.5014820983950788 -0.44295401764560355
v 0.6692226649325826 0.3917577920481128 -0.4306832502339117
v 0.6346628193759563 0.3758757756693904 -0.42410197319338877
v 0.6553992158423235 0.5331012650176904 -0.44430647939469414
v 0.47565648226552953 0.8053580188922311 -0.44079247702692215
v 0.45107147391098973 0.8413137713062738 -0.43858164248646236
v 0.42593031184208346 0.874133660698754 -0.4423637204581782
v 0.40145807947856377 0.9233517558252038 -0.4397270187585463
v 0.316890473091855 0.8088468086979232 -0.42303110841663555
v 0.2963323803132569 0.8538011223647383 -0.4200251220067466
v 0.4855162693223736 0.7829937768383459 -0.44657033229203297
v 0.4443911590439869 0.8505661015102611 -0.43928746523430556
v 0.40568274167981466 0.90762562598176 -0.4398029299267717
v 0.43239465399261023 0.8651758753364082 -0.4394860588072055
v 0.5966378440158729 0.39267029865668623 -0.41785047789455365
v 0.6028193387521553 0.37660350150328387 -0.4166174227564664
v 0.3198062050464682 0.8173715476277357 -0.4167063000982956
v 0.30014383488633717 0.8548416426384933 -0.416116394959509
v 0.4274218861539434 0.8811114860221384 -0.43834322312237295
v 0.48229201547713835 0.7933560684153452 -0.43931642093598255
v 0.6264956405823199 0.36926724032069225 -0.4214521085146354
v 0.3535952056067673 0.7718969461471225 -0.41434509426918364
v 0.3954523263065213 0.7031760852023482 -0.4190691809699491
v 0.2965915225382182 0.849466885780282 -0.42049280352854385
v 0.6017342716601006 0.3783233702112809 -0.4263056468962274
v 0.49344163116311274 0.5471179730936712 -0.4186407997540238
v 0.2864126314391656 0.9229127343030601 -0.4236079376329591
v 0.49944084222357704 0.5430164224086893 -0.4170801173003301
v 0.42263342135310705 0.8783518009925294 -0.4403168967654456
v 0.659691307590485 0.5411368423327191 -0.4377713721794401
v 0.404446781371934 0.6857037918718728 -0.4174701826540982
v 0.638700727955128 0.558793894718599 -0.43949781508482316
v 0.45895261614854715 0.595805819644786 -0.4218870916404801
v 0.5770295988491555 0.42302401340727885 -0.41652327466977607
v 0.4349408558660689 0.6420567632202836 -0.4184721481240638
v 0.4433207516629603 0.6225927154113172 -0.414008321023738
v 0.4589153269162607 0.5977723891430121 -0.41385893427495385
v 0.41739723883723434 0.6722072928236753 -0.4196755229430279
v 0.534326738585087 0.7127087275906954 -0.4406071073870537
v 0.6106980184169067 0.6024848199844616 -0.43276553511822996
v 0.49033438518668043 0.5592246957966156 -0.41849975512920895
v 0.559617702715451 0.4490182933884618 -0.41849744518524135
v 0.5134621408527683 0.7444677413200886 -0.43842833595042024
v 0.33626899258288984 0.9546195565017883 -0.43455382733911835
v 0.3855134539555921 0.9289584708191377 -0.44037678669991603
v 0.32083596780817947 0.9501353548675554 -0.431589146542235
v 0.32884560013633035 0.7981558350770463 -0.41716332685636015
v 0.512897565399067 0.7507540573084714 -0.43792322288868646
v 0.35704976685106005 0.7544511587084057 -0.42203618902062073
v 0.38683312484206256 0.9361313799187433 -0.4390142407743819
v 0.31285035934708566 0.8272629320821251 -0.42265472095123124
v 0.4399653888826603 0.6364223047459524 -0.419480221449986
v 0.5959862361566584 0.3848292743440047 -0.41408475189924493
v 0.5269534779006505 0.7257275382200241 -0.4393824761244967
v 0.579377914264448 0.410513386702893 -0.41936131468658416
v 0.6615078320789644 0.5247540603249818 -0.44148490623590525
v 0.5906823029184091 0.635066695415927 -0.44003945933195876
v 0.316746157038688 0.9416189903450177 -0.42831154538584143
v 0.5316474864663921 0.7164795361744691 -0.43962951359220515
v 0.4625081732792431 0.835359132777116 -0.43583949034096675
v 0.4377219777798156 0.6378109909542811 -0.41084800608522043
v 0.5239699930504521 0.7326693721588734 -0.44650527702608284
v 0.4681686218829565 0.5850914913595749 -0.4200103004005677
v 0.6133680072236777 0.6012984491951228 -0.44299212343610833
v 0.3566238563921196 0.7618952300283023 -0.41859455377065274
v 0.6518360622456871 0.5459798196423095 -0.44746732051644805
v 0.47321735236738965 0.8117120977265346 -0.4418155042967062
v 0.49561530214809335 0.5460212757287828 -0.4200384771172463
v 0.3152777474588785 0.8378300564249445 -0.4202991839961208
v 0.7156527277706886 0.4201469891186574 -0.4345957770794787
v 0.6514485303414697 0.3848335328237533 -0.42341102475246234
v 0.5620355351670946 0.44437081996972844 -0.4208991806064799
v 0.6551464850987666 0.38643872543233426 -0.42325855919754185
v 0.6883219499973663 0.4051766263042602 -0.43139731482658455
v 0.6360316470203383 0.5568638620517884 -0.4414347330239465
v 0.4674823248921086 0.8213403959106782 -0.4424733183906315
v 0.3659706938403145 0.7412476337630567 -0.41487961976964643
v 0.4833065698938931 0.561155172441544 -0.4175156506638
v 0.30691615784873416 0.94334501198094 -0.4271638846494069
v 0.39026681341381053 -0.5654853614440211 0.31281801927923797
v 0.733347409218138 -0.35371008250882624 -0.11722248135566161
v 0.6944580483449274 -0.3779261664234547 -0.0687940422036848
v 0.572381026676907 -0.4505923723897429 0.08025531078908106
v 0.5188454716904823 -0.48281327583743044 0.14800355641659946
v 0.4956260925585787 -0.49504470551078245 0.16982623283730292
v 0.4691274424200836 -0.5134613542551401 0.20255241387902725
v 0.44980069848612314 -0.5279223224557096 0.2313512622500582
v 0.42254802075044845 -0.544302573807055 0.2665945282379384
v 0.38582358270156386 -0.07340267033006952 0.03235393609071858
v 0.9048766546968009 -0.2454540994142763 -0.3325540325620363
v 0.8602477454743751 -0.2693788490433448 -0.2777916595073335
v 0.7684153085072877 -0.331469994096453 -0.1539572868638428
v 0.7281794553131444 -0.3534239300914899 -0.110949646130112
v 0.6763948991071586 -0.3855303108636233 -0.036854974173181634
v 0.5896031617158687 -0.43654369249140745 0.05788504246612602
v 0.4157533046896396 -0.06108637735213665 9.470061155453279e-05
v 0.3640322785937551 -0.09620792618656761 0.06325391917476164
v 0.3217268604240676 -0.5637002261056442 0.36760060841737674
v -0.003535829836793288 -0.06266941653020602 0.35575625233872177
v -0.03397521011329966 -0.021049885468924695 0.3580430258664565
v -0.09186524534205065 0.06706902367404273 0.3558875739814346
v -0.12437295735782995 0.12302903746257139 0.3630700981589974
v -0.1901367428209142 0.22500691949307458 0.3558357398153107
v -0.20602327519756228 0.2466800095352481 0.3594050949046245
v -0.2784022174547507 0.3557688409119685 0.3513904711440516
v -0.012453347490131461 -0.053315164289846284 0.35923353876402264
v -0.0694664599241566 0.035694340492218375 0.3567490098570999
v -0.11128849037833898 0.09622868348377396 0.35624058983277035
v -0.16818674924449836 0.18966396456688545 0.36243155569507435
v -0.19482779051398855 0.22936012926266652 0.35845732570534844
v -0.26459153978511524 0.33705545179935575 0.358026870538447
v -0.30415857854517375 0.38961370536762 0.3510556842300702
v -0.34636136586848243 0.46211427056120763 0.3459779991661085
v 0.2920579009019255 -0.5304883600380979 0.37106656539907495
v 0.31718682554776667 -0.12652640793685244 0.12545651287038867
v 0.2322329405471992 -0.42463611461217426 0.3695174748293939
v 0.2941451218894987 -0.09364500880217246 0.1330390862457021
v 0.26925335275526785 -0.05594302987162715 0.1319412187062803
v 0.15579757363449645 -0.30883701817246195 0.3662643757495728
v 0.2257770339695432 -6.21633462192616e-05 0.1288814696395384
v 0.3317266385387119 -0.12434974014926775 0.11148875043989159
v 0.31443105808145316 -0.13017411744211765 0.1366575495940035
v 0.2965657214726476 -0.09816323422405979 0.1356592268970364
v 0.2865768202730021 -0.5222682621537372 0.36772019341348683
v 0.26054362960560773 -0.0444859769690199 0.12769622208693204
v 0.23487618842669936 -0.002899849204522592 0.13378113209763118
v 0.21558894525859426 -0.4060970179675126 0.36282183958450553
v 0.17690437071151238 0.0785153144502993 0.123059860885148
v 0.1568436715066148 0.12330749555139028 0.12671777402258322
v 0.15911775366680242 -0.32029202690442576 0.3638891372645635
v 0.12079564046174253 0.16597490396351036 0.12201047969953084
v 0.1361673364123353 -0.28201133842684956 0.367288343915639
v 0.049577863131635466 -0.15109978053282397 0.3629750683997704
v -0.01947348101179862 0.740600599680927 -0.0838504329329939
v -0.04485919460715766 0.7263163785064046 -0.05112332454324359
v -0.06216372758509592 0.7104130407743854 -0.027747013535577014
v -0.10110514681177732 0.6904140119565205 0.003727464022403924
v -0.13171413482442623 0.6714816343667279 0.04902799816826791
v -0.18782160198195755 0.6397250871070636 0.12240269668127685
v -0.22215414689445295 0.6154235710620978 0.15930466865134474
v -0.252929562626761 0.5972411293045637 0.1976837433633328
v -0.27809694109620253 0.5831752553580418 0.23165768261856792
v -0.3527701206470044 0.5358342898755053 0.31947498706304667
v -0.035957583253017115 0.7281189647732016 -0.06260794537512729
v -0.04661885275991551 0.7252483081474508 -0.05230701862585424
v -0.10784118188503905 0.6867873769374718 0.020666172115155156
v -0.14192375622020478 0.6639416187021113 0.06295458965758047
v -0.18473382146440734 0.6428190144187161 0.1109064239391995
v -0.20190749295855295 0.624645338466972 0.1330570227707316
v -0.24620337216499263 0.6003317208706251 0.18371953310397426
v -0.3156567706152405 0.5575556319026257 0.27121937287469966
v -0.34838340218095587 0.539412005809079 0.3068490345505272
v 0.2141873611365458 0.8850080864209874 -0.3696392160784715
v 0.12880018616789118 0.36169614471252076 0.010408049170547726
v 0.14873370569252353 0.8430210941045929 -0.2821488118785902
v 0.11401784684575944 0.8166383770266813 -0.2396993832950514
v 0.10532200218460594 0.8166259879187905 -0.2291248867364481
v 0.06862302453976007 0.7916868208231606 -0.1932251285526975
v 0.05535835445349555 0.7803572608824817 -0.16964554065138687
v 0.018276869252703137 0.7653585529366609 -0.1345573529967397
v 0.22357079932923266 0.8912912091033428 -0.3754971294190503
v 0.16897126371302498 0.8564787854827269 -0.31934367589791124
v 0.13576259870802238 0.8319604608857929 -0.2678259219988742
v 0.10747798651036088 0.820794147902659 -0.23126860933194707
v 0.038999726616531886 0.7729128829312485 -0.15926939368935833
v 0.09949375207256371 0.344231616547528 0.039741911876236415
v -0.006670254812315927 0.7490400861766243 -0.10298637585824683
v 0.2930089803181348 0.8509862590181986 -0.4177560071200777
v 0.25056985836812024 0.9005829386199082 -0.3965001659585054
v 0.8349152427377585 0.01262824821703216 -0.4156795595686889
v 0.8084858221406925 0.048526164467666374 -0.41173883360265084
v 0.7950417617895591 0.08508750996934503 -0.41557081588519923
v 0.696911029176456 0.14391723563009007 -0.3659303925088695
v 0.6714484136037248 0.12899102421260228 -0.3436830794084439
v 0.5525592720843159 0.03631338263481747 -0.17600692448885086
v 0.4677284817147946 -0.026152793167743504 -0.06368971153574429
v 0.43307588378977624 -0.04525473571323757 -0.020701537234662414
v 0.8019566905084327 0.06472357845334024 -0.41828968978040004
v 0.7748236299877851 0.10575140797412845 -0.4100131776313098
v 0.6879919708595036 0.13667895897465052 -0.35751414875263027
v 0.6610841506020618 0.11102959092506892 -0.31873119714584075
v 0.5655594543178417 0.04839724461747535 -0.19237627869048954
v 0.02757632552005013 0.3060136860963425 0.12140548748009307
v 0.12122920482894242 0.1633135452176412 0.1265856342337709
v 0.10387865133771129 0.19811467642494796 0.12834719758501212
v 0.07418454128479227 0.23300885668260307 0.12372692210395568
v 0.04764895330539066 0.32036099602579343 0.09863285535286632
v 0.027344855816895074 0.30629383491227063 0.12125109970344888
v 0.0956019024447587 0.20760799929940085 0.12678720798562093
v 0.07185679549238165 0.33386524820679037 0.07368576172360569
v 0.0747389201866458 0.23737199831707614 0.13234661231717088
v 0.05678960317973401 0.26964205340523745 0.13054166942052545
v 0.3272724083990357 0.4865068997553398 -0.24064291918090386
v 0.26987919109507635 0.44789971949091023 -0.16771761568634624
v 0.2413058988965005 0.4322819312717426 -0.13368736357538266
v 0.3733244816620384 0.5128113274359071 -0.2942144309183952
v 0.32356426211639605 0.47884380706015883 -0.2382832704086045
v 0.26991405854486494 0.4541744088993179 -0.17845926768001638
v 0.23440388870997494 0.43309853965014733 -0.1283430451272422
v 0.1990566913787077 0.41068724986464056 -0.08991241576049522
v 0.1449427271569821 0.3715152902522492 -0.008179968844406124
v 0.4387419229167994 0.550464765814722 -0.36680646960276203
v 0.4107720899529133 0.5387270245521226 -0.34461750666478363
v 0.3805434112729334 0.7324574632942947 -0.41838298884765573
v 0.33306969893017335 0.802369864074983 -0.41596133694268583
v 0.438082742829515 0.6343249919795015 -0.41446440142904395
v 0.4161009852982192 0.5416317259399247 -0.34777598644366126
v 0.3828443435239226 0.5236765175105192 -0.31321247756162496
v 0.35782119138727236 0.7617586608021443 -0.4152394815540724
v 0.3349025953989375 0.7974681687744533 -0.4152549642359901
v 0.7461856166379971 0.14566494838638142 -0.41466312063404487
v 0.6480538359489316 0.1034716804179279 -0.29455763382532457
v 0.2490818477840545 -0.027083687615288995 0.1280775206114387
v 0.8925737497106744 -0.25638581772754976 -0.31350046352516675
v 0.8263325197261435 0.024024059751065092 -0.40807015235566774
v -0.11942105586733763 0.10600124026818865 0.3525602435248378
v 0.42533050438890996 -0.04513412772793793 -0.016553303740502585
v -0.2956812519369139 0.38836362296383536 0.3505370853482525
v 0.7722397001964658 0.11190744774178425 -0.41449663881536764
v 0.10497387856108684 0.1882707108505585 0.12453590023766799
v 0.13897884030075405 0.13782009753173316 0.1240612057240297
v 0.29858995510353165 0.856153874576804 -0.41817473284154416
v 0.7227722813984193 -0.35742945461320264 -0.10869363919892333
v 0.6571888022247053 0.10866254108970332 -0.3084687873658338
v 0.03348643378320609 -0.12567082466780027 0.35689373052984014
v -0.22382384840983235 0.27081803150748934 0.3556718985675925
v 0.2900127964399811 -0.09216393187054135 0.13430981716143117
v 0.44882085444803405 -0.5288512639439803 0.24059487119942397
v 0.006085435279833053 0.7518696116482212 -0.12323403476841248
v -0.12334720481120587 0.12622757578915855 0.3521628762890258
v 0.8361974078437701 0.010743147300766394 -0.4131384738952713
v 0.028368196793378316 0.30689854160113833 0.12109318487674782
v 0.08170141935606268 -0.20102604496088933 0.3627117705948799
v 0.15160228872015893 0.11833085340440848 0.12778451375953934
v 0.44591204232418447 -0.04003331805922526 -0.03317067521289514
v 0.35120671186617075 -0.10468366837019889 0.08703259123631535
v 0.7705577586607933 -0.3263757909253734 -0.1587931696383022
v 0.9026036863624213 -0.10382849441627727 -0.41050521322984973
v 0.6667814378420793 0.11755129050574657 -0.32675761552166954
v 0.35724397756113324 0.7667569236079932 -0.41731947824726584
v 0.269435360131845 0.4494254731356943 -0.16321811127015975
v -0.21785743790887918 0.2619703426212876 0.3531698919365402
v 0.027142622599955098 0.7711787889303681 -0.1415625027009943
v 0.5258837149670031 -0.48393958666284514 0.1505583044344687
v 0.1900053714988603 0.05910964638743369 0.1305107078858183
v -0.051397214238851664 0.014200500905760232 0.3553502632138077
v 0.37525867787893896 0.7260851231344315 -0.4189278410653259
v 0.19530148573205056 0.046922704425799835 0.13496613657833523
v -0.17114769066341937 0.6469857837765377 0.09741355839304817
v -0.30846578536514596 0.4085151005306795 0.3536702868329675
v 0.25168539768741555 -0.46734071940044497 0.37196150639425096
v 0.40642775327092123 -0.07092039473923363 0.020092784264466146
v 0.37731906413456334 0.5085892498651501 -0.29345488621659105
v 0.7752392248408942 -0.3218092062102523 -0.16323480025210385
v -0.04542461683434676 0.7257637189300096 -0.058580221056894095
v 0.38614940221962574 -0.5636501982127339 0.30596323706461565
v 0.03550391870889081 0.7717313697001593 -0.14643636001247157
v 0.37981578026702656 -0.08806721093942199 0.04974572182224225
v -0.030930660175635644 0.7262342728651802 -0.06418646118037608
v 0.24407809302660696 -0.03072342314667043 0.13353464137214685
v 0.6601744201402253 -0.3953347326848122 -0.02535906389354055
v 0.5843409892773619 -0.4449567202472421 0.07354841855239895
v 0.8394590654789865 0.004109402108229084 -0.41852838769097583
v 0.6895457366015403 0.13243487218955205 -0.3521713308380118
v 0.07897540161346078 -0.1927239759373641 0.3694690114019144
v -0.24754893519196963 0.6049216142397735 0.19096866262035844
v -0.17606760601090915 0.2045060685301769 0.3576686103102997
v 0.3761993829384874 -0.0822607660461427 0.05836240267012567
v 0.02760629512386318 0.3082043553195927 0.11776538438176616
v 0.19019508060930704 0.40309436900243184 -0.07007392823027521
v 0.6828223673614172 -0.3834807558964861 -0.05694673228349214
v 0.7847749930627154 0.0927626793147264 -0.4126781607859688
v 0.1501466222844923 -0.3100334050225164 0.358201616534152
v -0.3411008017789424 0.5460134798139555 0.3021125920791883
v 0.8439751738265685 -0.28029297354822 -0.2511277654495228
v -0.2862495649548158 0.5822385096027092 0.23742207862564788
v 0.05716408597007205 -0.16002294355105465 0.3639320629586848
v -0.09234872494766408 0.696106007376122 0.006428342882929688
v 0.07463935905798458 0.23279288175841933 0.12656260530318905
v 0.4591752003840908 0.5694357849077575 -0.4022990000099397
v 0.19404299116619253 0.4091217529776452 -0.08218556819440558
v 0.4257986692767427 0.6505335473404407 -0.4155510882985449
v 0.22142858226109785 -0.4262496346797843 0.36920825434724125
v -0.014258744763717282 -0.04554873504329218 0.3560776650091744
v 0.6521524821265252 -0.3957619759519438 -0.02473626188877207
v 0.2911635367285976 0.8662690882154704 -0.4156112972089043
v 0.2697641498809508 0.45158456586280066 -0.1718583852344553
v 0.547024441711509 -0.46239831293490996 0.1068917688570263
v 0.42953204584576515 -0.5436109494096925 0.25813102414934824
v -0.31695198085806386 0.5556539713487617 0.2740405080405441
v 0.4125419034964466 -0.5475133392446453 0.279476192932039
v 0.013515598244354029 0.7630954024780883 -0.12003557402202542
v -0.25418602393807144 0.3252728261462979 0.3571147607648792
v 0.8605558997377227 -0.03211652917125657 -0.40943177293566596
v 0.37249747113634113 0.7276248442207881 -0.41604840105725704
v 0.44716502590458035 0.62631397742744 -0.4183172909902735
v 0.08294200255988471 0.34221230500044314 0.053317129340070525
v 0.8694058526052463 -0.2633575921765607 -0.28391732471330833
v 0.04539144093569321 0.7744764406325264 -0.1571737581729526
v 0.11896848876619101 -0.26149516523283567 0.35942385020270845
v 0.22758647564592385 0.0024716927511224795 0.1286689748504568
v 0.5179971593076084 0.013449234746180545 -0.13102261278547722
v 0.03957340002128405 0.2870004172493468 0.12180398209014981
v 0.10582543581165597 -0.2322275257625671 0.36224240751173065
v -0.23290094259916833 0.6151483709917019 0.16437803496214137
v -0.11709391645683997 0.10217840407145173 0.3558934911278829
v -0.23478117441603355 0.28072844799957447 0.3544541477109855
v 0.6879060453347876 -0.3782777115703328 -0.06720649402307707
v 0.838613900901481 -0.28544145620585937 -0.24313193335168592
v 0.15415265368556266 -0.3156220206787654 0.3672411737351024
v 0.13244634077034903 -0.2735432069020567 0.3578181899002929
v 0.2565626029612358 -0.46919672903082815 0.37038883850317356
v 0.4214834116545923 0.6592147453132362 -0.4233183589720797
v 0.26650877573083126 -0.48544350016077015 0.36459459193784444
v 0.4529169823304603 0.5616215978247978 -0.3850815851556983
v 0.1573597649105617 0.10611042184037717 0.1308917133879877
v 0.4331744078841538 -0.04570629973847708 -0.01833736764148774
v 0.10469276356810729 0.35896926794821726 0.03221139450129194
v 0.6856165524669092 0.13473308387402597 -0.35014234302567854
v 0.8597918065510115 -0.01838666720236909 -0.40824459666040286
v 0.5837729888478171 -0.436394584200107 0.06488211281990955
v 0.08786709900654113 0.2166637206848602 0.12727693605809445
v -0.018003630762862714 0.7409903663474691 -0.08139378702691358
v 0.7740263127220813 -0.3261525909569536 -0.16767840139127568
v 0.5887115022791207 0.0657321540291231 -0.227984705281593
v 0.7579585107971163 0.13170328258545783 -0.413193140670547
v 0.21365276648796108 0.4215094309103089 -0.10441753193308033
v 0.18251901853671554 0.397463164789718 -0.05316035632986052
v 0.4730826729528879 -0.5123313397966776 0.2024134827067041
v 0.6935651968385935 -0.37507070577645607 -0.06246206240499182
v 0.9105251709119511 -0.0910179405717004 -0.41305489078036295
v -0.25754138241506175 0.3263297406616971 0.3511537573229256
v -0.14148180907428493 0.6648757268108823 0.0686742792596113
v 0.8705856483883316 -0.0378738971661894 -0.4097138893609776
v 0.6981918821444639 -0.37184805510495944 -0.07600996358435311
v 0.30793373660795437 -0.11466368827587634 0.13428096759155447
v 0.5564244158482553 0.042590496545439345 -0.1761811265570012
v 0.28615388497197153 0.8724793815094447 -0.41588647829817577
v 0.3255393945109756 -0.5740910842881416 0.37518370736144396
v 0.2739832001910921 -0.49762703982010237 0.365769082404785
v -0.28683637226697734 0.3716080710129217 0.3553088456590835
v -0.028162367622990462 0.737119137465918 -0.07562511298605573
v 0.31330788101778717 -0.1335540251699115 0.13692063546772953
v -0.09368524836735102 0.06985148886707611 0.35629894102534193
v 0.9444459867678734 -0.21417979910450827 -0.3845933333832747
v -0.11807820056766297 0.12159479350024102 0.35866231326319786
v 0.8734890278527053 -0.05505932868833826 -0.4157827595297989
v -0.29650812208362787 0.38888535865566526 0.3541065783253103
v 0.6754680157466947 0.1274960760427653 -0.34368225917259904
v -0.060312955850016156 0.02359251082895611 0.35577985514317445
v 0.8245954807621122 -0.2969660677816692 -0.23105541412811248
v -0.2525923637006476 0.5956948323818351 0.20213393805289406
v 0.04422496519083263 0.2851601378068549 0.12988950837251734
v 0.31900615952622197 -0.1336520352961709 0.1377866889600217
v -0.33016861585852997 0.5518625900991698 0.2860147238587613
v 0.3607286542382907 0.7402613809808676 -0.41466317486014237
v 0.3261454080960984 0.8007128765524768 -0.4149618646635386
v 0.3743606247129385 0.7312121714261512 -0.4246129463067456
v 0.4670417740623711 0.595638717848494 -0.41103698041803144
v 0.4125723661690486 0.6648226582402916 -0.41981510792548093
v 0.8673537404761658 -0.2645717095245219 -0.2802278175363564
v 0.44042264940931447 -0.04132093754773461 -0.028065460942724812
v 0.13735200441799666 0.38148409747034645 -0.008648694095257899
v 0.7750041186175971 -0.32552462364886925 -0.1600198935397624
v 0.9368965498313355 -0.13574039725714815 -0.41095289746999925
v 0.8909079709998515 -0.25481760728714387 -0.30663789860024154
v -0.14228892814225994 0.6668472271467137 0.05544141505079776
v -0.12012558590578103 0.12080301220526599 0.35268846538353954
v 0.23269968662690171 0.43163147669206653 -0.1273215677190175
v -0.3254367855099529 0.5508233657434961 0.2792069888626834
v -0.019728116303100413 -0.047041408446676564 0.3647277732763051
v 0.08221158308749962 -0.207722697834034 0.3627183226743434
v 0.20088735473087638 0.4062683179944212 -0.0760739140610821
v 0.02072936993861966 -0.10873506497784387 0.35887359140986214
v 0.4277989573851666 0.6492917785230559 -0.41976441377426166
v 0.23235473825700914 0.8918971496702064 -0.3797556091048327
v 0.676120783506852 0.121544835280534 -0.33643388711830946
v 0.4878298426465992 -0.5081059456351674 0.1964818299458822
v 0.7748033623365169 -0.32502933250576393 -0.16654352446894907
v 0.19481464602388615 0.05434301670550789 0.12731212631035038
v 0.543637008595864 0.03491069941318898 -0.1651257949552736
v 0.4438884128575738 0.625685564181698 -0.41592213858357385
v 0.5477550781607613 0.03421733862293068 -0.16478112153523214
v -0.13259349947452814 0.6627638687416129 0.059987820530659985
v -0.02558881104242307 -0.035532071536365006 0.3615728497096602
v 0.4346467191015977 -0.04443964550130884 -0.029251098576918846
v 0.1595032041554889 0.10977853873795229 0.13006187724301516
v 0.6999818660001464 0.1442088726174322 -0.37054988928765814
v -0.11130868139469596 0.6937077275812455 0.02310826522633392
v -0.23931930092465462 0.2986313502953524 0.351161031256167
v 0.38755788413529174 0.7025821968634234 -0.4258361409984474
v 0.5613048762753081 0.05432855698090592 -0.19651173167953379
v 0.17059629397960857 0.09107082192806248 0.12648838117638658
v 0.4234427244639809 -0.05726372647666213 -0.0009016961907460062
v -0.2147865561253445 0.6211344208655489 0.13847708218335883
v -0.18024881309169977 0.6406776021056919 0.11447561596699665
v 0.17726888329912843 0.0802187704491545 0.12861797596572264
v 0.41607455955192235 0.5413062107088403 -0.3447774575596039
v 0.8289651813363151 0.021767104475015495 -0.4152918432679474
v -0.3263845345904769 0.55414047212207 0.2784559489523124
v 0.2068266934258092 0.03286867609209005 0.1335567235470082
v 0.7554019065055365 0.14093677417829253 -0.4176598133544149
v 0.291293988360116 0.4638865662184146 -0.19735958671792456
v -0.297282996493346 0.39721925835912236 0.3471269860276361
v 0.38019839662872557 -0.5696374214311971 0.3099037278134291
v 0.3374897265255654 -0.11475516533134192 0.11276979132106023
v -0.12452240268444172 0.11700300781636404 0.35355341167978627
v -0.125388831894245 0.6769127785937041 0.04149209653567647
v 0.8249699515444547 0.022842676487036404 -0.4066724690314602
v 0.026294487589711212 0.2998941167431842 0.12302801567425913
v 0.034930071249556 -0.12987717402344534 0.3636966869220946
v 0.13713345064526053 0.13942749218849532 0.11951893336157043
v 0.1992924767078409 0.8692392816364565 -0.33883317150469616
v 0.4163660544375163 -0.5454496568874648 0.2692487318129599
v 0.2865854034709982 0.45630694872843175 -0.18767934236454842
v -0.2122884275232828 0.614346736667912 0.14439798937333517
v 0.31292646676139996 -0.1337595371517975 0.13450360435655004
v 0.2965546779468442 -0.09560101751651759 0.1376116673846279
v 0.9061174917525617 -0.09254163328128019 -0.4085792726876237
v -0.09033820811934956 0.6925329524888555 0.0014725425810766814
v 0.16810885685352497 -0.3370782149835791 0.36553599787968194
v 0.7113968991801665 -0.3647777534546483 -0.08856414413843675
v 0.3743205760605514 -0.5813223873352273 0.3296750476184531
v 0.09679418055948413 0.20632688347375722 0.1293628678340093
v 0.11930539326553188 -0.2564884445475902 0.3624936769457509
v 0.7104107611734755 0.1508989337404583 -0.38120916528109144
v 0.4376936673447902 0.6350400564768421 -0.4224298128034901
v -0.0062816698040001305 0.7432657042393561 -0.09536904976219672
v -0.25062092656826823 0.31419755604303434 0.3586060713562126
v 0.827762524475182 -0.29621717146028814 -0.2340420500156823
v -0.1299717673322184 0.6714236748068061 0.04680747935039824
v 0.39781276243268493 -0.07287663433352866 0.021151989527248657
v 0.23660276220530152 0.8988910870399132 -0.3897757111062086
v -0.2290018905949782 0.2811915706359474 0.35306094989580444
v -0.15227215924223733 0.16532070427359274 0.36172832791955173
v 0.44697412733088004 -0.044136217134486476 -0.02626231901009629
v 0.740395418265894 -0.34727151272407386 -0.1299890624712366
v 0.15557530692772123 0.10957870363438126 0.12608398600981846
v 0.6145117193605656 0.07871908050288254 -0.2489457394747776
v 0.10612252428516648 0.18985359212350497 0.12699118766429837
v 0.08489329867136708 -0.2040093129449983 0.35655329920903045
v 0.7047481905488125 -0.36466321721811873 -0.08039948674891191
v 0.694941371770174 0.14014725146085016 -0.35807456726908315
v 0.06366043019068982 0.25204398344485623 0.12294247181998641
v -0.24940950300937956 0.5965754652862377 0.19205911303039802
v 0.13598251987222398 -0.280797116479948 0.3645374755494998
v 0.3658150330411823 0.7515359124783184 -0.42382827355303554
v 0.06206202266292691 0.7866061423204707 -0.17986483270499345
v 0.6844497145284979 0.13459258898763898 -0.3480733371617922
v 0.6182108157635482 -0.42526313027712404 0.025030796400824524
v -0.3615138307516031 0.5345558384813953 0.32540372499355086
v 0.17823404910180077 0.08090849860991307 0.1223649091300934
v -0.2631554424196282 0.332674599138543 0.3524817179426806
v -0.18258175520135927 0.2171244050910889 0.35186680162668127
v 0.20169616973973775 0.045644981360152326 0.13147975462716938
v 0.16543741754889982 -0.3297228524045997 0.362447893378813
v -0.06602258525850564 0.7087867384607187 -0.021796786555848494
v 0.8045627627236042 -0.3103166916748855 -0.2118488401916159
v 0.3980897220268707 0.5244556814253181 -0.3206120229496194
v -0.1915291329556516 0.6301805256022206 0.12620137772771753
v 0.1495623920214709 0.8383917274505641 -0.28872108661338763
v -0.11415643849458922 0.09682308658757126 0.36087776746179
v 0.7926923854999227 0.07409504226541906 -0.4218002330016103
v -0.3130103895520648 0.41035189477146866 0.3549612174919505
v 0.0739280290260987 0.7929198335661263 -0.19058357177452775
v 0.2393010821028177 -0.447628168242988 0.3675201246975883
v -0.0960873119923745 0.6945012343357296 0.006253302787951129
v -0.036761956304384995 0.7275839273573506 -0.054225753210988166
v 0.19559281057844302 0.036348951285039455 0.13185722483192097
v -0.20665497369517216 0.6262932356367001 0.13792279422646103
v 0.1094597609688142 0.3554346442614581 0.023318060598184306
v 0.29050763481775305 0.4620422066401136 -0.19697885200057233
v 0.2603296627066986 -0.0521630754862198 0.1301197509304052
v 0.30397116843928285 -0.10384244152397686 0.13089452240470323
v 0.21169620023206026 0.411982476287647 -0.10122375899724133
v 0.07493602606080771 0.7987161608446596 -0.19455484810852214
v 0.10198502393245659 0.8120272142934758 -0.23141652291599354
v 0.5899436363231412 -0.44233636810581395 0.05841138113567979
v 0.2611404202367192 0.45093974441872264 -0.15714217583391518
v 0.7362872598631041 -0.34663357631434694 -0.12177229315097862
v 0.07911763371944845 0.338192775776875 0.05383825396072893
v -0.3386602461846309 0.5446535687567068 0.3078395786917796
v 0.3425794195617243 0.4972018690687363 -0.2604204353801694
v -0.3560674587567256 0.4732341107251426 0.35329187315702576
v 0.6674071083121182 -0.39025663513659203 -0.038346489393630064
v -0.11824991652013439 0.6746590293922168 0.034597379170738775
v 0.22508159561732863 -0.4210621665451758 0.3653329080460144
v 0.10896734872811256 -0.24012140074030136 0.3634250412338637
v 0.8405359160166361 -0.27970817646827295 -0.25106654382278626
v -0.23935769095888365 0.605520762554563 0.17872704583653784
v -0.1419936799469577 0.6764378746460917 0.046711569798409375
v 0.5288475415603476 0.026740540426432452 -0.14895614400192364
v 0.7174705257556756 -0.3592146309734946 -0.09854040683995305
v -0.16535969131475745 0.1859716257726638 0.3583400955625228
v -0.2593400481285102 0.5957135472856953 0.20081068564420915
v 0.40907880065990937 0.6799160805215031 -0.4131136812511749
v 0.5747401463667546 -0.4561502870048535 0.08537313116921362
v 0.9179250180274536 -0.23489424221301777 -0.3490061903059327
v 0.15851151455843834 0.8488939960534113 -0.2983813884456284
v 0.42496689009344935 -0.5384391322027856 0.25277237646885364
v 0.05135778746228458 -0.15678750522007368 0.3631578465649167
v -0.2739109826421064 0.3511967077369448 0.35712829208069297
v 0.35339167590734194 -0.10295690043063664 0.09164524028470586
v 0.42587688561764975 -0.5380817231395616 0.258728854137079
v 0.5384881199108108 0.02491669068753473 -0.1532530888258437
v 0.07699922306451128 -0.189954196238869 0.3610352958948753
v 0.7875670777289773 0.08923404849183751 -0.41540582538361265
v -0.1968991223640585 0.6333060270452797 0.1277917222997712
v 0.3039287295251641 -0.10958895797355754 0.13585638639154107
v 0.6102707983268599 0.08056456592212859 -0.24901105339305427
v 0.2530989972743295 0.44578627831797096 -0.15361058838832364
v 0.08742186340023482 0.8030833198918428 -0.20797786237128535
v -0.07440337574043653 0.711804509656577 -0.021650668349570756
v -0.1290330392105979 0.6735681303404902 0.048557229979586405
v 0.2388112798084826 -0.4437364038458715 0.3671350547066584
v 0.3920690498909524 -0.0783281880370144 0.10308353663377187
v 0.3637265196434859 -0.10216188342246287 0.11503304405435573
v 0.27450903984676406 -0.07278203514857379 0.13607172649120858
v 0.2538401261338285 -0.030226790557784454 0.1326852592078861
v 0.21317165118381556 0.03294094101760482 0.12725571677619585
v 0.3911292129001172 -0.08333037892381034 0.10028032721130896
v 0.3464293572381878 -0.11155033768182358 0.12188381912465814
v 0.2651333700319275 -0.06691851640818655 0.13279067190673582
v 0.23700351292444466 -0.015371045874233233 0.13531369450632277
v 0.17101984720512972 0.09437883643610802 0.12519260049551967
v 0.13289661342723638 0.1528630295898599 0.1242053588998913
v 0.10833511788875053 0.1884272142460014 0.11790950014168163
v 0.11149321434689644 0.35080572969999074 0.09539474748502316
v 0.08662600499298564 0.2124114043825698 0.1232005510475395
v 0.06106917027529341 0.3342871775777749 0.11035363701158978
v 0.0622445963823179 0.25306562666145477 0.12318823298733174
v 0.17090601881246978 0.08257491385700531 0.1256457195663908
v 0.14764083659914207 0.1283111267453153 0.12473885048994046
v 0.13612876170787516 0.37339685373595705 0.08670977414965114
v 0.12528011286629834 0.16430698717815836 0.1290664584959386
v 0.09457654349665476 0.2001244993321613 0.12553478138180246
v 0.06797885657855189 0.2434671148364005 0.12630444023466952
v 0.09121001293616014 0.34132645353416247 0.10135485462637628
v 0.06041041581444759 0.3198138360124825 0.11285343963153809
v 0.5904815145295252 0.3112197603001852 -0.014972506379366896
v 0.5655373291731901 0.34851062762137835 -0.021759610252227446
v 0.5653516724035009 0.34750389893187594 -0.019370546230974495
v 0.5158527258039227 0.4172197494961889 -0.01593720752478458
v 0.42501995076600235 0.536255226387577 -0.009386908566333767
v 0.39969156128560035 0.5180501673864398 0.0003846016571748118
v 0.36723937598145 0.4995554701981963 0.0005149049777196006
v 0.33764840368867477 0.48087913188796333 0.02101806105765194
v 0.3055933794304652 0.4632987370080691 0.02639098161895694
v 0.2688245115610043 0.44166789138283935 0.042125257925326356
v 0.19941569155789451 0.3973511256684387 0.061610813280304745
v 0.16757772935704518 0.38591985175630356 0.07881814495515876
v 0.5425917944895947 0.39229932799896444 -0.012577115099245275
v 0.4647553682980829 0.5029209142383634 -0.017378514388629897
v 0.397204148073284 0.5139366462362452 -0.003227863933663443
v 0.3560725489325001 0.4944474299081592 0.009239208162851741
v 0.3129622746828588 0.47190331405379077 0.02586130281027443
v 0.26139624534660516 0.4376531170310637 0.044716922332254744
v 0.22064239292533347 0.4203639845497878 0.05560037705330068
v 0.18203511713655054 0.3913350215378265 0.07057327154859216
v 0.4680686481294122 0.4950311195772618 -0.016900175863369296
v 0.49183736233627756 0.46236262282863416 -0.020402719513900335
v 0.489858636124341 0.46905835469972174 -0.01700114887789382
v 0.6791294253127345 0.11756544362829105 -0.008108263777425158
v 0.6573400209774791 0.2093142396479012 -0.020713359048058662
v 0.6209685742115335 0.07285132211529143 0.015054211193036494
v 0.6151347138079366 0.2662033764541398 -0.02524746346474155
v 0.5536232954794268 0.03762520146620483 0.04196959477225512
v 0.5168120802773857 0.005469900651084294 0.04931006423614545
v 0.48543718595378627 -0.006838516395248725 0.07012539354164936
v 0.44273008760297794 -0.04699194289405757 0.08376959714141943
v 0.6686340945153125 0.108952295909383 0.0013472600557767993
v 0.6679131846921377 0.187873548182217 -0.015486227086047256
v 0.6170020495821597 0.2567017921413143 -0.022818115747309846
v 0.6039707608668123 0.06423894953954865 0.020470275622694233
v 0.5439730570511732 0.029610821554363575 0.04740854256256407
v 0.4891582055631502 -0.005671460228174052 0.06659352827864415
v 0.44123062806347024 -0.04610287326226514 0.08232595018817862
v 0.12082526697063323 0.15695281909026293 0.12947513843901692
v 0.6684613723251343 0.11463823497570837 -0.002691750731113823
v 0.1669447360997986 0.3791301176943981 0.07516112760244259
v 0.13503318719709 0.14069187586881327 0.13141782838071986
v 0.1933140764497923 0.05786149150904577 0.1285342468876074
v 0.34769658583329127 -0.10458148034128448 0.12199496215442832
v 0.12251493553411519 0.16757002875557808 0.12677968452550736
v 0.6290788681110512 0.08729721067115868 0.012765342902820716
v 0.24824546227574396 -0.03291044269991938 0.1315895912628679
v 0.07092388445208957 0.2312141621535647 0.12353694056126649
v 0.677368505529787 0.11789219689646956 -0.009878880266044587
v 0.48606279558533566 -0.014154045399682846 0.06470045429432945
v 0.2594529755712279 -0.04968294238386824 0.1305921679388244
v 0.038051557465877434 0.28425713136273667 0.12352262157614306
v 0.5302519956472552 0.40288249805330173 -0.021970632968374537
v 0.4831937130568405 0.4843303787985519 -0.01963582123786176
v 0.07087448234888981 0.24559512308302114 0.12196290306174465
v 0.3646271267497502 -0.09844840077731508 0.1182386049235897
v 0.13908856310731002 0.1354111126091609 0.12044415889678328
v 0.22996715617172175 0.4245128495501243 0.04970716205460451
v 0.37482900213285586 -0.09306817390488148 0.11155059367171637
v 0.2069291565220746 0.40816221380210377 0.060013469056319865
v 0.15305694833478536 0.11112276100188999 0.12876105414495959
v 0.6913341322365592 0.14676986252258897 -0.01758328320629324
v 0.4704137282966748 0.49797394944624884 -0.022862752781145655
v 0.3032029963332873 -0.11606876941267096 0.13139300369312348
v 0.20828232761775467 0.03139044700259235 0.12902436316018306
v 0.4239278326610256 -0.055310438116351356 0.09213797498564179
v 0.5881761721539733 0.31041739998360374 -0.022506607912868484
v 0.4920544558688303 0.46414615071997073 -0.018941221927634564
v 0.08031407490771601 0.22999515960562097 0.12751735957235183
v 0.4657616538025846 -0.02615388436681665 0.072454679927656
v 0.09451386550399306 0.3408903834357428 0.10249868382587982
v 0.07534995796179089 0.3392434881404966 0.10043306116919382
v 0.1666081206624714 0.382900321726366 0.07954698959807825
v 0.560367681535706 0.35965548181714063 -0.01619379484708148
v 0.6497440500139006 0.215880915661673 -0.013997056142317856
v 0.516041695840423 0.4255442477722446 -0.020122938582208354
v 0.3671621244421475 0.504447958612784 0.007375737022953529
v 0.1329446060339016 0.14246022586833423 0.12930675722692306
v -0.21331714745115693 -0.15262484837926169 0.114131378287285
v -0.24387004572352727 -0.10501415379084478 0.11348235548127852
v -0.2896605962475446 -0.04465769035653904 0.11552208800011105
v -0.3137262359640697 -0.007969333391451679 0.11207323186459345
v -0.3975418118603974 0.03859851477004794 0.09840479170839361
v -0.2952258047831506 -0.03595920251940187 0.11579660546017961
v -0.3988210802153708 0.027152355475617247 0.10386959775308405
v -0.42564407602893606 -0.0006039966633514138 0.09111816816497717
v -0.05250126831039301 -0.4423329820086069 0.11267438560716543
v -0.059678349122192026 -0.3889269469503433 0.11904828818280073
v -0.0896547081499725 -0.3490140825433807 0.11775699266381429
v -0.1496354269044183 -0.25806245634022085 0.11794027815965046
v -0.169730853990847 -0.22685319430295098 0.11491343942070772
v -0.1813724372161319 -0.2141908158297595 0.11071481992250326
v -0.06262297314644982 -0.3867702992703863 0.1158068211898194
v -0.10728050899862548 -0.46363233422598576 0.10589469354996736
v -0.13260716313810242 -0.28335055596058156 0.1197890447611884
v -0.12184566922878928 -0.2985336381930917 0.11436875420598501
v -0.15157805669077293 -0.2535608284884152 0.11735008212586868
v -0.18111260902379414 -0.20966515147532186 0.12089926654115762
v -0.5825681002563001 -0.45704336401147594 0.013359521619449668
v -0.6210877258018328 -0.4213507183747282 0.01520030593512488
v -0.5774353423024847 -0.48388221091898004 0.019536580557013232
v -0.578848564436105 -0.4743024687785718 0.017362410762325926
v -0.6100042039567066 -0.4258739449152253 0.016074462170935725
v -0.6073589536559937 -0.43140332992975045 0.018866457157441598
v -0.43063353930825315 -0.6655975674981809 0.02420196984295984
v -0.35153785078755534 -0.6208567212818501 0.042979736584954846
v -0.3979987049788821 -0.6429154812417459 0.036845984394099654
v -0.4812069414138911 -0.6139139134118771 0.01907507460374983
v -0.5110512059675117 -0.5730860616153688 0.014604038566945015
v -0.27647587689449954 -0.5714134022331138 0.06428188540351813
v -0.32578712142222566 -0.6005768252985749 0.048908615209567685
v -0.36797800536503583 -0.6289405985724211 0.033201939875907006
v -0.39237296575861064 -0.6477770954384684 0.031327996512011305
v -0.40964009890696107 -0.6596515706281376 0.02498722882757479
v -0.4735021077085644 -0.6338022618741048 0.009585587189606526
v -0.5034480615571076 -0.5925860330761447 0.01678125406397795
v -0.14600482470254902 -0.4949732849264667 0.08991621574529898
v -0.1965370988772466 -0.5259090734278681 0.08492830119353509
v -0.23888059076423201 -0.5528447383775088 0.07898702063199181
v -0.5491731751381996 -0.5200062677882817 0.01996508839343952
v -0.16890682163036366 -0.5086076926208436 0.08901075478475204
v -0.5431616463029686 -0.527066014621255 0.022541653639097402
v -0.578995561981459 -0.13916017371886666 0.05223921646983603
v -0.6351942538926413 -0.39453489373143913 0.013847532595427864
v -0.660063814480943 -0.21996152898415666 0.025918659604158283
v -0.6832331615237802 -0.3231645250617852 0.012377656807425976
v -0.5861519529947538 -0.14648468386095095 0.05355380420911664
v -0.6040132130732041 -0.16716229374149122 0.0447317184006923
v -0.6440061011348661 -0.19984492352702635 0.035292765115934224
v -0.6381323894116987 -0.3895614368045932 0.018090791321125763
v -0.6416301688491106 -0.3877596496846065 0.017645580362532103
v -0.6731481957052081 -0.3358516525000491 0.014664414893590957
v -0.6825040932146348 -0.2391456134094904 0.017992593205129977
v -0.5639757098550884 -0.5057834890377907 0.016460627593786564
v -0.49191874267232366 -0.5976615587474006 0.019454484487492298
v -0.1260542160993156 -0.28530491427658305 0.12178974553275178
v -0.48640687558489165 -0.059492191842193246 0.07547237473183571
v -0.45374768054732406 -0.023815149018188375 0.0906626953894633
v -0.19506517485303576 -0.19308513447948608 0.11451106093909237
v -0.6906131731422912 -0.2974051103930329 0.011319380164519544
v -0.19958364535502365 -0.1768345702372615 0.1183932231841005
v -0.5664071082047564 -0.12847916714070956 0.04980102124024376
v -0.06045703446208176 -0.3916914295774004 0.12361690141325163
v -0.5639040584591472 -0.13079033909812987 0.05597488814903853
v -0.39908933076657355 -0.648925088602782 0.03470377597877451
v -0.3211085560958585 -0.6007943334753926 0.04891963957172508
v -0.6151305148583668 -0.17792078841746906 0.04400426672976478
v -0.24744572092654463 -0.10658570706827056 0.11370718445924183
v -0.15094651683562915 -0.25279162302759384 0.11661650392937196
v -0.5706125341115232 -0.12364216742874186 0.05777488771798711
v -0.4680943079700226 -0.039868422020407565 0.08565324768542039
v -0.5101383906271959 -0.5749498774655154 0.01572443695418479
v -0.6994968316793686 -0.30322221870341715 0.012722130308986335
v -0.47710549191536533 -0.04667183120552662 0.080859672393008
v -0.13359867258903416 -0.278428461315323 0.11670738672379319
v -0.13634273258128302 -0.4913591765042772 0.09210469692759563
v -0.2473176759524705 -0.5546221266199086 0.07130270676745254
v -0.41976053818887565 0.006730311181327385 0.09743116421208764
