v 0.1451 0.857541 -0.050024
v 0.042888 0.314414 -0.052732
v 0.46017 0.234674 -0.226029
v 0.684185 0.75274 -0.273275
v 0.48744 -0.439639 -0.28859
v 0.336092 -0.41464 -0.226029
v -0.325916 0.38489 -0.20585
v -0.379499 0.938745 -0.269701
v -0.523816 0.064046 -0.260559
v -0.66902 -0.834031 0.039621
v -0.266402 -0.91141 0.196719
v -0.523816 0.064046 0.025226
v -0.021693 0.326755 0.194011
v -0.325916 0.38489 0.076244
v 0.221926 -1.006769 0.007916
v 0.46017 0.234674 0.008241
l 1 2
l 2 3
l 8 9
l 13 16
l 7 9
l 5 6
l 13 14
l 11 13
l 1 8
l 10 11
l 3 6
l 2 7
l 10 12
l 11 15
l 15 16
l 1 4
l 4 5
l 12 14
