v -0.982156 0.341696 -0.081495
v -0.382498 -0.101756 0.113754
v -0.857475 -0.678505 -0.082697
v 1.008191 -0.450075 -0.078638
v 0.425596 -0.009074 0.113754
v 0.882600 0.581047 -0.082105
v -0.040101 0.072903 0.116820
v -0.624495 0.521892 -0.079220
v 0.426649 0.651123 -0.074142
v 0.442120 0.527352 -0.083980
v -0.608113 0.387200 -0.076699
v -0.025493 -0.064278 0.120838
l 6 10
l 11 12
l 9 10
l 1 11
l 2 12
l 2 3
l 7 8
l 10 12
l 8 11
l 4 5
l 5 6
l 7 12
l 3 4
l 5 12
l 4 6
l 1 2
l 7 9
l 8 9
l 1 3
f 7 9 10 12
f 7 8 11 12
f 1 2 12 11
f 5 6 10 12
f 4 5 6
f 7 8 9
f 1 2 3
f 2 3 4 5 12
